G04*
G04 #@! TF.GenerationSoftware,Altium Limited,Altium Designer,19.1.7 (138)*
G04*
G04 Layer_Color=8388736*
%FSTAX24Y24*%
%MOIN*%
G70*
G01*
G75*
%ADD11C,0.0100*%
%ADD31R,0.0867X0.0671*%
%ADD32R,0.0568X0.0316*%
%ADD33R,0.0316X0.0568*%
%ADD34R,0.0474X0.0710*%
%ADD35R,0.1261X0.0671*%
%ADD36R,0.0356X0.0474*%
%ADD37R,0.0395X0.0710*%
G04:AMPARAMS|DCode=38|XSize=86.7mil|YSize=126.1mil|CornerRadius=23.7mil|HoleSize=0mil|Usage=FLASHONLY|Rotation=0.000|XOffset=0mil|YOffset=0mil|HoleType=Round|Shape=RoundedRectangle|*
%AMROUNDEDRECTD38*
21,1,0.0867,0.0787,0,0,0.0*
21,1,0.0394,0.1261,0,0,0.0*
1,1,0.0474,0.0197,-0.0394*
1,1,0.0474,-0.0197,-0.0394*
1,1,0.0474,-0.0197,0.0394*
1,1,0.0474,0.0197,0.0394*
%
%ADD38ROUNDEDRECTD38*%
%ADD39R,0.0277X0.0395*%
%ADD40R,0.0671X0.0867*%
G04:AMPARAMS|DCode=41|XSize=165.5mil|YSize=67.1mil|CornerRadius=18.8mil|HoleSize=0mil|Usage=FLASHONLY|Rotation=180.000|XOffset=0mil|YOffset=0mil|HoleType=Round|Shape=RoundedRectangle|*
%AMROUNDEDRECTD41*
21,1,0.1655,0.0295,0,0,180.0*
21,1,0.1280,0.0671,0,0,180.0*
1,1,0.0375,-0.0640,0.0148*
1,1,0.0375,0.0640,0.0148*
1,1,0.0375,0.0640,-0.0148*
1,1,0.0375,-0.0640,-0.0148*
%
%ADD41ROUNDEDRECTD41*%
G04:AMPARAMS|DCode=42|XSize=165.5mil|YSize=67.1mil|CornerRadius=18.8mil|HoleSize=0mil|Usage=FLASHONLY|Rotation=90.000|XOffset=0mil|YOffset=0mil|HoleType=Round|Shape=RoundedRectangle|*
%AMROUNDEDRECTD42*
21,1,0.1655,0.0295,0,0,90.0*
21,1,0.1280,0.0671,0,0,90.0*
1,1,0.0375,0.0148,0.0640*
1,1,0.0375,0.0148,-0.0640*
1,1,0.0375,-0.0148,-0.0640*
1,1,0.0375,-0.0148,0.0640*
%
%ADD42ROUNDEDRECTD42*%
%ADD43R,0.0671X0.0671*%
%ADD44C,0.0671*%
%ADD45C,0.0592*%
%ADD46R,0.0671X0.0671*%
G04:AMPARAMS|DCode=47|XSize=67.1mil|YSize=145.8mil|CornerRadius=18.8mil|HoleSize=0mil|Usage=FLASHONLY|Rotation=270.000|XOffset=0mil|YOffset=0mil|HoleType=Round|Shape=RoundedRectangle|*
%AMROUNDEDRECTD47*
21,1,0.0671,0.1083,0,0,270.0*
21,1,0.0295,0.1458,0,0,270.0*
1,1,0.0375,-0.0541,-0.0148*
1,1,0.0375,-0.0541,0.0148*
1,1,0.0375,0.0541,0.0148*
1,1,0.0375,0.0541,-0.0148*
%
%ADD47ROUNDEDRECTD47*%
%ADD48C,0.0474*%
%ADD49R,0.0474X0.0474*%
%ADD50O,0.0828X0.0671*%
%ADD51R,0.0828X0.0671*%
%ADD52R,0.0474X0.0474*%
%ADD53O,0.0316X0.0395*%
%ADD54O,0.0671X0.0828*%
%ADD55R,0.0671X0.0828*%
%ADD56O,0.0552X0.0474*%
%ADD57R,0.0552X0.0474*%
%ADD58O,0.0474X0.0552*%
%ADD59C,0.0277*%
D11*
X009988Y0337D02*
X04938D01*
X011042Y011575D02*
X011157Y011552D01*
X011264Y011508D01*
X011361Y011443D01*
X011443Y011361D01*
X011508Y011264D01*
X011552Y011157D01*
X011575Y011042D01*
Y010984D02*
Y011042D01*
Y010926D02*
Y010984D01*
X011552Y010812D02*
X011575Y010926D01*
X011508Y010705D02*
X011552Y010812D01*
X011443Y010608D02*
X011508Y010705D01*
X011361Y010526D02*
X011443Y010608D01*
X011264Y010461D02*
X011361Y010526D01*
X011157Y010416D02*
X011264Y010461D01*
X011042Y010394D02*
X011157Y010416D01*
X010926Y010394D02*
X011042D01*
X010812Y010416D02*
X010926Y010394D01*
X010705Y010461D02*
X010812Y010416D01*
X010608Y010526D02*
X010705Y010461D01*
X010526Y010608D02*
X010608Y010526D01*
X010461Y010705D02*
X010526Y010608D01*
X010416Y010812D02*
X010461Y010705D01*
X010394Y010926D02*
X010416Y010812D01*
X010394Y010926D02*
Y010984D01*
Y011042D01*
X010416Y011157D01*
X010461Y011264D01*
X010526Y011361D01*
X010608Y011443D01*
X010705Y011508D01*
X010812Y011552D01*
X010926Y011575D01*
X011042D01*
X048424D02*
X048538Y011552D01*
X048645Y011508D01*
X048742Y011443D01*
X048824Y011361D01*
X048889Y011264D01*
X048934Y011157D01*
X048956Y011042D01*
Y010984D02*
Y011042D01*
Y010926D02*
Y010984D01*
X048934Y010812D02*
X048956Y010926D01*
X048889Y010705D02*
X048934Y010812D01*
X048824Y010608D02*
X048889Y010705D01*
X048742Y010526D02*
X048824Y010608D01*
X048645Y010461D02*
X048742Y010526D01*
X048538Y010416D02*
X048645Y010461D01*
X048424Y010394D02*
X048538Y010416D01*
X048308Y010394D02*
X048424D01*
X048193Y010416D02*
X048308Y010394D01*
X048086Y010461D02*
X048193Y010416D01*
X047989Y010526D02*
X048086Y010461D01*
X047907Y010608D02*
X047989Y010526D01*
X047842Y010705D02*
X047907Y010608D01*
X047798Y010812D02*
X047842Y010705D01*
X047775Y010926D02*
X047798Y010812D01*
X047775Y010926D02*
Y010984D01*
Y011042D01*
X047798Y011157D01*
X047842Y011264D01*
X047907Y011361D01*
X047989Y011443D01*
X048086Y011508D01*
X048193Y011552D01*
X048308Y011575D01*
X048424D01*
X018299Y018583D02*
X01836Y018571D01*
X018417Y018547D01*
X018468Y018512D01*
X018512Y018468D01*
X018547Y018417D01*
X018571Y01836D01*
X018583Y018299D01*
Y018268D02*
Y018299D01*
Y018237D02*
Y018268D01*
X018571Y018176D02*
X018583Y018237D01*
X018547Y018119D02*
X018571Y018176D01*
X018512Y018067D02*
X018547Y018119D01*
X018468Y018023D02*
X018512Y018067D01*
X018417Y017989D02*
X018468Y018023D01*
X01836Y017965D02*
X018417Y017989D01*
X018299Y017953D02*
X01836Y017965D01*
X018237Y017953D02*
X018299D01*
X018176Y017965D02*
X018237Y017953D01*
X018119Y017989D02*
X018176Y017965D01*
X018067Y018023D02*
X018119Y017989D01*
X018023Y018067D02*
X018067Y018023D01*
X017989Y018119D02*
X018023Y018067D01*
X017965Y018176D02*
X017989Y018119D01*
X017953Y018237D02*
X017965Y018176D01*
X017953Y018237D02*
Y018268D01*
Y018299D01*
X017965Y01836D01*
X017989Y018417D01*
X018023Y018468D01*
X018067Y018512D01*
X018119Y018547D01*
X018176Y018571D01*
X018237Y018583D01*
X018299D01*
X035679Y020974D02*
X035736Y020963D01*
X035789Y020941D01*
X035838Y020908D01*
X035879Y020867D01*
X035911Y020819D01*
X035934Y020765D01*
X035945Y020708D01*
Y020679D02*
Y020708D01*
Y02065D02*
Y020679D01*
X035934Y020593D02*
X035945Y02065D01*
X035911Y020539D02*
X035934Y020593D01*
X035879Y020491D02*
X035911Y020539D01*
X035838Y02045D02*
X035879Y020491D01*
X035789Y020417D02*
X035838Y02045D01*
X035736Y020395D02*
X035789Y020417D01*
X035679Y020384D02*
X035736Y020395D01*
X035621Y020384D02*
X035679D01*
X035563Y020395D02*
X035621Y020384D01*
X03551Y020417D02*
X035563Y020395D01*
X035461Y02045D02*
X03551Y020417D01*
X03542Y020491D02*
X035461Y02045D01*
X035388Y020539D02*
X03542Y020491D01*
X035366Y020593D02*
X035388Y020539D01*
X035354Y02065D02*
X035366Y020593D01*
X035354Y02065D02*
Y020679D01*
Y020708D01*
X035366Y020765D01*
X035388Y020819D01*
X03542Y020867D01*
X035461Y020908D01*
X03551Y020941D01*
X035563Y020963D01*
X035621Y020974D01*
X035679D01*
X021888Y022992D02*
X022042Y022972D01*
X022191Y022932D01*
X022335Y022873D01*
X022469Y022795D01*
X022591Y022701D01*
X022701Y022591D01*
X022795Y022469D01*
X022873Y022335D01*
X022932Y022191D01*
X022972Y022042D01*
X022992Y021888D01*
Y021811D02*
Y021888D01*
Y021734D02*
Y021811D01*
X022972Y02158D02*
X022992Y021734D01*
X022932Y021431D02*
X022972Y02158D01*
X022873Y021288D02*
X022932Y021431D01*
X022795Y021153D02*
X022873Y021288D01*
X022701Y021031D02*
X022795Y021153D01*
X022591Y020921D02*
X022701Y021031D01*
X022469Y020827D02*
X022591Y020921D01*
X022335Y020749D02*
X022469Y020827D01*
X022191Y02069D02*
X022335Y020749D01*
X022042Y02065D02*
X022191Y02069D01*
X021888Y02063D02*
X022042Y02065D01*
X021734Y02063D02*
X021888D01*
X02158Y02065D02*
X021734Y02063D01*
X021431Y02069D02*
X02158Y02065D01*
X021288Y020749D02*
X021431Y02069D01*
X021153Y020827D02*
X021288Y020749D01*
X021031Y020921D02*
X021153Y020827D01*
X020921Y021031D02*
X021031Y020921D01*
X020827Y021153D02*
X020921Y021031D01*
X020749Y021288D02*
X020827Y021153D01*
X02069Y021431D02*
X020749Y021288D01*
X02065Y02158D02*
X02069Y021431D01*
X02063Y021734D02*
X02065Y02158D01*
X02063Y021734D02*
Y021811D01*
Y021888D01*
X02065Y022042D01*
X02069Y022191D01*
X020749Y022335D01*
X020827Y022469D01*
X020921Y022591D01*
X021031Y022701D01*
X021153Y022795D01*
X021288Y022873D01*
X021431Y022932D01*
X02158Y022972D01*
X021734Y022992D01*
X021888D01*
X035697Y023868D02*
X035783Y023832D01*
X03585Y023766D01*
X035886Y023679D01*
Y023632D02*
Y023679D01*
Y023585D02*
Y023632D01*
X03585Y023498D02*
X035886Y023585D01*
X035783Y023432D02*
X03585Y023498D01*
X035697Y023396D02*
X035783Y023432D01*
X035603Y023396D02*
X035697D01*
X035516Y023432D02*
X035603Y023396D01*
X035449Y023498D02*
X035516Y023432D01*
X035413Y023585D02*
X035449Y023498D01*
X035413Y023585D02*
Y023632D01*
Y023679D01*
X035449Y023766D01*
X035516Y023832D01*
X035603Y023868D01*
X035697D01*
X025385Y025669D02*
X025446Y025657D01*
X025504Y025633D01*
X025555Y025599D01*
X025599Y025555D01*
X025633Y025504D01*
X025657Y025446D01*
X025669Y025385D01*
Y025354D02*
Y025385D01*
Y025323D02*
Y025354D01*
X025657Y025262D02*
X025669Y025323D01*
X025633Y025205D02*
X025657Y025262D01*
X025599Y025154D02*
X025633Y025205D01*
X025555Y02511D02*
X025599Y025154D01*
X025504Y025075D02*
X025555Y02511D01*
X025446Y025051D02*
X025504Y025075D01*
X025385Y025039D02*
X025446Y025051D01*
X025323Y025039D02*
X025385D01*
X025262Y025051D02*
X025323Y025039D01*
X025205Y025075D02*
X025262Y025051D01*
X025154Y02511D02*
X025205Y025075D01*
X02511Y025154D02*
X025154Y02511D01*
X025075Y025205D02*
X02511Y025154D01*
X025051Y025262D02*
X025075Y025205D01*
X025039Y025323D02*
X025051Y025262D01*
X025039Y025323D02*
Y025354D01*
Y025385D01*
X025051Y025446D01*
X025075Y025504D01*
X02511Y025555D01*
X025154Y025599D01*
X025205Y025633D01*
X025262Y025657D01*
X025323Y025669D01*
X025385D01*
X047885Y028789D02*
X047984Y02877D01*
X048077Y028731D01*
X048161Y028675D01*
X048232Y028604D01*
X048288Y02852D01*
X048327Y028427D01*
X048346Y028328D01*
Y028278D02*
Y028328D01*
Y028227D02*
Y028278D01*
X048327Y028128D02*
X048346Y028227D01*
X048288Y028035D02*
X048327Y028128D01*
X048232Y027951D02*
X048288Y028035D01*
X048161Y02788D02*
X048232Y027951D01*
X048077Y027824D02*
X048161Y02788D01*
X047984Y027785D02*
X048077Y027824D01*
X047885Y027766D02*
X047984Y027785D01*
X047784Y027766D02*
X047885D01*
X047685Y027785D02*
X047784Y027766D01*
X047592Y027824D02*
X047685Y027785D01*
X047508Y02788D02*
X047592Y027824D01*
X047437Y027951D02*
X047508Y02788D01*
X047381Y028035D02*
X047437Y027951D01*
X047343Y028128D02*
X047381Y028035D01*
X047323Y028227D02*
X047343Y028128D01*
X047323Y028227D02*
Y028278D01*
Y028328D01*
X047343Y028427D01*
X047381Y02852D01*
X047437Y028604D01*
X047508Y028675D01*
X047592Y028731D01*
X047685Y02877D01*
X047784Y028789D01*
X047885D01*
X011042Y033256D02*
X011157Y033234D01*
X011264Y033189D01*
X011361Y033124D01*
X011443Y033042D01*
X011508Y032945D01*
X011552Y032838D01*
X011575Y032724D01*
Y032666D02*
Y032724D01*
Y032608D02*
Y032666D01*
X011552Y032493D02*
X011575Y032608D01*
X011508Y032386D02*
X011552Y032493D01*
X011443Y032289D02*
X011508Y032386D01*
X011361Y032207D02*
X011443Y032289D01*
X011264Y032142D02*
X011361Y032207D01*
X011157Y032098D02*
X011264Y032142D01*
X011042Y032075D02*
X011157Y032098D01*
X010926Y032075D02*
X011042D01*
X010812Y032098D02*
X010926Y032075D01*
X010705Y032142D02*
X010812Y032098D01*
X010608Y032207D02*
X010705Y032142D01*
X010526Y032289D02*
X010608Y032207D01*
X010461Y032386D02*
X010526Y032289D01*
X010416Y032493D02*
X010461Y032386D01*
X010394Y032608D02*
X010416Y032493D01*
X010394Y032608D02*
Y032666D01*
Y032724D01*
X010416Y032838D01*
X010461Y032945D01*
X010526Y033042D01*
X010608Y033124D01*
X010705Y033189D01*
X010812Y033234D01*
X010926Y033256D01*
X011042D01*
X048424D02*
X048538Y033234D01*
X048645Y033189D01*
X048742Y033124D01*
X048824Y033042D01*
X048889Y032945D01*
X048934Y032838D01*
X048956Y032724D01*
Y032666D02*
Y032724D01*
Y032608D02*
Y032666D01*
X048934Y032493D02*
X048956Y032608D01*
X048889Y032386D02*
X048934Y032493D01*
X048824Y032289D02*
X048889Y032386D01*
X048742Y032207D02*
X048824Y032289D01*
X048645Y032142D02*
X048742Y032207D01*
X048538Y032098D02*
X048645Y032142D01*
X048424Y032075D02*
X048538Y032098D01*
X048308Y032075D02*
X048424D01*
X048193Y032098D02*
X048308Y032075D01*
X048086Y032142D02*
X048193Y032098D01*
X047989Y032207D02*
X048086Y032142D01*
X047907Y032289D02*
X047989Y032207D01*
X047842Y032386D02*
X047907Y032289D01*
X047798Y032493D02*
X047842Y032386D01*
X047775Y032608D02*
X047798Y032493D01*
X047775Y032608D02*
Y032666D01*
Y032724D01*
X047798Y032838D01*
X047842Y032945D01*
X047907Y033042D01*
X047989Y033124D01*
X048086Y033189D01*
X048193Y033234D01*
X048308Y033256D01*
X048424D01*
X04938Y0337D02*
X049398Y033693D01*
X009967Y03369D02*
X009988Y0337D01*
X009953Y033671D02*
X009967Y03369D01*
X009949Y033647D02*
X009953Y033671D01*
X009949Y033647D02*
X009952Y033636D01*
X009951Y033631D02*
X009952Y033636D01*
X00995Y033624D02*
X009951Y033631D01*
X00995Y01D02*
Y033624D01*
Y00999D02*
Y01D01*
Y00999D02*
X009957Y009972D01*
X009972Y009957D01*
X00999Y00995D01*
X04938D01*
X049398Y009957D01*
X049413Y009972D01*
X04942Y00999D01*
Y01D01*
X04942Y010005D02*
X04942Y01D01*
X049419Y010012D02*
X04942Y010005D01*
X049419Y010012D02*
X049419Y010019D01*
X04942Y010026D01*
X04942Y03365D02*
X04942Y010026D01*
X04942Y03365D02*
Y03366D01*
X049413Y033678D02*
X04942Y03366D01*
X049398Y033693D02*
X049413Y033678D01*
X011042Y011575D02*
X011157Y011552D01*
X011264Y011508D01*
X011361Y011443D01*
X011443Y011361D01*
X011508Y011264D01*
X011552Y011157D01*
X011575Y011042D01*
Y010984D02*
Y011042D01*
Y010926D02*
Y010984D01*
X011552Y010812D02*
X011575Y010926D01*
X011508Y010705D02*
X011552Y010812D01*
X011443Y010608D02*
X011508Y010705D01*
X011361Y010526D02*
X011443Y010608D01*
X011264Y010461D02*
X011361Y010526D01*
X011157Y010416D02*
X011264Y010461D01*
X011042Y010394D02*
X011157Y010416D01*
X010926Y010394D02*
X011042D01*
X010812Y010416D02*
X010926Y010394D01*
X010705Y010461D02*
X010812Y010416D01*
X010608Y010526D02*
X010705Y010461D01*
X010526Y010608D02*
X010608Y010526D01*
X010461Y010705D02*
X010526Y010608D01*
X010416Y010812D02*
X010461Y010705D01*
X010394Y010926D02*
X010416Y010812D01*
X010394Y010926D02*
Y010984D01*
Y011042D01*
X010416Y011157D01*
X010461Y011264D01*
X010526Y011361D01*
X010608Y011443D01*
X010705Y011508D01*
X010812Y011552D01*
X010926Y011575D01*
X011042D01*
X048424D02*
X048538Y011552D01*
X048645Y011508D01*
X048742Y011443D01*
X048824Y011361D01*
X048889Y011264D01*
X048934Y011157D01*
X048956Y011042D01*
Y010984D02*
Y011042D01*
Y010926D02*
Y010984D01*
X048934Y010812D02*
X048956Y010926D01*
X048889Y010705D02*
X048934Y010812D01*
X048824Y010608D02*
X048889Y010705D01*
X048742Y010526D02*
X048824Y010608D01*
X048645Y010461D02*
X048742Y010526D01*
X048538Y010416D02*
X048645Y010461D01*
X048424Y010394D02*
X048538Y010416D01*
X048308Y010394D02*
X048424D01*
X048193Y010416D02*
X048308Y010394D01*
X048086Y010461D02*
X048193Y010416D01*
X047989Y010526D02*
X048086Y010461D01*
X047907Y010608D02*
X047989Y010526D01*
X047842Y010705D02*
X047907Y010608D01*
X047798Y010812D02*
X047842Y010705D01*
X047775Y010926D02*
X047798Y010812D01*
X047775Y010926D02*
Y010984D01*
Y011042D01*
X047798Y011157D01*
X047842Y011264D01*
X047907Y011361D01*
X047989Y011443D01*
X048086Y011508D01*
X048193Y011552D01*
X048308Y011575D01*
X048424D01*
X018299Y018583D02*
X01836Y018571D01*
X018417Y018547D01*
X018468Y018512D01*
X018512Y018468D01*
X018547Y018417D01*
X018571Y01836D01*
X018583Y018299D01*
Y018268D02*
Y018299D01*
Y018237D02*
Y018268D01*
X018571Y018176D02*
X018583Y018237D01*
X018547Y018119D02*
X018571Y018176D01*
X018512Y018067D02*
X018547Y018119D01*
X018468Y018023D02*
X018512Y018067D01*
X018417Y017989D02*
X018468Y018023D01*
X01836Y017965D02*
X018417Y017989D01*
X018299Y017953D02*
X01836Y017965D01*
X018237Y017953D02*
X018299D01*
X018176Y017965D02*
X018237Y017953D01*
X018119Y017989D02*
X018176Y017965D01*
X018067Y018023D02*
X018119Y017989D01*
X018023Y018067D02*
X018067Y018023D01*
X017989Y018119D02*
X018023Y018067D01*
X017965Y018176D02*
X017989Y018119D01*
X017953Y018237D02*
X017965Y018176D01*
X017953Y018237D02*
Y018268D01*
Y018299D01*
X017965Y01836D01*
X017989Y018417D01*
X018023Y018468D01*
X018067Y018512D01*
X018119Y018547D01*
X018176Y018571D01*
X018237Y018583D01*
X018299D01*
X035679Y020974D02*
X035736Y020963D01*
X035789Y020941D01*
X035838Y020908D01*
X035879Y020867D01*
X035911Y020819D01*
X035934Y020765D01*
X035945Y020708D01*
Y020679D02*
Y020708D01*
Y02065D02*
Y020679D01*
X035934Y020593D02*
X035945Y02065D01*
X035911Y020539D02*
X035934Y020593D01*
X035879Y020491D02*
X035911Y020539D01*
X035838Y02045D02*
X035879Y020491D01*
X035789Y020417D02*
X035838Y02045D01*
X035736Y020395D02*
X035789Y020417D01*
X035679Y020384D02*
X035736Y020395D01*
X035621Y020384D02*
X035679D01*
X035563Y020395D02*
X035621Y020384D01*
X03551Y020417D02*
X035563Y020395D01*
X035461Y02045D02*
X03551Y020417D01*
X03542Y020491D02*
X035461Y02045D01*
X035388Y020539D02*
X03542Y020491D01*
X035366Y020593D02*
X035388Y020539D01*
X035354Y02065D02*
X035366Y020593D01*
X035354Y02065D02*
Y020679D01*
Y020708D01*
X035366Y020765D01*
X035388Y020819D01*
X03542Y020867D01*
X035461Y020908D01*
X03551Y020941D01*
X035563Y020963D01*
X035621Y020974D01*
X035679D01*
X021888Y022992D02*
X022042Y022972D01*
X022191Y022932D01*
X022335Y022873D01*
X022469Y022795D01*
X022591Y022701D01*
X022701Y022591D01*
X022795Y022469D01*
X022873Y022335D01*
X022932Y022191D01*
X022972Y022042D01*
X022992Y021888D01*
Y021811D02*
Y021888D01*
Y021734D02*
Y021811D01*
X022972Y02158D02*
X022992Y021734D01*
X022932Y021431D02*
X022972Y02158D01*
X022873Y021288D02*
X022932Y021431D01*
X022795Y021153D02*
X022873Y021288D01*
X022701Y021031D02*
X022795Y021153D01*
X022591Y020921D02*
X022701Y021031D01*
X022469Y020827D02*
X022591Y020921D01*
X022335Y020749D02*
X022469Y020827D01*
X022191Y02069D02*
X022335Y020749D01*
X022042Y02065D02*
X022191Y02069D01*
X021888Y02063D02*
X022042Y02065D01*
X021734Y02063D02*
X021888D01*
X02158Y02065D02*
X021734Y02063D01*
X021431Y02069D02*
X02158Y02065D01*
X021288Y020749D02*
X021431Y02069D01*
X021153Y020827D02*
X021288Y020749D01*
X021031Y020921D02*
X021153Y020827D01*
X020921Y021031D02*
X021031Y020921D01*
X020827Y021153D02*
X020921Y021031D01*
X020749Y021288D02*
X020827Y021153D01*
X02069Y021431D02*
X020749Y021288D01*
X02065Y02158D02*
X02069Y021431D01*
X02063Y021734D02*
X02065Y02158D01*
X02063Y021734D02*
Y021811D01*
Y021888D01*
X02065Y022042D01*
X02069Y022191D01*
X020749Y022335D01*
X020827Y022469D01*
X020921Y022591D01*
X021031Y022701D01*
X021153Y022795D01*
X021288Y022873D01*
X021431Y022932D01*
X02158Y022972D01*
X021734Y022992D01*
X021888D01*
X035697Y023868D02*
X035783Y023832D01*
X03585Y023766D01*
X035886Y023679D01*
Y023632D02*
Y023679D01*
Y023585D02*
Y023632D01*
X03585Y023498D02*
X035886Y023585D01*
X035783Y023432D02*
X03585Y023498D01*
X035697Y023396D02*
X035783Y023432D01*
X035603Y023396D02*
X035697D01*
X035516Y023432D02*
X035603Y023396D01*
X035449Y023498D02*
X035516Y023432D01*
X035413Y023585D02*
X035449Y023498D01*
X035413Y023585D02*
Y023632D01*
Y023679D01*
X035449Y023766D01*
X035516Y023832D01*
X035603Y023868D01*
X035697D01*
X025385Y025669D02*
X025446Y025657D01*
X025504Y025633D01*
X025555Y025599D01*
X025599Y025555D01*
X025633Y025504D01*
X025657Y025446D01*
X025669Y025385D01*
Y025354D02*
Y025385D01*
Y025323D02*
Y025354D01*
X025657Y025262D02*
X025669Y025323D01*
X025633Y025205D02*
X025657Y025262D01*
X025599Y025154D02*
X025633Y025205D01*
X025555Y02511D02*
X025599Y025154D01*
X025504Y025075D02*
X025555Y02511D01*
X025446Y025051D02*
X025504Y025075D01*
X025385Y025039D02*
X025446Y025051D01*
X025323Y025039D02*
X025385D01*
X025262Y025051D02*
X025323Y025039D01*
X025205Y025075D02*
X025262Y025051D01*
X025154Y02511D02*
X025205Y025075D01*
X02511Y025154D02*
X025154Y02511D01*
X025075Y025205D02*
X02511Y025154D01*
X025051Y025262D02*
X025075Y025205D01*
X025039Y025323D02*
X025051Y025262D01*
X025039Y025323D02*
Y025354D01*
Y025385D01*
X025051Y025446D01*
X025075Y025504D01*
X02511Y025555D01*
X025154Y025599D01*
X025205Y025633D01*
X025262Y025657D01*
X025323Y025669D01*
X025385D01*
X011042Y033256D02*
X011157Y033234D01*
X011264Y033189D01*
X011361Y033124D01*
X011443Y033042D01*
X011508Y032945D01*
X011552Y032838D01*
X011575Y032724D01*
Y032666D02*
Y032724D01*
Y032608D02*
Y032666D01*
X011552Y032493D02*
X011575Y032608D01*
X011508Y032386D02*
X011552Y032493D01*
X011443Y032289D02*
X011508Y032386D01*
X011361Y032207D02*
X011443Y032289D01*
X011264Y032142D02*
X011361Y032207D01*
X011157Y032098D02*
X011264Y032142D01*
X011042Y032075D02*
X011157Y032098D01*
X010926Y032075D02*
X011042D01*
X010812Y032098D02*
X010926Y032075D01*
X010705Y032142D02*
X010812Y032098D01*
X010608Y032207D02*
X010705Y032142D01*
X010526Y032289D02*
X010608Y032207D01*
X010461Y032386D02*
X010526Y032289D01*
X010416Y032493D02*
X010461Y032386D01*
X010394Y032608D02*
X010416Y032493D01*
X010394Y032608D02*
Y032666D01*
Y032724D01*
X010416Y032838D01*
X010461Y032945D01*
X010526Y033042D01*
X010608Y033124D01*
X010705Y033189D01*
X010812Y033234D01*
X010926Y033256D01*
X011042D01*
X048424D02*
X048538Y033234D01*
X048645Y033189D01*
X048742Y033124D01*
X048824Y033042D01*
X048889Y032945D01*
X048934Y032838D01*
X048956Y032724D01*
Y032666D02*
Y032724D01*
Y032608D02*
Y032666D01*
X048934Y032493D02*
X048956Y032608D01*
X048889Y032386D02*
X048934Y032493D01*
X048824Y032289D02*
X048889Y032386D01*
X048742Y032207D02*
X048824Y032289D01*
X048645Y032142D02*
X048742Y032207D01*
X048538Y032098D02*
X048645Y032142D01*
X048424Y032075D02*
X048538Y032098D01*
X048308Y032075D02*
X048424D01*
X048193Y032098D02*
X048308Y032075D01*
X048086Y032142D02*
X048193Y032098D01*
X047989Y032207D02*
X048086Y032142D01*
X047907Y032289D02*
X047989Y032207D01*
X047842Y032386D02*
X047907Y032289D01*
X047798Y032493D02*
X047842Y032386D01*
X047775Y032608D02*
X047798Y032493D01*
X047775Y032608D02*
Y032666D01*
Y032724D01*
X047798Y032838D01*
X047842Y032945D01*
X047907Y033042D01*
X047989Y033124D01*
X048086Y033189D01*
X048193Y033234D01*
X048308Y033256D01*
X048424D01*
X04938Y0337D02*
X049398Y033693D01*
X009988Y0337D02*
X04938D01*
X009967Y03369D02*
X009988Y0337D01*
X009953Y033671D02*
X009967Y03369D01*
X009949Y033647D02*
X009953Y033671D01*
X009949Y033647D02*
X009952Y033636D01*
X009951Y033631D02*
X009952Y033636D01*
X00995Y033624D02*
X009951Y033631D01*
X00995Y01D02*
Y033624D01*
Y00999D02*
Y01D01*
Y00999D02*
X009957Y009972D01*
X009972Y009957D01*
X00999Y00995D01*
X04938D01*
X049398Y009957D01*
X049413Y009972D01*
X04942Y00999D01*
Y01D01*
X04942Y010005D02*
X04942Y01D01*
X049419Y010012D02*
X04942Y010005D01*
X049419Y010012D02*
X049419Y010019D01*
X04942Y010026D01*
X04942Y03365D02*
X04942Y010026D01*
X04942Y03365D02*
Y03366D01*
X049413Y033678D02*
X04942Y03366D01*
X049398Y033693D02*
X049413Y033678D01*
D31*
X030906Y017578D02*
D03*
Y016042D02*
D03*
D32*
X014828Y015492D02*
D03*
Y01628D02*
D03*
X014829Y01687D02*
D03*
Y017657D02*
D03*
X034026Y027048D02*
D03*
Y02626D02*
D03*
X033169Y02626D02*
D03*
Y027047D02*
D03*
X034035Y028496D02*
D03*
Y027709D02*
D03*
X033169Y028496D02*
D03*
Y027709D02*
D03*
X0438Y033237D02*
D03*
Y03245D02*
D03*
X043004Y033244D02*
D03*
Y032456D02*
D03*
X0386Y0173D02*
D03*
Y016513D02*
D03*
X030437Y022972D02*
D03*
Y022185D02*
D03*
X030433Y02377D02*
D03*
Y024557D02*
D03*
X0117Y013543D02*
D03*
Y014331D02*
D03*
X014872Y024779D02*
D03*
Y025567D02*
D03*
X0117Y030107D02*
D03*
Y029319D02*
D03*
X0422Y01655D02*
D03*
Y017337D02*
D03*
D33*
X014754Y028862D02*
D03*
X013967D02*
D03*
X013317Y028858D02*
D03*
X01253D02*
D03*
X038553Y030669D02*
D03*
X03934D02*
D03*
X038556Y031486D02*
D03*
X039344D02*
D03*
X038563Y032287D02*
D03*
X03935D02*
D03*
X038556Y033086D02*
D03*
X039344D02*
D03*
X048106Y0124D02*
D03*
X048894D02*
D03*
X038677Y01245D02*
D03*
X039465D02*
D03*
X038677Y011572D02*
D03*
X039465D02*
D03*
X041563Y01905D02*
D03*
X04235D02*
D03*
X04155Y01995D02*
D03*
X042337D02*
D03*
X040113D02*
D03*
X0409D02*
D03*
X034475Y016836D02*
D03*
X033687D02*
D03*
X034475Y017623D02*
D03*
X033687D02*
D03*
X032293Y017628D02*
D03*
X033081D02*
D03*
X032293Y016841D02*
D03*
X033081D02*
D03*
X029124Y01605D02*
D03*
X029911D02*
D03*
X029124Y017578D02*
D03*
X029911D02*
D03*
X018417Y014964D02*
D03*
X017629D02*
D03*
X0409Y01905D02*
D03*
X040113D02*
D03*
X0409Y0182D02*
D03*
X040113D02*
D03*
X04235D02*
D03*
X041563D02*
D03*
X04233Y021702D02*
D03*
X041543D02*
D03*
X04233Y020856D02*
D03*
X041543D02*
D03*
D34*
X039691Y027156D02*
D03*
X038234D02*
D03*
X036876D02*
D03*
X035419D02*
D03*
D35*
X0412Y033079D02*
D03*
D36*
X042115Y030392D02*
D03*
X0412D02*
D03*
X040294Y030382D02*
D03*
D37*
X042224Y027156D02*
D03*
X040965D02*
D03*
D38*
X03565Y019026D02*
D03*
Y025108D02*
D03*
D39*
X0423Y013437D02*
D03*
X0418D02*
D03*
X0413D02*
D03*
X0408D02*
D03*
X0403D02*
D03*
X0398D02*
D03*
X0393D02*
D03*
X0388D02*
D03*
Y015563D02*
D03*
X0393D02*
D03*
X0398D02*
D03*
X0403D02*
D03*
X0408D02*
D03*
X0413D02*
D03*
X0418D02*
D03*
X0423D02*
D03*
D40*
X0412Y0169D02*
D03*
X039665D02*
D03*
D41*
X044872Y030108D02*
D03*
D42*
X043691Y028278D02*
D03*
X046063D02*
D03*
D43*
X04205Y025685D02*
D03*
X025475Y011665D02*
D03*
X024464Y031985D02*
D03*
X037475Y031985D02*
D03*
X012465Y011665D02*
D03*
D44*
X04205Y024685D02*
D03*
X03905Y025685D02*
D03*
Y024685D02*
D03*
X04005Y025685D02*
D03*
Y024685D02*
D03*
X04105D02*
D03*
Y025685D02*
D03*
X0458Y03295D02*
D03*
X0448D02*
D03*
X043489Y02318D02*
D03*
X044276Y022196D02*
D03*
Y02318D02*
D03*
X043489Y022196D02*
D03*
X043439Y01653D02*
D03*
X044226Y015546D02*
D03*
Y01653D02*
D03*
X043439Y015546D02*
D03*
X011264Y021311D02*
D03*
Y022311D02*
D03*
X012264D02*
D03*
Y023311D02*
D03*
X011264D02*
D03*
X012264Y026311D02*
D03*
X012264Y025311D02*
D03*
X011264D02*
D03*
Y024311D02*
D03*
X012264D02*
D03*
X011264Y020311D02*
D03*
X012264D02*
D03*
Y021311D02*
D03*
Y019311D02*
D03*
X011264D02*
D03*
Y018311D02*
D03*
X012264D02*
D03*
X011264Y017311D02*
D03*
X012264D02*
D03*
X030475Y011665D02*
D03*
X029475D02*
D03*
Y012665D02*
D03*
X028475D02*
D03*
Y011665D02*
D03*
X025475Y012665D02*
D03*
X026475Y012665D02*
D03*
Y011665D02*
D03*
X027475D02*
D03*
Y012665D02*
D03*
X031475Y011665D02*
D03*
Y012665D02*
D03*
X030475D02*
D03*
X032475D02*
D03*
Y011665D02*
D03*
X033475D02*
D03*
Y012665D02*
D03*
X034475Y011665D02*
D03*
Y012665D02*
D03*
X035475Y011665D02*
D03*
Y012665D02*
D03*
X036475Y012666D02*
D03*
Y011666D02*
D03*
X037475Y012665D02*
D03*
Y011665D02*
D03*
X019465Y031985D02*
D03*
X020465D02*
D03*
Y030985D02*
D03*
X021465D02*
D03*
Y031985D02*
D03*
X024464Y030985D02*
D03*
X023465Y030985D02*
D03*
Y031985D02*
D03*
X022465D02*
D03*
Y030985D02*
D03*
X018465Y031985D02*
D03*
Y030985D02*
D03*
X019465D02*
D03*
X017465D02*
D03*
Y031985D02*
D03*
X016465D02*
D03*
Y030985D02*
D03*
X015465Y031985D02*
D03*
Y030985D02*
D03*
X014465Y031985D02*
D03*
Y030985D02*
D03*
X013465Y030985D02*
D03*
Y031985D02*
D03*
X012465Y030985D02*
D03*
Y031985D02*
D03*
X032475Y031985D02*
D03*
X033475D02*
D03*
Y030985D02*
D03*
X034475D02*
D03*
Y031985D02*
D03*
X037475Y030985D02*
D03*
X036475Y030985D02*
D03*
Y031985D02*
D03*
X035475D02*
D03*
Y030985D02*
D03*
X031475Y031985D02*
D03*
Y030985D02*
D03*
X032475D02*
D03*
X030475D02*
D03*
Y031985D02*
D03*
X029475D02*
D03*
Y030985D02*
D03*
X028475Y031985D02*
D03*
Y030985D02*
D03*
X027475Y031985D02*
D03*
Y030985D02*
D03*
X026475Y030985D02*
D03*
Y031985D02*
D03*
X025475Y030985D02*
D03*
Y031985D02*
D03*
X024464Y011665D02*
D03*
Y012665D02*
D03*
X023464Y011665D02*
D03*
Y012665D02*
D03*
X022465Y012665D02*
D03*
Y011665D02*
D03*
X021465Y012665D02*
D03*
Y011665D02*
D03*
X020465Y012665D02*
D03*
Y011665D02*
D03*
X019465D02*
D03*
Y012665D02*
D03*
X017465D02*
D03*
X018465D02*
D03*
Y011665D02*
D03*
X014465Y012665D02*
D03*
Y011665D02*
D03*
X013465D02*
D03*
Y012665D02*
D03*
X012465Y012665D02*
D03*
X015465Y011665D02*
D03*
Y012665D02*
D03*
X016465D02*
D03*
Y011665D02*
D03*
X017465D02*
D03*
D45*
X047469Y0313D02*
D03*
X043531D02*
D03*
D46*
X0468Y03295D02*
D03*
X011264Y026311D02*
D03*
D47*
X0453Y020326D02*
D03*
Y02505D02*
D03*
X04525Y013676D02*
D03*
Y0184D02*
D03*
D48*
X041506Y029278D02*
D03*
Y028491D02*
D03*
X024682Y028661D02*
D03*
X038697Y028847D02*
D03*
Y029636D02*
D03*
X03536Y015239D02*
D03*
X036148Y016026D02*
D03*
X03536D02*
D03*
Y017623D02*
D03*
X036148D02*
D03*
X03536Y016836D02*
D03*
X034567Y015236D02*
D03*
X031358Y018789D02*
D03*
Y019577D02*
D03*
Y020363D02*
D03*
Y021152D02*
D03*
X016713Y014964D02*
D03*
X010787Y030107D02*
D03*
Y030894D02*
D03*
X014872Y026358D02*
D03*
Y027146D02*
D03*
X014085D02*
D03*
Y026358D02*
D03*
X010787Y014331D02*
D03*
Y013543D02*
D03*
D49*
X025469Y028661D02*
D03*
X039484Y028847D02*
D03*
Y029636D02*
D03*
X036148Y015239D02*
D03*
Y016836D02*
D03*
X030571Y018789D02*
D03*
Y019577D02*
D03*
Y020363D02*
D03*
Y021152D02*
D03*
X015925Y014964D02*
D03*
D50*
X046835Y0124D02*
D03*
Y010628D02*
D03*
X044276Y010628D02*
D03*
X0429Y0124D02*
D03*
Y010628D02*
D03*
X040341Y010628D02*
D03*
D51*
X044276Y0124D02*
D03*
X040341D02*
D03*
D52*
X034567Y016024D02*
D03*
X010787Y029319D02*
D03*
X014872Y027933D02*
D03*
X014085D02*
D03*
X010787Y012756D02*
D03*
D53*
X031201Y022057D02*
D03*
X031752D02*
D03*
D54*
X032179Y025677D02*
D03*
X030407D02*
D03*
X030407Y028236D02*
D03*
D55*
X032179D02*
D03*
D56*
X027303Y024173D02*
D03*
X026516Y023976D02*
D03*
X025728Y02378D02*
D03*
X027303Y023583D02*
D03*
X026516Y023386D02*
D03*
X025728Y023189D02*
D03*
X027303Y022992D02*
D03*
X026516Y022795D02*
D03*
X025728Y022598D02*
D03*
X027303Y022402D02*
D03*
X026516Y022205D02*
D03*
X025728Y022008D02*
D03*
X027303Y021811D02*
D03*
X026516Y021614D02*
D03*
X025728Y021417D02*
D03*
X027303Y02122D02*
D03*
X026516Y021024D02*
D03*
X025728Y020827D02*
D03*
X027303Y02063D02*
D03*
X026516Y020433D02*
D03*
X025728Y020236D02*
D03*
X027303Y020039D02*
D03*
X026516Y019843D02*
D03*
X025728Y019646D02*
D03*
X016319Y024173D02*
D03*
X017894Y023976D02*
D03*
X017106Y02378D02*
D03*
X016319Y023583D02*
D03*
X017894Y023386D02*
D03*
X017106Y023189D02*
D03*
X016319Y022992D02*
D03*
X017894Y022795D02*
D03*
X017106Y022598D02*
D03*
X016319Y022402D02*
D03*
X017894Y022205D02*
D03*
X017106Y022008D02*
D03*
X016319Y021811D02*
D03*
X017894Y021614D02*
D03*
X017106Y021417D02*
D03*
X016319Y02122D02*
D03*
X017894Y021024D02*
D03*
X017106Y020827D02*
D03*
X016319Y02063D02*
D03*
X017894Y020433D02*
D03*
X017106Y020236D02*
D03*
X016319Y020039D02*
D03*
X017894Y019843D02*
D03*
X017106Y019646D02*
D03*
X016319Y019449D02*
D03*
D57*
X027303D02*
D03*
D58*
X024173Y027303D02*
D03*
X023976Y025728D02*
D03*
X02378Y026516D02*
D03*
X023583Y027303D02*
D03*
X023386Y025728D02*
D03*
X023189Y026516D02*
D03*
X022992Y027303D02*
D03*
X022795Y025728D02*
D03*
X022598Y026516D02*
D03*
X022402Y027303D02*
D03*
X022205Y025728D02*
D03*
X022008Y026516D02*
D03*
X021811Y027303D02*
D03*
X021614Y025728D02*
D03*
X021417Y026516D02*
D03*
X02122Y027303D02*
D03*
X021024Y025728D02*
D03*
X020827Y026516D02*
D03*
X02063Y027303D02*
D03*
X020433Y025728D02*
D03*
X020236Y026516D02*
D03*
X020039Y027303D02*
D03*
X019843Y025728D02*
D03*
X019646Y026516D02*
D03*
X019449Y027303D02*
D03*
Y016319D02*
D03*
X019646Y017894D02*
D03*
X019843Y017106D02*
D03*
X020039Y016319D02*
D03*
X020236Y017894D02*
D03*
X020433Y017106D02*
D03*
X02063Y016319D02*
D03*
X020827Y017894D02*
D03*
X021024Y017106D02*
D03*
X02122Y016319D02*
D03*
X021417Y017894D02*
D03*
X021614Y017106D02*
D03*
X021811Y016319D02*
D03*
X022008Y017894D02*
D03*
X022205Y017106D02*
D03*
X022402Y016319D02*
D03*
X022598Y017894D02*
D03*
X022795Y017106D02*
D03*
X022992Y016319D02*
D03*
X023189Y017894D02*
D03*
X023386Y017106D02*
D03*
X023583Y016319D02*
D03*
X02378Y017894D02*
D03*
X023976Y017106D02*
D03*
X024173Y016319D02*
D03*
D59*
X03185Y018012D02*
D03*
X015925Y01628D02*
D03*
X0386Y02318D02*
D03*
X04253Y022431D02*
D03*
X0386Y022438D02*
D03*
X0428Y03165D02*
D03*
X039901Y020819D02*
D03*
X035Y01061D02*
D03*
X025574Y027102D02*
D03*
X025571Y027431D02*
D03*
X028533Y028054D02*
D03*
X025571Y028051D02*
D03*
X028533Y027766D02*
D03*
X025571D02*
D03*
X028533Y027431D02*
D03*
X028535Y027102D02*
D03*
Y026766D02*
D03*
X025574D02*
D03*
X018593Y023248D02*
D03*
Y02375D02*
D03*
X026105Y024241D02*
D03*
X024724D02*
D03*
X038258Y019311D02*
D03*
X017106Y018329D02*
D03*
X041506Y023986D02*
D03*
X0402Y031509D02*
D03*
X04175Y0313D02*
D03*
X037864Y019321D02*
D03*
Y01797D02*
D03*
X038248Y017972D02*
D03*
X024391Y018496D02*
D03*
X024194Y018229D02*
D03*
X018455Y020444D02*
D03*
X037933Y014892D02*
D03*
X042924Y0182D02*
D03*
X04063Y016388D02*
D03*
X03955Y014016D02*
D03*
X038091D02*
D03*
X039803Y016102D02*
D03*
X0403Y0159D02*
D03*
X024855Y021705D02*
D03*
X023783Y020138D02*
D03*
X03955Y021339D02*
D03*
X039222D02*
D03*
X024626Y018789D02*
D03*
X0408Y020856D02*
D03*
X024065Y020455D02*
D03*
X0408Y021702D02*
D03*
M02*
