G04*
G04 #@! TF.GenerationSoftware,Altium Limited,Altium Designer,19.1.7 (138)*
G04*
G04 Layer_Color=32896*
%FSTAX24Y24*%
%MOIN*%
G70*
G01*
G75*
%ADD11C,0.0100*%
G36*
X031234Y015071D02*
X031088D01*
Y015205D01*
X031234D01*
Y015071D01*
D02*
G37*
G36*
X021801Y015071D02*
X021656D01*
Y015205D01*
X021801D01*
Y015071D01*
D02*
G37*
G36*
X032486Y015008D02*
X032504Y015006D01*
X03252Y015002D01*
X032537Y014996D01*
X032565Y014982D01*
X032578Y014973D01*
X03259Y014966D01*
X032601Y014958D01*
X032611Y014949D01*
X032619Y014943D01*
X032625Y014936D01*
X032631Y01493D01*
X032635Y014925D01*
X032637Y014923D01*
X032638Y014922D01*
Y014998D01*
X032772D01*
Y014449D01*
X032626D01*
Y014714D01*
Y014742D01*
X032624Y014766D01*
X032623Y014784D01*
X032621Y014801D01*
X032619Y014812D01*
X032617Y01482D01*
X032615Y014826D01*
Y014827D01*
X03261Y014839D01*
X032604Y01485D01*
X032598Y014859D01*
X032591Y014866D01*
X032586Y014872D01*
X032581Y014876D01*
X032578Y014878D01*
X032577Y014879D01*
X032566Y014886D01*
X032556Y01489D01*
X032546Y014894D01*
X032537Y014896D01*
X032529Y014897D01*
X032522Y014898D01*
X032507D01*
X032498Y014896D01*
X032491Y014895D01*
X032484Y014893D01*
X03248Y01489D01*
X032476Y014888D01*
X032474Y014887D01*
X032473Y014886D01*
X032468Y014882D01*
X032462Y014876D01*
X032455Y014864D01*
X032452Y01486D01*
X03245Y014855D01*
X032449Y014852D01*
Y014851D01*
X032448Y014847D01*
X032446Y01484D01*
X032444Y014825D01*
X032443Y014808D01*
X032442Y014791D01*
X03244Y014775D01*
Y014761D01*
Y014756D01*
Y014752D01*
Y014749D01*
Y014748D01*
Y014449D01*
X032295D01*
Y014711D01*
Y014738D01*
X032293Y014761D01*
X032292Y014781D01*
X03229Y014797D01*
X032287Y01481D01*
X032286Y014818D01*
X032284Y014823D01*
Y014825D01*
X032279Y014838D01*
X032273Y014849D01*
X032267Y014858D01*
X03226Y014865D01*
X032255Y014872D01*
X03225Y014876D01*
X032247Y014878D01*
X032246Y014879D01*
X032236Y014886D01*
X032225Y01489D01*
X032215Y014894D01*
X032207Y014896D01*
X032199Y014897D01*
X032193Y014898D01*
X032188D01*
X032174Y014897D01*
X032161Y014894D01*
X03215Y014888D01*
X032141Y014883D01*
X032134Y014876D01*
X03213Y014872D01*
X032127Y014867D01*
X032126Y014866D01*
X032123Y014861D01*
X03212Y014855D01*
X032117Y01484D01*
X032114Y014823D01*
X032113Y014805D01*
X032111Y014789D01*
X03211Y014775D01*
Y014769D01*
Y014765D01*
Y014763D01*
Y014761D01*
Y014449D01*
X031965D01*
Y014799D01*
X031966Y014826D01*
X031967Y01485D01*
X031969Y01487D01*
X031973Y014885D01*
X031976Y014897D01*
X031978Y014906D01*
X031979Y014911D01*
X03198Y014912D01*
X031989Y01493D01*
X031999Y014944D01*
X03201Y014956D01*
X03202Y014967D01*
X032029Y014975D01*
X032037Y01498D01*
X032041Y014983D01*
X032044Y014984D01*
X03206Y014993D01*
X032078Y014999D01*
X032094Y015003D01*
X03211Y015006D01*
X032125Y015008D01*
X032135Y01501D01*
X032145D01*
X032163Y015008D01*
X032179Y015006D01*
X032194Y015003D01*
X032208Y014999D01*
X032219Y014994D01*
X032227Y014991D01*
X032233Y014989D01*
X032235Y014988D01*
X03225Y014979D01*
X032264Y014968D01*
X032278Y014957D01*
X03229Y014946D01*
X032299Y014936D01*
X032306Y014929D01*
X03231Y014923D01*
X032313Y014921D01*
X032322Y014936D01*
X032333Y014951D01*
X032344Y014961D01*
X032354Y014971D01*
X032363Y014979D01*
X03237Y014983D01*
X032375Y014987D01*
X032377Y014988D01*
X032392Y014995D01*
X032408Y015001D01*
X032423Y015004D01*
X032437Y015007D01*
X032449Y015008D01*
X032459Y01501D01*
X032468D01*
X032486Y015008D01*
D02*
G37*
G36*
X023054Y015008D02*
X023071Y015006D01*
X023088Y015002D01*
X023104Y014996D01*
X023132Y014982D01*
X023146Y014973D01*
X023158Y014966D01*
X023169Y014958D01*
X023178Y014949D01*
X023186Y014943D01*
X023193Y014936D01*
X023198Y01493D01*
X023202Y014925D01*
X023205Y014923D01*
X023206Y014922D01*
Y014998D01*
X023339D01*
Y014449D01*
X023194D01*
Y014714D01*
Y014742D01*
X023191Y014766D01*
X02319Y014784D01*
X023188Y014801D01*
X023186Y014812D01*
X023185Y01482D01*
X023183Y014826D01*
Y014827D01*
X023177Y014839D01*
X023172Y01485D01*
X023165Y014859D01*
X023159Y014866D01*
X023153Y014872D01*
X023149Y014876D01*
X023146Y014878D01*
X023144Y014879D01*
X023134Y014886D01*
X023124Y01489D01*
X023114Y014894D01*
X023104Y014896D01*
X023096Y014897D01*
X02309Y014898D01*
X023075D01*
X023066Y014896D01*
X023058Y014895D01*
X023052Y014893D01*
X023047Y01489D01*
X023044Y014888D01*
X023042Y014887D01*
X023041Y014886D01*
X023035Y014882D01*
X02303Y014876D01*
X023022Y014864D01*
X02302Y01486D01*
X023018Y014855D01*
X023017Y014852D01*
Y014851D01*
X023015Y014847D01*
X023013Y01484D01*
X023011Y014825D01*
X02301Y014808D01*
X023009Y014791D01*
X023008Y014775D01*
Y014761D01*
Y014756D01*
Y014752D01*
Y014749D01*
Y014748D01*
Y014449D01*
X022862D01*
Y014711D01*
Y014738D01*
X02286Y014761D01*
X022859Y014781D01*
X022857Y014797D01*
X022855Y01481D01*
X022854Y014818D01*
X022852Y014823D01*
Y014825D01*
X022846Y014838D01*
X022841Y014849D01*
X022834Y014858D01*
X022827Y014865D01*
X022822Y014872D01*
X022818Y014876D01*
X022814Y014878D01*
X022813Y014879D01*
X022803Y014886D01*
X022793Y01489D01*
X022783Y014894D01*
X022774Y014896D01*
X022766Y014897D01*
X022761Y014898D01*
X022755D01*
X022741Y014897D01*
X022728Y014894D01*
X022717Y014888D01*
X022708Y014883D01*
X022702Y014876D01*
X022697Y014872D01*
X022694Y014867D01*
X022693Y014866D01*
X022691Y014861D01*
X022688Y014855D01*
X022684Y01484D01*
X022681Y014823D01*
X02268Y014805D01*
X022679Y014789D01*
X022678Y014775D01*
Y014769D01*
Y014765D01*
Y014763D01*
Y014761D01*
Y014449D01*
X022532D01*
Y014799D01*
X022533Y014826D01*
X022535Y01485D01*
X022537Y01487D01*
X02254Y014885D01*
X022543Y014897D01*
X022545Y014906D01*
X022547Y014911D01*
X022548Y014912D01*
X022556Y01493D01*
X022566Y014944D01*
X022577Y014956D01*
X022587Y014967D01*
X022597Y014975D01*
X022605Y01498D01*
X022609Y014983D01*
X022611Y014984D01*
X022627Y014993D01*
X022645Y014999D01*
X022661Y015003D01*
X022678Y015006D01*
X022692Y015008D01*
X022703Y01501D01*
X022713D01*
X02273Y015008D01*
X022747Y015006D01*
X022762Y015003D01*
X022775Y014999D01*
X022786Y014994D01*
X022795Y014991D01*
X0228Y014989D01*
X022802Y014988D01*
X022818Y014979D01*
X022832Y014968D01*
X022845Y014957D01*
X022857Y014946D01*
X022867Y014936D01*
X022873Y014929D01*
X022878Y014923D01*
X02288Y014921D01*
X02289Y014936D01*
X022901Y01495D01*
X022912Y014961D01*
X022921Y014971D01*
X02293Y014979D01*
X022938Y014983D01*
X022942Y014987D01*
X022944Y014988D01*
X02296Y014995D01*
X022975Y015001D01*
X02299Y015004D01*
X023005Y015007D01*
X023017Y015008D01*
X023026Y01501D01*
X023035D01*
X023054Y015008D01*
D02*
G37*
G36*
X01941D02*
X019427Y015006D01*
X019444Y015002D01*
X01946Y014996D01*
X019488Y014982D01*
X019501Y014973D01*
X019514Y014966D01*
X019524Y014958D01*
X019534Y014949D01*
X019542Y014943D01*
X019548Y014936D01*
X019554Y01493D01*
X019558Y014925D01*
X019561Y014923D01*
X019562Y014922D01*
Y014998D01*
X019695D01*
Y014449D01*
X01955D01*
Y014714D01*
Y014742D01*
X019547Y014766D01*
X019546Y014784D01*
X019544Y014801D01*
X019542Y014812D01*
X019541Y01482D01*
X019539Y014826D01*
Y014827D01*
X019533Y014839D01*
X019528Y01485D01*
X019521Y014859D01*
X019515Y014866D01*
X019509Y014872D01*
X019505Y014876D01*
X019501Y014878D01*
X0195Y014879D01*
X019489Y014886D01*
X01948Y01489D01*
X01947Y014894D01*
X01946Y014896D01*
X019452Y014897D01*
X019446Y014898D01*
X01943D01*
X019422Y014896D01*
X019414Y014895D01*
X019407Y014893D01*
X019403Y01489D01*
X0194Y014888D01*
X019398Y014887D01*
X019397Y014886D01*
X019391Y014882D01*
X019386Y014876D01*
X019378Y014864D01*
X019376Y01486D01*
X019374Y014855D01*
X019373Y014852D01*
Y014851D01*
X019371Y014847D01*
X019369Y01484D01*
X019367Y014825D01*
X019366Y014808D01*
X019365Y014791D01*
X019364Y014775D01*
Y014761D01*
Y014756D01*
Y014752D01*
Y014749D01*
Y014748D01*
Y014449D01*
X019218D01*
Y014711D01*
Y014738D01*
X019216Y014761D01*
X019215Y014781D01*
X019213Y014797D01*
X019211Y01481D01*
X01921Y014818D01*
X019207Y014823D01*
Y014825D01*
X019202Y014838D01*
X019197Y014849D01*
X01919Y014858D01*
X019183Y014865D01*
X019178Y014872D01*
X019174Y014876D01*
X01917Y014878D01*
X019169Y014879D01*
X019159Y014886D01*
X019148Y01489D01*
X019139Y014894D01*
X01913Y014896D01*
X019122Y014897D01*
X019117Y014898D01*
X019111D01*
X019097Y014897D01*
X019084Y014894D01*
X019073Y014888D01*
X019064Y014883D01*
X019058Y014876D01*
X019053Y014872D01*
X01905Y014867D01*
X019049Y014866D01*
X019047Y014861D01*
X019044Y014855D01*
X01904Y01484D01*
X019037Y014823D01*
X019036Y014805D01*
X019035Y014789D01*
X019034Y014775D01*
Y014769D01*
Y014765D01*
Y014763D01*
Y014761D01*
Y014449D01*
X018888D01*
Y014799D01*
X018889Y014826D01*
X018891Y01485D01*
X018893Y01487D01*
X018896Y014885D01*
X018899Y014897D01*
X018901Y014906D01*
X018903Y014911D01*
X018904Y014912D01*
X018912Y01493D01*
X018922Y014944D01*
X018933Y014956D01*
X018943Y014967D01*
X018953Y014975D01*
X01896Y01498D01*
X018965Y014983D01*
X018967Y014984D01*
X018983Y014993D01*
X019001Y014999D01*
X019017Y015003D01*
X019034Y015006D01*
X019048Y015008D01*
X019059Y01501D01*
X019069D01*
X019086Y015008D01*
X019103Y015006D01*
X019118Y015003D01*
X019131Y014999D01*
X019142Y014994D01*
X019151Y014991D01*
X019156Y014989D01*
X019158Y014988D01*
X019174Y014979D01*
X019188Y014968D01*
X019201Y014957D01*
X019213Y014946D01*
X019223Y014936D01*
X019229Y014929D01*
X019234Y014923D01*
X019236Y014921D01*
X019246Y014936D01*
X019257Y01495D01*
X019268Y014961D01*
X019277Y014971D01*
X019286Y014979D01*
X019294Y014983D01*
X019298Y014987D01*
X0193Y014988D01*
X019316Y014995D01*
X019331Y015001D01*
X019346Y015004D01*
X019361Y015007D01*
X019373Y015008D01*
X019382Y01501D01*
X019391D01*
X01941Y015008D01*
D02*
G37*
G36*
X023794D02*
X023811Y015006D01*
X023828Y015003D01*
X023844Y014999D01*
X023871Y014987D01*
X023884Y01498D01*
X023895Y014973D01*
X023906Y014966D01*
X023915Y014959D01*
X023923Y014954D01*
X023929Y014948D01*
X023935Y014943D01*
X023938Y01494D01*
X02394Y014937D01*
X023941Y014936D01*
X023953Y014922D01*
X023963Y014907D01*
X023972Y014889D01*
X02398Y014873D01*
X023985Y014855D01*
X02399Y014838D01*
X023998Y014803D01*
X024001Y014788D01*
X024004Y014772D01*
X024005Y014759D01*
X024006Y014748D01*
X024007Y014738D01*
Y014732D01*
Y014726D01*
Y014725D01*
X024006Y014706D01*
X024005Y014686D01*
X023999Y014651D01*
X023995Y014635D01*
X02399Y014619D01*
X023986Y014605D01*
X023982Y014593D01*
X023977Y014581D01*
X023973Y014571D01*
X023969Y014562D01*
X023964Y014555D01*
X023961Y014549D01*
X023959Y014545D01*
X023957Y014543D01*
Y014542D01*
X023943Y014525D01*
X02393Y014511D01*
X023916Y014499D01*
X023902Y014488D01*
X023888Y014479D01*
X023872Y014472D01*
X023858Y014465D01*
X023845Y014461D01*
X023832Y014456D01*
X02382Y014454D01*
X023809Y014452D01*
X0238Y01445D01*
X023793D01*
X023786Y014449D01*
X023782D01*
X023763Y01445D01*
X023746Y014453D01*
X023729Y014458D01*
X023714Y014463D01*
X023687Y014477D01*
X023673Y014485D01*
X023663Y014494D01*
X023653Y014501D01*
X023643Y014509D01*
X023635Y014517D01*
X02363Y014523D01*
X023624Y01453D01*
X023621Y014534D01*
X023619Y014536D01*
X023618Y014537D01*
Y014458D01*
Y014441D01*
X023619Y014427D01*
X02362Y014416D01*
X023621Y014407D01*
X023623Y0144D01*
X023624Y014395D01*
X023625Y014393D01*
Y014392D01*
X02363Y014383D01*
X023634Y014376D01*
X023639Y014369D01*
X023643Y014364D01*
X023647Y014359D01*
X023651Y014357D01*
X023653Y014356D01*
X023654Y014355D01*
X023666Y014349D01*
X023679Y014345D01*
X023693Y014342D01*
X023707Y01434D01*
X023719Y014338D01*
X023729Y014337D01*
X023739D01*
X023754Y014338D01*
X023767Y01434D01*
X023778Y014343D01*
X023787Y014346D01*
X023795Y014348D01*
X023799Y014352D01*
X023802Y014353D01*
X023804Y014354D01*
X023809Y014358D01*
X023813Y014365D01*
X023819Y014378D01*
X02382Y014383D01*
X023821Y014389D01*
X023822Y014392D01*
Y014393D01*
X023988Y014413D01*
X023989Y014406D01*
Y014401D01*
Y014396D01*
Y014395D01*
X023988Y014382D01*
X023987Y014369D01*
X023981Y014345D01*
X023971Y014324D01*
X02396Y014307D01*
X02395Y014293D01*
X02394Y014283D01*
X023934Y014276D01*
X023933Y014275D01*
X023931Y014274D01*
X023919Y014265D01*
X023906Y014259D01*
X023891Y014252D01*
X023876Y014247D01*
X023843Y014238D01*
X02381Y014232D01*
X023795Y01423D01*
X023781Y014228D01*
X023767Y014227D01*
X023757D01*
X023747Y014226D01*
X023734D01*
X023707Y014227D01*
X023683Y014228D01*
X023663Y014231D01*
X023644Y014235D01*
X02363Y014237D01*
X02362Y01424D01*
X023613Y014241D01*
X023611Y014242D01*
X023594Y014249D01*
X023578Y014255D01*
X023565Y014263D01*
X023554Y01427D01*
X023547Y014275D01*
X02354Y014281D01*
X023536Y014284D01*
X023535Y014285D01*
X023524Y014296D01*
X023515Y014308D01*
X023507Y014321D01*
X023501Y014333D01*
X023495Y014344D01*
X023492Y014353D01*
X02349Y014358D01*
X023489Y01436D01*
X023485Y01437D01*
X023483Y01438D01*
X023479Y014403D01*
X023477Y014427D01*
X023475Y014451D01*
X023473Y014472D01*
X023472Y014481D01*
Y014489D01*
Y014496D01*
Y0145D01*
Y014503D01*
Y014505D01*
Y014998D01*
X023608D01*
Y014919D01*
X023621Y014935D01*
X023634Y014948D01*
X023648Y014961D01*
X023663Y014971D01*
X023677Y01498D01*
X023691Y014988D01*
X023704Y014993D01*
X023717Y014999D01*
X023729Y015002D01*
X02374Y015005D01*
X023751Y015006D01*
X023759Y015008D01*
X023766D01*
X023772Y01501D01*
X023776D01*
X023794Y015008D01*
D02*
G37*
G36*
X029814Y015008D02*
X029831Y015006D01*
X029848Y015003D01*
X029863Y014998D01*
X029892Y014987D01*
X029905Y014979D01*
X029916Y014972D01*
X029927Y014966D01*
X029935Y014959D01*
X029943Y014953D01*
X029949Y014947D01*
X029955Y014942D01*
X029958Y014938D01*
X02996Y014936D01*
X029962Y014935D01*
X029974Y014921D01*
X029983Y014905D01*
X029992Y014888D01*
X03Y014872D01*
X030006Y014854D01*
X030012Y014837D01*
X030019Y014804D01*
X030023Y014789D01*
X030025Y014775D01*
X030026Y014761D01*
X030027Y01475D01*
X030028Y014742D01*
Y014734D01*
Y01473D01*
Y014729D01*
X030027Y014703D01*
X030025Y014679D01*
X030022Y014656D01*
X030017Y014635D01*
X030012Y014615D01*
X030005Y014597D01*
X03Y01458D01*
X029992Y014566D01*
X029986Y014552D01*
X02998Y014541D01*
X029974Y01453D01*
X029968Y014522D01*
X029964Y014515D01*
X02996Y014511D01*
X029958Y014508D01*
X029957Y014507D01*
X029945Y014495D01*
X029933Y014484D01*
X029921Y014474D01*
X029908Y014466D01*
X029895Y01446D01*
X029883Y014454D01*
X029858Y014446D01*
X029837Y01444D01*
X029827Y014439D01*
X029819Y014438D01*
X029813Y014437D01*
X029804D01*
X029786Y014438D01*
X029769Y01444D01*
X029754Y014443D01*
X02974Y014448D01*
X029729Y014451D01*
X02972Y014454D01*
X029714Y014456D01*
X029712Y014458D01*
X029697Y014466D01*
X029683Y014476D01*
X029671Y014486D01*
X029661Y014495D01*
X029652Y014503D01*
X029647Y01451D01*
X029642Y014514D01*
X029641Y014515D01*
Y014239D01*
X029496D01*
Y014998D01*
X029629D01*
Y014916D01*
X029641Y014932D01*
X029654Y014946D01*
X029666Y014958D01*
X029677Y014968D01*
X029687Y014976D01*
X029695Y014981D01*
X029699Y014984D01*
X029701Y014985D01*
X029717Y014993D01*
X029733Y015D01*
X029748Y015004D01*
X029763Y015006D01*
X029776Y015008D01*
X029787Y01501D01*
X029795D01*
X029814Y015008D01*
D02*
G37*
G36*
X030618Y014852D02*
X030473Y014852D01*
Y014998D01*
X030618Y014998D01*
Y014852D01*
D02*
G37*
G36*
X031645Y015007D02*
X031662Y015006D01*
X031678Y015003D01*
X031693Y015001D01*
X031706Y014998D01*
X031718Y014993D01*
X031729Y01499D01*
X031738Y014987D01*
X031746Y014982D01*
X031753Y014979D01*
X031759Y014977D01*
X031764Y014973D01*
X031767Y014972D01*
X031768Y01497D01*
X031769D01*
X031788Y014954D01*
X031803Y014935D01*
X031816Y014916D01*
X031827Y014897D01*
X031835Y014879D01*
X031838Y014872D01*
X03184Y014865D01*
X031843Y01486D01*
X031844Y014855D01*
X031845Y014853D01*
Y014852D01*
X031715Y014828D01*
X031709Y014841D01*
X031704Y014852D01*
X031698Y014862D01*
X031692Y01487D01*
X031687Y014875D01*
X031683Y014878D01*
X031681Y014881D01*
X03168Y014882D01*
X031671Y014887D01*
X031661Y014891D01*
X03165Y014894D01*
X03164Y014896D01*
X031632Y014897D01*
X031625Y014898D01*
X031618D01*
X031599Y014897D01*
X031582Y014895D01*
X031569Y014893D01*
X031558Y014889D01*
X031551Y014885D01*
X031545Y014883D01*
X031542Y014881D01*
X031541Y014879D01*
X031533Y014872D01*
X031528Y014863D01*
X031524Y014853D01*
X031521Y014843D01*
X03152Y014834D01*
X031519Y014826D01*
Y014822D01*
Y014819D01*
Y014805D01*
X031527Y014802D01*
X031537Y014799D01*
X031557Y014792D01*
X031581Y014787D01*
X031604Y014781D01*
X031626Y014776D01*
X031636Y014773D01*
X031645Y014772D01*
X031651Y014771D01*
X031657Y01477D01*
X03166Y014769D01*
X031661D01*
X031687Y014764D01*
X031711Y014758D01*
X031731Y014753D01*
X031747Y014747D01*
X031761Y014742D01*
X031769Y014738D01*
X031775Y014736D01*
X031777Y014735D01*
X031791Y014728D01*
X031803Y014719D01*
X031814Y014709D01*
X031822Y0147D01*
X031829Y014693D01*
X031834Y014686D01*
X031837Y014682D01*
X031838Y014679D01*
X031846Y014665D01*
X031851Y014651D01*
X031855Y014638D01*
X031857Y014625D01*
X031859Y014614D01*
X03186Y014605D01*
Y0146D01*
Y014597D01*
X031859Y014584D01*
X031858Y014572D01*
X031852Y014549D01*
X031845Y01453D01*
X031836Y014513D01*
X031827Y0145D01*
X03182Y01449D01*
X031814Y014484D01*
X031812Y014483D01*
Y014482D01*
X031792Y014466D01*
X03177Y014455D01*
X031749Y014448D01*
X031727Y014442D01*
X031708Y014439D01*
X031699Y014438D01*
X031693D01*
X031686Y014437D01*
X031679D01*
X031661Y014438D01*
X031644Y01444D01*
X031628Y014442D01*
X031615Y014446D01*
X031604Y014449D01*
X031596Y014452D01*
X03159Y014453D01*
X031588Y014454D01*
X031573Y014462D01*
X031557Y01447D01*
X031544Y014479D01*
X031532Y014488D01*
X031522Y014496D01*
X031515Y014502D01*
X03151Y014507D01*
X031508Y014508D01*
X031507Y014503D01*
X031505Y014498D01*
X031504Y014494D01*
X031503Y014493D01*
Y014491D01*
X031499Y014482D01*
X031497Y014473D01*
X031495Y014465D01*
X031493Y01446D01*
X031491Y014455D01*
X03149Y014451D01*
X031488Y01445D01*
Y014449D01*
X031345D01*
X031352Y014463D01*
X031357Y014476D01*
X031362Y014488D01*
X031366Y014499D01*
X031368Y014508D01*
X03137Y014515D01*
X031371Y01452D01*
Y014521D01*
X031374Y014535D01*
X031375Y014553D01*
X031377Y01457D01*
Y014588D01*
X031378Y014603D01*
Y014616D01*
Y014622D01*
Y014625D01*
Y014627D01*
Y014628D01*
X031376Y014797D01*
Y014815D01*
X031377Y01483D01*
X031378Y014844D01*
X031379Y014858D01*
X03138Y01487D01*
X031382Y014881D01*
X031383Y01489D01*
X031386Y014898D01*
X031388Y014906D01*
X031389Y014911D01*
X031392Y014921D01*
X031394Y014925D01*
X031396Y014928D01*
X031404Y01494D01*
X031414Y014952D01*
X031425Y014961D01*
X031437Y01497D01*
X031447Y014977D01*
X031456Y014981D01*
X031461Y014984D01*
X031462Y014985D01*
X031463D01*
X031473Y01499D01*
X031483Y014993D01*
X031506Y015D01*
X03153Y015004D01*
X031553Y015006D01*
X031575Y015008D01*
X031584D01*
X031591Y01501D01*
X031627D01*
X031645Y015007D01*
D02*
G37*
G36*
X027003Y015007D02*
X02702Y015006D01*
X027036Y015003D01*
X027051Y015001D01*
X027064Y014998D01*
X027076Y014993D01*
X027087Y01499D01*
X027096Y014987D01*
X027104Y014982D01*
X027111Y014979D01*
X027118Y014977D01*
X027122Y014973D01*
X027125Y014972D01*
X027126Y01497D01*
X027127D01*
X027146Y014954D01*
X027161Y014935D01*
X027174Y014916D01*
X027185Y014897D01*
X027193Y014879D01*
X027196Y014872D01*
X027198Y014865D01*
X027201Y01486D01*
X027202Y014855D01*
X027203Y014853D01*
Y014852D01*
X027073Y014828D01*
X027067Y014841D01*
X027062Y014852D01*
X027056Y014862D01*
X02705Y01487D01*
X027045Y014875D01*
X027041Y014878D01*
X027039Y014881D01*
X027038Y014882D01*
X027029Y014887D01*
X027019Y014891D01*
X027008Y014894D01*
X026998Y014896D01*
X02699Y014897D01*
X026983Y014898D01*
X026977D01*
X026957Y014897D01*
X02694Y014895D01*
X026927Y014893D01*
X026916Y014889D01*
X026909Y014885D01*
X026903Y014883D01*
X0269Y014881D01*
X026899Y014879D01*
X026891Y014872D01*
X026886Y014863D01*
X026883Y014853D01*
X026879Y014843D01*
X026878Y014834D01*
X026877Y014826D01*
Y014822D01*
Y014819D01*
Y014805D01*
X026885Y014802D01*
X026895Y014799D01*
X026915Y014792D01*
X026939Y014787D01*
X026962Y014781D01*
X026984Y014776D01*
X026994Y014773D01*
X027003Y014772D01*
X027009Y014771D01*
X027015Y01477D01*
X027018Y014769D01*
X027019D01*
X027045Y014764D01*
X027069Y014758D01*
X027089Y014753D01*
X027105Y014747D01*
X027119Y014742D01*
X027127Y014738D01*
X027133Y014736D01*
X027135Y014735D01*
X027149Y014728D01*
X027161Y014719D01*
X027172Y014709D01*
X02718Y0147D01*
X027187Y014693D01*
X027192Y014686D01*
X027195Y014682D01*
X027196Y014679D01*
X027204Y014665D01*
X027209Y014651D01*
X027213Y014638D01*
X027215Y014625D01*
X027217Y014614D01*
X027218Y014605D01*
Y0146D01*
Y014597D01*
X027217Y014584D01*
X027216Y014572D01*
X02721Y014549D01*
X027203Y01453D01*
X027194Y014513D01*
X027185Y0145D01*
X027178Y01449D01*
X027172Y014484D01*
X02717Y014483D01*
Y014482D01*
X02715Y014466D01*
X027128Y014455D01*
X027107Y014448D01*
X027085Y014442D01*
X027066Y014439D01*
X027057Y014438D01*
X027051D01*
X027044Y014437D01*
X027037D01*
X027019Y014438D01*
X027002Y01444D01*
X026986Y014442D01*
X026973Y014446D01*
X026962Y014449D01*
X026954Y014452D01*
X026948Y014453D01*
X026946Y014454D01*
X026931Y014462D01*
X026915Y01447D01*
X026902Y014479D01*
X02689Y014488D01*
X02688Y014496D01*
X026873Y014502D01*
X026868Y014507D01*
X026866Y014508D01*
X026865Y014503D01*
X026863Y014498D01*
X026862Y014494D01*
X026861Y014493D01*
Y014491D01*
X026857Y014482D01*
X026855Y014473D01*
X026853Y014465D01*
X026851Y01446D01*
X026849Y014455D01*
X026848Y014451D01*
X026846Y01445D01*
Y014449D01*
X026703D01*
X02671Y014463D01*
X026715Y014476D01*
X02672Y014488D01*
X026724Y014499D01*
X026726Y014508D01*
X026728Y014515D01*
X02673Y01452D01*
Y014521D01*
X026732Y014535D01*
X026733Y014553D01*
X026735Y01457D01*
Y014588D01*
X026736Y014603D01*
Y014616D01*
Y014622D01*
Y014625D01*
Y014627D01*
Y014628D01*
X026734Y014797D01*
Y014815D01*
X026735Y01483D01*
X026736Y014844D01*
X026737Y014858D01*
X026738Y01487D01*
X02674Y014881D01*
X026742Y01489D01*
X026744Y014898D01*
X026746Y014906D01*
X026747Y014911D01*
X02675Y014921D01*
X026752Y014925D01*
X026754Y014928D01*
X026762Y01494D01*
X026772Y014952D01*
X026783Y014961D01*
X026795Y01497D01*
X026805Y014977D01*
X026814Y014981D01*
X026819Y014984D01*
X02682Y014985D01*
X026821D01*
X026831Y01499D01*
X026841Y014993D01*
X026864Y015D01*
X026888Y015004D01*
X026911Y015006D01*
X026933Y015008D01*
X026942D01*
X026949Y01501D01*
X026985D01*
X027003Y015007D01*
D02*
G37*
G36*
X022212Y015007D02*
X02223Y015006D01*
X022245Y015003D01*
X02226Y015001D01*
X022273Y014998D01*
X022285Y014993D01*
X022296Y01499D01*
X022305Y014987D01*
X022314Y014982D01*
X02232Y014979D01*
X022327Y014977D01*
X022331Y014973D01*
X022335Y014972D01*
X022336Y01497D01*
X022337D01*
X022355Y014954D01*
X022371Y014935D01*
X022384Y014916D01*
X022395Y014897D01*
X022402Y014879D01*
X022406Y014872D01*
X022408Y014865D01*
X02241Y01486D01*
X022411Y014855D01*
X022412Y014853D01*
Y014852D01*
X022282Y014828D01*
X022277Y014841D01*
X022271Y014852D01*
X022266Y014862D01*
X022259Y01487D01*
X022255Y014875D01*
X02225Y014878D01*
X022248Y014881D01*
X022247Y014882D01*
X022238Y014887D01*
X022229Y014891D01*
X022218Y014894D01*
X022208Y014896D01*
X022199Y014897D01*
X022192Y014898D01*
X022186D01*
X022166Y014897D01*
X02215Y014895D01*
X022137Y014893D01*
X022126Y014889D01*
X022118Y014885D01*
X022113Y014883D01*
X022109Y014881D01*
X022108Y014879D01*
X022101Y014872D01*
X022095Y014863D01*
X022092Y014853D01*
X022089Y014843D01*
X022088Y014834D01*
X022086Y014826D01*
Y014822D01*
Y014819D01*
Y014805D01*
X022094Y014802D01*
X022104Y014799D01*
X022125Y014792D01*
X022149Y014787D01*
X022172Y014781D01*
X022194Y014776D01*
X022203Y014773D01*
X022212Y014772D01*
X022219Y014771D01*
X022224Y01477D01*
X022227Y014769D01*
X022229D01*
X022255Y014764D01*
X022279Y014758D01*
X022298Y014753D01*
X022315Y014747D01*
X022328Y014742D01*
X022337Y014738D01*
X022342Y014736D01*
X022344Y014735D01*
X022359Y014728D01*
X022371Y014719D01*
X022382Y014709D01*
X022389Y0147D01*
X022397Y014693D01*
X022401Y014686D01*
X022404Y014682D01*
X022406Y014679D01*
X022413Y014665D01*
X022419Y014651D01*
X022422Y014638D01*
X022424Y014625D01*
X022426Y014614D01*
X022427Y014605D01*
Y0146D01*
Y014597D01*
X022426Y014584D01*
X022425Y014572D01*
X02242Y014549D01*
X022412Y01453D01*
X022403Y014513D01*
X022395Y0145D01*
X022387Y01449D01*
X022382Y014484D01*
X022379Y014483D01*
Y014482D01*
X02236Y014466D01*
X022338Y014455D01*
X022316Y014448D01*
X022294Y014442D01*
X022276Y014439D01*
X022267Y014438D01*
X02226D01*
X022254Y014437D01*
X022246D01*
X022229Y014438D01*
X022211Y01444D01*
X022196Y014442D01*
X022183Y014446D01*
X022172Y014449D01*
X022163Y014452D01*
X022157Y014453D01*
X022155Y014454D01*
X02214Y014462D01*
X022125Y01447D01*
X022112Y014479D01*
X0221Y014488D01*
X02209Y014496D01*
X022082Y014502D01*
X022078Y014507D01*
X022076Y014508D01*
X022074Y014503D01*
X022072Y014498D01*
X022071Y014494D01*
X02207Y014493D01*
Y014491D01*
X022067Y014482D01*
X022065Y014473D01*
X022062Y014465D01*
X02206Y01446D01*
X022058Y014455D01*
X022057Y014451D01*
X022056Y01445D01*
Y014449D01*
X021913D01*
X021919Y014463D01*
X021925Y014476D01*
X021929Y014488D01*
X021933Y014499D01*
X021936Y014508D01*
X021938Y014515D01*
X021939Y01452D01*
Y014521D01*
X021941Y014535D01*
X021942Y014553D01*
X021944Y01457D01*
Y014588D01*
X021945Y014603D01*
Y014616D01*
Y014622D01*
Y014625D01*
Y014627D01*
Y014628D01*
X021943Y014797D01*
Y014815D01*
X021944Y01483D01*
X021945Y014844D01*
X021947Y014858D01*
X021948Y01487D01*
X02195Y014881D01*
X021951Y01489D01*
X021953Y014898D01*
X021955Y014906D01*
X021956Y014911D01*
X02196Y014921D01*
X021962Y014925D01*
X021963Y014928D01*
X021972Y01494D01*
X021982Y014952D01*
X021992Y014961D01*
X022004Y01497D01*
X022014Y014977D01*
X022023Y014981D01*
X022029Y014984D01*
X02203Y014985D01*
X022031D01*
X022041Y01499D01*
X02205Y014993D01*
X022073Y015D01*
X022097Y015004D01*
X02212Y015006D01*
X022142Y015008D01*
X022151D01*
X022159Y01501D01*
X022195D01*
X022212Y015007D01*
D02*
G37*
G36*
X025598Y014449D02*
X025453D01*
Y014624D01*
X025387Y014695D01*
X025248Y014449D01*
X025092D01*
X025293Y014796D01*
X025105Y014998D01*
X025283D01*
X025453Y014804D01*
Y015205D01*
X025598D01*
Y014449D01*
D02*
G37*
G36*
X025938Y015107D02*
Y014998D01*
X026005D01*
Y014882D01*
X025938D01*
Y014642D01*
Y014628D01*
Y014616D01*
Y014604D01*
X025937Y014594D01*
Y014577D01*
X025936Y014562D01*
X025935Y014552D01*
Y014545D01*
X025934Y014541D01*
Y01454D01*
X025932Y014528D01*
X025928Y014517D01*
X025925Y014507D01*
X025922Y014499D01*
X025918Y014493D01*
X025916Y014488D01*
X025915Y014485D01*
X025914Y014484D01*
X025908Y014476D01*
X0259Y01447D01*
X025885Y014459D01*
X025878Y014455D01*
X025873Y014452D01*
X025868Y014451D01*
X025867Y01445D01*
X025855Y014446D01*
X025843Y014442D01*
X025831Y01444D01*
X02582Y014439D01*
X02581Y014438D01*
X025803Y014437D01*
X025796D01*
X025773Y014438D01*
X025751Y01444D01*
X025732Y014443D01*
X025715Y014448D01*
X025701Y014451D01*
X02569Y014454D01*
X025684Y014456D01*
X025682Y014458D01*
X025681D01*
X025694Y01457D01*
X025708Y014566D01*
X02572Y014562D01*
X025729Y01456D01*
X025738Y014559D01*
X025745Y014558D01*
X025749Y014557D01*
X025753D01*
X025763Y014558D01*
X025771Y01456D01*
X025775Y014562D01*
X025777Y014564D01*
X025784Y01457D01*
X025787Y014576D01*
X02579Y01458D01*
X025791Y014582D01*
Y014584D01*
X025792Y014589D01*
Y014599D01*
Y014612D01*
X025793Y014625D01*
Y014638D01*
Y014649D01*
Y014653D01*
Y014656D01*
Y014659D01*
Y01466D01*
Y014882D01*
X025693D01*
Y014998D01*
X025793D01*
Y015192D01*
X025938Y015107D01*
D02*
G37*
G36*
X027851Y015008D02*
X027872Y015006D01*
X027892Y015003D01*
X02791Y014998D01*
X027927Y014992D01*
X027944Y014985D01*
X027958Y014979D01*
X027971Y014971D01*
X027983Y014965D01*
X027993Y014957D01*
X028002Y014951D01*
X028009Y014945D01*
X028015Y01494D01*
X028019Y014936D01*
X028021Y014934D01*
X028023Y014933D01*
X028035Y014918D01*
X028045Y014902D01*
X028055Y014886D01*
X028064Y014869D01*
X028071Y014851D01*
X028076Y014834D01*
X028085Y0148D01*
X028088Y014783D01*
X02809Y014769D01*
X028091Y014756D01*
X028092Y014744D01*
X028094Y014735D01*
Y014728D01*
Y014723D01*
Y014722D01*
X028092Y014698D01*
X02809Y014674D01*
X028087Y014653D01*
X028083Y014632D01*
X028077Y014614D01*
X028071Y014596D01*
X028065Y014581D01*
X028057Y014567D01*
X028051Y014554D01*
X028045Y014543D01*
X028039Y014534D01*
X028033Y014526D01*
X028029Y01452D01*
X028026Y014515D01*
X028024Y014513D01*
X028023Y014512D01*
X028008Y014499D01*
X027994Y014487D01*
X027979Y014477D01*
X027962Y014468D01*
X027947Y014461D01*
X027931Y014455D01*
X027915Y01445D01*
X0279Y014447D01*
X027886Y014443D01*
X027873Y014441D01*
X027861Y014439D01*
X027851Y014438D01*
X027843Y014437D01*
X027831D01*
X027812Y014438D01*
X027794Y014439D01*
X027777Y014441D01*
X02776Y014444D01*
X027745Y014448D01*
X027732Y014452D01*
X027719Y014456D01*
X027708Y014462D01*
X027697Y014466D01*
X027688Y014471D01*
X02768Y014475D01*
X027674Y014478D01*
X027669Y014482D01*
X027666Y014484D01*
X027664Y014486D01*
X027663D01*
X027652Y014496D01*
X027641Y014507D01*
X027622Y014531D01*
X027607Y014555D01*
X027596Y014579D01*
X027588Y014601D01*
X027584Y014611D01*
X027581Y014618D01*
X027579Y014625D01*
X027578Y01463D01*
X027577Y014634D01*
Y014635D01*
X027719Y014659D01*
X027723Y014639D01*
X02773Y014622D01*
X027735Y014607D01*
X027742Y014596D01*
X027748Y014588D01*
X027753Y014582D01*
X027756Y014579D01*
X027757Y014578D01*
X027768Y01457D01*
X027779Y014565D01*
X02779Y01456D01*
X027801Y014558D01*
X02781Y014556D01*
X027818Y014555D01*
X027825D01*
X027844Y014557D01*
X027862Y014561D01*
X027876Y014567D01*
X027889Y014575D01*
X027899Y014582D01*
X027906Y014588D01*
X027911Y014592D01*
X027912Y014594D01*
X027918Y014603D01*
X027923Y014612D01*
X027931Y014632D01*
X027937Y014655D01*
X027941Y014678D01*
X027943Y0147D01*
X027944Y014709D01*
Y014717D01*
X027945Y014723D01*
Y014729D01*
Y014732D01*
Y014733D01*
Y014748D01*
X027944Y014764D01*
X027942Y014777D01*
X027939Y01479D01*
X027937Y014801D01*
X027935Y014811D01*
X027929Y014828D01*
X027923Y014841D01*
X027918Y01485D01*
X027914Y014855D01*
X027913Y014858D01*
X0279Y014871D01*
X027886Y014879D01*
X027872Y014886D01*
X027859Y014891D01*
X027845Y014894D01*
X027836Y014895D01*
X027829Y014896D01*
X027827D01*
X027813Y014895D01*
X0278Y014893D01*
X027789Y014889D01*
X027779Y014885D01*
X027771Y014881D01*
X027766Y014877D01*
X027762Y014875D01*
X027761Y014874D01*
X027753Y014865D01*
X027745Y014855D01*
X027739Y014844D01*
X027734Y014835D01*
X027731Y014825D01*
X027729Y014817D01*
X027727Y014813D01*
Y014811D01*
X027584Y014837D01*
X027595Y014867D01*
X027608Y014894D01*
X027622Y014916D01*
X027637Y014934D01*
X02765Y014948D01*
X02766Y014958D01*
X027664Y014961D01*
X027667Y014964D01*
X027668Y014966D01*
X027669D01*
X027694Y01498D01*
X02772Y014991D01*
X027746Y014999D01*
X027771Y015004D01*
X027783Y015006D01*
X027794Y015007D01*
X027804Y015008D01*
X027813D01*
X027819Y01501D01*
X027829D01*
X027851Y015008D01*
D02*
G37*
G36*
X020708Y015008D02*
X020729Y015006D01*
X02075Y015003D01*
X020767Y014998D01*
X020785Y014992D01*
X020801Y014985D01*
X020815Y014979D01*
X020828Y014971D01*
X02084Y014965D01*
X02085Y014957D01*
X020859Y01495D01*
X020867Y014945D01*
X020872Y01494D01*
X020876Y014936D01*
X020879Y014934D01*
X02088Y014933D01*
X020892Y014918D01*
X020903Y014902D01*
X020913Y014886D01*
X020921Y014869D01*
X020928Y014851D01*
X020933Y014834D01*
X020942Y0148D01*
X020945Y014783D01*
X020948Y014769D01*
X020949Y014756D01*
X02095Y014744D01*
X020951Y014735D01*
Y014728D01*
Y014723D01*
Y014722D01*
X02095Y014698D01*
X020948Y014674D01*
X020944Y014653D01*
X02094Y014632D01*
X020934Y014614D01*
X020928Y014596D01*
X020922Y014581D01*
X020915Y014567D01*
X020908Y014554D01*
X020903Y014543D01*
X020896Y014534D01*
X020891Y014526D01*
X020886Y01452D01*
X020883Y014515D01*
X020881Y014513D01*
X02088Y014512D01*
X020866Y014499D01*
X020851Y014487D01*
X020836Y014477D01*
X02082Y014468D01*
X020804Y014461D01*
X020788Y014455D01*
X020773Y01445D01*
X020757Y014447D01*
X020743Y014443D01*
X02073Y014441D01*
X020718Y014439D01*
X020708Y014438D01*
X020701Y014437D01*
X020688D01*
X020669Y014438D01*
X020651Y014439D01*
X020634Y014441D01*
X020617Y014444D01*
X020602Y014448D01*
X020589Y014452D01*
X020576Y014456D01*
X020565Y014462D01*
X020554Y014466D01*
X020545Y014471D01*
X020538Y014475D01*
X020531Y014478D01*
X020527Y014482D01*
X020523Y014484D01*
X020521Y014486D01*
X02052D01*
X020509Y014496D01*
X020498Y014507D01*
X02048Y014531D01*
X020464Y014555D01*
X020454Y014579D01*
X020445Y014601D01*
X020441Y014611D01*
X020438Y014618D01*
X020436Y014625D01*
X020435Y01463D01*
X020434Y014634D01*
Y014635D01*
X020576Y014659D01*
X02058Y014639D01*
X020587Y014622D01*
X020592Y014607D01*
X020599Y014596D01*
X020605Y014588D01*
X02061Y014582D01*
X020613Y014579D01*
X020614Y014578D01*
X020625Y01457D01*
X020636Y014565D01*
X020647Y01456D01*
X020658Y014558D01*
X020668Y014556D01*
X020675Y014555D01*
X020682D01*
X020702Y014557D01*
X020719Y014561D01*
X020733Y014567D01*
X020746Y014575D01*
X020756Y014582D01*
X020763Y014588D01*
X020768Y014592D01*
X020769Y014594D01*
X020775Y014603D01*
X02078Y014612D01*
X020788Y014632D01*
X020795Y014655D01*
X020798Y014678D01*
X0208Y0147D01*
X020801Y014709D01*
Y014717D01*
X020802Y014723D01*
Y014729D01*
Y014732D01*
Y014733D01*
Y014748D01*
X020801Y014764D01*
X020799Y014777D01*
X020797Y01479D01*
X020795Y014801D01*
X020792Y014811D01*
X020786Y014828D01*
X02078Y014841D01*
X020775Y01485D01*
X020772Y014855D01*
X02077Y014858D01*
X020757Y014871D01*
X020743Y014879D01*
X020729Y014886D01*
X020716Y014891D01*
X020703Y014894D01*
X020693Y014895D01*
X020686Y014896D01*
X020684D01*
X02067Y014895D01*
X020657Y014893D01*
X020646Y014889D01*
X020636Y014885D01*
X020628Y014881D01*
X020623Y014877D01*
X02062Y014875D01*
X020619Y014874D01*
X02061Y014865D01*
X020602Y014855D01*
X020597Y014844D01*
X020591Y014835D01*
X020588Y014825D01*
X020586Y014817D01*
X020585Y014813D01*
Y014811D01*
X020441Y014837D01*
X020452Y014867D01*
X020466Y014894D01*
X02048Y014916D01*
X020494Y014934D01*
X020507Y014948D01*
X020517Y014958D01*
X020521Y014961D01*
X020525Y014964D01*
X020526Y014966D01*
X020527D01*
X020551Y01498D01*
X020577Y014991D01*
X020603Y014999D01*
X020628Y015004D01*
X02064Y015006D01*
X020651Y015007D01*
X020661Y015008D01*
X02067D01*
X020676Y01501D01*
X020686D01*
X020708Y015008D01*
D02*
G37*
G36*
X029356Y01465D02*
X029355Y014623D01*
X029353Y014599D01*
X029349Y014578D01*
X029346Y01456D01*
X029343Y014546D01*
X02934Y014536D01*
X029337Y014531D01*
X029336Y014529D01*
X029328Y014513D01*
X029318Y014499D01*
X029308Y014488D01*
X029297Y014478D01*
X029288Y014471D01*
X029279Y014465D01*
X029275Y014462D01*
X029273Y014461D01*
X029257Y014453D01*
X029239Y014447D01*
X029223Y014442D01*
X029206Y01444D01*
X029193Y014438D01*
X029183Y014437D01*
X029173D01*
X029154Y014438D01*
X029135Y01444D01*
X029118Y014444D01*
X029102Y014449D01*
X029089Y014453D01*
X029079Y014458D01*
X029073Y01446D01*
X029071Y014461D01*
X029053Y014471D01*
X029038Y014483D01*
X029024Y014494D01*
X029013Y014506D01*
X029003Y014515D01*
X028996Y014523D01*
X028992Y014529D01*
X028991Y014531D01*
Y014449D01*
X028856D01*
Y014998D01*
X029002D01*
Y014766D01*
Y014745D01*
Y014726D01*
X029003Y014709D01*
X029004Y014694D01*
Y014679D01*
X029005Y014667D01*
X029006Y014658D01*
X029007Y014648D01*
X029008Y01464D01*
X029009Y014635D01*
X029011Y014629D01*
Y014625D01*
X029013Y014619D01*
Y014618D01*
X029017Y014607D01*
X029024Y014597D01*
X02903Y01459D01*
X029037Y014582D01*
X029043Y014576D01*
X029049Y014571D01*
X029052Y014569D01*
X029053Y014568D01*
X029064Y014561D01*
X029076Y014557D01*
X029087Y014553D01*
X029098Y01455D01*
X029107Y014549D01*
X029113Y014548D01*
X02912D01*
X029132Y014549D01*
X029142Y01455D01*
X029152Y014553D01*
X029159Y014556D01*
X029166Y014558D01*
X02917Y01456D01*
X029173Y014561D01*
X029175Y014562D01*
X029182Y014569D01*
X029188Y014576D01*
X029193Y014582D01*
X029196Y014589D01*
X0292Y014595D01*
X029202Y0146D01*
X029203Y014603D01*
Y014604D01*
X029204Y014609D01*
X029205Y014617D01*
X029206Y014627D01*
X029207Y014637D01*
X029208Y01466D01*
X02921Y014685D01*
X029211Y014708D01*
Y014718D01*
Y014726D01*
Y014734D01*
Y01474D01*
Y014744D01*
Y014745D01*
Y014998D01*
X029356D01*
Y01465D01*
D02*
G37*
G36*
X033465Y014449D02*
X03289D01*
Y014577D01*
X033312D01*
Y014782D01*
X032932D01*
Y01491D01*
X033312D01*
Y015077D01*
X032904D01*
Y015205D01*
X033465D01*
Y014449D01*
D02*
G37*
G36*
X031234D02*
X031088D01*
Y014998D01*
X031234D01*
Y014449D01*
D02*
G37*
G36*
X03094D02*
X030794D01*
Y015205D01*
X03094D01*
Y014449D01*
D02*
G37*
G36*
X030618D02*
X030473Y014449D01*
Y014594D01*
X030618Y014594D01*
Y014449D01*
D02*
G37*
G36*
X027474Y014449D02*
X027328D01*
Y015205D01*
X027474D01*
Y014449D01*
D02*
G37*
G36*
X021801Y014449D02*
X021656D01*
Y014998D01*
X021801D01*
Y014449D01*
D02*
G37*
G36*
X021507D02*
X021362D01*
Y015205D01*
X021507D01*
Y014449D01*
D02*
G37*
G36*
X021213D02*
X021068D01*
Y014594D01*
X021213D01*
Y014449D01*
D02*
G37*
G36*
X028488Y015008D02*
X028515Y015004D01*
X028541Y014999D01*
X028562Y014992D01*
X028571Y014988D01*
X02858Y014984D01*
X028588Y014982D01*
X028593Y014979D01*
X028599Y014977D01*
X028602Y014975D01*
X028604Y014973D01*
X028605D01*
X028628Y014958D01*
X028648Y014942D01*
X028665Y014924D01*
X028679Y014908D01*
X02869Y014893D01*
X028699Y014881D01*
X028702Y014876D01*
X028703Y014873D01*
X028706Y014871D01*
Y01487D01*
X028718Y014844D01*
X028725Y014819D01*
X028732Y014796D01*
X028736Y014776D01*
X028738Y014757D01*
X02874Y014749D01*
Y014743D01*
X028741Y014738D01*
Y014734D01*
Y014732D01*
Y014731D01*
X02874Y014697D01*
X028735Y014665D01*
X02873Y014638D01*
X028726Y014626D01*
X028723Y014615D01*
X02872Y014605D01*
X028717Y014596D01*
X028713Y014589D01*
X028711Y014582D01*
X028709Y014577D01*
X028707Y014573D01*
X028706Y014571D01*
Y01457D01*
X02869Y014547D01*
X028674Y014528D01*
X028656Y01451D01*
X02864Y014496D01*
X028625Y014485D01*
X028613Y014477D01*
X028608Y014474D01*
X028605Y014472D01*
X028603Y014471D01*
X028602D01*
X028576Y01446D01*
X02855Y014451D01*
X028526Y014446D01*
X028503Y014441D01*
X028485Y014439D01*
X028477Y014438D01*
X028471D01*
X028465Y014437D01*
X028458D01*
X028435Y014438D01*
X028414Y01444D01*
X028393Y014444D01*
X028374Y01445D01*
X028356Y014455D01*
X028339Y014462D01*
X028324Y01447D01*
X02831Y014477D01*
X028298Y014485D01*
X028287Y014493D01*
X028277Y014499D01*
X02827Y014505D01*
X028263Y01451D01*
X028259Y014514D01*
X028256Y014517D01*
X028255Y014518D01*
X028241Y014534D01*
X028229Y01455D01*
X028218Y014567D01*
X028208Y014584D01*
X028201Y014602D01*
X028194Y014619D01*
X028189Y014636D01*
X028184Y014652D01*
X028181Y014666D01*
X028179Y014681D01*
X028177Y014693D01*
X028176Y014703D01*
X028174Y014712D01*
Y014719D01*
Y014723D01*
Y014724D01*
X028176Y014747D01*
X028178Y014769D01*
X028182Y014789D01*
X028186Y014808D01*
X028193Y014826D01*
X0282Y014843D01*
X028207Y014859D01*
X028214Y014873D01*
X028221Y014885D01*
X028229Y014897D01*
X028236Y014906D01*
X028242Y014914D01*
X028247Y01492D01*
X028251Y014925D01*
X028253Y014928D01*
X028254Y014929D01*
X02827Y014943D01*
X028286Y014955D01*
X028302Y014966D01*
X02832Y014976D01*
X028337Y014983D01*
X028354Y01499D01*
X02837Y014995D01*
X028386Y015D01*
X028401Y015003D01*
X028415Y015005D01*
X028427Y015007D01*
X028438Y015008D01*
X028447Y01501D01*
X028459D01*
X028488Y015008D01*
D02*
G37*
G36*
X020111Y015008D02*
X020139Y015004D01*
X020164Y014999D01*
X020186Y014992D01*
X020194Y014988D01*
X020203Y014984D01*
X020211Y014982D01*
X020216Y014979D01*
X020222Y014977D01*
X020225Y014975D01*
X020227Y014973D01*
X020228D01*
X020251Y014958D01*
X020271Y014942D01*
X020288Y014924D01*
X020303Y014908D01*
X020314Y014893D01*
X020322Y014881D01*
X020326Y014876D01*
X020327Y014873D01*
X020329Y014871D01*
Y01487D01*
X020341Y014844D01*
X020349Y014819D01*
X020355Y014796D01*
X020359Y014776D01*
X020362Y014757D01*
X020363Y014749D01*
Y014743D01*
X020364Y014738D01*
Y014734D01*
Y014732D01*
Y014731D01*
X020363Y014697D01*
X020358Y014665D01*
X020353Y014638D01*
X02035Y014626D01*
X020346Y014615D01*
X020343Y014605D01*
X02034Y014596D01*
X020337Y014589D01*
X020334Y014582D01*
X020332Y014577D01*
X02033Y014573D01*
X020329Y014571D01*
Y01457D01*
X020314Y014547D01*
X020297Y014528D01*
X02028Y01451D01*
X020263Y014496D01*
X020248Y014485D01*
X020236Y014477D01*
X020232Y014474D01*
X020228Y014472D01*
X020226Y014471D01*
X020225D01*
X020199Y01446D01*
X020174Y014451D01*
X02015Y014446D01*
X020127Y014441D01*
X020108Y014439D01*
X0201Y014438D01*
X020094D01*
X020088Y014437D01*
X020081D01*
X020058Y014438D01*
X020037Y01444D01*
X020016Y014444D01*
X019998Y01445D01*
X019979Y014455D01*
X019963Y014462D01*
X019947Y01447D01*
X019933Y014477D01*
X019921Y014485D01*
X01991Y014493D01*
X0199Y014499D01*
X019893Y014505D01*
X019886Y01451D01*
X019882Y014514D01*
X01988Y014517D01*
X019879Y014518D01*
X019864Y014534D01*
X019852Y01455D01*
X019841Y014567D01*
X019832Y014584D01*
X019824Y014602D01*
X019817Y014619D01*
X019812Y014636D01*
X019808Y014652D01*
X019804Y014666D01*
X019802Y014681D01*
X0198Y014693D01*
X019799Y014703D01*
X019798Y014712D01*
Y014719D01*
Y014723D01*
Y014724D01*
X019799Y014747D01*
X019801Y014769D01*
X019805Y014789D01*
X01981Y014808D01*
X019816Y014826D01*
X019823Y014843D01*
X01983Y014859D01*
X019837Y014873D01*
X019845Y014885D01*
X019852Y014897D01*
X019859Y014906D01*
X019865Y014914D01*
X01987Y01492D01*
X019874Y014925D01*
X019876Y014928D01*
X019877Y014929D01*
X019893Y014943D01*
X019909Y014955D01*
X019926Y014966D01*
X019943Y014976D01*
X019961Y014983D01*
X019977Y01499D01*
X019993Y014995D01*
X02001Y015D01*
X020024Y015003D01*
X020038Y015005D01*
X02005Y015007D01*
X020061Y015008D01*
X02007Y01501D01*
X020082D01*
X020111Y015008D01*
D02*
G37*
G36*
X024549Y015218D02*
X024576Y015217D01*
X024603Y015214D01*
X024629Y01521D01*
X024652Y015205D01*
X024675Y0152D01*
X024695Y015193D01*
X024715Y015188D01*
X024733Y015182D01*
X024748Y015176D01*
X024761Y01517D01*
X024773Y015166D01*
X024782Y015161D01*
X024788Y015159D01*
X024793Y015157D01*
X024794Y015156D01*
X024816Y015144D01*
X024836Y01513D01*
X024855Y015116D01*
X024874Y0151D01*
X02489Y015085D01*
X024905Y01507D01*
X024919Y015053D01*
X024933Y015039D01*
X024944Y015025D01*
X024953Y015011D01*
X024962Y014999D01*
X024969Y014989D01*
X024974Y01498D01*
X024979Y014973D01*
X024981Y014969D01*
X024982Y014968D01*
X024994Y014944D01*
X025004Y01492D01*
X025013Y014896D01*
X025021Y014873D01*
X025028Y01485D01*
X025033Y014827D01*
X025038Y014805D01*
X025041Y014785D01*
X025044Y014767D01*
X025046Y014749D01*
X025047Y014734D01*
X025048Y014722D01*
X02505Y014711D01*
Y014703D01*
Y014699D01*
Y014697D01*
X025048Y014673D01*
X025047Y014649D01*
X02504Y014603D01*
X025035Y014581D01*
X025031Y014561D01*
X025026Y014543D01*
X025019Y014525D01*
X025013Y014509D01*
X025008Y014495D01*
X025004Y014483D01*
X024999Y014472D01*
X024995Y014463D01*
X024992Y014458D01*
X024991Y014453D01*
X024989Y014452D01*
X024977Y014431D01*
X024964Y014413D01*
X02495Y014395D01*
X024936Y014379D01*
X024921Y014364D01*
X024905Y014349D01*
X02489Y014337D01*
X024875Y014325D01*
X024862Y014315D01*
X024848Y014307D01*
X024836Y014299D01*
X024825Y014294D01*
X024818Y014289D01*
X024811Y014286D01*
X024807Y014284D01*
X024806Y014283D01*
X024782Y014273D01*
X024758Y014264D01*
X024733Y014255D01*
X024707Y014249D01*
X024657Y014239D01*
X024634Y014235D01*
X024611Y014232D01*
X02459Y014229D01*
X024571Y014228D01*
X024554Y014227D01*
X024539Y014226D01*
X024527Y014225D01*
X024511D01*
X024478Y014226D01*
X024447Y014228D01*
X024418Y014231D01*
X024389Y014236D01*
X024363Y014241D01*
X024339Y014247D01*
X024316Y014253D01*
X024295Y01426D01*
X024277Y014265D01*
X02426Y014272D01*
X024246Y014277D01*
X024234Y014283D01*
X024224Y014287D01*
X024218Y01429D01*
X024213Y014293D01*
X024212Y014294D01*
X024193Y014306D01*
X024175Y014318D01*
X024159Y014331D01*
X024142Y014345D01*
X024128Y014358D01*
X024115Y014372D01*
X024104Y014385D01*
X024093Y014399D01*
X024084Y014411D01*
X024076Y014423D01*
X024069Y014432D01*
X024064Y014441D01*
X024059Y014449D01*
X024056Y014454D01*
X024055Y014458D01*
X024054Y014459D01*
X024164D01*
X024186Y014435D01*
X02421Y014414D01*
X024233Y014395D01*
X024256Y014381D01*
X024277Y014369D01*
X024286Y014365D01*
X024293Y014361D01*
X024299Y014358D01*
X024303Y014357D01*
X024306Y014355D01*
X024307D01*
X024342Y014343D01*
X024377Y014335D01*
X024413Y014329D01*
X024446Y014324D01*
X024462Y014323D01*
X024476Y014322D01*
X024488Y014321D01*
X024499D01*
X024507Y01432D01*
X024519D01*
X024565Y014322D01*
X024609Y014326D01*
X024629Y01433D01*
X024647Y014333D01*
X024665Y014336D01*
X024681Y014341D01*
X024695Y014345D01*
X024709Y014348D01*
X024719Y014352D01*
X024729Y014355D01*
X024737Y014358D01*
X024742Y014359D01*
X024746Y014361D01*
X024747D01*
X024765Y01437D01*
X024782Y014379D01*
X024798Y014389D01*
X024812Y0144D01*
X024827Y014409D01*
X02484Y01442D01*
X024851Y014431D01*
X024862Y014442D01*
X02487Y014452D01*
X024878Y014461D01*
X024886Y01447D01*
X024891Y014477D01*
X024895Y014483D01*
X024899Y014487D01*
X0249Y01449D01*
X024901Y014491D01*
X024911Y014509D01*
X024918Y014525D01*
X024926Y014543D01*
X024933Y01456D01*
X024942Y014593D01*
X024949Y014624D01*
X024951Y014638D01*
X024952Y01465D01*
X024953Y014662D01*
X024954Y014671D01*
X024956Y014678D01*
Y014685D01*
Y014688D01*
Y014689D01*
X024954Y01471D01*
X024953Y014731D01*
X024948Y01477D01*
X02494Y014807D01*
X024936Y014824D01*
X02493Y01484D01*
X024926Y014854D01*
X024922Y014867D01*
X024917Y014878D01*
X024914Y014888D01*
X024911Y014896D01*
X024909Y014901D01*
X024906Y014905D01*
Y014906D01*
X024897Y014924D01*
X024886Y014943D01*
X024875Y014959D01*
X024863Y014975D01*
X024851Y014989D01*
X024839Y015002D01*
X024827Y015014D01*
X024815Y015025D01*
X024804Y015035D01*
X024794Y015043D01*
X024784Y01505D01*
X024776Y015055D01*
X024769Y015061D01*
X024764Y015064D01*
X024761Y015065D01*
X02476Y015066D01*
X024741Y015076D01*
X024722Y015086D01*
X024702Y015094D01*
X024682Y0151D01*
X024642Y01511D01*
X024623Y015114D01*
X024605Y015117D01*
X024587Y01512D01*
X024572Y015121D01*
X024558Y015122D01*
X024546Y015123D01*
X024536Y015124D01*
X024523D01*
X024493Y015123D01*
X024465Y015121D01*
X024439Y015117D01*
X024413Y015111D01*
X02439Y015105D01*
X02437Y015097D01*
X02435Y015089D01*
X024334Y015082D01*
X024318Y015073D01*
X024304Y015065D01*
X024293Y015058D01*
X024283Y015051D01*
X024277Y015046D01*
X024271Y015041D01*
X024268Y015039D01*
X024267Y015038D01*
X024251Y015022D01*
X024236Y015004D01*
X024224Y014987D01*
X024213Y014969D01*
X024205Y01495D01*
X024197Y014933D01*
X02419Y014917D01*
X024186Y0149D01*
X024182Y014885D01*
X024178Y014871D01*
X024177Y014858D01*
X024175Y014847D01*
Y014838D01*
X024174Y014831D01*
Y014827D01*
Y014826D01*
X024175Y0148D01*
X02418Y014775D01*
X024184Y014752D01*
X02419Y014731D01*
X024196Y014713D01*
X024199Y014706D01*
X024201Y0147D01*
X024204Y014695D01*
X024206Y014691D01*
X024207Y014689D01*
Y014688D01*
X02422Y014665D01*
X024234Y014644D01*
X024248Y014626D01*
X024262Y014612D01*
X024274Y0146D01*
X024283Y014591D01*
X02429Y014585D01*
X024291Y014583D01*
X024292D01*
X024306Y014573D01*
X024318Y014566D01*
X024329Y014561D01*
X024339Y014557D01*
X024347Y014555D01*
X024352Y014554D01*
X024357D01*
X024362Y014555D01*
X024366Y014557D01*
X02437Y014558D01*
X024371Y014559D01*
X024374Y014565D01*
X024375Y014571D01*
X024376Y014577D01*
Y014579D01*
Y014584D01*
X024375Y014591D01*
X024373Y014606D01*
X024372Y014613D01*
X024371Y014619D01*
X02437Y014624D01*
Y014625D01*
X024291Y014995D01*
X024429D01*
X024441Y014937D01*
X02445Y014949D01*
X024459Y01496D01*
X024469Y01497D01*
X02448Y014979D01*
X024491Y014985D01*
X024503Y014991D01*
X024525Y015D01*
X024545Y015005D01*
X024553Y015006D01*
X024561Y015007D01*
X024568Y015008D01*
X024576D01*
X0246Y015007D01*
X024622Y015003D01*
X024644Y014998D01*
X024664Y01499D01*
X024682Y01498D01*
X0247Y01497D01*
X024715Y014958D01*
X02473Y014947D01*
X024744Y014936D01*
X024754Y014924D01*
X024764Y014914D01*
X024772Y014906D01*
X024778Y014897D01*
X024784Y014891D01*
X024786Y014887D01*
X024787Y014886D01*
X024799Y014867D01*
X024809Y014848D01*
X024819Y014828D01*
X024827Y01481D01*
X024833Y01479D01*
X024839Y014771D01*
X024843Y014754D01*
X024846Y014737D01*
X02485Y014722D01*
X024852Y014708D01*
X024853Y014696D01*
X024854Y014685D01*
X024855Y014676D01*
Y01467D01*
Y014665D01*
Y014664D01*
X024854Y014647D01*
X024853Y014629D01*
X024846Y014599D01*
X024838Y014572D01*
X024832Y01456D01*
X024827Y014549D01*
X024822Y01454D01*
X024817Y014532D01*
X024812Y014524D01*
X024808Y014519D01*
X024805Y014514D01*
X024801Y014511D01*
X0248Y014509D01*
X024799Y014508D01*
X024788Y014498D01*
X024776Y014488D01*
X024765Y014481D01*
X024753Y014474D01*
X024729Y014463D01*
X024706Y014456D01*
X024687Y014452D01*
X024679Y014451D01*
X024671Y01445D01*
X024666Y014449D01*
X024657D01*
X024643Y01445D01*
X024629Y014451D01*
X024603Y014458D01*
X024578Y014467D01*
X024558Y014478D01*
X02454Y014488D01*
X024534Y014494D01*
X024528Y014498D01*
X024524Y014501D01*
X024521Y014505D01*
X024518Y014506D01*
X024517Y014507D01*
X024514Y014497D01*
X02451Y014488D01*
X024505Y014481D01*
X0245Y014474D01*
X024495Y01447D01*
X024492Y014466D01*
X02449Y014464D01*
X024489Y014463D01*
X02448Y014459D01*
X024469Y014455D01*
X024447Y014451D01*
X024439Y01445D01*
X024431Y014449D01*
X024423D01*
X024394Y01445D01*
X024366Y014454D01*
X02434Y014461D01*
X024316Y01447D01*
X024293Y014479D01*
X024271Y014491D01*
X024252Y014503D01*
X024234Y014515D01*
X024218Y014528D01*
X024204Y01454D01*
X024192Y014552D01*
X024182Y014561D01*
X024174Y01457D01*
X024168Y014577D01*
X024164Y014581D01*
X024163Y014582D01*
X024149Y014603D01*
X024136Y014624D01*
X024125Y014644D01*
X024116Y014664D01*
X024107Y014685D01*
X024101Y014705D01*
X024095Y014723D01*
X024091Y014742D01*
X024088Y014758D01*
X024086Y014773D01*
X024083Y014787D01*
X024082Y014799D01*
X024081Y014807D01*
Y014815D01*
Y014819D01*
Y01482D01*
X024082Y014841D01*
X024083Y014861D01*
X02409Y014899D01*
X024098Y014933D01*
X024103Y014949D01*
X024107Y014964D01*
X024113Y014977D01*
X024117Y014989D01*
X024123Y014999D01*
X024126Y015007D01*
X024129Y015015D01*
X024133Y015019D01*
X024134Y015023D01*
X024135Y015024D01*
X024146Y015041D01*
X024157Y015057D01*
X024182Y015086D01*
X024207Y015111D01*
X02422Y015121D01*
X024232Y015131D01*
X024244Y01514D01*
X024255Y015147D01*
X024265Y015154D01*
X024274Y015159D01*
X02428Y015163D01*
X024286Y015166D01*
X024289Y015167D01*
X02429Y015168D01*
X024309Y015177D01*
X024328Y015186D01*
X024369Y015198D01*
X024407Y015207D01*
X024425Y015211D01*
X024443Y015213D01*
X024459Y015215D01*
X024474Y015217D01*
X024488Y015218D01*
X024499D01*
X024507Y015219D01*
X024521D01*
X024549Y015218D01*
D02*
G37*
G36*
X026309Y015008D02*
X026327Y015005D01*
X026345Y015001D01*
X026359Y014996D01*
X026371Y014992D01*
X026381Y014988D01*
X026386Y014984D01*
X026388Y014983D01*
X026405Y014973D01*
X026418Y014963D01*
X026431Y014952D01*
X026441Y014941D01*
X026449Y014931D01*
X026455Y014923D01*
X026458Y014919D01*
X02646Y014917D01*
Y014998D01*
X026595D01*
Y014239D01*
X02645D01*
Y014517D01*
X026434Y014501D01*
X02642Y014488D01*
X026408Y014477D01*
X026396Y01447D01*
X026386Y014463D01*
X02638Y014458D01*
X026374Y014455D01*
X026373Y014454D01*
X026359Y014449D01*
X026345Y014444D01*
X026331Y014441D01*
X026317Y014439D01*
X026307Y014438D01*
X026298Y014437D01*
X02629D01*
X026273Y014438D01*
X026256Y01444D01*
X02624Y014443D01*
X026225Y014449D01*
X026197Y014461D01*
X026185Y014467D01*
X026173Y014475D01*
X026163Y014482D01*
X026155Y014488D01*
X026147Y014495D01*
X02614Y0145D01*
X026135Y014506D01*
X026132Y014509D01*
X026129Y014511D01*
X026128Y014512D01*
X026116Y014528D01*
X026106Y014544D01*
X026097Y01456D01*
X026089Y014578D01*
X026082Y014595D01*
X026077Y014613D01*
X026069Y014648D01*
X026066Y014663D01*
X026064Y014678D01*
X026063Y014691D01*
X026062Y014702D01*
X026061Y014712D01*
Y01472D01*
Y014724D01*
Y014725D01*
X026062Y014749D01*
X026064Y014773D01*
X026067Y014794D01*
X02607Y014815D01*
X026076Y014834D01*
X026081Y014851D01*
X026088Y014866D01*
X026093Y014881D01*
X0261Y014893D01*
X026106Y014904D01*
X026112Y014913D01*
X026116Y01492D01*
X026121Y014926D01*
X026124Y014931D01*
X026126Y014933D01*
X026127Y014934D01*
X02614Y014947D01*
X026153Y014959D01*
X026167Y014969D01*
X026181Y014978D01*
X026194Y014985D01*
X026208Y014991D01*
X02622Y014996D01*
X026233Y015D01*
X026244Y015003D01*
X026255Y015005D01*
X026265Y015007D01*
X026273Y015008D01*
X02628Y01501D01*
X026289D01*
X026309Y015008D01*
D02*
G37*
%LPC*%
G36*
X023741Y014898D02*
X023739D01*
X023719Y014896D01*
X023703Y014891D01*
X023688Y014885D01*
X023675Y014877D01*
X023665Y01487D01*
X023657Y014863D01*
X023652Y014859D01*
X023651Y014857D01*
X023639Y014839D01*
X02363Y014819D01*
X023624Y014799D01*
X02362Y014778D01*
X023618Y014759D01*
X023617Y01475D01*
X023616Y014744D01*
Y014737D01*
Y014733D01*
Y014731D01*
Y01473D01*
X023617Y014701D01*
X023621Y014676D01*
X023628Y014655D01*
X023634Y014638D01*
X023641Y014625D01*
X023647Y014615D01*
X023652Y014609D01*
X023653Y014607D01*
X023667Y014593D01*
X023682Y014583D01*
X023696Y014576D01*
X023711Y014571D01*
X023724Y014568D01*
X023734Y014567D01*
X02374Y014566D01*
X023742D01*
X02376Y014568D01*
X023776Y014572D01*
X02379Y014579D01*
X023802Y014587D01*
X023812Y014593D01*
X023819Y0146D01*
X023824Y014604D01*
X023825Y014606D01*
X023836Y014624D01*
X023844Y014643D01*
X023851Y014664D01*
X023854Y014685D01*
X023856Y014703D01*
X023857Y014712D01*
Y014719D01*
X023858Y014724D01*
Y01473D01*
Y014732D01*
Y014733D01*
X023857Y014763D01*
X023853Y014788D01*
X023847Y014808D01*
X023842Y014826D01*
X023835Y014839D01*
X023831Y014849D01*
X023826Y014854D01*
X023825Y014857D01*
X023812Y014871D01*
X023798Y014881D01*
X023783Y014888D01*
X02377Y014893D01*
X023758Y014896D01*
X023748Y014897D01*
X023741Y014898D01*
D02*
G37*
G36*
X029759Y014896D02*
X029757D01*
X029739Y014894D01*
X029722Y014889D01*
X029708Y014883D01*
X029695Y014875D01*
X029685Y014867D01*
X029678Y014861D01*
X029673Y014857D01*
X029672Y014854D01*
X02966Y014838D01*
X029651Y014818D01*
X029646Y014797D01*
X029641Y014777D01*
X029639Y014758D01*
X029638Y01475D01*
X029637Y014744D01*
Y014737D01*
Y014733D01*
Y014731D01*
Y01473D01*
X029638Y014699D01*
X029642Y014672D01*
X029649Y014649D01*
X029655Y01463D01*
X029663Y014615D01*
X029669Y014605D01*
X029673Y014599D01*
X029675Y014596D01*
X029689Y014581D01*
X029705Y01457D01*
X029719Y014562D01*
X029733Y014557D01*
X029745Y014554D01*
X029754Y014553D01*
X02976Y014552D01*
X029763D01*
X02978Y014554D01*
X029796Y014558D01*
X029811Y014564D01*
X029823Y014571D01*
X029833Y014579D01*
X029839Y014584D01*
X029845Y014589D01*
X029846Y014591D01*
X029851Y014599D01*
X029857Y014608D01*
X029865Y014628D01*
X029871Y01465D01*
X029875Y014671D01*
X029877Y01469D01*
X029878Y014699D01*
Y014707D01*
X02988Y014712D01*
Y014717D01*
Y01472D01*
Y014721D01*
Y014737D01*
X029878Y014753D01*
X029876Y014767D01*
X029874Y01478D01*
X029872Y014792D01*
X029869Y014803D01*
X029862Y014822D01*
X029855Y014836D01*
X02985Y014846D01*
X029846Y014851D01*
X029845Y014853D01*
X02983Y014867D01*
X029816Y014878D01*
X029802Y014886D01*
X029788Y01489D01*
X029776Y014894D01*
X029766Y014895D01*
X029759Y014896D01*
D02*
G37*
G36*
X03152Y014711D02*
X031519D01*
Y014682D01*
Y014664D01*
X03152Y014649D01*
X031521Y014637D01*
X031522Y014627D01*
X031523Y01462D01*
X031524Y014615D01*
X031526Y014613D01*
Y014612D01*
X031529Y014602D01*
X031534Y014592D01*
X03154Y014584D01*
X031545Y014577D01*
X031551Y014571D01*
X031555Y014567D01*
X031558Y014565D01*
X031559Y014564D01*
X031573Y014555D01*
X031587Y014549D01*
X031599Y014545D01*
X031611Y014542D01*
X031621Y01454D01*
X031628Y014538D01*
X031635D01*
X031647Y01454D01*
X031659Y014542D01*
X031669Y014545D01*
X031676Y014549D01*
X031684Y014554D01*
X031688Y014557D01*
X031692Y014559D01*
X031693Y01456D01*
X0317Y014569D01*
X031706Y014578D01*
X031709Y014587D01*
X031711Y014595D01*
X031714Y014602D01*
X031715Y014607D01*
Y014612D01*
Y014613D01*
X031714Y014624D01*
X03171Y014634D01*
X031706Y014642D01*
X0317Y01465D01*
X031696Y014655D01*
X031692Y01466D01*
X031688Y014662D01*
X031687Y014663D01*
X031679Y014667D01*
X031668Y014673D01*
X031655Y014677D01*
X031641Y014681D01*
X031628Y014684D01*
X031618Y014686D01*
X031614Y014687D01*
X031611Y014688D01*
X031609D01*
X031587Y014693D01*
X031569Y014697D01*
X031553Y014701D01*
X031541Y014705D01*
X031531Y014708D01*
X031524Y014709D01*
X03152Y014711D01*
D02*
G37*
G36*
X026878Y014711D02*
X026877D01*
Y014682D01*
Y014664D01*
X026878Y014649D01*
X026879Y014637D01*
X02688Y014627D01*
X026881Y01462D01*
X026883Y014615D01*
X026884Y014613D01*
Y014612D01*
X026887Y014602D01*
X026892Y014592D01*
X026898Y014584D01*
X026903Y014577D01*
X026909Y014571D01*
X026913Y014567D01*
X026916Y014565D01*
X026918Y014564D01*
X026931Y014555D01*
X026945Y014549D01*
X026957Y014545D01*
X026969Y014542D01*
X026979Y01454D01*
X026986Y014538D01*
X026993D01*
X027005Y01454D01*
X027017Y014542D01*
X027027Y014545D01*
X027034Y014549D01*
X027042Y014554D01*
X027046Y014557D01*
X02705Y014559D01*
X027051Y01456D01*
X027058Y014569D01*
X027064Y014578D01*
X027067Y014587D01*
X027069Y014595D01*
X027072Y014602D01*
X027073Y014607D01*
Y014612D01*
Y014613D01*
X027072Y014624D01*
X027068Y014634D01*
X027064Y014642D01*
X027058Y01465D01*
X027054Y014655D01*
X02705Y01466D01*
X027046Y014662D01*
X027045Y014663D01*
X027037Y014667D01*
X027026Y014673D01*
X027013Y014677D01*
X026999Y014681D01*
X026986Y014684D01*
X026977Y014686D01*
X026972Y014687D01*
X026969Y014688D01*
X026967D01*
X026945Y014693D01*
X026927Y014697D01*
X026911Y014701D01*
X026899Y014705D01*
X026889Y014708D01*
X026883Y014709D01*
X026878Y014711D01*
D02*
G37*
G36*
X022088Y014711D02*
X022086D01*
Y014682D01*
Y014664D01*
X022088Y014649D01*
X022089Y014637D01*
X02209Y014627D01*
X022091Y01462D01*
X022092Y014615D01*
X022093Y014613D01*
Y014612D01*
X022096Y014602D01*
X022102Y014592D01*
X022107Y014584D01*
X022113Y014577D01*
X022118Y014571D01*
X022123Y014567D01*
X022126Y014565D01*
X022127Y014564D01*
X02214Y014555D01*
X022154Y014549D01*
X022166Y014545D01*
X022178Y014542D01*
X022188Y01454D01*
X022196Y014538D01*
X022202D01*
X022214Y01454D01*
X022226Y014542D01*
X022236Y014545D01*
X022244Y014549D01*
X022251Y014554D01*
X022256Y014557D01*
X022259Y014559D01*
X02226Y01456D01*
X022268Y014569D01*
X022273Y014578D01*
X022277Y014587D01*
X022279Y014595D01*
X022281Y014602D01*
X022282Y014607D01*
Y014612D01*
Y014613D01*
X022281Y014624D01*
X022278Y014634D01*
X022273Y014642D01*
X022268Y01465D01*
X022264Y014655D01*
X022259Y01466D01*
X022256Y014662D01*
X022255Y014663D01*
X022246Y014667D01*
X022235Y014673D01*
X022222Y014677D01*
X022209Y014681D01*
X022196Y014684D01*
X022186Y014686D01*
X022182Y014687D01*
X022178Y014688D01*
X022176D01*
X022154Y014693D01*
X022137Y014697D01*
X02212Y014701D01*
X022108Y014705D01*
X022098Y014708D01*
X022092Y014709D01*
X022088Y014711D01*
D02*
G37*
G36*
X028463Y014891D02*
X028458D01*
X028437Y014889D01*
X028418Y014885D01*
X028403Y014877D01*
X028389Y01487D01*
X028378Y014862D01*
X028369Y014854D01*
X028365Y01485D01*
X028362Y014848D01*
X028349Y01483D01*
X028339Y01481D01*
X028333Y014789D01*
X028327Y014769D01*
X028325Y014752D01*
X028324Y014743D01*
Y014736D01*
X028323Y014731D01*
Y014726D01*
Y014724D01*
Y014723D01*
X028325Y014695D01*
X02833Y014669D01*
X028335Y014648D01*
X028343Y014629D01*
X02835Y014616D01*
X028356Y014605D01*
X02836Y0146D01*
X028362Y014597D01*
X028378Y014583D01*
X028393Y014572D01*
X028409Y014566D01*
X028425Y01456D01*
X028438Y014557D01*
X028448Y014556D01*
X028452Y014555D01*
X028458D01*
X028478Y014557D01*
X028497Y014561D01*
X028513Y014568D01*
X028526Y014577D01*
X028538Y014584D01*
X028547Y014591D01*
X028552Y014595D01*
X028554Y014597D01*
X028567Y014615D01*
X028576Y014636D01*
X028582Y014656D01*
X028588Y014677D01*
X02859Y014695D01*
X028591Y014702D01*
Y01471D01*
X028592Y014716D01*
Y01472D01*
Y014722D01*
Y014723D01*
X02859Y014752D01*
X028585Y014777D01*
X02858Y014799D01*
X028572Y014816D01*
X028566Y014829D01*
X028559Y01484D01*
X028555Y014846D01*
X028554Y014848D01*
X028538Y014862D01*
X028522Y014873D01*
X028506Y014881D01*
X02849Y014886D01*
X028477Y014889D01*
X028467Y01489D01*
X028463Y014891D01*
D02*
G37*
G36*
X020086Y014891D02*
X020081D01*
X02006Y014889D01*
X020041Y014885D01*
X020026Y014877D01*
X020012Y01487D01*
X020001Y014862D01*
X019992Y014854D01*
X019988Y01485D01*
X019986Y014848D01*
X019973Y01483D01*
X019963Y01481D01*
X019956Y014789D01*
X019951Y014769D01*
X019949Y014752D01*
X019947Y014743D01*
Y014736D01*
X019946Y014731D01*
Y014726D01*
Y014724D01*
Y014723D01*
X019949Y014695D01*
X019953Y014669D01*
X019958Y014648D01*
X019966Y014629D01*
X019974Y014616D01*
X019979Y014605D01*
X019984Y0146D01*
X019986Y014597D01*
X020001Y014583D01*
X020016Y014572D01*
X020033Y014566D01*
X020048Y01456D01*
X020061Y014557D01*
X020071Y014556D01*
X020075Y014555D01*
X020081D01*
X020102Y014557D01*
X02012Y014561D01*
X020137Y014568D01*
X02015Y014577D01*
X020162Y014584D01*
X02017Y014591D01*
X020175Y014595D01*
X020177Y014597D01*
X02019Y014615D01*
X020199Y014636D01*
X020205Y014656D01*
X020211Y014677D01*
X020213Y014695D01*
X020214Y014702D01*
Y01471D01*
X020215Y014716D01*
Y01472D01*
Y014722D01*
Y014723D01*
X020213Y014752D01*
X020209Y014777D01*
X020203Y014799D01*
X020196Y014816D01*
X020189Y014829D01*
X020182Y01484D01*
X020178Y014846D01*
X020177Y014848D01*
X020162Y014862D01*
X020145Y014873D01*
X020129Y014881D01*
X020114Y014886D01*
X0201Y014889D01*
X020091Y01489D01*
X020086Y014891D01*
D02*
G37*
G36*
X024572Y014916D02*
X024564D01*
X02455Y014914D01*
X024537Y014911D01*
X024525Y014906D01*
X024515Y0149D01*
X024507Y014894D01*
X024501Y014889D01*
X024498Y014885D01*
X024497Y014884D01*
X024488Y014871D01*
X024481Y014857D01*
X024476Y014841D01*
X024472Y014827D01*
X02447Y014814D01*
X024469Y014804D01*
Y0148D01*
Y014796D01*
Y014795D01*
Y014794D01*
X02447Y014775D01*
X024472Y014755D01*
X024476Y014735D01*
X024479Y014718D01*
X024483Y014702D01*
X024487Y014691D01*
X024488Y014687D01*
X024489Y014684D01*
X02449Y014682D01*
Y014681D01*
X024498Y01466D01*
X024505Y014641D01*
X024513Y014626D01*
X024521Y014613D01*
X024526Y014603D01*
X024531Y014595D01*
X024535Y014591D01*
X024536Y01459D01*
X024543Y014582D01*
X02455Y014575D01*
X024557Y014569D01*
X024563Y014565D01*
X024568Y014561D01*
X024572Y014559D01*
X024574Y014557D01*
X024575D01*
X024585Y014553D01*
X024594Y014549D01*
X024604Y014546D01*
X024612Y014545D01*
X024619Y014544D01*
X024624Y014543D01*
X02463D01*
X024644Y014544D01*
X024656Y014547D01*
X024667Y014553D01*
X024677Y014558D01*
X024685Y014564D01*
X02469Y014569D01*
X024693Y014572D01*
X024694Y014573D01*
X024703Y014587D01*
X02471Y014602D01*
X024714Y014617D01*
X024717Y014634D01*
X024719Y014648D01*
X024721Y014659D01*
Y014663D01*
Y014666D01*
Y014669D01*
Y01467D01*
X024719Y014688D01*
X024717Y014708D01*
X024715Y014726D01*
X024711Y014744D01*
X024707Y014759D01*
X024705Y014771D01*
X024704Y014776D01*
X024703Y014779D01*
X024702Y014781D01*
Y014782D01*
X024694Y014805D01*
X024686Y014825D01*
X024676Y014841D01*
X024667Y014855D01*
X024659Y014866D01*
X024653Y014874D01*
X024647Y014879D01*
X024646Y014881D01*
X024632Y014893D01*
X024617Y014901D01*
X024604Y014907D01*
X02459Y014911D01*
X02458Y014913D01*
X024572Y014916D01*
D02*
G37*
G36*
X026332Y014895D02*
X026329D01*
X026311Y014893D01*
X026294Y014888D01*
X02628Y014882D01*
X026268Y014874D01*
X026258Y014865D01*
X026251Y014859D01*
X026245Y014854D01*
X026244Y014852D01*
X026232Y014835D01*
X026223Y014815D01*
X026218Y014793D01*
X026214Y014772D01*
X026211Y014754D01*
X02621Y014746D01*
X026209Y014738D01*
Y014733D01*
Y014729D01*
Y014725D01*
Y014724D01*
Y014708D01*
X02621Y014693D01*
X026213Y014678D01*
X026215Y014665D01*
X026217Y014653D01*
X02622Y014642D01*
X026223Y014632D01*
X026226Y014624D01*
X026232Y014609D01*
X026238Y0146D01*
X026242Y014594D01*
X026243Y014592D01*
X026256Y014579D01*
X02627Y014569D01*
X026285Y014561D01*
X026298Y014557D01*
X02631Y014554D01*
X026319Y014553D01*
X026325Y014552D01*
X026327D01*
X026346Y014554D01*
X026363Y014558D01*
X026379Y014566D01*
X026391Y014573D01*
X026402Y014581D01*
X026409Y014589D01*
X026414Y014593D01*
X026416Y014595D01*
X026422Y014604D01*
X026428Y014614D01*
X026437Y014635D01*
X026443Y014658D01*
X026448Y014681D01*
X02645Y0147D01*
X026451Y014709D01*
Y014717D01*
X026452Y014723D01*
Y014728D01*
Y014731D01*
Y014732D01*
X026451Y01476D01*
X026446Y014784D01*
X026441Y014805D01*
X026434Y014823D01*
X026429Y014836D01*
X026423Y014846D01*
X026419Y014851D01*
X026418Y014853D01*
X026404Y014867D01*
X02639Y014877D01*
X026374Y014885D01*
X02636Y014889D01*
X026348Y014893D01*
X026338Y014894D01*
X026332Y014895D01*
D02*
G37*
%LPD*%
D11*
X009988Y0337D02*
X04938D01*
X011042Y011575D02*
X011157Y011552D01*
X011264Y011508D01*
X011361Y011443D01*
X011443Y011361D01*
X011508Y011264D01*
X011552Y011157D01*
X011575Y011042D01*
Y010984D02*
Y011042D01*
Y010926D02*
Y010984D01*
X011552Y010812D02*
X011575Y010926D01*
X011508Y010705D02*
X011552Y010812D01*
X011443Y010608D02*
X011508Y010705D01*
X011361Y010526D02*
X011443Y010608D01*
X011264Y010461D02*
X011361Y010526D01*
X011157Y010416D02*
X011264Y010461D01*
X011042Y010394D02*
X011157Y010416D01*
X010926Y010394D02*
X011042D01*
X010812Y010416D02*
X010926Y010394D01*
X010705Y010461D02*
X010812Y010416D01*
X010608Y010526D02*
X010705Y010461D01*
X010526Y010608D02*
X010608Y010526D01*
X010461Y010705D02*
X010526Y010608D01*
X010416Y010812D02*
X010461Y010705D01*
X010394Y010926D02*
X010416Y010812D01*
X010394Y010926D02*
Y010984D01*
Y011042D01*
X010416Y011157D01*
X010461Y011264D01*
X010526Y011361D01*
X010608Y011443D01*
X010705Y011508D01*
X010812Y011552D01*
X010926Y011575D01*
X011042D01*
X048424D02*
X048538Y011552D01*
X048645Y011508D01*
X048742Y011443D01*
X048824Y011361D01*
X048889Y011264D01*
X048934Y011157D01*
X048956Y011042D01*
Y010984D02*
Y011042D01*
Y010926D02*
Y010984D01*
X048934Y010812D02*
X048956Y010926D01*
X048889Y010705D02*
X048934Y010812D01*
X048824Y010608D02*
X048889Y010705D01*
X048742Y010526D02*
X048824Y010608D01*
X048645Y010461D02*
X048742Y010526D01*
X048538Y010416D02*
X048645Y010461D01*
X048424Y010394D02*
X048538Y010416D01*
X048308Y010394D02*
X048424D01*
X048193Y010416D02*
X048308Y010394D01*
X048086Y010461D02*
X048193Y010416D01*
X047989Y010526D02*
X048086Y010461D01*
X047907Y010608D02*
X047989Y010526D01*
X047842Y010705D02*
X047907Y010608D01*
X047798Y010812D02*
X047842Y010705D01*
X047775Y010926D02*
X047798Y010812D01*
X047775Y010926D02*
Y010984D01*
Y011042D01*
X047798Y011157D01*
X047842Y011264D01*
X047907Y011361D01*
X047989Y011443D01*
X048086Y011508D01*
X048193Y011552D01*
X048308Y011575D01*
X048424D01*
X018299Y018583D02*
X01836Y018571D01*
X018417Y018547D01*
X018468Y018512D01*
X018512Y018468D01*
X018547Y018417D01*
X018571Y01836D01*
X018583Y018299D01*
Y018268D02*
Y018299D01*
Y018237D02*
Y018268D01*
X018571Y018176D02*
X018583Y018237D01*
X018547Y018119D02*
X018571Y018176D01*
X018512Y018067D02*
X018547Y018119D01*
X018468Y018023D02*
X018512Y018067D01*
X018417Y017989D02*
X018468Y018023D01*
X01836Y017965D02*
X018417Y017989D01*
X018299Y017953D02*
X01836Y017965D01*
X018237Y017953D02*
X018299D01*
X018176Y017965D02*
X018237Y017953D01*
X018119Y017989D02*
X018176Y017965D01*
X018067Y018023D02*
X018119Y017989D01*
X018023Y018067D02*
X018067Y018023D01*
X017989Y018119D02*
X018023Y018067D01*
X017965Y018176D02*
X017989Y018119D01*
X017953Y018237D02*
X017965Y018176D01*
X017953Y018237D02*
Y018268D01*
Y018299D01*
X017965Y01836D01*
X017989Y018417D01*
X018023Y018468D01*
X018067Y018512D01*
X018119Y018547D01*
X018176Y018571D01*
X018237Y018583D01*
X018299D01*
X035679Y020974D02*
X035736Y020963D01*
X035789Y020941D01*
X035838Y020908D01*
X035879Y020867D01*
X035911Y020819D01*
X035934Y020765D01*
X035945Y020708D01*
Y020679D02*
Y020708D01*
Y02065D02*
Y020679D01*
X035934Y020593D02*
X035945Y02065D01*
X035911Y020539D02*
X035934Y020593D01*
X035879Y020491D02*
X035911Y020539D01*
X035838Y02045D02*
X035879Y020491D01*
X035789Y020417D02*
X035838Y02045D01*
X035736Y020395D02*
X035789Y020417D01*
X035679Y020384D02*
X035736Y020395D01*
X035621Y020384D02*
X035679D01*
X035563Y020395D02*
X035621Y020384D01*
X03551Y020417D02*
X035563Y020395D01*
X035461Y02045D02*
X03551Y020417D01*
X03542Y020491D02*
X035461Y02045D01*
X035388Y020539D02*
X03542Y020491D01*
X035366Y020593D02*
X035388Y020539D01*
X035354Y02065D02*
X035366Y020593D01*
X035354Y02065D02*
Y020679D01*
Y020708D01*
X035366Y020765D01*
X035388Y020819D01*
X03542Y020867D01*
X035461Y020908D01*
X03551Y020941D01*
X035563Y020963D01*
X035621Y020974D01*
X035679D01*
X021888Y022992D02*
X022042Y022972D01*
X022191Y022932D01*
X022335Y022873D01*
X022469Y022795D01*
X022591Y022701D01*
X022701Y022591D01*
X022795Y022469D01*
X022873Y022335D01*
X022932Y022191D01*
X022972Y022042D01*
X022992Y021888D01*
Y021811D02*
Y021888D01*
Y021734D02*
Y021811D01*
X022972Y02158D02*
X022992Y021734D01*
X022932Y021431D02*
X022972Y02158D01*
X022873Y021288D02*
X022932Y021431D01*
X022795Y021153D02*
X022873Y021288D01*
X022701Y021031D02*
X022795Y021153D01*
X022591Y020921D02*
X022701Y021031D01*
X022469Y020827D02*
X022591Y020921D01*
X022335Y020749D02*
X022469Y020827D01*
X022191Y02069D02*
X022335Y020749D01*
X022042Y02065D02*
X022191Y02069D01*
X021888Y02063D02*
X022042Y02065D01*
X021734Y02063D02*
X021888D01*
X02158Y02065D02*
X021734Y02063D01*
X021431Y02069D02*
X02158Y02065D01*
X021288Y020749D02*
X021431Y02069D01*
X021153Y020827D02*
X021288Y020749D01*
X021031Y020921D02*
X021153Y020827D01*
X020921Y021031D02*
X021031Y020921D01*
X020827Y021153D02*
X020921Y021031D01*
X020749Y021288D02*
X020827Y021153D01*
X02069Y021431D02*
X020749Y021288D01*
X02065Y02158D02*
X02069Y021431D01*
X02063Y021734D02*
X02065Y02158D01*
X02063Y021734D02*
Y021811D01*
Y021888D01*
X02065Y022042D01*
X02069Y022191D01*
X020749Y022335D01*
X020827Y022469D01*
X020921Y022591D01*
X021031Y022701D01*
X021153Y022795D01*
X021288Y022873D01*
X021431Y022932D01*
X02158Y022972D01*
X021734Y022992D01*
X021888D01*
X035697Y023868D02*
X035783Y023832D01*
X03585Y023766D01*
X035886Y023679D01*
Y023632D02*
Y023679D01*
Y023585D02*
Y023632D01*
X03585Y023498D02*
X035886Y023585D01*
X035783Y023432D02*
X03585Y023498D01*
X035697Y023396D02*
X035783Y023432D01*
X035603Y023396D02*
X035697D01*
X035516Y023432D02*
X035603Y023396D01*
X035449Y023498D02*
X035516Y023432D01*
X035413Y023585D02*
X035449Y023498D01*
X035413Y023585D02*
Y023632D01*
Y023679D01*
X035449Y023766D01*
X035516Y023832D01*
X035603Y023868D01*
X035697D01*
X025385Y025669D02*
X025446Y025657D01*
X025504Y025633D01*
X025555Y025599D01*
X025599Y025555D01*
X025633Y025504D01*
X025657Y025446D01*
X025669Y025385D01*
Y025354D02*
Y025385D01*
Y025323D02*
Y025354D01*
X025657Y025262D02*
X025669Y025323D01*
X025633Y025205D02*
X025657Y025262D01*
X025599Y025154D02*
X025633Y025205D01*
X025555Y02511D02*
X025599Y025154D01*
X025504Y025075D02*
X025555Y02511D01*
X025446Y025051D02*
X025504Y025075D01*
X025385Y025039D02*
X025446Y025051D01*
X025323Y025039D02*
X025385D01*
X025262Y025051D02*
X025323Y025039D01*
X025205Y025075D02*
X025262Y025051D01*
X025154Y02511D02*
X025205Y025075D01*
X02511Y025154D02*
X025154Y02511D01*
X025075Y025205D02*
X02511Y025154D01*
X025051Y025262D02*
X025075Y025205D01*
X025039Y025323D02*
X025051Y025262D01*
X025039Y025323D02*
Y025354D01*
Y025385D01*
X025051Y025446D01*
X025075Y025504D01*
X02511Y025555D01*
X025154Y025599D01*
X025205Y025633D01*
X025262Y025657D01*
X025323Y025669D01*
X025385D01*
X047885Y028789D02*
X047984Y02877D01*
X048077Y028731D01*
X048161Y028675D01*
X048232Y028604D01*
X048288Y02852D01*
X048327Y028427D01*
X048346Y028328D01*
Y028278D02*
Y028328D01*
Y028227D02*
Y028278D01*
X048327Y028128D02*
X048346Y028227D01*
X048288Y028035D02*
X048327Y028128D01*
X048232Y027951D02*
X048288Y028035D01*
X048161Y02788D02*
X048232Y027951D01*
X048077Y027824D02*
X048161Y02788D01*
X047984Y027785D02*
X048077Y027824D01*
X047885Y027766D02*
X047984Y027785D01*
X047784Y027766D02*
X047885D01*
X047685Y027785D02*
X047784Y027766D01*
X047592Y027824D02*
X047685Y027785D01*
X047508Y02788D02*
X047592Y027824D01*
X047437Y027951D02*
X047508Y02788D01*
X047381Y028035D02*
X047437Y027951D01*
X047343Y028128D02*
X047381Y028035D01*
X047323Y028227D02*
X047343Y028128D01*
X047323Y028227D02*
Y028278D01*
Y028328D01*
X047343Y028427D01*
X047381Y02852D01*
X047437Y028604D01*
X047508Y028675D01*
X047592Y028731D01*
X047685Y02877D01*
X047784Y028789D01*
X047885D01*
X011042Y033256D02*
X011157Y033234D01*
X011264Y033189D01*
X011361Y033124D01*
X011443Y033042D01*
X011508Y032945D01*
X011552Y032838D01*
X011575Y032724D01*
Y032666D02*
Y032724D01*
Y032608D02*
Y032666D01*
X011552Y032493D02*
X011575Y032608D01*
X011508Y032386D02*
X011552Y032493D01*
X011443Y032289D02*
X011508Y032386D01*
X011361Y032207D02*
X011443Y032289D01*
X011264Y032142D02*
X011361Y032207D01*
X011157Y032098D02*
X011264Y032142D01*
X011042Y032075D02*
X011157Y032098D01*
X010926Y032075D02*
X011042D01*
X010812Y032098D02*
X010926Y032075D01*
X010705Y032142D02*
X010812Y032098D01*
X010608Y032207D02*
X010705Y032142D01*
X010526Y032289D02*
X010608Y032207D01*
X010461Y032386D02*
X010526Y032289D01*
X010416Y032493D02*
X010461Y032386D01*
X010394Y032608D02*
X010416Y032493D01*
X010394Y032608D02*
Y032666D01*
Y032724D01*
X010416Y032838D01*
X010461Y032945D01*
X010526Y033042D01*
X010608Y033124D01*
X010705Y033189D01*
X010812Y033234D01*
X010926Y033256D01*
X011042D01*
X048424D02*
X048538Y033234D01*
X048645Y033189D01*
X048742Y033124D01*
X048824Y033042D01*
X048889Y032945D01*
X048934Y032838D01*
X048956Y032724D01*
Y032666D02*
Y032724D01*
Y032608D02*
Y032666D01*
X048934Y032493D02*
X048956Y032608D01*
X048889Y032386D02*
X048934Y032493D01*
X048824Y032289D02*
X048889Y032386D01*
X048742Y032207D02*
X048824Y032289D01*
X048645Y032142D02*
X048742Y032207D01*
X048538Y032098D02*
X048645Y032142D01*
X048424Y032075D02*
X048538Y032098D01*
X048308Y032075D02*
X048424D01*
X048193Y032098D02*
X048308Y032075D01*
X048086Y032142D02*
X048193Y032098D01*
X047989Y032207D02*
X048086Y032142D01*
X047907Y032289D02*
X047989Y032207D01*
X047842Y032386D02*
X047907Y032289D01*
X047798Y032493D02*
X047842Y032386D01*
X047775Y032608D02*
X047798Y032493D01*
X047775Y032608D02*
Y032666D01*
Y032724D01*
X047798Y032838D01*
X047842Y032945D01*
X047907Y033042D01*
X047989Y033124D01*
X048086Y033189D01*
X048193Y033234D01*
X048308Y033256D01*
X048424D01*
X04938Y0337D02*
X049398Y033693D01*
X009967Y03369D02*
X009988Y0337D01*
X009953Y033671D02*
X009967Y03369D01*
X009949Y033647D02*
X009953Y033671D01*
X009949Y033647D02*
X009952Y033636D01*
X009951Y033631D02*
X009952Y033636D01*
X00995Y033624D02*
X009951Y033631D01*
X00995Y01D02*
Y033624D01*
Y00999D02*
Y01D01*
Y00999D02*
X009957Y009972D01*
X009972Y009957D01*
X00999Y00995D01*
X04938D01*
X049398Y009957D01*
X049413Y009972D01*
X04942Y00999D01*
Y01D01*
X04942Y010005D02*
X04942Y01D01*
X049419Y010012D02*
X04942Y010005D01*
X049419Y010012D02*
X049419Y010019D01*
X04942Y010026D01*
X04942Y03365D02*
X04942Y010026D01*
X04942Y03365D02*
Y03366D01*
X049413Y033678D02*
X04942Y03366D01*
X049398Y033693D02*
X049413Y033678D01*
X011042Y011575D02*
X011157Y011552D01*
X011264Y011508D01*
X011361Y011443D01*
X011443Y011361D01*
X011508Y011264D01*
X011552Y011157D01*
X011575Y011042D01*
Y010984D02*
Y011042D01*
Y010926D02*
Y010984D01*
X011552Y010812D02*
X011575Y010926D01*
X011508Y010705D02*
X011552Y010812D01*
X011443Y010608D02*
X011508Y010705D01*
X011361Y010526D02*
X011443Y010608D01*
X011264Y010461D02*
X011361Y010526D01*
X011157Y010416D02*
X011264Y010461D01*
X011042Y010394D02*
X011157Y010416D01*
X010926Y010394D02*
X011042D01*
X010812Y010416D02*
X010926Y010394D01*
X010705Y010461D02*
X010812Y010416D01*
X010608Y010526D02*
X010705Y010461D01*
X010526Y010608D02*
X010608Y010526D01*
X010461Y010705D02*
X010526Y010608D01*
X010416Y010812D02*
X010461Y010705D01*
X010394Y010926D02*
X010416Y010812D01*
X010394Y010926D02*
Y010984D01*
Y011042D01*
X010416Y011157D01*
X010461Y011264D01*
X010526Y011361D01*
X010608Y011443D01*
X010705Y011508D01*
X010812Y011552D01*
X010926Y011575D01*
X011042D01*
X048424D02*
X048538Y011552D01*
X048645Y011508D01*
X048742Y011443D01*
X048824Y011361D01*
X048889Y011264D01*
X048934Y011157D01*
X048956Y011042D01*
Y010984D02*
Y011042D01*
Y010926D02*
Y010984D01*
X048934Y010812D02*
X048956Y010926D01*
X048889Y010705D02*
X048934Y010812D01*
X048824Y010608D02*
X048889Y010705D01*
X048742Y010526D02*
X048824Y010608D01*
X048645Y010461D02*
X048742Y010526D01*
X048538Y010416D02*
X048645Y010461D01*
X048424Y010394D02*
X048538Y010416D01*
X048308Y010394D02*
X048424D01*
X048193Y010416D02*
X048308Y010394D01*
X048086Y010461D02*
X048193Y010416D01*
X047989Y010526D02*
X048086Y010461D01*
X047907Y010608D02*
X047989Y010526D01*
X047842Y010705D02*
X047907Y010608D01*
X047798Y010812D02*
X047842Y010705D01*
X047775Y010926D02*
X047798Y010812D01*
X047775Y010926D02*
Y010984D01*
Y011042D01*
X047798Y011157D01*
X047842Y011264D01*
X047907Y011361D01*
X047989Y011443D01*
X048086Y011508D01*
X048193Y011552D01*
X048308Y011575D01*
X048424D01*
X018299Y018583D02*
X01836Y018571D01*
X018417Y018547D01*
X018468Y018512D01*
X018512Y018468D01*
X018547Y018417D01*
X018571Y01836D01*
X018583Y018299D01*
Y018268D02*
Y018299D01*
Y018237D02*
Y018268D01*
X018571Y018176D02*
X018583Y018237D01*
X018547Y018119D02*
X018571Y018176D01*
X018512Y018067D02*
X018547Y018119D01*
X018468Y018023D02*
X018512Y018067D01*
X018417Y017989D02*
X018468Y018023D01*
X01836Y017965D02*
X018417Y017989D01*
X018299Y017953D02*
X01836Y017965D01*
X018237Y017953D02*
X018299D01*
X018176Y017965D02*
X018237Y017953D01*
X018119Y017989D02*
X018176Y017965D01*
X018067Y018023D02*
X018119Y017989D01*
X018023Y018067D02*
X018067Y018023D01*
X017989Y018119D02*
X018023Y018067D01*
X017965Y018176D02*
X017989Y018119D01*
X017953Y018237D02*
X017965Y018176D01*
X017953Y018237D02*
Y018268D01*
Y018299D01*
X017965Y01836D01*
X017989Y018417D01*
X018023Y018468D01*
X018067Y018512D01*
X018119Y018547D01*
X018176Y018571D01*
X018237Y018583D01*
X018299D01*
X035679Y020974D02*
X035736Y020963D01*
X035789Y020941D01*
X035838Y020908D01*
X035879Y020867D01*
X035911Y020819D01*
X035934Y020765D01*
X035945Y020708D01*
Y020679D02*
Y020708D01*
Y02065D02*
Y020679D01*
X035934Y020593D02*
X035945Y02065D01*
X035911Y020539D02*
X035934Y020593D01*
X035879Y020491D02*
X035911Y020539D01*
X035838Y02045D02*
X035879Y020491D01*
X035789Y020417D02*
X035838Y02045D01*
X035736Y020395D02*
X035789Y020417D01*
X035679Y020384D02*
X035736Y020395D01*
X035621Y020384D02*
X035679D01*
X035563Y020395D02*
X035621Y020384D01*
X03551Y020417D02*
X035563Y020395D01*
X035461Y02045D02*
X03551Y020417D01*
X03542Y020491D02*
X035461Y02045D01*
X035388Y020539D02*
X03542Y020491D01*
X035366Y020593D02*
X035388Y020539D01*
X035354Y02065D02*
X035366Y020593D01*
X035354Y02065D02*
Y020679D01*
Y020708D01*
X035366Y020765D01*
X035388Y020819D01*
X03542Y020867D01*
X035461Y020908D01*
X03551Y020941D01*
X035563Y020963D01*
X035621Y020974D01*
X035679D01*
X021888Y022992D02*
X022042Y022972D01*
X022191Y022932D01*
X022335Y022873D01*
X022469Y022795D01*
X022591Y022701D01*
X022701Y022591D01*
X022795Y022469D01*
X022873Y022335D01*
X022932Y022191D01*
X022972Y022042D01*
X022992Y021888D01*
Y021811D02*
Y021888D01*
Y021734D02*
Y021811D01*
X022972Y02158D02*
X022992Y021734D01*
X022932Y021431D02*
X022972Y02158D01*
X022873Y021288D02*
X022932Y021431D01*
X022795Y021153D02*
X022873Y021288D01*
X022701Y021031D02*
X022795Y021153D01*
X022591Y020921D02*
X022701Y021031D01*
X022469Y020827D02*
X022591Y020921D01*
X022335Y020749D02*
X022469Y020827D01*
X022191Y02069D02*
X022335Y020749D01*
X022042Y02065D02*
X022191Y02069D01*
X021888Y02063D02*
X022042Y02065D01*
X021734Y02063D02*
X021888D01*
X02158Y02065D02*
X021734Y02063D01*
X021431Y02069D02*
X02158Y02065D01*
X021288Y020749D02*
X021431Y02069D01*
X021153Y020827D02*
X021288Y020749D01*
X021031Y020921D02*
X021153Y020827D01*
X020921Y021031D02*
X021031Y020921D01*
X020827Y021153D02*
X020921Y021031D01*
X020749Y021288D02*
X020827Y021153D01*
X02069Y021431D02*
X020749Y021288D01*
X02065Y02158D02*
X02069Y021431D01*
X02063Y021734D02*
X02065Y02158D01*
X02063Y021734D02*
Y021811D01*
Y021888D01*
X02065Y022042D01*
X02069Y022191D01*
X020749Y022335D01*
X020827Y022469D01*
X020921Y022591D01*
X021031Y022701D01*
X021153Y022795D01*
X021288Y022873D01*
X021431Y022932D01*
X02158Y022972D01*
X021734Y022992D01*
X021888D01*
X035697Y023868D02*
X035783Y023832D01*
X03585Y023766D01*
X035886Y023679D01*
Y023632D02*
Y023679D01*
Y023585D02*
Y023632D01*
X03585Y023498D02*
X035886Y023585D01*
X035783Y023432D02*
X03585Y023498D01*
X035697Y023396D02*
X035783Y023432D01*
X035603Y023396D02*
X035697D01*
X035516Y023432D02*
X035603Y023396D01*
X035449Y023498D02*
X035516Y023432D01*
X035413Y023585D02*
X035449Y023498D01*
X035413Y023585D02*
Y023632D01*
Y023679D01*
X035449Y023766D01*
X035516Y023832D01*
X035603Y023868D01*
X035697D01*
X025385Y025669D02*
X025446Y025657D01*
X025504Y025633D01*
X025555Y025599D01*
X025599Y025555D01*
X025633Y025504D01*
X025657Y025446D01*
X025669Y025385D01*
Y025354D02*
Y025385D01*
Y025323D02*
Y025354D01*
X025657Y025262D02*
X025669Y025323D01*
X025633Y025205D02*
X025657Y025262D01*
X025599Y025154D02*
X025633Y025205D01*
X025555Y02511D02*
X025599Y025154D01*
X025504Y025075D02*
X025555Y02511D01*
X025446Y025051D02*
X025504Y025075D01*
X025385Y025039D02*
X025446Y025051D01*
X025323Y025039D02*
X025385D01*
X025262Y025051D02*
X025323Y025039D01*
X025205Y025075D02*
X025262Y025051D01*
X025154Y02511D02*
X025205Y025075D01*
X02511Y025154D02*
X025154Y02511D01*
X025075Y025205D02*
X02511Y025154D01*
X025051Y025262D02*
X025075Y025205D01*
X025039Y025323D02*
X025051Y025262D01*
X025039Y025323D02*
Y025354D01*
Y025385D01*
X025051Y025446D01*
X025075Y025504D01*
X02511Y025555D01*
X025154Y025599D01*
X025205Y025633D01*
X025262Y025657D01*
X025323Y025669D01*
X025385D01*
X011042Y033256D02*
X011157Y033234D01*
X011264Y033189D01*
X011361Y033124D01*
X011443Y033042D01*
X011508Y032945D01*
X011552Y032838D01*
X011575Y032724D01*
Y032666D02*
Y032724D01*
Y032608D02*
Y032666D01*
X011552Y032493D02*
X011575Y032608D01*
X011508Y032386D02*
X011552Y032493D01*
X011443Y032289D02*
X011508Y032386D01*
X011361Y032207D02*
X011443Y032289D01*
X011264Y032142D02*
X011361Y032207D01*
X011157Y032098D02*
X011264Y032142D01*
X011042Y032075D02*
X011157Y032098D01*
X010926Y032075D02*
X011042D01*
X010812Y032098D02*
X010926Y032075D01*
X010705Y032142D02*
X010812Y032098D01*
X010608Y032207D02*
X010705Y032142D01*
X010526Y032289D02*
X010608Y032207D01*
X010461Y032386D02*
X010526Y032289D01*
X010416Y032493D02*
X010461Y032386D01*
X010394Y032608D02*
X010416Y032493D01*
X010394Y032608D02*
Y032666D01*
Y032724D01*
X010416Y032838D01*
X010461Y032945D01*
X010526Y033042D01*
X010608Y033124D01*
X010705Y033189D01*
X010812Y033234D01*
X010926Y033256D01*
X011042D01*
X048424D02*
X048538Y033234D01*
X048645Y033189D01*
X048742Y033124D01*
X048824Y033042D01*
X048889Y032945D01*
X048934Y032838D01*
X048956Y032724D01*
Y032666D02*
Y032724D01*
Y032608D02*
Y032666D01*
X048934Y032493D02*
X048956Y032608D01*
X048889Y032386D02*
X048934Y032493D01*
X048824Y032289D02*
X048889Y032386D01*
X048742Y032207D02*
X048824Y032289D01*
X048645Y032142D02*
X048742Y032207D01*
X048538Y032098D02*
X048645Y032142D01*
X048424Y032075D02*
X048538Y032098D01*
X048308Y032075D02*
X048424D01*
X048193Y032098D02*
X048308Y032075D01*
X048086Y032142D02*
X048193Y032098D01*
X047989Y032207D02*
X048086Y032142D01*
X047907Y032289D02*
X047989Y032207D01*
X047842Y032386D02*
X047907Y032289D01*
X047798Y032493D02*
X047842Y032386D01*
X047775Y032608D02*
X047798Y032493D01*
X047775Y032608D02*
Y032666D01*
Y032724D01*
X047798Y032838D01*
X047842Y032945D01*
X047907Y033042D01*
X047989Y033124D01*
X048086Y033189D01*
X048193Y033234D01*
X048308Y033256D01*
X048424D01*
X04938Y0337D02*
X049398Y033693D01*
X009988Y0337D02*
X04938D01*
X009967Y03369D02*
X009988Y0337D01*
X009953Y033671D02*
X009967Y03369D01*
X009949Y033647D02*
X009953Y033671D01*
X009949Y033647D02*
X009952Y033636D01*
X009951Y033631D02*
X009952Y033636D01*
X00995Y033624D02*
X009951Y033631D01*
X00995Y01D02*
Y033624D01*
Y00999D02*
Y01D01*
Y00999D02*
X009957Y009972D01*
X009972Y009957D01*
X00999Y00995D01*
X04938D01*
X049398Y009957D01*
X049413Y009972D01*
X04942Y00999D01*
Y01D01*
X04942Y010005D02*
X04942Y01D01*
X049419Y010012D02*
X04942Y010005D01*
X049419Y010012D02*
X049419Y010019D01*
X04942Y010026D01*
X04942Y03365D02*
X04942Y010026D01*
X04942Y03365D02*
Y03366D01*
X049413Y033678D02*
X04942Y03366D01*
X049398Y033693D02*
X049413Y033678D01*
M02*
