G04*
G04 #@! TF.GenerationSoftware,Altium Limited,Altium Designer,19.1.7 (138)*
G04*
G04 Layer_Color=65535*
%FSTAX24Y24*%
%MOIN*%
G70*
G01*
G75*
%ADD10C,0.0070*%
%ADD11C,0.0100*%
%ADD12C,0.0071*%
%ADD13C,0.0157*%
%ADD14C,0.0118*%
%ADD15C,0.0138*%
%ADD16C,0.0197*%
%ADD17R,0.0591X0.0157*%
%ADD18R,0.0157X0.0591*%
%ADD19R,0.0217X0.0719*%
%ADD20R,0.0531X0.1033*%
G36*
X0406Y029259D02*
X042421D01*
X042323Y029436D01*
X042185Y029584D01*
X042028Y029711D01*
X04186Y02979D01*
X041782Y02983D01*
X041493Y029875D01*
X041398Y029859D01*
X04128Y02983D01*
X041073Y029761D01*
X040945Y029682D01*
X040827Y029584D01*
X040718Y029475D01*
X04063Y029347D01*
X0406Y029259D01*
D02*
G37*
D10*
X042506Y028849D02*
G03*
X042506Y028849I-001J0D01*
G01*
D11*
X046048Y011514D02*
G03*
X046048Y011514I-000492J0D01*
G01*
X042113D02*
G03*
X042113Y011514I-000492J0D01*
G01*
X042399Y015169D02*
G03*
X042399Y015169I-000097J0D01*
G01*
X031785Y026957D02*
G03*
X031785Y026957I-000492J0D01*
G01*
X043366Y026486D02*
Y030187D01*
X0494D01*
Y026486D02*
Y030187D01*
X043366Y026486D02*
X0494D01*
X036771Y026287D02*
X042676D01*
X036771Y01487D02*
Y026287D01*
X042676Y01487D02*
Y026287D01*
X036771Y01487D02*
X042676D01*
X030256Y015659D02*
Y017962D01*
Y015659D02*
X031545D01*
X030256Y017962D02*
X031545D01*
Y015659D02*
Y017962D01*
X014493Y016486D02*
X015163D01*
X014493Y015285D02*
Y016486D01*
X015163Y015285D02*
Y016486D01*
X014493Y015285D02*
X015163D01*
X014494Y017864D02*
X015164D01*
X014494Y016663D02*
Y017864D01*
X015164Y016663D02*
Y017864D01*
X014494Y016663D02*
X015164D01*
X01376Y028528D02*
Y029197D01*
Y028528D02*
X014961D01*
X01376Y029197D02*
X014961D01*
Y028528D02*
Y029197D01*
X012323Y028523D02*
Y029192D01*
Y028523D02*
X013524D01*
X012323Y029192D02*
X013524D01*
Y028523D02*
Y029192D01*
X037948Y026752D02*
X039976D01*
X037948D02*
Y027559D01*
X039976D01*
Y026752D02*
Y027559D01*
X035134Y026752D02*
X037162D01*
X035134D02*
Y027559D01*
X037162D01*
Y026752D02*
Y027559D01*
X011181Y012362D02*
Y014724D01*
X010394D02*
X011181D01*
X04255Y024185D02*
Y026185D01*
X024288Y028268D02*
X025863D01*
X03855Y026185D02*
X04255D01*
X030177Y018396D02*
X031752D01*
X024288Y029055D02*
X025863D01*
X010394Y012362D02*
X011181D01*
X025863Y028268D02*
Y029055D01*
X010394Y012362D02*
Y014724D01*
X024288Y028268D02*
Y029055D01*
X03855Y024185D02*
X04255D01*
X031752Y018396D02*
Y021545D01*
X030177Y018396D02*
Y021545D01*
X034967Y016423D02*
Y018017D01*
X011965Y032485D02*
X037975D01*
Y030485D02*
Y032485D01*
X015532Y014571D02*
X017106D01*
X037975Y030485D02*
X037975Y030485D01*
X010394Y028926D02*
X011181D01*
X011965Y030485D02*
Y032485D01*
X011965Y011165D02*
Y013165D01*
X017106Y014571D02*
Y015358D01*
X011965Y030485D02*
X011965Y030485D01*
X037975D01*
X013691Y025965D02*
X015266D01*
X011965Y011165D02*
X037974D01*
X037975Y011165D01*
X037974Y013165D02*
X037975Y013166D01*
X013691Y025965D02*
Y028346D01*
X015532Y015358D02*
X017106D01*
X013691Y028327D02*
X015266D01*
X011181Y028926D02*
Y031288D01*
X037975Y011165D02*
Y013166D01*
X010394Y031288D02*
X011181D01*
X015266Y025965D02*
Y028327D01*
X010394Y028926D02*
Y031288D01*
X034176Y014845D02*
X036542D01*
X0443Y03245D02*
X0473D01*
X038303Y03003D02*
X039878D01*
X0443Y03245D02*
Y03345D01*
X03855Y024185D02*
Y026185D01*
X034967Y018017D02*
X036542D01*
X038303Y028453D02*
X039878D01*
X0473Y03245D02*
Y03345D01*
X034173Y014848D02*
Y016417D01*
X0443Y03345D02*
X0473D01*
X038303Y028453D02*
Y03003D01*
X034173Y014848D02*
X034176Y014845D01*
X039878Y028453D02*
Y03003D01*
X015532Y014571D02*
Y015358D01*
X011965Y013165D02*
X037974D01*
X036542Y014845D02*
Y018017D01*
X034961Y016417D02*
X034967Y016423D01*
X030177Y021545D02*
X031752D01*
X034173Y016417D02*
X034961D01*
X03992Y030096D02*
Y033463D01*
Y030096D02*
X04248D01*
Y033463D01*
X03992D02*
X04248D01*
X043187Y030764D02*
X047813D01*
Y031836D01*
X043187Y030764D02*
Y031836D01*
X047813D01*
X042889Y02505D02*
X049385D01*
X042889Y020326D02*
X049385D01*
X042889D02*
Y02505D01*
X049385Y020326D02*
Y02505D01*
X042839Y0184D02*
X049335D01*
X042839Y013676D02*
X049335D01*
X042839D02*
Y0184D01*
X049335Y013676D02*
Y0184D01*
X033692Y026054D02*
X034361D01*
Y027255D01*
X033692Y026054D02*
Y027255D01*
X034361D01*
X032835Y027254D02*
X033504D01*
X032835Y026053D02*
Y027254D01*
X033504Y026053D02*
Y027254D01*
X032835Y026053D02*
X033504D01*
X0337Y027502D02*
X034369D01*
Y028703D01*
X0337Y027502D02*
Y028703D01*
X034369D01*
X032835Y027502D02*
X033504D01*
Y028703D01*
X032835Y027502D02*
Y028703D01*
X033504D01*
X010071Y020807D02*
X010396D01*
Y022844D01*
X010071D02*
X010396D01*
X010012Y015315D02*
Y028307D01*
Y015315D02*
X013536D01*
Y028307D01*
X010012D02*
X013536D01*
X040719Y027559D02*
X04247D01*
Y026752D02*
Y027559D01*
X040719Y026752D02*
Y027559D01*
Y026752D02*
X04247D01*
X032697Y018425D02*
X038601D01*
X032697D02*
Y025709D01*
X038601Y018425D02*
Y025709D01*
X032697D02*
X038601D01*
X039547Y030335D02*
Y031004D01*
X038346D02*
X039547D01*
X038346Y030335D02*
X039547D01*
X038346D02*
Y031004D01*
X03955Y031152D02*
Y031821D01*
X03835D02*
X03955D01*
X03835Y031152D02*
X03955D01*
X03835D02*
Y031821D01*
X039557Y031952D02*
Y032621D01*
X038356D02*
X039557D01*
X038356Y031952D02*
X039557D01*
X038356D02*
Y032621D01*
X03955Y032752D02*
Y033421D01*
X03835D02*
X03955D01*
X03835Y032752D02*
X03955D01*
X03835D02*
Y033421D01*
X043465Y032243D02*
X044135D01*
Y033444D01*
X043465Y032243D02*
Y033444D01*
X044135D01*
X042669Y03225D02*
X043339D01*
Y03345D01*
X042669Y03225D02*
Y03345D01*
X043339D01*
X0491Y012065D02*
Y012735D01*
X0479D02*
X0491D01*
X0479Y012065D02*
X0491D01*
X0479D02*
Y012735D01*
X043814Y010264D02*
X047288D01*
Y012764D01*
X043814D02*
X047288D01*
X043814Y010264D02*
Y012764D01*
X039878Y010264D02*
X043353D01*
Y012764D01*
X039878D02*
X043353D01*
X039878Y010264D02*
Y012764D01*
X039671Y012115D02*
Y012785D01*
X03847D02*
X039671D01*
X03847Y012115D02*
X039671D01*
X03847D02*
Y012785D01*
X039671Y011237D02*
Y011906D01*
X03847D02*
X039671D01*
X03847Y011237D02*
X039671D01*
X03847D02*
Y011906D01*
X04255Y013191D02*
Y015809D01*
X03855Y013191D02*
X04255D01*
X03855D02*
Y015809D01*
X04255D01*
X038265Y016306D02*
X038935D01*
Y017507D01*
X038265Y016306D02*
Y017507D01*
X038935D01*
X039281Y01754D02*
X041584D01*
X039281Y01625D02*
Y01754D01*
X041584Y01625D02*
Y01754D01*
X039281Y01625D02*
X041584D01*
X042557Y018715D02*
Y019385D01*
X041356D02*
X042557D01*
X041356Y018715D02*
X042557D01*
X041356D02*
Y019385D01*
X042544Y019615D02*
Y020285D01*
X041343D02*
X042544D01*
X041343Y019615D02*
X042544D01*
X041343D02*
Y020285D01*
X041107Y019615D02*
Y020285D01*
X039906D02*
X041107D01*
X039906Y019615D02*
X041107D01*
X039906D02*
Y020285D01*
X033481Y016501D02*
Y017171D01*
Y016501D02*
X034681D01*
X033481Y017171D02*
X034681D01*
Y016501D02*
Y017171D01*
X033481Y017289D02*
Y017958D01*
Y017289D02*
X034681D01*
X033481Y017958D02*
X034681D01*
Y017289D02*
Y017958D01*
X033287Y017293D02*
Y017963D01*
X032087D02*
X033287D01*
X032087Y017293D02*
X033287D01*
X032087D02*
Y017963D01*
X033287Y016506D02*
Y017175D01*
X032087D02*
X033287D01*
X032087Y016506D02*
X033287D01*
X032087D02*
Y017175D01*
X030118Y015715D02*
Y016385D01*
X028917D02*
X030118D01*
X028917Y015715D02*
X030118D01*
X028917D02*
Y016385D01*
X030118Y017243D02*
Y017912D01*
X028917D02*
X030118D01*
X028917Y017243D02*
X030118D01*
X028917D02*
Y017912D01*
X030103Y021978D02*
X030772D01*
Y023179D01*
X030103Y021978D02*
Y023179D01*
X030772D01*
X03188Y022526D02*
Y024848D01*
X03186Y022506D02*
X03188Y022526D01*
X031092D02*
Y024848D01*
X03188D01*
X031092Y022506D02*
X03186D01*
X031092D02*
Y022526D01*
X031762Y022221D02*
Y022496D01*
X031191Y022211D02*
Y022486D01*
X030098Y024764D02*
X030768D01*
X030098Y023563D02*
Y024764D01*
X030768Y023563D02*
Y024764D01*
X030098Y023563D02*
X030768D01*
X030043Y025224D02*
Y028699D01*
Y025224D02*
X032543D01*
Y028699D01*
X030043D02*
X032543D01*
X015532Y028091D02*
X028091D01*
X015532Y015532D02*
X028091D01*
Y028091D01*
X015532Y015532D02*
Y028091D01*
X011365Y014537D02*
X012035D01*
X011365Y013337D02*
Y014537D01*
X012035Y013337D02*
Y014537D01*
X011365Y013337D02*
X012035D01*
X017423Y014629D02*
Y015299D01*
Y014629D02*
X018623D01*
X017423Y015299D02*
X018623D01*
Y014629D02*
Y015299D01*
X014538Y025773D02*
X015207D01*
X014538Y024573D02*
Y025773D01*
X015207Y024573D02*
Y025773D01*
X014538Y024573D02*
X015207D01*
X011365Y029113D02*
X012035D01*
Y030313D01*
X011365Y029113D02*
Y030313D01*
X012035D01*
X041865Y017544D02*
X042535D01*
X041865Y016343D02*
Y017544D01*
X042535Y016343D02*
Y017544D01*
X041865Y016343D02*
X042535D01*
X039906Y018715D02*
Y019385D01*
Y018715D02*
X041107D01*
X039906Y019385D02*
X041107D01*
Y018715D02*
Y019385D01*
X039906Y017865D02*
Y018535D01*
Y017865D02*
X041107D01*
X039906Y018535D02*
X041107D01*
Y017865D02*
Y018535D01*
X041356Y017865D02*
Y018535D01*
Y017865D02*
X042557D01*
X041356Y018535D02*
X042557D01*
Y017865D02*
Y018535D01*
X041336Y021367D02*
Y022037D01*
Y021367D02*
X042537D01*
X041336Y022037D02*
X042537D01*
Y021367D02*
Y022037D01*
X041336Y020521D02*
Y02119D01*
Y020521D02*
X042537D01*
X041336Y02119D02*
X042537D01*
Y020521D02*
Y02119D01*
X024595Y033214D02*
X024647Y033266D01*
Y033371D01*
X024595Y033424D01*
X024385D01*
X024332Y033371D01*
Y033266D01*
X024385Y033214D01*
X02449D01*
Y033319D01*
X024332Y033109D02*
X024647D01*
X024332Y032899D01*
X024647D01*
Y032794D02*
X024332D01*
Y032636D01*
X024385Y032584D01*
X024595D01*
X024647Y032636D01*
Y032794D01*
X012693Y01072D02*
Y011061D01*
X012437D01*
X012522Y010891D01*
Y010805D01*
X012437Y01072D01*
X012266D01*
X012181Y010805D01*
Y010976D01*
X012266Y011061D01*
X012181Y010549D02*
Y010379D01*
Y010464D01*
X012693D01*
X012607Y010549D01*
X013692Y010719D02*
Y011061D01*
X013437D01*
X013522Y01089D01*
Y010805D01*
X013437Y010719D01*
X013266D01*
X013181Y010805D01*
Y010975D01*
X013266Y011061D01*
X013607Y010549D02*
X013692Y010464D01*
Y010293D01*
X013607Y010208D01*
X013522D01*
X013437Y010293D01*
Y010378D01*
Y010293D01*
X013351Y010208D01*
X013266D01*
X013181Y010293D01*
Y010464D01*
X013266Y010549D01*
X014692Y010714D02*
Y011055D01*
X014437D01*
X014522Y010885D01*
Y0108D01*
X014437Y010714D01*
X014266D01*
X014181Y0108D01*
Y01097D01*
X014266Y011055D01*
X014692Y010203D02*
Y010544D01*
X014437D01*
X014522Y010373D01*
Y010288D01*
X014437Y010203D01*
X014266D01*
X014181Y010288D01*
Y010459D01*
X014266Y010544D01*
X015692Y010719D02*
Y01106D01*
X015437D01*
X015522Y010889D01*
Y010804D01*
X015437Y010719D01*
X015266D01*
X015181Y010804D01*
Y010975D01*
X015266Y01106D01*
X015692Y010548D02*
Y010207D01*
X015607D01*
X015266Y010548D01*
X015181D01*
X016692Y010714D02*
Y011055D01*
X016437D01*
X016522Y010885D01*
Y0108D01*
X016437Y010714D01*
X016266D01*
X016181Y0108D01*
Y01097D01*
X016266Y011055D01*
Y010544D02*
X016181Y010459D01*
Y010288D01*
X016266Y010203D01*
X016607D01*
X016692Y010288D01*
Y010459D01*
X016607Y010544D01*
X016522D01*
X016437Y010459D01*
Y010203D01*
X017692Y010714D02*
X017607Y010885D01*
X017437Y011055D01*
X017266D01*
X017181Y01097D01*
Y0108D01*
X017266Y010714D01*
X017351D01*
X017437Y0108D01*
Y011055D01*
X017181Y010544D02*
Y010373D01*
Y010459D01*
X017692D01*
X017607Y010544D01*
X018692Y010714D02*
X018607Y010885D01*
X018437Y011055D01*
X018266D01*
X018181Y01097D01*
Y0108D01*
X018266Y010714D01*
X018351D01*
X018437Y0108D01*
Y011055D01*
X018607Y010544D02*
X018692Y010459D01*
Y010288D01*
X018607Y010203D01*
X018522D01*
X018437Y010288D01*
Y010373D01*
Y010288D01*
X018351Y010203D01*
X018266D01*
X018181Y010288D01*
Y010459D01*
X018266Y010544D01*
X019692Y010714D02*
X019607Y010884D01*
X019437Y011055D01*
X019266D01*
X019181Y01097D01*
Y010799D01*
X019266Y010714D01*
X019351D01*
X019437Y010799D01*
Y011055D01*
X019692Y010202D02*
Y010543D01*
X019437D01*
X019522Y010373D01*
Y010287D01*
X019437Y010202D01*
X019266D01*
X019181Y010287D01*
Y010458D01*
X019266Y010543D01*
X020692Y010719D02*
X020607Y010889D01*
X020437Y01106D01*
X020266D01*
X020181Y010975D01*
Y010804D01*
X020266Y010719D01*
X020351D01*
X020437Y010804D01*
Y01106D01*
X020692Y010548D02*
Y010207D01*
X020607D01*
X020266Y010548D01*
X020181D01*
X021692Y010718D02*
X021607Y010889D01*
X021437Y011059D01*
X021266D01*
X021181Y010974D01*
Y010804D01*
X021266Y010718D01*
X021351D01*
X021437Y010804D01*
Y011059D01*
X021266Y010548D02*
X021181Y010462D01*
Y010292D01*
X021266Y010207D01*
X021607D01*
X021692Y010292D01*
Y010462D01*
X021607Y010548D01*
X021522D01*
X021437Y010462D01*
Y010207D01*
X022696Y011059D02*
Y010718D01*
X022611D01*
X02227Y011059D01*
X022185D01*
Y010547D02*
Y010377D01*
Y010462D01*
X022696D01*
X022611Y010547D01*
X023692Y011055D02*
Y010714D01*
X023607D01*
X023266Y011055D01*
X023181D01*
X023607Y010543D02*
X023692Y010458D01*
Y010287D01*
X023607Y010202D01*
X023522D01*
X023437Y010287D01*
Y010373D01*
Y010287D01*
X023351Y010202D01*
X023266D01*
X023181Y010287D01*
Y010458D01*
X023266Y010543D01*
X024606Y01106D02*
X024396D01*
X024291Y010955D01*
X024396Y01085D01*
X024606D01*
X024554Y010535D02*
X024606Y010588D01*
Y010693D01*
X024554Y010745D01*
X024344D01*
X024291Y010693D01*
Y010588D01*
X024344Y010535D01*
X024554Y01022D02*
X024606Y010273D01*
Y010378D01*
X024554Y01043D01*
X024344D01*
X024291Y010378D01*
Y010273D01*
X024344Y01022D01*
X025597Y010833D02*
X025649Y010886D01*
Y010991D01*
X025597Y011043D01*
X025387D01*
X025335Y010991D01*
Y010886D01*
X025387Y010833D01*
X025492D01*
Y010938D01*
X025335Y010728D02*
X025649D01*
X025335Y010519D01*
X025649D01*
Y010414D02*
X025335D01*
Y010256D01*
X025387Y010204D01*
X025597D01*
X025649Y010256D01*
Y010414D01*
X026703Y011058D02*
Y010717D01*
X026617D01*
X026276Y011058D01*
X026191D01*
X026703Y010546D02*
Y010205D01*
X026617D01*
X026276Y010546D01*
X026191D01*
X027703Y011057D02*
Y010716D01*
X027617D01*
X027276Y011057D01*
X027191D01*
X027276Y010545D02*
X027191Y01046D01*
Y01029D01*
X027276Y010204D01*
X027617D01*
X027703Y01029D01*
Y01046D01*
X027617Y010545D01*
X027532D01*
X027447Y01046D01*
Y010204D01*
X028617Y011057D02*
X028703Y010971D01*
Y010801D01*
X028617Y010715D01*
X028532D01*
X028447Y010801D01*
X028362Y010715D01*
X028276D01*
X028191Y010801D01*
Y010971D01*
X028276Y011057D01*
X028362D01*
X028447Y010971D01*
X028532Y011057D01*
X028617D01*
X028447Y010971D02*
Y010801D01*
X028191Y010545D02*
Y010374D01*
Y01046D01*
X028703D01*
X028617Y010545D01*
X029617Y011054D02*
X029703Y010969D01*
Y010798D01*
X029617Y010713D01*
X029532D01*
X029447Y010798D01*
X029362Y010713D01*
X029276D01*
X029191Y010798D01*
Y010969D01*
X029276Y011054D01*
X029362D01*
X029447Y010969D01*
X029532Y011054D01*
X029617D01*
X029447Y010969D02*
Y010798D01*
X029617Y010543D02*
X029703Y010457D01*
Y010287D01*
X029617Y010202D01*
X029532D01*
X029447Y010287D01*
Y010372D01*
Y010287D01*
X029362Y010202D01*
X029276D01*
X029191Y010287D01*
Y010457D01*
X029276Y010543D01*
X030617Y011056D02*
X030703Y010971D01*
Y0108D01*
X030617Y010715D01*
X030532D01*
X030447Y0108D01*
X030362Y010715D01*
X030276D01*
X030191Y0108D01*
Y010971D01*
X030276Y011056D01*
X030362D01*
X030447Y010971D01*
X030532Y011056D01*
X030617D01*
X030447Y010971D02*
Y0108D01*
X030703Y010203D02*
Y010544D01*
X030447D01*
X030532Y010374D01*
Y010289D01*
X030447Y010203D01*
X030276D01*
X030191Y010289D01*
Y010459D01*
X030276Y010544D01*
X031617Y011055D02*
X031703Y01097D01*
Y0108D01*
X031617Y010714D01*
X031532D01*
X031447Y0108D01*
X031362Y010714D01*
X031276D01*
X031191Y0108D01*
Y01097D01*
X031276Y011055D01*
X031362D01*
X031447Y01097D01*
X031532Y011055D01*
X031617D01*
X031447Y01097D02*
Y0108D01*
X031703Y010544D02*
Y010203D01*
X031617D01*
X031276Y010544D01*
X031191D01*
X032617Y011055D02*
X032703Y01097D01*
Y010799D01*
X032617Y010714D01*
X032532D01*
X032447Y010799D01*
X032362Y010714D01*
X032276D01*
X032191Y010799D01*
Y01097D01*
X032276Y011055D01*
X032362D01*
X032447Y01097D01*
X032532Y011055D01*
X032617D01*
X032447Y01097D02*
Y010799D01*
X032276Y010543D02*
X032191Y010458D01*
Y010287D01*
X032276Y010202D01*
X032617D01*
X032703Y010287D01*
Y010458D01*
X032617Y010543D01*
X032532D01*
X032447Y010458D01*
Y010202D01*
X033282Y011054D02*
X033197Y010969D01*
Y010798D01*
X033282Y010713D01*
X033623D01*
X033709Y010798D01*
Y010969D01*
X033623Y011054D01*
X033538D01*
X033453Y010969D01*
Y010713D01*
X033197Y010543D02*
Y010372D01*
Y010457D01*
X033709D01*
X033623Y010543D01*
X034276Y011054D02*
X034191Y010969D01*
Y010798D01*
X034276Y010713D01*
X034617D01*
X034703Y010798D01*
Y010969D01*
X034617Y011054D01*
X034532D01*
X034447Y010969D01*
Y010713D01*
X034617Y010543D02*
X034703Y010457D01*
Y010287D01*
X034617Y010202D01*
X034532D01*
X034447Y010287D01*
Y010372D01*
Y010287D01*
X034362Y010202D01*
X034276D01*
X034191Y010287D01*
Y010457D01*
X034276Y010543D01*
X035276Y011054D02*
X035191Y010969D01*
Y010798D01*
X035276Y010713D01*
X035617D01*
X035703Y010798D01*
Y010969D01*
X035617Y011054D01*
X035532D01*
X035447Y010969D01*
Y010713D01*
X035703Y010202D02*
Y010543D01*
X035447D01*
X035532Y010372D01*
Y010287D01*
X035447Y010202D01*
X035276D01*
X035191Y010287D01*
Y010457D01*
X035276Y010543D01*
X036276Y011054D02*
X036191Y010969D01*
Y010798D01*
X036276Y010713D01*
X036617D01*
X036703Y010798D01*
Y010969D01*
X036617Y011054D01*
X036532D01*
X036447Y010969D01*
Y010713D01*
X036703Y010543D02*
Y010202D01*
X036617D01*
X036276Y010543D01*
X036191D01*
X037276Y011054D02*
X037191Y010968D01*
Y010798D01*
X037276Y010713D01*
X037617D01*
X037703Y010798D01*
Y010968D01*
X037617Y011054D01*
X037532D01*
X037447Y010968D01*
Y010713D01*
X037276Y010542D02*
X037191Y010457D01*
Y010286D01*
X037276Y010201D01*
X037617D01*
X037703Y010286D01*
Y010457D01*
X037617Y010542D01*
X037532D01*
X037447Y010457D01*
Y010201D01*
X012776Y013793D02*
Y014134D01*
X01252D01*
X012605Y013963D01*
Y013878D01*
X01252Y013793D01*
X012349D01*
X012264Y013878D01*
Y014049D01*
X012349Y014134D01*
X012264Y013281D02*
Y013622D01*
X012605Y013281D01*
X01269D01*
X012776Y013366D01*
Y013537D01*
X01269Y013622D01*
X013732Y013793D02*
Y014134D01*
X013476D01*
X013561Y013963D01*
Y013878D01*
X013476Y013793D01*
X013306D01*
X01322Y013878D01*
Y014049D01*
X013306Y014134D01*
X01322Y013366D02*
X013732D01*
X013476Y013622D01*
Y013281D01*
X014732Y013793D02*
Y014134D01*
X014476D01*
X014561Y013963D01*
Y013878D01*
X014476Y013793D01*
X014306D01*
X01422Y013878D01*
Y014049D01*
X014306Y014134D01*
X014732Y013281D02*
X014647Y013452D01*
X014476Y013622D01*
X014306D01*
X01422Y013537D01*
Y013366D01*
X014306Y013281D01*
X014391D01*
X014476Y013366D01*
Y013622D01*
X015732Y013793D02*
Y014134D01*
X015476D01*
X015561Y013963D01*
Y013878D01*
X015476Y013793D01*
X015306D01*
X01522Y013878D01*
Y014049D01*
X015306Y014134D01*
X015647Y013622D02*
X015732Y013537D01*
Y013366D01*
X015647Y013281D01*
X015561D01*
X015476Y013366D01*
X015391Y013281D01*
X015306D01*
X01522Y013366D01*
Y013537D01*
X015306Y013622D01*
X015391D01*
X015476Y013537D01*
X015561Y013622D01*
X015647D01*
X015476Y013537D02*
Y013366D01*
X016732Y013793D02*
X016647Y013963D01*
X016476Y014134D01*
X016306D01*
X01622Y014049D01*
Y013878D01*
X016306Y013793D01*
X016391D01*
X016476Y013878D01*
Y014134D01*
X016647Y013622D02*
X016732Y013537D01*
Y013366D01*
X016647Y013281D01*
X016306D01*
X01622Y013366D01*
Y013537D01*
X016306Y013622D01*
X016647D01*
X017732Y013793D02*
X017647Y013963D01*
X017476Y014134D01*
X017306D01*
X01722Y014049D01*
Y013878D01*
X017306Y013793D01*
X017391D01*
X017476Y013878D01*
Y014134D01*
X01722Y013281D02*
Y013622D01*
X017561Y013281D01*
X017647D01*
X017732Y013366D01*
Y013537D01*
X017647Y013622D01*
X018732Y013793D02*
X018647Y013963D01*
X018476Y014134D01*
X018306D01*
X01822Y014049D01*
Y013878D01*
X018306Y013793D01*
X018391D01*
X018476Y013878D01*
Y014134D01*
X01822Y013366D02*
X018732D01*
X018476Y013622D01*
Y013281D01*
X019732Y013793D02*
X019647Y013963D01*
X019476Y014134D01*
X019306D01*
X01922Y014049D01*
Y013878D01*
X019306Y013793D01*
X019391D01*
X019476Y013878D01*
Y014134D01*
X019732Y013281D02*
X019647Y013452D01*
X019476Y013622D01*
X019306D01*
X01922Y013537D01*
Y013366D01*
X019306Y013281D01*
X019391D01*
X019476Y013366D01*
Y013622D01*
X020732Y013793D02*
X020647Y013963D01*
X020476Y014134D01*
X020306D01*
X02022Y014049D01*
Y013878D01*
X020306Y013793D01*
X020391D01*
X020476Y013878D01*
Y014134D01*
X020647Y013622D02*
X020732Y013537D01*
Y013366D01*
X020647Y013281D01*
X020561D01*
X020476Y013366D01*
X020391Y013281D01*
X020306D01*
X02022Y013366D01*
Y013537D01*
X020306Y013622D01*
X020391D01*
X020476Y013537D01*
X020561Y013622D01*
X020647D01*
X020476Y013537D02*
Y013366D01*
X021732Y014134D02*
Y013793D01*
X021647D01*
X021306Y014134D01*
X02122D01*
X021647Y013622D02*
X021732Y013537D01*
Y013366D01*
X021647Y013281D01*
X021306D01*
X02122Y013366D01*
Y013537D01*
X021306Y013622D01*
X021647D01*
X022732Y014134D02*
Y013793D01*
X022647D01*
X022306Y014134D01*
X02222D01*
Y013281D02*
Y013622D01*
X022561Y013281D01*
X022647D01*
X022732Y013366D01*
Y013537D01*
X022647Y013622D01*
X023579Y013904D02*
X023632Y013957D01*
Y014062D01*
X023579Y014114D01*
X023369D01*
X023317Y014062D01*
Y013957D01*
X023369Y013904D01*
X023474D01*
Y014009D01*
X023317Y013799D02*
X023632D01*
X023317Y013589D01*
X023632D01*
Y013484D02*
X023317D01*
Y013327D01*
X023369Y013275D01*
X023579D01*
X023632Y013327D01*
Y013484D01*
X024606Y014134D02*
X024396D01*
X024291Y014029D01*
X024396Y013924D01*
X024606D01*
X024554Y013609D02*
X024606Y013662D01*
Y013767D01*
X024554Y013819D01*
X024344D01*
X024291Y013767D01*
Y013662D01*
X024344Y013609D01*
X024554Y013294D02*
X024606Y013347D01*
Y013452D01*
X024554Y013504D01*
X024344D01*
X024291Y013452D01*
Y013347D01*
X024344Y013294D01*
X025742Y014134D02*
Y013793D01*
X025657D01*
X025316Y014134D01*
X025231D01*
X025742Y013281D02*
X025657Y013452D01*
X025486Y013622D01*
X025316D01*
X025231Y013537D01*
Y013366D01*
X025316Y013281D01*
X025401D01*
X025486Y013366D01*
Y013622D01*
X026742Y014134D02*
Y013793D01*
X026657D01*
X026316Y014134D01*
X02623D01*
X026657Y013622D02*
X026742Y013537D01*
Y013366D01*
X026657Y013281D01*
X026572D01*
X026486Y013366D01*
X026401Y013281D01*
X026316D01*
X02623Y013366D01*
Y013537D01*
X026316Y013622D01*
X026401D01*
X026486Y013537D01*
X026572Y013622D01*
X026657D01*
X026486Y013537D02*
Y013366D01*
X027657Y014134D02*
X027742Y014049D01*
Y013878D01*
X027657Y013793D01*
X027572D01*
X027486Y013878D01*
X027401Y013793D01*
X027316D01*
X02723Y013878D01*
Y014049D01*
X027316Y014134D01*
X027401D01*
X027486Y014049D01*
X027572Y014134D01*
X027657D01*
X027486Y014049D02*
Y013878D01*
X027657Y013622D02*
X027742Y013537D01*
Y013366D01*
X027657Y013281D01*
X027316D01*
X02723Y013366D01*
Y013537D01*
X027316Y013622D01*
X027657D01*
X028657Y014134D02*
X028742Y014049D01*
Y013878D01*
X028657Y013793D01*
X028572D01*
X028486Y013878D01*
X028401Y013793D01*
X028316D01*
X02823Y013878D01*
Y014049D01*
X028316Y014134D01*
X028401D01*
X028486Y014049D01*
X028572Y014134D01*
X028657D01*
X028486Y014049D02*
Y013878D01*
X02823Y013281D02*
Y013622D01*
X028572Y013281D01*
X028657D01*
X028742Y013366D01*
Y013537D01*
X028657Y013622D01*
X029657Y014134D02*
X029742Y014049D01*
Y013878D01*
X029657Y013793D01*
X029572D01*
X029486Y013878D01*
X029401Y013793D01*
X029316D01*
X02923Y013878D01*
Y014049D01*
X029316Y014134D01*
X029401D01*
X029486Y014049D01*
X029572Y014134D01*
X029657D01*
X029486Y014049D02*
Y013878D01*
X02923Y013366D02*
X029742D01*
X029486Y013622D01*
Y013281D01*
X030657Y014134D02*
X030742Y014049D01*
Y013878D01*
X030657Y013793D01*
X030572D01*
X030486Y013878D01*
X030401Y013793D01*
X030316D01*
X03023Y013878D01*
Y014049D01*
X030316Y014134D01*
X030401D01*
X030486Y014049D01*
X030572Y014134D01*
X030657D01*
X030486Y014049D02*
Y013878D01*
X030742Y013281D02*
X030657Y013452D01*
X030486Y013622D01*
X030316D01*
X03023Y013537D01*
Y013366D01*
X030316Y013281D01*
X030401D01*
X030486Y013366D01*
Y013622D01*
X031657Y014134D02*
X031742Y014049D01*
Y013878D01*
X031657Y013793D01*
X031572D01*
X031486Y013878D01*
X031401Y013793D01*
X031316D01*
X03123Y013878D01*
Y014049D01*
X031316Y014134D01*
X031401D01*
X031486Y014049D01*
X031572Y014134D01*
X031657D01*
X031486Y014049D02*
Y013878D01*
X031657Y013622D02*
X031742Y013537D01*
Y013366D01*
X031657Y013281D01*
X031572D01*
X031486Y013366D01*
X031401Y013281D01*
X031316D01*
X03123Y013366D01*
Y013537D01*
X031316Y013622D01*
X031401D01*
X031486Y013537D01*
X031572Y013622D01*
X031657D01*
X031486Y013537D02*
Y013366D01*
X032316Y014134D02*
X03223Y014049D01*
Y013878D01*
X032316Y013793D01*
X032657D01*
X032742Y013878D01*
Y014049D01*
X032657Y014134D01*
X032572D01*
X032486Y014049D01*
Y013793D01*
X032657Y013622D02*
X032742Y013537D01*
Y013366D01*
X032657Y013281D01*
X032316D01*
X03223Y013366D01*
Y013537D01*
X032316Y013622D01*
X032657D01*
X033316Y014134D02*
X03323Y014049D01*
Y013878D01*
X033316Y013793D01*
X033657D01*
X033742Y013878D01*
Y014049D01*
X033657Y014134D01*
X033572D01*
X033486Y014049D01*
Y013793D01*
X03323Y013281D02*
Y013622D01*
X033572Y013281D01*
X033657D01*
X033742Y013366D01*
Y013537D01*
X033657Y013622D01*
X034316Y014134D02*
X03423Y014049D01*
Y013878D01*
X034316Y013793D01*
X034657D01*
X034742Y013878D01*
Y014049D01*
X034657Y014134D01*
X034572D01*
X034486Y014049D01*
Y013793D01*
X03423Y013366D02*
X034742D01*
X034486Y013622D01*
Y013281D01*
X035316Y014134D02*
X03523Y014049D01*
Y013878D01*
X035316Y013793D01*
X035657D01*
X035742Y013878D01*
Y014049D01*
X035657Y014134D01*
X035572D01*
X035486Y014049D01*
Y013793D01*
X035742Y013281D02*
X035657Y013452D01*
X035486Y013622D01*
X035316D01*
X03523Y013537D01*
Y013366D01*
X035316Y013281D01*
X035401D01*
X035486Y013366D01*
Y013622D01*
X036316Y014134D02*
X03623Y014049D01*
Y013878D01*
X036316Y013793D01*
X036657D01*
X036742Y013878D01*
Y014049D01*
X036657Y014134D01*
X036571D01*
X036486Y014049D01*
Y013793D01*
X036657Y013622D02*
X036742Y013537D01*
Y013366D01*
X036657Y013281D01*
X036571D01*
X036486Y013366D01*
X036401Y013281D01*
X036316D01*
X03623Y013366D01*
Y013537D01*
X036316Y013622D01*
X036401D01*
X036486Y013537D01*
X036571Y013622D01*
X036657D01*
X036486Y013537D02*
Y013366D01*
X037559Y014134D02*
X037349D01*
X037244Y014029D01*
X037349Y013924D01*
X037559D01*
X037506Y013609D02*
X037559Y013662D01*
Y013767D01*
X037506Y013819D01*
X037297D01*
X037244Y013767D01*
Y013662D01*
X037297Y013609D01*
X037506Y013294D02*
X037559Y013347D01*
Y013452D01*
X037506Y013504D01*
X037297D01*
X037244Y013452D01*
Y013347D01*
X037297Y013294D01*
X024212Y030076D02*
Y030417D01*
X024553Y030076D01*
X024639D01*
X024724Y030161D01*
Y030331D01*
X024639Y030417D01*
X024724Y029564D02*
X024639Y029735D01*
X024468Y029905D01*
X024298D01*
X024212Y02982D01*
Y029649D01*
X024298Y029564D01*
X024383D01*
X024468Y029649D01*
Y029905D01*
X012556Y030403D02*
X012346D01*
X012241Y030299D01*
X012346Y030194D01*
X012556D01*
X012504Y029879D02*
X012556Y029931D01*
Y030036D01*
X012504Y030089D01*
X012294D01*
X012241Y030036D01*
Y029931D01*
X012294Y029879D01*
X012504Y029564D02*
X012556Y029616D01*
Y029721D01*
X012504Y029774D01*
X012294D01*
X012241Y029721D01*
Y029616D01*
X012294Y029564D01*
X013241Y030148D02*
X013753D01*
X013497Y030403D01*
Y030062D01*
X013668Y029892D02*
X013753Y029807D01*
Y029636D01*
X013668Y029551D01*
X013582D01*
X013497Y029636D01*
X013412Y029551D01*
X013327D01*
X013241Y029636D01*
Y029807D01*
X013327Y029892D01*
X013412D01*
X013497Y029807D01*
X013582Y029892D01*
X013668D01*
X013497Y029807D02*
Y029636D01*
X014206Y030148D02*
X014717D01*
X014462Y030403D01*
Y030062D01*
X014717Y029551D02*
X014632Y029721D01*
X014462Y029892D01*
X014291D01*
X014206Y029807D01*
Y029636D01*
X014291Y029551D01*
X014376D01*
X014462Y029636D01*
Y029892D01*
X015241Y030148D02*
X015753D01*
X015497Y030403D01*
Y030062D01*
X015241Y029636D02*
X015753D01*
X015497Y029892D01*
Y029551D01*
X016241Y030148D02*
X016753D01*
X016497Y030403D01*
Y030062D01*
X016241Y029551D02*
Y029892D01*
X016582Y029551D01*
X016667D01*
X016753Y029636D01*
Y029807D01*
X016667Y029892D01*
X017241Y030147D02*
X017753D01*
X017497Y030403D01*
Y030062D01*
X017667Y029891D02*
X017753Y029806D01*
Y029635D01*
X017667Y02955D01*
X017326D01*
X017241Y029635D01*
Y029806D01*
X017326Y029891D01*
X017667D01*
X018668Y030403D02*
X018753Y030318D01*
Y030147D01*
X018668Y030062D01*
X018582D01*
X018497Y030147D01*
Y030232D01*
Y030147D01*
X018412Y030062D01*
X018326D01*
X018241Y030147D01*
Y030318D01*
X018326Y030403D01*
X018668Y029891D02*
X018753Y029806D01*
Y029635D01*
X018668Y02955D01*
X018582D01*
X018497Y029635D01*
X018412Y02955D01*
X018326D01*
X018241Y029635D01*
Y029806D01*
X018326Y029891D01*
X018412D01*
X018497Y029806D01*
X018582Y029891D01*
X018668D01*
X018497Y029806D02*
Y029635D01*
X019668Y030403D02*
X019753Y030318D01*
Y030147D01*
X019668Y030062D01*
X019582D01*
X019497Y030147D01*
Y030232D01*
Y030147D01*
X019412Y030062D01*
X019326D01*
X019241Y030147D01*
Y030318D01*
X019326Y030403D01*
X019753Y02955D02*
X019668Y029721D01*
X019497Y029891D01*
X019326D01*
X019241Y029806D01*
Y029635D01*
X019326Y02955D01*
X019412D01*
X019497Y029635D01*
Y029891D01*
X020636Y030403D02*
X020721Y030318D01*
Y030147D01*
X020636Y030062D01*
X020551D01*
X020465Y030147D01*
Y030232D01*
Y030147D01*
X02038Y030062D01*
X020295D01*
X02021Y030147D01*
Y030318D01*
X020295Y030403D01*
X02021Y029635D02*
X020721D01*
X020465Y029891D01*
Y02955D01*
X021667Y030403D02*
X021753Y030318D01*
Y030148D01*
X021667Y030062D01*
X021582D01*
X021497Y030148D01*
Y030233D01*
Y030148D01*
X021412Y030062D01*
X021326D01*
X021241Y030148D01*
Y030318D01*
X021326Y030403D01*
X021241Y029551D02*
Y029892D01*
X021582Y029551D01*
X021667D01*
X021753Y029636D01*
Y029807D01*
X021667Y029892D01*
X022672Y030403D02*
X022757Y030318D01*
Y030147D01*
X022672Y030062D01*
X022586D01*
X022501Y030147D01*
Y030232D01*
Y030147D01*
X022416Y030062D01*
X02233D01*
X022245Y030147D01*
Y030318D01*
X02233Y030403D01*
X022672Y029891D02*
X022757Y029806D01*
Y029635D01*
X022672Y02955D01*
X02233D01*
X022245Y029635D01*
Y029806D01*
X02233Y029891D01*
X022672D01*
X023556Y030403D02*
X023346D01*
X023241Y030298D01*
X023346Y030193D01*
X023556D01*
X023504Y029878D02*
X023556Y029931D01*
Y030036D01*
X023504Y030088D01*
X023294D01*
X023241Y030036D01*
Y029931D01*
X023294Y029878D01*
X023504Y029563D02*
X023556Y029616D01*
Y029721D01*
X023504Y029773D01*
X023294D01*
X023241Y029721D01*
Y029616D01*
X023294Y029563D01*
X02562Y030404D02*
X02541D01*
X025305Y030299D01*
X02541Y030194D01*
X02562D01*
X025568Y029879D02*
X02562Y029931D01*
Y030036D01*
X025568Y030089D01*
X025358D01*
X025305Y030036D01*
Y029931D01*
X025358Y029879D01*
X025568Y029564D02*
X02562Y029616D01*
Y029721D01*
X025568Y029774D01*
X025358D01*
X025305Y029721D01*
Y029616D01*
X025358Y029564D01*
X026251Y030062D02*
Y030403D01*
X026593Y030062D01*
X026678D01*
X026763Y030147D01*
Y030318D01*
X026678Y030403D01*
X026251Y029635D02*
X026763D01*
X026507Y029891D01*
Y02955D01*
X027251Y030061D02*
Y030402D01*
X027592Y030061D01*
X027678D01*
X027763Y030147D01*
Y030317D01*
X027678Y030402D01*
X027251Y02955D02*
Y029891D01*
X027592Y02955D01*
X027678D01*
X027763Y029635D01*
Y029805D01*
X027678Y029891D01*
X028251Y030061D02*
Y030402D01*
X028592Y030061D01*
X028678D01*
X028763Y030147D01*
Y030317D01*
X028678Y030402D01*
Y029891D02*
X028763Y029805D01*
Y029635D01*
X028678Y02955D01*
X028337D01*
X028251Y029635D01*
Y029805D01*
X028337Y029891D01*
X028678D01*
X029251Y030402D02*
Y030232D01*
Y030317D01*
X029763D01*
X029678Y030402D01*
Y029976D02*
X029763Y029891D01*
Y02972D01*
X029678Y029635D01*
X029592D01*
X029507Y02972D01*
X029422Y029635D01*
X029337D01*
X029251Y02972D01*
Y029891D01*
X029337Y029976D01*
X029422D01*
X029507Y029891D01*
X029592Y029976D01*
X029678D01*
X029507Y029891D02*
Y02972D01*
X030251Y030402D02*
Y030232D01*
Y030317D01*
X030763D01*
X030678Y030402D01*
X030763Y029635D02*
X030678Y029805D01*
X030507Y029976D01*
X030337D01*
X030251Y029891D01*
Y02972D01*
X030337Y029635D01*
X030422D01*
X030507Y02972D01*
Y029976D01*
X031251Y030402D02*
Y030232D01*
Y030317D01*
X031763D01*
X031678Y030402D01*
X031251Y02972D02*
X031763D01*
X031507Y029976D01*
Y029635D01*
X032155Y030402D02*
Y030232D01*
Y030317D01*
X032667D01*
X032582Y030402D01*
X032155Y029635D02*
Y029976D01*
X032496Y029635D01*
X032582D01*
X032667Y02972D01*
Y029891D01*
X032582Y029976D01*
X033223Y030402D02*
Y030232D01*
Y030317D01*
X033735D01*
X03365Y030402D01*
Y029976D02*
X033735Y029891D01*
Y02972D01*
X03365Y029635D01*
X033309D01*
X033223Y02972D01*
Y029891D01*
X033309Y029976D01*
X03365D01*
X034611Y030402D02*
X034696Y030317D01*
Y030147D01*
X034611Y030061D01*
X03427D01*
X034184Y030147D01*
Y030317D01*
X03427Y030402D01*
X034611D01*
Y029891D02*
X034696Y029805D01*
Y029635D01*
X034611Y02955D01*
X034526D01*
X03444Y029635D01*
X034355Y02955D01*
X03427D01*
X034184Y029635D01*
Y029805D01*
X03427Y029891D01*
X034355D01*
X03444Y029805D01*
X034526Y029891D01*
X034611D01*
X03444Y029805D02*
Y029635D01*
X035664Y030417D02*
X035749Y030332D01*
Y030161D01*
X035664Y030076D01*
X035323D01*
X035238Y030161D01*
Y030332D01*
X035323Y030417D01*
X035664D01*
X035749Y029565D02*
X035664Y029735D01*
X035493Y029906D01*
X035323D01*
X035238Y02982D01*
Y02965D01*
X035323Y029565D01*
X035408D01*
X035493Y02965D01*
Y029906D01*
X036617Y030402D02*
X036703Y030317D01*
Y030147D01*
X036617Y030061D01*
X036276D01*
X036191Y030147D01*
Y030317D01*
X036276Y030402D01*
X036617D01*
X036191Y029635D02*
X036703D01*
X036447Y029891D01*
Y02955D01*
X012264Y033169D02*
X012776D01*
X01252Y033425D01*
Y033084D01*
X012349Y032914D02*
X012264Y032828D01*
Y032658D01*
X012349Y032572D01*
X01269D01*
X012776Y032658D01*
Y032828D01*
X01269Y032914D01*
X012605D01*
X01252Y032828D01*
Y032572D01*
X013218Y033169D02*
X01373D01*
X013474Y033425D01*
Y033084D01*
X01373Y032914D02*
Y032572D01*
X013645D01*
X013304Y032914D01*
X013218D01*
X014252Y033169D02*
X014764D01*
X014508Y033425D01*
Y033084D01*
X014764Y032572D02*
Y032914D01*
X014508D01*
X014593Y032743D01*
Y032658D01*
X014508Y032572D01*
X014337D01*
X014252Y032658D01*
Y032828D01*
X014337Y032914D01*
X015207Y033169D02*
X015719D01*
X015463Y033425D01*
Y033084D01*
X015633Y032914D02*
X015719Y032828D01*
Y032658D01*
X015633Y032572D01*
X015548D01*
X015463Y032658D01*
Y032743D01*
Y032658D01*
X015378Y032572D01*
X015292D01*
X015207Y032658D01*
Y032828D01*
X015292Y032914D01*
X016181Y033165D02*
X016693D01*
X016437Y033421D01*
Y03308D01*
X016181Y032909D02*
Y032739D01*
Y032824D01*
X016693D01*
X016607Y032909D01*
X017611Y033421D02*
X017697Y033336D01*
Y033165D01*
X017611Y03308D01*
X017526D01*
X017441Y033165D01*
Y033251D01*
Y033165D01*
X017356Y03308D01*
X01727D01*
X017185Y033165D01*
Y033336D01*
X01727Y033421D01*
Y032909D02*
X017185Y032824D01*
Y032654D01*
X01727Y032568D01*
X017611D01*
X017697Y032654D01*
Y032824D01*
X017611Y032909D01*
X017526D01*
X017441Y032824D01*
Y032568D01*
X018635Y033421D02*
X01872Y033336D01*
Y033165D01*
X018635Y03308D01*
X01855D01*
X018464Y033165D01*
Y033251D01*
Y033165D01*
X018379Y03308D01*
X018294D01*
X018209Y033165D01*
Y033336D01*
X018294Y033421D01*
X01872Y032909D02*
Y032568D01*
X018635D01*
X018294Y032909D01*
X018209D01*
X019609Y033425D02*
X019695Y03334D01*
Y033169D01*
X019609Y033084D01*
X019524D01*
X019439Y033169D01*
Y033255D01*
Y033169D01*
X019354Y033084D01*
X019268D01*
X019183Y033169D01*
Y03334D01*
X019268Y033425D01*
X019695Y032572D02*
Y032914D01*
X019439D01*
X019524Y032743D01*
Y032658D01*
X019439Y032572D01*
X019268D01*
X019183Y032658D01*
Y032828D01*
X019268Y032914D01*
X020663Y033421D02*
X020748Y033336D01*
Y033165D01*
X020663Y03308D01*
X020577D01*
X020492Y033165D01*
Y033251D01*
Y033165D01*
X020407Y03308D01*
X020321D01*
X020236Y033165D01*
Y033336D01*
X020321Y033421D01*
X020663Y032909D02*
X020748Y032824D01*
Y032654D01*
X020663Y032568D01*
X020577D01*
X020492Y032654D01*
Y032739D01*
Y032654D01*
X020407Y032568D01*
X020321D01*
X020236Y032654D01*
Y032824D01*
X020321Y032909D01*
X021647Y033421D02*
X021732Y033336D01*
Y033165D01*
X021647Y03308D01*
X021562D01*
X021476Y033165D01*
Y033251D01*
Y033165D01*
X021391Y03308D01*
X021306D01*
X02122Y033165D01*
Y033336D01*
X021306Y033421D01*
X02122Y032909D02*
Y032739D01*
Y032824D01*
X021732D01*
X021647Y032909D01*
X022205Y03308D02*
Y033421D01*
X022546Y03308D01*
X022631D01*
X022716Y033165D01*
Y033336D01*
X022631Y033421D01*
X02229Y032909D02*
X022205Y032824D01*
Y032654D01*
X02229Y032568D01*
X022631D01*
X022716Y032654D01*
Y032824D01*
X022631Y032909D01*
X022546D01*
X022461Y032824D01*
Y032568D01*
X023189Y03308D02*
Y033421D01*
X02353Y03308D01*
X023615D01*
X023701Y033165D01*
Y033336D01*
X023615Y033421D01*
X023701Y032909D02*
Y032568D01*
X023615D01*
X023274Y032909D01*
X023189D01*
X025205Y033084D02*
Y033425D01*
X025546Y033084D01*
X025632D01*
X025717Y033169D01*
Y03334D01*
X025632Y033425D01*
X025717Y032572D02*
Y032914D01*
X025461D01*
X025546Y032743D01*
Y032658D01*
X025461Y032572D01*
X02529D01*
X025205Y032658D01*
Y032828D01*
X02529Y032914D01*
X02623Y033084D02*
Y033425D01*
X026571Y033084D01*
X026657D01*
X026742Y033169D01*
Y03334D01*
X026657Y033425D01*
Y032914D02*
X026742Y032828D01*
Y032658D01*
X026657Y032572D01*
X026571D01*
X026486Y032658D01*
Y032743D01*
Y032658D01*
X026401Y032572D01*
X026316D01*
X02623Y032658D01*
Y032828D01*
X026316Y032914D01*
X027185Y033084D02*
Y033425D01*
X027526Y033084D01*
X027611D01*
X027697Y033169D01*
Y03334D01*
X027611Y033425D01*
X027185Y032914D02*
Y032743D01*
Y032828D01*
X027697D01*
X027611Y032914D01*
X028199Y033425D02*
Y033255D01*
Y03334D01*
X02871D01*
X028625Y033425D01*
X028284Y032999D02*
X028199Y032914D01*
Y032743D01*
X028284Y032658D01*
X028625D01*
X02871Y032743D01*
Y032914D01*
X028625Y032999D01*
X02854D01*
X028455Y032914D01*
Y032658D01*
X029203Y033421D02*
Y033251D01*
Y033336D01*
X029714D01*
X029629Y033421D01*
X029714Y032995D02*
Y032654D01*
X029629D01*
X029288Y032995D01*
X029203D01*
X030266Y033421D02*
Y033251D01*
Y033336D01*
X030777D01*
X030692Y033421D01*
X030777Y032654D02*
Y032995D01*
X030522D01*
X030607Y032824D01*
Y032739D01*
X030522Y032654D01*
X030351D01*
X030266Y032739D01*
Y032909D01*
X030351Y032995D01*
X03124Y033425D02*
Y033255D01*
Y03334D01*
X031752D01*
X031667Y033425D01*
Y032999D02*
X031752Y032914D01*
Y032743D01*
X031667Y032658D01*
X031581D01*
X031496Y032743D01*
Y032828D01*
Y032743D01*
X031411Y032658D01*
X031325D01*
X03124Y032743D01*
Y032914D01*
X031325Y032999D01*
X032264Y033421D02*
Y033251D01*
Y033336D01*
X032775D01*
X03269Y033421D01*
X032264Y032995D02*
Y032824D01*
Y032909D01*
X032775D01*
X03269Y032995D01*
X033625Y033421D02*
X03371Y033336D01*
Y033165D01*
X033625Y03308D01*
X033284D01*
X033199Y033165D01*
Y033336D01*
X033284Y033421D01*
X033625D01*
X033284Y032909D02*
X033199Y032824D01*
Y032654D01*
X033284Y032568D01*
X033625D01*
X03371Y032654D01*
Y032824D01*
X033625Y032909D01*
X03354D01*
X033455Y032824D01*
Y032568D01*
X034639Y033425D02*
X034724Y03334D01*
Y033169D01*
X034639Y033084D01*
X034298D01*
X034213Y033169D01*
Y03334D01*
X034298Y033425D01*
X034639D01*
X034724Y032914D02*
Y032572D01*
X034639D01*
X034298Y032914D01*
X034213D01*
X035597Y033421D02*
X035682Y033336D01*
Y033165D01*
X035597Y03308D01*
X035256D01*
X035171Y033165D01*
Y033336D01*
X035256Y033421D01*
X035597D01*
X035682Y032568D02*
Y032909D01*
X035427D01*
X035512Y032739D01*
Y032654D01*
X035427Y032568D01*
X035256D01*
X035171Y032654D01*
Y032824D01*
X035256Y032909D01*
X036657Y033425D02*
X036742Y03334D01*
Y033169D01*
X036657Y033084D01*
X036316D01*
X03623Y033169D01*
Y03334D01*
X036316Y033425D01*
X036657D01*
Y032914D02*
X036742Y032828D01*
Y032658D01*
X036657Y032572D01*
X036571D01*
X036486Y032658D01*
Y032743D01*
Y032658D01*
X036401Y032572D01*
X036316D01*
X03623Y032658D01*
Y032828D01*
X036316Y032914D01*
X03767Y030402D02*
X037756Y030317D01*
Y030146D01*
X03767Y030061D01*
X037329D01*
X037244Y030146D01*
Y030317D01*
X037329Y030402D01*
X03767D01*
X037244Y029549D02*
Y02989D01*
X037585Y029549D01*
X03767D01*
X037756Y029634D01*
Y029805D01*
X03767Y02989D01*
Y033366D02*
X037756Y033281D01*
Y03311D01*
X03767Y033025D01*
X037329D01*
X037244Y03311D01*
Y033281D01*
X037329Y033366D01*
X03767D01*
X037244Y032854D02*
Y032684D01*
Y032769D01*
X037756D01*
X03767Y032854D01*
X043815Y031348D02*
X043615D01*
X043715D01*
Y030848D01*
X043615Y030748D01*
X043515D01*
X043415Y030848D01*
X044015Y031348D02*
X044414D01*
Y031248D01*
X044015Y030848D01*
Y030748D01*
X032147Y020138D02*
X032081Y020204D01*
Y020335D01*
X032147Y020401D01*
X032212D01*
X032278Y020335D01*
Y02027D01*
Y020335D01*
X032344Y020401D01*
X032409D01*
X032475Y020335D01*
Y020204D01*
X032409Y020138D01*
X032081Y020532D02*
X032344D01*
X032475Y020663D01*
X032344Y020794D01*
X032081D01*
X032278Y020926D02*
Y021188D01*
X032081Y021319D02*
X032475D01*
Y021516D01*
X032409Y021582D01*
X032344D01*
X032278Y021516D01*
Y021319D01*
Y021516D01*
X032212Y021582D01*
X032147D01*
X032081Y021516D01*
Y021319D01*
X032475Y021713D02*
X032212D01*
X032081Y021844D01*
X032212Y021975D01*
X032475D01*
X032278D01*
Y021713D01*
X032081Y022106D02*
Y022369D01*
Y022237D01*
X032475D01*
X032081Y0225D02*
Y022762D01*
Y022631D01*
X032475D01*
X032081Y023156D02*
Y022893D01*
X032475D01*
Y023156D01*
X032278Y022893D02*
Y023025D01*
X032475Y023287D02*
X032081D01*
Y023484D01*
X032147Y023549D01*
X032278D01*
X032344Y023484D01*
Y023287D01*
Y023418D02*
X032475Y023549D01*
X032081Y023681D02*
X032147D01*
X032278Y023812D01*
X032147Y023943D01*
X032081D01*
X032278Y023812D02*
X032475D01*
X009988Y0337D02*
X04938D01*
X011042Y011575D02*
X011157Y011552D01*
X011264Y011508D01*
X011361Y011443D01*
X011443Y011361D01*
X011508Y011264D01*
X011552Y011157D01*
X011575Y011042D01*
Y010984D02*
Y011042D01*
Y010926D02*
Y010984D01*
X011552Y010812D02*
X011575Y010926D01*
X011508Y010705D02*
X011552Y010812D01*
X011443Y010608D02*
X011508Y010705D01*
X011361Y010526D02*
X011443Y010608D01*
X011264Y010461D02*
X011361Y010526D01*
X011157Y010416D02*
X011264Y010461D01*
X011042Y010394D02*
X011157Y010416D01*
X010926Y010394D02*
X011042D01*
X010812Y010416D02*
X010926Y010394D01*
X010705Y010461D02*
X010812Y010416D01*
X010608Y010526D02*
X010705Y010461D01*
X010526Y010608D02*
X010608Y010526D01*
X010461Y010705D02*
X010526Y010608D01*
X010416Y010812D02*
X010461Y010705D01*
X010394Y010926D02*
X010416Y010812D01*
X010394Y010926D02*
Y010984D01*
Y011042D01*
X010416Y011157D01*
X010461Y011264D01*
X010526Y011361D01*
X010608Y011443D01*
X010705Y011508D01*
X010812Y011552D01*
X010926Y011575D01*
X011042D01*
X048424D02*
X048538Y011552D01*
X048645Y011508D01*
X048742Y011443D01*
X048824Y011361D01*
X048889Y011264D01*
X048934Y011157D01*
X048956Y011042D01*
Y010984D02*
Y011042D01*
Y010926D02*
Y010984D01*
X048934Y010812D02*
X048956Y010926D01*
X048889Y010705D02*
X048934Y010812D01*
X048824Y010608D02*
X048889Y010705D01*
X048742Y010526D02*
X048824Y010608D01*
X048645Y010461D02*
X048742Y010526D01*
X048538Y010416D02*
X048645Y010461D01*
X048424Y010394D02*
X048538Y010416D01*
X048308Y010394D02*
X048424D01*
X048193Y010416D02*
X048308Y010394D01*
X048086Y010461D02*
X048193Y010416D01*
X047989Y010526D02*
X048086Y010461D01*
X047907Y010608D02*
X047989Y010526D01*
X047842Y010705D02*
X047907Y010608D01*
X047798Y010812D02*
X047842Y010705D01*
X047775Y010926D02*
X047798Y010812D01*
X047775Y010926D02*
Y010984D01*
Y011042D01*
X047798Y011157D01*
X047842Y011264D01*
X047907Y011361D01*
X047989Y011443D01*
X048086Y011508D01*
X048193Y011552D01*
X048308Y011575D01*
X048424D01*
X018299Y018583D02*
X01836Y018571D01*
X018417Y018547D01*
X018468Y018512D01*
X018512Y018468D01*
X018547Y018417D01*
X018571Y01836D01*
X018583Y018299D01*
Y018268D02*
Y018299D01*
Y018237D02*
Y018268D01*
X018571Y018176D02*
X018583Y018237D01*
X018547Y018119D02*
X018571Y018176D01*
X018512Y018067D02*
X018547Y018119D01*
X018468Y018023D02*
X018512Y018067D01*
X018417Y017989D02*
X018468Y018023D01*
X01836Y017965D02*
X018417Y017989D01*
X018299Y017953D02*
X01836Y017965D01*
X018237Y017953D02*
X018299D01*
X018176Y017965D02*
X018237Y017953D01*
X018119Y017989D02*
X018176Y017965D01*
X018067Y018023D02*
X018119Y017989D01*
X018023Y018067D02*
X018067Y018023D01*
X017989Y018119D02*
X018023Y018067D01*
X017965Y018176D02*
X017989Y018119D01*
X017953Y018237D02*
X017965Y018176D01*
X017953Y018237D02*
Y018268D01*
Y018299D01*
X017965Y01836D01*
X017989Y018417D01*
X018023Y018468D01*
X018067Y018512D01*
X018119Y018547D01*
X018176Y018571D01*
X018237Y018583D01*
X018299D01*
X035679Y020974D02*
X035736Y020963D01*
X035789Y020941D01*
X035838Y020908D01*
X035879Y020867D01*
X035911Y020819D01*
X035934Y020765D01*
X035945Y020708D01*
Y020679D02*
Y020708D01*
Y02065D02*
Y020679D01*
X035934Y020593D02*
X035945Y02065D01*
X035911Y020539D02*
X035934Y020593D01*
X035879Y020491D02*
X035911Y020539D01*
X035838Y02045D02*
X035879Y020491D01*
X035789Y020417D02*
X035838Y02045D01*
X035736Y020395D02*
X035789Y020417D01*
X035679Y020384D02*
X035736Y020395D01*
X035621Y020384D02*
X035679D01*
X035563Y020395D02*
X035621Y020384D01*
X03551Y020417D02*
X035563Y020395D01*
X035461Y02045D02*
X03551Y020417D01*
X03542Y020491D02*
X035461Y02045D01*
X035388Y020539D02*
X03542Y020491D01*
X035366Y020593D02*
X035388Y020539D01*
X035354Y02065D02*
X035366Y020593D01*
X035354Y02065D02*
Y020679D01*
Y020708D01*
X035366Y020765D01*
X035388Y020819D01*
X03542Y020867D01*
X035461Y020908D01*
X03551Y020941D01*
X035563Y020963D01*
X035621Y020974D01*
X035679D01*
X021888Y022992D02*
X022042Y022972D01*
X022191Y022932D01*
X022335Y022873D01*
X022469Y022795D01*
X022591Y022701D01*
X022701Y022591D01*
X022795Y022469D01*
X022873Y022335D01*
X022932Y022191D01*
X022972Y022042D01*
X022992Y021888D01*
Y021811D02*
Y021888D01*
Y021734D02*
Y021811D01*
X022972Y02158D02*
X022992Y021734D01*
X022932Y021431D02*
X022972Y02158D01*
X022873Y021288D02*
X022932Y021431D01*
X022795Y021153D02*
X022873Y021288D01*
X022701Y021031D02*
X022795Y021153D01*
X022591Y020921D02*
X022701Y021031D01*
X022469Y020827D02*
X022591Y020921D01*
X022335Y020749D02*
X022469Y020827D01*
X022191Y02069D02*
X022335Y020749D01*
X022042Y02065D02*
X022191Y02069D01*
X021888Y02063D02*
X022042Y02065D01*
X021734Y02063D02*
X021888D01*
X02158Y02065D02*
X021734Y02063D01*
X021431Y02069D02*
X02158Y02065D01*
X021288Y020749D02*
X021431Y02069D01*
X021153Y020827D02*
X021288Y020749D01*
X021031Y020921D02*
X021153Y020827D01*
X020921Y021031D02*
X021031Y020921D01*
X020827Y021153D02*
X020921Y021031D01*
X020749Y021288D02*
X020827Y021153D01*
X02069Y021431D02*
X020749Y021288D01*
X02065Y02158D02*
X02069Y021431D01*
X02063Y021734D02*
X02065Y02158D01*
X02063Y021734D02*
Y021811D01*
Y021888D01*
X02065Y022042D01*
X02069Y022191D01*
X020749Y022335D01*
X020827Y022469D01*
X020921Y022591D01*
X021031Y022701D01*
X021153Y022795D01*
X021288Y022873D01*
X021431Y022932D01*
X02158Y022972D01*
X021734Y022992D01*
X021888D01*
X035697Y023868D02*
X035783Y023832D01*
X03585Y023766D01*
X035886Y023679D01*
Y023632D02*
Y023679D01*
Y023585D02*
Y023632D01*
X03585Y023498D02*
X035886Y023585D01*
X035783Y023432D02*
X03585Y023498D01*
X035697Y023396D02*
X035783Y023432D01*
X035603Y023396D02*
X035697D01*
X035516Y023432D02*
X035603Y023396D01*
X035449Y023498D02*
X035516Y023432D01*
X035413Y023585D02*
X035449Y023498D01*
X035413Y023585D02*
Y023632D01*
Y023679D01*
X035449Y023766D01*
X035516Y023832D01*
X035603Y023868D01*
X035697D01*
X025385Y025669D02*
X025446Y025657D01*
X025504Y025633D01*
X025555Y025599D01*
X025599Y025555D01*
X025633Y025504D01*
X025657Y025446D01*
X025669Y025385D01*
Y025354D02*
Y025385D01*
Y025323D02*
Y025354D01*
X025657Y025262D02*
X025669Y025323D01*
X025633Y025205D02*
X025657Y025262D01*
X025599Y025154D02*
X025633Y025205D01*
X025555Y02511D02*
X025599Y025154D01*
X025504Y025075D02*
X025555Y02511D01*
X025446Y025051D02*
X025504Y025075D01*
X025385Y025039D02*
X025446Y025051D01*
X025323Y025039D02*
X025385D01*
X025262Y025051D02*
X025323Y025039D01*
X025205Y025075D02*
X025262Y025051D01*
X025154Y02511D02*
X025205Y025075D01*
X02511Y025154D02*
X025154Y02511D01*
X025075Y025205D02*
X02511Y025154D01*
X025051Y025262D02*
X025075Y025205D01*
X025039Y025323D02*
X025051Y025262D01*
X025039Y025323D02*
Y025354D01*
Y025385D01*
X025051Y025446D01*
X025075Y025504D01*
X02511Y025555D01*
X025154Y025599D01*
X025205Y025633D01*
X025262Y025657D01*
X025323Y025669D01*
X025385D01*
X047885Y028789D02*
X047984Y02877D01*
X048077Y028731D01*
X048161Y028675D01*
X048232Y028604D01*
X048288Y02852D01*
X048327Y028427D01*
X048346Y028328D01*
Y028278D02*
Y028328D01*
Y028227D02*
Y028278D01*
X048327Y028128D02*
X048346Y028227D01*
X048288Y028035D02*
X048327Y028128D01*
X048232Y027951D02*
X048288Y028035D01*
X048161Y02788D02*
X048232Y027951D01*
X048077Y027824D02*
X048161Y02788D01*
X047984Y027785D02*
X048077Y027824D01*
X047885Y027766D02*
X047984Y027785D01*
X047784Y027766D02*
X047885D01*
X047685Y027785D02*
X047784Y027766D01*
X047592Y027824D02*
X047685Y027785D01*
X047508Y02788D02*
X047592Y027824D01*
X047437Y027951D02*
X047508Y02788D01*
X047381Y028035D02*
X047437Y027951D01*
X047343Y028128D02*
X047381Y028035D01*
X047323Y028227D02*
X047343Y028128D01*
X047323Y028227D02*
Y028278D01*
Y028328D01*
X047343Y028427D01*
X047381Y02852D01*
X047437Y028604D01*
X047508Y028675D01*
X047592Y028731D01*
X047685Y02877D01*
X047784Y028789D01*
X047885D01*
X011042Y033256D02*
X011157Y033234D01*
X011264Y033189D01*
X011361Y033124D01*
X011443Y033042D01*
X011508Y032945D01*
X011552Y032838D01*
X011575Y032724D01*
Y032666D02*
Y032724D01*
Y032608D02*
Y032666D01*
X011552Y032493D02*
X011575Y032608D01*
X011508Y032386D02*
X011552Y032493D01*
X011443Y032289D02*
X011508Y032386D01*
X011361Y032207D02*
X011443Y032289D01*
X011264Y032142D02*
X011361Y032207D01*
X011157Y032098D02*
X011264Y032142D01*
X011042Y032075D02*
X011157Y032098D01*
X010926Y032075D02*
X011042D01*
X010812Y032098D02*
X010926Y032075D01*
X010705Y032142D02*
X010812Y032098D01*
X010608Y032207D02*
X010705Y032142D01*
X010526Y032289D02*
X010608Y032207D01*
X010461Y032386D02*
X010526Y032289D01*
X010416Y032493D02*
X010461Y032386D01*
X010394Y032608D02*
X010416Y032493D01*
X010394Y032608D02*
Y032666D01*
Y032724D01*
X010416Y032838D01*
X010461Y032945D01*
X010526Y033042D01*
X010608Y033124D01*
X010705Y033189D01*
X010812Y033234D01*
X010926Y033256D01*
X011042D01*
X048424D02*
X048538Y033234D01*
X048645Y033189D01*
X048742Y033124D01*
X048824Y033042D01*
X048889Y032945D01*
X048934Y032838D01*
X048956Y032724D01*
Y032666D02*
Y032724D01*
Y032608D02*
Y032666D01*
X048934Y032493D02*
X048956Y032608D01*
X048889Y032386D02*
X048934Y032493D01*
X048824Y032289D02*
X048889Y032386D01*
X048742Y032207D02*
X048824Y032289D01*
X048645Y032142D02*
X048742Y032207D01*
X048538Y032098D02*
X048645Y032142D01*
X048424Y032075D02*
X048538Y032098D01*
X048308Y032075D02*
X048424D01*
X048193Y032098D02*
X048308Y032075D01*
X048086Y032142D02*
X048193Y032098D01*
X047989Y032207D02*
X048086Y032142D01*
X047907Y032289D02*
X047989Y032207D01*
X047842Y032386D02*
X047907Y032289D01*
X047798Y032493D02*
X047842Y032386D01*
X047775Y032608D02*
X047798Y032493D01*
X047775Y032608D02*
Y032666D01*
Y032724D01*
X047798Y032838D01*
X047842Y032945D01*
X047907Y033042D01*
X047989Y033124D01*
X048086Y033189D01*
X048193Y033234D01*
X048308Y033256D01*
X048424D01*
X04938Y0337D02*
X049398Y033693D01*
X009967Y03369D02*
X009988Y0337D01*
X009953Y033671D02*
X009967Y03369D01*
X009949Y033647D02*
X009953Y033671D01*
X009949Y033647D02*
X009952Y033636D01*
X009951Y033631D02*
X009952Y033636D01*
X00995Y033624D02*
X009951Y033631D01*
X00995Y01D02*
Y033624D01*
Y00999D02*
Y01D01*
Y00999D02*
X009957Y009972D01*
X009972Y009957D01*
X00999Y00995D01*
X04938D01*
X049398Y009957D01*
X049413Y009972D01*
X04942Y00999D01*
Y01D01*
X04942Y010005D02*
X04942Y01D01*
X049419Y010012D02*
X04942Y010005D01*
X049419Y010012D02*
X049419Y010019D01*
X04942Y010026D01*
X04942Y03365D02*
X04942Y010026D01*
X04942Y03365D02*
Y03366D01*
X049413Y033678D02*
X04942Y03366D01*
X049398Y033693D02*
X049413Y033678D01*
X011042Y011575D02*
X011157Y011552D01*
X011264Y011508D01*
X011361Y011443D01*
X011443Y011361D01*
X011508Y011264D01*
X011552Y011157D01*
X011575Y011042D01*
Y010984D02*
Y011042D01*
Y010926D02*
Y010984D01*
X011552Y010812D02*
X011575Y010926D01*
X011508Y010705D02*
X011552Y010812D01*
X011443Y010608D02*
X011508Y010705D01*
X011361Y010526D02*
X011443Y010608D01*
X011264Y010461D02*
X011361Y010526D01*
X011157Y010416D02*
X011264Y010461D01*
X011042Y010394D02*
X011157Y010416D01*
X010926Y010394D02*
X011042D01*
X010812Y010416D02*
X010926Y010394D01*
X010705Y010461D02*
X010812Y010416D01*
X010608Y010526D02*
X010705Y010461D01*
X010526Y010608D02*
X010608Y010526D01*
X010461Y010705D02*
X010526Y010608D01*
X010416Y010812D02*
X010461Y010705D01*
X010394Y010926D02*
X010416Y010812D01*
X010394Y010926D02*
Y010984D01*
Y011042D01*
X010416Y011157D01*
X010461Y011264D01*
X010526Y011361D01*
X010608Y011443D01*
X010705Y011508D01*
X010812Y011552D01*
X010926Y011575D01*
X011042D01*
X048424D02*
X048538Y011552D01*
X048645Y011508D01*
X048742Y011443D01*
X048824Y011361D01*
X048889Y011264D01*
X048934Y011157D01*
X048956Y011042D01*
Y010984D02*
Y011042D01*
Y010926D02*
Y010984D01*
X048934Y010812D02*
X048956Y010926D01*
X048889Y010705D02*
X048934Y010812D01*
X048824Y010608D02*
X048889Y010705D01*
X048742Y010526D02*
X048824Y010608D01*
X048645Y010461D02*
X048742Y010526D01*
X048538Y010416D02*
X048645Y010461D01*
X048424Y010394D02*
X048538Y010416D01*
X048308Y010394D02*
X048424D01*
X048193Y010416D02*
X048308Y010394D01*
X048086Y010461D02*
X048193Y010416D01*
X047989Y010526D02*
X048086Y010461D01*
X047907Y010608D02*
X047989Y010526D01*
X047842Y010705D02*
X047907Y010608D01*
X047798Y010812D02*
X047842Y010705D01*
X047775Y010926D02*
X047798Y010812D01*
X047775Y010926D02*
Y010984D01*
Y011042D01*
X047798Y011157D01*
X047842Y011264D01*
X047907Y011361D01*
X047989Y011443D01*
X048086Y011508D01*
X048193Y011552D01*
X048308Y011575D01*
X048424D01*
X018299Y018583D02*
X01836Y018571D01*
X018417Y018547D01*
X018468Y018512D01*
X018512Y018468D01*
X018547Y018417D01*
X018571Y01836D01*
X018583Y018299D01*
Y018268D02*
Y018299D01*
Y018237D02*
Y018268D01*
X018571Y018176D02*
X018583Y018237D01*
X018547Y018119D02*
X018571Y018176D01*
X018512Y018067D02*
X018547Y018119D01*
X018468Y018023D02*
X018512Y018067D01*
X018417Y017989D02*
X018468Y018023D01*
X01836Y017965D02*
X018417Y017989D01*
X018299Y017953D02*
X01836Y017965D01*
X018237Y017953D02*
X018299D01*
X018176Y017965D02*
X018237Y017953D01*
X018119Y017989D02*
X018176Y017965D01*
X018067Y018023D02*
X018119Y017989D01*
X018023Y018067D02*
X018067Y018023D01*
X017989Y018119D02*
X018023Y018067D01*
X017965Y018176D02*
X017989Y018119D01*
X017953Y018237D02*
X017965Y018176D01*
X017953Y018237D02*
Y018268D01*
Y018299D01*
X017965Y01836D01*
X017989Y018417D01*
X018023Y018468D01*
X018067Y018512D01*
X018119Y018547D01*
X018176Y018571D01*
X018237Y018583D01*
X018299D01*
X035679Y020974D02*
X035736Y020963D01*
X035789Y020941D01*
X035838Y020908D01*
X035879Y020867D01*
X035911Y020819D01*
X035934Y020765D01*
X035945Y020708D01*
Y020679D02*
Y020708D01*
Y02065D02*
Y020679D01*
X035934Y020593D02*
X035945Y02065D01*
X035911Y020539D02*
X035934Y020593D01*
X035879Y020491D02*
X035911Y020539D01*
X035838Y02045D02*
X035879Y020491D01*
X035789Y020417D02*
X035838Y02045D01*
X035736Y020395D02*
X035789Y020417D01*
X035679Y020384D02*
X035736Y020395D01*
X035621Y020384D02*
X035679D01*
X035563Y020395D02*
X035621Y020384D01*
X03551Y020417D02*
X035563Y020395D01*
X035461Y02045D02*
X03551Y020417D01*
X03542Y020491D02*
X035461Y02045D01*
X035388Y020539D02*
X03542Y020491D01*
X035366Y020593D02*
X035388Y020539D01*
X035354Y02065D02*
X035366Y020593D01*
X035354Y02065D02*
Y020679D01*
Y020708D01*
X035366Y020765D01*
X035388Y020819D01*
X03542Y020867D01*
X035461Y020908D01*
X03551Y020941D01*
X035563Y020963D01*
X035621Y020974D01*
X035679D01*
X021888Y022992D02*
X022042Y022972D01*
X022191Y022932D01*
X022335Y022873D01*
X022469Y022795D01*
X022591Y022701D01*
X022701Y022591D01*
X022795Y022469D01*
X022873Y022335D01*
X022932Y022191D01*
X022972Y022042D01*
X022992Y021888D01*
Y021811D02*
Y021888D01*
Y021734D02*
Y021811D01*
X022972Y02158D02*
X022992Y021734D01*
X022932Y021431D02*
X022972Y02158D01*
X022873Y021288D02*
X022932Y021431D01*
X022795Y021153D02*
X022873Y021288D01*
X022701Y021031D02*
X022795Y021153D01*
X022591Y020921D02*
X022701Y021031D01*
X022469Y020827D02*
X022591Y020921D01*
X022335Y020749D02*
X022469Y020827D01*
X022191Y02069D02*
X022335Y020749D01*
X022042Y02065D02*
X022191Y02069D01*
X021888Y02063D02*
X022042Y02065D01*
X021734Y02063D02*
X021888D01*
X02158Y02065D02*
X021734Y02063D01*
X021431Y02069D02*
X02158Y02065D01*
X021288Y020749D02*
X021431Y02069D01*
X021153Y020827D02*
X021288Y020749D01*
X021031Y020921D02*
X021153Y020827D01*
X020921Y021031D02*
X021031Y020921D01*
X020827Y021153D02*
X020921Y021031D01*
X020749Y021288D02*
X020827Y021153D01*
X02069Y021431D02*
X020749Y021288D01*
X02065Y02158D02*
X02069Y021431D01*
X02063Y021734D02*
X02065Y02158D01*
X02063Y021734D02*
Y021811D01*
Y021888D01*
X02065Y022042D01*
X02069Y022191D01*
X020749Y022335D01*
X020827Y022469D01*
X020921Y022591D01*
X021031Y022701D01*
X021153Y022795D01*
X021288Y022873D01*
X021431Y022932D01*
X02158Y022972D01*
X021734Y022992D01*
X021888D01*
X035697Y023868D02*
X035783Y023832D01*
X03585Y023766D01*
X035886Y023679D01*
Y023632D02*
Y023679D01*
Y023585D02*
Y023632D01*
X03585Y023498D02*
X035886Y023585D01*
X035783Y023432D02*
X03585Y023498D01*
X035697Y023396D02*
X035783Y023432D01*
X035603Y023396D02*
X035697D01*
X035516Y023432D02*
X035603Y023396D01*
X035449Y023498D02*
X035516Y023432D01*
X035413Y023585D02*
X035449Y023498D01*
X035413Y023585D02*
Y023632D01*
Y023679D01*
X035449Y023766D01*
X035516Y023832D01*
X035603Y023868D01*
X035697D01*
X025385Y025669D02*
X025446Y025657D01*
X025504Y025633D01*
X025555Y025599D01*
X025599Y025555D01*
X025633Y025504D01*
X025657Y025446D01*
X025669Y025385D01*
Y025354D02*
Y025385D01*
Y025323D02*
Y025354D01*
X025657Y025262D02*
X025669Y025323D01*
X025633Y025205D02*
X025657Y025262D01*
X025599Y025154D02*
X025633Y025205D01*
X025555Y02511D02*
X025599Y025154D01*
X025504Y025075D02*
X025555Y02511D01*
X025446Y025051D02*
X025504Y025075D01*
X025385Y025039D02*
X025446Y025051D01*
X025323Y025039D02*
X025385D01*
X025262Y025051D02*
X025323Y025039D01*
X025205Y025075D02*
X025262Y025051D01*
X025154Y02511D02*
X025205Y025075D01*
X02511Y025154D02*
X025154Y02511D01*
X025075Y025205D02*
X02511Y025154D01*
X025051Y025262D02*
X025075Y025205D01*
X025039Y025323D02*
X025051Y025262D01*
X025039Y025323D02*
Y025354D01*
Y025385D01*
X025051Y025446D01*
X025075Y025504D01*
X02511Y025555D01*
X025154Y025599D01*
X025205Y025633D01*
X025262Y025657D01*
X025323Y025669D01*
X025385D01*
X011042Y033256D02*
X011157Y033234D01*
X011264Y033189D01*
X011361Y033124D01*
X011443Y033042D01*
X011508Y032945D01*
X011552Y032838D01*
X011575Y032724D01*
Y032666D02*
Y032724D01*
Y032608D02*
Y032666D01*
X011552Y032493D02*
X011575Y032608D01*
X011508Y032386D02*
X011552Y032493D01*
X011443Y032289D02*
X011508Y032386D01*
X011361Y032207D02*
X011443Y032289D01*
X011264Y032142D02*
X011361Y032207D01*
X011157Y032098D02*
X011264Y032142D01*
X011042Y032075D02*
X011157Y032098D01*
X010926Y032075D02*
X011042D01*
X010812Y032098D02*
X010926Y032075D01*
X010705Y032142D02*
X010812Y032098D01*
X010608Y032207D02*
X010705Y032142D01*
X010526Y032289D02*
X010608Y032207D01*
X010461Y032386D02*
X010526Y032289D01*
X010416Y032493D02*
X010461Y032386D01*
X010394Y032608D02*
X010416Y032493D01*
X010394Y032608D02*
Y032666D01*
Y032724D01*
X010416Y032838D01*
X010461Y032945D01*
X010526Y033042D01*
X010608Y033124D01*
X010705Y033189D01*
X010812Y033234D01*
X010926Y033256D01*
X011042D01*
X048424D02*
X048538Y033234D01*
X048645Y033189D01*
X048742Y033124D01*
X048824Y033042D01*
X048889Y032945D01*
X048934Y032838D01*
X048956Y032724D01*
Y032666D02*
Y032724D01*
Y032608D02*
Y032666D01*
X048934Y032493D02*
X048956Y032608D01*
X048889Y032386D02*
X048934Y032493D01*
X048824Y032289D02*
X048889Y032386D01*
X048742Y032207D02*
X048824Y032289D01*
X048645Y032142D02*
X048742Y032207D01*
X048538Y032098D02*
X048645Y032142D01*
X048424Y032075D02*
X048538Y032098D01*
X048308Y032075D02*
X048424D01*
X048193Y032098D02*
X048308Y032075D01*
X048086Y032142D02*
X048193Y032098D01*
X047989Y032207D02*
X048086Y032142D01*
X047907Y032289D02*
X047989Y032207D01*
X047842Y032386D02*
X047907Y032289D01*
X047798Y032493D02*
X047842Y032386D01*
X047775Y032608D02*
X047798Y032493D01*
X047775Y032608D02*
Y032666D01*
Y032724D01*
X047798Y032838D01*
X047842Y032945D01*
X047907Y033042D01*
X047989Y033124D01*
X048086Y033189D01*
X048193Y033234D01*
X048308Y033256D01*
X048424D01*
X04938Y0337D02*
X049398Y033693D01*
X009988Y0337D02*
X04938D01*
X009967Y03369D02*
X009988Y0337D01*
X009953Y033671D02*
X009967Y03369D01*
X009949Y033647D02*
X009953Y033671D01*
X009949Y033647D02*
X009952Y033636D01*
X009951Y033631D02*
X009952Y033636D01*
X00995Y033624D02*
X009951Y033631D01*
X00995Y01D02*
Y033624D01*
Y00999D02*
Y01D01*
Y00999D02*
X009957Y009972D01*
X009972Y009957D01*
X00999Y00995D01*
X04938D01*
X049398Y009957D01*
X049413Y009972D01*
X04942Y00999D01*
Y01D01*
X04942Y010005D02*
X04942Y01D01*
X049419Y010012D02*
X04942Y010005D01*
X049419Y010012D02*
X049419Y010019D01*
X04942Y010026D01*
X04942Y03365D02*
X04942Y010026D01*
X04942Y03365D02*
Y03366D01*
X049413Y033678D02*
X04942Y03366D01*
X049398Y033693D02*
X049413Y033678D01*
D12*
X040718Y031739D02*
X040764Y031785D01*
X040856D01*
X040902Y031739D01*
Y031693D01*
X040856Y031647D01*
X04081D01*
X040856D01*
X040902Y031601D01*
Y031555D01*
X040856Y031509D01*
X040764D01*
X040718Y031555D01*
X040994Y031509D02*
Y031555D01*
X04104D01*
Y031509D01*
X040994D01*
X041224Y031739D02*
X04127Y031785D01*
X041361D01*
X041407Y031739D01*
Y031693D01*
X041361Y031647D01*
X041315D01*
X041361D01*
X041407Y031601D01*
Y031555D01*
X041361Y031509D01*
X04127D01*
X041224Y031555D01*
X041499Y031785D02*
Y031601D01*
X041591Y031509D01*
X041683Y031601D01*
Y031785D01*
X03876Y023986D02*
Y023757D01*
X038806Y023711D01*
X038898D01*
X038944Y023757D01*
Y023986D01*
X039173Y023711D02*
Y023986D01*
X039035Y023848D01*
X039219D01*
X015177Y028947D02*
Y029222D01*
X015315D01*
X015361Y029176D01*
Y029085D01*
X015315Y029039D01*
X015177D01*
X015269D02*
X015361Y028947D01*
X015453D02*
X015545D01*
X015499D01*
Y029222D01*
X015453Y029176D01*
X015866Y029222D02*
X015774Y029176D01*
X015682Y029085D01*
Y028993D01*
X015728Y028947D01*
X01582D01*
X015866Y028993D01*
Y029039D01*
X01582Y029085D01*
X015682D01*
X014367Y016973D02*
X014091D01*
Y01711D01*
X014137Y017156D01*
X014229D01*
X014275Y01711D01*
Y016973D01*
Y017064D02*
X014367Y017156D01*
Y017248D02*
Y01734D01*
Y017294D01*
X014091D01*
X014137Y017248D01*
X014091Y017661D02*
Y017478D01*
X014229D01*
X014183Y017569D01*
Y017615D01*
X014229Y017661D01*
X014321D01*
X014367Y017615D01*
Y017524D01*
X014321Y017478D01*
X015177Y028799D02*
Y028524D01*
X015315D01*
X015361Y02857D01*
Y028753D01*
X015315Y028799D01*
X015177D01*
X015453Y028524D02*
X015545D01*
X015499D01*
Y028799D01*
X015453Y028753D01*
X015866Y028524D02*
X015682D01*
X015866Y028707D01*
Y028753D01*
X01582Y028799D01*
X015728D01*
X015682Y028753D01*
X014091Y015591D02*
X014367D01*
Y015728D01*
X014321Y015774D01*
X014137D01*
X014091Y015728D01*
Y015591D01*
X014367Y015866D02*
Y015958D01*
Y015912D01*
X014091D01*
X014137Y015866D01*
X014367Y016096D02*
Y016187D01*
Y016142D01*
X014091D01*
X014137Y016096D01*
X037323Y026801D02*
X037598D01*
Y026939D01*
X037553Y026985D01*
X037369D01*
X037323Y026939D01*
Y026801D01*
X037598Y027077D02*
Y027169D01*
Y027123D01*
X037323D01*
X037369Y027077D01*
Y027306D02*
X037323Y027352D01*
Y027444D01*
X037369Y02749D01*
X037553D01*
X037598Y027444D01*
Y027352D01*
X037553Y027306D01*
X037369D01*
X040099Y026929D02*
X040374D01*
Y027067D01*
X040328Y027113D01*
X040144D01*
X040099Y027067D01*
Y026929D01*
X040328Y027205D02*
X040374Y027251D01*
Y027342D01*
X040328Y027388D01*
X040144D01*
X040099Y027342D01*
Y027251D01*
X040144Y027205D01*
X04019D01*
X040236Y027251D01*
Y027388D01*
X042605Y026955D02*
X042559Y026909D01*
Y026818D01*
X042605Y026772D01*
X042789D01*
X042835Y026818D01*
Y026909D01*
X042789Y026955D01*
X042835Y027047D02*
Y027139D01*
Y027093D01*
X042559D01*
X042605Y027047D01*
X042559Y02746D02*
X042605Y027369D01*
X042697Y027277D01*
X042789D01*
X042835Y027323D01*
Y027414D01*
X042789Y02746D01*
X042743D01*
X042697Y027414D01*
Y027277D01*
X042536Y028163D02*
X04249Y028209D01*
X042398D01*
X042352Y028163D01*
Y027979D01*
X042398Y027933D01*
X04249D01*
X042536Y027979D01*
X042628Y027933D02*
X04272D01*
X042674D01*
Y028209D01*
X042628Y028163D01*
X043041Y028209D02*
X042857D01*
Y028071D01*
X042949Y028117D01*
X042995D01*
X043041Y028071D01*
Y027979D01*
X042995Y027933D01*
X042903D01*
X042857Y027979D01*
X026127Y028878D02*
X026035D01*
X026081D01*
Y028649D01*
X026035Y028603D01*
X025989D01*
X025943Y028649D01*
X026403Y028603D02*
X026219D01*
X026403Y028787D01*
Y028832D01*
X026357Y028878D01*
X026265D01*
X026219Y028832D01*
X026632Y028603D02*
Y028878D01*
X026494Y028741D01*
X026678D01*
X014898Y015138D02*
X014806D01*
X014852D01*
Y014908D01*
X014806Y014862D01*
X01476D01*
X014715Y014908D01*
X015174Y014862D02*
X01499D01*
X015174Y015046D01*
Y015092D01*
X015128Y015138D01*
X015036D01*
X01499Y015092D01*
X015266D02*
X015311Y015138D01*
X015403D01*
X015449Y015092D01*
Y015046D01*
X015403Y015D01*
X015357D01*
X015403D01*
X015449Y014954D01*
Y014908D01*
X015403Y014862D01*
X015311D01*
X015266Y014908D01*
X019003Y015092D02*
X018957Y015138D01*
X018865D01*
X018819Y015092D01*
Y014908D01*
X018865Y014862D01*
X018957D01*
X019003Y014908D01*
X019094Y014862D02*
X019186D01*
X01914D01*
Y015138D01*
X019094Y015092D01*
X019462Y014862D02*
Y015138D01*
X019324Y015D01*
X019508D01*
X016306Y029232D02*
X016214D01*
X01626D01*
Y029003D01*
X016214Y028957D01*
X016168D01*
X016122Y029003D01*
X016581Y028957D02*
X016398D01*
X016581Y02914D01*
Y029186D01*
X016535Y029232D01*
X016443D01*
X016398Y029186D01*
X016857Y028957D02*
X016673D01*
X016857Y02914D01*
Y029186D01*
X016811Y029232D01*
X016719D01*
X016673Y029186D01*
X01419Y025046D02*
X014144Y025D01*
Y024908D01*
X01419Y024862D01*
X014373D01*
X014419Y024908D01*
Y025D01*
X014373Y025046D01*
X014419Y025138D02*
Y02523D01*
Y025184D01*
X014144D01*
X01419Y025138D01*
Y025367D02*
X014144Y025413D01*
Y025505D01*
X01419Y025551D01*
X014236D01*
X014282Y025505D01*
Y025459D01*
Y025505D01*
X014327Y025551D01*
X014373D01*
X014419Y025505D01*
Y025413D01*
X014373Y025367D01*
X016296Y028789D02*
X016204D01*
X01625D01*
Y02856D01*
X016204Y028514D01*
X016158D01*
X016112Y02856D01*
X016571Y028514D02*
X016388D01*
X016571Y028697D01*
Y028743D01*
X016525Y028789D01*
X016434D01*
X016388Y028743D01*
X016663D02*
X016709Y028789D01*
X016801D01*
X016847Y028743D01*
Y02856D01*
X016801Y028514D01*
X016709D01*
X016663Y02856D01*
Y028743D01*
X033819Y015262D02*
Y015171D01*
Y015216D01*
X034049D01*
X034094Y015171D01*
Y015125D01*
X034049Y015079D01*
X034094Y015538D02*
Y015354D01*
X033911Y015538D01*
X033865D01*
X033819Y015492D01*
Y0154D01*
X033865Y015354D01*
X034094Y01563D02*
Y015722D01*
Y015676D01*
X033819D01*
X033865Y01563D01*
X04001Y029465D02*
Y029373D01*
Y029419D01*
X04024D01*
X040285Y029373D01*
Y029327D01*
X04024Y029281D01*
X040285Y029557D02*
Y029649D01*
Y029603D01*
X04001D01*
X040056Y029557D01*
X04024Y029787D02*
X040285Y029832D01*
Y029924D01*
X04024Y02997D01*
X040056D01*
X04001Y029924D01*
Y029832D01*
X040056Y029787D01*
X040102D01*
X040148Y029832D01*
Y02997D01*
X04Y028541D02*
Y028449D01*
Y028495D01*
X04023D01*
X040276Y028449D01*
Y028403D01*
X04023Y028357D01*
X040276Y028633D02*
Y028725D01*
Y028679D01*
X04D01*
X040046Y028633D01*
Y028863D02*
X04Y028909D01*
Y029D01*
X040046Y029046D01*
X040092D01*
X040138Y029D01*
X040184Y029046D01*
X04023D01*
X040276Y029D01*
Y028909D01*
X04023Y028863D01*
X040184D01*
X040138Y028909D01*
X040092Y028863D01*
X040046D01*
X040138Y028909D02*
Y029D01*
X036867Y015758D02*
X036775D01*
X036821D01*
Y015528D01*
X036775Y015482D01*
X036729D01*
X036683Y015528D01*
X036959Y015482D02*
X03705D01*
X037004D01*
Y015758D01*
X036959Y015712D01*
X037188Y015758D02*
X037372D01*
Y015712D01*
X037188Y015528D01*
Y015482D01*
X03371Y028847D02*
Y029122D01*
X033848D01*
X033894Y029076D01*
Y028985D01*
X033848Y028939D01*
X03371D01*
X033802D02*
X033894Y028847D01*
X033986D02*
X034077D01*
X034031D01*
Y029122D01*
X033986Y029076D01*
X034353Y028847D02*
Y029122D01*
X034215Y028985D01*
X034399D01*
X032835Y028849D02*
Y029124D01*
X032972D01*
X033018Y029078D01*
Y028986D01*
X032972Y02894D01*
X032835D01*
X032927D02*
X033018Y028849D01*
X03311D02*
X033202D01*
X033156D01*
Y029124D01*
X03311Y029078D01*
X03334D02*
X033386Y029124D01*
X033478D01*
X033523Y029078D01*
Y029032D01*
X033478Y028986D01*
X033432D01*
X033478D01*
X033523Y02894D01*
Y028894D01*
X033478Y028849D01*
X033386D01*
X03334Y028894D01*
X034577Y026329D02*
Y026054D01*
X034715D01*
X03476Y0261D01*
Y026283D01*
X034715Y026329D01*
X034577D01*
X034852Y026283D02*
X034898Y026329D01*
X03499D01*
X035036Y026283D01*
Y026237D01*
X03499Y026192D01*
X035036Y026146D01*
Y0261D01*
X03499Y026054D01*
X034898D01*
X034852Y0261D01*
Y026146D01*
X034898Y026192D01*
X034852Y026237D01*
Y026283D01*
X034898Y026192D02*
X03499D01*
X034658Y027159D02*
X034612Y027205D01*
X034521D01*
X034475Y027159D01*
Y026976D01*
X034521Y02693D01*
X034612D01*
X034658Y026976D01*
X03475Y02693D02*
X034842D01*
X034796D01*
Y027205D01*
X03475Y027159D01*
X035163Y02693D02*
X03498D01*
X035163Y027113D01*
Y027159D01*
X035118Y027205D01*
X035026D01*
X03498Y027159D01*
X029529Y016987D02*
Y016941D01*
X029621Y016849D01*
X029712Y016941D01*
Y016987D01*
X029621Y016849D02*
Y016712D01*
X029804Y016941D02*
X02985Y016987D01*
X029942D01*
X029988Y016941D01*
Y016895D01*
X029942Y016849D01*
X029896D01*
X029942D01*
X029988Y016803D01*
Y016757D01*
X029942Y016712D01*
X02985D01*
X029804Y016757D01*
X029543Y018908D02*
X029452D01*
X029498D01*
Y018678D01*
X029452Y018632D01*
X029406D01*
X02936Y018678D01*
X029635Y018632D02*
X029727D01*
X029681D01*
Y018908D01*
X029635Y018862D01*
X030049Y018908D02*
X029957Y018862D01*
X029865Y01877D01*
Y018678D01*
X029911Y018632D01*
X030003D01*
X030049Y018678D01*
Y018724D01*
X030003Y01877D01*
X029865D01*
X029543Y019724D02*
X029452D01*
X029498D01*
Y019495D01*
X029452Y019449D01*
X029406D01*
X02936Y019495D01*
X029635Y019449D02*
X029727D01*
X029681D01*
Y019724D01*
X029635Y019678D01*
X030049Y019724D02*
X029865D01*
Y019587D01*
X029957Y019632D01*
X030003D01*
X030049Y019587D01*
Y019495D01*
X030003Y019449D01*
X029911D01*
X029865Y019495D01*
X02856Y01748D02*
X028514Y017434D01*
Y017342D01*
X02856Y017296D01*
X028743D01*
X028789Y017342D01*
Y017434D01*
X028743Y01748D01*
X028789Y017571D02*
Y017663D01*
Y017617D01*
X028514D01*
X02856Y017571D01*
X028789Y017801D02*
Y017893D01*
Y017847D01*
X028514D01*
X02856Y017801D01*
X02852Y015892D02*
X028475Y015846D01*
Y015755D01*
X02852Y015709D01*
X028704D01*
X02875Y015755D01*
Y015846D01*
X028704Y015892D01*
X02875Y015984D02*
Y016076D01*
Y01603D01*
X028475D01*
X02852Y015984D01*
Y016214D02*
X028475Y01626D01*
Y016351D01*
X02852Y016397D01*
X028704D01*
X02875Y016351D01*
Y01626D01*
X028704Y016214D01*
X02852D01*
X032078Y024785D02*
Y024739D01*
X032169Y024647D01*
X032261Y024739D01*
Y024785D01*
X032169Y024647D02*
Y024509D01*
X032537D02*
X032353D01*
X032537Y024693D01*
Y024739D01*
X032491Y024785D01*
X032399D01*
X032353Y024739D01*
X029543Y020512D02*
X029452D01*
X029498D01*
Y020282D01*
X029452Y020236D01*
X029406D01*
X02936Y020282D01*
X029635Y020236D02*
X029727D01*
X029681D01*
Y020512D01*
X029635Y020466D01*
X030003Y020236D02*
Y020512D01*
X029865Y020374D01*
X030049D01*
X029543Y021299D02*
X029452D01*
X029498D01*
Y02107D01*
X029452Y021024D01*
X029406D01*
X02936Y02107D01*
X029635Y021024D02*
X029727D01*
X029681D01*
Y021299D01*
X029635Y021253D01*
X029865D02*
X029911Y021299D01*
X030003D01*
X030049Y021253D01*
Y021207D01*
X030003Y021161D01*
X029957D01*
X030003D01*
X030049Y021115D01*
Y02107D01*
X030003Y021024D01*
X029911D01*
X029865Y02107D01*
X02975Y022634D02*
X029704Y022589D01*
Y022497D01*
X02975Y022451D01*
X029933D01*
X029979Y022497D01*
Y022589D01*
X029933Y022634D01*
Y022726D02*
X029979Y022772D01*
Y022864D01*
X029933Y02291D01*
X02975D01*
X029704Y022864D01*
Y022772D01*
X02975Y022726D01*
X029795D01*
X029841Y022772D01*
Y02291D01*
X030425Y025107D02*
X030379Y025153D01*
X030287D01*
X030241Y025107D01*
Y024923D01*
X030287Y024877D01*
X030379D01*
X030425Y024923D01*
X030516Y025107D02*
X030562Y025153D01*
X030654D01*
X0307Y025107D01*
Y025061D01*
X030654Y025015D01*
X0307Y024969D01*
Y024923D01*
X030654Y024877D01*
X030562D01*
X030516Y024923D01*
Y024969D01*
X030562Y025015D01*
X030516Y025061D01*
Y025107D01*
X030562Y025015D02*
X030654D01*
X011361Y0304D02*
Y030675D01*
X011498D01*
X011544Y03063D01*
Y030538D01*
X011498Y030492D01*
X011361D01*
X011453D02*
X011544Y0304D01*
X011636D02*
X011728D01*
X011682D01*
Y030675D01*
X011636Y03063D01*
X012049Y0304D02*
X011866D01*
X012049Y030584D01*
Y03063D01*
X012004Y030675D01*
X011912D01*
X011866Y03063D01*
X011779Y012567D02*
X011503D01*
Y012705D01*
X011549Y012751D01*
X011641D01*
X011687Y012705D01*
Y012567D01*
Y012659D02*
X011779Y012751D01*
Y012843D02*
Y012935D01*
Y012889D01*
X011503D01*
X011549Y012843D01*
X011779Y013073D02*
Y013164D01*
Y013118D01*
X011503D01*
X011549Y013073D01*
X010394Y028809D02*
Y028533D01*
X010531D01*
X010577Y028579D01*
Y028625D01*
X010531Y028671D01*
X010394D01*
X010531D01*
X010577Y028717D01*
Y028763D01*
X010531Y028809D01*
X010394D01*
X010807D02*
X010715D01*
X010669Y028763D01*
Y028579D01*
X010715Y028533D01*
X010807D01*
X010853Y028579D01*
Y028763D01*
X010807Y028809D01*
X011082D02*
X010991D01*
X010945Y028763D01*
Y028579D01*
X010991Y028533D01*
X011082D01*
X011128Y028579D01*
Y028763D01*
X011082Y028809D01*
X01122D02*
X011404D01*
X011312D01*
Y028533D01*
X011496D02*
X011588D01*
X011542D01*
Y028809D01*
X011496Y028763D01*
X010394Y015148D02*
Y014872D01*
X010531D01*
X010577Y014918D01*
Y014964D01*
X010531Y01501D01*
X010394D01*
X010531D01*
X010577Y015056D01*
Y015102D01*
X010531Y015148D01*
X010394D01*
X010807D02*
X010715D01*
X010669Y015102D01*
Y014918D01*
X010715Y014872D01*
X010807D01*
X010853Y014918D01*
Y015102D01*
X010807Y015148D01*
X011082D02*
X010991D01*
X010945Y015102D01*
Y014918D01*
X010991Y014872D01*
X011082D01*
X011128Y014918D01*
Y015102D01*
X011082Y015148D01*
X01122D02*
X011404D01*
X011312D01*
Y014872D01*
X011496Y015102D02*
X011542Y015148D01*
X011633D01*
X011679Y015102D01*
Y014918D01*
X011633Y014872D01*
X011542D01*
X011496Y014918D01*
Y015102D01*
X036886Y017372D02*
X036795D01*
X036841D01*
Y017142D01*
X036795Y017096D01*
X036749D01*
X036703Y017142D01*
X036978Y017096D02*
X03707D01*
X037024D01*
Y017372D01*
X036978Y017326D01*
X037208D02*
X037254Y017372D01*
X037346D01*
X037392Y017326D01*
Y017142D01*
X037346Y017096D01*
X037254D01*
X037208Y017142D01*
Y017326D01*
X042783Y013104D02*
X042737Y01315D01*
X042645D01*
X042599Y013104D01*
Y013058D01*
X042645Y013012D01*
X042737D01*
X042783Y012966D01*
Y01292D01*
X042737Y012874D01*
X042645D01*
X042599Y01292D01*
X042875Y01315D02*
Y012874D01*
X042966Y012966D01*
X043058Y012874D01*
Y01315D01*
X043334Y012874D02*
X04315D01*
X043334Y013058D01*
Y013104D01*
X043288Y01315D01*
X043196D01*
X04315Y013104D01*
X046827Y013133D02*
X046781Y013179D01*
X04669D01*
X046644Y013133D01*
Y013087D01*
X04669Y013041D01*
X046781D01*
X046827Y012995D01*
Y012949D01*
X046781Y012904D01*
X04669D01*
X046644Y012949D01*
X046919Y013179D02*
Y012904D01*
X047011Y012995D01*
X047103Y012904D01*
Y013179D01*
X047195Y012904D02*
X047287D01*
X047241D01*
Y013179D01*
X047195Y013133D01*
X033475Y016102D02*
Y016378D01*
X033613D01*
X033658Y016332D01*
Y01624D01*
X033613Y016194D01*
X033475D01*
X033567D02*
X033658Y016102D01*
X03375D02*
X033842D01*
X033796D01*
Y016378D01*
X03375Y016332D01*
X03398D02*
X034026Y016378D01*
X034118D01*
X034164Y016332D01*
Y016148D01*
X034118Y016102D01*
X034026D01*
X03398Y016148D01*
Y016332D01*
X038356Y011361D02*
X038081D01*
Y011498D01*
X038127Y011544D01*
X038219D01*
X038264Y011498D01*
Y011361D01*
Y011453D02*
X038356Y011544D01*
X03831Y011636D02*
X038356Y011682D01*
Y011774D01*
X03831Y01182D01*
X038127D01*
X038081Y011774D01*
Y011682D01*
X038127Y011636D01*
X038173D01*
X038219Y011682D01*
Y01182D01*
X038346Y012215D02*
X038071D01*
Y012352D01*
X038117Y012398D01*
X038209D01*
X038255Y012352D01*
Y012215D01*
Y012306D02*
X038346Y012398D01*
X038117Y01249D02*
X038071Y012536D01*
Y012628D01*
X038117Y012674D01*
X038163D01*
X038209Y012628D01*
X038255Y012674D01*
X038301D01*
X038346Y012628D01*
Y012536D01*
X038301Y01249D01*
X038255D01*
X038209Y012536D01*
X038163Y01249D01*
X038117D01*
X038209Y012536D02*
Y012628D01*
X033878Y01809D02*
Y018366D01*
X034016D01*
X034062Y01832D01*
Y018228D01*
X034016Y018182D01*
X033878D01*
X03397D02*
X034062Y01809D01*
X034153Y018366D02*
X034337D01*
Y01832D01*
X034153Y018136D01*
Y01809D01*
X032475Y016378D02*
Y016102D01*
X032613D01*
X032658Y016148D01*
Y016332D01*
X032613Y016378D01*
X032475D01*
X03275D02*
X032934D01*
Y016332D01*
X03275Y016148D01*
Y016102D01*
X032475Y018423D02*
Y018147D01*
X032613D01*
X032658Y018193D01*
Y018377D01*
X032613Y018423D01*
X032475D01*
X032934D02*
X032842Y018377D01*
X03275Y018285D01*
Y018193D01*
X032796Y018147D01*
X032888D01*
X032934Y018193D01*
Y018239D01*
X032888Y018285D01*
X03275D01*
X040231Y017027D02*
Y016982D01*
X040323Y01689D01*
X040414Y016982D01*
Y017027D01*
X040323Y01689D02*
Y016752D01*
X040506D02*
X040598D01*
X040552D01*
Y017027D01*
X040506Y016982D01*
X037933Y015443D02*
Y015213D01*
X037979Y015167D01*
X038071D01*
X038117Y015213D01*
Y015443D01*
X038209Y015397D02*
X038254Y015443D01*
X038346D01*
X038392Y015397D01*
Y015351D01*
X038346Y015305D01*
X0383D01*
X038346D01*
X038392Y015259D01*
Y015213D01*
X038346Y015167D01*
X038254D01*
X038209Y015213D01*
X04138Y01886D02*
Y019136D01*
X041518D01*
X041564Y01909D01*
Y018998D01*
X041518Y018952D01*
X04138D01*
X041472D02*
X041564Y01886D01*
X041793D02*
Y019136D01*
X041656Y018998D01*
X041839D01*
X039484Y020138D02*
X039759D01*
Y020001D01*
X039714Y019955D01*
X039622D01*
X039576Y020001D01*
Y020138D01*
Y020047D02*
X039484Y019955D01*
X039759Y019679D02*
X039714Y019771D01*
X039622Y019863D01*
X03953D01*
X039484Y019817D01*
Y019725D01*
X03953Y019679D01*
X039576D01*
X039622Y019725D01*
Y019863D01*
X042815Y018829D02*
Y019104D01*
X042953D01*
X042999Y019058D01*
Y018966D01*
X042953Y018921D01*
X042815D01*
X042907D02*
X042999Y018829D01*
X043274Y019104D02*
X04309D01*
Y018966D01*
X043182Y019012D01*
X043228D01*
X043274Y018966D01*
Y018875D01*
X043228Y018829D01*
X043136D01*
X04309Y018875D01*
X039759Y018425D02*
X039484D01*
Y018287D01*
X03953Y018242D01*
X039714D01*
X039759Y018287D01*
Y018425D01*
X039484Y018012D02*
X039759D01*
X039622Y01815D01*
Y017966D01*
X042854Y020108D02*
Y019833D01*
X042992D01*
X043038Y019879D01*
Y020062D01*
X042992Y020108D01*
X042854D01*
X04313Y020062D02*
X043176Y020108D01*
X043268D01*
X043313Y020062D01*
Y020016D01*
X043268Y01997D01*
X043222D01*
X043268D01*
X043313Y019925D01*
Y019879D01*
X043268Y019833D01*
X043176D01*
X04313Y019879D01*
X039759Y019311D02*
X039484D01*
Y019173D01*
X03953Y019127D01*
X039714D01*
X039759Y019173D01*
Y019311D01*
Y018852D02*
Y019036D01*
X039622D01*
X039668Y018944D01*
Y018898D01*
X039622Y018852D01*
X03953D01*
X039484Y018898D01*
Y01899D01*
X03953Y019036D01*
X042113Y016194D02*
X042067Y01624D01*
X041975D01*
X041929Y016194D01*
Y01601D01*
X041975Y015965D01*
X042067D01*
X042113Y01601D01*
X042388Y01624D02*
X042296Y016194D01*
X042205Y016102D01*
Y01601D01*
X042251Y015965D01*
X042342D01*
X042388Y01601D01*
Y016056D01*
X042342Y016102D01*
X042205D01*
X038609Y017828D02*
X038563Y017874D01*
X038471D01*
X038425Y017828D01*
Y017644D01*
X038471Y017598D01*
X038563D01*
X038609Y017644D01*
X038701Y017874D02*
X038884D01*
Y017828D01*
X038701Y017644D01*
Y017598D01*
X048402Y013045D02*
X048356Y01309D01*
X048264D01*
X048218Y013045D01*
Y012861D01*
X048264Y012815D01*
X048356D01*
X048402Y012861D01*
X048678Y01309D02*
X048494D01*
Y012953D01*
X048586Y012999D01*
X048632D01*
X048678Y012953D01*
Y012861D01*
X048632Y012815D01*
X04854D01*
X048494Y012861D01*
X041693Y021575D02*
Y02185D01*
X041831D01*
X041877Y021804D01*
Y021713D01*
X041831Y021667D01*
X041693D01*
X041785D02*
X041877Y021575D01*
X041968Y021804D02*
X042014Y02185D01*
X042106D01*
X042152Y021804D01*
Y021758D01*
X042106Y021713D01*
X04206D01*
X042106D01*
X042152Y021667D01*
Y021621D01*
X042106Y021575D01*
X042014D01*
X041968Y021621D01*
X041708Y020737D02*
Y021012D01*
X041846D01*
X041892Y020966D01*
Y020874D01*
X041846Y020829D01*
X041708D01*
X0418D02*
X041892Y020737D01*
X042167D02*
X041983D01*
X042167Y02092D01*
Y020966D01*
X042121Y021012D01*
X042029D01*
X041983Y020966D01*
X040394Y032018D02*
Y032201D01*
X040486Y032293D01*
X040577Y032201D01*
Y032018D01*
Y032155D01*
X040394D01*
X040669Y032018D02*
Y032293D01*
X040761Y032201D01*
X040853Y032293D01*
Y032018D01*
X041128Y032247D02*
X041082Y032293D01*
X040991D01*
X040945Y032247D01*
Y032201D01*
X040991Y032155D01*
X041082D01*
X041128Y03211D01*
Y032064D01*
X041082Y032018D01*
X040991D01*
X040945Y032064D01*
X04122Y032018D02*
X041312D01*
X041266D01*
Y032293D01*
X04122Y032247D01*
X04145Y032018D02*
X041542D01*
X041496D01*
Y032293D01*
X04145Y032247D01*
X041679Y032018D02*
X041771D01*
X041725D01*
Y032293D01*
X041679Y032247D01*
X041909Y032293D02*
X042093D01*
Y032247D01*
X041909Y032064D01*
Y032018D01*
X043652Y0319D02*
Y032175D01*
X043789D01*
X043835Y032129D01*
Y032037D01*
X043789Y031991D01*
X043652D01*
X043743D02*
X043835Y0319D01*
X043927D02*
X044019D01*
X043973D01*
Y032175D01*
X043927Y032129D01*
X044596Y032146D02*
Y032342D01*
X044695D01*
X044728Y03231D01*
Y032244D01*
X044695Y032211D01*
X044596D01*
X044892Y032342D02*
X044826D01*
X044793Y03231D01*
Y032178D01*
X044826Y032146D01*
X044892D01*
X044924Y032178D01*
Y03231D01*
X044892Y032342D01*
X04499D02*
Y032146D01*
X045056Y032211D01*
X045121Y032146D01*
Y032342D01*
X045318D02*
X045187D01*
Y032146D01*
X045318D01*
X045187Y032244D02*
X045252D01*
X045384Y032146D02*
Y032342D01*
X045482D01*
X045515Y03231D01*
Y032244D01*
X045482Y032211D01*
X045384D01*
X045449D02*
X045515Y032146D01*
X04558Y032113D02*
X045712D01*
X045908Y03231D02*
X045876Y032342D01*
X04581D01*
X045777Y03231D01*
Y032277D01*
X04581Y032244D01*
X045876D01*
X045908Y032211D01*
Y032178D01*
X045876Y032146D01*
X04581D01*
X045777Y032178D01*
X046105Y032342D02*
X045974D01*
Y032146D01*
X046105D01*
X045974Y032244D02*
X04604D01*
X046171Y032342D02*
Y032146D01*
X046302D01*
X046499Y032342D02*
X046368D01*
Y032146D01*
X046499D01*
X046368Y032244D02*
X046433D01*
X046696Y03231D02*
X046663Y032342D01*
X046597D01*
X046564Y03231D01*
Y032178D01*
X046597Y032146D01*
X046663D01*
X046696Y032178D01*
X046761Y032342D02*
X046892D01*
X046827D01*
Y032146D01*
X042736Y032136D02*
Y03186D01*
X042874D01*
X04292Y031906D01*
Y03209D01*
X042874Y032136D01*
X042736D01*
X043195Y03186D02*
X043012D01*
X043195Y032044D01*
Y03209D01*
X043149Y032136D01*
X043058D01*
X043012Y03209D01*
X045148Y031152D02*
X045239D01*
X045194D01*
Y031427D01*
X045148Y031381D01*
X045377Y031152D02*
Y031427D01*
X045561Y031152D01*
Y031427D01*
X04579Y031152D02*
Y031427D01*
X045653Y031289D01*
X045836D01*
X045928Y031381D02*
X045974Y031427D01*
X046066D01*
X046112Y031381D01*
Y031197D01*
X046066Y031152D01*
X045974D01*
X045928Y031197D01*
Y031381D01*
X046204D02*
X04625Y031427D01*
X046341D01*
X046387Y031381D01*
Y031197D01*
X046341Y031152D01*
X04625D01*
X046204Y031197D01*
Y031381D01*
X046479Y031427D02*
X046663D01*
Y031381D01*
X046479Y031197D01*
Y031152D01*
X03888Y03318D02*
X038834Y033226D01*
X038742D01*
X038697Y03318D01*
Y032996D01*
X038742Y03295D01*
X038834D01*
X03888Y032996D01*
X03911Y03295D02*
Y033226D01*
X038972Y033088D01*
X039156D01*
X03888Y032372D02*
X038834Y032418D01*
X038742D01*
X038697Y032372D01*
Y032188D01*
X038742Y032142D01*
X038834D01*
X03888Y032188D01*
X038972Y032372D02*
X039018Y032418D01*
X03911D01*
X039156Y032372D01*
Y032326D01*
X03911Y03228D01*
X039064D01*
X03911D01*
X039156Y032234D01*
Y032188D01*
X03911Y032142D01*
X039018D01*
X038972Y032188D01*
X03888Y031628D02*
X038834Y031674D01*
X038742D01*
X038697Y031628D01*
Y031444D01*
X038742Y031398D01*
X038834D01*
X03888Y031444D01*
X039156Y031398D02*
X038972D01*
X039156Y031582D01*
Y031628D01*
X03911Y031674D01*
X039018D01*
X038972Y031628D01*
X039846Y030714D02*
X0398Y03076D01*
X039708D01*
X039662Y030714D01*
Y03053D01*
X039708Y030484D01*
X0398D01*
X039846Y03053D01*
X039938Y030484D02*
X04003D01*
X039984D01*
Y03076D01*
X039938Y030714D01*
X037959Y013553D02*
X037867D01*
X037913D01*
Y013323D01*
X037867Y013278D01*
X037822D01*
X037776Y013323D01*
X038189Y013278D02*
Y013553D01*
X038051Y013415D01*
X038235D01*
X011586Y03126D02*
X011494D01*
X01154D01*
Y031031D01*
X011494Y030985D01*
X011448D01*
X011402Y031031D01*
X011677Y031214D02*
X011723Y03126D01*
X011815D01*
X011861Y031214D01*
Y031168D01*
X011815Y031122D01*
X011769D01*
X011815D01*
X011861Y031076D01*
Y031031D01*
X011815Y030985D01*
X011723D01*
X011677Y031031D01*
X011549Y012254D02*
X011457D01*
X011503D01*
Y012024D01*
X011457Y011978D01*
X011411D01*
X011365Y012024D01*
X011825Y011978D02*
X011641D01*
X011825Y012162D01*
Y012208D01*
X011779Y012254D01*
X011687D01*
X011641Y012208D01*
X031906Y029488D02*
X031814D01*
X03186D01*
Y029259D01*
X031814Y029213D01*
X031768D01*
X031722Y029259D01*
X031998Y029213D02*
X03209D01*
X032044D01*
Y029488D01*
X031998Y029442D01*
D13*
X029773Y025673D02*
X029183D01*
Y025968D01*
X029281Y026067D01*
X029478D01*
X029576Y025968D01*
Y025673D01*
Y02587D02*
X029773Y026067D01*
X029183Y026657D02*
Y026264D01*
X029773D01*
Y026657D01*
X029478Y026264D02*
Y02646D01*
X029281Y027248D02*
X029183Y027149D01*
Y026952D01*
X029281Y026854D01*
X02938D01*
X029478Y026952D01*
Y027149D01*
X029576Y027248D01*
X029675D01*
X029773Y027149D01*
Y026952D01*
X029675Y026854D01*
X029183Y027838D02*
Y027444D01*
X029773D01*
Y027838D01*
X029478Y027444D02*
Y027641D01*
X029183Y028035D02*
Y028428D01*
Y028231D01*
X029773D01*
D14*
X046555Y019163D02*
Y018671D01*
X046654Y018573D01*
X04685D01*
X046949Y018671D01*
Y019163D01*
X047145Y018573D02*
Y018966D01*
X047342Y019163D01*
X047539Y018966D01*
Y018573D01*
Y018868D01*
X047145D01*
X047736Y018573D02*
Y019163D01*
X048031D01*
X048129Y019065D01*
Y018868D01*
X048031Y01877D01*
X047736D01*
X047933D02*
X048129Y018573D01*
X048326Y019163D02*
X04872D01*
X048523D01*
Y018573D01*
X048917D02*
X049113D01*
X049015D01*
Y019163D01*
X048917Y019065D01*
X047533Y025787D02*
Y025295D01*
X047632Y025197D01*
X047828D01*
X047927Y025295D01*
Y025787D01*
X048517Y025689D02*
X048419Y025787D01*
X048222D01*
X048124Y025689D01*
Y02559D01*
X048222Y025492D01*
X048419D01*
X048517Y025394D01*
Y025295D01*
X048419Y025197D01*
X048222D01*
X048124Y025295D01*
X048714Y025787D02*
Y025197D01*
X049009D01*
X049107Y025295D01*
Y025394D01*
X049009Y025492D01*
X048714D01*
X049009D01*
X049107Y02559D01*
Y025689D01*
X049009Y025787D01*
X048714D01*
D15*
X014183Y024258D02*
Y024415D01*
Y024336D01*
X013789D01*
X013711Y024415D01*
Y024494D01*
X013789Y024573D01*
X014183Y0241D02*
Y023785D01*
Y023943D01*
X013711D01*
Y023628D02*
X014025D01*
X014183Y023471D01*
X014025Y023313D01*
X013711D01*
X013947D01*
Y023628D01*
X014104Y022841D02*
X014183Y02292D01*
Y023077D01*
X014104Y023156D01*
X013789D01*
X013711Y023077D01*
Y02292D01*
X013789Y022841D01*
X013947D01*
Y022998D01*
X014183Y022211D02*
Y021896D01*
Y022054D01*
X013711D01*
X014183Y021503D02*
Y02166D01*
X014104Y021739D01*
X013789D01*
X013711Y02166D01*
Y021503D01*
X013789Y021424D01*
X014104D01*
X014183Y021503D01*
Y020794D02*
Y020479D01*
Y020637D01*
X013711D01*
Y020322D02*
X014025D01*
X014183Y020165D01*
X014025Y020007D01*
X013711D01*
X013947D01*
Y020322D01*
X013711Y01985D02*
X014183D01*
Y019614D01*
X014104Y019535D01*
X013947D01*
X013868Y019614D01*
Y01985D01*
Y019692D02*
X013711Y019535D01*
X014104Y019063D02*
X014183Y019141D01*
Y019299D01*
X014104Y019377D01*
X013789D01*
X013711Y019299D01*
Y019141D01*
X013789Y019063D01*
X013947D01*
Y01922D01*
X014183Y01859D02*
Y018905D01*
X013711D01*
Y01859D01*
X013947Y018905D02*
Y018748D01*
X014183Y018433D02*
Y018118D01*
Y018275D01*
X013711D01*
D16*
X028238Y01872D02*
Y018524D01*
X028337Y018425D01*
X02873D01*
X028829Y018524D01*
Y01872D01*
X02873Y018819D01*
X028337D01*
X028238Y01872D01*
Y019016D02*
Y019409D01*
Y019212D01*
X028829D01*
X02873Y019999D02*
X028337D01*
X028238Y019901D01*
Y019704D01*
X028337Y019606D01*
X02873D01*
X028829Y019704D01*
Y019901D01*
X028632Y019803D02*
X028829Y019999D01*
Y019901D02*
X02873Y019999D01*
X028534Y020196D02*
Y02059D01*
X028829Y020787D02*
Y020983D01*
Y020885D01*
X028238D01*
X028337Y020787D01*
Y021279D02*
X028238Y021377D01*
Y021574D01*
X028337Y021672D01*
X02873D01*
X028829Y021574D01*
Y021377D01*
X02873Y021279D01*
X028337D01*
Y021869D02*
X028238Y021967D01*
Y022164D01*
X028337Y022263D01*
X02873D01*
X028829Y022164D01*
Y021967D01*
X02873Y021869D01*
X028337D01*
X028534Y022459D02*
Y022853D01*
X028337Y02305D02*
X028238Y023148D01*
Y023345D01*
X028337Y023443D01*
X02873D01*
X028829Y023345D01*
Y023148D01*
X02873Y02305D01*
X028337D01*
X028829Y02364D02*
X02873D01*
Y023738D01*
X028829D01*
Y02364D01*
X028238Y024526D02*
Y024132D01*
X028534D01*
X028435Y024329D01*
Y024427D01*
X028534Y024526D01*
X02873D01*
X028829Y024427D01*
Y02423D01*
X02873Y024132D01*
X028534Y024722D02*
Y025116D01*
X028829Y025313D02*
Y02551D01*
Y025411D01*
X028238D01*
X028337Y025313D01*
X028829Y026198D02*
Y025805D01*
X028435Y026198D01*
X028337D01*
X028238Y0261D01*
Y025903D01*
X028337Y025805D01*
D17*
X014828Y016083D02*
D03*
X034026Y026851D02*
D03*
X043004Y033047D02*
D03*
D18*
X014163Y028862D02*
D03*
X041747Y01995D02*
D03*
X03249Y017628D02*
D03*
Y01684D02*
D03*
X040309Y01905D02*
D03*
Y0182D02*
D03*
D19*
X038578Y027151D02*
D03*
X035764D02*
D03*
D20*
X044102Y031295D02*
D03*
M02*
