M48
;Layer_Color=9474304
;FILE_FORMAT=2:4
INCH,LZ
;TYPE=PLATED
T1F00S00C0.0079
T2F00S00C0.0157
T5F00S00C0.0256
T6F00S00C0.0283
T8F00S00C0.0335
T9F00S00C0.0374
T10F00S00C0.0394
%
T01
X0117Y015315
X040718Y015165
Y01551
X04062Y01686
X037746Y017972
X037475
X036978Y01797
X037475Y019744
X037746
X03878Y021881
X039071
X03937Y02188
X040718Y022196
Y022628
X040071Y027709
X04137
X041552Y030985
X039803Y030994
X028533Y028054
Y027766
Y027431
X028535Y027102
Y026766
X025574
Y027102
X025571Y027431
Y027766
Y028051
X024855Y022402
Y021705
X024173Y020433
Y020138
X018593Y020433
Y023839
Y024252
X017106Y017311
X030256Y017972
X030257Y018239
X030256Y018496
X040294Y03151
X041782
T02
X031752Y022057
X031201
T05
X010787Y012756
Y013543
Y014331
X015925Y014964
X016713
X035226Y015256
X036014
X036014Y016043
Y016831
Y017618
X035226
Y016831
Y016043
X031282Y019013
X031282Y0198
Y020588
Y021375
X040325Y020326
X041113
X036017Y027523
X03523
Y028311
X036017
X025469Y028661
X024682
X030494Y021375
Y020588
Y0198
X030494Y019013
X028789Y016702
Y015915
X014902Y026329
Y027116
Y027904
X014114
Y027116
Y026329
X010787Y029319
Y030107
Y030894
T06
X016319Y019449
Y020039
Y02063
Y02122
Y021811
Y022402
Y022992
Y023583
Y024173
X017106Y02378
Y023189
Y022598
Y022008
Y021417
Y020827
Y020236
Y019646
X017894Y019843
Y020433
Y021024
Y021614
Y022205
Y022795
Y023386
Y023976
X019843Y025728
X020433
X021024
X021614
X022205
X022795
X023386
X023976
X02378Y026516
X023189
X022598
X022008
X021417
X020827
X020236
X019646
X019449Y027303
X020039
X02063
X02122
X021811
X022402
X022992
X023583
X024173
X025728Y02378
Y023189
Y022598
Y022008
Y021417
Y020827
Y020236
Y019646
X026516Y019843
Y020433
Y021024
Y021614
Y022205
Y022795
Y023386
Y023976
X027303Y024173
Y023583
Y022992
Y022402
Y021811
Y02122
Y02063
Y020039
Y019449
X02378Y017894
X023189
X022598
X022008
X021417
X020827
X020236
X019646
X019843Y017106
X020433
X021024
X021614
X022205
X022795
X023386
X023976
X024173Y016319
X023583
X022992
X022402
X021811
X02122
X02063
X020039
X019449
T08
X012465Y011665
X013465Y011665
X014465
Y012665
X013465
X012465Y012665
X015465Y012665
Y011665
X016465
Y012665
X017465
X018465
X019465
X020465
X021465
X022465
X023464Y012665
Y011665
X022465Y011665
X021465
X020465
X019465
X018465
X017465
X024464
Y012665
X025475Y012665
Y011665
X026475Y011665
Y012665
X027475
X028475
X029475
Y011665
X030475
Y012665
X028475Y011665
X027475
X031475
Y012665
X032475
Y011665
X033475
Y012665
X034475
Y011665
X035475
X036475Y011666
Y012666
X035475Y012665
X037475
Y011665
X039071Y024283
X040071
Y025283
X041071
Y024283
X042071Y024283
Y025284
X039071Y025283
X037475Y030985
X036475Y030985
X035475
X034475
X033475
X032475
X031475
X030475
X029475
X028475
X027475
X026475Y030985
X025475Y030985
X024464
X023465Y030985
X022465
X021465
X020465
X019465
X018465
X017465
X016465
X015465
X014465
X013465Y030985
X012465Y030985
X012264Y026311
X011264
X011264Y025311
X012264
Y024311
Y023311
Y022311
X011264
Y021311
Y020311
X012264
Y021311
Y019311
X011264
Y018311
X012264
Y017311
X011264
Y023311
Y024311
X012465Y031985
X013465Y031985
X014465Y031985
X015465
X016465
X017465
X018465
X019465
X020465
X021465
X022465
X023465
X024464Y031985
X025475
X026475Y031985
X027475Y031985
X028475
X029475
X030475
X031475
X032475
X033475
X034475
X035475
X036475
X037475Y031985
X0448Y03295
X0458
X0468
T09
X043489Y015561
X044276
Y016545
X043489
Y022196
X044276
Y02318
X043489
T10
X040341Y010628
Y0124
X0429
X044276
Y010628
X0429Y010628
X046835
Y0124
X032175Y025689
X032175Y028248
X030404
Y025689
M30
