G04*
G04 #@! TF.GenerationSoftware,Altium Limited,Altium Designer,19.1.7 (138)*
G04*
G04 Layer_Color=2752767*
%FSTAX24Y24*%
%MOIN*%
G70*
G01*
G75*
%ADD11C,0.0100*%
%ADD80C,0.0020*%
%ADD81C,0.0027*%
%ADD82C,0.0013*%
D11*
X009988Y0337D02*
X04938D01*
X011042Y011575D02*
X011157Y011552D01*
X011264Y011508D01*
X011361Y011443D01*
X011443Y011361D01*
X011508Y011264D01*
X011552Y011157D01*
X011575Y011042D01*
Y010984D02*
Y011042D01*
Y010926D02*
Y010984D01*
X011552Y010812D02*
X011575Y010926D01*
X011508Y010705D02*
X011552Y010812D01*
X011443Y010608D02*
X011508Y010705D01*
X011361Y010526D02*
X011443Y010608D01*
X011264Y010461D02*
X011361Y010526D01*
X011157Y010416D02*
X011264Y010461D01*
X011042Y010394D02*
X011157Y010416D01*
X010926Y010394D02*
X011042D01*
X010812Y010416D02*
X010926Y010394D01*
X010705Y010461D02*
X010812Y010416D01*
X010608Y010526D02*
X010705Y010461D01*
X010526Y010608D02*
X010608Y010526D01*
X010461Y010705D02*
X010526Y010608D01*
X010416Y010812D02*
X010461Y010705D01*
X010394Y010926D02*
X010416Y010812D01*
X010394Y010926D02*
Y010984D01*
Y011042D01*
X010416Y011157D01*
X010461Y011264D01*
X010526Y011361D01*
X010608Y011443D01*
X010705Y011508D01*
X010812Y011552D01*
X010926Y011575D01*
X011042D01*
X048424D02*
X048538Y011552D01*
X048645Y011508D01*
X048742Y011443D01*
X048824Y011361D01*
X048889Y011264D01*
X048934Y011157D01*
X048956Y011042D01*
Y010984D02*
Y011042D01*
Y010926D02*
Y010984D01*
X048934Y010812D02*
X048956Y010926D01*
X048889Y010705D02*
X048934Y010812D01*
X048824Y010608D02*
X048889Y010705D01*
X048742Y010526D02*
X048824Y010608D01*
X048645Y010461D02*
X048742Y010526D01*
X048538Y010416D02*
X048645Y010461D01*
X048424Y010394D02*
X048538Y010416D01*
X048308Y010394D02*
X048424D01*
X048193Y010416D02*
X048308Y010394D01*
X048086Y010461D02*
X048193Y010416D01*
X047989Y010526D02*
X048086Y010461D01*
X047907Y010608D02*
X047989Y010526D01*
X047842Y010705D02*
X047907Y010608D01*
X047798Y010812D02*
X047842Y010705D01*
X047775Y010926D02*
X047798Y010812D01*
X047775Y010926D02*
Y010984D01*
Y011042D01*
X047798Y011157D01*
X047842Y011264D01*
X047907Y011361D01*
X047989Y011443D01*
X048086Y011508D01*
X048193Y011552D01*
X048308Y011575D01*
X048424D01*
X018299Y018583D02*
X01836Y018571D01*
X018417Y018547D01*
X018468Y018512D01*
X018512Y018468D01*
X018547Y018417D01*
X018571Y01836D01*
X018583Y018299D01*
Y018268D02*
Y018299D01*
Y018237D02*
Y018268D01*
X018571Y018176D02*
X018583Y018237D01*
X018547Y018119D02*
X018571Y018176D01*
X018512Y018067D02*
X018547Y018119D01*
X018468Y018023D02*
X018512Y018067D01*
X018417Y017989D02*
X018468Y018023D01*
X01836Y017965D02*
X018417Y017989D01*
X018299Y017953D02*
X01836Y017965D01*
X018237Y017953D02*
X018299D01*
X018176Y017965D02*
X018237Y017953D01*
X018119Y017989D02*
X018176Y017965D01*
X018067Y018023D02*
X018119Y017989D01*
X018023Y018067D02*
X018067Y018023D01*
X017989Y018119D02*
X018023Y018067D01*
X017965Y018176D02*
X017989Y018119D01*
X017953Y018237D02*
X017965Y018176D01*
X017953Y018237D02*
Y018268D01*
Y018299D01*
X017965Y01836D01*
X017989Y018417D01*
X018023Y018468D01*
X018067Y018512D01*
X018119Y018547D01*
X018176Y018571D01*
X018237Y018583D01*
X018299D01*
X035679Y020974D02*
X035736Y020963D01*
X035789Y020941D01*
X035838Y020908D01*
X035879Y020867D01*
X035911Y020819D01*
X035934Y020765D01*
X035945Y020708D01*
Y020679D02*
Y020708D01*
Y02065D02*
Y020679D01*
X035934Y020593D02*
X035945Y02065D01*
X035911Y020539D02*
X035934Y020593D01*
X035879Y020491D02*
X035911Y020539D01*
X035838Y02045D02*
X035879Y020491D01*
X035789Y020417D02*
X035838Y02045D01*
X035736Y020395D02*
X035789Y020417D01*
X035679Y020384D02*
X035736Y020395D01*
X035621Y020384D02*
X035679D01*
X035563Y020395D02*
X035621Y020384D01*
X03551Y020417D02*
X035563Y020395D01*
X035461Y02045D02*
X03551Y020417D01*
X03542Y020491D02*
X035461Y02045D01*
X035388Y020539D02*
X03542Y020491D01*
X035366Y020593D02*
X035388Y020539D01*
X035354Y02065D02*
X035366Y020593D01*
X035354Y02065D02*
Y020679D01*
Y020708D01*
X035366Y020765D01*
X035388Y020819D01*
X03542Y020867D01*
X035461Y020908D01*
X03551Y020941D01*
X035563Y020963D01*
X035621Y020974D01*
X035679D01*
X021888Y022992D02*
X022042Y022972D01*
X022191Y022932D01*
X022335Y022873D01*
X022469Y022795D01*
X022591Y022701D01*
X022701Y022591D01*
X022795Y022469D01*
X022873Y022335D01*
X022932Y022191D01*
X022972Y022042D01*
X022992Y021888D01*
Y021811D02*
Y021888D01*
Y021734D02*
Y021811D01*
X022972Y02158D02*
X022992Y021734D01*
X022932Y021431D02*
X022972Y02158D01*
X022873Y021288D02*
X022932Y021431D01*
X022795Y021153D02*
X022873Y021288D01*
X022701Y021031D02*
X022795Y021153D01*
X022591Y020921D02*
X022701Y021031D01*
X022469Y020827D02*
X022591Y020921D01*
X022335Y020749D02*
X022469Y020827D01*
X022191Y02069D02*
X022335Y020749D01*
X022042Y02065D02*
X022191Y02069D01*
X021888Y02063D02*
X022042Y02065D01*
X021734Y02063D02*
X021888D01*
X02158Y02065D02*
X021734Y02063D01*
X021431Y02069D02*
X02158Y02065D01*
X021288Y020749D02*
X021431Y02069D01*
X021153Y020827D02*
X021288Y020749D01*
X021031Y020921D02*
X021153Y020827D01*
X020921Y021031D02*
X021031Y020921D01*
X020827Y021153D02*
X020921Y021031D01*
X020749Y021288D02*
X020827Y021153D01*
X02069Y021431D02*
X020749Y021288D01*
X02065Y02158D02*
X02069Y021431D01*
X02063Y021734D02*
X02065Y02158D01*
X02063Y021734D02*
Y021811D01*
Y021888D01*
X02065Y022042D01*
X02069Y022191D01*
X020749Y022335D01*
X020827Y022469D01*
X020921Y022591D01*
X021031Y022701D01*
X021153Y022795D01*
X021288Y022873D01*
X021431Y022932D01*
X02158Y022972D01*
X021734Y022992D01*
X021888D01*
X035697Y023868D02*
X035783Y023832D01*
X03585Y023766D01*
X035886Y023679D01*
Y023632D02*
Y023679D01*
Y023585D02*
Y023632D01*
X03585Y023498D02*
X035886Y023585D01*
X035783Y023432D02*
X03585Y023498D01*
X035697Y023396D02*
X035783Y023432D01*
X035603Y023396D02*
X035697D01*
X035516Y023432D02*
X035603Y023396D01*
X035449Y023498D02*
X035516Y023432D01*
X035413Y023585D02*
X035449Y023498D01*
X035413Y023585D02*
Y023632D01*
Y023679D01*
X035449Y023766D01*
X035516Y023832D01*
X035603Y023868D01*
X035697D01*
X025385Y025669D02*
X025446Y025657D01*
X025504Y025633D01*
X025555Y025599D01*
X025599Y025555D01*
X025633Y025504D01*
X025657Y025446D01*
X025669Y025385D01*
Y025354D02*
Y025385D01*
Y025323D02*
Y025354D01*
X025657Y025262D02*
X025669Y025323D01*
X025633Y025205D02*
X025657Y025262D01*
X025599Y025154D02*
X025633Y025205D01*
X025555Y02511D02*
X025599Y025154D01*
X025504Y025075D02*
X025555Y02511D01*
X025446Y025051D02*
X025504Y025075D01*
X025385Y025039D02*
X025446Y025051D01*
X025323Y025039D02*
X025385D01*
X025262Y025051D02*
X025323Y025039D01*
X025205Y025075D02*
X025262Y025051D01*
X025154Y02511D02*
X025205Y025075D01*
X02511Y025154D02*
X025154Y02511D01*
X025075Y025205D02*
X02511Y025154D01*
X025051Y025262D02*
X025075Y025205D01*
X025039Y025323D02*
X025051Y025262D01*
X025039Y025323D02*
Y025354D01*
Y025385D01*
X025051Y025446D01*
X025075Y025504D01*
X02511Y025555D01*
X025154Y025599D01*
X025205Y025633D01*
X025262Y025657D01*
X025323Y025669D01*
X025385D01*
X047885Y028789D02*
X047984Y02877D01*
X048077Y028731D01*
X048161Y028675D01*
X048232Y028604D01*
X048288Y02852D01*
X048327Y028427D01*
X048346Y028328D01*
Y028278D02*
Y028328D01*
Y028227D02*
Y028278D01*
X048327Y028128D02*
X048346Y028227D01*
X048288Y028035D02*
X048327Y028128D01*
X048232Y027951D02*
X048288Y028035D01*
X048161Y02788D02*
X048232Y027951D01*
X048077Y027824D02*
X048161Y02788D01*
X047984Y027785D02*
X048077Y027824D01*
X047885Y027766D02*
X047984Y027785D01*
X047784Y027766D02*
X047885D01*
X047685Y027785D02*
X047784Y027766D01*
X047592Y027824D02*
X047685Y027785D01*
X047508Y02788D02*
X047592Y027824D01*
X047437Y027951D02*
X047508Y02788D01*
X047381Y028035D02*
X047437Y027951D01*
X047343Y028128D02*
X047381Y028035D01*
X047323Y028227D02*
X047343Y028128D01*
X047323Y028227D02*
Y028278D01*
Y028328D01*
X047343Y028427D01*
X047381Y02852D01*
X047437Y028604D01*
X047508Y028675D01*
X047592Y028731D01*
X047685Y02877D01*
X047784Y028789D01*
X047885D01*
X011042Y033256D02*
X011157Y033234D01*
X011264Y033189D01*
X011361Y033124D01*
X011443Y033042D01*
X011508Y032945D01*
X011552Y032838D01*
X011575Y032724D01*
Y032666D02*
Y032724D01*
Y032608D02*
Y032666D01*
X011552Y032493D02*
X011575Y032608D01*
X011508Y032386D02*
X011552Y032493D01*
X011443Y032289D02*
X011508Y032386D01*
X011361Y032207D02*
X011443Y032289D01*
X011264Y032142D02*
X011361Y032207D01*
X011157Y032098D02*
X011264Y032142D01*
X011042Y032075D02*
X011157Y032098D01*
X010926Y032075D02*
X011042D01*
X010812Y032098D02*
X010926Y032075D01*
X010705Y032142D02*
X010812Y032098D01*
X010608Y032207D02*
X010705Y032142D01*
X010526Y032289D02*
X010608Y032207D01*
X010461Y032386D02*
X010526Y032289D01*
X010416Y032493D02*
X010461Y032386D01*
X010394Y032608D02*
X010416Y032493D01*
X010394Y032608D02*
Y032666D01*
Y032724D01*
X010416Y032838D01*
X010461Y032945D01*
X010526Y033042D01*
X010608Y033124D01*
X010705Y033189D01*
X010812Y033234D01*
X010926Y033256D01*
X011042D01*
X048424D02*
X048538Y033234D01*
X048645Y033189D01*
X048742Y033124D01*
X048824Y033042D01*
X048889Y032945D01*
X048934Y032838D01*
X048956Y032724D01*
Y032666D02*
Y032724D01*
Y032608D02*
Y032666D01*
X048934Y032493D02*
X048956Y032608D01*
X048889Y032386D02*
X048934Y032493D01*
X048824Y032289D02*
X048889Y032386D01*
X048742Y032207D02*
X048824Y032289D01*
X048645Y032142D02*
X048742Y032207D01*
X048538Y032098D02*
X048645Y032142D01*
X048424Y032075D02*
X048538Y032098D01*
X048308Y032075D02*
X048424D01*
X048193Y032098D02*
X048308Y032075D01*
X048086Y032142D02*
X048193Y032098D01*
X047989Y032207D02*
X048086Y032142D01*
X047907Y032289D02*
X047989Y032207D01*
X047842Y032386D02*
X047907Y032289D01*
X047798Y032493D02*
X047842Y032386D01*
X047775Y032608D02*
X047798Y032493D01*
X047775Y032608D02*
Y032666D01*
Y032724D01*
X047798Y032838D01*
X047842Y032945D01*
X047907Y033042D01*
X047989Y033124D01*
X048086Y033189D01*
X048193Y033234D01*
X048308Y033256D01*
X048424D01*
X04938Y0337D02*
X049398Y033693D01*
X009967Y03369D02*
X009988Y0337D01*
X009953Y033671D02*
X009967Y03369D01*
X009949Y033647D02*
X009953Y033671D01*
X009949Y033647D02*
X009952Y033636D01*
X009951Y033631D02*
X009952Y033636D01*
X00995Y033624D02*
X009951Y033631D01*
X00995Y01D02*
Y033624D01*
Y00999D02*
Y01D01*
Y00999D02*
X009957Y009972D01*
X009972Y009957D01*
X00999Y00995D01*
X04938D01*
X049398Y009957D01*
X049413Y009972D01*
X04942Y00999D01*
Y01D01*
X04942Y010005D02*
X04942Y01D01*
X049419Y010012D02*
X04942Y010005D01*
X049419Y010012D02*
X049419Y010019D01*
X04942Y010026D01*
X04942Y03365D02*
X04942Y010026D01*
X04942Y03365D02*
Y03366D01*
X049413Y033678D02*
X04942Y03366D01*
X049398Y033693D02*
X049413Y033678D01*
X011042Y011575D02*
X011157Y011552D01*
X011264Y011508D01*
X011361Y011443D01*
X011443Y011361D01*
X011508Y011264D01*
X011552Y011157D01*
X011575Y011042D01*
Y010984D02*
Y011042D01*
Y010926D02*
Y010984D01*
X011552Y010812D02*
X011575Y010926D01*
X011508Y010705D02*
X011552Y010812D01*
X011443Y010608D02*
X011508Y010705D01*
X011361Y010526D02*
X011443Y010608D01*
X011264Y010461D02*
X011361Y010526D01*
X011157Y010416D02*
X011264Y010461D01*
X011042Y010394D02*
X011157Y010416D01*
X010926Y010394D02*
X011042D01*
X010812Y010416D02*
X010926Y010394D01*
X010705Y010461D02*
X010812Y010416D01*
X010608Y010526D02*
X010705Y010461D01*
X010526Y010608D02*
X010608Y010526D01*
X010461Y010705D02*
X010526Y010608D01*
X010416Y010812D02*
X010461Y010705D01*
X010394Y010926D02*
X010416Y010812D01*
X010394Y010926D02*
Y010984D01*
Y011042D01*
X010416Y011157D01*
X010461Y011264D01*
X010526Y011361D01*
X010608Y011443D01*
X010705Y011508D01*
X010812Y011552D01*
X010926Y011575D01*
X011042D01*
X048424D02*
X048538Y011552D01*
X048645Y011508D01*
X048742Y011443D01*
X048824Y011361D01*
X048889Y011264D01*
X048934Y011157D01*
X048956Y011042D01*
Y010984D02*
Y011042D01*
Y010926D02*
Y010984D01*
X048934Y010812D02*
X048956Y010926D01*
X048889Y010705D02*
X048934Y010812D01*
X048824Y010608D02*
X048889Y010705D01*
X048742Y010526D02*
X048824Y010608D01*
X048645Y010461D02*
X048742Y010526D01*
X048538Y010416D02*
X048645Y010461D01*
X048424Y010394D02*
X048538Y010416D01*
X048308Y010394D02*
X048424D01*
X048193Y010416D02*
X048308Y010394D01*
X048086Y010461D02*
X048193Y010416D01*
X047989Y010526D02*
X048086Y010461D01*
X047907Y010608D02*
X047989Y010526D01*
X047842Y010705D02*
X047907Y010608D01*
X047798Y010812D02*
X047842Y010705D01*
X047775Y010926D02*
X047798Y010812D01*
X047775Y010926D02*
Y010984D01*
Y011042D01*
X047798Y011157D01*
X047842Y011264D01*
X047907Y011361D01*
X047989Y011443D01*
X048086Y011508D01*
X048193Y011552D01*
X048308Y011575D01*
X048424D01*
X018299Y018583D02*
X01836Y018571D01*
X018417Y018547D01*
X018468Y018512D01*
X018512Y018468D01*
X018547Y018417D01*
X018571Y01836D01*
X018583Y018299D01*
Y018268D02*
Y018299D01*
Y018237D02*
Y018268D01*
X018571Y018176D02*
X018583Y018237D01*
X018547Y018119D02*
X018571Y018176D01*
X018512Y018067D02*
X018547Y018119D01*
X018468Y018023D02*
X018512Y018067D01*
X018417Y017989D02*
X018468Y018023D01*
X01836Y017965D02*
X018417Y017989D01*
X018299Y017953D02*
X01836Y017965D01*
X018237Y017953D02*
X018299D01*
X018176Y017965D02*
X018237Y017953D01*
X018119Y017989D02*
X018176Y017965D01*
X018067Y018023D02*
X018119Y017989D01*
X018023Y018067D02*
X018067Y018023D01*
X017989Y018119D02*
X018023Y018067D01*
X017965Y018176D02*
X017989Y018119D01*
X017953Y018237D02*
X017965Y018176D01*
X017953Y018237D02*
Y018268D01*
Y018299D01*
X017965Y01836D01*
X017989Y018417D01*
X018023Y018468D01*
X018067Y018512D01*
X018119Y018547D01*
X018176Y018571D01*
X018237Y018583D01*
X018299D01*
X035679Y020974D02*
X035736Y020963D01*
X035789Y020941D01*
X035838Y020908D01*
X035879Y020867D01*
X035911Y020819D01*
X035934Y020765D01*
X035945Y020708D01*
Y020679D02*
Y020708D01*
Y02065D02*
Y020679D01*
X035934Y020593D02*
X035945Y02065D01*
X035911Y020539D02*
X035934Y020593D01*
X035879Y020491D02*
X035911Y020539D01*
X035838Y02045D02*
X035879Y020491D01*
X035789Y020417D02*
X035838Y02045D01*
X035736Y020395D02*
X035789Y020417D01*
X035679Y020384D02*
X035736Y020395D01*
X035621Y020384D02*
X035679D01*
X035563Y020395D02*
X035621Y020384D01*
X03551Y020417D02*
X035563Y020395D01*
X035461Y02045D02*
X03551Y020417D01*
X03542Y020491D02*
X035461Y02045D01*
X035388Y020539D02*
X03542Y020491D01*
X035366Y020593D02*
X035388Y020539D01*
X035354Y02065D02*
X035366Y020593D01*
X035354Y02065D02*
Y020679D01*
Y020708D01*
X035366Y020765D01*
X035388Y020819D01*
X03542Y020867D01*
X035461Y020908D01*
X03551Y020941D01*
X035563Y020963D01*
X035621Y020974D01*
X035679D01*
X021888Y022992D02*
X022042Y022972D01*
X022191Y022932D01*
X022335Y022873D01*
X022469Y022795D01*
X022591Y022701D01*
X022701Y022591D01*
X022795Y022469D01*
X022873Y022335D01*
X022932Y022191D01*
X022972Y022042D01*
X022992Y021888D01*
Y021811D02*
Y021888D01*
Y021734D02*
Y021811D01*
X022972Y02158D02*
X022992Y021734D01*
X022932Y021431D02*
X022972Y02158D01*
X022873Y021288D02*
X022932Y021431D01*
X022795Y021153D02*
X022873Y021288D01*
X022701Y021031D02*
X022795Y021153D01*
X022591Y020921D02*
X022701Y021031D01*
X022469Y020827D02*
X022591Y020921D01*
X022335Y020749D02*
X022469Y020827D01*
X022191Y02069D02*
X022335Y020749D01*
X022042Y02065D02*
X022191Y02069D01*
X021888Y02063D02*
X022042Y02065D01*
X021734Y02063D02*
X021888D01*
X02158Y02065D02*
X021734Y02063D01*
X021431Y02069D02*
X02158Y02065D01*
X021288Y020749D02*
X021431Y02069D01*
X021153Y020827D02*
X021288Y020749D01*
X021031Y020921D02*
X021153Y020827D01*
X020921Y021031D02*
X021031Y020921D01*
X020827Y021153D02*
X020921Y021031D01*
X020749Y021288D02*
X020827Y021153D01*
X02069Y021431D02*
X020749Y021288D01*
X02065Y02158D02*
X02069Y021431D01*
X02063Y021734D02*
X02065Y02158D01*
X02063Y021734D02*
Y021811D01*
Y021888D01*
X02065Y022042D01*
X02069Y022191D01*
X020749Y022335D01*
X020827Y022469D01*
X020921Y022591D01*
X021031Y022701D01*
X021153Y022795D01*
X021288Y022873D01*
X021431Y022932D01*
X02158Y022972D01*
X021734Y022992D01*
X021888D01*
X035697Y023868D02*
X035783Y023832D01*
X03585Y023766D01*
X035886Y023679D01*
Y023632D02*
Y023679D01*
Y023585D02*
Y023632D01*
X03585Y023498D02*
X035886Y023585D01*
X035783Y023432D02*
X03585Y023498D01*
X035697Y023396D02*
X035783Y023432D01*
X035603Y023396D02*
X035697D01*
X035516Y023432D02*
X035603Y023396D01*
X035449Y023498D02*
X035516Y023432D01*
X035413Y023585D02*
X035449Y023498D01*
X035413Y023585D02*
Y023632D01*
Y023679D01*
X035449Y023766D01*
X035516Y023832D01*
X035603Y023868D01*
X035697D01*
X025385Y025669D02*
X025446Y025657D01*
X025504Y025633D01*
X025555Y025599D01*
X025599Y025555D01*
X025633Y025504D01*
X025657Y025446D01*
X025669Y025385D01*
Y025354D02*
Y025385D01*
Y025323D02*
Y025354D01*
X025657Y025262D02*
X025669Y025323D01*
X025633Y025205D02*
X025657Y025262D01*
X025599Y025154D02*
X025633Y025205D01*
X025555Y02511D02*
X025599Y025154D01*
X025504Y025075D02*
X025555Y02511D01*
X025446Y025051D02*
X025504Y025075D01*
X025385Y025039D02*
X025446Y025051D01*
X025323Y025039D02*
X025385D01*
X025262Y025051D02*
X025323Y025039D01*
X025205Y025075D02*
X025262Y025051D01*
X025154Y02511D02*
X025205Y025075D01*
X02511Y025154D02*
X025154Y02511D01*
X025075Y025205D02*
X02511Y025154D01*
X025051Y025262D02*
X025075Y025205D01*
X025039Y025323D02*
X025051Y025262D01*
X025039Y025323D02*
Y025354D01*
Y025385D01*
X025051Y025446D01*
X025075Y025504D01*
X02511Y025555D01*
X025154Y025599D01*
X025205Y025633D01*
X025262Y025657D01*
X025323Y025669D01*
X025385D01*
X011042Y033256D02*
X011157Y033234D01*
X011264Y033189D01*
X011361Y033124D01*
X011443Y033042D01*
X011508Y032945D01*
X011552Y032838D01*
X011575Y032724D01*
Y032666D02*
Y032724D01*
Y032608D02*
Y032666D01*
X011552Y032493D02*
X011575Y032608D01*
X011508Y032386D02*
X011552Y032493D01*
X011443Y032289D02*
X011508Y032386D01*
X011361Y032207D02*
X011443Y032289D01*
X011264Y032142D02*
X011361Y032207D01*
X011157Y032098D02*
X011264Y032142D01*
X011042Y032075D02*
X011157Y032098D01*
X010926Y032075D02*
X011042D01*
X010812Y032098D02*
X010926Y032075D01*
X010705Y032142D02*
X010812Y032098D01*
X010608Y032207D02*
X010705Y032142D01*
X010526Y032289D02*
X010608Y032207D01*
X010461Y032386D02*
X010526Y032289D01*
X010416Y032493D02*
X010461Y032386D01*
X010394Y032608D02*
X010416Y032493D01*
X010394Y032608D02*
Y032666D01*
Y032724D01*
X010416Y032838D01*
X010461Y032945D01*
X010526Y033042D01*
X010608Y033124D01*
X010705Y033189D01*
X010812Y033234D01*
X010926Y033256D01*
X011042D01*
X048424D02*
X048538Y033234D01*
X048645Y033189D01*
X048742Y033124D01*
X048824Y033042D01*
X048889Y032945D01*
X048934Y032838D01*
X048956Y032724D01*
Y032666D02*
Y032724D01*
Y032608D02*
Y032666D01*
X048934Y032493D02*
X048956Y032608D01*
X048889Y032386D02*
X048934Y032493D01*
X048824Y032289D02*
X048889Y032386D01*
X048742Y032207D02*
X048824Y032289D01*
X048645Y032142D02*
X048742Y032207D01*
X048538Y032098D02*
X048645Y032142D01*
X048424Y032075D02*
X048538Y032098D01*
X048308Y032075D02*
X048424D01*
X048193Y032098D02*
X048308Y032075D01*
X048086Y032142D02*
X048193Y032098D01*
X047989Y032207D02*
X048086Y032142D01*
X047907Y032289D02*
X047989Y032207D01*
X047842Y032386D02*
X047907Y032289D01*
X047798Y032493D02*
X047842Y032386D01*
X047775Y032608D02*
X047798Y032493D01*
X047775Y032608D02*
Y032666D01*
Y032724D01*
X047798Y032838D01*
X047842Y032945D01*
X047907Y033042D01*
X047989Y033124D01*
X048086Y033189D01*
X048193Y033234D01*
X048308Y033256D01*
X048424D01*
X04938Y0337D02*
X049398Y033693D01*
X009988Y0337D02*
X04938D01*
X009967Y03369D02*
X009988Y0337D01*
X009953Y033671D02*
X009967Y03369D01*
X009949Y033647D02*
X009953Y033671D01*
X009949Y033647D02*
X009952Y033636D01*
X009951Y033631D02*
X009952Y033636D01*
X00995Y033624D02*
X009951Y033631D01*
X00995Y01D02*
Y033624D01*
Y00999D02*
Y01D01*
Y00999D02*
X009957Y009972D01*
X009972Y009957D01*
X00999Y00995D01*
X04938D01*
X049398Y009957D01*
X049413Y009972D01*
X04942Y00999D01*
Y01D01*
X04942Y010005D02*
X04942Y01D01*
X049419Y010012D02*
X04942Y010005D01*
X049419Y010012D02*
X049419Y010019D01*
X04942Y010026D01*
X04942Y03365D02*
X04942Y010026D01*
X04942Y03365D02*
Y03366D01*
X049413Y033678D02*
X04942Y03366D01*
X049398Y033693D02*
X049413Y033678D01*
D80*
X044792Y030028D02*
Y030188D01*
X044952D01*
Y030028D01*
X044792D01*
X043611Y028198D02*
Y028358D01*
X043771D01*
Y028198D01*
X043611D01*
X045983D02*
Y028358D01*
X046143D01*
Y028198D01*
X045983D01*
X047469Y03122D02*
X047389Y03138D01*
X047548D01*
X047469Y03122D01*
X043531D02*
X043451Y03138D01*
X043611D01*
X043531Y03122D01*
X043489Y0231D02*
X043529Y02314D01*
X043569D01*
X043529Y02318D01*
X043569Y02322D01*
X043529D01*
X043489Y02326D01*
X043449Y02322D01*
X043409D01*
X043449Y02318D01*
X043409Y02314D01*
X043449D01*
X043489Y0231D01*
X044276Y022116D02*
X044316Y022156D01*
X044356D01*
X044316Y022196D01*
X044356Y022236D01*
X044316D01*
X044276Y022276D01*
X044236Y022236D01*
X044196D01*
X044236Y022196D01*
X044196Y022156D01*
X044236D01*
X044276Y022116D01*
Y0231D02*
X044316Y02314D01*
X044356D01*
X044316Y02318D01*
X044356Y02322D01*
X044316D01*
X044276Y02326D01*
X044236Y02322D01*
X044196D01*
X044236Y02318D01*
X044196Y02314D01*
X044236D01*
X044276Y0231D01*
X043489Y022116D02*
X043529Y022156D01*
X043569D01*
X043529Y022196D01*
X043569Y022236D01*
X043529D01*
X043489Y022276D01*
X043449Y022236D01*
X043409D01*
X043449Y022196D01*
X043409Y022156D01*
X043449D01*
X043489Y022116D01*
X04522Y020246D02*
X04526Y020326D01*
X04522Y020406D01*
X0453Y020366D01*
X04538Y020406D01*
X04534Y020326D01*
X04538Y020246D01*
X0453Y020286D01*
X04522Y020246D01*
Y02497D02*
X04526Y02505D01*
X04522Y02513D01*
X0453Y02509D01*
X04538Y02513D01*
X04534Y02505D01*
X04538Y02497D01*
X0453Y02501D01*
X04522Y02497D01*
X043439Y01645D02*
X043479Y01649D01*
X043519D01*
X043479Y01653D01*
X043519Y01657D01*
X043479D01*
X043439Y01661D01*
X043399Y01657D01*
X043359D01*
X043399Y01653D01*
X043359Y01649D01*
X043399D01*
X043439Y01645D01*
X044226Y015466D02*
X044266Y015506D01*
X044306D01*
X044266Y015546D01*
X044306Y015586D01*
X044266D01*
X044226Y015626D01*
X044186Y015586D01*
X044146D01*
X044186Y015546D01*
X044146Y015506D01*
X044186D01*
X044226Y015466D01*
Y01645D02*
X044266Y01649D01*
X044306D01*
X044266Y01653D01*
X044306Y01657D01*
X044266D01*
X044226Y01661D01*
X044186Y01657D01*
X044146D01*
X044186Y01653D01*
X044146Y01649D01*
X044186D01*
X044226Y01645D01*
X043439Y015466D02*
X043479Y015506D01*
X043519D01*
X043479Y015546D01*
X043519Y015586D01*
X043479D01*
X043439Y015626D01*
X043399Y015586D01*
X043359D01*
X043399Y015546D01*
X043359Y015506D01*
X043399D01*
X043439Y015466D01*
X04517Y013596D02*
X04521Y013676D01*
X04517Y013756D01*
X04525Y013716D01*
X04533Y013756D01*
X04529Y013676D01*
X04533Y013596D01*
X04525Y013636D01*
X04517Y013596D01*
Y01832D02*
X04521Y0184D01*
X04517Y01848D01*
X04525Y01844D01*
X04533Y01848D01*
X04529Y0184D01*
X04533Y01832D01*
X04525Y01836D01*
X04517Y01832D01*
X041466Y029238D02*
Y029198D01*
X041546D01*
Y029238D01*
X041586D01*
Y029318D01*
X041546D01*
Y029358D01*
X041466D01*
Y029318D01*
X041426D01*
Y029238D01*
X041466D01*
Y028451D02*
Y028411D01*
X041546D01*
Y028451D01*
X041586D01*
Y028531D01*
X041546D01*
Y028571D01*
X041466D01*
Y028531D01*
X041426D01*
Y028451D01*
X041466D01*
X025389Y028581D02*
X025429D01*
X025469Y028621D01*
X025509Y028581D01*
X025549D01*
Y028621D01*
X025509Y028661D01*
X025549Y028701D01*
Y028741D01*
X025509D01*
X025469Y028701D01*
X025429Y028741D01*
X025389D01*
Y028701D01*
X025429Y028661D01*
X025389Y028621D01*
Y028581D01*
X024602D02*
X024642D01*
X024682Y028621D01*
X024722Y028581D01*
X024762D01*
Y028621D01*
X024722Y028661D01*
X024762Y028701D01*
Y028741D01*
X024722D01*
X024682Y028701D01*
X024642Y028741D01*
X024602D01*
Y028701D01*
X024642Y028661D01*
X024602Y028621D01*
Y028581D01*
X038617Y028767D02*
X038657D01*
X038697Y028807D01*
X038737Y028767D01*
X038777D01*
Y028807D01*
X038737Y028847D01*
X038777Y028887D01*
Y028927D01*
X038737D01*
X038697Y028887D01*
X038657Y028927D01*
X038617D01*
Y028887D01*
X038657Y028847D01*
X038617Y028807D01*
Y028767D01*
X039404D02*
X039444D01*
X039484Y028807D01*
X039524Y028767D01*
X039564D01*
Y028807D01*
X039524Y028847D01*
X039564Y028887D01*
Y028927D01*
X039524D01*
X039484Y028887D01*
X039444Y028927D01*
X039404D01*
Y028887D01*
X039444Y028847D01*
X039404Y028807D01*
Y028767D01*
X038617Y029556D02*
X038657D01*
X038697Y029596D01*
X038737Y029556D01*
X038777D01*
Y029596D01*
X038737Y029636D01*
X038777Y029676D01*
Y029716D01*
X038737D01*
X038697Y029676D01*
X038657Y029716D01*
X038617D01*
Y029676D01*
X038657Y029636D01*
X038617Y029596D01*
Y029556D01*
X039404D02*
X039444D01*
X039484Y029596D01*
X039524Y029556D01*
X039564D01*
Y029596D01*
X039524Y029636D01*
X039564Y029676D01*
Y029716D01*
X039524D01*
X039484Y029676D01*
X039444Y029716D01*
X039404D01*
Y029676D01*
X039444Y029636D01*
X039404Y029596D01*
Y029556D01*
X046755Y0124D02*
X046835Y01248D01*
X046915Y0124D01*
X046835Y01232D01*
X046755Y0124D01*
Y010628D02*
X046835Y010708D01*
X046915Y010628D01*
X046835Y010548D01*
X046755Y010628D01*
X044196Y0124D02*
X044276Y01248D01*
X044356Y0124D01*
X044276Y01232D01*
X044196Y0124D01*
Y010628D02*
X044276Y010708D01*
X044356Y010628D01*
X044276Y010548D01*
X044196Y010628D01*
X04282Y0124D02*
X0429Y01248D01*
X04298Y0124D01*
X0429Y01232D01*
X04282Y0124D01*
Y010628D02*
X0429Y010708D01*
X04298Y010628D01*
X0429Y010548D01*
X04282Y010628D01*
X040261Y0124D02*
X040341Y01248D01*
X040421Y0124D01*
X040341Y01232D01*
X040261Y0124D01*
Y010628D02*
X040341Y010708D01*
X040421Y010628D01*
X040341Y010548D01*
X040261Y010628D01*
X036068Y015159D02*
X036108D01*
X036148Y015199D01*
X036188Y015159D01*
X036228D01*
Y015199D01*
X036188Y015239D01*
X036228Y015279D01*
Y015319D01*
X036188D01*
X036148Y015279D01*
X036108Y015319D01*
X036068D01*
Y015279D01*
X036108Y015239D01*
X036068Y015199D01*
Y015159D01*
X03528D02*
X03532D01*
X03536Y015199D01*
X0354Y015159D01*
X03544D01*
Y015199D01*
X0354Y015239D01*
X03544Y015279D01*
Y015319D01*
X0354D01*
X03536Y015279D01*
X03532Y015319D01*
X03528D01*
Y015279D01*
X03532Y015239D01*
X03528Y015199D01*
Y015159D01*
X036068Y015946D02*
X036108D01*
X036148Y015986D01*
X036188Y015946D01*
X036228D01*
Y015986D01*
X036188Y016026D01*
X036228Y016066D01*
Y016106D01*
X036188D01*
X036148Y016066D01*
X036108Y016106D01*
X036068D01*
Y016066D01*
X036108Y016026D01*
X036068Y015986D01*
Y015946D01*
X03528D02*
X03532D01*
X03536Y015986D01*
X0354Y015946D01*
X03544D01*
Y015986D01*
X0354Y016026D01*
X03544Y016066D01*
Y016106D01*
X0354D01*
X03536Y016066D01*
X03532Y016106D01*
X03528D01*
Y016066D01*
X03532Y016026D01*
X03528Y015986D01*
Y015946D01*
Y017543D02*
X03532D01*
X03536Y017583D01*
X0354Y017543D01*
X03544D01*
Y017583D01*
X0354Y017623D01*
X03544Y017663D01*
Y017703D01*
X0354D01*
X03536Y017663D01*
X03532Y017703D01*
X03528D01*
Y017663D01*
X03532Y017623D01*
X03528Y017583D01*
Y017543D01*
X036068D02*
X036108D01*
X036148Y017583D01*
X036188Y017543D01*
X036228D01*
Y017583D01*
X036188Y017623D01*
X036228Y017663D01*
Y017703D01*
X036188D01*
X036148Y017663D01*
X036108Y017703D01*
X036068D01*
Y017663D01*
X036108Y017623D01*
X036068Y017583D01*
Y017543D01*
X03528Y016756D02*
X03532D01*
X03536Y016796D01*
X0354Y016756D01*
X03544D01*
Y016796D01*
X0354Y016836D01*
X03544Y016876D01*
Y016916D01*
X0354D01*
X03536Y016876D01*
X03532Y016916D01*
X03528D01*
Y016876D01*
X03532Y016836D01*
X03528Y016796D01*
Y016756D01*
X036068D02*
X036108D01*
X036148Y016796D01*
X036188Y016756D01*
X036228D01*
Y016796D01*
X036188Y016836D01*
X036228Y016876D01*
Y016916D01*
X036188D01*
X036148Y016876D01*
X036108Y016916D01*
X036068D01*
Y016876D01*
X036108Y016836D01*
X036068Y016796D01*
Y016756D01*
X034487Y015156D02*
X034527D01*
X034567Y015196D01*
X034607Y015156D01*
X034647D01*
Y015196D01*
X034607Y015236D01*
X034647Y015276D01*
Y015316D01*
X034607D01*
X034567Y015276D01*
X034527Y015316D01*
X034487D01*
Y015276D01*
X034527Y015236D01*
X034487Y015196D01*
Y015156D01*
Y015944D02*
X034527D01*
X034567Y015984D01*
X034607Y015944D01*
X034647D01*
Y015984D01*
X034607Y016024D01*
X034647Y016064D01*
Y016104D01*
X034607D01*
X034567Y016064D01*
X034527Y016104D01*
X034487D01*
Y016064D01*
X034527Y016024D01*
X034487Y015984D01*
Y015944D01*
X031278Y018709D02*
X031318D01*
X031358Y018749D01*
X031398Y018709D01*
X031438D01*
Y018749D01*
X031398Y018789D01*
X031438Y018829D01*
Y018869D01*
X031398D01*
X031358Y018829D01*
X031318Y018869D01*
X031278D01*
Y018829D01*
X031318Y018789D01*
X031278Y018749D01*
Y018709D01*
X030491D02*
X030531D01*
X030571Y018749D01*
X030611Y018709D01*
X030651D01*
Y018749D01*
X030611Y018789D01*
X030651Y018829D01*
Y018869D01*
X030611D01*
X030571Y018829D01*
X030531Y018869D01*
X030491D01*
Y018829D01*
X030531Y018789D01*
X030491Y018749D01*
Y018709D01*
X031278Y019497D02*
X031318D01*
X031358Y019537D01*
X031398Y019497D01*
X031438D01*
Y019537D01*
X031398Y019577D01*
X031438Y019617D01*
Y019657D01*
X031398D01*
X031358Y019617D01*
X031318Y019657D01*
X031278D01*
Y019617D01*
X031318Y019577D01*
X031278Y019537D01*
Y019497D01*
X030491D02*
X030531D01*
X030571Y019537D01*
X030611Y019497D01*
X030651D01*
Y019537D01*
X030611Y019577D01*
X030651Y019617D01*
Y019657D01*
X030611D01*
X030571Y019617D01*
X030531Y019657D01*
X030491D01*
Y019617D01*
X030531Y019577D01*
X030491Y019537D01*
Y019497D01*
X031278Y020283D02*
X031318D01*
X031358Y020323D01*
X031398Y020283D01*
X031438D01*
Y020323D01*
X031398Y020363D01*
X031438Y020403D01*
Y020443D01*
X031398D01*
X031358Y020403D01*
X031318Y020443D01*
X031278D01*
Y020403D01*
X031318Y020363D01*
X031278Y020323D01*
Y020283D01*
X030491D02*
X030531D01*
X030571Y020323D01*
X030611Y020283D01*
X030651D01*
Y020323D01*
X030611Y020363D01*
X030651Y020403D01*
Y020443D01*
X030611D01*
X030571Y020403D01*
X030531Y020443D01*
X030491D01*
Y020403D01*
X030531Y020363D01*
X030491Y020323D01*
Y020283D01*
X031278Y021072D02*
X031318D01*
X031358Y021112D01*
X031398Y021072D01*
X031438D01*
Y021112D01*
X031398Y021152D01*
X031438Y021192D01*
Y021232D01*
X031398D01*
X031358Y021192D01*
X031318Y021232D01*
X031278D01*
Y021192D01*
X031318Y021152D01*
X031278Y021112D01*
Y021072D01*
X030491D02*
X030531D01*
X030571Y021112D01*
X030611Y021072D01*
X030651D01*
Y021112D01*
X030611Y021152D01*
X030651Y021192D01*
Y021232D01*
X030611D01*
X030571Y021192D01*
X030531Y021232D01*
X030491D01*
Y021192D01*
X030531Y021152D01*
X030491Y021112D01*
Y021072D01*
X031121Y021977D02*
Y022137D01*
X031281D01*
Y021977D01*
X031121D01*
X031161Y022017D02*
Y022097D01*
X031241D01*
Y022017D01*
X031161D01*
X031672Y021977D02*
Y022137D01*
X031832D01*
Y021977D01*
X031672D01*
X031712Y022017D02*
Y022097D01*
X031792D01*
Y022017D01*
X031712D01*
X032099Y025677D02*
X032179Y025757D01*
X032259Y025677D01*
X032179Y025597D01*
X032099Y025677D01*
X030327D02*
X030407Y025757D01*
X030487Y025677D01*
X030407Y025597D01*
X030327Y025677D01*
X032099Y028236D02*
X032179Y028316D01*
X032259Y028236D01*
X032179Y028156D01*
X032099Y028236D01*
X030327D02*
X030407Y028316D01*
X030487Y028236D01*
X030407Y028156D01*
X030327Y028236D01*
X015845Y014884D02*
X015885D01*
X015925Y014924D01*
X015965Y014884D01*
X016005D01*
Y014924D01*
X015965Y014964D01*
X016005Y015004D01*
Y015044D01*
X015965D01*
X015925Y015004D01*
X015885Y015044D01*
X015845D01*
Y015004D01*
X015885Y014964D01*
X015845Y014924D01*
Y014884D01*
X016633D02*
X016673D01*
X016713Y014924D01*
X016753Y014884D01*
X016793D01*
Y014924D01*
X016753Y014964D01*
X016793Y015004D01*
Y015044D01*
X016753D01*
X016713Y015004D01*
X016673Y015044D01*
X016633D01*
Y015004D01*
X016673Y014964D01*
X016633Y014924D01*
Y014884D01*
X010707Y029239D02*
X010747D01*
X010787Y029279D01*
X010827Y029239D01*
X010867D01*
Y029279D01*
X010827Y029319D01*
X010867Y029359D01*
Y029399D01*
X010827D01*
X010787Y029359D01*
X010747Y029399D01*
X010707D01*
Y029359D01*
X010747Y029319D01*
X010707Y029279D01*
Y029239D01*
Y030027D02*
X010747D01*
X010787Y030067D01*
X010827Y030027D01*
X010867D01*
Y030067D01*
X010827Y030107D01*
X010867Y030147D01*
Y030187D01*
X010827D01*
X010787Y030147D01*
X010747Y030187D01*
X010707D01*
Y030147D01*
X010747Y030107D01*
X010707Y030067D01*
Y030027D01*
Y030814D02*
X010747D01*
X010787Y030854D01*
X010827Y030814D01*
X010867D01*
Y030854D01*
X010827Y030894D01*
X010867Y030934D01*
Y030974D01*
X010827D01*
X010787Y030934D01*
X010747Y030974D01*
X010707D01*
Y030934D01*
X010747Y030894D01*
X010707Y030854D01*
Y030814D01*
X014792Y026278D02*
X014832D01*
X014872Y026318D01*
X014912Y026278D01*
X014952D01*
Y026318D01*
X014912Y026358D01*
X014952Y026398D01*
Y026438D01*
X014912D01*
X014872Y026398D01*
X014832Y026438D01*
X014792D01*
Y026398D01*
X014832Y026358D01*
X014792Y026318D01*
Y026278D01*
Y027066D02*
X014832D01*
X014872Y027106D01*
X014912Y027066D01*
X014952D01*
Y027106D01*
X014912Y027146D01*
X014952Y027186D01*
Y027226D01*
X014912D01*
X014872Y027186D01*
X014832Y027226D01*
X014792D01*
Y027186D01*
X014832Y027146D01*
X014792Y027106D01*
Y027066D01*
Y027853D02*
X014832D01*
X014872Y027893D01*
X014912Y027853D01*
X014952D01*
Y027893D01*
X014912Y027933D01*
X014952Y027973D01*
Y028013D01*
X014912D01*
X014872Y027973D01*
X014832Y028013D01*
X014792D01*
Y027973D01*
X014832Y027933D01*
X014792Y027893D01*
Y027853D01*
X014005D02*
X014045D01*
X014085Y027893D01*
X014125Y027853D01*
X014165D01*
Y027893D01*
X014125Y027933D01*
X014165Y027973D01*
Y028013D01*
X014125D01*
X014085Y027973D01*
X014045Y028013D01*
X014005D01*
Y027973D01*
X014045Y027933D01*
X014005Y027893D01*
Y027853D01*
Y027066D02*
X014045D01*
X014085Y027106D01*
X014125Y027066D01*
X014165D01*
Y027106D01*
X014125Y027146D01*
X014165Y027186D01*
Y027226D01*
X014125D01*
X014085Y027186D01*
X014045Y027226D01*
X014005D01*
Y027186D01*
X014045Y027146D01*
X014005Y027106D01*
Y027066D01*
Y026278D02*
X014045D01*
X014085Y026318D01*
X014125Y026278D01*
X014165D01*
Y026318D01*
X014125Y026358D01*
X014165Y026398D01*
Y026438D01*
X014125D01*
X014085Y026398D01*
X014045Y026438D01*
X014005D01*
Y026398D01*
X014045Y026358D01*
X014005Y026318D01*
Y026278D01*
X010707Y014251D02*
X010747D01*
X010787Y014291D01*
X010827Y014251D01*
X010867D01*
Y014291D01*
X010827Y014331D01*
X010867Y014371D01*
Y014411D01*
X010827D01*
X010787Y014371D01*
X010747Y014411D01*
X010707D01*
Y014371D01*
X010747Y014331D01*
X010707Y014291D01*
Y014251D01*
Y013463D02*
X010747D01*
X010787Y013503D01*
X010827Y013463D01*
X010867D01*
Y013503D01*
X010827Y013543D01*
X010867Y013583D01*
Y013623D01*
X010827D01*
X010787Y013583D01*
X010747Y013623D01*
X010707D01*
Y013583D01*
X010747Y013543D01*
X010707Y013503D01*
Y013463D01*
Y012676D02*
X010747D01*
X010787Y012716D01*
X010827Y012676D01*
X010867D01*
Y012716D01*
X010827Y012756D01*
X010867Y012796D01*
Y012836D01*
X010827D01*
X010787Y012796D01*
X010747Y012836D01*
X010707D01*
Y012796D01*
X010747Y012756D01*
X010707Y012716D01*
Y012676D01*
X03185Y017932D02*
X03177Y018092D01*
X03193D01*
X03185Y017932D01*
Y017972D02*
X03181Y018052D01*
X03189D01*
X03185Y017972D01*
X015925Y0162D02*
X015845Y01636D01*
X016005D01*
X015925Y0162D01*
Y01624D02*
X015885Y01632D01*
X015965D01*
X015925Y01624D01*
X0386Y0231D02*
X03852Y02326D01*
X03868D01*
X0386Y0231D01*
Y02314D02*
X03856Y02322D01*
X03864D01*
X0386Y02314D01*
X04253Y022351D02*
X04245Y022511D01*
X04261D01*
X04253Y022351D01*
Y022391D02*
X04249Y022471D01*
X04257D01*
X04253Y022391D01*
X0386Y022358D02*
X03852Y022518D01*
X03868D01*
X0386Y022358D01*
Y022398D02*
X03856Y022478D01*
X03864D01*
X0386Y022398D01*
X0428Y03157D02*
X04272Y03173D01*
X04288D01*
X0428Y03157D01*
Y03161D02*
X04276Y03169D01*
X04284D01*
X0428Y03161D01*
X039901Y020739D02*
X039821Y020899D01*
X039981D01*
X039901Y020739D01*
Y020779D02*
X039861Y020859D01*
X039941D01*
X039901Y020779D01*
X035Y01053D02*
X03492Y01069D01*
X03508D01*
X035Y01053D01*
Y01057D02*
X03496Y01065D01*
X03504D01*
X035Y01057D01*
X025574Y027022D02*
X025494Y027182D01*
X025654D01*
X025574Y027022D01*
Y027062D02*
X025534Y027142D01*
X025614D01*
X025574Y027062D01*
X025571Y027351D02*
X025491Y027511D01*
X025651D01*
X025571Y027351D01*
Y027391D02*
X025531Y027471D01*
X025611D01*
X025571Y027391D01*
X028533Y027974D02*
X028453Y028134D01*
X028613D01*
X028533Y027974D01*
Y028014D02*
X028493Y028094D01*
X028573D01*
X028533Y028014D01*
X025571Y027971D02*
X025491Y028131D01*
X025651D01*
X025571Y027971D01*
Y028011D02*
X025531Y028091D01*
X025611D01*
X025571Y028011D01*
X028533Y027686D02*
X028453Y027846D01*
X028613D01*
X028533Y027686D01*
Y027726D02*
X028493Y027806D01*
X028573D01*
X028533Y027726D01*
X025571Y027686D02*
X025491Y027846D01*
X025651D01*
X025571Y027686D01*
Y027726D02*
X025531Y027806D01*
X025611D01*
X025571Y027726D01*
X028533Y027351D02*
X028453Y027511D01*
X028613D01*
X028533Y027351D01*
Y027391D02*
X028493Y027471D01*
X028573D01*
X028533Y027391D01*
X028535Y027022D02*
X028455Y027182D01*
X028615D01*
X028535Y027022D01*
Y027062D02*
X028495Y027142D01*
X028575D01*
X028535Y027062D01*
Y026686D02*
X028455Y026846D01*
X028615D01*
X028535Y026686D01*
Y026726D02*
X028495Y026806D01*
X028575D01*
X028535Y026726D01*
X025574Y026686D02*
X025494Y026846D01*
X025654D01*
X025574Y026686D01*
Y026726D02*
X025534Y026806D01*
X025614D01*
X025574Y026726D01*
X018593Y023168D02*
X018513Y023328D01*
X018673D01*
X018593Y023168D01*
Y023208D02*
X018553Y023288D01*
X018633D01*
X018593Y023208D01*
Y02367D02*
X018513Y02383D01*
X018673D01*
X018593Y02367D01*
Y02371D02*
X018553Y02379D01*
X018633D01*
X018593Y02371D01*
X026105Y024161D02*
X026025Y024321D01*
X026185D01*
X026105Y024161D01*
Y024201D02*
X026065Y024281D01*
X026145D01*
X026105Y024201D01*
X024724Y024161D02*
X024644Y024321D01*
X024804D01*
X024724Y024161D01*
Y024201D02*
X024684Y024281D01*
X024764D01*
X024724Y024201D01*
X038258Y019231D02*
X038178Y019391D01*
X038338D01*
X038258Y019231D01*
Y019271D02*
X038218Y019351D01*
X038298D01*
X038258Y019271D01*
X017106Y018249D02*
X017026Y018409D01*
X017186D01*
X017106Y018249D01*
Y018289D02*
X017066Y018369D01*
X017146D01*
X017106Y018289D01*
X041506Y023906D02*
X041426Y024066D01*
X041586D01*
X041506Y023906D01*
Y023946D02*
X041466Y024026D01*
X041546D01*
X041506Y023946D01*
X0402Y031429D02*
X04012Y031589D01*
X04028D01*
X0402Y031429D01*
Y031469D02*
X04016Y031549D01*
X04024D01*
X0402Y031469D01*
X04175Y03122D02*
X04167Y03138D01*
X04183D01*
X04175Y03122D01*
Y03126D02*
X04171Y03134D01*
X04179D01*
X04175Y03126D01*
X037864Y019241D02*
X037784Y019401D01*
X037944D01*
X037864Y019241D01*
Y019281D02*
X037824Y019361D01*
X037904D01*
X037864Y019281D01*
Y01789D02*
X037784Y01805D01*
X037944D01*
X037864Y01789D01*
Y01793D02*
X037824Y01801D01*
X037904D01*
X037864Y01793D01*
X038248Y017892D02*
X038168Y018052D01*
X038328D01*
X038248Y017892D01*
Y017932D02*
X038208Y018012D01*
X038288D01*
X038248Y017932D01*
X024391Y018416D02*
X024311Y018576D01*
X024471D01*
X024391Y018416D01*
Y018456D02*
X024351Y018536D01*
X024431D01*
X024391Y018456D01*
X024194Y018149D02*
X024114Y018309D01*
X024274D01*
X024194Y018149D01*
Y018189D02*
X024154Y018269D01*
X024234D01*
X024194Y018189D01*
X018455Y020364D02*
X018375Y020524D01*
X018535D01*
X018455Y020364D01*
Y020404D02*
X018415Y020484D01*
X018495D01*
X018455Y020404D01*
X037933Y014812D02*
X037853Y014972D01*
X038013D01*
X037933Y014812D01*
Y014852D02*
X037893Y014932D01*
X037973D01*
X037933Y014852D01*
X042924Y01812D02*
X042844Y01828D01*
X043004D01*
X042924Y01812D01*
Y01816D02*
X042884Y01824D01*
X042964D01*
X042924Y01816D01*
X04063Y016308D02*
X04055Y016468D01*
X04071D01*
X04063Y016308D01*
Y016348D02*
X04059Y016428D01*
X04067D01*
X04063Y016348D01*
X03955Y013936D02*
X03947Y014096D01*
X03963D01*
X03955Y013936D01*
Y013976D02*
X03951Y014056D01*
X03959D01*
X03955Y013976D01*
X038091Y013936D02*
X038011Y014096D01*
X038171D01*
X038091Y013936D01*
Y013976D02*
X038051Y014056D01*
X038131D01*
X038091Y013976D01*
X039803Y016022D02*
X039723Y016182D01*
X039883D01*
X039803Y016022D01*
Y016062D02*
X039763Y016142D01*
X039843D01*
X039803Y016062D01*
X0403Y01582D02*
X04022Y01598D01*
X04038D01*
X0403Y01582D01*
Y01586D02*
X04026Y01594D01*
X04034D01*
X0403Y01586D01*
X024855Y021625D02*
X024775Y021785D01*
X024935D01*
X024855Y021625D01*
Y021665D02*
X024815Y021745D01*
X024895D01*
X024855Y021665D01*
X023783Y020058D02*
X023703Y020218D01*
X023863D01*
X023783Y020058D01*
Y020098D02*
X023743Y020178D01*
X023823D01*
X023783Y020098D01*
X03955Y021259D02*
X03947Y021419D01*
X03963D01*
X03955Y021259D01*
Y021299D02*
X03951Y021379D01*
X03959D01*
X03955Y021299D01*
X039222Y021259D02*
X039142Y021419D01*
X039302D01*
X039222Y021259D01*
Y021299D02*
X039182Y021379D01*
X039262D01*
X039222Y021299D01*
X024626Y018709D02*
X024546Y018869D01*
X024706D01*
X024626Y018709D01*
Y018749D02*
X024586Y018829D01*
X024666D01*
X024626Y018749D01*
X0408Y020776D02*
X04072Y020936D01*
X04088D01*
X0408Y020776D01*
Y020816D02*
X04076Y020896D01*
X04084D01*
X0408Y020816D01*
X024065Y020375D02*
X023985Y020535D01*
X024145D01*
X024065Y020375D01*
Y020415D02*
X024025Y020495D01*
X024105D01*
X024065Y020415D01*
X0408Y021622D02*
X04072Y021782D01*
X04088D01*
X0408Y021622D01*
Y021662D02*
X04076Y021742D01*
X04084D01*
X0408Y021662D01*
D81*
X04213Y025685D02*
G03*
X04213Y025685I-00008J0D01*
G01*
Y024685D02*
G03*
X04213Y024685I-00008J0D01*
G01*
X03913Y025685D02*
G03*
X03913Y025685I-00008J0D01*
G01*
Y024685D02*
G03*
X03913Y024685I-00008J0D01*
G01*
X04013Y025685D02*
G03*
X04013Y025685I-00008J0D01*
G01*
Y024685D02*
G03*
X04013Y024685I-00008J0D01*
G01*
X04113D02*
G03*
X04113Y024685I-00008J0D01*
G01*
Y025685D02*
G03*
X04113Y025685I-00008J0D01*
G01*
X04688Y03295D02*
G03*
X04688Y03295I-00008J0D01*
G01*
X04588D02*
G03*
X04588Y03295I-00008J0D01*
G01*
X04488D02*
G03*
X04488Y03295I-00008J0D01*
G01*
X011344Y021311D02*
G03*
X011344Y021311I-00008J0D01*
G01*
Y022311D02*
G03*
X011344Y022311I-00008J0D01*
G01*
X012344D02*
G03*
X012344Y022311I-00008J0D01*
G01*
Y023311D02*
G03*
X012344Y023311I-00008J0D01*
G01*
X011344D02*
G03*
X011344Y023311I-00008J0D01*
G01*
X012344Y026311D02*
G03*
X012344Y026311I-00008J0D01*
G01*
X011344D02*
G03*
X011344Y026311I-00008J0D01*
G01*
X012344Y025311D02*
G03*
X012344Y025311I-00008J0D01*
G01*
X011344D02*
G03*
X011344Y025311I-00008J0D01*
G01*
Y024311D02*
G03*
X011344Y024311I-00008J0D01*
G01*
X012344D02*
G03*
X012344Y024311I-00008J0D01*
G01*
X011344Y020311D02*
G03*
X011344Y020311I-00008J0D01*
G01*
X012344D02*
G03*
X012344Y020311I-00008J0D01*
G01*
Y021311D02*
G03*
X012344Y021311I-00008J0D01*
G01*
Y019311D02*
G03*
X012344Y019311I-00008J0D01*
G01*
X011344D02*
G03*
X011344Y019311I-00008J0D01*
G01*
Y018311D02*
G03*
X011344Y018311I-00008J0D01*
G01*
X012344D02*
G03*
X012344Y018311I-00008J0D01*
G01*
X011344Y017311D02*
G03*
X011344Y017311I-00008J0D01*
G01*
X012344D02*
G03*
X012344Y017311I-00008J0D01*
G01*
X030555Y011665D02*
G03*
X030555Y011665I-00008J0D01*
G01*
X029555D02*
G03*
X029555Y011665I-00008J0D01*
G01*
Y012665D02*
G03*
X029555Y012665I-00008J0D01*
G01*
X028555D02*
G03*
X028555Y012665I-00008J0D01*
G01*
Y011665D02*
G03*
X028555Y011665I-00008J0D01*
G01*
X025555Y012665D02*
G03*
X025555Y012665I-00008J0D01*
G01*
Y011665D02*
G03*
X025555Y011665I-00008J0D01*
G01*
X026555Y012665D02*
G03*
X026555Y012665I-00008J0D01*
G01*
Y011665D02*
G03*
X026555Y011665I-00008J0D01*
G01*
X027555D02*
G03*
X027555Y011665I-00008J0D01*
G01*
Y012665D02*
G03*
X027555Y012665I-00008J0D01*
G01*
X031555Y011665D02*
G03*
X031555Y011665I-00008J0D01*
G01*
Y012665D02*
G03*
X031555Y012665I-00008J0D01*
G01*
X030555D02*
G03*
X030555Y012665I-00008J0D01*
G01*
X032555D02*
G03*
X032555Y012665I-00008J0D01*
G01*
Y011665D02*
G03*
X032555Y011665I-00008J0D01*
G01*
X033555D02*
G03*
X033555Y011665I-00008J0D01*
G01*
Y012665D02*
G03*
X033555Y012665I-00008J0D01*
G01*
X034555Y011665D02*
G03*
X034555Y011665I-00008J0D01*
G01*
Y012665D02*
G03*
X034555Y012665I-00008J0D01*
G01*
X035555Y011665D02*
G03*
X035555Y011665I-00008J0D01*
G01*
Y012665D02*
G03*
X035555Y012665I-00008J0D01*
G01*
X036555Y012666D02*
G03*
X036555Y012666I-00008J0D01*
G01*
Y011666D02*
G03*
X036555Y011666I-00008J0D01*
G01*
X037555Y012665D02*
G03*
X037555Y012665I-00008J0D01*
G01*
Y011665D02*
G03*
X037555Y011665I-00008J0D01*
G01*
X019545Y031985D02*
G03*
X019545Y031985I-00008J0D01*
G01*
X020545D02*
G03*
X020545Y031985I-00008J0D01*
G01*
Y030985D02*
G03*
X020545Y030985I-00008J0D01*
G01*
X021545D02*
G03*
X021545Y030985I-00008J0D01*
G01*
Y031985D02*
G03*
X021545Y031985I-00008J0D01*
G01*
X024544Y030985D02*
G03*
X024544Y030985I-00008J0D01*
G01*
Y031985D02*
G03*
X024544Y031985I-00008J0D01*
G01*
X023545Y030985D02*
G03*
X023545Y030985I-00008J0D01*
G01*
Y031985D02*
G03*
X023545Y031985I-00008J0D01*
G01*
X022545D02*
G03*
X022545Y031985I-00008J0D01*
G01*
Y030985D02*
G03*
X022545Y030985I-00008J0D01*
G01*
X018545Y031985D02*
G03*
X018545Y031985I-00008J0D01*
G01*
Y030985D02*
G03*
X018545Y030985I-00008J0D01*
G01*
X019545D02*
G03*
X019545Y030985I-00008J0D01*
G01*
X017545D02*
G03*
X017545Y030985I-00008J0D01*
G01*
Y031985D02*
G03*
X017545Y031985I-00008J0D01*
G01*
X016545D02*
G03*
X016545Y031985I-00008J0D01*
G01*
Y030985D02*
G03*
X016545Y030985I-00008J0D01*
G01*
X015545Y031985D02*
G03*
X015545Y031985I-00008J0D01*
G01*
Y030985D02*
G03*
X015545Y030985I-00008J0D01*
G01*
X014545Y031985D02*
G03*
X014545Y031985I-00008J0D01*
G01*
Y030985D02*
G03*
X014545Y030985I-00008J0D01*
G01*
X013545Y030985D02*
G03*
X013545Y030985I-00008J0D01*
G01*
Y031985D02*
G03*
X013545Y031985I-00008J0D01*
G01*
X012545Y030985D02*
G03*
X012545Y030985I-00008J0D01*
G01*
Y031985D02*
G03*
X012545Y031985I-00008J0D01*
G01*
X032555Y031985D02*
G03*
X032555Y031985I-00008J0D01*
G01*
X033555D02*
G03*
X033555Y031985I-00008J0D01*
G01*
Y030985D02*
G03*
X033555Y030985I-00008J0D01*
G01*
X034555D02*
G03*
X034555Y030985I-00008J0D01*
G01*
Y031985D02*
G03*
X034555Y031985I-00008J0D01*
G01*
X037555Y030985D02*
G03*
X037555Y030985I-00008J0D01*
G01*
Y031985D02*
G03*
X037555Y031985I-00008J0D01*
G01*
X036555Y030985D02*
G03*
X036555Y030985I-00008J0D01*
G01*
Y031985D02*
G03*
X036555Y031985I-00008J0D01*
G01*
X035555D02*
G03*
X035555Y031985I-00008J0D01*
G01*
Y030985D02*
G03*
X035555Y030985I-00008J0D01*
G01*
X031555Y031985D02*
G03*
X031555Y031985I-00008J0D01*
G01*
Y030985D02*
G03*
X031555Y030985I-00008J0D01*
G01*
X032555D02*
G03*
X032555Y030985I-00008J0D01*
G01*
X030555D02*
G03*
X030555Y030985I-00008J0D01*
G01*
Y031985D02*
G03*
X030555Y031985I-00008J0D01*
G01*
X029555D02*
G03*
X029555Y031985I-00008J0D01*
G01*
Y030985D02*
G03*
X029555Y030985I-00008J0D01*
G01*
X028555Y031985D02*
G03*
X028555Y031985I-00008J0D01*
G01*
Y030985D02*
G03*
X028555Y030985I-00008J0D01*
G01*
X027555Y031985D02*
G03*
X027555Y031985I-00008J0D01*
G01*
Y030985D02*
G03*
X027555Y030985I-00008J0D01*
G01*
X026555Y030985D02*
G03*
X026555Y030985I-00008J0D01*
G01*
Y031985D02*
G03*
X026555Y031985I-00008J0D01*
G01*
X025555Y030985D02*
G03*
X025555Y030985I-00008J0D01*
G01*
Y031985D02*
G03*
X025555Y031985I-00008J0D01*
G01*
X027383Y024173D02*
G03*
X027383Y024173I-00008J0D01*
G01*
X026596Y023976D02*
G03*
X026596Y023976I-00008J0D01*
G01*
X025808Y02378D02*
G03*
X025808Y02378I-00008J0D01*
G01*
X027383Y023583D02*
G03*
X027383Y023583I-00008J0D01*
G01*
X026596Y023386D02*
G03*
X026596Y023386I-00008J0D01*
G01*
X025808Y023189D02*
G03*
X025808Y023189I-00008J0D01*
G01*
X027383Y022992D02*
G03*
X027383Y022992I-00008J0D01*
G01*
X026596Y022795D02*
G03*
X026596Y022795I-00008J0D01*
G01*
X025808Y022598D02*
G03*
X025808Y022598I-00008J0D01*
G01*
X027383Y022402D02*
G03*
X027383Y022402I-00008J0D01*
G01*
X026596Y022205D02*
G03*
X026596Y022205I-00008J0D01*
G01*
X025808Y022008D02*
G03*
X025808Y022008I-00008J0D01*
G01*
X027383Y021811D02*
G03*
X027383Y021811I-00008J0D01*
G01*
X026596Y021614D02*
G03*
X026596Y021614I-00008J0D01*
G01*
X025808Y021417D02*
G03*
X025808Y021417I-00008J0D01*
G01*
X027383Y02122D02*
G03*
X027383Y02122I-00008J0D01*
G01*
X026596Y021024D02*
G03*
X026596Y021024I-00008J0D01*
G01*
X025808Y020827D02*
G03*
X025808Y020827I-00008J0D01*
G01*
X027383Y02063D02*
G03*
X027383Y02063I-00008J0D01*
G01*
X026596Y020433D02*
G03*
X026596Y020433I-00008J0D01*
G01*
X025808Y020236D02*
G03*
X025808Y020236I-00008J0D01*
G01*
X027383Y020039D02*
G03*
X027383Y020039I-00008J0D01*
G01*
X026596Y019843D02*
G03*
X026596Y019843I-00008J0D01*
G01*
X025808Y019646D02*
G03*
X025808Y019646I-00008J0D01*
G01*
X027383Y019449D02*
G03*
X027383Y019449I-00008J0D01*
G01*
X024253Y027303D02*
G03*
X024253Y027303I-00008J0D01*
G01*
X024056Y025728D02*
G03*
X024056Y025728I-00008J0D01*
G01*
X02386Y026516D02*
G03*
X02386Y026516I-00008J0D01*
G01*
X023663Y027303D02*
G03*
X023663Y027303I-00008J0D01*
G01*
X023466Y025728D02*
G03*
X023466Y025728I-00008J0D01*
G01*
X023269Y026516D02*
G03*
X023269Y026516I-00008J0D01*
G01*
X023072Y027303D02*
G03*
X023072Y027303I-00008J0D01*
G01*
X022875Y025728D02*
G03*
X022875Y025728I-00008J0D01*
G01*
X022678Y026516D02*
G03*
X022678Y026516I-00008J0D01*
G01*
X022482Y027303D02*
G03*
X022482Y027303I-00008J0D01*
G01*
X022285Y025728D02*
G03*
X022285Y025728I-00008J0D01*
G01*
X022088Y026516D02*
G03*
X022088Y026516I-00008J0D01*
G01*
X021891Y027303D02*
G03*
X021891Y027303I-00008J0D01*
G01*
X021694Y025728D02*
G03*
X021694Y025728I-00008J0D01*
G01*
X021497Y026516D02*
G03*
X021497Y026516I-00008J0D01*
G01*
X0213Y027303D02*
G03*
X0213Y027303I-00008J0D01*
G01*
X021104Y025728D02*
G03*
X021104Y025728I-00008J0D01*
G01*
X020907Y026516D02*
G03*
X020907Y026516I-00008J0D01*
G01*
X02071Y027303D02*
G03*
X02071Y027303I-00008J0D01*
G01*
X020513Y025728D02*
G03*
X020513Y025728I-00008J0D01*
G01*
X020316Y026516D02*
G03*
X020316Y026516I-00008J0D01*
G01*
X020119Y027303D02*
G03*
X020119Y027303I-00008J0D01*
G01*
X019923Y025728D02*
G03*
X019923Y025728I-00008J0D01*
G01*
X019726Y026516D02*
G03*
X019726Y026516I-00008J0D01*
G01*
X019529Y027303D02*
G03*
X019529Y027303I-00008J0D01*
G01*
X016399Y024173D02*
G03*
X016399Y024173I-00008J0D01*
G01*
X017974Y023976D02*
G03*
X017974Y023976I-00008J0D01*
G01*
X017186Y02378D02*
G03*
X017186Y02378I-00008J0D01*
G01*
X016399Y023583D02*
G03*
X016399Y023583I-00008J0D01*
G01*
X017974Y023386D02*
G03*
X017974Y023386I-00008J0D01*
G01*
X017186Y023189D02*
G03*
X017186Y023189I-00008J0D01*
G01*
X016399Y022992D02*
G03*
X016399Y022992I-00008J0D01*
G01*
X017974Y022795D02*
G03*
X017974Y022795I-00008J0D01*
G01*
X017186Y022598D02*
G03*
X017186Y022598I-00008J0D01*
G01*
X016399Y022402D02*
G03*
X016399Y022402I-00008J0D01*
G01*
X017974Y022205D02*
G03*
X017974Y022205I-00008J0D01*
G01*
X017186Y022008D02*
G03*
X017186Y022008I-00008J0D01*
G01*
X016399Y021811D02*
G03*
X016399Y021811I-00008J0D01*
G01*
X017974Y021614D02*
G03*
X017974Y021614I-00008J0D01*
G01*
X017186Y021417D02*
G03*
X017186Y021417I-00008J0D01*
G01*
X016399Y02122D02*
G03*
X016399Y02122I-00008J0D01*
G01*
X017974Y021024D02*
G03*
X017974Y021024I-00008J0D01*
G01*
X017186Y020827D02*
G03*
X017186Y020827I-00008J0D01*
G01*
X016399Y02063D02*
G03*
X016399Y02063I-00008J0D01*
G01*
X017974Y020433D02*
G03*
X017974Y020433I-00008J0D01*
G01*
X017186Y020236D02*
G03*
X017186Y020236I-00008J0D01*
G01*
X016399Y020039D02*
G03*
X016399Y020039I-00008J0D01*
G01*
X017974Y019843D02*
G03*
X017974Y019843I-00008J0D01*
G01*
X017186Y019646D02*
G03*
X017186Y019646I-00008J0D01*
G01*
X016399Y019449D02*
G03*
X016399Y019449I-00008J0D01*
G01*
X019529Y016319D02*
G03*
X019529Y016319I-00008J0D01*
G01*
X019726Y017894D02*
G03*
X019726Y017894I-00008J0D01*
G01*
X019923Y017106D02*
G03*
X019923Y017106I-00008J0D01*
G01*
X020119Y016319D02*
G03*
X020119Y016319I-00008J0D01*
G01*
X020316Y017894D02*
G03*
X020316Y017894I-00008J0D01*
G01*
X020513Y017106D02*
G03*
X020513Y017106I-00008J0D01*
G01*
X02071Y016319D02*
G03*
X02071Y016319I-00008J0D01*
G01*
X020907Y017894D02*
G03*
X020907Y017894I-00008J0D01*
G01*
X021104Y017106D02*
G03*
X021104Y017106I-00008J0D01*
G01*
X0213Y016319D02*
G03*
X0213Y016319I-00008J0D01*
G01*
X021497Y017894D02*
G03*
X021497Y017894I-00008J0D01*
G01*
X021694Y017106D02*
G03*
X021694Y017106I-00008J0D01*
G01*
X021891Y016319D02*
G03*
X021891Y016319I-00008J0D01*
G01*
X022088Y017894D02*
G03*
X022088Y017894I-00008J0D01*
G01*
X022285Y017106D02*
G03*
X022285Y017106I-00008J0D01*
G01*
X022482Y016319D02*
G03*
X022482Y016319I-00008J0D01*
G01*
X022678Y017894D02*
G03*
X022678Y017894I-00008J0D01*
G01*
X022875Y017106D02*
G03*
X022875Y017106I-00008J0D01*
G01*
X023072Y016319D02*
G03*
X023072Y016319I-00008J0D01*
G01*
X023269Y017894D02*
G03*
X023269Y017894I-00008J0D01*
G01*
X023466Y017106D02*
G03*
X023466Y017106I-00008J0D01*
G01*
X023663Y016319D02*
G03*
X023663Y016319I-00008J0D01*
G01*
X02386Y017894D02*
G03*
X02386Y017894I-00008J0D01*
G01*
X024056Y017106D02*
G03*
X024056Y017106I-00008J0D01*
G01*
X024253Y016319D02*
G03*
X024253Y016319I-00008J0D01*
G01*
X024544Y011665D02*
G03*
X024544Y011665I-00008J0D01*
G01*
Y012665D02*
G03*
X024544Y012665I-00008J0D01*
G01*
X023544Y011665D02*
G03*
X023544Y011665I-00008J0D01*
G01*
Y012665D02*
G03*
X023544Y012665I-00008J0D01*
G01*
X022545Y012665D02*
G03*
X022545Y012665I-00008J0D01*
G01*
Y011665D02*
G03*
X022545Y011665I-00008J0D01*
G01*
X021545Y012665D02*
G03*
X021545Y012665I-00008J0D01*
G01*
Y011665D02*
G03*
X021545Y011665I-00008J0D01*
G01*
X020545Y012665D02*
G03*
X020545Y012665I-00008J0D01*
G01*
Y011665D02*
G03*
X020545Y011665I-00008J0D01*
G01*
X019545D02*
G03*
X019545Y011665I-00008J0D01*
G01*
Y012665D02*
G03*
X019545Y012665I-00008J0D01*
G01*
X017545D02*
G03*
X017545Y012665I-00008J0D01*
G01*
X018545D02*
G03*
X018545Y012665I-00008J0D01*
G01*
Y011665D02*
G03*
X018545Y011665I-00008J0D01*
G01*
X014545Y012665D02*
G03*
X014545Y012665I-00008J0D01*
G01*
Y011665D02*
G03*
X014545Y011665I-00008J0D01*
G01*
X013545D02*
G03*
X013545Y011665I-00008J0D01*
G01*
Y012665D02*
G03*
X013545Y012665I-00008J0D01*
G01*
X012545Y011665D02*
G03*
X012545Y011665I-00008J0D01*
G01*
Y012665D02*
G03*
X012545Y012665I-00008J0D01*
G01*
X015545Y011665D02*
G03*
X015545Y011665I-00008J0D01*
G01*
Y012665D02*
G03*
X015545Y012665I-00008J0D01*
G01*
X016545D02*
G03*
X016545Y012665I-00008J0D01*
G01*
Y011665D02*
G03*
X016545Y011665I-00008J0D01*
G01*
X017545D02*
G03*
X017545Y011665I-00008J0D01*
G01*
D82*
X027343Y024173D02*
G03*
X027343Y024173I-00004J0D01*
G01*
X026556Y023976D02*
G03*
X026556Y023976I-00004J0D01*
G01*
X025768Y02378D02*
G03*
X025768Y02378I-00004J0D01*
G01*
X027343Y023583D02*
G03*
X027343Y023583I-00004J0D01*
G01*
X026556Y023386D02*
G03*
X026556Y023386I-00004J0D01*
G01*
X025768Y023189D02*
G03*
X025768Y023189I-00004J0D01*
G01*
X027343Y022992D02*
G03*
X027343Y022992I-00004J0D01*
G01*
X026556Y022795D02*
G03*
X026556Y022795I-00004J0D01*
G01*
X025768Y022598D02*
G03*
X025768Y022598I-00004J0D01*
G01*
X027343Y022402D02*
G03*
X027343Y022402I-00004J0D01*
G01*
X026556Y022205D02*
G03*
X026556Y022205I-00004J0D01*
G01*
X025768Y022008D02*
G03*
X025768Y022008I-00004J0D01*
G01*
X027343Y021811D02*
G03*
X027343Y021811I-00004J0D01*
G01*
X026556Y021614D02*
G03*
X026556Y021614I-00004J0D01*
G01*
X025768Y021417D02*
G03*
X025768Y021417I-00004J0D01*
G01*
X027343Y02122D02*
G03*
X027343Y02122I-00004J0D01*
G01*
X026556Y021024D02*
G03*
X026556Y021024I-00004J0D01*
G01*
X025768Y020827D02*
G03*
X025768Y020827I-00004J0D01*
G01*
X027343Y02063D02*
G03*
X027343Y02063I-00004J0D01*
G01*
X026556Y020433D02*
G03*
X026556Y020433I-00004J0D01*
G01*
X025768Y020236D02*
G03*
X025768Y020236I-00004J0D01*
G01*
X027343Y020039D02*
G03*
X027343Y020039I-00004J0D01*
G01*
X026556Y019843D02*
G03*
X026556Y019843I-00004J0D01*
G01*
X025768Y019646D02*
G03*
X025768Y019646I-00004J0D01*
G01*
X027343Y019449D02*
G03*
X027343Y019449I-00004J0D01*
G01*
X024213Y027303D02*
G03*
X024213Y027303I-00004J0D01*
G01*
X024016Y025728D02*
G03*
X024016Y025728I-00004J0D01*
G01*
X02382Y026516D02*
G03*
X02382Y026516I-00004J0D01*
G01*
X023623Y027303D02*
G03*
X023623Y027303I-00004J0D01*
G01*
X023426Y025728D02*
G03*
X023426Y025728I-00004J0D01*
G01*
X023229Y026516D02*
G03*
X023229Y026516I-00004J0D01*
G01*
X023032Y027303D02*
G03*
X023032Y027303I-00004J0D01*
G01*
X022835Y025728D02*
G03*
X022835Y025728I-00004J0D01*
G01*
X022638Y026516D02*
G03*
X022638Y026516I-00004J0D01*
G01*
X022442Y027303D02*
G03*
X022442Y027303I-00004J0D01*
G01*
X022245Y025728D02*
G03*
X022245Y025728I-00004J0D01*
G01*
X022048Y026516D02*
G03*
X022048Y026516I-00004J0D01*
G01*
X021851Y027303D02*
G03*
X021851Y027303I-00004J0D01*
G01*
X021654Y025728D02*
G03*
X021654Y025728I-00004J0D01*
G01*
X021457Y026516D02*
G03*
X021457Y026516I-00004J0D01*
G01*
X02126Y027303D02*
G03*
X02126Y027303I-00004J0D01*
G01*
X021064Y025728D02*
G03*
X021064Y025728I-00004J0D01*
G01*
X020867Y026516D02*
G03*
X020867Y026516I-00004J0D01*
G01*
X02067Y027303D02*
G03*
X02067Y027303I-00004J0D01*
G01*
X020473Y025728D02*
G03*
X020473Y025728I-00004J0D01*
G01*
X020276Y026516D02*
G03*
X020276Y026516I-00004J0D01*
G01*
X020079Y027303D02*
G03*
X020079Y027303I-00004J0D01*
G01*
X019883Y025728D02*
G03*
X019883Y025728I-00004J0D01*
G01*
X019686Y026516D02*
G03*
X019686Y026516I-00004J0D01*
G01*
X019489Y027303D02*
G03*
X019489Y027303I-00004J0D01*
G01*
X016359Y024173D02*
G03*
X016359Y024173I-00004J0D01*
G01*
X017934Y023976D02*
G03*
X017934Y023976I-00004J0D01*
G01*
X017146Y02378D02*
G03*
X017146Y02378I-00004J0D01*
G01*
X016359Y023583D02*
G03*
X016359Y023583I-00004J0D01*
G01*
X017934Y023386D02*
G03*
X017934Y023386I-00004J0D01*
G01*
X017146Y023189D02*
G03*
X017146Y023189I-00004J0D01*
G01*
X016359Y022992D02*
G03*
X016359Y022992I-00004J0D01*
G01*
X017934Y022795D02*
G03*
X017934Y022795I-00004J0D01*
G01*
X017146Y022598D02*
G03*
X017146Y022598I-00004J0D01*
G01*
X016359Y022402D02*
G03*
X016359Y022402I-00004J0D01*
G01*
X017934Y022205D02*
G03*
X017934Y022205I-00004J0D01*
G01*
X017146Y022008D02*
G03*
X017146Y022008I-00004J0D01*
G01*
X016359Y021811D02*
G03*
X016359Y021811I-00004J0D01*
G01*
X017934Y021614D02*
G03*
X017934Y021614I-00004J0D01*
G01*
X017146Y021417D02*
G03*
X017146Y021417I-00004J0D01*
G01*
X016359Y02122D02*
G03*
X016359Y02122I-00004J0D01*
G01*
X017934Y021024D02*
G03*
X017934Y021024I-00004J0D01*
G01*
X017146Y020827D02*
G03*
X017146Y020827I-00004J0D01*
G01*
X016359Y02063D02*
G03*
X016359Y02063I-00004J0D01*
G01*
X017934Y020433D02*
G03*
X017934Y020433I-00004J0D01*
G01*
X017146Y020236D02*
G03*
X017146Y020236I-00004J0D01*
G01*
X016359Y020039D02*
G03*
X016359Y020039I-00004J0D01*
G01*
X017934Y019843D02*
G03*
X017934Y019843I-00004J0D01*
G01*
X017146Y019646D02*
G03*
X017146Y019646I-00004J0D01*
G01*
X016359Y019449D02*
G03*
X016359Y019449I-00004J0D01*
G01*
X019489Y016319D02*
G03*
X019489Y016319I-00004J0D01*
G01*
X019686Y017894D02*
G03*
X019686Y017894I-00004J0D01*
G01*
X019883Y017106D02*
G03*
X019883Y017106I-00004J0D01*
G01*
X020079Y016319D02*
G03*
X020079Y016319I-00004J0D01*
G01*
X020276Y017894D02*
G03*
X020276Y017894I-00004J0D01*
G01*
X020473Y017106D02*
G03*
X020473Y017106I-00004J0D01*
G01*
X02067Y016319D02*
G03*
X02067Y016319I-00004J0D01*
G01*
X020867Y017894D02*
G03*
X020867Y017894I-00004J0D01*
G01*
X021064Y017106D02*
G03*
X021064Y017106I-00004J0D01*
G01*
X02126Y016319D02*
G03*
X02126Y016319I-00004J0D01*
G01*
X021457Y017894D02*
G03*
X021457Y017894I-00004J0D01*
G01*
X021654Y017106D02*
G03*
X021654Y017106I-00004J0D01*
G01*
X021851Y016319D02*
G03*
X021851Y016319I-00004J0D01*
G01*
X022048Y017894D02*
G03*
X022048Y017894I-00004J0D01*
G01*
X022245Y017106D02*
G03*
X022245Y017106I-00004J0D01*
G01*
X022442Y016319D02*
G03*
X022442Y016319I-00004J0D01*
G01*
X022638Y017894D02*
G03*
X022638Y017894I-00004J0D01*
G01*
X022835Y017106D02*
G03*
X022835Y017106I-00004J0D01*
G01*
X023032Y016319D02*
G03*
X023032Y016319I-00004J0D01*
G01*
X023229Y017894D02*
G03*
X023229Y017894I-00004J0D01*
G01*
X023426Y017106D02*
G03*
X023426Y017106I-00004J0D01*
G01*
X023623Y016319D02*
G03*
X023623Y016319I-00004J0D01*
G01*
X02382Y017894D02*
G03*
X02382Y017894I-00004J0D01*
G01*
X024016Y017106D02*
G03*
X024016Y017106I-00004J0D01*
G01*
X024213Y016319D02*
G03*
X024213Y016319I-00004J0D01*
G01*
M02*
