G04*
G04 #@! TF.GenerationSoftware,Altium Limited,Altium Designer,19.1.7 (138)*
G04*
G04 Layer_Physical_Order=1*
G04 Layer_Color=255*
%FSTAX24Y24*%
%MOIN*%
G70*
G01*
G75*
%ADD11C,0.0079*%
%ADD13C,0.0157*%
%ADD15C,0.0197*%
%ADD20R,0.0591X0.0591*%
%ADD21R,0.0315X0.0197*%
%ADD22R,0.0488X0.0236*%
G04:AMPARAMS|DCode=23|XSize=78.7mil|YSize=118.1mil|CornerRadius=19.7mil|HoleSize=0mil|Usage=FLASHONLY|Rotation=0.000|XOffset=0mil|YOffset=0mil|HoleType=Round|Shape=RoundedRectangle|*
%AMROUNDEDRECTD23*
21,1,0.0787,0.0787,0,0,0.0*
21,1,0.0394,0.1181,0,0,0.0*
1,1,0.0394,0.0197,-0.0394*
1,1,0.0394,-0.0197,-0.0394*
1,1,0.0394,-0.0197,0.0394*
1,1,0.0394,0.0197,0.0394*
%
%ADD23ROUNDEDRECTD23*%
%ADD24R,0.0315X0.0630*%
%ADD25R,0.0236X0.0488*%
%ADD26R,0.0591X0.0787*%
%ADD27R,0.0787X0.0591*%
%ADD28R,0.0197X0.0315*%
%ADD29R,0.0394X0.0630*%
%ADD30R,0.1181X0.0591*%
%ADD31R,0.0276X0.0394*%
G04:AMPARAMS|DCode=61|XSize=59.1mil|YSize=137.8mil|CornerRadius=14.8mil|HoleSize=0mil|Usage=FLASHONLY|Rotation=270.000|XOffset=0mil|YOffset=0mil|HoleType=Round|Shape=RoundedRectangle|*
%AMROUNDEDRECTD61*
21,1,0.0591,0.1083,0,0,270.0*
21,1,0.0295,0.1378,0,0,270.0*
1,1,0.0295,-0.0541,-0.0148*
1,1,0.0295,-0.0541,0.0148*
1,1,0.0295,0.0541,0.0148*
1,1,0.0295,0.0541,-0.0148*
%
%ADD61ROUNDEDRECTD61*%
%ADD62C,0.0591*%
%ADD63C,0.0394*%
%ADD64R,0.0394X0.0394*%
%ADD65R,0.0394X0.0394*%
G04:AMPARAMS|DCode=66|XSize=157.5mil|YSize=59.1mil|CornerRadius=14.8mil|HoleSize=0mil|Usage=FLASHONLY|Rotation=90.000|XOffset=0mil|YOffset=0mil|HoleType=Round|Shape=RoundedRectangle|*
%AMROUNDEDRECTD66*
21,1,0.1575,0.0295,0,0,90.0*
21,1,0.1280,0.0591,0,0,90.0*
1,1,0.0295,0.0148,0.0640*
1,1,0.0295,0.0148,-0.0640*
1,1,0.0295,-0.0148,-0.0640*
1,1,0.0295,-0.0148,0.0640*
%
%ADD66ROUNDEDRECTD66*%
G04:AMPARAMS|DCode=67|XSize=157.5mil|YSize=59.1mil|CornerRadius=14.8mil|HoleSize=0mil|Usage=FLASHONLY|Rotation=180.000|XOffset=0mil|YOffset=0mil|HoleType=Round|Shape=RoundedRectangle|*
%AMROUNDEDRECTD67*
21,1,0.1575,0.0295,0,0,180.0*
21,1,0.1280,0.0591,0,0,180.0*
1,1,0.0295,-0.0640,0.0148*
1,1,0.0295,0.0640,0.0148*
1,1,0.0295,0.0640,-0.0148*
1,1,0.0295,-0.0640,-0.0148*
%
%ADD67ROUNDEDRECTD67*%
%ADD68R,0.0591X0.0591*%
%ADD69O,0.0748X0.0591*%
%ADD70R,0.0748X0.0591*%
%ADD71O,0.0236X0.0315*%
%ADD72O,0.0591X0.0748*%
%ADD73R,0.0591X0.0748*%
%ADD74O,0.0472X0.0394*%
%ADD75R,0.0472X0.0394*%
%ADD76O,0.0394X0.0472*%
%ADD77C,0.0138*%
D11*
X044147Y02128D02*
X044276Y021409D01*
Y022196D01*
X042421Y02128D02*
X044147D01*
X042421Y022196D02*
X043489D01*
X042756Y014045D02*
Y018484D01*
X042648Y013937D02*
X042756Y014045D01*
X042299Y013937D02*
X042648D01*
X035736Y026814D02*
X036994D01*
X035647Y026903D02*
X035736Y026814D01*
X035647Y026903D02*
Y027453D01*
X035577Y027523D02*
X035647Y027453D01*
X03523Y027523D02*
X035577D01*
X037527Y026847D02*
Y029877D01*
Y026381D02*
Y026847D01*
X03751Y026831D02*
X037527Y026847D01*
X037008Y026831D02*
X03751D01*
X043138Y023865D02*
Y029325D01*
X04305Y023777D02*
X043138Y023865D01*
X042071Y02069D02*
Y023652D01*
X042197Y023777D02*
X04305D01*
X042071Y023652D02*
X042197Y023777D01*
X043489Y01937D02*
X043691Y019572D01*
Y020419D01*
X043516Y020594D02*
X043691Y020419D01*
X042167Y020594D02*
X043516D01*
X043004Y029459D02*
X043138Y029325D01*
X041752Y029459D02*
X043004D01*
X041552Y029659D02*
X041752Y029459D01*
X044209Y032052D02*
X044276Y03212D01*
X041782Y031985D02*
X04185Y032052D01*
X044209D01*
X041782Y03151D02*
Y031985D01*
X044276Y03212D02*
Y033191D01*
X038556Y031486D02*
Y033086D01*
X041004Y028278D02*
X041515D01*
X04041D02*
X041004D01*
X04175Y027156D02*
X042941D01*
X041295Y032456D02*
X043004D01*
X0412Y032361D02*
X041295Y032456D01*
X0412Y030392D02*
Y032361D01*
X039344Y03149D02*
Y033086D01*
X039342Y030841D02*
Y033085D01*
X014872Y02439D02*
Y024779D01*
X030472Y022972D02*
Y023858D01*
X041552Y029659D02*
Y030985D01*
X040294Y029131D02*
Y030382D01*
X042264Y028278D02*
Y028878D01*
X040294Y029131D02*
X04041Y029016D01*
X042126D01*
X042264Y028878D01*
X042071Y02069D02*
X042167Y020594D01*
X039803Y029278D02*
Y030994D01*
X039698Y029173D02*
X039803Y029278D01*
X038169Y029173D02*
X039698D01*
X038051Y028278D02*
Y029055D01*
X038169Y029173D01*
X034895Y016043D02*
X035226D01*
X034816Y015964D02*
X034895Y016043D01*
X034816Y013897D02*
Y015964D01*
X042352Y018543D02*
X042697D01*
X042756Y018484D01*
X04235Y018546D02*
X042352Y018543D01*
X04235Y018546D02*
Y01937D01*
X02438Y02093D02*
Y023699D01*
X024241Y023839D02*
X02438Y023699D01*
X018593Y023839D02*
X024241D01*
X02438Y02093D02*
X024441Y020868D01*
X024409Y024045D02*
X024518Y023937D01*
Y020987D02*
Y023937D01*
Y020987D02*
X024579Y020925D01*
X017525Y024004D02*
X017894D01*
X024547Y024252D02*
X024656Y024144D01*
Y021044D02*
Y024144D01*
Y021044D02*
X024717Y020982D01*
X018505Y024045D02*
X024409D01*
X018141Y023681D02*
X018505Y024045D01*
X017566Y023681D02*
X018141D01*
X018593Y024252D02*
X024547D01*
X04226Y016898D02*
X042598D01*
X0422D02*
X04226D01*
X042598D02*
Y017967D01*
Y016146D02*
Y016898D01*
X042516Y016063D02*
X042598Y016146D01*
X042299Y016063D02*
X042516D01*
X040561Y018111D02*
X042454D01*
X040332D02*
X040561D01*
X040925Y020871D02*
Y021279D01*
X040718Y020664D02*
X040925Y020871D01*
X040718Y0198D02*
Y020664D01*
X040561Y019643D02*
X040718Y0198D01*
X040561Y018111D02*
Y019643D01*
X039335Y016659D02*
X040042D01*
X039091Y016904D02*
X039335Y016659D01*
X038677Y016904D02*
X039091D01*
X040042Y016659D02*
X040213Y016831D01*
Y017993D01*
X042454Y018111D02*
X042598Y017967D01*
X040213Y017993D02*
X040332Y018111D01*
X037461Y030262D02*
X038033D01*
X037389Y03019D02*
X037461Y030262D01*
X037389Y027618D02*
Y03019D01*
X038033Y030262D02*
X038228Y030458D01*
Y032456D01*
X040965Y025891D02*
X041004Y02593D01*
Y027274D01*
X038858Y028278D02*
X039508D01*
X03878Y028199D02*
X038858Y028278D01*
X03878Y027352D02*
Y028199D01*
X038699Y027272D02*
X03878Y027352D01*
X038053Y027272D02*
X038699D01*
X038051Y027274D02*
X038053Y027272D01*
X037475Y017972D02*
Y019744D01*
X037746Y017972D02*
Y019744D01*
X034026Y026583D02*
Y027048D01*
X034077Y026533D02*
X035588D01*
X034026Y026583D02*
X034077Y026533D01*
X032175Y025123D02*
Y025689D01*
X032092Y025039D02*
X032175Y025123D01*
X029911Y025039D02*
X032092D01*
X040325Y026372D02*
Y028193D01*
X040213Y02626D02*
X040325Y026372D01*
X037648Y02626D02*
X040213D01*
X034577Y026847D02*
X034623Y026801D01*
X035069Y026774D02*
X035072D01*
X034623Y026801D02*
X035069D01*
X035588Y026533D02*
X035694Y026427D01*
X036171D01*
X035069Y026053D02*
X036998D01*
X037008Y026043D01*
X041634Y027272D02*
Y028158D01*
Y027272D02*
X04175Y027156D01*
X041515Y028278D02*
X041634Y028158D01*
X040325Y028193D02*
X04041Y028278D01*
X037527Y026381D02*
X037648Y02626D01*
X036994Y026026D02*
X037006Y026014D01*
X034026Y02626D02*
X034026Y02626D01*
X033169Y02626D02*
X034026D01*
X034642Y027713D02*
X034832Y027523D01*
X03523D01*
X034022Y027713D02*
X034642D01*
X034577Y026847D02*
Y027272D01*
X033644Y027374D02*
X034475D01*
X034577Y027272D01*
X033597Y0285D02*
X034022D01*
X033173D02*
X033597D01*
Y02742D02*
X033644Y027374D01*
X033597Y02742D02*
Y0285D01*
X033169Y028496D02*
X033169D01*
Y028504D02*
X033173Y0285D01*
X033169Y027047D02*
Y027717D01*
X030502Y027431D02*
X03206D01*
X032444Y027047D01*
X033169D01*
X037527Y029877D02*
X037648Y029998D01*
X030404Y027529D02*
X030502Y027431D01*
X030404Y027529D02*
Y028248D01*
X029773Y020031D02*
Y029505D01*
X029635Y020588D02*
Y029562D01*
X029498Y021185D02*
Y029619D01*
X02936Y021619D02*
Y029676D01*
X029222Y022362D02*
Y029733D01*
X029075Y022982D02*
Y029781D01*
X028937Y023386D02*
Y030522D01*
X028799Y024045D02*
Y030295D01*
X025574Y026766D02*
X028535D01*
X039557Y023093D02*
Y02477D01*
X03878Y022315D02*
X039557Y023093D01*
X03878Y021881D02*
Y022315D01*
X040071Y023314D02*
Y024283D01*
X039071Y021881D02*
Y022314D01*
X016157Y023878D02*
X016553D01*
X016553Y023878D02*
X016626D01*
X016553Y023878D02*
X016553Y023878D01*
X038479Y025283D02*
X039071D01*
X039334Y021657D02*
X03937Y021693D01*
X038473Y021657D02*
X039334D01*
X03937Y021693D02*
Y02188D01*
X038366Y021763D02*
X038473Y021657D01*
X038366Y021763D02*
Y025171D01*
X038479Y025283D01*
X039508Y027274D02*
X03997D01*
X042508Y026394D02*
X042559Y026343D01*
X03997Y027274D02*
X040071Y027374D01*
Y027709D01*
X04137Y026533D02*
Y027709D01*
Y026533D02*
X041508Y026394D01*
X042508D01*
X042559Y024803D02*
Y026343D01*
X036014Y015239D02*
X037627D01*
X035728Y015256D02*
X036014D01*
X035623Y015361D02*
X035728Y015256D01*
X035623Y015361D02*
Y016294D01*
X035387Y013713D02*
X038067D01*
X035226Y013873D02*
X035387Y013713D01*
X035226Y013873D02*
Y015256D01*
X034816Y013897D02*
X035138Y013575D01*
X038089Y016026D02*
Y018188D01*
Y01505D02*
Y016026D01*
X038072Y016043D02*
X038089Y016026D01*
X036014Y016043D02*
X038072D01*
X035727Y016398D02*
X037837D01*
X035623Y016294D02*
X035727Y016398D01*
X034791Y018062D02*
X035919D01*
X036014Y017967D01*
Y017618D02*
Y017967D01*
Y016831D02*
X036475D01*
Y0182D02*
X036564Y018111D01*
X036475Y016831D02*
X036564Y01692D01*
Y018111D01*
X037294Y027523D02*
X037389Y027618D01*
X036017Y027523D02*
X037294D01*
X036178Y0304D02*
X037976D01*
X036017Y03024D02*
X036178Y0304D01*
X036017Y028311D02*
Y03024D01*
X03523Y028311D02*
Y02997D01*
X035088Y030111D02*
X03523Y02997D01*
X033346Y030111D02*
X035088D01*
X036978Y01797D02*
Y018878D01*
X036803Y019053D02*
X036978Y018878D01*
X035623Y019053D02*
X036803D01*
X026354Y021909D02*
X026749D01*
X026749Y021909D02*
X026821D01*
X026749Y021909D02*
X026749Y021909D01*
X018593Y020433D02*
X024173D01*
X024173Y020138D02*
X024173Y020138D01*
X017566Y020138D02*
X024173D01*
X017439Y020264D02*
X017566Y020138D01*
X019547Y017409D02*
X019646Y017507D01*
X019547Y016791D02*
Y017409D01*
Y016791D02*
X019744Y016594D01*
X024272Y016738D02*
Y018179D01*
X024173Y016639D02*
X024272Y016738D01*
X024173Y016319D02*
Y016639D01*
X017498Y02338D02*
X017927D01*
X017394Y023484D02*
X017498Y02338D01*
X016783Y023484D02*
X017394D01*
X017427Y024103D02*
X017525Y024004D01*
X01685Y024103D02*
X017427D01*
X016626Y023878D02*
X01685Y024103D01*
X016157Y023878D02*
X016157Y023878D01*
X013396Y023878D02*
X016157D01*
X016586Y023287D02*
X016783Y023484D01*
X013541Y023287D02*
X016586D01*
X016546Y022106D02*
X016743Y022303D01*
X013888Y022106D02*
X016546D01*
X016743Y022303D02*
X017268D01*
X019646Y017507D02*
Y017894D01*
X027039Y020335D02*
X027465D01*
X026842Y020138D02*
X027039Y020335D01*
X026244Y020138D02*
X026842D01*
X027465Y020335D02*
X029382D01*
X027465Y020335D02*
X027465Y020335D01*
X02497Y023484D02*
X025567D01*
X024855Y023369D02*
X02497Y023484D01*
X024855Y022402D02*
Y023369D01*
X026124Y023386D02*
X026516D01*
X026026Y023484D02*
X026124Y023386D01*
X02589Y023484D02*
X026026D01*
X026214Y023091D02*
X026354D01*
X026115Y023189D02*
X026214Y023091D01*
X025728Y023189D02*
X026115D01*
X027024Y023287D02*
X028839D01*
X026827Y023091D02*
X027024Y023287D01*
X026354Y023091D02*
X026827D01*
X027024Y022697D02*
X027465D01*
X026827Y0225D02*
X027024Y022697D01*
X026244Y0225D02*
X026827D01*
X027465Y022697D02*
X028789D01*
X027465Y022697D02*
X027465Y022697D01*
X026821Y021909D02*
X027018Y022106D01*
X026354Y021909D02*
X026354Y021909D01*
X026179Y021909D02*
X026354D01*
X027018Y022106D02*
X027362D01*
X030485Y022172D02*
X030522D01*
X030457D02*
X030485D01*
X030522Y022136D01*
X030472Y022185D02*
X030485Y022172D01*
X030404Y022136D02*
X030522D01*
X03099Y022057D02*
X031201D01*
X030862Y022185D02*
X03099Y022057D01*
X030502Y022185D02*
X030862D01*
X029978Y022972D02*
X030472D01*
X030453Y023878D02*
X030472Y023858D01*
X029911Y022906D02*
X029978Y022972D01*
X029911Y023967D02*
Y025039D01*
X03Y023878D02*
X030453D01*
X029911Y023967D02*
X03Y023878D01*
X031752Y022057D02*
Y02452D01*
X031626Y024646D02*
X031752Y02452D01*
X030473Y024646D02*
X031626D01*
X039557Y02477D02*
X040071Y025283D01*
X019744Y014078D02*
Y016594D01*
X019646Y017894D02*
Y017922D01*
X020827Y017894D02*
Y017922D01*
Y017577D02*
Y017894D01*
X020925Y014211D02*
Y016604D01*
X020728Y016801D02*
X020925Y016604D01*
X020728Y016801D02*
Y017479D01*
X021417Y017894D02*
Y017922D01*
Y017609D02*
Y017894D01*
X021516Y014338D02*
Y016594D01*
X021319Y016791D02*
X021516Y016594D01*
X021319Y016791D02*
Y01751D01*
X022697Y014176D02*
Y016614D01*
X0225Y016811D02*
X022697Y016614D01*
X0225Y016811D02*
Y017479D01*
X023878Y014319D02*
Y016584D01*
X023681Y016781D02*
X023878Y016584D01*
X023681Y016781D02*
Y017479D01*
X022598Y017894D02*
Y017922D01*
X022008Y017894D02*
Y017922D01*
X016319Y017603D02*
X016415Y017507D01*
X019134D01*
X019232Y017605D01*
X016319Y017603D02*
Y019449D01*
X019232Y018218D02*
X019341Y018327D01*
X024124D01*
X025728Y019646D02*
X025773Y019601D01*
X024124Y018327D02*
X024272Y018179D01*
X025728Y023807D02*
X025731Y023805D01*
X019232Y017605D02*
Y018218D01*
X025689Y023189D02*
X025728D01*
X021713Y026201D02*
Y026821D01*
X021516Y027018D02*
X021713Y026821D01*
X021516Y027018D02*
Y029987D01*
X018417Y014964D02*
Y017233D01*
X018339Y017311D02*
X018417Y017233D01*
X017106Y017311D02*
X018339D01*
X025017Y030214D02*
Y031432D01*
X024464Y031985D02*
X025017Y031432D01*
Y030214D02*
X025469Y029763D01*
X025728Y020827D02*
X026101D01*
X039036Y011172D02*
Y012926D01*
X038956Y011091D02*
X039036Y011172D01*
X021211Y011091D02*
X038956D01*
X038067Y0148D02*
X039999D01*
X037627Y015239D02*
X038067Y0148D01*
X038202Y014937D02*
X040948D01*
X038089Y01505D02*
X038202Y014937D01*
X032383Y015964D02*
Y019635D01*
X032218Y0198D02*
X032383Y019635D01*
X031282Y0198D02*
X032218D01*
X029689Y01874D02*
X029962Y019013D01*
X030494D01*
X031282Y018337D02*
X031665Y017954D01*
X031282Y018337D02*
Y019013D01*
X031201Y021881D02*
Y022057D01*
X030984Y021665D02*
X031201Y021881D01*
X030984Y020885D02*
Y021665D01*
Y020885D02*
X031282Y020588D01*
X031752Y021457D02*
Y022057D01*
X031684Y021389D02*
X031752Y021457D01*
X031295Y021389D02*
X031684D01*
X031282Y021375D02*
X031295Y021389D01*
X030846Y019492D02*
Y021657D01*
X02997Y021772D02*
X030731D01*
X030846Y021657D01*
Y019492D02*
X030968Y01937D01*
X032215Y01701D02*
Y019247D01*
X032092Y01937D02*
X032215Y019247D01*
X030968Y01937D02*
X032092D01*
X029632Y018878D02*
X030494Y01974D01*
Y0198D01*
X030049Y020527D02*
X03011Y020588D01*
X030494D01*
X029911Y019546D02*
Y021307D01*
X029979Y021375D01*
X030494D01*
X029911Y021831D02*
X02997Y021772D01*
X025416Y020827D02*
X025728D01*
X015214Y026329D02*
X015285Y0264D01*
X014902Y026329D02*
X015214D01*
X015285Y0264D02*
Y028146D01*
X040341Y011229D02*
Y0124D01*
X03921Y010816D02*
X039491Y011097D01*
X040208D02*
X040341Y011229D01*
X039491Y011097D02*
X040208D01*
X012465Y029849D02*
Y030985D01*
X012327Y029711D02*
X012465Y029849D01*
X011359Y029711D02*
X012327D01*
X011359Y028287D02*
X015144D01*
X015285Y028146D01*
X01123Y028416D02*
X011359Y028287D01*
X01123Y028416D02*
Y029582D01*
X011359Y029711D01*
X011624Y030894D02*
X011715Y030985D01*
X012465D01*
X010787Y030894D02*
X011624D01*
X037976Y0304D02*
X038091Y030515D01*
Y032338D01*
X033081Y032421D02*
X038007D01*
X038091Y032338D01*
X038126Y032559D02*
X038228Y032456D01*
X032632Y032559D02*
X038126D01*
X038553Y030072D02*
Y030669D01*
X038479Y029998D02*
X038553Y030072D01*
X037648Y029998D02*
X038479D01*
X038039Y01937D02*
X040138D01*
X037952Y019283D02*
X038039Y01937D01*
X037952Y016513D02*
Y019283D01*
X042503Y024747D02*
X042559Y024803D01*
X040561Y023644D02*
Y025891D01*
X04185Y020326D02*
Y022864D01*
Y019439D02*
Y020326D01*
Y019439D02*
X041919Y01937D01*
X041552Y023163D02*
X04185Y022864D01*
X041552Y023163D02*
Y024557D01*
X041742Y024747D01*
X042503D01*
X039363Y03151D02*
X040294D01*
X039071Y022314D02*
X040071Y023314D01*
X040561Y021279D02*
X040925D01*
X040482Y021358D02*
Y023565D01*
Y021358D02*
X040561Y021279D01*
X040482Y023565D02*
X040561Y023644D01*
X041299Y021339D02*
Y02215D01*
X041358Y02128D02*
X041634D01*
X041299Y021339D02*
X041358Y02128D01*
X041253Y022196D02*
X041299Y02215D01*
X040718Y022196D02*
X041253D01*
X041552Y022628D02*
X041634Y022546D01*
Y022196D02*
Y022546D01*
X040718Y022628D02*
X041552D01*
X017106Y020264D02*
X017439D01*
X040314Y020337D02*
Y020721D01*
X040138Y020898D02*
X040314Y020721D01*
X040138Y020898D02*
Y021279D01*
X040314Y020337D02*
X040325Y020326D01*
X04062Y016839D02*
Y01686D01*
Y016839D02*
X040799Y016659D01*
X040407Y016542D02*
Y017266D01*
X040283Y016417D02*
X040407Y016542D01*
Y017266D02*
X040464Y017323D01*
X040799Y016063D02*
Y016659D01*
X0422Y017737D02*
X042208D01*
X03936Y016417D02*
X040283D01*
X0393Y016357D02*
X03936Y016417D01*
X0393Y016064D02*
Y016357D01*
X040464Y017323D02*
X041185D01*
X041113Y020326D02*
X04185D01*
X041919Y01937D02*
X04235D01*
X041799Y016063D02*
Y016291D01*
X041741Y01635D02*
X041799Y016291D01*
X041117Y01635D02*
X041741D01*
X04105Y016283D02*
X041117Y01635D01*
X04105Y015039D02*
Y016283D01*
X032475Y032402D02*
X032632Y032559D01*
X017148Y010816D02*
X03921D01*
X039799Y012402D02*
X040339D01*
X040341Y0124D01*
X039751Y01245D02*
X039799Y012402D01*
X039465Y01245D02*
X039751D01*
X0117Y014331D02*
Y015315D01*
X023994Y014202D02*
X028757D01*
X023878Y014319D02*
X023994Y014202D01*
X023405Y014065D02*
X028699D01*
X023287Y014183D02*
X023405Y014065D01*
X023287Y014183D02*
Y016595D01*
X022598Y017577D02*
Y017894D01*
X022946Y013927D02*
X028642D01*
X022697Y014176D02*
X022946Y013927D01*
X022008Y017479D02*
Y017894D01*
X037475Y012665D02*
X038257D01*
X038473Y01245D02*
X038677D01*
X038257Y012665D02*
X038473Y01245D01*
X025567Y023484D02*
X025567Y023484D01*
X02589D01*
X02589Y023484D01*
X026354Y023091D02*
X026354Y023091D01*
X03005Y017972D02*
X030256D01*
X029696Y018327D02*
X03005Y017972D01*
X025151Y018327D02*
X029696D01*
X025266Y018602D02*
X029961D01*
X030044Y018519D01*
X030233D01*
X030256Y018496D01*
X03Y018239D02*
X030257D01*
X029774Y018465D02*
X03Y018239D01*
X025208Y018465D02*
X029774D01*
X024441Y019037D02*
Y020868D01*
Y019037D02*
X025151Y018327D01*
X031665Y017421D02*
Y017954D01*
X031624Y01738D02*
X031665Y017421D01*
X025323Y01874D02*
X029689D01*
X02538Y018878D02*
X029632D01*
X029575Y019016D02*
X030049Y019489D01*
X025437Y019016D02*
X029575D01*
X029518Y019154D02*
X029911Y019546D01*
X025494Y019154D02*
X029518D01*
X024855Y019208D02*
X025323Y01874D01*
X025293Y019355D02*
X025494Y019154D01*
X024717Y019151D02*
X025266Y018602D01*
X025017Y01924D02*
X02538Y018878D01*
X025155Y019297D02*
X025437Y019016D01*
X029715Y015846D02*
Y016702D01*
X031908D01*
X028789D02*
X029715D01*
X031908D02*
X032215Y01701D01*
X032264Y015845D02*
X032383Y015964D01*
X031624Y015845D02*
X032264D01*
X030049Y019489D02*
Y020527D01*
X024579Y019094D02*
X025208Y018465D01*
X024579Y019094D02*
Y020925D01*
X024717Y019151D02*
Y020982D01*
X024855Y019208D02*
Y021705D01*
X025017Y01924D02*
Y021485D01*
X025155Y019297D02*
Y020982D01*
X025293Y019355D02*
Y020704D01*
X01423Y025567D02*
X014873D01*
X014114Y025682D02*
X01423Y025567D01*
X014114Y025682D02*
Y026329D01*
X041299Y014984D02*
Y016063D01*
X039999Y0148D02*
X040002Y014797D01*
X041112D01*
X041299Y014984D01*
X040948Y014937D02*
X04105Y015039D01*
X038263Y016172D02*
X038372Y016063D01*
X03874D02*
X0388Y016003D01*
X03874Y016063D02*
X038799D01*
X038372D02*
X03874D01*
X038263Y016172D02*
Y017236D01*
X041185Y017323D02*
X041208Y0173D01*
X039299Y016063D02*
X0393Y016064D01*
X037837Y016398D02*
X037952Y016513D01*
X038263Y017236D02*
X038327Y0173D01*
X041208D02*
X042116D01*
X042208Y017392D02*
Y017677D01*
X0422Y017685D02*
X042208Y017677D01*
X042116Y0173D02*
X042208Y017392D01*
X038327Y0173D02*
X038677D01*
Y017691D01*
Y0173D02*
X039672D01*
X038677Y017691D02*
X038803D01*
X038092Y01819D02*
Y018376D01*
X03826Y018543D02*
X040138D01*
X038092Y018376D02*
X03826Y018543D01*
X038089Y018188D02*
X038092Y01819D01*
X040925Y01937D02*
X041563D01*
X040925Y018543D02*
X041565D01*
X019449Y016319D02*
Y016347D01*
X017467Y02378D02*
X017566Y023681D01*
X017134Y02378D02*
X017467D01*
X013403Y02315D02*
X013541Y023287D01*
X013403Y013697D02*
Y02315D01*
X013145Y023628D02*
X013396Y023878D01*
X013145Y013346D02*
Y023628D01*
X029715Y015315D02*
Y015846D01*
X030502D02*
X030503Y015845D01*
X031624D01*
X030522Y022136D02*
X030551Y022106D01*
X032383Y01563D02*
X033006D01*
X029773Y015256D02*
X032009D01*
X032383Y01563D01*
X03206Y029934D02*
X033169D01*
X034737Y030387D02*
X035Y03065D01*
X033207Y030387D02*
X034737D01*
X03303Y03021D02*
X033207Y030387D01*
X031857Y03021D02*
X03303D01*
X034015Y030525D02*
X034475Y030985D01*
X03315Y030525D02*
X034015D01*
X032973Y030348D02*
X03315Y030525D01*
X0318Y030348D02*
X032973D01*
Y030573D02*
Y031487D01*
X032885Y030485D02*
X032973Y030573D01*
X03171Y030485D02*
X032885D01*
X033264Y030249D02*
X034924D01*
X033169Y029934D02*
X033346Y030111D01*
X029911Y021831D02*
Y022906D01*
X029911Y02504D02*
Y029448D01*
X029911Y025039D02*
X029911Y02504D01*
Y029448D02*
X030047Y029584D01*
X030717D01*
X030809Y029676D01*
X031802D01*
X03206Y029934D01*
X029075Y029781D02*
X02995Y030656D01*
X029977Y030273D02*
X02998Y030276D01*
X028475Y030985D02*
X028937Y030522D01*
X02999Y029722D02*
X030552D01*
X028967Y022106D02*
X029222Y022362D01*
X029486Y019744D02*
X029773Y020031D01*
X029933Y02986D02*
X030494D01*
X029819Y030135D02*
X03038D01*
X02998Y030276D02*
X030326D01*
X028839Y023287D02*
X028937Y023386D01*
X028563Y030531D02*
X028799Y030295D01*
X03045Y0304D02*
X03135D01*
X029241Y020929D02*
X029498Y021185D01*
X029635Y029562D02*
X029933Y02986D01*
X029382Y020335D02*
X029635Y020588D01*
X029762Y030273D02*
X029977D01*
X028632Y023878D02*
X028799Y024045D01*
X028789Y022697D02*
X029075Y022982D01*
X030326Y030276D02*
X03045Y0304D01*
X029876Y029998D02*
X030437D01*
X028377Y031083D02*
X028475Y030985D01*
X02936Y029676D02*
X029819Y030135D01*
X029257Y021516D02*
X02936Y021619D01*
X029222Y029733D02*
X029762Y030273D01*
X029498Y029619D02*
X029876Y029998D01*
X029773Y029505D02*
X02999Y029722D01*
X035225Y03055D02*
X03704D01*
X029218Y013546D02*
X034777D01*
X03499Y01215D02*
Y013333D01*
X034777Y013546D02*
X03499Y013333D01*
X034816Y013702D02*
X035081Y013437D01*
X029257Y013702D02*
X034816D01*
X035081Y013437D02*
X036288D01*
X023189Y017577D02*
Y017894D01*
X039174Y012826D02*
X039225Y012877D01*
X041611D01*
X044226D01*
X044276Y012826D01*
Y0124D02*
Y012826D01*
X033086Y0182D02*
X036475D01*
X033967Y017815D02*
X034544D01*
X034791Y018062D01*
X036144Y017528D02*
Y017618D01*
X03301Y017811D02*
Y018125D01*
X033086Y0182D01*
X029715Y015315D02*
X029773Y015256D01*
X029715Y016702D02*
Y017401D01*
X029714Y017401D02*
X029715Y017401D01*
X030523Y01738D02*
X031624D01*
X035138Y013575D02*
X037992D01*
X038189Y013378D01*
X038067Y013713D02*
X038327Y013453D01*
X036288Y013437D02*
X036475Y01325D01*
X038898Y013064D02*
X039036Y012926D01*
X038409Y013064D02*
X038898D01*
X038798Y012926D02*
X038898Y012826D01*
X038317Y012926D02*
X038798D01*
X038189Y013054D02*
X038317Y012926D01*
X038327Y013146D02*
X038409Y013064D01*
X038327Y013146D02*
Y013453D01*
X038189Y013054D02*
Y013378D01*
X02378Y017577D02*
Y017894D01*
X040407Y01551D02*
X040718D01*
X040299Y015618D02*
X040407Y01551D01*
X040299Y015618D02*
Y016063D01*
X040708Y015175D02*
X040718Y015165D01*
X039999Y015175D02*
X040708D01*
X039799Y015375D02*
X039999Y015175D01*
X039799Y015375D02*
Y016063D01*
X038898Y011291D02*
Y012826D01*
X012933Y029528D02*
Y032304D01*
X012725Y029319D02*
X012933Y029528D01*
X0117Y029319D02*
X012725D01*
X031131Y021329D02*
X031177Y021375D01*
X012465Y012665D02*
X013145Y013346D01*
X013954Y013937D02*
X014195Y013695D01*
X013954Y020703D02*
X014176Y020925D01*
X01423Y01422D02*
X014479Y013971D01*
X01423Y019353D02*
X014621Y019744D01*
X013403Y013697D02*
X01395Y01315D01*
X013541Y013754D02*
X014095Y0132D01*
X013541Y022428D02*
X013809Y022697D01*
X013816Y01388D02*
X01422Y013476D01*
X013816Y021192D02*
X01414Y021516D01*
X013678Y013823D02*
X014163Y013338D01*
X013678Y021897D02*
X013888Y022106D01*
X014092Y014108D02*
X014367Y013833D01*
X014092Y020053D02*
X014374Y020335D01*
X01423Y01422D02*
Y019353D01*
X014092Y014108D02*
Y020053D01*
X013954Y013937D02*
Y020703D01*
X013816Y01388D02*
Y021192D01*
X013678Y013823D02*
Y021897D01*
X013541Y013754D02*
Y022428D01*
X038556Y030672D02*
Y031486D01*
X038553Y030669D02*
X038556Y030672D01*
X026007Y012133D02*
Y01308D01*
X022643Y013238D02*
X02585D01*
X026007Y01308D01*
X02335Y01219D02*
X023464Y012075D01*
X022108Y01219D02*
X02335D01*
X021965Y012333D02*
X022108Y01219D01*
X023464Y011665D02*
Y012075D01*
X021965Y012333D02*
Y01332D01*
X021854Y013431D02*
X021965Y01332D01*
X019988Y013431D02*
X021854D01*
X019931Y013294D02*
X021288D01*
X021465Y013117D01*
Y012665D02*
Y013117D01*
X019335Y013695D02*
X01995Y01308D01*
Y01218D02*
Y01308D01*
X014195Y013695D02*
X019335D01*
X019392Y013833D02*
X019931Y013294D01*
X014367Y013833D02*
X019392D01*
X020115Y013707D02*
X022174D01*
X019744Y014078D02*
X020115Y013707D01*
X020054Y013569D02*
X022117D01*
X019449Y014174D02*
X020054Y013569D01*
X019449Y014174D02*
Y016319D01*
X027659Y021516D02*
X029257D01*
X028075Y020929D02*
X029241D01*
X027303Y019744D02*
X029486D01*
X02069Y010954D02*
X039036D01*
X021901Y011229D02*
X038836D01*
X021465Y011665D02*
X021901Y011229D01*
X020976Y011326D02*
X021211Y011091D01*
X020976Y011326D02*
Y012154D01*
X020465Y011179D02*
X02069Y010954D01*
X020465Y011179D02*
Y011665D01*
X01695Y011013D02*
X017148Y010816D01*
X01695Y011013D02*
Y011869D01*
X023878Y028661D02*
Y031571D01*
Y027022D02*
Y028661D01*
X024682D01*
X025469D02*
Y029763D01*
X025574Y027102D02*
X028535D01*
X025571Y027431D02*
X028533D01*
X02853Y028051D02*
X028533Y028054D01*
X025571Y028051D02*
X02853D01*
X025571Y027766D02*
X028533D01*
X012264Y024311D02*
X014793D01*
X012264Y024311D02*
X012264Y024311D01*
X014793D02*
X014872Y02439D01*
X016713Y014964D02*
X017629D01*
X017629Y014964D01*
X019843Y026133D02*
X019941Y026231D01*
X019843Y025756D02*
Y026133D01*
Y025728D02*
Y025756D01*
X020335Y026965D02*
Y029664D01*
Y026965D02*
X020531Y026769D01*
Y026231D02*
Y026769D01*
X020433Y026133D02*
X020531Y026231D01*
X020433Y025728D02*
Y026133D01*
X020921Y027022D02*
X021122Y026821D01*
Y02624D02*
Y026821D01*
X021024Y026141D02*
X021122Y02624D01*
X021024Y025756D02*
Y026141D01*
X021614Y026102D02*
X021713Y026201D01*
X021614Y025728D02*
Y026102D01*
X022106Y026998D02*
X022303Y026802D01*
Y02625D02*
Y026802D01*
X022205Y026152D02*
X022303Y02625D01*
X022205Y025756D02*
Y026152D01*
X022697Y027051D02*
X022894Y026854D01*
Y0264D02*
Y026854D01*
Y0264D02*
X022894Y0264D01*
Y02621D02*
Y0264D01*
X022801Y026117D02*
X022894Y02621D01*
X022801Y025734D02*
Y026117D01*
X023287Y026963D02*
Y030162D01*
Y026963D02*
X023484Y026766D01*
Y026189D02*
Y026766D01*
X023386Y02609D02*
X023484Y026189D01*
X023386Y025756D02*
Y02609D01*
X023878Y027022D02*
X024075Y026825D01*
Y0262D02*
Y026825D01*
X023976Y026102D02*
X024075Y0262D01*
X023976Y025728D02*
Y026102D01*
X033006Y01563D02*
X033793D01*
X024464Y031985D02*
X024469Y031989D01*
Y032431D01*
X024537Y0325D01*
X028377Y031083D02*
Y031383D01*
X027992Y031768D02*
X028377Y031383D01*
X027992Y031768D02*
Y032411D01*
X024537Y0325D02*
X027904D01*
X027992Y032411D01*
X0438Y033237D02*
X04423D01*
X044276Y033191D01*
X030552Y029722D02*
X030666Y029837D01*
X030494Y02986D02*
X030609Y029974D01*
X027112Y030531D02*
X028563D01*
X026925Y030719D02*
X027112Y030531D01*
X032475Y031985D02*
Y032402D01*
X032953Y031871D02*
Y032293D01*
X033081Y032421D01*
X032953Y031871D02*
X033425Y031398D01*
Y031034D02*
Y031398D01*
Y031034D02*
X033475Y030985D01*
X027141Y023878D02*
X027465D01*
Y023878D02*
X028632D01*
X026925Y030719D02*
Y031575D01*
X02995Y030656D02*
Y031509D01*
X030437Y029998D02*
X030552Y030112D01*
X030666Y029837D02*
X031715D01*
X030552Y030112D02*
X031565D01*
X030609Y029974D02*
X031622D01*
X03038Y030135D02*
X030495Y03025D01*
X027362Y022106D02*
X028967D01*
X026969Y020925D02*
X028071D01*
X028075Y020929D01*
X03499Y01215D02*
X035475Y011665D01*
X038677Y011572D02*
Y01245D01*
X026207Y023681D02*
X026799D01*
X026083Y023805D02*
X026207Y023681D01*
X025731Y023805D02*
X026083D01*
X026799Y023681D02*
X026996Y023878D01*
X013809Y022697D02*
X016157D01*
X013179Y032551D02*
X017899D01*
X012933Y032304D02*
X013179Y032551D01*
X022697Y027051D02*
Y030181D01*
X022106Y026998D02*
Y030121D01*
X020921Y027022D02*
Y027137D01*
X020925Y027141D01*
Y029888D01*
X019744Y02725D02*
Y029613D01*
Y02725D02*
X019744Y02725D01*
Y027062D02*
Y02725D01*
Y027062D02*
X019941Y026865D01*
Y026231D02*
Y026865D01*
X021379Y030124D02*
X021516Y029987D01*
X020827Y029987D02*
X020925Y029888D01*
X019602Y030262D02*
X021965D01*
X021025Y030525D02*
X022353D01*
X022795Y025728D02*
X022801Y025734D01*
X022353Y030525D02*
X022697Y030181D01*
X019376Y029849D02*
X02015D01*
X022465Y030985D02*
X023287Y030162D01*
X019043Y029987D02*
X019319Y029711D01*
X019526Y030124D02*
X021379D01*
X019469Y029987D02*
X020827D01*
X021965Y030262D02*
X022106Y030121D01*
X019646Y029711D02*
X019744Y029613D01*
X019319Y029711D02*
X019646D01*
X02015Y029849D02*
X020335Y029664D01*
X023465Y031985D02*
X023878Y031571D01*
X039036Y010954D02*
X039174Y011091D01*
X038836Y011229D02*
X038898Y011291D01*
X039174Y011587D02*
Y012826D01*
Y011091D02*
Y011587D01*
X039189Y011572D01*
X039465D01*
X016563Y012256D02*
X01695Y011869D01*
X016563Y012256D02*
Y012567D01*
X016465Y012665D02*
X016563Y012567D01*
X03397Y01701D02*
X033975Y017014D01*
X03397Y016407D02*
Y01701D01*
X033006Y017019D02*
X03301Y017024D01*
X033006Y016417D02*
Y017019D01*
X036475Y012666D02*
Y01325D01*
X026091Y019646D02*
X026189Y019547D01*
X025728Y019646D02*
X026091D01*
X026145Y020236D02*
X026244Y020138D01*
X025728Y020236D02*
X026145D01*
X026115Y021417D02*
X026214Y021319D01*
X026996Y021516D02*
X027659D01*
X025728Y021417D02*
X026115D01*
X027659Y021516D02*
X027659Y021516D01*
X026179Y021909D02*
Y021912D01*
X026083Y022008D02*
X026179Y021912D01*
X025728Y022008D02*
X026083D01*
X026152Y022591D02*
X026244Y0225D01*
X025735Y022591D02*
X026152D01*
X025728Y022598D02*
X025735Y022591D01*
X027141Y023878D02*
X027141Y023878D01*
X026996Y023878D02*
X027141D01*
X025244Y021713D02*
X026033D01*
X026131Y021614D01*
X026516D01*
X025017Y021485D02*
X025244Y021713D01*
X025295Y021122D02*
X026033D01*
X025155Y020982D02*
X025295Y021122D01*
X026033D02*
X026131Y021024D01*
X026516D01*
X026799Y021319D02*
X026996Y021516D01*
X026214Y021319D02*
X026799D01*
X026772Y020728D02*
X026969Y020925D01*
X0262Y020728D02*
X026772D01*
X026101Y020827D02*
X0262Y020728D01*
X025293Y020704D02*
X025416Y020827D01*
X026803Y019547D02*
X027Y019744D01*
X027303D01*
X027303Y019744D01*
X026189Y019547D02*
X026803D01*
X017428Y019941D02*
X017526Y019843D01*
X016614Y019744D02*
X016811Y019941D01*
X014621Y019744D02*
X016614D01*
X017526Y019843D02*
X017894D01*
X016811Y019941D02*
X017428D01*
X016794Y022894D02*
X017431D01*
X016597Y022697D02*
X016794Y022894D01*
X016157Y022697D02*
X016597D01*
X017431Y022894D02*
X017529Y022795D01*
X016157Y022697D02*
X016157Y022697D01*
X017433Y020531D02*
X017532Y020433D01*
X014374Y020335D02*
X016672D01*
X017532Y020433D02*
X017894D01*
X016757Y021122D02*
X017452D01*
X01656Y020925D02*
X016757Y021122D01*
X014176Y020925D02*
X01656D01*
X01755Y021024D02*
X017866D01*
X017452Y021122D02*
X01755Y021024D01*
X01788Y021038D02*
X017894Y021024D01*
X017452Y021713D02*
X017539Y021625D01*
X01414Y021516D02*
X016508D01*
X017539Y021625D02*
X017883D01*
X017894Y021614D01*
X016508Y021516D02*
X016574D01*
X016508Y021516D02*
X016508Y021516D01*
X017268Y022303D02*
X017413D01*
X017512Y022205D01*
X017894D01*
X017268Y022303D02*
X017268Y022303D01*
X017529Y022795D02*
X017894D01*
X016574Y021516D02*
X01677Y021713D01*
X017452D01*
X016869Y020531D02*
X017433D01*
X016672Y020335D02*
X016869Y020531D01*
X034924Y030249D02*
X035225Y03055D01*
X035Y03065D02*
Y03151D01*
X017899Y032551D02*
X018465Y031985D01*
X010787Y013543D02*
X0117D01*
X020465Y012665D02*
X020976Y012154D01*
X035Y03151D02*
X035475Y031985D01*
X0438Y03245D02*
Y032754D01*
X043754Y0328D02*
X0438Y032754D01*
X0431Y0328D02*
X043754D01*
X043004Y032896D02*
X0431Y0328D01*
X043004Y032896D02*
Y033244D01*
X023681Y017479D02*
X02378Y017577D01*
X023091Y016791D02*
X023287Y016595D01*
X023091Y016791D02*
Y017479D01*
X023189Y017577D01*
X0225Y017479D02*
X022598Y017577D01*
X021909Y01738D02*
X022008Y017479D01*
X021909Y017296D02*
Y01738D01*
X022106Y014554D02*
Y016607D01*
X021909Y016804D02*
X022106Y016607D01*
X021909Y016804D02*
Y017296D01*
X021909Y017296D01*
X020728Y017479D02*
X020827Y017577D01*
X020138Y016791D02*
Y0175D01*
Y016791D02*
X020335Y016595D01*
X020138Y0175D02*
X020236Y017598D01*
X020335Y013975D02*
Y016595D01*
X021319Y01751D02*
X021417Y017609D01*
X020236Y017598D02*
Y017922D01*
X022106Y014554D02*
X022872Y013789D01*
X028585D01*
X022815Y013651D02*
X028528D01*
X022345Y01412D02*
X022815Y013651D01*
X021734Y01412D02*
X022345D01*
X022758Y013513D02*
X028387D01*
X022288Y013983D02*
X022758Y013513D01*
X021153Y013983D02*
X022288D01*
X0227Y013376D02*
X026774D01*
X022231Y013845D02*
X0227Y013376D01*
X020465Y013845D02*
X022231D01*
X021516Y014338D02*
X021734Y01412D01*
X020925Y014211D02*
X021153Y013983D01*
X020335Y013975D02*
X020465Y013845D01*
X022174Y013707D02*
X022643Y013238D01*
X022117Y013569D02*
X022586Y0131D01*
X014479Y013971D02*
X019449D01*
X019988Y013431D01*
X022586Y0131D02*
X02504D01*
X026774Y013376D02*
X027475Y012675D01*
X028528Y013651D02*
X029079Y0131D01*
X028757Y014202D02*
X029257Y013702D01*
X028699Y014065D02*
X029218Y013546D01*
X028642Y013927D02*
X029161Y013409D01*
X028387Y013513D02*
X02895Y01295D01*
X028585Y013789D02*
X029104Y013271D01*
X026007Y012133D02*
X026475Y011665D01*
X02504Y0131D02*
X025475Y012665D01*
X029104Y013271D02*
X031779D01*
X03195Y0131D01*
Y01219D02*
Y0131D01*
Y01219D02*
X032475Y011665D01*
X02095Y0306D02*
X021025Y030525D01*
X02095Y0306D02*
Y031499D01*
X013465Y030481D02*
Y030985D01*
Y030481D02*
X013603Y030342D01*
X016318D01*
X016455Y030205D01*
X0177D01*
X017918Y029987D01*
X019043D01*
X01495Y030675D02*
X015144Y030481D01*
X016375D02*
X016512Y030343D01*
X015144Y030481D02*
X016375D01*
X01495Y030675D02*
Y031499D01*
X016512Y030343D02*
X017819D01*
X018037Y030124D01*
X0191D01*
X019376Y029849D01*
X01645Y0306D02*
Y03097D01*
Y0306D02*
X016569Y030481D01*
X017876D01*
X018095Y030262D01*
X019193D01*
X019469Y029987D01*
X01795Y030675D02*
Y031499D01*
Y030675D02*
X018225Y0304D01*
X01925D01*
X019526Y030124D01*
X019465Y0304D02*
Y030985D01*
Y0304D02*
X019602Y030262D01*
X032475Y031985D02*
X032973Y031487D01*
X03704Y03055D02*
X037475Y030985D01*
X033087Y030072D02*
X033264Y030249D01*
X03195Y030072D02*
X033087D01*
X031715Y029837D02*
X03195Y030072D01*
X031622Y029974D02*
X031857Y03021D01*
X031565Y030112D02*
X0318Y030348D01*
X031475Y03025D02*
X03171Y030485D01*
X030495Y03025D02*
X031475D01*
X031475Y030525D02*
Y030985D01*
X03135Y0304D02*
X031475Y030525D01*
X033475Y012665D02*
Y01325D01*
X033316Y013409D02*
X033475Y01325D01*
X029161Y013409D02*
X033316D01*
X03004Y0131D02*
X030475Y012665D01*
X029079Y0131D02*
X03004D01*
X02895Y01219D02*
Y01295D01*
X027475Y012665D02*
Y012675D01*
X02895Y01219D02*
X029475Y011665D01*
X021024Y025728D02*
Y025756D01*
X022205Y025728D02*
Y025756D01*
X023386Y025728D02*
Y025756D01*
X01995Y01218D02*
X020465Y011665D01*
X01422Y013476D02*
X018184D01*
X014163Y013338D02*
X016862D01*
X014095Y0132D02*
X01495D01*
X01395Y01218D02*
Y01315D01*
X018184Y013476D02*
X018465Y013195D01*
X015465Y012665D02*
Y012685D01*
X016862Y013338D02*
X01695Y01325D01*
X01495Y0132D02*
X015465Y012685D01*
X018465Y012665D02*
Y013195D01*
X01695Y01218D02*
Y01325D01*
Y01218D02*
X017465Y011665D01*
X01395Y01218D02*
X014465Y011665D01*
X014465Y031985D02*
X01495Y031499D01*
X01645Y03097D02*
X016465Y030985D01*
X017465Y031985D02*
X01795Y031499D01*
X020465Y031985D02*
X02095Y031499D01*
X026516Y031985D02*
X026925Y031575D01*
X026475Y031985D02*
X026516D01*
X029475Y031985D02*
X02995Y031509D01*
D13*
X04226Y016898D02*
X042299Y016858D01*
X03934Y030669D02*
Y030839D01*
X039342Y030841D01*
X042299Y016063D02*
X0423Y016064D01*
D15*
X043691Y018188D02*
Y01938D01*
X043489Y016545D02*
Y017986D01*
X043691Y018188D01*
X043494Y031693D02*
X043632Y031831D01*
X043494Y031191D02*
Y031693D01*
Y031191D02*
X043494Y031191D01*
X043489D02*
X043494D01*
X043632Y031831D02*
X044646D01*
X046063Y029626D02*
Y031024D01*
X043806Y029459D02*
X045896D01*
X043691Y028278D02*
Y029343D01*
X045896Y029459D02*
X046063Y029626D01*
X043691Y029343D02*
X043806Y029459D01*
X045435Y031191D02*
X045896D01*
X046063Y031024D01*
X043748Y030392D02*
X0458Y032444D01*
X042115Y030392D02*
X043748D01*
X0458Y032444D02*
Y03295D01*
X0448Y031985D02*
Y03295D01*
X044646Y031831D02*
X0448Y031985D01*
X046654Y029872D02*
X0468Y030018D01*
Y03295D01*
X046654Y024055D02*
Y029872D01*
Y019577D02*
Y024055D01*
X046447Y01937D02*
X046654Y019577D01*
X04543Y01937D02*
X046447D01*
X043767Y024055D02*
X046654D01*
X033319Y025179D02*
X037414D01*
X042941Y027156D02*
Y029055D01*
X0412Y029371D02*
Y030392D01*
X042783Y029213D02*
X042941Y029055D01*
X041358Y029213D02*
X042783D01*
X0412Y029371D02*
X041358Y029213D01*
X042953Y013255D02*
Y016043D01*
X043455Y016545D01*
X043489D01*
Y023777D02*
X043767Y024055D01*
X043489Y02318D02*
Y023777D01*
X043068Y01314D02*
X048023D01*
X04803Y013147D01*
X042953Y013255D02*
X043068Y01314D01*
X010787Y028071D02*
X010926Y027933D01*
X013032Y026079D02*
Y027933D01*
X012264Y025311D02*
X013032Y026079D01*
X033169Y025329D02*
X033319Y025179D01*
X038125Y025891D02*
X040561D01*
X037414Y025179D02*
X038125Y025891D01*
X033169Y025669D02*
Y02626D01*
Y025329D02*
Y025669D01*
X032195D02*
X033169D01*
X032175Y025689D02*
X032195Y025669D01*
X042941Y024469D02*
Y027156D01*
X042756Y024283D02*
X042941Y024469D01*
X042071Y024283D02*
X042756D01*
X014114Y027904D02*
X014902D01*
X040965Y025891D02*
X041934D01*
X040561D02*
X040965D01*
X042071Y025284D02*
Y025754D01*
X041934Y025891D02*
X042071Y025754D01*
X040294Y030382D02*
Y03151D01*
X044271Y022191D02*
X044276Y022196D01*
X04803Y012402D02*
Y013147D01*
X013032Y027933D02*
X014085D01*
X010926D02*
X013032D01*
X039344Y03149D02*
X039363Y03151D01*
X04311Y01185D02*
X046835D01*
X0429Y010628D02*
Y011641D01*
X04311Y01185D01*
X048818Y012402D02*
Y013147D01*
X046835Y01185D02*
X048719D01*
X048818Y011949D01*
X046835Y010628D02*
Y01185D01*
X048818Y011949D02*
Y012402D01*
X039342Y033085D02*
X039344Y033086D01*
X010787Y028071D02*
Y029319D01*
Y030107D02*
X0117D01*
X012264Y024311D02*
Y025311D01*
Y023311D02*
Y024311D01*
Y022311D02*
Y023311D01*
Y021311D02*
Y022311D01*
Y020311D02*
Y021311D01*
Y019311D02*
Y020311D01*
Y018311D02*
Y019311D01*
Y017311D02*
Y018311D01*
D20*
X045632Y01938D02*
D03*
X043691D02*
D03*
X043494Y031191D02*
D03*
X045435D02*
D03*
X042071Y025284D02*
D03*
X025475Y011665D02*
D03*
X024464Y031985D02*
D03*
X037475Y031985D02*
D03*
X012465Y011665D02*
D03*
D21*
X035069Y026053D02*
D03*
Y026801D02*
D03*
X036171Y026427D02*
D03*
D22*
X037008Y026043D02*
D03*
Y026831D02*
D03*
X034026Y027048D02*
D03*
Y02626D02*
D03*
X033169Y02626D02*
D03*
Y027047D02*
D03*
Y028504D02*
D03*
Y027717D02*
D03*
X034022Y0285D02*
D03*
Y027713D02*
D03*
X0438Y033237D02*
D03*
Y03245D02*
D03*
X043004Y033244D02*
D03*
Y032456D02*
D03*
X038677Y017691D02*
D03*
Y016904D02*
D03*
X033967Y017815D02*
D03*
Y017028D02*
D03*
X03301Y017811D02*
D03*
Y017024D02*
D03*
X033006Y01563D02*
D03*
Y016417D02*
D03*
X033976Y01563D02*
D03*
Y016417D02*
D03*
X030472Y022972D02*
D03*
Y022185D02*
D03*
X030473Y023858D02*
D03*
Y024646D02*
D03*
X0117Y013543D02*
D03*
Y014331D02*
D03*
X014873Y025567D02*
D03*
Y024779D02*
D03*
X0117Y030107D02*
D03*
Y029319D02*
D03*
X0422Y016898D02*
D03*
Y017685D02*
D03*
D23*
X035623Y019053D02*
D03*
Y025136D02*
D03*
D24*
X042264Y028278D02*
D03*
X041004D02*
D03*
X042264Y027274D02*
D03*
X041004D02*
D03*
D25*
X040925Y021279D02*
D03*
X040138D02*
D03*
X041565Y018543D02*
D03*
X042352D02*
D03*
X04803Y013147D02*
D03*
X048818D02*
D03*
X038553Y030669D02*
D03*
X03934D02*
D03*
X038556Y031486D02*
D03*
X039344D02*
D03*
X038563Y032287D02*
D03*
X03935D02*
D03*
X038556Y033086D02*
D03*
X039344D02*
D03*
X048818Y012402D02*
D03*
X04803D02*
D03*
X038677Y01245D02*
D03*
X039465D02*
D03*
X038677Y011572D02*
D03*
X039465D02*
D03*
X041563Y01937D02*
D03*
X04235D02*
D03*
X029715Y015846D02*
D03*
X030502D02*
D03*
X029714Y017401D02*
D03*
X030502D02*
D03*
X018417Y014964D02*
D03*
X017629D02*
D03*
X040925Y01937D02*
D03*
X040138D02*
D03*
X040925Y018543D02*
D03*
X040138D02*
D03*
X042421Y022196D02*
D03*
X041634D02*
D03*
X042421Y02128D02*
D03*
X041634D02*
D03*
D26*
X039672Y0173D02*
D03*
X041208D02*
D03*
D27*
X031624Y015845D02*
D03*
Y01738D02*
D03*
D28*
X042299Y016063D02*
D03*
X041799D02*
D03*
X041299D02*
D03*
X040799D02*
D03*
X040299D02*
D03*
X039799D02*
D03*
X039299D02*
D03*
X038799D02*
D03*
Y013937D02*
D03*
X039299D02*
D03*
X039799D02*
D03*
X040299D02*
D03*
X040799D02*
D03*
X041299D02*
D03*
X041799D02*
D03*
X042299D02*
D03*
D29*
X038051Y028278D02*
D03*
X039508D02*
D03*
X038051Y027274D02*
D03*
X039508D02*
D03*
D30*
X0412Y033079D02*
D03*
D31*
X042115Y030392D02*
D03*
X0412D02*
D03*
X040294Y030382D02*
D03*
D61*
X0453Y02505D02*
D03*
Y020326D02*
D03*
Y013691D02*
D03*
Y018415D02*
D03*
D62*
X043489Y022196D02*
D03*
X044276Y02318D02*
D03*
Y022196D02*
D03*
X043489Y02318D02*
D03*
X040071Y024283D02*
D03*
Y025283D02*
D03*
X041071D02*
D03*
Y024283D02*
D03*
X042071Y024283D02*
D03*
X039071Y025283D02*
D03*
Y024283D02*
D03*
X0458Y03295D02*
D03*
X0448D02*
D03*
X043489Y016545D02*
D03*
X044276Y015561D02*
D03*
Y016545D02*
D03*
X043489Y015561D02*
D03*
X011264Y021311D02*
D03*
Y022311D02*
D03*
X012264D02*
D03*
Y023311D02*
D03*
X011264D02*
D03*
X012264Y026311D02*
D03*
X012264Y025311D02*
D03*
X011264D02*
D03*
Y024311D02*
D03*
X012264D02*
D03*
X011264Y020311D02*
D03*
X012264D02*
D03*
Y021311D02*
D03*
Y019311D02*
D03*
X011264D02*
D03*
Y018311D02*
D03*
X012264D02*
D03*
X011264Y017311D02*
D03*
X012264D02*
D03*
X030475Y011665D02*
D03*
X029475D02*
D03*
Y012665D02*
D03*
X028475D02*
D03*
Y011665D02*
D03*
X025475Y012665D02*
D03*
X026475Y012665D02*
D03*
Y011665D02*
D03*
X027475D02*
D03*
Y012665D02*
D03*
X031475Y011665D02*
D03*
Y012665D02*
D03*
X030475D02*
D03*
X032475D02*
D03*
Y011665D02*
D03*
X033475D02*
D03*
Y012665D02*
D03*
X034475Y011665D02*
D03*
Y012665D02*
D03*
X035475Y011665D02*
D03*
Y012665D02*
D03*
X036475Y012666D02*
D03*
Y011666D02*
D03*
X037475Y012665D02*
D03*
Y011665D02*
D03*
X019465Y031985D02*
D03*
X020465D02*
D03*
Y030985D02*
D03*
X021465D02*
D03*
Y031985D02*
D03*
X024464Y030985D02*
D03*
X023465Y030985D02*
D03*
Y031985D02*
D03*
X022465D02*
D03*
Y030985D02*
D03*
X018465Y031985D02*
D03*
Y030985D02*
D03*
X019465D02*
D03*
X017465D02*
D03*
Y031985D02*
D03*
X016465D02*
D03*
Y030985D02*
D03*
X015465Y031985D02*
D03*
Y030985D02*
D03*
X014465Y031985D02*
D03*
Y030985D02*
D03*
X013465Y030985D02*
D03*
Y031985D02*
D03*
X012465Y030985D02*
D03*
Y031985D02*
D03*
X032475Y031985D02*
D03*
X033475D02*
D03*
Y030985D02*
D03*
X034475D02*
D03*
Y031985D02*
D03*
X037475Y030985D02*
D03*
X036475Y030985D02*
D03*
Y031985D02*
D03*
X035475D02*
D03*
Y030985D02*
D03*
X031475Y031985D02*
D03*
Y030985D02*
D03*
X032475D02*
D03*
X030475D02*
D03*
Y031985D02*
D03*
X029475D02*
D03*
Y030985D02*
D03*
X028475Y031985D02*
D03*
Y030985D02*
D03*
X027475Y031985D02*
D03*
Y030985D02*
D03*
X026475Y030985D02*
D03*
Y031985D02*
D03*
X025475Y030985D02*
D03*
Y031985D02*
D03*
X024464Y011665D02*
D03*
Y012665D02*
D03*
X023464Y011665D02*
D03*
Y012665D02*
D03*
X022465Y012665D02*
D03*
Y011665D02*
D03*
X021465Y012665D02*
D03*
Y011665D02*
D03*
X020465Y012665D02*
D03*
Y011665D02*
D03*
X019465D02*
D03*
Y012665D02*
D03*
X017465D02*
D03*
X018465D02*
D03*
Y011665D02*
D03*
X014465Y012665D02*
D03*
Y011665D02*
D03*
X013465D02*
D03*
Y012665D02*
D03*
X012465Y012665D02*
D03*
X015465Y011665D02*
D03*
Y012665D02*
D03*
X016465D02*
D03*
Y011665D02*
D03*
X017465D02*
D03*
D63*
X010787Y030894D02*
D03*
Y030107D02*
D03*
X041113Y020326D02*
D03*
X014902Y027904D02*
D03*
X014114D02*
D03*
Y027116D02*
D03*
X014902D02*
D03*
X014114Y026329D02*
D03*
X036017Y027523D02*
D03*
X03523D02*
D03*
X036017Y028311D02*
D03*
X036014Y017618D02*
D03*
X035226Y016831D02*
D03*
X036014D02*
D03*
Y016043D02*
D03*
X035226D02*
D03*
X035226Y015256D02*
D03*
X036014D02*
D03*
X031282Y021375D02*
D03*
X030494Y020588D02*
D03*
X031282D02*
D03*
Y0198D02*
D03*
X030494D02*
D03*
X030494Y019013D02*
D03*
X031282D02*
D03*
X024682Y028661D02*
D03*
X028789Y015915D02*
D03*
X016713Y014964D02*
D03*
X010787Y014331D02*
D03*
Y013543D02*
D03*
D64*
Y029319D02*
D03*
X028789Y016702D02*
D03*
X010787Y012756D02*
D03*
D65*
X040325Y020326D02*
D03*
X014902Y026329D02*
D03*
X03523Y028311D02*
D03*
X035226Y017618D02*
D03*
X030494Y021375D02*
D03*
X025469Y028661D02*
D03*
X015925Y014964D02*
D03*
D66*
X046063Y028278D02*
D03*
X043691D02*
D03*
D67*
X044872Y030108D02*
D03*
D68*
X0468Y03295D02*
D03*
X011264Y026311D02*
D03*
D69*
X046835Y0124D02*
D03*
Y010628D02*
D03*
X044276Y010628D02*
D03*
X0429Y0124D02*
D03*
Y010628D02*
D03*
X040341Y010628D02*
D03*
D70*
X044276Y0124D02*
D03*
X040341D02*
D03*
D71*
X031201Y022057D02*
D03*
X031752D02*
D03*
D72*
X030404Y028248D02*
D03*
X032175D02*
D03*
X032175Y025689D02*
D03*
D73*
X030404D02*
D03*
D74*
X027303Y024173D02*
D03*
X026516Y023976D02*
D03*
X025728Y02378D02*
D03*
X027303Y023583D02*
D03*
X026516Y023386D02*
D03*
X025728Y023189D02*
D03*
X027303Y022992D02*
D03*
X026516Y022795D02*
D03*
X025728Y022598D02*
D03*
X027303Y022402D02*
D03*
X026516Y022205D02*
D03*
X025728Y022008D02*
D03*
X027303Y021811D02*
D03*
X026516Y021614D02*
D03*
X025728Y021417D02*
D03*
X027303Y02122D02*
D03*
X026516Y021024D02*
D03*
X025728Y020827D02*
D03*
X027303Y02063D02*
D03*
X026516Y020433D02*
D03*
X025728Y020236D02*
D03*
X027303Y020039D02*
D03*
X026516Y019843D02*
D03*
X025728Y019646D02*
D03*
X016319Y024173D02*
D03*
X017894Y023976D02*
D03*
X017106Y02378D02*
D03*
X016319Y023583D02*
D03*
X017894Y023386D02*
D03*
X017106Y023189D02*
D03*
X016319Y022992D02*
D03*
X017894Y022795D02*
D03*
X017106Y022598D02*
D03*
X016319Y022402D02*
D03*
X017894Y022205D02*
D03*
X017106Y022008D02*
D03*
X016319Y021811D02*
D03*
X017894Y021614D02*
D03*
X017106Y021417D02*
D03*
X016319Y02122D02*
D03*
X017894Y021024D02*
D03*
X017106Y020827D02*
D03*
X016319Y02063D02*
D03*
X017894Y020433D02*
D03*
X017106Y020236D02*
D03*
X016319Y020039D02*
D03*
X017894Y019843D02*
D03*
X017106Y019646D02*
D03*
X016319Y019449D02*
D03*
D75*
X027303D02*
D03*
D76*
X024173Y027303D02*
D03*
X023976Y025728D02*
D03*
X02378Y026516D02*
D03*
X023583Y027303D02*
D03*
X023386Y025728D02*
D03*
X023189Y026516D02*
D03*
X022992Y027303D02*
D03*
X022795Y025728D02*
D03*
X022598Y026516D02*
D03*
X022402Y027303D02*
D03*
X022205Y025728D02*
D03*
X022008Y026516D02*
D03*
X021811Y027303D02*
D03*
X021614Y025728D02*
D03*
X021417Y026516D02*
D03*
X02122Y027303D02*
D03*
X021024Y025728D02*
D03*
X020827Y026516D02*
D03*
X02063Y027303D02*
D03*
X020433Y025728D02*
D03*
X020236Y026516D02*
D03*
X020039Y027303D02*
D03*
X019843Y025728D02*
D03*
X019646Y026516D02*
D03*
X019449Y027303D02*
D03*
Y016319D02*
D03*
X019646Y017894D02*
D03*
X019843Y017106D02*
D03*
X020039Y016319D02*
D03*
X020236Y017894D02*
D03*
X020433Y017106D02*
D03*
X02063Y016319D02*
D03*
X020827Y017894D02*
D03*
X021024Y017106D02*
D03*
X02122Y016319D02*
D03*
X021417Y017894D02*
D03*
X021614Y017106D02*
D03*
X021811Y016319D02*
D03*
X022008Y017894D02*
D03*
X022205Y017106D02*
D03*
X022402Y016319D02*
D03*
X022598Y017894D02*
D03*
X022795Y017106D02*
D03*
X022992Y016319D02*
D03*
X023189Y017894D02*
D03*
X023386Y017106D02*
D03*
X023583Y016319D02*
D03*
X02378Y017894D02*
D03*
X023976Y017106D02*
D03*
X024173Y016319D02*
D03*
D77*
X041782Y03151D02*
D03*
X041552Y030985D02*
D03*
X039803Y030994D02*
D03*
X018593Y023839D02*
D03*
Y024252D02*
D03*
X037475Y017972D02*
D03*
Y019744D02*
D03*
X037746Y017972D02*
D03*
Y019744D02*
D03*
X028535Y026766D02*
D03*
X03937Y02188D02*
D03*
X03878Y021881D02*
D03*
X039071D02*
D03*
X040071Y027709D02*
D03*
X04137D02*
D03*
X024173Y020433D02*
D03*
Y020138D02*
D03*
X04062Y01686D02*
D03*
X040718Y022628D02*
D03*
X0117Y015315D02*
D03*
X024855Y022402D02*
D03*
X030256Y017972D02*
D03*
Y018496D02*
D03*
X030257Y018239D02*
D03*
X036978Y01797D02*
D03*
X018593Y020433D02*
D03*
X040294Y03151D02*
D03*
X040718Y022196D02*
D03*
X017106Y017311D02*
D03*
X040718Y01551D02*
D03*
Y015165D02*
D03*
X025574Y027102D02*
D03*
X025571Y027431D02*
D03*
X028533Y028054D02*
D03*
X025571Y028051D02*
D03*
X028533Y027766D02*
D03*
X025571D02*
D03*
X028533Y027431D02*
D03*
X028535Y027102D02*
D03*
X025574Y026766D02*
D03*
X024855Y021705D02*
D03*
M02*
