G04*
G04 #@! TF.GenerationSoftware,Altium Limited,Altium Designer,19.1.7 (138)*
G04*
G04 Layer_Physical_Order=1*
G04 Layer_Color=255*
%FSTAX24Y24*%
%MOIN*%
G70*
G01*
G75*
%ADD11C,0.0100*%
%ADD16C,0.0197*%
%ADD21R,0.0787X0.0591*%
%ADD22R,0.0488X0.0236*%
%ADD23R,0.0236X0.0488*%
%ADD24R,0.0394X0.0630*%
%ADD25R,0.1181X0.0591*%
%ADD26R,0.0276X0.0394*%
%ADD27R,0.0315X0.0630*%
G04:AMPARAMS|DCode=28|XSize=78.7mil|YSize=118.1mil|CornerRadius=19.7mil|HoleSize=0mil|Usage=FLASHONLY|Rotation=0.000|XOffset=0mil|YOffset=0mil|HoleType=Round|Shape=RoundedRectangle|*
%AMROUNDEDRECTD28*
21,1,0.0787,0.0787,0,0,0.0*
21,1,0.0394,0.1181,0,0,0.0*
1,1,0.0394,0.0197,-0.0394*
1,1,0.0394,-0.0197,-0.0394*
1,1,0.0394,-0.0197,0.0394*
1,1,0.0394,0.0197,0.0394*
%
%ADD28ROUNDEDRECTD28*%
%ADD29R,0.0197X0.0315*%
%ADD30R,0.0591X0.0787*%
%ADD60C,0.0079*%
G04:AMPARAMS|DCode=61|XSize=157.5mil|YSize=59.1mil|CornerRadius=14.8mil|HoleSize=0mil|Usage=FLASHONLY|Rotation=180.000|XOffset=0mil|YOffset=0mil|HoleType=Round|Shape=RoundedRectangle|*
%AMROUNDEDRECTD61*
21,1,0.1575,0.0295,0,0,180.0*
21,1,0.1280,0.0591,0,0,180.0*
1,1,0.0295,-0.0640,0.0148*
1,1,0.0295,0.0640,0.0148*
1,1,0.0295,0.0640,-0.0148*
1,1,0.0295,-0.0640,-0.0148*
%
%ADD61ROUNDEDRECTD61*%
G04:AMPARAMS|DCode=62|XSize=157.5mil|YSize=59.1mil|CornerRadius=14.8mil|HoleSize=0mil|Usage=FLASHONLY|Rotation=90.000|XOffset=0mil|YOffset=0mil|HoleType=Round|Shape=RoundedRectangle|*
%AMROUNDEDRECTD62*
21,1,0.1575,0.0295,0,0,90.0*
21,1,0.1280,0.0591,0,0,90.0*
1,1,0.0295,0.0148,0.0640*
1,1,0.0295,0.0148,-0.0640*
1,1,0.0295,-0.0148,-0.0640*
1,1,0.0295,-0.0148,0.0640*
%
%ADD62ROUNDEDRECTD62*%
%ADD63R,0.0591X0.0591*%
%ADD64C,0.0591*%
%ADD65C,0.0512*%
%ADD66R,0.0591X0.0591*%
G04:AMPARAMS|DCode=67|XSize=59.1mil|YSize=137.8mil|CornerRadius=14.8mil|HoleSize=0mil|Usage=FLASHONLY|Rotation=270.000|XOffset=0mil|YOffset=0mil|HoleType=Round|Shape=RoundedRectangle|*
%AMROUNDEDRECTD67*
21,1,0.0591,0.1083,0,0,270.0*
21,1,0.0295,0.1378,0,0,270.0*
1,1,0.0295,-0.0541,-0.0148*
1,1,0.0295,-0.0541,0.0148*
1,1,0.0295,0.0541,0.0148*
1,1,0.0295,0.0541,-0.0148*
%
%ADD67ROUNDEDRECTD67*%
%ADD68C,0.0394*%
%ADD69R,0.0394X0.0394*%
%ADD70O,0.0748X0.0591*%
%ADD71R,0.0748X0.0591*%
%ADD72R,0.0394X0.0394*%
%ADD73O,0.0236X0.0315*%
%ADD74O,0.0591X0.0748*%
%ADD75R,0.0591X0.0748*%
%ADD76O,0.0472X0.0394*%
%ADD77R,0.0472X0.0394*%
%ADD78O,0.0394X0.0472*%
%ADD79C,0.0197*%
D11*
X009988Y0337D02*
X04938D01*
X011042Y011575D02*
X011157Y011552D01*
X011264Y011508D01*
X011361Y011443D01*
X011443Y011361D01*
X011508Y011264D01*
X011552Y011157D01*
X011575Y011042D01*
Y010984D02*
Y011042D01*
Y010926D02*
Y010984D01*
X011552Y010812D02*
X011575Y010926D01*
X011508Y010705D02*
X011552Y010812D01*
X011443Y010608D02*
X011508Y010705D01*
X011361Y010526D02*
X011443Y010608D01*
X011264Y010461D02*
X011361Y010526D01*
X011157Y010416D02*
X011264Y010461D01*
X011042Y010394D02*
X011157Y010416D01*
X010926Y010394D02*
X011042D01*
X010812Y010416D02*
X010926Y010394D01*
X010705Y010461D02*
X010812Y010416D01*
X010608Y010526D02*
X010705Y010461D01*
X010526Y010608D02*
X010608Y010526D01*
X010461Y010705D02*
X010526Y010608D01*
X010416Y010812D02*
X010461Y010705D01*
X010394Y010926D02*
X010416Y010812D01*
X010394Y010926D02*
Y010984D01*
Y011042D01*
X010416Y011157D01*
X010461Y011264D01*
X010526Y011361D01*
X010608Y011443D01*
X010705Y011508D01*
X010812Y011552D01*
X010926Y011575D01*
X011042D01*
X048424D02*
X048538Y011552D01*
X048645Y011508D01*
X048742Y011443D01*
X048824Y011361D01*
X048889Y011264D01*
X048934Y011157D01*
X048956Y011042D01*
Y010984D02*
Y011042D01*
Y010926D02*
Y010984D01*
X048934Y010812D02*
X048956Y010926D01*
X048889Y010705D02*
X048934Y010812D01*
X048824Y010608D02*
X048889Y010705D01*
X048742Y010526D02*
X048824Y010608D01*
X048645Y010461D02*
X048742Y010526D01*
X048538Y010416D02*
X048645Y010461D01*
X048424Y010394D02*
X048538Y010416D01*
X048308Y010394D02*
X048424D01*
X048193Y010416D02*
X048308Y010394D01*
X048086Y010461D02*
X048193Y010416D01*
X047989Y010526D02*
X048086Y010461D01*
X047907Y010608D02*
X047989Y010526D01*
X047842Y010705D02*
X047907Y010608D01*
X047798Y010812D02*
X047842Y010705D01*
X047775Y010926D02*
X047798Y010812D01*
X047775Y010926D02*
Y010984D01*
Y011042D01*
X047798Y011157D01*
X047842Y011264D01*
X047907Y011361D01*
X047989Y011443D01*
X048086Y011508D01*
X048193Y011552D01*
X048308Y011575D01*
X048424D01*
X018299Y018583D02*
X01836Y018571D01*
X018417Y018547D01*
X018468Y018512D01*
X018512Y018468D01*
X018547Y018417D01*
X018571Y01836D01*
X018583Y018299D01*
Y018268D02*
Y018299D01*
Y018237D02*
Y018268D01*
X018571Y018176D02*
X018583Y018237D01*
X018547Y018119D02*
X018571Y018176D01*
X018512Y018067D02*
X018547Y018119D01*
X018468Y018023D02*
X018512Y018067D01*
X018417Y017989D02*
X018468Y018023D01*
X01836Y017965D02*
X018417Y017989D01*
X018299Y017953D02*
X01836Y017965D01*
X018237Y017953D02*
X018299D01*
X018176Y017965D02*
X018237Y017953D01*
X018119Y017989D02*
X018176Y017965D01*
X018067Y018023D02*
X018119Y017989D01*
X018023Y018067D02*
X018067Y018023D01*
X017989Y018119D02*
X018023Y018067D01*
X017965Y018176D02*
X017989Y018119D01*
X017953Y018237D02*
X017965Y018176D01*
X017953Y018237D02*
Y018268D01*
Y018299D01*
X017965Y01836D01*
X017989Y018417D01*
X018023Y018468D01*
X018067Y018512D01*
X018119Y018547D01*
X018176Y018571D01*
X018237Y018583D01*
X018299D01*
X035679Y020974D02*
X035736Y020963D01*
X035789Y020941D01*
X035838Y020908D01*
X035879Y020867D01*
X035911Y020819D01*
X035934Y020765D01*
X035945Y020708D01*
Y020679D02*
Y020708D01*
Y02065D02*
Y020679D01*
X035934Y020593D02*
X035945Y02065D01*
X035911Y020539D02*
X035934Y020593D01*
X035879Y020491D02*
X035911Y020539D01*
X035838Y02045D02*
X035879Y020491D01*
X035789Y020417D02*
X035838Y02045D01*
X035736Y020395D02*
X035789Y020417D01*
X035679Y020384D02*
X035736Y020395D01*
X035621Y020384D02*
X035679D01*
X035563Y020395D02*
X035621Y020384D01*
X03551Y020417D02*
X035563Y020395D01*
X035461Y02045D02*
X03551Y020417D01*
X03542Y020491D02*
X035461Y02045D01*
X035388Y020539D02*
X03542Y020491D01*
X035366Y020593D02*
X035388Y020539D01*
X035354Y02065D02*
X035366Y020593D01*
X035354Y02065D02*
Y020679D01*
Y020708D01*
X035366Y020765D01*
X035388Y020819D01*
X03542Y020867D01*
X035461Y020908D01*
X03551Y020941D01*
X035563Y020963D01*
X035621Y020974D01*
X035679D01*
X021888Y022992D02*
X022042Y022972D01*
X022191Y022932D01*
X022335Y022873D01*
X022469Y022795D01*
X022591Y022701D01*
X022701Y022591D01*
X022795Y022469D01*
X022873Y022335D01*
X022932Y022191D01*
X022972Y022042D01*
X022992Y021888D01*
Y021811D02*
Y021888D01*
Y021734D02*
Y021811D01*
X022972Y02158D02*
X022992Y021734D01*
X022932Y021431D02*
X022972Y02158D01*
X022873Y021288D02*
X022932Y021431D01*
X022795Y021153D02*
X022873Y021288D01*
X022701Y021031D02*
X022795Y021153D01*
X022591Y020921D02*
X022701Y021031D01*
X022469Y020827D02*
X022591Y020921D01*
X022335Y020749D02*
X022469Y020827D01*
X022191Y02069D02*
X022335Y020749D01*
X022042Y02065D02*
X022191Y02069D01*
X021888Y02063D02*
X022042Y02065D01*
X021734Y02063D02*
X021888D01*
X02158Y02065D02*
X021734Y02063D01*
X021431Y02069D02*
X02158Y02065D01*
X021288Y020749D02*
X021431Y02069D01*
X021153Y020827D02*
X021288Y020749D01*
X021031Y020921D02*
X021153Y020827D01*
X020921Y021031D02*
X021031Y020921D01*
X020827Y021153D02*
X020921Y021031D01*
X020749Y021288D02*
X020827Y021153D01*
X02069Y021431D02*
X020749Y021288D01*
X02065Y02158D02*
X02069Y021431D01*
X02063Y021734D02*
X02065Y02158D01*
X02063Y021734D02*
Y021811D01*
Y021888D01*
X02065Y022042D01*
X02069Y022191D01*
X020749Y022335D01*
X020827Y022469D01*
X020921Y022591D01*
X021031Y022701D01*
X021153Y022795D01*
X021288Y022873D01*
X021431Y022932D01*
X02158Y022972D01*
X021734Y022992D01*
X021888D01*
X035697Y023868D02*
X035783Y023832D01*
X03585Y023766D01*
X035886Y023679D01*
Y023632D02*
Y023679D01*
Y023585D02*
Y023632D01*
X03585Y023498D02*
X035886Y023585D01*
X035783Y023432D02*
X03585Y023498D01*
X035697Y023396D02*
X035783Y023432D01*
X035603Y023396D02*
X035697D01*
X035516Y023432D02*
X035603Y023396D01*
X035449Y023498D02*
X035516Y023432D01*
X035413Y023585D02*
X035449Y023498D01*
X035413Y023585D02*
Y023632D01*
Y023679D01*
X035449Y023766D01*
X035516Y023832D01*
X035603Y023868D01*
X035697D01*
X025385Y025669D02*
X025446Y025657D01*
X025504Y025633D01*
X025555Y025599D01*
X025599Y025555D01*
X025633Y025504D01*
X025657Y025446D01*
X025669Y025385D01*
Y025354D02*
Y025385D01*
Y025323D02*
Y025354D01*
X025657Y025262D02*
X025669Y025323D01*
X025633Y025205D02*
X025657Y025262D01*
X025599Y025154D02*
X025633Y025205D01*
X025555Y02511D02*
X025599Y025154D01*
X025504Y025075D02*
X025555Y02511D01*
X025446Y025051D02*
X025504Y025075D01*
X025385Y025039D02*
X025446Y025051D01*
X025323Y025039D02*
X025385D01*
X025262Y025051D02*
X025323Y025039D01*
X025205Y025075D02*
X025262Y025051D01*
X025154Y02511D02*
X025205Y025075D01*
X02511Y025154D02*
X025154Y02511D01*
X025075Y025205D02*
X02511Y025154D01*
X025051Y025262D02*
X025075Y025205D01*
X025039Y025323D02*
X025051Y025262D01*
X025039Y025323D02*
Y025354D01*
Y025385D01*
X025051Y025446D01*
X025075Y025504D01*
X02511Y025555D01*
X025154Y025599D01*
X025205Y025633D01*
X025262Y025657D01*
X025323Y025669D01*
X025385D01*
X047885Y028789D02*
X047984Y02877D01*
X048077Y028731D01*
X048161Y028675D01*
X048232Y028604D01*
X048288Y02852D01*
X048327Y028427D01*
X048346Y028328D01*
Y028278D02*
Y028328D01*
Y028227D02*
Y028278D01*
X048327Y028128D02*
X048346Y028227D01*
X048288Y028035D02*
X048327Y028128D01*
X048232Y027951D02*
X048288Y028035D01*
X048161Y02788D02*
X048232Y027951D01*
X048077Y027824D02*
X048161Y02788D01*
X047984Y027785D02*
X048077Y027824D01*
X047885Y027766D02*
X047984Y027785D01*
X047784Y027766D02*
X047885D01*
X047685Y027785D02*
X047784Y027766D01*
X047592Y027824D02*
X047685Y027785D01*
X047508Y02788D02*
X047592Y027824D01*
X047437Y027951D02*
X047508Y02788D01*
X047381Y028035D02*
X047437Y027951D01*
X047343Y028128D02*
X047381Y028035D01*
X047323Y028227D02*
X047343Y028128D01*
X047323Y028227D02*
Y028278D01*
Y028328D01*
X047343Y028427D01*
X047381Y02852D01*
X047437Y028604D01*
X047508Y028675D01*
X047592Y028731D01*
X047685Y02877D01*
X047784Y028789D01*
X047885D01*
X011042Y033256D02*
X011157Y033234D01*
X011264Y033189D01*
X011361Y033124D01*
X011443Y033042D01*
X011508Y032945D01*
X011552Y032838D01*
X011575Y032724D01*
Y032666D02*
Y032724D01*
Y032608D02*
Y032666D01*
X011552Y032493D02*
X011575Y032608D01*
X011508Y032386D02*
X011552Y032493D01*
X011443Y032289D02*
X011508Y032386D01*
X011361Y032207D02*
X011443Y032289D01*
X011264Y032142D02*
X011361Y032207D01*
X011157Y032098D02*
X011264Y032142D01*
X011042Y032075D02*
X011157Y032098D01*
X010926Y032075D02*
X011042D01*
X010812Y032098D02*
X010926Y032075D01*
X010705Y032142D02*
X010812Y032098D01*
X010608Y032207D02*
X010705Y032142D01*
X010526Y032289D02*
X010608Y032207D01*
X010461Y032386D02*
X010526Y032289D01*
X010416Y032493D02*
X010461Y032386D01*
X010394Y032608D02*
X010416Y032493D01*
X010394Y032608D02*
Y032666D01*
Y032724D01*
X010416Y032838D01*
X010461Y032945D01*
X010526Y033042D01*
X010608Y033124D01*
X010705Y033189D01*
X010812Y033234D01*
X010926Y033256D01*
X011042D01*
X048424D02*
X048538Y033234D01*
X048645Y033189D01*
X048742Y033124D01*
X048824Y033042D01*
X048889Y032945D01*
X048934Y032838D01*
X048956Y032724D01*
Y032666D02*
Y032724D01*
Y032608D02*
Y032666D01*
X048934Y032493D02*
X048956Y032608D01*
X048889Y032386D02*
X048934Y032493D01*
X048824Y032289D02*
X048889Y032386D01*
X048742Y032207D02*
X048824Y032289D01*
X048645Y032142D02*
X048742Y032207D01*
X048538Y032098D02*
X048645Y032142D01*
X048424Y032075D02*
X048538Y032098D01*
X048308Y032075D02*
X048424D01*
X048193Y032098D02*
X048308Y032075D01*
X048086Y032142D02*
X048193Y032098D01*
X047989Y032207D02*
X048086Y032142D01*
X047907Y032289D02*
X047989Y032207D01*
X047842Y032386D02*
X047907Y032289D01*
X047798Y032493D02*
X047842Y032386D01*
X047775Y032608D02*
X047798Y032493D01*
X047775Y032608D02*
Y032666D01*
Y032724D01*
X047798Y032838D01*
X047842Y032945D01*
X047907Y033042D01*
X047989Y033124D01*
X048086Y033189D01*
X048193Y033234D01*
X048308Y033256D01*
X048424D01*
X04938Y0337D02*
X049398Y033693D01*
X009967Y03369D02*
X009988Y0337D01*
X009953Y033671D02*
X009967Y03369D01*
X009949Y033647D02*
X009953Y033671D01*
X009949Y033647D02*
X009952Y033636D01*
X009951Y033631D02*
X009952Y033636D01*
X00995Y033624D02*
X009951Y033631D01*
X00995Y01D02*
Y033624D01*
Y00999D02*
Y01D01*
Y00999D02*
X009957Y009972D01*
X009972Y009957D01*
X00999Y00995D01*
X04938D01*
X049398Y009957D01*
X049413Y009972D01*
X04942Y00999D01*
Y01D01*
X04942Y010005D02*
X04942Y01D01*
X049419Y010012D02*
X04942Y010005D01*
X049419Y010012D02*
X049419Y010019D01*
X04942Y010026D01*
X04942Y03365D02*
X04942Y010026D01*
X04942Y03365D02*
Y03366D01*
X049413Y033678D02*
X04942Y03366D01*
X049398Y033693D02*
X049413Y033678D01*
X011042Y011575D02*
X011157Y011552D01*
X011264Y011508D01*
X011361Y011443D01*
X011443Y011361D01*
X011508Y011264D01*
X011552Y011157D01*
X011575Y011042D01*
Y010984D02*
Y011042D01*
Y010926D02*
Y010984D01*
X011552Y010812D02*
X011575Y010926D01*
X011508Y010705D02*
X011552Y010812D01*
X011443Y010608D02*
X011508Y010705D01*
X011361Y010526D02*
X011443Y010608D01*
X011264Y010461D02*
X011361Y010526D01*
X011157Y010416D02*
X011264Y010461D01*
X011042Y010394D02*
X011157Y010416D01*
X010926Y010394D02*
X011042D01*
X010812Y010416D02*
X010926Y010394D01*
X010705Y010461D02*
X010812Y010416D01*
X010608Y010526D02*
X010705Y010461D01*
X010526Y010608D02*
X010608Y010526D01*
X010461Y010705D02*
X010526Y010608D01*
X010416Y010812D02*
X010461Y010705D01*
X010394Y010926D02*
X010416Y010812D01*
X010394Y010926D02*
Y010984D01*
Y011042D01*
X010416Y011157D01*
X010461Y011264D01*
X010526Y011361D01*
X010608Y011443D01*
X010705Y011508D01*
X010812Y011552D01*
X010926Y011575D01*
X011042D01*
X048424D02*
X048538Y011552D01*
X048645Y011508D01*
X048742Y011443D01*
X048824Y011361D01*
X048889Y011264D01*
X048934Y011157D01*
X048956Y011042D01*
Y010984D02*
Y011042D01*
Y010926D02*
Y010984D01*
X048934Y010812D02*
X048956Y010926D01*
X048889Y010705D02*
X048934Y010812D01*
X048824Y010608D02*
X048889Y010705D01*
X048742Y010526D02*
X048824Y010608D01*
X048645Y010461D02*
X048742Y010526D01*
X048538Y010416D02*
X048645Y010461D01*
X048424Y010394D02*
X048538Y010416D01*
X048308Y010394D02*
X048424D01*
X048193Y010416D02*
X048308Y010394D01*
X048086Y010461D02*
X048193Y010416D01*
X047989Y010526D02*
X048086Y010461D01*
X047907Y010608D02*
X047989Y010526D01*
X047842Y010705D02*
X047907Y010608D01*
X047798Y010812D02*
X047842Y010705D01*
X047775Y010926D02*
X047798Y010812D01*
X047775Y010926D02*
Y010984D01*
Y011042D01*
X047798Y011157D01*
X047842Y011264D01*
X047907Y011361D01*
X047989Y011443D01*
X048086Y011508D01*
X048193Y011552D01*
X048308Y011575D01*
X048424D01*
X018299Y018583D02*
X01836Y018571D01*
X018417Y018547D01*
X018468Y018512D01*
X018512Y018468D01*
X018547Y018417D01*
X018571Y01836D01*
X018583Y018299D01*
Y018268D02*
Y018299D01*
Y018237D02*
Y018268D01*
X018571Y018176D02*
X018583Y018237D01*
X018547Y018119D02*
X018571Y018176D01*
X018512Y018067D02*
X018547Y018119D01*
X018468Y018023D02*
X018512Y018067D01*
X018417Y017989D02*
X018468Y018023D01*
X01836Y017965D02*
X018417Y017989D01*
X018299Y017953D02*
X01836Y017965D01*
X018237Y017953D02*
X018299D01*
X018176Y017965D02*
X018237Y017953D01*
X018119Y017989D02*
X018176Y017965D01*
X018067Y018023D02*
X018119Y017989D01*
X018023Y018067D02*
X018067Y018023D01*
X017989Y018119D02*
X018023Y018067D01*
X017965Y018176D02*
X017989Y018119D01*
X017953Y018237D02*
X017965Y018176D01*
X017953Y018237D02*
Y018268D01*
Y018299D01*
X017965Y01836D01*
X017989Y018417D01*
X018023Y018468D01*
X018067Y018512D01*
X018119Y018547D01*
X018176Y018571D01*
X018237Y018583D01*
X018299D01*
X035679Y020974D02*
X035736Y020963D01*
X035789Y020941D01*
X035838Y020908D01*
X035879Y020867D01*
X035911Y020819D01*
X035934Y020765D01*
X035945Y020708D01*
Y020679D02*
Y020708D01*
Y02065D02*
Y020679D01*
X035934Y020593D02*
X035945Y02065D01*
X035911Y020539D02*
X035934Y020593D01*
X035879Y020491D02*
X035911Y020539D01*
X035838Y02045D02*
X035879Y020491D01*
X035789Y020417D02*
X035838Y02045D01*
X035736Y020395D02*
X035789Y020417D01*
X035679Y020384D02*
X035736Y020395D01*
X035621Y020384D02*
X035679D01*
X035563Y020395D02*
X035621Y020384D01*
X03551Y020417D02*
X035563Y020395D01*
X035461Y02045D02*
X03551Y020417D01*
X03542Y020491D02*
X035461Y02045D01*
X035388Y020539D02*
X03542Y020491D01*
X035366Y020593D02*
X035388Y020539D01*
X035354Y02065D02*
X035366Y020593D01*
X035354Y02065D02*
Y020679D01*
Y020708D01*
X035366Y020765D01*
X035388Y020819D01*
X03542Y020867D01*
X035461Y020908D01*
X03551Y020941D01*
X035563Y020963D01*
X035621Y020974D01*
X035679D01*
X021888Y022992D02*
X022042Y022972D01*
X022191Y022932D01*
X022335Y022873D01*
X022469Y022795D01*
X022591Y022701D01*
X022701Y022591D01*
X022795Y022469D01*
X022873Y022335D01*
X022932Y022191D01*
X022972Y022042D01*
X022992Y021888D01*
Y021811D02*
Y021888D01*
Y021734D02*
Y021811D01*
X022972Y02158D02*
X022992Y021734D01*
X022932Y021431D02*
X022972Y02158D01*
X022873Y021288D02*
X022932Y021431D01*
X022795Y021153D02*
X022873Y021288D01*
X022701Y021031D02*
X022795Y021153D01*
X022591Y020921D02*
X022701Y021031D01*
X022469Y020827D02*
X022591Y020921D01*
X022335Y020749D02*
X022469Y020827D01*
X022191Y02069D02*
X022335Y020749D01*
X022042Y02065D02*
X022191Y02069D01*
X021888Y02063D02*
X022042Y02065D01*
X021734Y02063D02*
X021888D01*
X02158Y02065D02*
X021734Y02063D01*
X021431Y02069D02*
X02158Y02065D01*
X021288Y020749D02*
X021431Y02069D01*
X021153Y020827D02*
X021288Y020749D01*
X021031Y020921D02*
X021153Y020827D01*
X020921Y021031D02*
X021031Y020921D01*
X020827Y021153D02*
X020921Y021031D01*
X020749Y021288D02*
X020827Y021153D01*
X02069Y021431D02*
X020749Y021288D01*
X02065Y02158D02*
X02069Y021431D01*
X02063Y021734D02*
X02065Y02158D01*
X02063Y021734D02*
Y021811D01*
Y021888D01*
X02065Y022042D01*
X02069Y022191D01*
X020749Y022335D01*
X020827Y022469D01*
X020921Y022591D01*
X021031Y022701D01*
X021153Y022795D01*
X021288Y022873D01*
X021431Y022932D01*
X02158Y022972D01*
X021734Y022992D01*
X021888D01*
X035697Y023868D02*
X035783Y023832D01*
X03585Y023766D01*
X035886Y023679D01*
Y023632D02*
Y023679D01*
Y023585D02*
Y023632D01*
X03585Y023498D02*
X035886Y023585D01*
X035783Y023432D02*
X03585Y023498D01*
X035697Y023396D02*
X035783Y023432D01*
X035603Y023396D02*
X035697D01*
X035516Y023432D02*
X035603Y023396D01*
X035449Y023498D02*
X035516Y023432D01*
X035413Y023585D02*
X035449Y023498D01*
X035413Y023585D02*
Y023632D01*
Y023679D01*
X035449Y023766D01*
X035516Y023832D01*
X035603Y023868D01*
X035697D01*
X025385Y025669D02*
X025446Y025657D01*
X025504Y025633D01*
X025555Y025599D01*
X025599Y025555D01*
X025633Y025504D01*
X025657Y025446D01*
X025669Y025385D01*
Y025354D02*
Y025385D01*
Y025323D02*
Y025354D01*
X025657Y025262D02*
X025669Y025323D01*
X025633Y025205D02*
X025657Y025262D01*
X025599Y025154D02*
X025633Y025205D01*
X025555Y02511D02*
X025599Y025154D01*
X025504Y025075D02*
X025555Y02511D01*
X025446Y025051D02*
X025504Y025075D01*
X025385Y025039D02*
X025446Y025051D01*
X025323Y025039D02*
X025385D01*
X025262Y025051D02*
X025323Y025039D01*
X025205Y025075D02*
X025262Y025051D01*
X025154Y02511D02*
X025205Y025075D01*
X02511Y025154D02*
X025154Y02511D01*
X025075Y025205D02*
X02511Y025154D01*
X025051Y025262D02*
X025075Y025205D01*
X025039Y025323D02*
X025051Y025262D01*
X025039Y025323D02*
Y025354D01*
Y025385D01*
X025051Y025446D01*
X025075Y025504D01*
X02511Y025555D01*
X025154Y025599D01*
X025205Y025633D01*
X025262Y025657D01*
X025323Y025669D01*
X025385D01*
X011042Y033256D02*
X011157Y033234D01*
X011264Y033189D01*
X011361Y033124D01*
X011443Y033042D01*
X011508Y032945D01*
X011552Y032838D01*
X011575Y032724D01*
Y032666D02*
Y032724D01*
Y032608D02*
Y032666D01*
X011552Y032493D02*
X011575Y032608D01*
X011508Y032386D02*
X011552Y032493D01*
X011443Y032289D02*
X011508Y032386D01*
X011361Y032207D02*
X011443Y032289D01*
X011264Y032142D02*
X011361Y032207D01*
X011157Y032098D02*
X011264Y032142D01*
X011042Y032075D02*
X011157Y032098D01*
X010926Y032075D02*
X011042D01*
X010812Y032098D02*
X010926Y032075D01*
X010705Y032142D02*
X010812Y032098D01*
X010608Y032207D02*
X010705Y032142D01*
X010526Y032289D02*
X010608Y032207D01*
X010461Y032386D02*
X010526Y032289D01*
X010416Y032493D02*
X010461Y032386D01*
X010394Y032608D02*
X010416Y032493D01*
X010394Y032608D02*
Y032666D01*
Y032724D01*
X010416Y032838D01*
X010461Y032945D01*
X010526Y033042D01*
X010608Y033124D01*
X010705Y033189D01*
X010812Y033234D01*
X010926Y033256D01*
X011042D01*
X048424D02*
X048538Y033234D01*
X048645Y033189D01*
X048742Y033124D01*
X048824Y033042D01*
X048889Y032945D01*
X048934Y032838D01*
X048956Y032724D01*
Y032666D02*
Y032724D01*
Y032608D02*
Y032666D01*
X048934Y032493D02*
X048956Y032608D01*
X048889Y032386D02*
X048934Y032493D01*
X048824Y032289D02*
X048889Y032386D01*
X048742Y032207D02*
X048824Y032289D01*
X048645Y032142D02*
X048742Y032207D01*
X048538Y032098D02*
X048645Y032142D01*
X048424Y032075D02*
X048538Y032098D01*
X048308Y032075D02*
X048424D01*
X048193Y032098D02*
X048308Y032075D01*
X048086Y032142D02*
X048193Y032098D01*
X047989Y032207D02*
X048086Y032142D01*
X047907Y032289D02*
X047989Y032207D01*
X047842Y032386D02*
X047907Y032289D01*
X047798Y032493D02*
X047842Y032386D01*
X047775Y032608D02*
X047798Y032493D01*
X047775Y032608D02*
Y032666D01*
Y032724D01*
X047798Y032838D01*
X047842Y032945D01*
X047907Y033042D01*
X047989Y033124D01*
X048086Y033189D01*
X048193Y033234D01*
X048308Y033256D01*
X048424D01*
X04938Y0337D02*
X049398Y033693D01*
X009988Y0337D02*
X04938D01*
X009967Y03369D02*
X009988Y0337D01*
X009953Y033671D02*
X009967Y03369D01*
X009949Y033647D02*
X009953Y033671D01*
X009949Y033647D02*
X009952Y033636D01*
X009951Y033631D02*
X009952Y033636D01*
X00995Y033624D02*
X009951Y033631D01*
X00995Y01D02*
Y033624D01*
Y00999D02*
Y01D01*
Y00999D02*
X009957Y009972D01*
X009972Y009957D01*
X00999Y00995D01*
X04938D01*
X049398Y009957D01*
X049413Y009972D01*
X04942Y00999D01*
Y01D01*
X04942Y010005D02*
X04942Y01D01*
X049419Y010012D02*
X04942Y010005D01*
X049419Y010012D02*
X049419Y010019D01*
X04942Y010026D01*
X04942Y03365D02*
X04942Y010026D01*
X04942Y03365D02*
Y03366D01*
X049413Y033678D02*
X04942Y03366D01*
X049398Y033693D02*
X049413Y033678D01*
D16*
X048086Y02978D02*
Y031646D01*
X047794Y029488D02*
X048086Y02978D01*
X044872Y029488D02*
X047794D01*
X043691Y030627D02*
X043914Y03085D01*
X043691Y028278D02*
Y030627D01*
X039342Y03057D02*
Y033085D01*
X040113Y02047D02*
X040432Y02079D01*
X040113Y01995D02*
Y02047D01*
X04205Y023133D02*
Y024685D01*
X041949Y023031D02*
X04205Y023133D01*
X041949Y019197D02*
Y023031D01*
Y019197D02*
X04205Y019096D01*
X04233D01*
X04235Y019076D01*
Y01905D02*
Y019076D01*
X034705Y027028D02*
X034833Y027156D01*
X034705Y022739D02*
Y027028D01*
Y022739D02*
X035005Y022438D01*
X037737Y029114D02*
Y030219D01*
Y028633D02*
Y029114D01*
X039882Y028491D02*
X041506D01*
X03788D02*
X039882D01*
Y028516D01*
X0468Y01653D02*
Y022856D01*
X046476Y02318D02*
X0468Y022856D01*
X044276Y02318D02*
X046476D01*
X0412Y030392D02*
Y032287D01*
X04137Y032456D01*
X043004D01*
X039344Y031486D02*
X040177D01*
X0402Y031509D01*
X039342Y03057D02*
X039344Y030568D01*
X039342Y033085D02*
X039344Y033086D01*
X030435Y022975D02*
X030437Y022972D01*
X030435Y022975D02*
Y023768D01*
X030433Y02377D02*
X030435Y023768D01*
X037933Y014892D02*
X04063D01*
X0408Y015062D01*
Y015563D01*
X04063Y016388D02*
X0408Y016218D01*
Y015563D02*
Y016218D01*
X04235Y0182D02*
X042924D01*
X04235D02*
Y01905D01*
X040432Y023871D02*
X040548Y023986D01*
X041506D01*
X040432Y02079D02*
Y023871D01*
X044626Y029242D02*
X044872Y029488D01*
X044626Y027047D02*
Y029242D01*
X04175Y029969D02*
Y0313D01*
X041506Y029724D02*
X04175Y029969D01*
X041506Y029278D02*
Y029724D01*
Y028491D02*
X043086D01*
X0428Y02969D02*
X043086Y029405D01*
Y028491D02*
Y029405D01*
Y027156D02*
Y028491D01*
X0428Y02969D02*
Y03165D01*
X043489Y02591D02*
X044626Y027047D01*
X043489Y02318D02*
Y02591D01*
X014828Y01628D02*
X014829Y01628D01*
Y016869D01*
X014829Y01687D01*
X017106Y017657D02*
X017837D01*
X014829D02*
X017106D01*
Y018329D01*
X018417Y014964D02*
Y017078D01*
X017837Y017657D02*
X018417Y017078D01*
X010787Y028862D02*
Y029319D01*
Y028071D02*
Y028862D01*
X010792Y028858D01*
X01253D01*
X013317D02*
X013319Y02886D01*
X013964D01*
X013967Y028862D01*
X035257Y026486D02*
X039613D01*
X035Y026229D02*
X035257Y026486D01*
X035Y023455D02*
Y026229D01*
X035275Y02318D02*
X0386D01*
X035Y023455D02*
X035275Y02318D01*
X042924Y022706D02*
X046198D01*
X035005Y022438D02*
X0386D01*
X042649Y022431D02*
X042924Y022706D01*
X04253Y022431D02*
X042649D01*
X036876Y027156D02*
X038234D01*
X039613Y026486D02*
X039672Y026545D01*
X034833Y027156D02*
X035419D01*
X039672Y026545D02*
Y027137D01*
X039691Y027156D01*
X047832Y0319D02*
X048086Y031646D01*
X046915Y0319D02*
X047832D01*
X0468Y032015D02*
X046915Y0319D01*
X0468Y032015D02*
Y03295D01*
X043914Y03085D02*
X045506D01*
X045956Y0313D01*
X047469D01*
X041506Y025685D02*
X04205D01*
X035891Y026161D02*
X041506D01*
X035664Y025123D02*
Y025935D01*
X03565Y025108D02*
X035664Y025123D01*
Y025935D02*
X035891Y026161D01*
X040965Y027156D02*
X041398D01*
X041506Y026161D02*
Y027047D01*
Y025685D02*
Y026161D01*
Y023986D02*
Y025685D01*
X041398Y027156D02*
X041506Y027047D01*
X046467Y019511D02*
Y022438D01*
X046306Y01935D02*
X046467Y019511D01*
X043439Y01935D02*
X046306D01*
X046198Y022706D02*
X046467Y022438D01*
X043439Y01935D02*
Y019803D01*
Y01653D02*
Y01935D01*
X043292Y01995D02*
X043439Y019803D01*
X042337Y01995D02*
X043292D01*
X042717Y024685D02*
X043086Y025054D01*
X04205Y024685D02*
X042717D01*
X043086Y025054D02*
Y027156D01*
X033169Y028496D02*
X034035D01*
Y029974D01*
X034113Y030052D02*
X035006D01*
X034035Y029974D02*
X034113Y030052D01*
X035006D02*
X035301Y030348D01*
X037608D01*
X037737Y030219D01*
Y028633D02*
X03788Y028491D01*
X040294Y030382D02*
Y030896D01*
X0402Y030991D02*
X040294Y030896D01*
X0402Y030991D02*
Y031509D01*
X040709Y028506D02*
Y03025D01*
X040859Y0304D01*
X041192D01*
X0412Y030392D01*
X042115D02*
Y031694D01*
X042327Y031906D02*
X045506D01*
X042115Y031694D02*
X042327Y031906D01*
X045506D02*
X0458Y0322D01*
Y03295D01*
X010787Y030107D02*
X0117D01*
X012264Y024311D02*
Y025311D01*
Y023311D02*
Y024311D01*
Y022311D02*
Y023311D01*
Y021311D02*
Y022311D01*
Y020311D02*
Y021311D01*
Y019311D02*
Y020311D01*
Y018311D02*
Y019311D01*
Y017311D02*
Y018311D01*
Y025311D02*
X012776Y025823D01*
Y027933D01*
X014085D02*
X014872D01*
X010926D02*
X012776D01*
X010787Y028071D02*
X010926Y027933D01*
X012776D02*
X014085D01*
X048894Y0124D02*
Y015801D01*
Y012264D02*
Y0124D01*
X0468Y01653D02*
X048165D01*
X044226D02*
X0468D01*
X048165D02*
X048894Y015801D01*
D21*
X030906Y017578D02*
D03*
Y016042D02*
D03*
D22*
X014828Y015492D02*
D03*
Y01628D02*
D03*
X014829Y01687D02*
D03*
Y017657D02*
D03*
X034026Y027048D02*
D03*
Y02626D02*
D03*
X033169Y02626D02*
D03*
Y027047D02*
D03*
X034035Y028496D02*
D03*
Y027709D02*
D03*
X033169Y028496D02*
D03*
Y027709D02*
D03*
X0438Y033237D02*
D03*
Y03245D02*
D03*
X043004Y033244D02*
D03*
Y032456D02*
D03*
X0386Y0173D02*
D03*
Y016513D02*
D03*
X030437Y022972D02*
D03*
Y022185D02*
D03*
X030433Y02377D02*
D03*
Y024557D02*
D03*
X0117Y013543D02*
D03*
Y014331D02*
D03*
X014872Y024779D02*
D03*
Y025567D02*
D03*
X0117Y030107D02*
D03*
Y029319D02*
D03*
X0422Y01655D02*
D03*
Y017337D02*
D03*
D23*
X014754Y028862D02*
D03*
X013967D02*
D03*
X013317Y028858D02*
D03*
X01253D02*
D03*
X038553Y030669D02*
D03*
X03934D02*
D03*
X038556Y031486D02*
D03*
X039344D02*
D03*
X038563Y032287D02*
D03*
X03935D02*
D03*
X038556Y033086D02*
D03*
X039344D02*
D03*
X048106Y0124D02*
D03*
X048894D02*
D03*
X038677Y01245D02*
D03*
X039465D02*
D03*
X038677Y011572D02*
D03*
X039465D02*
D03*
X041563Y01905D02*
D03*
X04235D02*
D03*
X04155Y01995D02*
D03*
X042337D02*
D03*
X040113D02*
D03*
X0409D02*
D03*
X034475Y016836D02*
D03*
X033687D02*
D03*
X034475Y017623D02*
D03*
X033687D02*
D03*
X032293Y017628D02*
D03*
X033081D02*
D03*
X032293Y016841D02*
D03*
X033081D02*
D03*
X029124Y01605D02*
D03*
X029911D02*
D03*
X029124Y017578D02*
D03*
X029911D02*
D03*
X018417Y014964D02*
D03*
X017629D02*
D03*
X0409Y01905D02*
D03*
X040113D02*
D03*
X0409Y0182D02*
D03*
X040113D02*
D03*
X04235D02*
D03*
X041563D02*
D03*
X04233Y021702D02*
D03*
X041543D02*
D03*
X04233Y020856D02*
D03*
X041543D02*
D03*
D24*
X039691Y027156D02*
D03*
X038234D02*
D03*
X036876D02*
D03*
X035419D02*
D03*
D25*
X0412Y033079D02*
D03*
D26*
X042115Y030392D02*
D03*
X0412D02*
D03*
X040294Y030382D02*
D03*
D27*
X042224Y027156D02*
D03*
X040965D02*
D03*
D28*
X03565Y019026D02*
D03*
Y025108D02*
D03*
D29*
X0423Y013437D02*
D03*
X0418D02*
D03*
X0413D02*
D03*
X0408D02*
D03*
X0403D02*
D03*
X0398D02*
D03*
X0393D02*
D03*
X0388D02*
D03*
Y015563D02*
D03*
X0393D02*
D03*
X0398D02*
D03*
X0403D02*
D03*
X0408D02*
D03*
X0413D02*
D03*
X0418D02*
D03*
X0423D02*
D03*
D30*
X0412Y0169D02*
D03*
X039665D02*
D03*
D60*
X012933Y029528D02*
Y032304D01*
X012725Y029319D02*
X012933Y029528D01*
X0117Y029319D02*
X012725D01*
X031706Y021152D02*
X031752Y021198D01*
Y022057D01*
X031358Y021152D02*
X031706D01*
X030369Y024503D02*
X031624D01*
X031752Y024375D01*
Y022057D02*
Y024375D01*
X043833Y013546D02*
Y014508D01*
X043723Y013437D02*
X043833Y013546D01*
X0423Y013437D02*
X043723D01*
X043833Y014508D02*
Y016136D01*
Y014508D02*
X04749D01*
X048106Y013891D01*
Y0124D02*
Y013891D01*
X039344Y031486D02*
Y033086D01*
X038556Y031486D02*
Y033086D01*
X011264Y026339D02*
X012264D01*
X032748Y027709D02*
X033169D01*
X032657Y027618D02*
X032748Y027709D01*
X032657Y026791D02*
Y027618D01*
X034026Y02626D02*
Y026653D01*
X033967Y026713D02*
X034026Y026653D01*
X032736Y026713D02*
X033967D01*
X039344Y030318D02*
Y030568D01*
X029911Y022792D02*
X030049Y02293D01*
X030362D01*
X029911Y021831D02*
X03004Y021702D01*
X029911Y021831D02*
Y022792D01*
X030925Y022057D02*
X031201D01*
X030797Y022185D02*
X030925Y022057D01*
X030487Y022136D02*
X030516Y022106D01*
X030369Y022136D02*
X030487D01*
X030437Y022185D02*
X030487Y022136D01*
X031012Y021526D02*
X031201Y021715D01*
Y022057D01*
X031012Y020709D02*
Y021526D01*
X030437Y022185D02*
X030797D01*
X039938Y017554D02*
X040266D01*
X031358Y018485D02*
Y018789D01*
X029911Y017578D02*
X030906D01*
Y018032D02*
X031358Y018485D01*
X030906Y017578D02*
Y018032D01*
X031142Y01605D02*
X031577D01*
X030945Y018307D02*
Y020581D01*
X030758Y01812D02*
X030945Y018307D01*
X029228Y01812D02*
X030758D01*
X029124Y018016D02*
X029228Y01812D01*
X029124Y017578D02*
Y018016D01*
X030874Y020652D02*
X030945Y020581D01*
X031654Y016126D02*
Y019282D01*
X029911Y01605D02*
X031142D01*
X031577D02*
X031654Y016126D01*
X041722Y016014D02*
X042231D01*
X041122D02*
X041722D01*
X0423Y015563D02*
Y015945D01*
X042231Y016014D02*
X0423Y015945D01*
X042525Y017554D02*
X042598Y01748D01*
X040266Y017554D02*
X042525D01*
X040236Y017524D02*
X040266Y017554D01*
X042598Y017106D02*
Y01748D01*
X0422Y016708D02*
X042598Y017106D01*
X042776Y014508D02*
Y017598D01*
X042682Y017692D02*
X042776Y017598D01*
X040158Y017692D02*
X042682D01*
X042923Y014222D02*
Y017648D01*
X042741Y01783D02*
X042923Y017648D01*
X04057Y01783D02*
X042741D01*
X04251Y014242D02*
X042776Y014508D01*
X042717Y014016D02*
X042923Y014222D01*
X0422Y01655D02*
Y016708D01*
X041722Y016014D02*
Y016491D01*
X041782Y01655D02*
X0422D01*
X041722Y016491D02*
X041782Y01655D01*
X041063Y015955D02*
X041122Y016014D01*
X041063Y014872D02*
Y015955D01*
X038293Y0159D02*
X03875D01*
X038189Y016004D02*
X038293Y0159D01*
X038189Y016004D02*
Y016821D01*
X038268Y0169D02*
X039124D01*
X038189Y016821D02*
X038268Y0169D01*
X040049Y015936D02*
X040432Y016319D01*
X040049Y015315D02*
Y015936D01*
X039976Y015241D02*
X040049Y015315D01*
X040236Y016406D02*
Y017524D01*
X040179Y016348D02*
X040236Y016406D01*
X039262Y016348D02*
X040179D01*
X039098Y016513D02*
X039262Y016348D01*
X039124Y0169D02*
X039665D01*
X039124D02*
Y017215D01*
X039039Y0173D02*
X039124Y017215D01*
X0386Y0173D02*
X039039D01*
X017106Y020264D02*
X017439D01*
X031926Y019026D02*
X03565D01*
X03185Y01895D02*
X031926Y019026D01*
X03185Y018012D02*
Y01895D01*
X017366Y024004D02*
X017894D01*
X023997Y018147D02*
X024272Y017872D01*
X023997Y018147D02*
Y019027D01*
X024272Y016905D02*
Y017872D01*
X019449Y027303D02*
Y028661D01*
X019248Y028862D02*
X019449Y028661D01*
X014754Y028862D02*
X019248D01*
X014838Y015482D02*
X015817D01*
X015925Y015591D01*
Y01628D01*
X014828Y015492D02*
X014838Y015482D01*
X013145Y023295D02*
X013728Y023878D01*
X013145Y013346D02*
Y023295D01*
X012465Y012665D02*
X013145Y013346D01*
X013954Y013937D02*
X014195Y013695D01*
X013954Y020703D02*
X014176Y020925D01*
X01423Y01422D02*
X014479Y013971D01*
X01423Y019353D02*
X014621Y019744D01*
X013403Y013697D02*
X01395Y01315D01*
X013403Y022914D02*
X013776Y023287D01*
X013541Y013754D02*
X014095Y0132D01*
X013541Y022428D02*
X013809Y022697D01*
X013816Y01388D02*
X01422Y013476D01*
X013816Y021192D02*
X01414Y021516D01*
X013678Y013823D02*
X014163Y013338D01*
X013678Y021897D02*
X013888Y022106D01*
X014092Y014108D02*
X014367Y013833D01*
X014092Y020053D02*
X014374Y020335D01*
X01423Y01422D02*
Y019353D01*
X014092Y014108D02*
Y020053D01*
X013954Y013937D02*
Y020703D01*
X013816Y01388D02*
Y021192D01*
X013678Y013823D02*
Y021897D01*
X013541Y013754D02*
Y022428D01*
X013403Y013697D02*
Y022914D01*
X039222Y020819D02*
X039901D01*
X03905Y025685D02*
X039518Y025217D01*
Y0239D02*
Y025217D01*
X038997Y023379D02*
X039518Y0239D01*
X038997Y021045D02*
Y023379D01*
Y021045D02*
X039222Y020819D01*
X039656Y025291D02*
X04005Y025685D01*
X039656Y023837D02*
Y025291D01*
X039222Y023403D02*
X039656Y023837D01*
X039803Y019242D02*
X040113Y019551D01*
X039803Y017689D02*
Y019242D01*
Y017689D02*
X039938Y017554D01*
X040113Y019551D02*
Y01995D01*
X042224Y027156D02*
X043086D01*
X044152Y032175D02*
X044276Y032299D01*
X042025Y032175D02*
X044152D01*
X04175Y0319D02*
X042025Y032175D01*
X048894Y011894D02*
Y012264D01*
X029975Y023715D02*
X030369D01*
X029911Y02378D02*
X029975Y023715D01*
X029911Y02378D02*
Y025102D01*
X030407Y025598D01*
X029911Y018837D02*
Y021031D01*
X029846Y018773D02*
X029911Y018837D01*
X025368Y018773D02*
X029846D01*
X030049Y018763D02*
Y020236D01*
X029921Y018635D02*
X030049Y018763D01*
X025244Y018635D02*
X029921D01*
X030187Y018628D02*
Y019471D01*
X030056Y018497D02*
X030187Y018628D01*
X025137Y018497D02*
X030056D01*
X030187Y019471D02*
X030233Y019517D01*
X030511D01*
X030571Y019577D01*
X030049Y020236D02*
X030176Y020363D01*
X030571D01*
X029911Y021031D02*
X030032Y021152D01*
X030571D01*
X024964Y01836D02*
X030487D01*
X030571Y018443D02*
Y018789D01*
X030487Y01836D02*
X030571Y018443D01*
X038148Y028829D02*
X038678D01*
X037992Y028985D02*
X038148Y028829D01*
X037992Y028985D02*
Y032293D01*
X038992Y028512D02*
Y030564D01*
X038887Y030669D02*
X038992Y030564D01*
X038553Y030669D02*
X038887D01*
X038556Y030672D02*
Y031486D01*
X038553Y030669D02*
X038556Y030672D01*
X012054Y014331D02*
X012159Y014226D01*
X01188Y01288D02*
X012159Y013159D01*
Y014226D01*
X011779Y014252D02*
X011857Y014331D01*
X012054D01*
X026007Y012133D02*
Y01308D01*
X022643Y013238D02*
X02585D01*
X026007Y01308D01*
X02335Y01219D02*
X023464Y012075D01*
X022108Y01219D02*
X02335D01*
X021965Y012333D02*
X022108Y01219D01*
X023464Y011665D02*
Y012075D01*
X021965Y012333D02*
Y01332D01*
X021854Y013431D02*
X021965Y01332D01*
X019988Y013431D02*
X021854D01*
X019931Y013294D02*
X021288D01*
X021465Y013117D01*
Y012665D02*
Y013117D01*
X019335Y013695D02*
X01995Y01308D01*
Y01218D02*
Y01308D01*
X014195Y013695D02*
X019335D01*
X019392Y013833D02*
X019931Y013294D01*
X014367Y013833D02*
X019392D01*
X020115Y013707D02*
X022174D01*
X019744Y014078D02*
X020115Y013707D01*
X019744Y014078D02*
Y016693D01*
X020054Y013569D02*
X022117D01*
X019449Y014174D02*
X020054Y013569D01*
X019449Y014174D02*
Y016319D01*
X027659Y021516D02*
X029257D01*
X02936Y021619D01*
X029498Y021185D02*
Y029619D01*
X028075Y020929D02*
X029241D01*
X029498Y021185D01*
X027074Y020335D02*
X029382D01*
X029635Y020588D02*
Y029562D01*
X029382Y020335D02*
X029635Y020588D01*
X029773Y020031D02*
Y029505D01*
X027303Y019744D02*
X029486D01*
X029773Y020031D01*
X025155Y018725D02*
X025244Y018635D01*
X025155Y018725D02*
Y020982D01*
X025017Y018617D02*
X025137Y018497D01*
X025017Y018617D02*
Y021485D01*
X025293Y018848D02*
Y020704D01*
Y018848D02*
X025368Y018773D01*
X024855Y018468D02*
X024964Y01836D01*
X024855Y018468D02*
Y021705D01*
X030911Y02626D02*
X033169D01*
X030407Y025756D02*
X030911Y02626D01*
X012266Y01061D02*
X035D01*
X01188Y010996D02*
X012266Y01061D01*
X01188Y010996D02*
Y01288D01*
X017148Y010816D02*
X039644D01*
X02069Y010954D02*
X039036D01*
X021211Y011091D02*
X038893D01*
X021901Y011229D02*
X038836D01*
X021465Y011665D02*
X021901Y011229D01*
X020976Y011326D02*
X021211Y011091D01*
X020976Y011326D02*
Y012154D01*
X020465Y011179D02*
X02069Y010954D01*
X020465Y011179D02*
Y011665D01*
X01695Y011013D02*
X017148Y010816D01*
X01695Y011013D02*
Y011869D01*
X023878Y028661D02*
Y031571D01*
Y027022D02*
Y028661D01*
X024682D01*
X024464Y031985D02*
X025017Y031432D01*
Y030214D02*
Y031432D01*
Y030214D02*
X025469Y029763D01*
Y028661D02*
Y029763D01*
X025574Y027102D02*
X028535D01*
X025571Y027431D02*
X028533D01*
X02853Y028051D02*
X028533Y028054D01*
X025571Y028051D02*
X02853D01*
X025571Y027766D02*
X028533D01*
X025574Y026766D02*
X028535D01*
X018593Y023248D02*
X024094D01*
X018593Y02375D02*
X024429D01*
X024224Y023484D02*
X0244Y023309D01*
X018481Y023484D02*
X024224D01*
X018285Y023681D02*
X018481Y023484D01*
X024724Y024241D02*
X026105D01*
X038258Y017982D02*
Y019311D01*
X032085Y016024D02*
X032293D01*
X031544Y015482D02*
X032085Y016024D01*
X029222Y015482D02*
X031544D01*
X032293Y016024D02*
Y016841D01*
Y016024D02*
X034567D01*
X012264Y024311D02*
X014793D01*
X012264Y024311D02*
X012264Y024311D01*
X014793D02*
X014872Y02439D01*
Y024779D01*
Y025567D02*
Y026358D01*
X016713Y014964D02*
X017629D01*
X017629Y014964D01*
X025728Y023807D02*
X025731Y023805D01*
X025689Y023189D02*
X025728D01*
Y019646D02*
X025773Y019601D01*
X024173Y016319D02*
Y016807D01*
X024272Y016905D01*
X016319Y019449D02*
X016846D01*
X022008Y017894D02*
Y017922D01*
X016846Y019449D02*
X017004Y019291D01*
X023733D01*
X023997Y019027D01*
X019449Y016319D02*
Y016347D01*
X019646Y017894D02*
Y017922D01*
X019843Y026133D02*
X019941Y026231D01*
X019843Y025756D02*
Y026133D01*
Y025728D02*
Y025756D01*
X020335Y026965D02*
Y029664D01*
Y026965D02*
X020531Y026769D01*
Y026231D02*
Y026769D01*
X020433Y026133D02*
X020531Y026231D01*
X020433Y025728D02*
Y026133D01*
X020921Y027022D02*
X021122Y026821D01*
Y02624D02*
Y026821D01*
X021024Y026141D02*
X021122Y02624D01*
X021024Y025756D02*
Y026141D01*
X021516Y027056D02*
X021713Y026859D01*
Y026201D02*
Y026859D01*
X021614Y026102D02*
X021713Y026201D01*
X021614Y025728D02*
Y026102D01*
X022106Y026998D02*
X022303Y026802D01*
Y02625D02*
Y026802D01*
X022205Y026152D02*
X022303Y02625D01*
X022205Y025756D02*
Y026152D01*
X022697Y027051D02*
X022894Y026854D01*
Y0264D02*
Y026854D01*
Y0264D02*
X022894Y0264D01*
Y02621D02*
Y0264D01*
X022801Y026117D02*
X022894Y02621D01*
X022801Y025734D02*
Y026117D01*
X023287Y026963D02*
Y030162D01*
Y026963D02*
X023484Y026766D01*
Y026189D02*
Y026766D01*
X023386Y02609D02*
X023484Y026189D01*
X023386Y025756D02*
Y02609D01*
X023878Y027022D02*
X024075Y026825D01*
Y0262D02*
Y026825D01*
X023976Y026102D02*
X024075Y0262D01*
X023976Y025728D02*
Y026102D01*
X029124Y015581D02*
X029222Y015482D01*
X029124Y015581D02*
Y01605D01*
Y017578D01*
X03004Y021702D02*
X030819D01*
X032293Y016841D02*
Y017628D01*
X030874Y020652D02*
Y021647D01*
X030819Y021702D02*
X030874Y021647D01*
X026033Y023189D02*
X026131Y023091D01*
X026791D01*
X026833Y023133D01*
X025728Y023189D02*
X026033D01*
X024464Y031985D02*
X024469Y031989D01*
Y032431D01*
X024537Y0325D01*
X026833Y023133D02*
X026988Y023287D01*
X028839D02*
X028937Y023386D01*
X026988Y023287D02*
X028839D01*
X030407Y025598D02*
Y025677D01*
X028377Y031083D02*
Y031383D01*
X027992Y031768D02*
X028377Y031383D01*
Y031083D02*
X028475Y030985D01*
X027992Y031768D02*
Y032411D01*
X024537Y0325D02*
X027904D01*
X027992Y032411D01*
X030407Y025677D02*
Y025756D01*
X028937Y023386D02*
Y030522D01*
X028475Y030985D02*
X028937Y030522D01*
X034567Y016024D02*
Y016319D01*
X034646Y016398D02*
X036654D01*
X034567Y016319D02*
X034646Y016398D01*
X037067Y014656D02*
X040925D01*
X03685Y014872D02*
X037067Y014656D01*
X040925D02*
X04107Y0148D01*
Y014865D01*
X03685Y014872D02*
Y016201D01*
X036654Y016398D02*
X03685Y016201D01*
X041063Y014872D02*
X04107Y014865D01*
X0386Y016513D02*
X039098D01*
X0429Y010628D02*
Y01105D01*
X0431Y01125D01*
X046835D01*
X0472D01*
X046835Y010628D02*
Y01125D01*
X0472D02*
X047798Y011848D01*
X048848D01*
X048894Y011894D01*
X03913Y028885D02*
X039176Y028839D01*
X03913Y030104D02*
X039344Y030318D01*
X039176Y028839D02*
X039476D01*
X03913Y028885D02*
Y030104D01*
X039476Y028839D02*
X039484Y028847D01*
X04175Y0313D02*
Y0319D01*
X0438Y033237D02*
X04423D01*
X044276Y033191D01*
Y032299D02*
Y033191D01*
X024262Y019585D02*
Y023081D01*
X024094Y023248D02*
X024262Y023081D01*
X0244Y018505D02*
Y023309D01*
X024626Y018789D02*
Y023553D01*
X024429Y02375D02*
X024626Y023553D01*
X028799Y024045D02*
Y030295D01*
X029075Y022982D02*
Y029781D01*
X029222Y022362D02*
Y029733D01*
X02936Y021619D02*
Y029676D01*
X029773Y029505D02*
X02999Y029722D01*
X030552D01*
X030666Y029837D01*
X029635Y029562D02*
X029933Y02986D01*
X030494D01*
X030609Y029974D01*
X029498Y029619D02*
X029876Y029998D01*
X02936Y029676D02*
X029819Y030135D01*
X029222Y029733D02*
X029762Y030273D01*
X029075Y029781D02*
X02995Y030656D01*
X028563Y030531D02*
X028799Y030295D01*
X027112Y030531D02*
X028563D01*
X026925Y030719D02*
X027112Y030531D01*
X034577Y013957D02*
Y015236D01*
X034693Y01384D02*
X035328D01*
X034577Y013957D02*
X034693Y01384D01*
X037018Y012122D02*
Y013415D01*
Y012122D02*
X037475Y011665D01*
X036791Y013642D02*
X037018Y013415D01*
X035527Y013642D02*
X036791D01*
X035328Y01384D02*
X035527Y013642D01*
X037864Y032421D02*
X037992Y032293D01*
X033081Y032421D02*
X037864D01*
X032475Y031985D02*
Y032402D01*
X038025Y032589D02*
X03813Y032484D01*
X032662Y032589D02*
X038025D01*
X032475Y032402D02*
X032662Y032589D01*
X032953Y031871D02*
Y032293D01*
X033081Y032421D01*
X039882Y028516D02*
Y029577D01*
X039823Y029636D02*
X039882Y029577D01*
X039484Y029636D02*
X039823D01*
X038678Y028829D02*
X038697Y028847D01*
X03813Y029783D02*
Y032484D01*
X038278Y029636D02*
X038697D01*
X038697Y029636D01*
X03813Y029783D02*
X038278Y029636D01*
X032953Y031871D02*
X033425Y031398D01*
Y031034D02*
Y031398D01*
Y031034D02*
X033475Y030985D01*
X037864Y01797D02*
Y019321D01*
X038248Y017972D02*
X038258Y017982D01*
X024391Y018496D02*
X0244Y018505D01*
X024194Y018229D02*
Y019517D01*
X019646Y017799D02*
Y017894D01*
X018455Y020444D02*
X018467Y020455D01*
X024065D01*
X017732Y023681D02*
X018285D01*
X024194Y019517D02*
X024262Y019585D01*
X039114Y0131D02*
X039465D01*
X039036Y013022D02*
X039114Y0131D01*
X039036Y011234D02*
Y013022D01*
X038997Y01319D02*
Y014085D01*
X038898Y013091D02*
X038997Y01319D01*
X038898Y011291D02*
Y013091D01*
X040341Y011768D02*
Y0124D01*
X040236Y011663D02*
X040341Y011768D01*
X039764Y011663D02*
X040236D01*
X044276Y01168D02*
Y0124D01*
X044168Y011572D02*
X044276Y01168D01*
X041888Y011572D02*
X044168D01*
X041732Y011727D02*
X041888Y011572D01*
X041732Y011727D02*
Y012756D01*
X041562Y012926D02*
X041732Y012756D01*
X039274Y012926D02*
X041562D01*
X028789Y022697D02*
X029075Y022982D01*
X028632Y023878D02*
X028799Y024045D01*
X027141Y023878D02*
X027465D01*
Y023878D02*
X028632D01*
X026925Y030719D02*
Y031575D01*
X02995Y030656D02*
Y031509D01*
X026874Y022697D02*
X028789D01*
X029819Y030135D02*
X03038D01*
X029876Y029998D02*
X030437D01*
X029762Y030273D02*
X029977D01*
X030437Y029998D02*
X030552Y030112D01*
X030666Y029837D02*
X031715D01*
X029977Y030273D02*
X02998Y030276D01*
X030552Y030112D02*
X031565D01*
X030609Y029974D02*
X031622D01*
X02998Y030276D02*
X030326D01*
X03045Y0304D01*
X03038Y030135D02*
X030495Y03025D01*
X027141Y022106D02*
X027362D01*
Y022106D02*
X028967D01*
X029222Y022362D01*
X026969Y020925D02*
X028071D01*
X028075Y020929D01*
X034026Y027047D02*
X034026Y027048D01*
X033169Y027047D02*
X034026D01*
X032657Y026791D02*
X032736Y026713D01*
X036683Y014518D02*
X041201D01*
X036388Y01438D02*
X041624D01*
X036148Y01462D02*
X036388Y01438D01*
X036565Y014636D02*
X036683Y014518D01*
X04057Y0169D02*
X0412D01*
X040432Y016762D02*
X04057Y0169D01*
X040432Y016319D02*
Y016762D01*
X039346Y015241D02*
X039976D01*
X0393Y015287D02*
X039346Y015241D01*
X0393Y015287D02*
Y015563D01*
X0413Y014617D02*
Y015563D01*
X036148Y016026D02*
X036427D01*
X041201Y014518D02*
X0413Y014617D01*
X036565Y014636D02*
Y015889D01*
X036427Y016026D02*
X036565Y015889D01*
X036148Y01462D02*
Y015239D01*
X0418Y014556D02*
Y015563D01*
X041624Y01438D02*
X0418Y014556D01*
X039154Y014242D02*
X04251D01*
X038997Y014085D02*
X039154Y014242D01*
X03955Y014016D02*
X042717D01*
X041846Y017337D02*
X0422D01*
X0418Y017291D02*
X041846Y017337D01*
X0409Y0182D02*
X041563D01*
X0412Y0169D02*
X041708D01*
X023878Y014827D02*
Y016693D01*
Y014827D02*
X024502Y014202D01*
X023681Y01689D02*
X023878Y016693D01*
X024502Y014202D02*
X028757D01*
X03499Y01215D02*
Y0131D01*
Y01215D02*
X035475Y011665D01*
X034544Y013546D02*
X03499Y0131D01*
X03955Y013185D02*
Y014016D01*
X039465Y0131D02*
X03955Y013185D01*
X039174Y012826D02*
X039274Y012926D01*
X0405Y0179D02*
X04057Y01783D01*
X0405Y0179D02*
Y01895D01*
X043439Y01653D02*
X043833Y016136D01*
X03955Y02332D02*
X04005Y02382D01*
Y024685D01*
X034475Y016836D02*
X03536D01*
X034475Y017623D02*
X03536D01*
X039764Y011663D02*
Y012402D01*
Y010935D02*
Y011663D01*
X039715Y01245D02*
X039764Y012402D01*
X039465Y01245D02*
X039715D01*
X039644Y010816D02*
X039764Y010935D01*
X038189Y012018D02*
X038677D01*
X0381Y012106D02*
X038189Y012018D01*
X0381Y012106D02*
Y012569D01*
X038677Y012018D02*
Y01245D01*
Y011572D02*
Y012018D01*
X037475Y012665D02*
X038004D01*
X0381Y012569D01*
X026207Y023681D02*
X026799D01*
X026083Y023805D02*
X026207Y023681D01*
X025731Y023805D02*
X026083D01*
X026799Y023681D02*
X026996Y023878D01*
X013888Y022106D02*
X016546D01*
X013809Y022697D02*
X016157D01*
X017486Y02338D02*
X017927D01*
X013776Y023287D02*
X016587D01*
X013179Y032551D02*
X017899D01*
X012933Y032304D02*
X013179Y032551D01*
X022697Y027051D02*
Y030181D01*
X022106Y026998D02*
Y030121D01*
X021516Y027056D02*
Y029987D01*
X020921Y027022D02*
Y027137D01*
X020925Y027141D01*
Y029888D01*
X019744Y02725D02*
Y029613D01*
Y02725D02*
X019744Y02725D01*
Y027062D02*
Y02725D01*
Y027062D02*
X019941Y026865D01*
Y026231D02*
Y026865D01*
X021379Y030124D02*
X021516Y029987D01*
X020827Y029987D02*
X020925Y029888D01*
X019602Y030262D02*
X021965D01*
X021025Y030525D02*
X022353D01*
X022795Y025728D02*
X022801Y025734D01*
X022353Y030525D02*
X022697Y030181D01*
X019376Y029849D02*
X02015D01*
X022465Y030985D02*
X023287Y030162D01*
X019043Y029987D02*
X019319Y029711D01*
X019526Y030124D02*
X021379D01*
X019469Y029987D02*
X020827D01*
X021965Y030262D02*
X022106Y030121D01*
X019646Y029711D02*
X019744Y029613D01*
X019319Y029711D02*
X019646D01*
X02015Y029849D02*
X020335Y029664D01*
X023465Y031985D02*
X023878Y031571D01*
X039036Y010954D02*
X039174Y011091D01*
X038893D02*
X039036Y011234D01*
X038836Y011229D02*
X038898Y011291D01*
X039174Y011587D02*
Y012826D01*
Y011091D02*
Y011587D01*
X039189Y011572D01*
X039465D01*
X016563Y012256D02*
X01695Y011869D01*
X016563Y012256D02*
Y012567D01*
X016465Y012665D02*
X016563Y012567D01*
X03565Y013789D02*
X038962D01*
X033683Y016841D02*
X033687Y016836D01*
X033081Y016841D02*
X033683D01*
Y017628D02*
X033687Y017623D01*
X033081Y017628D02*
X033683D01*
X03536Y014079D02*
X03565Y013789D01*
X036475Y012666D02*
Y01325D01*
X036288Y013437D02*
X036475Y01325D01*
X03536Y013437D02*
X036288D01*
X035095Y013702D02*
X03536Y013437D01*
X029257Y013702D02*
X035095D01*
X03536Y014079D02*
Y015239D01*
X036024Y014016D02*
X038091D01*
X035738Y014301D02*
X036024Y014016D01*
X035738Y014301D02*
Y015948D01*
X03565Y016036D02*
X035738Y015948D01*
X03537Y016036D02*
X03565D01*
X03536Y016026D02*
X03537Y016036D01*
X0403Y015563D02*
Y0159D01*
X039803Y015566D02*
Y016102D01*
X0398Y015563D02*
X039803Y015566D01*
X022008Y017479D02*
Y017894D01*
X026091Y019646D02*
X026189Y019547D01*
X025728Y019646D02*
X026091D01*
X026145Y020236D02*
X026244Y020138D01*
X025728Y020236D02*
X026145D01*
X026244Y020138D02*
X026877D01*
X027074Y020335D01*
X026115Y021417D02*
X026214Y021319D01*
X026996Y021516D02*
X027659D01*
X025728Y021417D02*
X026115D01*
X027659Y021516D02*
X027659Y021516D01*
X026179Y021909D02*
Y021912D01*
X026083Y022008D02*
X026179Y021912D01*
X025728Y022008D02*
X026083D01*
X026179Y021909D02*
X026945D01*
X027141Y022106D01*
X026152Y022591D02*
X026244Y0225D01*
X025735Y022591D02*
X026152D01*
X025728Y022598D02*
X025735Y022591D01*
X026677Y0225D02*
X026874Y022697D01*
X026244Y0225D02*
X026677D01*
X027141Y023878D02*
X027141Y023878D01*
X026996Y023878D02*
X027141D01*
X025244Y021713D02*
X026033D01*
X026131Y021614D01*
X026516D01*
X025017Y021485D02*
X025244Y021713D01*
X025295Y021122D02*
X026033D01*
X025155Y020982D02*
X025295Y021122D01*
X026033D02*
X026131Y021024D01*
X026516D01*
X026799Y021319D02*
X026996Y021516D01*
X026214Y021319D02*
X026799D01*
X026772Y020728D02*
X026969Y020925D01*
X0262Y020728D02*
X026772D01*
X026101Y020827D02*
X0262Y020728D01*
X025728Y020827D02*
X026101D01*
X025416D02*
X025728D01*
X025293Y020704D02*
X025416Y020827D01*
X026803Y019547D02*
X027Y019744D01*
X027303D01*
X027303Y019744D01*
X026189Y019547D02*
X026803D01*
X017428Y019941D02*
X017526Y019843D01*
X016614Y019744D02*
X016811Y019941D01*
X014621Y019744D02*
X016614D01*
X017526Y019843D02*
X017894D01*
X016811Y019941D02*
X017428D01*
X016578Y023878D02*
X016803Y024103D01*
X013728Y023878D02*
X016578D01*
X017634Y02378D02*
X017732Y023681D01*
X017134Y02378D02*
X017634D01*
X017382Y023484D02*
X017486Y02338D01*
X017268Y023484D02*
X017382D01*
X017268Y023484D02*
X017268Y023484D01*
X016945D02*
X016945Y023484D01*
X016784Y023484D02*
X016945D01*
X016587Y023287D02*
X016784Y023484D01*
X016945Y023484D02*
X017268D01*
X016794Y022894D02*
X017431D01*
X016597Y022697D02*
X016794Y022894D01*
X016157Y022697D02*
X016597D01*
X017431Y022894D02*
X017529Y022795D01*
X016157Y022697D02*
X016157Y022697D01*
X017433Y020531D02*
X017532Y020433D01*
X014374Y020335D02*
X016672D01*
X017532Y020433D02*
X017894D01*
X016757Y021122D02*
X017452D01*
X01656Y020925D02*
X016757Y021122D01*
X014176Y020925D02*
X01656D01*
X01755Y021024D02*
X017866D01*
X017452Y021122D02*
X01755Y021024D01*
X01788Y021038D02*
X017894Y021024D01*
X017452Y021713D02*
X017539Y021625D01*
X01414Y021516D02*
X016508D01*
X017539Y021625D02*
X017883D01*
X017894Y021614D01*
X016508Y021516D02*
X016574D01*
X016508Y021516D02*
X016508Y021516D01*
X016743Y022303D02*
X017268D01*
X016546Y022106D02*
X016743Y022303D01*
X017268Y022303D02*
X017413D01*
X017512Y022205D01*
X017894D01*
X017268Y022303D02*
X017268Y022303D01*
X017529Y022795D02*
X017894D01*
X016574Y021516D02*
X01677Y021713D01*
X017452D01*
X016869Y020531D02*
X017433D01*
X016672Y020335D02*
X016869Y020531D01*
X023782Y020138D02*
X023783Y020138D01*
X017566Y020138D02*
X023782D01*
X017439Y020264D02*
X017566Y020138D01*
X032973Y0281D02*
X033989D01*
X032179Y028236D02*
X032837D01*
X032973Y0281D01*
X034924Y030249D02*
X035225Y03055D01*
X033264Y030249D02*
X034924D01*
X034737Y030387D02*
X035Y03065D01*
X033207Y030387D02*
X034737D01*
X034015Y030525D02*
X034475Y030985D01*
X03315Y030525D02*
X034015D01*
X03955Y021339D02*
Y02332D01*
X039222Y021339D02*
Y023403D01*
X016803Y024103D02*
X017268D01*
X017366Y024004D01*
X0408Y020856D02*
X041543D01*
X0408Y021702D02*
X041543D01*
X04233D02*
X042995D01*
X043489Y022196D01*
X043897Y020856D02*
X044276Y021235D01*
Y022196D01*
X04233Y020856D02*
X043897D01*
X031358Y019577D02*
X031654Y019282D01*
X030437Y021248D02*
X030474D01*
X030571Y021152D01*
X031012Y020709D02*
X031358Y020363D01*
X035Y03065D02*
Y03151D01*
X033989Y0281D02*
X034035Y028054D01*
Y027709D02*
Y028054D01*
X034026Y0277D02*
X034035Y027709D01*
X034026Y027048D02*
Y0277D01*
X017899Y032551D02*
X018465Y031985D01*
X010787Y013543D02*
X0117D01*
X020465Y012665D02*
X020976Y012154D01*
X0418Y016992D02*
Y017291D01*
X041708Y0169D02*
X0418Y016992D01*
X0388Y015563D02*
Y01585D01*
X03875Y0159D02*
X0388Y01585D01*
X040113Y017737D02*
X040158Y017692D01*
X040113Y017737D02*
Y0182D01*
X0409Y01905D02*
X041563D01*
X0409Y01995D02*
X04155D01*
X040113Y01905D02*
X0404D01*
X0405Y01895D01*
X035225Y03055D02*
X03704D01*
X035Y03151D02*
X035475Y031985D01*
X0438Y03245D02*
Y032754D01*
X043754Y0328D02*
X0438Y032754D01*
X0431Y0328D02*
X043754D01*
X043004Y032896D02*
X0431Y0328D01*
X043004Y032896D02*
Y033244D01*
X02378Y017577D02*
Y017922D01*
X023681Y017479D02*
X02378Y017577D01*
X023681Y01689D02*
Y017479D01*
X023287Y014689D02*
Y016595D01*
X023091Y016791D02*
X023287Y016595D01*
X023091Y016791D02*
Y017479D01*
X023189Y017577D02*
Y017922D01*
X023091Y017479D02*
X023189Y017577D01*
X022598Y017577D02*
Y017922D01*
X0225Y017479D02*
X022598Y017577D01*
X0225Y016839D02*
Y017479D01*
X022697Y014551D02*
Y016642D01*
X0225Y016839D02*
X022697Y016642D01*
X021909Y01738D02*
X022008Y017479D01*
X021909Y017296D02*
Y01738D01*
X022106Y014554D02*
Y016607D01*
X021909Y016804D02*
X022106Y016607D01*
X021909Y016804D02*
Y017296D01*
X021909Y017296D01*
X021319Y016705D02*
Y01751D01*
X020728Y016851D02*
X020925Y016654D01*
X020728Y016851D02*
Y017479D01*
X020827Y017577D01*
Y017922D01*
X020138Y016791D02*
Y0175D01*
Y016791D02*
X020335Y016595D01*
X019465Y016973D02*
Y017618D01*
Y016973D02*
X019744Y016693D01*
X020925Y014211D02*
Y016654D01*
X020138Y0175D02*
X020236Y017598D01*
X019465Y017618D02*
X019646Y017799D01*
X020335Y013975D02*
Y016595D01*
X021319Y01751D02*
X021417Y017609D01*
X020236Y017598D02*
Y017922D01*
X021417Y017609D02*
Y017922D01*
X021319Y016705D02*
X021516Y016509D01*
X022106Y014554D02*
X022872Y013789D01*
X028585D01*
X022815Y013651D02*
X028528D01*
X022345Y01412D02*
X022815Y013651D01*
X021734Y01412D02*
X022345D01*
X022758Y013513D02*
X028387D01*
X022288Y013983D02*
X022758Y013513D01*
X021153Y013983D02*
X022288D01*
X0227Y013376D02*
X026774D01*
X022231Y013845D02*
X0227Y013376D01*
X020465Y013845D02*
X022231D01*
X021516Y014338D02*
Y016509D01*
Y014338D02*
X021734Y01412D01*
X020925Y014211D02*
X021153Y013983D01*
X020335Y013975D02*
X020465Y013845D01*
X022174Y013707D02*
X022643Y013238D01*
X022117Y013569D02*
X022586Y0131D01*
X014479Y013971D02*
X019449D01*
X019988Y013431D01*
X022697Y014551D02*
X023321Y013927D01*
X023287Y014689D02*
X023912Y014065D01*
X028699D01*
X023321Y013927D02*
X028642D01*
X022586Y0131D02*
X02504D01*
X026774Y013376D02*
X027475Y012675D01*
X028528Y013651D02*
X029079Y0131D01*
X028757Y014202D02*
X029257Y013702D01*
X028699Y014065D02*
X029218Y013546D01*
X028642Y013927D02*
X029161Y013409D01*
X028387Y013513D02*
X02895Y01295D01*
X028585Y013789D02*
X029104Y013271D01*
X026007Y012133D02*
X026475Y011665D01*
X02504Y0131D02*
X025475Y012665D01*
X029104Y013271D02*
X031779D01*
X03195Y0131D01*
Y01219D02*
Y0131D01*
Y01219D02*
X032475Y011665D01*
X02095Y0306D02*
X021025Y030525D01*
X02095Y0306D02*
Y031499D01*
X013465Y030481D02*
Y030985D01*
Y030481D02*
X013603Y030342D01*
X016318D01*
X016455Y030205D01*
X0177D01*
X017918Y029987D01*
X019043D01*
X01495Y030675D02*
X015144Y030481D01*
X016375D02*
X016512Y030343D01*
X015144Y030481D02*
X016375D01*
X01495Y030675D02*
Y031499D01*
X016512Y030343D02*
X017819D01*
X018037Y030124D01*
X0191D01*
X019376Y029849D01*
X01645Y0306D02*
Y03097D01*
Y0306D02*
X016569Y030481D01*
X017876D01*
X018095Y030262D01*
X019193D01*
X019469Y029987D01*
X01795Y030675D02*
Y031499D01*
Y030675D02*
X018225Y0304D01*
X01925D01*
X019526Y030124D01*
X019465Y0304D02*
Y030985D01*
Y0304D02*
X019602Y030262D01*
X032475Y031985D02*
X032973Y031487D01*
Y030573D02*
Y031487D01*
X032885Y030485D02*
X032973Y030573D01*
X03704Y03055D02*
X037475Y030985D01*
X033087Y030072D02*
X033264Y030249D01*
X03195Y030072D02*
X033087D01*
X031715Y029837D02*
X03195Y030072D01*
X03303Y03021D02*
X033207Y030387D01*
X031857Y03021D02*
X03303D01*
X031622Y029974D02*
X031857Y03021D01*
X032973Y030348D02*
X03315Y030525D01*
X0318Y030348D02*
X032973D01*
X031565Y030112D02*
X0318Y030348D01*
X03171Y030485D02*
X032885D01*
X031475Y03025D02*
X03171Y030485D01*
X030495Y03025D02*
X031475D01*
X031475Y030525D02*
Y030985D01*
X03135Y0304D02*
X031475Y030525D01*
X03045Y0304D02*
X03135D01*
X029218Y013546D02*
X034544D01*
X033475Y012665D02*
Y01325D01*
X033316Y013409D02*
X033475Y01325D01*
X029161Y013409D02*
X033316D01*
X03004Y0131D02*
X030475Y012665D01*
X029079Y0131D02*
X03004D01*
X02895Y01219D02*
Y01295D01*
X027475Y012665D02*
Y012675D01*
X02895Y01219D02*
X029475Y011665D01*
X021024Y025728D02*
Y025756D01*
X022205Y025728D02*
Y025756D01*
X023386Y025728D02*
Y025756D01*
X01995Y01218D02*
X020465Y011665D01*
X01422Y013476D02*
X018184D01*
X014163Y013338D02*
X016862D01*
X014095Y0132D02*
X01495D01*
X01395Y01218D02*
Y01315D01*
X018184Y013476D02*
X018465Y013195D01*
X015465Y012665D02*
Y012685D01*
X016862Y013338D02*
X01695Y01325D01*
X01495Y0132D02*
X015465Y012685D01*
X018465Y012665D02*
Y013195D01*
X01695Y01218D02*
Y01325D01*
Y01218D02*
X017465Y011665D01*
X01395Y01218D02*
X014465Y011665D01*
X014465Y031985D02*
X01495Y031499D01*
X01645Y03097D02*
X016465Y030985D01*
X017465Y031985D02*
X01795Y031499D01*
X020465Y031985D02*
X02095Y031499D01*
X026516Y031985D02*
X026925Y031575D01*
X026475Y031985D02*
X026516D01*
X029475Y031985D02*
X02995Y031509D01*
D61*
X044872Y030108D02*
D03*
D62*
X043691Y028278D02*
D03*
X046063D02*
D03*
D63*
X04205Y025685D02*
D03*
X025475Y011665D02*
D03*
X024464Y031985D02*
D03*
X037475Y031985D02*
D03*
X012465Y011665D02*
D03*
D64*
X04205Y024685D02*
D03*
X03905Y025685D02*
D03*
Y024685D02*
D03*
X04005Y025685D02*
D03*
Y024685D02*
D03*
X04105D02*
D03*
Y025685D02*
D03*
X0458Y03295D02*
D03*
X0448D02*
D03*
X043489Y02318D02*
D03*
X044276Y022196D02*
D03*
Y02318D02*
D03*
X043489Y022196D02*
D03*
X043439Y01653D02*
D03*
X044226Y015546D02*
D03*
Y01653D02*
D03*
X043439Y015546D02*
D03*
X011264Y021311D02*
D03*
Y022311D02*
D03*
X012264D02*
D03*
Y023311D02*
D03*
X011264D02*
D03*
X012264Y026311D02*
D03*
X012264Y025311D02*
D03*
X011264D02*
D03*
Y024311D02*
D03*
X012264D02*
D03*
X011264Y020311D02*
D03*
X012264D02*
D03*
Y021311D02*
D03*
Y019311D02*
D03*
X011264D02*
D03*
Y018311D02*
D03*
X012264D02*
D03*
X011264Y017311D02*
D03*
X012264D02*
D03*
X030475Y011665D02*
D03*
X029475D02*
D03*
Y012665D02*
D03*
X028475D02*
D03*
Y011665D02*
D03*
X025475Y012665D02*
D03*
X026475Y012665D02*
D03*
Y011665D02*
D03*
X027475D02*
D03*
Y012665D02*
D03*
X031475Y011665D02*
D03*
Y012665D02*
D03*
X030475D02*
D03*
X032475D02*
D03*
Y011665D02*
D03*
X033475D02*
D03*
Y012665D02*
D03*
X034475Y011665D02*
D03*
Y012665D02*
D03*
X035475Y011665D02*
D03*
Y012665D02*
D03*
X036475Y012666D02*
D03*
Y011666D02*
D03*
X037475Y012665D02*
D03*
Y011665D02*
D03*
X019465Y031985D02*
D03*
X020465D02*
D03*
Y030985D02*
D03*
X021465D02*
D03*
Y031985D02*
D03*
X024464Y030985D02*
D03*
X023465Y030985D02*
D03*
Y031985D02*
D03*
X022465D02*
D03*
Y030985D02*
D03*
X018465Y031985D02*
D03*
Y030985D02*
D03*
X019465D02*
D03*
X017465D02*
D03*
Y031985D02*
D03*
X016465D02*
D03*
Y030985D02*
D03*
X015465Y031985D02*
D03*
Y030985D02*
D03*
X014465Y031985D02*
D03*
Y030985D02*
D03*
X013465Y030985D02*
D03*
Y031985D02*
D03*
X012465Y030985D02*
D03*
Y031985D02*
D03*
X032475Y031985D02*
D03*
X033475D02*
D03*
Y030985D02*
D03*
X034475D02*
D03*
Y031985D02*
D03*
X037475Y030985D02*
D03*
X036475Y030985D02*
D03*
Y031985D02*
D03*
X035475D02*
D03*
Y030985D02*
D03*
X031475Y031985D02*
D03*
Y030985D02*
D03*
X032475D02*
D03*
X030475D02*
D03*
Y031985D02*
D03*
X029475D02*
D03*
Y030985D02*
D03*
X028475Y031985D02*
D03*
Y030985D02*
D03*
X027475Y031985D02*
D03*
Y030985D02*
D03*
X026475Y030985D02*
D03*
Y031985D02*
D03*
X025475Y030985D02*
D03*
Y031985D02*
D03*
X024464Y011665D02*
D03*
Y012665D02*
D03*
X023464Y011665D02*
D03*
Y012665D02*
D03*
X022465Y012665D02*
D03*
Y011665D02*
D03*
X021465Y012665D02*
D03*
Y011665D02*
D03*
X020465Y012665D02*
D03*
Y011665D02*
D03*
X019465D02*
D03*
Y012665D02*
D03*
X017465D02*
D03*
X018465D02*
D03*
Y011665D02*
D03*
X014465Y012665D02*
D03*
Y011665D02*
D03*
X013465D02*
D03*
Y012665D02*
D03*
X012465Y012665D02*
D03*
X015465Y011665D02*
D03*
Y012665D02*
D03*
X016465D02*
D03*
Y011665D02*
D03*
X017465D02*
D03*
D65*
X047469Y0313D02*
D03*
X043531D02*
D03*
D66*
X0468Y03295D02*
D03*
X011264Y026311D02*
D03*
D67*
X0453Y020326D02*
D03*
Y02505D02*
D03*
X04525Y013676D02*
D03*
Y0184D02*
D03*
D68*
X041506Y029278D02*
D03*
Y028491D02*
D03*
X024682Y028661D02*
D03*
X038697Y028847D02*
D03*
Y029636D02*
D03*
X03536Y015239D02*
D03*
X036148Y016026D02*
D03*
X03536D02*
D03*
Y017623D02*
D03*
X036148D02*
D03*
X03536Y016836D02*
D03*
X034567Y015236D02*
D03*
X031358Y018789D02*
D03*
Y019577D02*
D03*
Y020363D02*
D03*
Y021152D02*
D03*
X016713Y014964D02*
D03*
X010787Y030107D02*
D03*
Y030894D02*
D03*
X014872Y026358D02*
D03*
Y027146D02*
D03*
X014085D02*
D03*
Y026358D02*
D03*
X010787Y014331D02*
D03*
Y013543D02*
D03*
D69*
X025469Y028661D02*
D03*
X039484Y028847D02*
D03*
Y029636D02*
D03*
X036148Y015239D02*
D03*
Y016836D02*
D03*
X030571Y018789D02*
D03*
Y019577D02*
D03*
Y020363D02*
D03*
Y021152D02*
D03*
X015925Y014964D02*
D03*
D70*
X046835Y0124D02*
D03*
Y010628D02*
D03*
X044276Y010628D02*
D03*
X0429Y0124D02*
D03*
Y010628D02*
D03*
X040341Y010628D02*
D03*
D71*
X044276Y0124D02*
D03*
X040341D02*
D03*
D72*
X034567Y016024D02*
D03*
X010787Y029319D02*
D03*
X014872Y027933D02*
D03*
X014085D02*
D03*
X010787Y012756D02*
D03*
D73*
X031201Y022057D02*
D03*
X031752D02*
D03*
D74*
X032179Y025677D02*
D03*
X030407D02*
D03*
X030407Y028236D02*
D03*
D75*
X032179D02*
D03*
D76*
X027303Y024173D02*
D03*
X026516Y023976D02*
D03*
X025728Y02378D02*
D03*
X027303Y023583D02*
D03*
X026516Y023386D02*
D03*
X025728Y023189D02*
D03*
X027303Y022992D02*
D03*
X026516Y022795D02*
D03*
X025728Y022598D02*
D03*
X027303Y022402D02*
D03*
X026516Y022205D02*
D03*
X025728Y022008D02*
D03*
X027303Y021811D02*
D03*
X026516Y021614D02*
D03*
X025728Y021417D02*
D03*
X027303Y02122D02*
D03*
X026516Y021024D02*
D03*
X025728Y020827D02*
D03*
X027303Y02063D02*
D03*
X026516Y020433D02*
D03*
X025728Y020236D02*
D03*
X027303Y020039D02*
D03*
X026516Y019843D02*
D03*
X025728Y019646D02*
D03*
X016319Y024173D02*
D03*
X017894Y023976D02*
D03*
X017106Y02378D02*
D03*
X016319Y023583D02*
D03*
X017894Y023386D02*
D03*
X017106Y023189D02*
D03*
X016319Y022992D02*
D03*
X017894Y022795D02*
D03*
X017106Y022598D02*
D03*
X016319Y022402D02*
D03*
X017894Y022205D02*
D03*
X017106Y022008D02*
D03*
X016319Y021811D02*
D03*
X017894Y021614D02*
D03*
X017106Y021417D02*
D03*
X016319Y02122D02*
D03*
X017894Y021024D02*
D03*
X017106Y020827D02*
D03*
X016319Y02063D02*
D03*
X017894Y020433D02*
D03*
X017106Y020236D02*
D03*
X016319Y020039D02*
D03*
X017894Y019843D02*
D03*
X017106Y019646D02*
D03*
X016319Y019449D02*
D03*
D77*
X027303D02*
D03*
D78*
X024173Y027303D02*
D03*
X023976Y025728D02*
D03*
X02378Y026516D02*
D03*
X023583Y027303D02*
D03*
X023386Y025728D02*
D03*
X023189Y026516D02*
D03*
X022992Y027303D02*
D03*
X022795Y025728D02*
D03*
X022598Y026516D02*
D03*
X022402Y027303D02*
D03*
X022205Y025728D02*
D03*
X022008Y026516D02*
D03*
X021811Y027303D02*
D03*
X021614Y025728D02*
D03*
X021417Y026516D02*
D03*
X02122Y027303D02*
D03*
X021024Y025728D02*
D03*
X020827Y026516D02*
D03*
X02063Y027303D02*
D03*
X020433Y025728D02*
D03*
X020236Y026516D02*
D03*
X020039Y027303D02*
D03*
X019843Y025728D02*
D03*
X019646Y026516D02*
D03*
X019449Y027303D02*
D03*
Y016319D02*
D03*
X019646Y017894D02*
D03*
X019843Y017106D02*
D03*
X020039Y016319D02*
D03*
X020236Y017894D02*
D03*
X020433Y017106D02*
D03*
X02063Y016319D02*
D03*
X020827Y017894D02*
D03*
X021024Y017106D02*
D03*
X02122Y016319D02*
D03*
X021417Y017894D02*
D03*
X021614Y017106D02*
D03*
X021811Y016319D02*
D03*
X022008Y017894D02*
D03*
X022205Y017106D02*
D03*
X022402Y016319D02*
D03*
X022598Y017894D02*
D03*
X022795Y017106D02*
D03*
X022992Y016319D02*
D03*
X023189Y017894D02*
D03*
X023386Y017106D02*
D03*
X023583Y016319D02*
D03*
X02378Y017894D02*
D03*
X023976Y017106D02*
D03*
X024173Y016319D02*
D03*
D79*
X03185Y018012D02*
D03*
X015925Y01628D02*
D03*
X0386Y02318D02*
D03*
X04253Y022431D02*
D03*
X0386Y022438D02*
D03*
X0428Y03165D02*
D03*
X039901Y020819D02*
D03*
X035Y01061D02*
D03*
X025574Y027102D02*
D03*
X025571Y027431D02*
D03*
X028533Y028054D02*
D03*
X025571Y028051D02*
D03*
X028533Y027766D02*
D03*
X025571D02*
D03*
X028533Y027431D02*
D03*
X028535Y027102D02*
D03*
Y026766D02*
D03*
X025574D02*
D03*
X018593Y023248D02*
D03*
Y02375D02*
D03*
X026105Y024241D02*
D03*
X024724D02*
D03*
X038258Y019311D02*
D03*
X017106Y018329D02*
D03*
X041506Y023986D02*
D03*
X0402Y031509D02*
D03*
X04175Y0313D02*
D03*
X037864Y019321D02*
D03*
Y01797D02*
D03*
X038248Y017972D02*
D03*
X024391Y018496D02*
D03*
X024194Y018229D02*
D03*
X018455Y020444D02*
D03*
X037933Y014892D02*
D03*
X042924Y0182D02*
D03*
X04063Y016388D02*
D03*
X03955Y014016D02*
D03*
X038091D02*
D03*
X039803Y016102D02*
D03*
X0403Y0159D02*
D03*
X024855Y021705D02*
D03*
X023783Y020138D02*
D03*
X03955Y021339D02*
D03*
X039222D02*
D03*
X024626Y018789D02*
D03*
X0408Y020856D02*
D03*
X024065Y020455D02*
D03*
X0408Y021702D02*
D03*
M02*
