G04*
G04 #@! TF.GenerationSoftware,Altium Limited,Altium Designer,19.1.7 (138)*
G04*
G04 Layer_Color=128*
%FSTAX24Y24*%
%MOIN*%
G70*
G01*
G75*
%ADD11C,0.0100*%
D11*
X009988Y0337D02*
X04938D01*
X011042Y011575D02*
X011157Y011552D01*
X011264Y011508D01*
X011361Y011443D01*
X011443Y011361D01*
X011508Y011264D01*
X011552Y011157D01*
X011575Y011042D01*
Y010984D02*
Y011042D01*
Y010926D02*
Y010984D01*
X011552Y010812D02*
X011575Y010926D01*
X011508Y010705D02*
X011552Y010812D01*
X011443Y010608D02*
X011508Y010705D01*
X011361Y010526D02*
X011443Y010608D01*
X011264Y010461D02*
X011361Y010526D01*
X011157Y010416D02*
X011264Y010461D01*
X011042Y010394D02*
X011157Y010416D01*
X010926Y010394D02*
X011042D01*
X010812Y010416D02*
X010926Y010394D01*
X010705Y010461D02*
X010812Y010416D01*
X010608Y010526D02*
X010705Y010461D01*
X010526Y010608D02*
X010608Y010526D01*
X010461Y010705D02*
X010526Y010608D01*
X010416Y010812D02*
X010461Y010705D01*
X010394Y010926D02*
X010416Y010812D01*
X010394Y010926D02*
Y010984D01*
Y011042D01*
X010416Y011157D01*
X010461Y011264D01*
X010526Y011361D01*
X010608Y011443D01*
X010705Y011508D01*
X010812Y011552D01*
X010926Y011575D01*
X011042D01*
X048424D02*
X048538Y011552D01*
X048645Y011508D01*
X048742Y011443D01*
X048824Y011361D01*
X048889Y011264D01*
X048934Y011157D01*
X048956Y011042D01*
Y010984D02*
Y011042D01*
Y010926D02*
Y010984D01*
X048934Y010812D02*
X048956Y010926D01*
X048889Y010705D02*
X048934Y010812D01*
X048824Y010608D02*
X048889Y010705D01*
X048742Y010526D02*
X048824Y010608D01*
X048645Y010461D02*
X048742Y010526D01*
X048538Y010416D02*
X048645Y010461D01*
X048424Y010394D02*
X048538Y010416D01*
X048308Y010394D02*
X048424D01*
X048193Y010416D02*
X048308Y010394D01*
X048086Y010461D02*
X048193Y010416D01*
X047989Y010526D02*
X048086Y010461D01*
X047907Y010608D02*
X047989Y010526D01*
X047842Y010705D02*
X047907Y010608D01*
X047798Y010812D02*
X047842Y010705D01*
X047775Y010926D02*
X047798Y010812D01*
X047775Y010926D02*
Y010984D01*
Y011042D01*
X047798Y011157D01*
X047842Y011264D01*
X047907Y011361D01*
X047989Y011443D01*
X048086Y011508D01*
X048193Y011552D01*
X048308Y011575D01*
X048424D01*
X018299Y018583D02*
X01836Y018571D01*
X018417Y018547D01*
X018468Y018512D01*
X018512Y018468D01*
X018547Y018417D01*
X018571Y01836D01*
X018583Y018299D01*
Y018268D02*
Y018299D01*
Y018237D02*
Y018268D01*
X018571Y018176D02*
X018583Y018237D01*
X018547Y018119D02*
X018571Y018176D01*
X018512Y018067D02*
X018547Y018119D01*
X018468Y018023D02*
X018512Y018067D01*
X018417Y017989D02*
X018468Y018023D01*
X01836Y017965D02*
X018417Y017989D01*
X018299Y017953D02*
X01836Y017965D01*
X018237Y017953D02*
X018299D01*
X018176Y017965D02*
X018237Y017953D01*
X018119Y017989D02*
X018176Y017965D01*
X018067Y018023D02*
X018119Y017989D01*
X018023Y018067D02*
X018067Y018023D01*
X017989Y018119D02*
X018023Y018067D01*
X017965Y018176D02*
X017989Y018119D01*
X017953Y018237D02*
X017965Y018176D01*
X017953Y018237D02*
Y018268D01*
Y018299D01*
X017965Y01836D01*
X017989Y018417D01*
X018023Y018468D01*
X018067Y018512D01*
X018119Y018547D01*
X018176Y018571D01*
X018237Y018583D01*
X018299D01*
X035679Y020974D02*
X035736Y020963D01*
X035789Y020941D01*
X035838Y020908D01*
X035879Y020867D01*
X035911Y020819D01*
X035934Y020765D01*
X035945Y020708D01*
Y020679D02*
Y020708D01*
Y02065D02*
Y020679D01*
X035934Y020593D02*
X035945Y02065D01*
X035911Y020539D02*
X035934Y020593D01*
X035879Y020491D02*
X035911Y020539D01*
X035838Y02045D02*
X035879Y020491D01*
X035789Y020417D02*
X035838Y02045D01*
X035736Y020395D02*
X035789Y020417D01*
X035679Y020384D02*
X035736Y020395D01*
X035621Y020384D02*
X035679D01*
X035563Y020395D02*
X035621Y020384D01*
X03551Y020417D02*
X035563Y020395D01*
X035461Y02045D02*
X03551Y020417D01*
X03542Y020491D02*
X035461Y02045D01*
X035388Y020539D02*
X03542Y020491D01*
X035366Y020593D02*
X035388Y020539D01*
X035354Y02065D02*
X035366Y020593D01*
X035354Y02065D02*
Y020679D01*
Y020708D01*
X035366Y020765D01*
X035388Y020819D01*
X03542Y020867D01*
X035461Y020908D01*
X03551Y020941D01*
X035563Y020963D01*
X035621Y020974D01*
X035679D01*
X021888Y022992D02*
X022042Y022972D01*
X022191Y022932D01*
X022335Y022873D01*
X022469Y022795D01*
X022591Y022701D01*
X022701Y022591D01*
X022795Y022469D01*
X022873Y022335D01*
X022932Y022191D01*
X022972Y022042D01*
X022992Y021888D01*
Y021811D02*
Y021888D01*
Y021734D02*
Y021811D01*
X022972Y02158D02*
X022992Y021734D01*
X022932Y021431D02*
X022972Y02158D01*
X022873Y021288D02*
X022932Y021431D01*
X022795Y021153D02*
X022873Y021288D01*
X022701Y021031D02*
X022795Y021153D01*
X022591Y020921D02*
X022701Y021031D01*
X022469Y020827D02*
X022591Y020921D01*
X022335Y020749D02*
X022469Y020827D01*
X022191Y02069D02*
X022335Y020749D01*
X022042Y02065D02*
X022191Y02069D01*
X021888Y02063D02*
X022042Y02065D01*
X021734Y02063D02*
X021888D01*
X02158Y02065D02*
X021734Y02063D01*
X021431Y02069D02*
X02158Y02065D01*
X021288Y020749D02*
X021431Y02069D01*
X021153Y020827D02*
X021288Y020749D01*
X021031Y020921D02*
X021153Y020827D01*
X020921Y021031D02*
X021031Y020921D01*
X020827Y021153D02*
X020921Y021031D01*
X020749Y021288D02*
X020827Y021153D01*
X02069Y021431D02*
X020749Y021288D01*
X02065Y02158D02*
X02069Y021431D01*
X02063Y021734D02*
X02065Y02158D01*
X02063Y021734D02*
Y021811D01*
Y021888D01*
X02065Y022042D01*
X02069Y022191D01*
X020749Y022335D01*
X020827Y022469D01*
X020921Y022591D01*
X021031Y022701D01*
X021153Y022795D01*
X021288Y022873D01*
X021431Y022932D01*
X02158Y022972D01*
X021734Y022992D01*
X021888D01*
X035697Y023868D02*
X035783Y023832D01*
X03585Y023766D01*
X035886Y023679D01*
Y023632D02*
Y023679D01*
Y023585D02*
Y023632D01*
X03585Y023498D02*
X035886Y023585D01*
X035783Y023432D02*
X03585Y023498D01*
X035697Y023396D02*
X035783Y023432D01*
X035603Y023396D02*
X035697D01*
X035516Y023432D02*
X035603Y023396D01*
X035449Y023498D02*
X035516Y023432D01*
X035413Y023585D02*
X035449Y023498D01*
X035413Y023585D02*
Y023632D01*
Y023679D01*
X035449Y023766D01*
X035516Y023832D01*
X035603Y023868D01*
X035697D01*
X025385Y025669D02*
X025446Y025657D01*
X025504Y025633D01*
X025555Y025599D01*
X025599Y025555D01*
X025633Y025504D01*
X025657Y025446D01*
X025669Y025385D01*
Y025354D02*
Y025385D01*
Y025323D02*
Y025354D01*
X025657Y025262D02*
X025669Y025323D01*
X025633Y025205D02*
X025657Y025262D01*
X025599Y025154D02*
X025633Y025205D01*
X025555Y02511D02*
X025599Y025154D01*
X025504Y025075D02*
X025555Y02511D01*
X025446Y025051D02*
X025504Y025075D01*
X025385Y025039D02*
X025446Y025051D01*
X025323Y025039D02*
X025385D01*
X025262Y025051D02*
X025323Y025039D01*
X025205Y025075D02*
X025262Y025051D01*
X025154Y02511D02*
X025205Y025075D01*
X02511Y025154D02*
X025154Y02511D01*
X025075Y025205D02*
X02511Y025154D01*
X025051Y025262D02*
X025075Y025205D01*
X025039Y025323D02*
X025051Y025262D01*
X025039Y025323D02*
Y025354D01*
Y025385D01*
X025051Y025446D01*
X025075Y025504D01*
X02511Y025555D01*
X025154Y025599D01*
X025205Y025633D01*
X025262Y025657D01*
X025323Y025669D01*
X025385D01*
X047885Y028789D02*
X047984Y02877D01*
X048077Y028731D01*
X048161Y028675D01*
X048232Y028604D01*
X048288Y02852D01*
X048327Y028427D01*
X048346Y028328D01*
Y028278D02*
Y028328D01*
Y028227D02*
Y028278D01*
X048327Y028128D02*
X048346Y028227D01*
X048288Y028035D02*
X048327Y028128D01*
X048232Y027951D02*
X048288Y028035D01*
X048161Y02788D02*
X048232Y027951D01*
X048077Y027824D02*
X048161Y02788D01*
X047984Y027785D02*
X048077Y027824D01*
X047885Y027766D02*
X047984Y027785D01*
X047784Y027766D02*
X047885D01*
X047685Y027785D02*
X047784Y027766D01*
X047592Y027824D02*
X047685Y027785D01*
X047508Y02788D02*
X047592Y027824D01*
X047437Y027951D02*
X047508Y02788D01*
X047381Y028035D02*
X047437Y027951D01*
X047343Y028128D02*
X047381Y028035D01*
X047323Y028227D02*
X047343Y028128D01*
X047323Y028227D02*
Y028278D01*
Y028328D01*
X047343Y028427D01*
X047381Y02852D01*
X047437Y028604D01*
X047508Y028675D01*
X047592Y028731D01*
X047685Y02877D01*
X047784Y028789D01*
X047885D01*
X011042Y033256D02*
X011157Y033234D01*
X011264Y033189D01*
X011361Y033124D01*
X011443Y033042D01*
X011508Y032945D01*
X011552Y032838D01*
X011575Y032724D01*
Y032666D02*
Y032724D01*
Y032608D02*
Y032666D01*
X011552Y032493D02*
X011575Y032608D01*
X011508Y032386D02*
X011552Y032493D01*
X011443Y032289D02*
X011508Y032386D01*
X011361Y032207D02*
X011443Y032289D01*
X011264Y032142D02*
X011361Y032207D01*
X011157Y032098D02*
X011264Y032142D01*
X011042Y032075D02*
X011157Y032098D01*
X010926Y032075D02*
X011042D01*
X010812Y032098D02*
X010926Y032075D01*
X010705Y032142D02*
X010812Y032098D01*
X010608Y032207D02*
X010705Y032142D01*
X010526Y032289D02*
X010608Y032207D01*
X010461Y032386D02*
X010526Y032289D01*
X010416Y032493D02*
X010461Y032386D01*
X010394Y032608D02*
X010416Y032493D01*
X010394Y032608D02*
Y032666D01*
Y032724D01*
X010416Y032838D01*
X010461Y032945D01*
X010526Y033042D01*
X010608Y033124D01*
X010705Y033189D01*
X010812Y033234D01*
X010926Y033256D01*
X011042D01*
X048424D02*
X048538Y033234D01*
X048645Y033189D01*
X048742Y033124D01*
X048824Y033042D01*
X048889Y032945D01*
X048934Y032838D01*
X048956Y032724D01*
Y032666D02*
Y032724D01*
Y032608D02*
Y032666D01*
X048934Y032493D02*
X048956Y032608D01*
X048889Y032386D02*
X048934Y032493D01*
X048824Y032289D02*
X048889Y032386D01*
X048742Y032207D02*
X048824Y032289D01*
X048645Y032142D02*
X048742Y032207D01*
X048538Y032098D02*
X048645Y032142D01*
X048424Y032075D02*
X048538Y032098D01*
X048308Y032075D02*
X048424D01*
X048193Y032098D02*
X048308Y032075D01*
X048086Y032142D02*
X048193Y032098D01*
X047989Y032207D02*
X048086Y032142D01*
X047907Y032289D02*
X047989Y032207D01*
X047842Y032386D02*
X047907Y032289D01*
X047798Y032493D02*
X047842Y032386D01*
X047775Y032608D02*
X047798Y032493D01*
X047775Y032608D02*
Y032666D01*
Y032724D01*
X047798Y032838D01*
X047842Y032945D01*
X047907Y033042D01*
X047989Y033124D01*
X048086Y033189D01*
X048193Y033234D01*
X048308Y033256D01*
X048424D01*
X04938Y0337D02*
X049398Y033693D01*
X009967Y03369D02*
X009988Y0337D01*
X009953Y033671D02*
X009967Y03369D01*
X009949Y033647D02*
X009953Y033671D01*
X009949Y033647D02*
X009952Y033636D01*
X009951Y033631D02*
X009952Y033636D01*
X00995Y033624D02*
X009951Y033631D01*
X00995Y01D02*
Y033624D01*
Y00999D02*
Y01D01*
Y00999D02*
X009957Y009972D01*
X009972Y009957D01*
X00999Y00995D01*
X04938D01*
X049398Y009957D01*
X049413Y009972D01*
X04942Y00999D01*
Y01D01*
X04942Y010005D02*
X04942Y01D01*
X049419Y010012D02*
X04942Y010005D01*
X049419Y010012D02*
X049419Y010019D01*
X04942Y010026D01*
X04942Y03365D02*
X04942Y010026D01*
X04942Y03365D02*
Y03366D01*
X049413Y033678D02*
X04942Y03366D01*
X049398Y033693D02*
X049413Y033678D01*
X011042Y011575D02*
X011157Y011552D01*
X011264Y011508D01*
X011361Y011443D01*
X011443Y011361D01*
X011508Y011264D01*
X011552Y011157D01*
X011575Y011042D01*
Y010984D02*
Y011042D01*
Y010926D02*
Y010984D01*
X011552Y010812D02*
X011575Y010926D01*
X011508Y010705D02*
X011552Y010812D01*
X011443Y010608D02*
X011508Y010705D01*
X011361Y010526D02*
X011443Y010608D01*
X011264Y010461D02*
X011361Y010526D01*
X011157Y010416D02*
X011264Y010461D01*
X011042Y010394D02*
X011157Y010416D01*
X010926Y010394D02*
X011042D01*
X010812Y010416D02*
X010926Y010394D01*
X010705Y010461D02*
X010812Y010416D01*
X010608Y010526D02*
X010705Y010461D01*
X010526Y010608D02*
X010608Y010526D01*
X010461Y010705D02*
X010526Y010608D01*
X010416Y010812D02*
X010461Y010705D01*
X010394Y010926D02*
X010416Y010812D01*
X010394Y010926D02*
Y010984D01*
Y011042D01*
X010416Y011157D01*
X010461Y011264D01*
X010526Y011361D01*
X010608Y011443D01*
X010705Y011508D01*
X010812Y011552D01*
X010926Y011575D01*
X011042D01*
X048424D02*
X048538Y011552D01*
X048645Y011508D01*
X048742Y011443D01*
X048824Y011361D01*
X048889Y011264D01*
X048934Y011157D01*
X048956Y011042D01*
Y010984D02*
Y011042D01*
Y010926D02*
Y010984D01*
X048934Y010812D02*
X048956Y010926D01*
X048889Y010705D02*
X048934Y010812D01*
X048824Y010608D02*
X048889Y010705D01*
X048742Y010526D02*
X048824Y010608D01*
X048645Y010461D02*
X048742Y010526D01*
X048538Y010416D02*
X048645Y010461D01*
X048424Y010394D02*
X048538Y010416D01*
X048308Y010394D02*
X048424D01*
X048193Y010416D02*
X048308Y010394D01*
X048086Y010461D02*
X048193Y010416D01*
X047989Y010526D02*
X048086Y010461D01*
X047907Y010608D02*
X047989Y010526D01*
X047842Y010705D02*
X047907Y010608D01*
X047798Y010812D02*
X047842Y010705D01*
X047775Y010926D02*
X047798Y010812D01*
X047775Y010926D02*
Y010984D01*
Y011042D01*
X047798Y011157D01*
X047842Y011264D01*
X047907Y011361D01*
X047989Y011443D01*
X048086Y011508D01*
X048193Y011552D01*
X048308Y011575D01*
X048424D01*
X018299Y018583D02*
X01836Y018571D01*
X018417Y018547D01*
X018468Y018512D01*
X018512Y018468D01*
X018547Y018417D01*
X018571Y01836D01*
X018583Y018299D01*
Y018268D02*
Y018299D01*
Y018237D02*
Y018268D01*
X018571Y018176D02*
X018583Y018237D01*
X018547Y018119D02*
X018571Y018176D01*
X018512Y018067D02*
X018547Y018119D01*
X018468Y018023D02*
X018512Y018067D01*
X018417Y017989D02*
X018468Y018023D01*
X01836Y017965D02*
X018417Y017989D01*
X018299Y017953D02*
X01836Y017965D01*
X018237Y017953D02*
X018299D01*
X018176Y017965D02*
X018237Y017953D01*
X018119Y017989D02*
X018176Y017965D01*
X018067Y018023D02*
X018119Y017989D01*
X018023Y018067D02*
X018067Y018023D01*
X017989Y018119D02*
X018023Y018067D01*
X017965Y018176D02*
X017989Y018119D01*
X017953Y018237D02*
X017965Y018176D01*
X017953Y018237D02*
Y018268D01*
Y018299D01*
X017965Y01836D01*
X017989Y018417D01*
X018023Y018468D01*
X018067Y018512D01*
X018119Y018547D01*
X018176Y018571D01*
X018237Y018583D01*
X018299D01*
X035679Y020974D02*
X035736Y020963D01*
X035789Y020941D01*
X035838Y020908D01*
X035879Y020867D01*
X035911Y020819D01*
X035934Y020765D01*
X035945Y020708D01*
Y020679D02*
Y020708D01*
Y02065D02*
Y020679D01*
X035934Y020593D02*
X035945Y02065D01*
X035911Y020539D02*
X035934Y020593D01*
X035879Y020491D02*
X035911Y020539D01*
X035838Y02045D02*
X035879Y020491D01*
X035789Y020417D02*
X035838Y02045D01*
X035736Y020395D02*
X035789Y020417D01*
X035679Y020384D02*
X035736Y020395D01*
X035621Y020384D02*
X035679D01*
X035563Y020395D02*
X035621Y020384D01*
X03551Y020417D02*
X035563Y020395D01*
X035461Y02045D02*
X03551Y020417D01*
X03542Y020491D02*
X035461Y02045D01*
X035388Y020539D02*
X03542Y020491D01*
X035366Y020593D02*
X035388Y020539D01*
X035354Y02065D02*
X035366Y020593D01*
X035354Y02065D02*
Y020679D01*
Y020708D01*
X035366Y020765D01*
X035388Y020819D01*
X03542Y020867D01*
X035461Y020908D01*
X03551Y020941D01*
X035563Y020963D01*
X035621Y020974D01*
X035679D01*
X021888Y022992D02*
X022042Y022972D01*
X022191Y022932D01*
X022335Y022873D01*
X022469Y022795D01*
X022591Y022701D01*
X022701Y022591D01*
X022795Y022469D01*
X022873Y022335D01*
X022932Y022191D01*
X022972Y022042D01*
X022992Y021888D01*
Y021811D02*
Y021888D01*
Y021734D02*
Y021811D01*
X022972Y02158D02*
X022992Y021734D01*
X022932Y021431D02*
X022972Y02158D01*
X022873Y021288D02*
X022932Y021431D01*
X022795Y021153D02*
X022873Y021288D01*
X022701Y021031D02*
X022795Y021153D01*
X022591Y020921D02*
X022701Y021031D01*
X022469Y020827D02*
X022591Y020921D01*
X022335Y020749D02*
X022469Y020827D01*
X022191Y02069D02*
X022335Y020749D01*
X022042Y02065D02*
X022191Y02069D01*
X021888Y02063D02*
X022042Y02065D01*
X021734Y02063D02*
X021888D01*
X02158Y02065D02*
X021734Y02063D01*
X021431Y02069D02*
X02158Y02065D01*
X021288Y020749D02*
X021431Y02069D01*
X021153Y020827D02*
X021288Y020749D01*
X021031Y020921D02*
X021153Y020827D01*
X020921Y021031D02*
X021031Y020921D01*
X020827Y021153D02*
X020921Y021031D01*
X020749Y021288D02*
X020827Y021153D01*
X02069Y021431D02*
X020749Y021288D01*
X02065Y02158D02*
X02069Y021431D01*
X02063Y021734D02*
X02065Y02158D01*
X02063Y021734D02*
Y021811D01*
Y021888D01*
X02065Y022042D01*
X02069Y022191D01*
X020749Y022335D01*
X020827Y022469D01*
X020921Y022591D01*
X021031Y022701D01*
X021153Y022795D01*
X021288Y022873D01*
X021431Y022932D01*
X02158Y022972D01*
X021734Y022992D01*
X021888D01*
X035697Y023868D02*
X035783Y023832D01*
X03585Y023766D01*
X035886Y023679D01*
Y023632D02*
Y023679D01*
Y023585D02*
Y023632D01*
X03585Y023498D02*
X035886Y023585D01*
X035783Y023432D02*
X03585Y023498D01*
X035697Y023396D02*
X035783Y023432D01*
X035603Y023396D02*
X035697D01*
X035516Y023432D02*
X035603Y023396D01*
X035449Y023498D02*
X035516Y023432D01*
X035413Y023585D02*
X035449Y023498D01*
X035413Y023585D02*
Y023632D01*
Y023679D01*
X035449Y023766D01*
X035516Y023832D01*
X035603Y023868D01*
X035697D01*
X025385Y025669D02*
X025446Y025657D01*
X025504Y025633D01*
X025555Y025599D01*
X025599Y025555D01*
X025633Y025504D01*
X025657Y025446D01*
X025669Y025385D01*
Y025354D02*
Y025385D01*
Y025323D02*
Y025354D01*
X025657Y025262D02*
X025669Y025323D01*
X025633Y025205D02*
X025657Y025262D01*
X025599Y025154D02*
X025633Y025205D01*
X025555Y02511D02*
X025599Y025154D01*
X025504Y025075D02*
X025555Y02511D01*
X025446Y025051D02*
X025504Y025075D01*
X025385Y025039D02*
X025446Y025051D01*
X025323Y025039D02*
X025385D01*
X025262Y025051D02*
X025323Y025039D01*
X025205Y025075D02*
X025262Y025051D01*
X025154Y02511D02*
X025205Y025075D01*
X02511Y025154D02*
X025154Y02511D01*
X025075Y025205D02*
X02511Y025154D01*
X025051Y025262D02*
X025075Y025205D01*
X025039Y025323D02*
X025051Y025262D01*
X025039Y025323D02*
Y025354D01*
Y025385D01*
X025051Y025446D01*
X025075Y025504D01*
X02511Y025555D01*
X025154Y025599D01*
X025205Y025633D01*
X025262Y025657D01*
X025323Y025669D01*
X025385D01*
X011042Y033256D02*
X011157Y033234D01*
X011264Y033189D01*
X011361Y033124D01*
X011443Y033042D01*
X011508Y032945D01*
X011552Y032838D01*
X011575Y032724D01*
Y032666D02*
Y032724D01*
Y032608D02*
Y032666D01*
X011552Y032493D02*
X011575Y032608D01*
X011508Y032386D02*
X011552Y032493D01*
X011443Y032289D02*
X011508Y032386D01*
X011361Y032207D02*
X011443Y032289D01*
X011264Y032142D02*
X011361Y032207D01*
X011157Y032098D02*
X011264Y032142D01*
X011042Y032075D02*
X011157Y032098D01*
X010926Y032075D02*
X011042D01*
X010812Y032098D02*
X010926Y032075D01*
X010705Y032142D02*
X010812Y032098D01*
X010608Y032207D02*
X010705Y032142D01*
X010526Y032289D02*
X010608Y032207D01*
X010461Y032386D02*
X010526Y032289D01*
X010416Y032493D02*
X010461Y032386D01*
X010394Y032608D02*
X010416Y032493D01*
X010394Y032608D02*
Y032666D01*
Y032724D01*
X010416Y032838D01*
X010461Y032945D01*
X010526Y033042D01*
X010608Y033124D01*
X010705Y033189D01*
X010812Y033234D01*
X010926Y033256D01*
X011042D01*
X048424D02*
X048538Y033234D01*
X048645Y033189D01*
X048742Y033124D01*
X048824Y033042D01*
X048889Y032945D01*
X048934Y032838D01*
X048956Y032724D01*
Y032666D02*
Y032724D01*
Y032608D02*
Y032666D01*
X048934Y032493D02*
X048956Y032608D01*
X048889Y032386D02*
X048934Y032493D01*
X048824Y032289D02*
X048889Y032386D01*
X048742Y032207D02*
X048824Y032289D01*
X048645Y032142D02*
X048742Y032207D01*
X048538Y032098D02*
X048645Y032142D01*
X048424Y032075D02*
X048538Y032098D01*
X048308Y032075D02*
X048424D01*
X048193Y032098D02*
X048308Y032075D01*
X048086Y032142D02*
X048193Y032098D01*
X047989Y032207D02*
X048086Y032142D01*
X047907Y032289D02*
X047989Y032207D01*
X047842Y032386D02*
X047907Y032289D01*
X047798Y032493D02*
X047842Y032386D01*
X047775Y032608D02*
X047798Y032493D01*
X047775Y032608D02*
Y032666D01*
Y032724D01*
X047798Y032838D01*
X047842Y032945D01*
X047907Y033042D01*
X047989Y033124D01*
X048086Y033189D01*
X048193Y033234D01*
X048308Y033256D01*
X048424D01*
X04938Y0337D02*
X049398Y033693D01*
X009988Y0337D02*
X04938D01*
X009967Y03369D02*
X009988Y0337D01*
X009953Y033671D02*
X009967Y03369D01*
X009949Y033647D02*
X009953Y033671D01*
X009949Y033647D02*
X009952Y033636D01*
X009951Y033631D02*
X009952Y033636D01*
X00995Y033624D02*
X009951Y033631D01*
X00995Y01D02*
Y033624D01*
Y00999D02*
Y01D01*
Y00999D02*
X009957Y009972D01*
X009972Y009957D01*
X00999Y00995D01*
X04938D01*
X049398Y009957D01*
X049413Y009972D01*
X04942Y00999D01*
Y01D01*
X04942Y010005D02*
X04942Y01D01*
X049419Y010012D02*
X04942Y010005D01*
X049419Y010012D02*
X049419Y010019D01*
X04942Y010026D01*
X04942Y03365D02*
X04942Y010026D01*
X04942Y03365D02*
Y03366D01*
X049413Y033678D02*
X04942Y03366D01*
X049398Y033693D02*
X049413Y033678D01*
M02*
