M48
;Layer_Color=9474304
;FILE_FORMAT=2:4
INCH,LZ
;TYPE=PLATED
T1F00S00C0.0079
T2F00S00C0.0157
T3F00S00C0.0236
T6F00S00C0.0256
T7F00S00C0.0283
T9F00S00C0.0335
T10F00S00C0.0354
T11F00S00C0.0374
T12F00S00C0.0394
%
T01
X035Y01061
X038091Y014016
X037933Y014892
X03955Y014016
X039803Y016102
X0403Y0159
X04063Y016388
X038248Y017972
X037864Y01797
Y019321
X038258Y019311
X039222Y021339
X03955
X039901Y020819
X0408Y020856
Y021702
X04253Y022431
X041535Y023981
X0386Y02318
Y022438
X042924Y0182
X03185Y018012
X024194Y018229
X024391Y018496
X024626Y018789
X023783Y020138
X024065Y020455
X024855Y021705
X024724Y024241
X026105
X025574Y026766
Y027102
X025571Y027431
Y027766
Y028051
X028533Y028054
Y027766
Y027431
X028535Y027102
Y026766
X018593Y02375
Y023248
X018455Y020444
X017106Y018329
X015925Y01628
X0402Y031509
X04175Y0313
X0428Y03165
T02
X031752Y022057
X031201
T03
X041506Y028491
Y029278
T06
X010787Y012756
Y013543
Y014331
X015925Y014964
X016713
X034567Y015236
X03536Y015239
X036148
Y016026
X03536
X034567Y016024
X03536Y016836
Y017623
X036148
Y016836
X031358Y018789
Y019577
Y020363
Y021152
X038697Y028847
X039484
Y029636
X038697
X025469Y028661
X024682
X030571Y021152
Y020363
Y019577
Y018789
X014872Y026358
Y027146
Y027933
X014085
Y027146
Y026358
X010787Y029319
Y030107
Y030894
T07
X019449Y016319
X020039
X02063
X02122
X021811
X022402
X022992
X023583
X024173
X023976Y017106
X023386
X022795
X022205
X021614
X021024
X020433
X019843
X019646Y017894
X020236
X020827
X021417
X022008
X022598
X023189
X02378
X025728Y019646
Y020236
Y020827
Y021417
Y022008
Y022598
Y023189
Y02378
X026516Y023976
Y023386
Y022795
Y022205
Y021614
Y021024
Y020433
Y019843
X027303Y020039
Y02063
Y02122
Y021811
Y022402
Y022992
Y023583
Y024173
Y019449
X023976Y025728
X023386
X022795
X022205
X021614
X021024
X020433
X019843
X019646Y026516
X020236
X020827
X021417
X022008
X022598
X023189
X02378
X023583Y027303
X024173
X022992
X022402
X021811
X02122
X02063
X020039
X019449
X017894Y023976
Y023386
Y022795
Y022205
Y021614
Y021024
Y020433
Y019843
X017106Y019646
Y020236
Y020827
Y021417
Y022008
Y022598
Y023189
Y02378
X016319Y023583
Y024173
Y022992
Y022402
Y021811
Y02122
Y02063
Y020039
Y019449
T09
X012465Y011665
X013465Y011665
X014465
Y012665
X013465
X012465Y012665
X015465Y012665
Y011665
X016465
Y012665
X017465
X018465
X019465
X020465
X021465
X022465
X023464Y012665
Y011665
X022465Y011665
X021465
X020465
X019465
X018465
X017465
X024464
Y012665
X025475Y012665
X026475Y012665
X027475
Y011665
X026475
X025475Y011665
X028475Y011665
Y012665
X029475
X030475
Y011665
X029475
X031475
X032475
X033475
X034475
X035475
X036475Y011666
Y012666
X035475Y012665
X034475
X033475
X032475
X031475
X037475
Y011665
X03905Y024685
X04005Y024685
X04105
Y025685
X04005
X03905Y025685
X04205Y025685
Y024685
X037475Y030985
X036475Y030985
X035475
X034475
X033475
X032475
X031475
X030475
X029475
X028475
X027475
X026475Y030985
X025475Y030985
X024464
X023465Y030985
X022465
X021465
X020465
X019465
X018465
X017465
X016465
X015465
X014465
X013465Y030985
X012465Y030985
X012264Y026311
X011264
X011264Y025311
Y024311
X012264
Y025311
Y023311
X011264
Y022311
X012264
Y021311
Y020311
Y019311
Y018311
Y017311
X011264
Y018311
Y019311
Y020311
Y021311
X012465Y031985
X013465Y031985
X014465Y031985
X015465
X016465
X017465
X018465
X019465
X020465
X021465
X022465
X023465
X024464Y031985
X025475
X026475Y031985
X027475Y031985
X028475
X029475
X030475
X031475
X032475
X033475
X034475
X035475
X036475
X037475Y031985
X0448Y03295
X0458
X0468
T10
X043531Y0313
X047469
T11
X043439Y015546
X044226
Y01653
X043439
X043489Y022196
X044276
Y02318
X043489
T12
X040341Y010628
Y0124
X0429
X044276
Y010628
X0429Y010628
X046835
Y0124
X032179Y025677
Y028236
X030407
X030407Y025677
M30
