G04*
G04 #@! TF.GenerationSoftware,Altium Limited,Altium Designer,19.1.7 (138)*
G04*
G04 Layer_Color=8388736*
%FSTAX24Y24*%
%MOIN*%
G70*
G01*
G75*
%ADD32R,0.0671X0.0671*%
%ADD33R,0.0395X0.0277*%
%ADD34R,0.0568X0.0316*%
G04:AMPARAMS|DCode=35|XSize=86.7mil|YSize=126.1mil|CornerRadius=23.7mil|HoleSize=0mil|Usage=FLASHONLY|Rotation=0.000|XOffset=0mil|YOffset=0mil|HoleType=Round|Shape=RoundedRectangle|*
%AMROUNDEDRECTD35*
21,1,0.0867,0.0787,0,0,0.0*
21,1,0.0394,0.1261,0,0,0.0*
1,1,0.0474,0.0197,-0.0394*
1,1,0.0474,-0.0197,-0.0394*
1,1,0.0474,-0.0197,0.0394*
1,1,0.0474,0.0197,0.0394*
%
%ADD35ROUNDEDRECTD35*%
%ADD36R,0.0395X0.0710*%
%ADD37R,0.0316X0.0568*%
%ADD38R,0.0671X0.0867*%
%ADD39R,0.0867X0.0671*%
%ADD40R,0.0277X0.0395*%
%ADD41R,0.0474X0.0710*%
%ADD42R,0.1261X0.0671*%
%ADD43R,0.0356X0.0474*%
G04:AMPARAMS|DCode=44|XSize=67.1mil|YSize=145.8mil|CornerRadius=18.8mil|HoleSize=0mil|Usage=FLASHONLY|Rotation=270.000|XOffset=0mil|YOffset=0mil|HoleType=Round|Shape=RoundedRectangle|*
%AMROUNDEDRECTD44*
21,1,0.0671,0.1083,0,0,270.0*
21,1,0.0295,0.1458,0,0,270.0*
1,1,0.0375,-0.0541,-0.0148*
1,1,0.0375,-0.0541,0.0148*
1,1,0.0375,0.0541,0.0148*
1,1,0.0375,0.0541,-0.0148*
%
%ADD44ROUNDEDRECTD44*%
%ADD45C,0.0671*%
%ADD46C,0.0474*%
%ADD47R,0.0474X0.0474*%
%ADD48R,0.0474X0.0474*%
G04:AMPARAMS|DCode=49|XSize=165.5mil|YSize=67.1mil|CornerRadius=18.8mil|HoleSize=0mil|Usage=FLASHONLY|Rotation=90.000|XOffset=0mil|YOffset=0mil|HoleType=Round|Shape=RoundedRectangle|*
%AMROUNDEDRECTD49*
21,1,0.1655,0.0295,0,0,90.0*
21,1,0.1280,0.0671,0,0,90.0*
1,1,0.0375,0.0148,0.0640*
1,1,0.0375,0.0148,-0.0640*
1,1,0.0375,-0.0148,-0.0640*
1,1,0.0375,-0.0148,0.0640*
%
%ADD49ROUNDEDRECTD49*%
G04:AMPARAMS|DCode=50|XSize=165.5mil|YSize=67.1mil|CornerRadius=18.8mil|HoleSize=0mil|Usage=FLASHONLY|Rotation=180.000|XOffset=0mil|YOffset=0mil|HoleType=Round|Shape=RoundedRectangle|*
%AMROUNDEDRECTD50*
21,1,0.1655,0.0295,0,0,180.0*
21,1,0.1280,0.0671,0,0,180.0*
1,1,0.0375,-0.0640,0.0148*
1,1,0.0375,0.0640,0.0148*
1,1,0.0375,0.0640,-0.0148*
1,1,0.0375,-0.0640,-0.0148*
%
%ADD50ROUNDEDRECTD50*%
%ADD51R,0.0671X0.0671*%
%ADD52O,0.0828X0.0671*%
%ADD53R,0.0828X0.0671*%
%ADD54O,0.0316X0.0395*%
%ADD55O,0.0671X0.0828*%
%ADD56R,0.0671X0.0828*%
%ADD57O,0.0552X0.0474*%
%ADD58R,0.0552X0.0474*%
%ADD59O,0.0474X0.0552*%
%ADD60C,0.0218*%
D32*
X045632Y01938D02*
D03*
X043691D02*
D03*
X043494Y031191D02*
D03*
X045435D02*
D03*
X042071Y025284D02*
D03*
X025475Y011665D02*
D03*
X024464Y031985D02*
D03*
X037475Y031985D02*
D03*
X012465Y011665D02*
D03*
D33*
X035069Y026053D02*
D03*
Y026801D02*
D03*
X036171Y026427D02*
D03*
D34*
X037008Y026043D02*
D03*
Y026831D02*
D03*
X034026Y027048D02*
D03*
Y02626D02*
D03*
X033169Y02626D02*
D03*
Y027047D02*
D03*
Y028504D02*
D03*
Y027717D02*
D03*
X034022Y0285D02*
D03*
Y027713D02*
D03*
X0438Y033237D02*
D03*
Y03245D02*
D03*
X043004Y033244D02*
D03*
Y032456D02*
D03*
X038677Y017691D02*
D03*
Y016904D02*
D03*
X033967Y017815D02*
D03*
Y017028D02*
D03*
X03301Y017811D02*
D03*
Y017024D02*
D03*
X033006Y01563D02*
D03*
Y016417D02*
D03*
X033976Y01563D02*
D03*
Y016417D02*
D03*
X030472Y022972D02*
D03*
Y022185D02*
D03*
X030473Y023858D02*
D03*
Y024646D02*
D03*
X0117Y013543D02*
D03*
Y014331D02*
D03*
X014873Y025567D02*
D03*
Y024779D02*
D03*
X0117Y030107D02*
D03*
Y029319D02*
D03*
X0422Y016898D02*
D03*
Y017685D02*
D03*
D35*
X035623Y019053D02*
D03*
Y025136D02*
D03*
D36*
X042264Y028278D02*
D03*
X041004D02*
D03*
X042264Y027274D02*
D03*
X041004D02*
D03*
D37*
X040925Y021279D02*
D03*
X040138D02*
D03*
X041565Y018543D02*
D03*
X042352D02*
D03*
X04803Y013147D02*
D03*
X048818D02*
D03*
X038553Y030669D02*
D03*
X03934D02*
D03*
X038556Y031486D02*
D03*
X039344D02*
D03*
X038563Y032287D02*
D03*
X03935D02*
D03*
X038556Y033086D02*
D03*
X039344D02*
D03*
X048818Y012402D02*
D03*
X04803D02*
D03*
X038677Y01245D02*
D03*
X039465D02*
D03*
X038677Y011572D02*
D03*
X039465D02*
D03*
X041563Y01937D02*
D03*
X04235D02*
D03*
X029715Y015846D02*
D03*
X030502D02*
D03*
X029714Y017401D02*
D03*
X030502D02*
D03*
X018417Y014964D02*
D03*
X017629D02*
D03*
X040925Y01937D02*
D03*
X040138D02*
D03*
X040925Y018543D02*
D03*
X040138D02*
D03*
X042421Y022196D02*
D03*
X041634D02*
D03*
X042421Y02128D02*
D03*
X041634D02*
D03*
D38*
X039672Y0173D02*
D03*
X041208D02*
D03*
D39*
X031624Y015845D02*
D03*
Y01738D02*
D03*
D40*
X042299Y016063D02*
D03*
X041799D02*
D03*
X041299D02*
D03*
X040799D02*
D03*
X040299D02*
D03*
X039799D02*
D03*
X039299D02*
D03*
X038799D02*
D03*
Y013937D02*
D03*
X039299D02*
D03*
X039799D02*
D03*
X040299D02*
D03*
X040799D02*
D03*
X041299D02*
D03*
X041799D02*
D03*
X042299D02*
D03*
D41*
X038051Y028278D02*
D03*
X039508D02*
D03*
X038051Y027274D02*
D03*
X039508D02*
D03*
D42*
X0412Y033079D02*
D03*
D43*
X042115Y030392D02*
D03*
X0412D02*
D03*
X040294Y030382D02*
D03*
D44*
X0453Y02505D02*
D03*
Y020326D02*
D03*
Y013691D02*
D03*
Y018415D02*
D03*
D45*
X043489Y022196D02*
D03*
X044276Y02318D02*
D03*
Y022196D02*
D03*
X043489Y02318D02*
D03*
X040071Y024283D02*
D03*
Y025283D02*
D03*
X041071D02*
D03*
Y024283D02*
D03*
X042071Y024283D02*
D03*
X039071Y025283D02*
D03*
Y024283D02*
D03*
X0458Y03295D02*
D03*
X0448D02*
D03*
X043489Y016545D02*
D03*
X044276Y015561D02*
D03*
Y016545D02*
D03*
X043489Y015561D02*
D03*
X011264Y021311D02*
D03*
Y022311D02*
D03*
X012264D02*
D03*
Y023311D02*
D03*
X011264D02*
D03*
X012264Y026311D02*
D03*
X012264Y025311D02*
D03*
X011264D02*
D03*
Y024311D02*
D03*
X012264D02*
D03*
X011264Y020311D02*
D03*
X012264D02*
D03*
Y021311D02*
D03*
Y019311D02*
D03*
X011264D02*
D03*
Y018311D02*
D03*
X012264D02*
D03*
X011264Y017311D02*
D03*
X012264D02*
D03*
X030475Y011665D02*
D03*
X029475D02*
D03*
Y012665D02*
D03*
X028475D02*
D03*
Y011665D02*
D03*
X025475Y012665D02*
D03*
X026475Y012665D02*
D03*
Y011665D02*
D03*
X027475D02*
D03*
Y012665D02*
D03*
X031475Y011665D02*
D03*
Y012665D02*
D03*
X030475D02*
D03*
X032475D02*
D03*
Y011665D02*
D03*
X033475D02*
D03*
Y012665D02*
D03*
X034475Y011665D02*
D03*
Y012665D02*
D03*
X035475Y011665D02*
D03*
Y012665D02*
D03*
X036475Y012666D02*
D03*
Y011666D02*
D03*
X037475Y012665D02*
D03*
Y011665D02*
D03*
X019465Y031985D02*
D03*
X020465D02*
D03*
Y030985D02*
D03*
X021465D02*
D03*
Y031985D02*
D03*
X024464Y030985D02*
D03*
X023465Y030985D02*
D03*
Y031985D02*
D03*
X022465D02*
D03*
Y030985D02*
D03*
X018465Y031985D02*
D03*
Y030985D02*
D03*
X019465D02*
D03*
X017465D02*
D03*
Y031985D02*
D03*
X016465D02*
D03*
Y030985D02*
D03*
X015465Y031985D02*
D03*
Y030985D02*
D03*
X014465Y031985D02*
D03*
Y030985D02*
D03*
X013465Y030985D02*
D03*
Y031985D02*
D03*
X012465Y030985D02*
D03*
Y031985D02*
D03*
X032475Y031985D02*
D03*
X033475D02*
D03*
Y030985D02*
D03*
X034475D02*
D03*
Y031985D02*
D03*
X037475Y030985D02*
D03*
X036475Y030985D02*
D03*
Y031985D02*
D03*
X035475D02*
D03*
Y030985D02*
D03*
X031475Y031985D02*
D03*
Y030985D02*
D03*
X032475D02*
D03*
X030475D02*
D03*
Y031985D02*
D03*
X029475D02*
D03*
Y030985D02*
D03*
X028475Y031985D02*
D03*
Y030985D02*
D03*
X027475Y031985D02*
D03*
Y030985D02*
D03*
X026475Y030985D02*
D03*
Y031985D02*
D03*
X025475Y030985D02*
D03*
Y031985D02*
D03*
X024464Y011665D02*
D03*
Y012665D02*
D03*
X023464Y011665D02*
D03*
Y012665D02*
D03*
X022465Y012665D02*
D03*
Y011665D02*
D03*
X021465Y012665D02*
D03*
Y011665D02*
D03*
X020465Y012665D02*
D03*
Y011665D02*
D03*
X019465D02*
D03*
Y012665D02*
D03*
X017465D02*
D03*
X018465D02*
D03*
Y011665D02*
D03*
X014465Y012665D02*
D03*
Y011665D02*
D03*
X013465D02*
D03*
Y012665D02*
D03*
X012465Y012665D02*
D03*
X015465Y011665D02*
D03*
Y012665D02*
D03*
X016465D02*
D03*
Y011665D02*
D03*
X017465D02*
D03*
D46*
X010787Y030894D02*
D03*
Y030107D02*
D03*
X041113Y020326D02*
D03*
X014902Y027904D02*
D03*
X014114D02*
D03*
Y027116D02*
D03*
X014902D02*
D03*
X014114Y026329D02*
D03*
X036017Y027523D02*
D03*
X03523D02*
D03*
X036017Y028311D02*
D03*
X036014Y017618D02*
D03*
X035226Y016831D02*
D03*
X036014D02*
D03*
Y016043D02*
D03*
X035226D02*
D03*
X035226Y015256D02*
D03*
X036014D02*
D03*
X031282Y021375D02*
D03*
X030494Y020588D02*
D03*
X031282D02*
D03*
Y0198D02*
D03*
X030494D02*
D03*
X030494Y019013D02*
D03*
X031282D02*
D03*
X024682Y028661D02*
D03*
X028789Y015915D02*
D03*
X016713Y014964D02*
D03*
X010787Y014331D02*
D03*
Y013543D02*
D03*
D47*
Y029319D02*
D03*
X028789Y016702D02*
D03*
X010787Y012756D02*
D03*
D48*
X040325Y020326D02*
D03*
X014902Y026329D02*
D03*
X03523Y028311D02*
D03*
X035226Y017618D02*
D03*
X030494Y021375D02*
D03*
X025469Y028661D02*
D03*
X015925Y014964D02*
D03*
D49*
X046063Y028278D02*
D03*
X043691D02*
D03*
D50*
X044872Y030108D02*
D03*
D51*
X0468Y03295D02*
D03*
X011264Y026311D02*
D03*
D52*
X046835Y0124D02*
D03*
Y010628D02*
D03*
X044276Y010628D02*
D03*
X0429Y0124D02*
D03*
Y010628D02*
D03*
X040341Y010628D02*
D03*
D53*
X044276Y0124D02*
D03*
X040341D02*
D03*
D54*
X031201Y022057D02*
D03*
X031752D02*
D03*
D55*
X030404Y028248D02*
D03*
X032175D02*
D03*
X032175Y025689D02*
D03*
D56*
X030404D02*
D03*
D57*
X027303Y024173D02*
D03*
X026516Y023976D02*
D03*
X025728Y02378D02*
D03*
X027303Y023583D02*
D03*
X026516Y023386D02*
D03*
X025728Y023189D02*
D03*
X027303Y022992D02*
D03*
X026516Y022795D02*
D03*
X025728Y022598D02*
D03*
X027303Y022402D02*
D03*
X026516Y022205D02*
D03*
X025728Y022008D02*
D03*
X027303Y021811D02*
D03*
X026516Y021614D02*
D03*
X025728Y021417D02*
D03*
X027303Y02122D02*
D03*
X026516Y021024D02*
D03*
X025728Y020827D02*
D03*
X027303Y02063D02*
D03*
X026516Y020433D02*
D03*
X025728Y020236D02*
D03*
X027303Y020039D02*
D03*
X026516Y019843D02*
D03*
X025728Y019646D02*
D03*
X016319Y024173D02*
D03*
X017894Y023976D02*
D03*
X017106Y02378D02*
D03*
X016319Y023583D02*
D03*
X017894Y023386D02*
D03*
X017106Y023189D02*
D03*
X016319Y022992D02*
D03*
X017894Y022795D02*
D03*
X017106Y022598D02*
D03*
X016319Y022402D02*
D03*
X017894Y022205D02*
D03*
X017106Y022008D02*
D03*
X016319Y021811D02*
D03*
X017894Y021614D02*
D03*
X017106Y021417D02*
D03*
X016319Y02122D02*
D03*
X017894Y021024D02*
D03*
X017106Y020827D02*
D03*
X016319Y02063D02*
D03*
X017894Y020433D02*
D03*
X017106Y020236D02*
D03*
X016319Y020039D02*
D03*
X017894Y019843D02*
D03*
X017106Y019646D02*
D03*
X016319Y019449D02*
D03*
D58*
X027303D02*
D03*
D59*
X024173Y027303D02*
D03*
X023976Y025728D02*
D03*
X02378Y026516D02*
D03*
X023583Y027303D02*
D03*
X023386Y025728D02*
D03*
X023189Y026516D02*
D03*
X022992Y027303D02*
D03*
X022795Y025728D02*
D03*
X022598Y026516D02*
D03*
X022402Y027303D02*
D03*
X022205Y025728D02*
D03*
X022008Y026516D02*
D03*
X021811Y027303D02*
D03*
X021614Y025728D02*
D03*
X021417Y026516D02*
D03*
X02122Y027303D02*
D03*
X021024Y025728D02*
D03*
X020827Y026516D02*
D03*
X02063Y027303D02*
D03*
X020433Y025728D02*
D03*
X020236Y026516D02*
D03*
X020039Y027303D02*
D03*
X019843Y025728D02*
D03*
X019646Y026516D02*
D03*
X019449Y027303D02*
D03*
Y016319D02*
D03*
X019646Y017894D02*
D03*
X019843Y017106D02*
D03*
X020039Y016319D02*
D03*
X020236Y017894D02*
D03*
X020433Y017106D02*
D03*
X02063Y016319D02*
D03*
X020827Y017894D02*
D03*
X021024Y017106D02*
D03*
X02122Y016319D02*
D03*
X021417Y017894D02*
D03*
X021614Y017106D02*
D03*
X021811Y016319D02*
D03*
X022008Y017894D02*
D03*
X022205Y017106D02*
D03*
X022402Y016319D02*
D03*
X022598Y017894D02*
D03*
X022795Y017106D02*
D03*
X022992Y016319D02*
D03*
X023189Y017894D02*
D03*
X023386Y017106D02*
D03*
X023583Y016319D02*
D03*
X02378Y017894D02*
D03*
X023976Y017106D02*
D03*
X024173Y016319D02*
D03*
D60*
X041782Y03151D02*
D03*
X041552Y030985D02*
D03*
X039803Y030994D02*
D03*
X018593Y023839D02*
D03*
Y024252D02*
D03*
X037475Y017972D02*
D03*
Y019744D02*
D03*
X037746Y017972D02*
D03*
Y019744D02*
D03*
X028535Y026766D02*
D03*
X03937Y02188D02*
D03*
X03878Y021881D02*
D03*
X039071D02*
D03*
X040071Y027709D02*
D03*
X04137D02*
D03*
X024173Y020433D02*
D03*
Y020138D02*
D03*
X04062Y01686D02*
D03*
X040718Y022628D02*
D03*
X0117Y015315D02*
D03*
X024855Y022402D02*
D03*
X030256Y017972D02*
D03*
Y018496D02*
D03*
X030257Y018239D02*
D03*
X036978Y01797D02*
D03*
X018593Y020433D02*
D03*
X040294Y03151D02*
D03*
X040718Y022196D02*
D03*
X017106Y017311D02*
D03*
X040718Y01551D02*
D03*
Y015165D02*
D03*
X025574Y027102D02*
D03*
X025571Y027431D02*
D03*
X028533Y028054D02*
D03*
X025571Y028051D02*
D03*
X028533Y027766D02*
D03*
X025571D02*
D03*
X028533Y027431D02*
D03*
X028535Y027102D02*
D03*
X025574Y026766D02*
D03*
X024855Y021705D02*
D03*
M02*
