G04*
G04 #@! TF.GenerationSoftware,Altium Limited,Altium Designer,19.1.7 (138)*
G04*
G04 Layer_Color=128*
%FSTAX24Y24*%
%MOIN*%
G70*
G01*
G75*
%ADD11C,0.0100*%
%ADD80C,0.0020*%
D11*
X009988Y0337D02*
X04938D01*
X011042Y011575D02*
X011157Y011552D01*
X011264Y011508D01*
X011361Y011443D01*
X011443Y011361D01*
X011508Y011264D01*
X011552Y011157D01*
X011575Y011042D01*
Y010984D02*
Y011042D01*
Y010926D02*
Y010984D01*
X011552Y010812D02*
X011575Y010926D01*
X011508Y010705D02*
X011552Y010812D01*
X011443Y010608D02*
X011508Y010705D01*
X011361Y010526D02*
X011443Y010608D01*
X011264Y010461D02*
X011361Y010526D01*
X011157Y010416D02*
X011264Y010461D01*
X011042Y010394D02*
X011157Y010416D01*
X010926Y010394D02*
X011042D01*
X010812Y010416D02*
X010926Y010394D01*
X010705Y010461D02*
X010812Y010416D01*
X010608Y010526D02*
X010705Y010461D01*
X010526Y010608D02*
X010608Y010526D01*
X010461Y010705D02*
X010526Y010608D01*
X010416Y010812D02*
X010461Y010705D01*
X010394Y010926D02*
X010416Y010812D01*
X010394Y010926D02*
Y010984D01*
Y011042D01*
X010416Y011157D01*
X010461Y011264D01*
X010526Y011361D01*
X010608Y011443D01*
X010705Y011508D01*
X010812Y011552D01*
X010926Y011575D01*
X011042D01*
X048424D02*
X048538Y011552D01*
X048645Y011508D01*
X048742Y011443D01*
X048824Y011361D01*
X048889Y011264D01*
X048934Y011157D01*
X048956Y011042D01*
Y010984D02*
Y011042D01*
Y010926D02*
Y010984D01*
X048934Y010812D02*
X048956Y010926D01*
X048889Y010705D02*
X048934Y010812D01*
X048824Y010608D02*
X048889Y010705D01*
X048742Y010526D02*
X048824Y010608D01*
X048645Y010461D02*
X048742Y010526D01*
X048538Y010416D02*
X048645Y010461D01*
X048424Y010394D02*
X048538Y010416D01*
X048308Y010394D02*
X048424D01*
X048193Y010416D02*
X048308Y010394D01*
X048086Y010461D02*
X048193Y010416D01*
X047989Y010526D02*
X048086Y010461D01*
X047907Y010608D02*
X047989Y010526D01*
X047842Y010705D02*
X047907Y010608D01*
X047798Y010812D02*
X047842Y010705D01*
X047775Y010926D02*
X047798Y010812D01*
X047775Y010926D02*
Y010984D01*
Y011042D01*
X047798Y011157D01*
X047842Y011264D01*
X047907Y011361D01*
X047989Y011443D01*
X048086Y011508D01*
X048193Y011552D01*
X048308Y011575D01*
X048424D01*
X018299Y018583D02*
X01836Y018571D01*
X018417Y018547D01*
X018468Y018512D01*
X018512Y018468D01*
X018547Y018417D01*
X018571Y01836D01*
X018583Y018299D01*
Y018268D02*
Y018299D01*
Y018237D02*
Y018268D01*
X018571Y018176D02*
X018583Y018237D01*
X018547Y018119D02*
X018571Y018176D01*
X018512Y018067D02*
X018547Y018119D01*
X018468Y018023D02*
X018512Y018067D01*
X018417Y017989D02*
X018468Y018023D01*
X01836Y017965D02*
X018417Y017989D01*
X018299Y017953D02*
X01836Y017965D01*
X018237Y017953D02*
X018299D01*
X018176Y017965D02*
X018237Y017953D01*
X018119Y017989D02*
X018176Y017965D01*
X018067Y018023D02*
X018119Y017989D01*
X018023Y018067D02*
X018067Y018023D01*
X017989Y018119D02*
X018023Y018067D01*
X017965Y018176D02*
X017989Y018119D01*
X017953Y018237D02*
X017965Y018176D01*
X017953Y018237D02*
Y018268D01*
Y018299D01*
X017965Y01836D01*
X017989Y018417D01*
X018023Y018468D01*
X018067Y018512D01*
X018119Y018547D01*
X018176Y018571D01*
X018237Y018583D01*
X018299D01*
X035679Y020974D02*
X035736Y020963D01*
X035789Y020941D01*
X035838Y020908D01*
X035879Y020867D01*
X035911Y020819D01*
X035934Y020765D01*
X035945Y020708D01*
Y020679D02*
Y020708D01*
Y02065D02*
Y020679D01*
X035934Y020593D02*
X035945Y02065D01*
X035911Y020539D02*
X035934Y020593D01*
X035879Y020491D02*
X035911Y020539D01*
X035838Y02045D02*
X035879Y020491D01*
X035789Y020417D02*
X035838Y02045D01*
X035736Y020395D02*
X035789Y020417D01*
X035679Y020384D02*
X035736Y020395D01*
X035621Y020384D02*
X035679D01*
X035563Y020395D02*
X035621Y020384D01*
X03551Y020417D02*
X035563Y020395D01*
X035461Y02045D02*
X03551Y020417D01*
X03542Y020491D02*
X035461Y02045D01*
X035388Y020539D02*
X03542Y020491D01*
X035366Y020593D02*
X035388Y020539D01*
X035354Y02065D02*
X035366Y020593D01*
X035354Y02065D02*
Y020679D01*
Y020708D01*
X035366Y020765D01*
X035388Y020819D01*
X03542Y020867D01*
X035461Y020908D01*
X03551Y020941D01*
X035563Y020963D01*
X035621Y020974D01*
X035679D01*
X021888Y022992D02*
X022042Y022972D01*
X022191Y022932D01*
X022335Y022873D01*
X022469Y022795D01*
X022591Y022701D01*
X022701Y022591D01*
X022795Y022469D01*
X022873Y022335D01*
X022932Y022191D01*
X022972Y022042D01*
X022992Y021888D01*
Y021811D02*
Y021888D01*
Y021734D02*
Y021811D01*
X022972Y02158D02*
X022992Y021734D01*
X022932Y021431D02*
X022972Y02158D01*
X022873Y021288D02*
X022932Y021431D01*
X022795Y021153D02*
X022873Y021288D01*
X022701Y021031D02*
X022795Y021153D01*
X022591Y020921D02*
X022701Y021031D01*
X022469Y020827D02*
X022591Y020921D01*
X022335Y020749D02*
X022469Y020827D01*
X022191Y02069D02*
X022335Y020749D01*
X022042Y02065D02*
X022191Y02069D01*
X021888Y02063D02*
X022042Y02065D01*
X021734Y02063D02*
X021888D01*
X02158Y02065D02*
X021734Y02063D01*
X021431Y02069D02*
X02158Y02065D01*
X021288Y020749D02*
X021431Y02069D01*
X021153Y020827D02*
X021288Y020749D01*
X021031Y020921D02*
X021153Y020827D01*
X020921Y021031D02*
X021031Y020921D01*
X020827Y021153D02*
X020921Y021031D01*
X020749Y021288D02*
X020827Y021153D01*
X02069Y021431D02*
X020749Y021288D01*
X02065Y02158D02*
X02069Y021431D01*
X02063Y021734D02*
X02065Y02158D01*
X02063Y021734D02*
Y021811D01*
Y021888D01*
X02065Y022042D01*
X02069Y022191D01*
X020749Y022335D01*
X020827Y022469D01*
X020921Y022591D01*
X021031Y022701D01*
X021153Y022795D01*
X021288Y022873D01*
X021431Y022932D01*
X02158Y022972D01*
X021734Y022992D01*
X021888D01*
X035697Y023868D02*
X035783Y023832D01*
X03585Y023766D01*
X035886Y023679D01*
Y023632D02*
Y023679D01*
Y023585D02*
Y023632D01*
X03585Y023498D02*
X035886Y023585D01*
X035783Y023432D02*
X03585Y023498D01*
X035697Y023396D02*
X035783Y023432D01*
X035603Y023396D02*
X035697D01*
X035516Y023432D02*
X035603Y023396D01*
X035449Y023498D02*
X035516Y023432D01*
X035413Y023585D02*
X035449Y023498D01*
X035413Y023585D02*
Y023632D01*
Y023679D01*
X035449Y023766D01*
X035516Y023832D01*
X035603Y023868D01*
X035697D01*
X025385Y025669D02*
X025446Y025657D01*
X025504Y025633D01*
X025555Y025599D01*
X025599Y025555D01*
X025633Y025504D01*
X025657Y025446D01*
X025669Y025385D01*
Y025354D02*
Y025385D01*
Y025323D02*
Y025354D01*
X025657Y025262D02*
X025669Y025323D01*
X025633Y025205D02*
X025657Y025262D01*
X025599Y025154D02*
X025633Y025205D01*
X025555Y02511D02*
X025599Y025154D01*
X025504Y025075D02*
X025555Y02511D01*
X025446Y025051D02*
X025504Y025075D01*
X025385Y025039D02*
X025446Y025051D01*
X025323Y025039D02*
X025385D01*
X025262Y025051D02*
X025323Y025039D01*
X025205Y025075D02*
X025262Y025051D01*
X025154Y02511D02*
X025205Y025075D01*
X02511Y025154D02*
X025154Y02511D01*
X025075Y025205D02*
X02511Y025154D01*
X025051Y025262D02*
X025075Y025205D01*
X025039Y025323D02*
X025051Y025262D01*
X025039Y025323D02*
Y025354D01*
Y025385D01*
X025051Y025446D01*
X025075Y025504D01*
X02511Y025555D01*
X025154Y025599D01*
X025205Y025633D01*
X025262Y025657D01*
X025323Y025669D01*
X025385D01*
X047885Y028789D02*
X047984Y02877D01*
X048077Y028731D01*
X048161Y028675D01*
X048232Y028604D01*
X048288Y02852D01*
X048327Y028427D01*
X048346Y028328D01*
Y028278D02*
Y028328D01*
Y028227D02*
Y028278D01*
X048327Y028128D02*
X048346Y028227D01*
X048288Y028035D02*
X048327Y028128D01*
X048232Y027951D02*
X048288Y028035D01*
X048161Y02788D02*
X048232Y027951D01*
X048077Y027824D02*
X048161Y02788D01*
X047984Y027785D02*
X048077Y027824D01*
X047885Y027766D02*
X047984Y027785D01*
X047784Y027766D02*
X047885D01*
X047685Y027785D02*
X047784Y027766D01*
X047592Y027824D02*
X047685Y027785D01*
X047508Y02788D02*
X047592Y027824D01*
X047437Y027951D02*
X047508Y02788D01*
X047381Y028035D02*
X047437Y027951D01*
X047343Y028128D02*
X047381Y028035D01*
X047323Y028227D02*
X047343Y028128D01*
X047323Y028227D02*
Y028278D01*
Y028328D01*
X047343Y028427D01*
X047381Y02852D01*
X047437Y028604D01*
X047508Y028675D01*
X047592Y028731D01*
X047685Y02877D01*
X047784Y028789D01*
X047885D01*
X011042Y033256D02*
X011157Y033234D01*
X011264Y033189D01*
X011361Y033124D01*
X011443Y033042D01*
X011508Y032945D01*
X011552Y032838D01*
X011575Y032724D01*
Y032666D02*
Y032724D01*
Y032608D02*
Y032666D01*
X011552Y032493D02*
X011575Y032608D01*
X011508Y032386D02*
X011552Y032493D01*
X011443Y032289D02*
X011508Y032386D01*
X011361Y032207D02*
X011443Y032289D01*
X011264Y032142D02*
X011361Y032207D01*
X011157Y032098D02*
X011264Y032142D01*
X011042Y032075D02*
X011157Y032098D01*
X010926Y032075D02*
X011042D01*
X010812Y032098D02*
X010926Y032075D01*
X010705Y032142D02*
X010812Y032098D01*
X010608Y032207D02*
X010705Y032142D01*
X010526Y032289D02*
X010608Y032207D01*
X010461Y032386D02*
X010526Y032289D01*
X010416Y032493D02*
X010461Y032386D01*
X010394Y032608D02*
X010416Y032493D01*
X010394Y032608D02*
Y032666D01*
Y032724D01*
X010416Y032838D01*
X010461Y032945D01*
X010526Y033042D01*
X010608Y033124D01*
X010705Y033189D01*
X010812Y033234D01*
X010926Y033256D01*
X011042D01*
X048424D02*
X048538Y033234D01*
X048645Y033189D01*
X048742Y033124D01*
X048824Y033042D01*
X048889Y032945D01*
X048934Y032838D01*
X048956Y032724D01*
Y032666D02*
Y032724D01*
Y032608D02*
Y032666D01*
X048934Y032493D02*
X048956Y032608D01*
X048889Y032386D02*
X048934Y032493D01*
X048824Y032289D02*
X048889Y032386D01*
X048742Y032207D02*
X048824Y032289D01*
X048645Y032142D02*
X048742Y032207D01*
X048538Y032098D02*
X048645Y032142D01*
X048424Y032075D02*
X048538Y032098D01*
X048308Y032075D02*
X048424D01*
X048193Y032098D02*
X048308Y032075D01*
X048086Y032142D02*
X048193Y032098D01*
X047989Y032207D02*
X048086Y032142D01*
X047907Y032289D02*
X047989Y032207D01*
X047842Y032386D02*
X047907Y032289D01*
X047798Y032493D02*
X047842Y032386D01*
X047775Y032608D02*
X047798Y032493D01*
X047775Y032608D02*
Y032666D01*
Y032724D01*
X047798Y032838D01*
X047842Y032945D01*
X047907Y033042D01*
X047989Y033124D01*
X048086Y033189D01*
X048193Y033234D01*
X048308Y033256D01*
X048424D01*
X04938Y0337D02*
X049398Y033693D01*
X009967Y03369D02*
X009988Y0337D01*
X009953Y033671D02*
X009967Y03369D01*
X009949Y033647D02*
X009953Y033671D01*
X009949Y033647D02*
X009952Y033636D01*
X009951Y033631D02*
X009952Y033636D01*
X00995Y033624D02*
X009951Y033631D01*
X00995Y01D02*
Y033624D01*
Y00999D02*
Y01D01*
Y00999D02*
X009957Y009972D01*
X009972Y009957D01*
X00999Y00995D01*
X04938D01*
X049398Y009957D01*
X049413Y009972D01*
X04942Y00999D01*
Y01D01*
X04942Y010005D02*
X04942Y01D01*
X049419Y010012D02*
X04942Y010005D01*
X049419Y010012D02*
X049419Y010019D01*
X04942Y010026D01*
X04942Y03365D02*
X04942Y010026D01*
X04942Y03365D02*
Y03366D01*
X049413Y033678D02*
X04942Y03366D01*
X049398Y033693D02*
X049413Y033678D01*
X011042Y011575D02*
X011157Y011552D01*
X011264Y011508D01*
X011361Y011443D01*
X011443Y011361D01*
X011508Y011264D01*
X011552Y011157D01*
X011575Y011042D01*
Y010984D02*
Y011042D01*
Y010926D02*
Y010984D01*
X011552Y010812D02*
X011575Y010926D01*
X011508Y010705D02*
X011552Y010812D01*
X011443Y010608D02*
X011508Y010705D01*
X011361Y010526D02*
X011443Y010608D01*
X011264Y010461D02*
X011361Y010526D01*
X011157Y010416D02*
X011264Y010461D01*
X011042Y010394D02*
X011157Y010416D01*
X010926Y010394D02*
X011042D01*
X010812Y010416D02*
X010926Y010394D01*
X010705Y010461D02*
X010812Y010416D01*
X010608Y010526D02*
X010705Y010461D01*
X010526Y010608D02*
X010608Y010526D01*
X010461Y010705D02*
X010526Y010608D01*
X010416Y010812D02*
X010461Y010705D01*
X010394Y010926D02*
X010416Y010812D01*
X010394Y010926D02*
Y010984D01*
Y011042D01*
X010416Y011157D01*
X010461Y011264D01*
X010526Y011361D01*
X010608Y011443D01*
X010705Y011508D01*
X010812Y011552D01*
X010926Y011575D01*
X011042D01*
X048424D02*
X048538Y011552D01*
X048645Y011508D01*
X048742Y011443D01*
X048824Y011361D01*
X048889Y011264D01*
X048934Y011157D01*
X048956Y011042D01*
Y010984D02*
Y011042D01*
Y010926D02*
Y010984D01*
X048934Y010812D02*
X048956Y010926D01*
X048889Y010705D02*
X048934Y010812D01*
X048824Y010608D02*
X048889Y010705D01*
X048742Y010526D02*
X048824Y010608D01*
X048645Y010461D02*
X048742Y010526D01*
X048538Y010416D02*
X048645Y010461D01*
X048424Y010394D02*
X048538Y010416D01*
X048308Y010394D02*
X048424D01*
X048193Y010416D02*
X048308Y010394D01*
X048086Y010461D02*
X048193Y010416D01*
X047989Y010526D02*
X048086Y010461D01*
X047907Y010608D02*
X047989Y010526D01*
X047842Y010705D02*
X047907Y010608D01*
X047798Y010812D02*
X047842Y010705D01*
X047775Y010926D02*
X047798Y010812D01*
X047775Y010926D02*
Y010984D01*
Y011042D01*
X047798Y011157D01*
X047842Y011264D01*
X047907Y011361D01*
X047989Y011443D01*
X048086Y011508D01*
X048193Y011552D01*
X048308Y011575D01*
X048424D01*
X018299Y018583D02*
X01836Y018571D01*
X018417Y018547D01*
X018468Y018512D01*
X018512Y018468D01*
X018547Y018417D01*
X018571Y01836D01*
X018583Y018299D01*
Y018268D02*
Y018299D01*
Y018237D02*
Y018268D01*
X018571Y018176D02*
X018583Y018237D01*
X018547Y018119D02*
X018571Y018176D01*
X018512Y018067D02*
X018547Y018119D01*
X018468Y018023D02*
X018512Y018067D01*
X018417Y017989D02*
X018468Y018023D01*
X01836Y017965D02*
X018417Y017989D01*
X018299Y017953D02*
X01836Y017965D01*
X018237Y017953D02*
X018299D01*
X018176Y017965D02*
X018237Y017953D01*
X018119Y017989D02*
X018176Y017965D01*
X018067Y018023D02*
X018119Y017989D01*
X018023Y018067D02*
X018067Y018023D01*
X017989Y018119D02*
X018023Y018067D01*
X017965Y018176D02*
X017989Y018119D01*
X017953Y018237D02*
X017965Y018176D01*
X017953Y018237D02*
Y018268D01*
Y018299D01*
X017965Y01836D01*
X017989Y018417D01*
X018023Y018468D01*
X018067Y018512D01*
X018119Y018547D01*
X018176Y018571D01*
X018237Y018583D01*
X018299D01*
X035679Y020974D02*
X035736Y020963D01*
X035789Y020941D01*
X035838Y020908D01*
X035879Y020867D01*
X035911Y020819D01*
X035934Y020765D01*
X035945Y020708D01*
Y020679D02*
Y020708D01*
Y02065D02*
Y020679D01*
X035934Y020593D02*
X035945Y02065D01*
X035911Y020539D02*
X035934Y020593D01*
X035879Y020491D02*
X035911Y020539D01*
X035838Y02045D02*
X035879Y020491D01*
X035789Y020417D02*
X035838Y02045D01*
X035736Y020395D02*
X035789Y020417D01*
X035679Y020384D02*
X035736Y020395D01*
X035621Y020384D02*
X035679D01*
X035563Y020395D02*
X035621Y020384D01*
X03551Y020417D02*
X035563Y020395D01*
X035461Y02045D02*
X03551Y020417D01*
X03542Y020491D02*
X035461Y02045D01*
X035388Y020539D02*
X03542Y020491D01*
X035366Y020593D02*
X035388Y020539D01*
X035354Y02065D02*
X035366Y020593D01*
X035354Y02065D02*
Y020679D01*
Y020708D01*
X035366Y020765D01*
X035388Y020819D01*
X03542Y020867D01*
X035461Y020908D01*
X03551Y020941D01*
X035563Y020963D01*
X035621Y020974D01*
X035679D01*
X021888Y022992D02*
X022042Y022972D01*
X022191Y022932D01*
X022335Y022873D01*
X022469Y022795D01*
X022591Y022701D01*
X022701Y022591D01*
X022795Y022469D01*
X022873Y022335D01*
X022932Y022191D01*
X022972Y022042D01*
X022992Y021888D01*
Y021811D02*
Y021888D01*
Y021734D02*
Y021811D01*
X022972Y02158D02*
X022992Y021734D01*
X022932Y021431D02*
X022972Y02158D01*
X022873Y021288D02*
X022932Y021431D01*
X022795Y021153D02*
X022873Y021288D01*
X022701Y021031D02*
X022795Y021153D01*
X022591Y020921D02*
X022701Y021031D01*
X022469Y020827D02*
X022591Y020921D01*
X022335Y020749D02*
X022469Y020827D01*
X022191Y02069D02*
X022335Y020749D01*
X022042Y02065D02*
X022191Y02069D01*
X021888Y02063D02*
X022042Y02065D01*
X021734Y02063D02*
X021888D01*
X02158Y02065D02*
X021734Y02063D01*
X021431Y02069D02*
X02158Y02065D01*
X021288Y020749D02*
X021431Y02069D01*
X021153Y020827D02*
X021288Y020749D01*
X021031Y020921D02*
X021153Y020827D01*
X020921Y021031D02*
X021031Y020921D01*
X020827Y021153D02*
X020921Y021031D01*
X020749Y021288D02*
X020827Y021153D01*
X02069Y021431D02*
X020749Y021288D01*
X02065Y02158D02*
X02069Y021431D01*
X02063Y021734D02*
X02065Y02158D01*
X02063Y021734D02*
Y021811D01*
Y021888D01*
X02065Y022042D01*
X02069Y022191D01*
X020749Y022335D01*
X020827Y022469D01*
X020921Y022591D01*
X021031Y022701D01*
X021153Y022795D01*
X021288Y022873D01*
X021431Y022932D01*
X02158Y022972D01*
X021734Y022992D01*
X021888D01*
X035697Y023868D02*
X035783Y023832D01*
X03585Y023766D01*
X035886Y023679D01*
Y023632D02*
Y023679D01*
Y023585D02*
Y023632D01*
X03585Y023498D02*
X035886Y023585D01*
X035783Y023432D02*
X03585Y023498D01*
X035697Y023396D02*
X035783Y023432D01*
X035603Y023396D02*
X035697D01*
X035516Y023432D02*
X035603Y023396D01*
X035449Y023498D02*
X035516Y023432D01*
X035413Y023585D02*
X035449Y023498D01*
X035413Y023585D02*
Y023632D01*
Y023679D01*
X035449Y023766D01*
X035516Y023832D01*
X035603Y023868D01*
X035697D01*
X025385Y025669D02*
X025446Y025657D01*
X025504Y025633D01*
X025555Y025599D01*
X025599Y025555D01*
X025633Y025504D01*
X025657Y025446D01*
X025669Y025385D01*
Y025354D02*
Y025385D01*
Y025323D02*
Y025354D01*
X025657Y025262D02*
X025669Y025323D01*
X025633Y025205D02*
X025657Y025262D01*
X025599Y025154D02*
X025633Y025205D01*
X025555Y02511D02*
X025599Y025154D01*
X025504Y025075D02*
X025555Y02511D01*
X025446Y025051D02*
X025504Y025075D01*
X025385Y025039D02*
X025446Y025051D01*
X025323Y025039D02*
X025385D01*
X025262Y025051D02*
X025323Y025039D01*
X025205Y025075D02*
X025262Y025051D01*
X025154Y02511D02*
X025205Y025075D01*
X02511Y025154D02*
X025154Y02511D01*
X025075Y025205D02*
X02511Y025154D01*
X025051Y025262D02*
X025075Y025205D01*
X025039Y025323D02*
X025051Y025262D01*
X025039Y025323D02*
Y025354D01*
Y025385D01*
X025051Y025446D01*
X025075Y025504D01*
X02511Y025555D01*
X025154Y025599D01*
X025205Y025633D01*
X025262Y025657D01*
X025323Y025669D01*
X025385D01*
X011042Y033256D02*
X011157Y033234D01*
X011264Y033189D01*
X011361Y033124D01*
X011443Y033042D01*
X011508Y032945D01*
X011552Y032838D01*
X011575Y032724D01*
Y032666D02*
Y032724D01*
Y032608D02*
Y032666D01*
X011552Y032493D02*
X011575Y032608D01*
X011508Y032386D02*
X011552Y032493D01*
X011443Y032289D02*
X011508Y032386D01*
X011361Y032207D02*
X011443Y032289D01*
X011264Y032142D02*
X011361Y032207D01*
X011157Y032098D02*
X011264Y032142D01*
X011042Y032075D02*
X011157Y032098D01*
X010926Y032075D02*
X011042D01*
X010812Y032098D02*
X010926Y032075D01*
X010705Y032142D02*
X010812Y032098D01*
X010608Y032207D02*
X010705Y032142D01*
X010526Y032289D02*
X010608Y032207D01*
X010461Y032386D02*
X010526Y032289D01*
X010416Y032493D02*
X010461Y032386D01*
X010394Y032608D02*
X010416Y032493D01*
X010394Y032608D02*
Y032666D01*
Y032724D01*
X010416Y032838D01*
X010461Y032945D01*
X010526Y033042D01*
X010608Y033124D01*
X010705Y033189D01*
X010812Y033234D01*
X010926Y033256D01*
X011042D01*
X048424D02*
X048538Y033234D01*
X048645Y033189D01*
X048742Y033124D01*
X048824Y033042D01*
X048889Y032945D01*
X048934Y032838D01*
X048956Y032724D01*
Y032666D02*
Y032724D01*
Y032608D02*
Y032666D01*
X048934Y032493D02*
X048956Y032608D01*
X048889Y032386D02*
X048934Y032493D01*
X048824Y032289D02*
X048889Y032386D01*
X048742Y032207D02*
X048824Y032289D01*
X048645Y032142D02*
X048742Y032207D01*
X048538Y032098D02*
X048645Y032142D01*
X048424Y032075D02*
X048538Y032098D01*
X048308Y032075D02*
X048424D01*
X048193Y032098D02*
X048308Y032075D01*
X048086Y032142D02*
X048193Y032098D01*
X047989Y032207D02*
X048086Y032142D01*
X047907Y032289D02*
X047989Y032207D01*
X047842Y032386D02*
X047907Y032289D01*
X047798Y032493D02*
X047842Y032386D01*
X047775Y032608D02*
X047798Y032493D01*
X047775Y032608D02*
Y032666D01*
Y032724D01*
X047798Y032838D01*
X047842Y032945D01*
X047907Y033042D01*
X047989Y033124D01*
X048086Y033189D01*
X048193Y033234D01*
X048308Y033256D01*
X048424D01*
X04938Y0337D02*
X049398Y033693D01*
X009988Y0337D02*
X04938D01*
X009967Y03369D02*
X009988Y0337D01*
X009953Y033671D02*
X009967Y03369D01*
X009949Y033647D02*
X009953Y033671D01*
X009949Y033647D02*
X009952Y033636D01*
X009951Y033631D02*
X009952Y033636D01*
X00995Y033624D02*
X009951Y033631D01*
X00995Y01D02*
Y033624D01*
Y00999D02*
Y01D01*
Y00999D02*
X009957Y009972D01*
X009972Y009957D01*
X00999Y00995D01*
X04938D01*
X049398Y009957D01*
X049413Y009972D01*
X04942Y00999D01*
Y01D01*
X04942Y010005D02*
X04942Y01D01*
X049419Y010012D02*
X04942Y010005D01*
X049419Y010012D02*
X049419Y010019D01*
X04942Y010026D01*
X04942Y03365D02*
X04942Y010026D01*
X04942Y03365D02*
Y03366D01*
X049413Y033678D02*
X04942Y03366D01*
X049398Y033693D02*
X049413Y033678D01*
D80*
X044754Y030108D02*
X04499D01*
X044872Y02999D02*
Y030226D01*
X043573Y028278D02*
X043809D01*
X043691Y028159D02*
Y028396D01*
X045945Y028278D02*
X046181D01*
X046063Y028159D02*
Y028396D01*
X041883Y025685D02*
X042217D01*
X04205Y025518D02*
Y025852D01*
X041883Y024685D02*
X042217D01*
X04205Y024518D02*
Y024852D01*
X038883Y025685D02*
X039217D01*
X03905Y025518D02*
Y025852D01*
X038883Y024685D02*
X039217D01*
X03905Y024518D02*
Y024852D01*
X039883Y025685D02*
X040217D01*
X04005Y025518D02*
Y025852D01*
X039883Y024685D02*
X040217D01*
X04005Y024518D02*
Y024852D01*
X040883Y024685D02*
X041217D01*
X04105Y024518D02*
Y024852D01*
X040883Y025685D02*
X041217D01*
X04105Y025518D02*
Y025852D01*
X047291Y0313D02*
X047646D01*
X047469Y031123D02*
Y031477D01*
X043354Y0313D02*
X043709D01*
X043531Y031123D02*
Y031477D01*
X046633Y03295D02*
X046967D01*
X0468Y032783D02*
Y033117D01*
X045633Y03295D02*
X045967D01*
X0458Y032783D02*
Y033117D01*
X044633Y03295D02*
X044967D01*
X0448Y032783D02*
Y033117D01*
X043302Y02318D02*
X043676D01*
X043489Y022993D02*
Y023367D01*
X044089Y022196D02*
X044463D01*
X044276Y022009D02*
Y022383D01*
X044089Y02318D02*
X044463D01*
X044276Y022993D02*
Y023367D01*
X043302Y022196D02*
X043676D01*
X043489Y022009D02*
Y022383D01*
X045143Y020326D02*
X045457D01*
X0453Y020168D02*
Y020483D01*
X045143Y02505D02*
X045457D01*
X0453Y024893D02*
Y025207D01*
X043252Y01653D02*
X043626D01*
X043439Y016343D02*
Y016717D01*
X044039Y015546D02*
X044413D01*
X044226Y015359D02*
Y015733D01*
X044039Y01653D02*
X044413D01*
X044226Y016343D02*
Y016717D01*
X043252Y015546D02*
X043626D01*
X043439Y015359D02*
Y015733D01*
X045093Y013676D02*
X045407D01*
X04525Y013518D02*
Y013833D01*
X045093Y0184D02*
X045407D01*
X04525Y018243D02*
Y018557D01*
X011097Y021311D02*
X011431D01*
X011264Y021144D02*
Y021478D01*
X011097Y022311D02*
X011431D01*
X011264Y022144D02*
Y022478D01*
X012097Y022311D02*
X012431D01*
X012264Y022144D02*
Y022478D01*
X012097Y023311D02*
X012431D01*
X012264Y023144D02*
Y023478D01*
X011097Y023311D02*
X011431D01*
X011264Y023144D02*
Y023478D01*
X012097Y026311D02*
X012431D01*
X012264Y026144D02*
Y026478D01*
X011097Y026311D02*
X011431D01*
X011264Y026144D02*
Y026478D01*
X012097Y025311D02*
X012431D01*
X012264Y025144D02*
Y025478D01*
X011097Y025311D02*
X011431D01*
X011264Y025144D02*
Y025478D01*
X011097Y024311D02*
X011431D01*
X011264Y024144D02*
Y024478D01*
X012097Y024311D02*
X012431D01*
X012264Y024144D02*
Y024478D01*
X011097Y020311D02*
X011431D01*
X011264Y020144D02*
Y020478D01*
X012097Y020311D02*
X012431D01*
X012264Y020144D02*
Y020478D01*
X012097Y021311D02*
X012431D01*
X012264Y021144D02*
Y021478D01*
X012097Y019311D02*
X012431D01*
X012264Y019144D02*
Y019478D01*
X011097Y019311D02*
X011431D01*
X011264Y019144D02*
Y019478D01*
X011097Y018311D02*
X011431D01*
X011264Y018144D02*
Y018478D01*
X012097Y018311D02*
X012431D01*
X012264Y018144D02*
Y018478D01*
X011097Y017311D02*
X011431D01*
X011264Y017144D02*
Y017478D01*
X012097Y017311D02*
X012431D01*
X012264Y017144D02*
Y017478D01*
X041388Y029278D02*
X041624D01*
X041506Y02916D02*
Y029397D01*
X041388Y028491D02*
X041624D01*
X041506Y028373D02*
Y028609D01*
X030307Y011665D02*
X030642D01*
X030475Y011498D02*
Y011833D01*
X029307Y011665D02*
X029642D01*
X029475Y011498D02*
Y011833D01*
X029307Y012665D02*
X029642D01*
X029475Y012498D02*
Y012833D01*
X028307Y012665D02*
X028642D01*
X028475Y012498D02*
Y012833D01*
X028307Y011665D02*
X028642D01*
X028475Y011498D02*
Y011833D01*
X025308Y012665D02*
X025642D01*
X025475Y012498D02*
Y012833D01*
X025308Y011665D02*
X025642D01*
X025475Y011498D02*
Y011833D01*
X026307Y012665D02*
X026642D01*
X026475Y012498D02*
Y012833D01*
X026307Y011665D02*
X026642D01*
X026475Y011498D02*
Y011833D01*
X027307Y011665D02*
X027642D01*
X027475Y011498D02*
Y011833D01*
X027307Y012665D02*
X027642D01*
X027475Y012498D02*
Y012833D01*
X031307Y011665D02*
X031642D01*
X031475Y011498D02*
Y011833D01*
X031307Y012665D02*
X031642D01*
X031475Y012498D02*
Y012833D01*
X030307Y012665D02*
X030642D01*
X030475Y012498D02*
Y012833D01*
X032307Y012665D02*
X032642D01*
X032475Y012498D02*
Y012833D01*
X032307Y011665D02*
X032642D01*
X032475Y011498D02*
Y011833D01*
X033307Y011665D02*
X033642D01*
X033475Y011498D02*
Y011833D01*
X033307Y012665D02*
X033642D01*
X033475Y012498D02*
Y012833D01*
X034307Y011665D02*
X034642D01*
X034475Y011498D02*
Y011833D01*
X034307Y012665D02*
X034642D01*
X034475Y012498D02*
Y012833D01*
X035307Y011665D02*
X035642D01*
X035475Y011498D02*
Y011833D01*
X035307Y012665D02*
X035642D01*
X035475Y012498D02*
Y012833D01*
X036307Y012666D02*
X036642D01*
X036475Y012498D02*
Y012833D01*
X036307Y011666D02*
X036642D01*
X036475Y011498D02*
Y011833D01*
X037307Y012665D02*
X037642D01*
X037475Y012498D02*
Y012833D01*
X037307Y011665D02*
X037642D01*
X037475Y011498D02*
Y011833D01*
X019297Y031985D02*
X019632D01*
X019465Y031817D02*
Y032152D01*
X020297Y031985D02*
X020632D01*
X020465Y031817D02*
Y032152D01*
X020297Y030985D02*
X020632D01*
X020465Y030817D02*
Y031152D01*
X021297Y030985D02*
X021632D01*
X021465Y030817D02*
Y031152D01*
X021297Y031985D02*
X021632D01*
X021465Y031817D02*
Y032152D01*
X024297Y030985D02*
X024632D01*
X024464Y030817D02*
Y031152D01*
X024297Y031985D02*
X024632D01*
X024464Y031817D02*
Y032152D01*
X023297Y030985D02*
X023632D01*
X023465Y030817D02*
Y031152D01*
X023297Y031985D02*
X023632D01*
X023465Y031817D02*
Y032152D01*
X022297Y031985D02*
X022632D01*
X022465Y031817D02*
Y032152D01*
X022297Y030985D02*
X022632D01*
X022465Y030817D02*
Y031152D01*
X018297Y031985D02*
X018632D01*
X018465Y031817D02*
Y032152D01*
X018297Y030985D02*
X018632D01*
X018465Y030817D02*
Y031152D01*
X019297Y030985D02*
X019632D01*
X019465Y030817D02*
Y031152D01*
X017297Y030985D02*
X017632D01*
X017465Y030817D02*
Y031152D01*
X017297Y031985D02*
X017632D01*
X017465Y031817D02*
Y032152D01*
X016297Y031985D02*
X016632D01*
X016465Y031817D02*
Y032152D01*
X016297Y030985D02*
X016632D01*
X016465Y030817D02*
Y031152D01*
X015297Y031985D02*
X015632D01*
X015465Y031817D02*
Y032152D01*
X015297Y030985D02*
X015632D01*
X015465Y030817D02*
Y031152D01*
X014297Y031985D02*
X014632D01*
X014465Y031817D02*
Y032152D01*
X014297Y030985D02*
X014632D01*
X014465Y030817D02*
Y031152D01*
X013297Y030985D02*
X013632D01*
X013465Y030817D02*
Y031152D01*
X013297Y031985D02*
X013632D01*
X013465Y031817D02*
Y032152D01*
X012297Y030985D02*
X012632D01*
X012465Y030817D02*
Y031152D01*
X012297Y031985D02*
X012632D01*
X012465Y031817D02*
Y032152D01*
X032307Y031985D02*
X032642D01*
X032475Y031817D02*
Y032152D01*
X033307Y031985D02*
X033642D01*
X033475Y031817D02*
Y032152D01*
X033307Y030985D02*
X033642D01*
X033475Y030817D02*
Y031152D01*
X034307Y030985D02*
X034642D01*
X034475Y030817D02*
Y031152D01*
X034307Y031985D02*
X034642D01*
X034475Y031817D02*
Y032152D01*
X037307Y030985D02*
X037642D01*
X037475Y030817D02*
Y031152D01*
X037307Y031985D02*
X037642D01*
X037475Y031817D02*
Y032152D01*
X036307Y030985D02*
X036642D01*
X036475Y030817D02*
Y031152D01*
X036307Y031985D02*
X036642D01*
X036475Y031817D02*
Y032152D01*
X035307Y031985D02*
X035642D01*
X035475Y031817D02*
Y032152D01*
X035307Y030985D02*
X035642D01*
X035475Y030817D02*
Y031152D01*
X031307Y031985D02*
X031642D01*
X031475Y031817D02*
Y032152D01*
X031307Y030985D02*
X031642D01*
X031475Y030817D02*
Y031152D01*
X032307Y030985D02*
X032642D01*
X032475Y030817D02*
Y031152D01*
X030307Y030985D02*
X030642D01*
X030475Y030817D02*
Y031152D01*
X030307Y031985D02*
X030642D01*
X030475Y031817D02*
Y032152D01*
X029307Y031985D02*
X029642D01*
X029475Y031817D02*
Y032152D01*
X029307Y030985D02*
X029642D01*
X029475Y030817D02*
Y031152D01*
X028307Y031985D02*
X028642D01*
X028475Y031817D02*
Y032152D01*
X028307Y030985D02*
X028642D01*
X028475Y030817D02*
Y031152D01*
X027307Y031985D02*
X027642D01*
X027475Y031817D02*
Y032152D01*
X027307Y030985D02*
X027642D01*
X027475Y030817D02*
Y031152D01*
X026308Y030985D02*
X026642D01*
X026475Y030817D02*
Y031152D01*
X026308Y031985D02*
X026642D01*
X026475Y031817D02*
Y032152D01*
X025308Y030985D02*
X025642D01*
X025475Y030817D02*
Y031152D01*
X025308Y031985D02*
X025642D01*
X025475Y031817D02*
Y032152D01*
X025341Y028661D02*
X025597D01*
X025469Y028533D02*
Y028789D01*
X024554Y028661D02*
X024809D01*
X024682Y028533D02*
Y028789D01*
X038569Y028847D02*
X038824D01*
X038697Y028719D02*
Y028975D01*
X039356Y028847D02*
X039612D01*
X039484Y028719D02*
Y028975D01*
X038569Y029636D02*
X038824D01*
X038697Y029508D02*
Y029764D01*
X039356Y029636D02*
X039612D01*
X039484Y029508D02*
Y029764D01*
X046639Y0124D02*
X047032D01*
X046835Y012203D02*
Y012597D01*
X046639Y010628D02*
X047032D01*
X046835Y010431D02*
Y010825D01*
X04408Y0124D02*
X044473D01*
X044276Y012203D02*
Y012597D01*
X04408Y010628D02*
X044473D01*
X044276Y010431D02*
Y010825D01*
X042703Y0124D02*
X043097D01*
X0429Y012203D02*
Y012597D01*
X042703Y010628D02*
X043097D01*
X0429Y010431D02*
Y010825D01*
X040144Y0124D02*
X040538D01*
X040341Y012203D02*
Y012597D01*
X040144Y010628D02*
X040538D01*
X040341Y010431D02*
Y010825D01*
X03602Y015239D02*
X036276D01*
X036148Y015111D02*
Y015367D01*
X035232Y015239D02*
X035488D01*
X03536Y015111D02*
Y015367D01*
X03602Y016026D02*
X036276D01*
X036148Y015898D02*
Y016154D01*
X035232Y016026D02*
X035488D01*
X03536Y015898D02*
Y016154D01*
X035232Y017623D02*
X035488D01*
X03536Y017495D02*
Y017751D01*
X03602Y017623D02*
X036276D01*
X036148Y017495D02*
Y017751D01*
X035232Y016836D02*
X035488D01*
X03536Y016708D02*
Y016964D01*
X03602Y016836D02*
X036276D01*
X036148Y016708D02*
Y016964D01*
X034439Y015236D02*
X034695D01*
X034567Y015108D02*
Y015364D01*
X034439Y016024D02*
X034695D01*
X034567Y015896D02*
Y016152D01*
X03123Y018789D02*
X031486D01*
X031358Y018661D02*
Y018917D01*
X030443Y018789D02*
X030699D01*
X030571Y018661D02*
Y018917D01*
X03123Y019577D02*
X031486D01*
X031358Y019449D02*
Y019705D01*
X030443Y019577D02*
X030699D01*
X030571Y019449D02*
Y019705D01*
X03123Y020363D02*
X031486D01*
X031358Y020235D02*
Y020491D01*
X030443Y020363D02*
X030699D01*
X030571Y020235D02*
Y020491D01*
X03123Y021152D02*
X031486D01*
X031358Y021024D02*
Y02128D01*
X030443Y021152D02*
X030699D01*
X030571Y021024D02*
Y02128D01*
X031122Y022057D02*
X03128D01*
X031201Y021978D02*
Y022136D01*
X031673Y022057D02*
X031831D01*
X031752Y021978D02*
Y022136D01*
X031982Y025677D02*
X032376D01*
X032179Y02548D02*
Y025874D01*
X03021Y025677D02*
X030604D01*
X030407Y02548D02*
Y025874D01*
X031982Y028236D02*
X032376D01*
X032179Y028039D02*
Y028433D01*
X03021Y028236D02*
X030604D01*
X030407Y028039D02*
Y028433D01*
X027161Y024173D02*
X027445D01*
X027303Y024031D02*
Y024315D01*
X026374Y023976D02*
X026657D01*
X026516Y023835D02*
Y024118D01*
X025587Y02378D02*
X02587D01*
X025728Y023638D02*
Y023921D01*
X027161Y023583D02*
X027445D01*
X027303Y023441D02*
Y023724D01*
X026374Y023386D02*
X026657D01*
X026516Y023244D02*
Y023528D01*
X025587Y023189D02*
X02587D01*
X025728Y023047D02*
Y023331D01*
X027161Y022992D02*
X027445D01*
X027303Y02285D02*
Y023134D01*
X026374Y022795D02*
X026657D01*
X026516Y022654D02*
Y022937D01*
X025587Y022598D02*
X02587D01*
X025728Y022457D02*
Y02274D01*
X027161Y022402D02*
X027445D01*
X027303Y02226D02*
Y022543D01*
X026374Y022205D02*
X026657D01*
X026516Y022063D02*
Y022346D01*
X025587Y022008D02*
X02587D01*
X025728Y021866D02*
Y02215D01*
X027161Y021811D02*
X027445D01*
X027303Y021669D02*
Y021953D01*
X026374Y021614D02*
X026657D01*
X026516Y021472D02*
Y021756D01*
X025587Y021417D02*
X02587D01*
X025728Y021276D02*
Y021559D01*
X027161Y02122D02*
X027445D01*
X027303Y021079D02*
Y021362D01*
X026374Y021024D02*
X026657D01*
X026516Y020882D02*
Y021165D01*
X025587Y020827D02*
X02587D01*
X025728Y020685D02*
Y020969D01*
X027161Y02063D02*
X027445D01*
X027303Y020488D02*
Y020772D01*
X026374Y020433D02*
X026657D01*
X026516Y020291D02*
Y020575D01*
X025587Y020236D02*
X02587D01*
X025728Y020094D02*
Y020378D01*
X027161Y020039D02*
X027445D01*
X027303Y019898D02*
Y020181D01*
X026374Y019843D02*
X026657D01*
X026516Y019701D02*
Y019984D01*
X025587Y019646D02*
X02587D01*
X025728Y019504D02*
Y019787D01*
X027161Y019449D02*
X027445D01*
X027303Y019307D02*
Y019591D01*
X024031Y027303D02*
X024315D01*
X024173Y027161D02*
Y027445D01*
X023835Y025728D02*
X024118D01*
X023976Y025587D02*
Y02587D01*
X023638Y026516D02*
X023921D01*
X02378Y026374D02*
Y026657D01*
X023441Y027303D02*
X023724D01*
X023583Y027161D02*
Y027445D01*
X023244Y025728D02*
X023528D01*
X023386Y025587D02*
Y02587D01*
X023047Y026516D02*
X023331D01*
X023189Y026374D02*
Y026657D01*
X02285Y027303D02*
X023134D01*
X022992Y027161D02*
Y027445D01*
X022654Y025728D02*
X022937D01*
X022795Y025587D02*
Y02587D01*
X022457Y026516D02*
X02274D01*
X022598Y026374D02*
Y026657D01*
X02226Y027303D02*
X022543D01*
X022402Y027161D02*
Y027445D01*
X022063Y025728D02*
X022346D01*
X022205Y025587D02*
Y02587D01*
X021866Y026516D02*
X02215D01*
X022008Y026374D02*
Y026657D01*
X021669Y027303D02*
X021953D01*
X021811Y027161D02*
Y027445D01*
X021472Y025728D02*
X021756D01*
X021614Y025587D02*
Y02587D01*
X021276Y026516D02*
X021559D01*
X021417Y026374D02*
Y026657D01*
X021079Y027303D02*
X021362D01*
X02122Y027161D02*
Y027445D01*
X020882Y025728D02*
X021165D01*
X021024Y025587D02*
Y02587D01*
X020685Y026516D02*
X020969D01*
X020827Y026374D02*
Y026657D01*
X020488Y027303D02*
X020772D01*
X02063Y027161D02*
Y027445D01*
X020291Y025728D02*
X020575D01*
X020433Y025587D02*
Y02587D01*
X020094Y026516D02*
X020378D01*
X020236Y026374D02*
Y026657D01*
X019898Y027303D02*
X020181D01*
X020039Y027161D02*
Y027445D01*
X019701Y025728D02*
X019984D01*
X019843Y025587D02*
Y02587D01*
X019504Y026516D02*
X019787D01*
X019646Y026374D02*
Y026657D01*
X019307Y027303D02*
X019591D01*
X019449Y027161D02*
Y027445D01*
X016177Y024173D02*
X016461D01*
X016319Y024031D02*
Y024315D01*
X017752Y023976D02*
X018035D01*
X017894Y023835D02*
Y024118D01*
X016965Y02378D02*
X017248D01*
X017106Y023638D02*
Y023921D01*
X016177Y023583D02*
X016461D01*
X016319Y023441D02*
Y023724D01*
X017752Y023386D02*
X018035D01*
X017894Y023244D02*
Y023528D01*
X016965Y023189D02*
X017248D01*
X017106Y023047D02*
Y023331D01*
X016177Y022992D02*
X016461D01*
X016319Y02285D02*
Y023134D01*
X017752Y022795D02*
X018035D01*
X017894Y022654D02*
Y022937D01*
X016965Y022598D02*
X017248D01*
X017106Y022457D02*
Y02274D01*
X016177Y022402D02*
X016461D01*
X016319Y02226D02*
Y022543D01*
X017752Y022205D02*
X018035D01*
X017894Y022063D02*
Y022346D01*
X016965Y022008D02*
X017248D01*
X017106Y021866D02*
Y02215D01*
X016177Y021811D02*
X016461D01*
X016319Y021669D02*
Y021953D01*
X017752Y021614D02*
X018035D01*
X017894Y021472D02*
Y021756D01*
X016965Y021417D02*
X017248D01*
X017106Y021276D02*
Y021559D01*
X016177Y02122D02*
X016461D01*
X016319Y021079D02*
Y021362D01*
X017752Y021024D02*
X018035D01*
X017894Y020882D02*
Y021165D01*
X016965Y020827D02*
X017248D01*
X017106Y020685D02*
Y020969D01*
X016177Y02063D02*
X016461D01*
X016319Y020488D02*
Y020772D01*
X017752Y020433D02*
X018035D01*
X017894Y020291D02*
Y020575D01*
X016965Y020236D02*
X017248D01*
X017106Y020094D02*
Y020378D01*
X016177Y020039D02*
X016461D01*
X016319Y019898D02*
Y020181D01*
X017752Y019843D02*
X018035D01*
X017894Y019701D02*
Y019984D01*
X016965Y019646D02*
X017248D01*
X017106Y019504D02*
Y019787D01*
X016177Y019449D02*
X016461D01*
X016319Y019307D02*
Y019591D01*
X019307Y016319D02*
X019591D01*
X019449Y016177D02*
Y016461D01*
X019504Y017894D02*
X019787D01*
X019646Y017752D02*
Y018035D01*
X019701Y017106D02*
X019984D01*
X019843Y016965D02*
Y017248D01*
X019898Y016319D02*
X020181D01*
X020039Y016177D02*
Y016461D01*
X020094Y017894D02*
X020378D01*
X020236Y017752D02*
Y018035D01*
X020291Y017106D02*
X020575D01*
X020433Y016965D02*
Y017248D01*
X020488Y016319D02*
X020772D01*
X02063Y016177D02*
Y016461D01*
X020685Y017894D02*
X020969D01*
X020827Y017752D02*
Y018035D01*
X020882Y017106D02*
X021165D01*
X021024Y016965D02*
Y017248D01*
X021079Y016319D02*
X021362D01*
X02122Y016177D02*
Y016461D01*
X021276Y017894D02*
X021559D01*
X021417Y017752D02*
Y018035D01*
X021472Y017106D02*
X021756D01*
X021614Y016965D02*
Y017248D01*
X021669Y016319D02*
X021953D01*
X021811Y016177D02*
Y016461D01*
X021866Y017894D02*
X02215D01*
X022008Y017752D02*
Y018035D01*
X022063Y017106D02*
X022346D01*
X022205Y016965D02*
Y017248D01*
X02226Y016319D02*
X022543D01*
X022402Y016177D02*
Y016461D01*
X022457Y017894D02*
X02274D01*
X022598Y017752D02*
Y018035D01*
X022654Y017106D02*
X022937D01*
X022795Y016965D02*
Y017248D01*
X02285Y016319D02*
X023134D01*
X022992Y016177D02*
Y016461D01*
X023047Y017894D02*
X023331D01*
X023189Y017752D02*
Y018035D01*
X023244Y017106D02*
X023528D01*
X023386Y016965D02*
Y017248D01*
X023441Y016319D02*
X023724D01*
X023583Y016177D02*
Y016461D01*
X023638Y017894D02*
X023921D01*
X02378Y017752D02*
Y018035D01*
X023835Y017106D02*
X024118D01*
X023976Y016965D02*
Y017248D01*
X024031Y016319D02*
X024315D01*
X024173Y016177D02*
Y016461D01*
X015797Y014964D02*
X016053D01*
X015925Y014836D02*
Y015092D01*
X016585Y014964D02*
X016841D01*
X016713Y014836D02*
Y015092D01*
X010659Y029319D02*
X010915D01*
X010787Y029191D02*
Y029447D01*
X010659Y030107D02*
X010915D01*
X010787Y029979D02*
Y030235D01*
X010659Y030894D02*
X010915D01*
X010787Y030766D02*
Y031022D01*
X014744Y026358D02*
X015D01*
X014872Y02623D02*
Y026486D01*
X014744Y027146D02*
X015D01*
X014872Y027018D02*
Y027274D01*
X014744Y027933D02*
X015D01*
X014872Y027805D02*
Y028061D01*
X013957Y027933D02*
X014213D01*
X014085Y027805D02*
Y028061D01*
X013957Y027146D02*
X014213D01*
X014085Y027018D02*
Y027274D01*
X013957Y026358D02*
X014213D01*
X014085Y02623D02*
Y026486D01*
X010659Y014331D02*
X010915D01*
X010787Y014203D02*
Y014459D01*
X010659Y013543D02*
X010915D01*
X010787Y013415D02*
Y013671D01*
X010659Y012756D02*
X010915D01*
X010787Y012628D02*
Y012884D01*
X024297Y011665D02*
X024632D01*
X024464Y011498D02*
Y011833D01*
X024297Y012665D02*
X024632D01*
X024464Y012498D02*
Y012833D01*
X023297Y011665D02*
X023632D01*
X023464Y011498D02*
Y011833D01*
X023297Y012665D02*
X023632D01*
X023464Y012498D02*
Y012833D01*
X022297Y012665D02*
X022632D01*
X022465Y012498D02*
Y012833D01*
X022297Y011665D02*
X022632D01*
X022465Y011498D02*
Y011833D01*
X021297Y012665D02*
X021632D01*
X021465Y012498D02*
Y012833D01*
X021297Y011665D02*
X021632D01*
X021465Y011498D02*
Y011833D01*
X020297Y012665D02*
X020632D01*
X020465Y012498D02*
Y012833D01*
X020297Y011665D02*
X020632D01*
X020465Y011498D02*
Y011833D01*
X019297Y011665D02*
X019632D01*
X019465Y011498D02*
Y011833D01*
X019297Y012665D02*
X019632D01*
X019465Y012498D02*
Y012833D01*
X017297Y012665D02*
X017632D01*
X017465Y012498D02*
Y012833D01*
X018297Y012665D02*
X018632D01*
X018465Y012498D02*
Y012833D01*
X018297Y011665D02*
X018632D01*
X018465Y011498D02*
Y011833D01*
X014297Y012665D02*
X014632D01*
X014465Y012498D02*
Y012833D01*
X014297Y011665D02*
X014632D01*
X014465Y011498D02*
Y011833D01*
X013297Y011665D02*
X013632D01*
X013465Y011498D02*
Y011833D01*
X013297Y012665D02*
X013632D01*
X013465Y012498D02*
Y012833D01*
X012297Y011665D02*
X012632D01*
X012465Y011498D02*
Y011833D01*
X012297Y012665D02*
X012632D01*
X012465Y012498D02*
Y012833D01*
X015297Y011665D02*
X015632D01*
X015465Y011498D02*
Y011833D01*
X015297Y012665D02*
X015632D01*
X015465Y012498D02*
Y012833D01*
X016297Y012665D02*
X016632D01*
X016465Y012498D02*
Y012833D01*
X016297Y011665D02*
X016632D01*
X016465Y011498D02*
Y011833D01*
X017297Y011665D02*
X017632D01*
X017465Y011498D02*
Y011833D01*
X031811Y018012D02*
X03189D01*
X03185Y017972D02*
Y018051D01*
X015886Y01628D02*
X015965D01*
X015925Y016241D02*
Y016319D01*
X038561Y02318D02*
X038639D01*
X0386Y023141D02*
Y023219D01*
X04249Y022431D02*
X042569D01*
X04253Y022392D02*
Y02247D01*
X038561Y022438D02*
X038639D01*
X0386Y022399D02*
Y022478D01*
X042761Y03165D02*
X042839D01*
X0428Y031611D02*
Y031689D01*
X039862Y020819D02*
X039941D01*
X039901Y02078D02*
Y020858D01*
X034961Y01061D02*
X035039D01*
X035Y010571D02*
Y01065D01*
X025535Y027102D02*
X025614D01*
X025574Y027062D02*
Y027141D01*
X025531Y027431D02*
X02561D01*
X025571Y027392D02*
Y02747D01*
X028494Y028054D02*
X028573D01*
X028533Y028015D02*
Y028094D01*
X025531Y028051D02*
X02561D01*
X025571Y028012D02*
Y028091D01*
X028494Y027766D02*
X028573D01*
X028533Y027726D02*
Y027805D01*
X025531Y027766D02*
X02561D01*
X025571Y027726D02*
Y027805D01*
X028494Y027431D02*
X028573D01*
X028533Y027392D02*
Y02747D01*
X028495Y027102D02*
X028574D01*
X028535Y027062D02*
Y027141D01*
X028495Y026766D02*
X028574D01*
X028535Y026726D02*
Y026805D01*
X025535Y026766D02*
X025614D01*
X025574Y026726D02*
Y026805D01*
X018553Y023248D02*
X018632D01*
X018593Y023209D02*
Y023287D01*
X018553Y02375D02*
X018632D01*
X018593Y023711D02*
Y023789D01*
X026065Y024241D02*
X026144D01*
X026105Y024202D02*
Y024281D01*
X024685Y024241D02*
X024764D01*
X024724Y024202D02*
Y024281D01*
X038219Y019311D02*
X038297D01*
X038258Y019272D02*
Y01935D01*
X017067Y018329D02*
X017146D01*
X017106Y01829D02*
Y018369D01*
X041467Y023986D02*
X041545D01*
X041506Y023947D02*
Y024026D01*
X040161Y031509D02*
X040239D01*
X0402Y03147D02*
Y031549D01*
X041711Y0313D02*
X041789D01*
X04175Y031261D02*
Y031339D01*
X037825Y019321D02*
X037904D01*
X037864Y019282D02*
Y01936D01*
X037825Y01797D02*
X037904D01*
X037864Y01793D02*
Y018009D01*
X038209Y017972D02*
X038287D01*
X038248Y017933D02*
Y018012D01*
X024352Y018496D02*
X024431D01*
X024391Y018457D02*
Y018536D01*
X024154Y018229D02*
X024233D01*
X024194Y018189D02*
Y018268D01*
X018416Y020444D02*
X018495D01*
X018455Y020404D02*
Y020483D01*
X037894Y014892D02*
X037972D01*
X037933Y014852D02*
Y014931D01*
X042885Y0182D02*
X042964D01*
X042924Y018161D02*
Y018239D01*
X040591Y016388D02*
X040669D01*
X04063Y016348D02*
Y016427D01*
X039511Y014016D02*
X039589D01*
X03955Y013976D02*
Y014055D01*
X038051Y014016D02*
X03813D01*
X038091Y013976D02*
Y014055D01*
X039764Y016102D02*
X039843D01*
X039803Y016063D02*
Y016142D01*
X040261Y0159D02*
X040339D01*
X0403Y015861D02*
Y015939D01*
X024815Y021705D02*
X024894D01*
X024855Y021666D02*
Y021745D01*
X023743Y020138D02*
X023822D01*
X023783Y020099D02*
Y020178D01*
X039511Y021339D02*
X039589D01*
X03955Y021299D02*
Y021378D01*
X039183Y021339D02*
X039262D01*
X039222Y021299D02*
Y021378D01*
X024587Y018789D02*
X024665D01*
X024626Y01875D02*
Y018829D01*
X040761Y020856D02*
X040839D01*
X0408Y020816D02*
Y020895D01*
X024026Y020455D02*
X024104D01*
X024065Y020416D02*
Y020494D01*
X040761Y021702D02*
X040839D01*
X0408Y021663D02*
Y021741D01*
M02*
