G04*
G04 #@! TF.GenerationSoftware,Altium Limited,Altium Designer,19.1.7 (138)*
G04*
G04 Layer_Color=2752767*
%FSTAX24Y24*%
%MOIN*%
G70*
G01*
G75*
%ADD13C,0.0020*%
G36*
X031165Y028D02*
Y027832D01*
X031191Y027496D01*
X031244Y027163D01*
X031323Y026836D01*
X031427Y026516D01*
X031555Y026205D01*
X031708Y025905D01*
X031884Y025617D01*
X032082Y025345D01*
X032301Y025089D01*
X032539Y024851D01*
X032795Y024632D01*
X033067Y024434D01*
X033355Y024258D01*
X033655Y024105D01*
X033966Y023977D01*
X034286Y023873D01*
X034613Y023794D01*
X034946Y023741D01*
X035282Y023715D01*
X03545D01*
X035618D01*
X035954Y023741D01*
X036287Y023794D01*
X036614Y023873D01*
X036934Y023977D01*
X037245Y024105D01*
X037545Y024258D01*
X037833Y024434D01*
X038105Y024632D01*
X038361Y024851D01*
X038599Y025089D01*
X038818Y025345D01*
X039016Y025617D01*
X039192Y025905D01*
X039345Y026205D01*
X039473Y026516D01*
X039577Y026836D01*
X039656Y027163D01*
X039709Y027496D01*
X039735Y027832D01*
Y028D01*
Y028168D01*
X039709Y028504D01*
X039656Y028837D01*
X039577Y029164D01*
X039473Y029484D01*
X039345Y029795D01*
X039192Y030095D01*
X039016Y030383D01*
X038818Y030655D01*
X038599Y030911D01*
X038361Y031149D01*
X038105Y031368D01*
X037833Y031566D01*
X037545Y031742D01*
X037245Y031895D01*
X036934Y032023D01*
X036614Y032127D01*
X036287Y032206D01*
X035954Y032259D01*
X035618Y032285D01*
X03545D01*
X035282D01*
X034946Y032259D01*
X034613Y032206D01*
X034286Y032127D01*
X033966Y032023D01*
X033655Y031895D01*
X033355Y031742D01*
X033067Y031566D01*
X032795Y031368D01*
X032539Y031149D01*
X032301Y030911D01*
X032082Y030655D01*
X031884Y030383D01*
X031708Y030095D01*
X031555Y029795D01*
X031427Y029484D01*
X031323Y029164D01*
X031244Y028837D01*
X031191Y028504D01*
X031165Y028168D01*
Y028D01*
D01*
D02*
G37*
D13*
X03977Y04162D02*
Y04178D01*
X03993D01*
Y04162D01*
X03977D01*
M02*
