G04*
G04 #@! TF.GenerationSoftware,Altium Limited,Altium Designer,19.1.7 (138)*
G04*
G04 Layer_Color=65535*
%FSTAX24Y24*%
%MOIN*%
G70*
G01*
G75*
%ADD10C,0.0100*%
%ADD11C,0.0079*%
%ADD12C,0.0071*%
%ADD13C,0.0157*%
%ADD14C,0.0138*%
%ADD15C,0.0197*%
%ADD16R,0.0276X0.1181*%
%ADD17R,0.0591X0.0157*%
%ADD18R,0.0217X0.0719*%
%ADD19R,0.0157X0.0591*%
D10*
X035207Y025087D02*
G03*
X033596Y020017I000416J-002923D01*
G01*
X037656Y020022D02*
G03*
X036061Y025084I-002033J002141D01*
G01*
X033183Y020013D02*
G03*
X033183Y019078I0J-000468D01*
G01*
X038055D02*
G03*
X038055Y020013I0J000468D01*
G01*
X042399Y015669D02*
G03*
X042399Y015669I-000097J0D01*
G01*
X046048Y011514D02*
G03*
X046048Y011514I-000492J0D01*
G01*
X042113D02*
G03*
X042113Y011514I-000492J0D01*
G01*
X031781Y026969D02*
G03*
X031781Y026969I-000492J0D01*
G01*
X043622Y018805D02*
Y019002D01*
Y018805D02*
X045701D01*
X043622Y019955D02*
X045701D01*
Y018805D02*
Y019002D01*
Y019758D02*
Y019955D01*
X043622Y019758D02*
Y019955D01*
X045504Y031569D02*
Y031766D01*
X043425D02*
X045504D01*
X043425Y030616D02*
X045504D01*
X043425Y031569D02*
Y031766D01*
Y030616D02*
Y030813D01*
X045504Y030616D02*
Y030813D01*
X049385Y020326D02*
Y02505D01*
X042889Y020326D02*
Y02505D01*
Y020326D02*
X049385D01*
X042889Y02505D02*
X049385D01*
X034833Y025856D02*
Y026998D01*
Y025856D02*
X036407D01*
Y026998D01*
X034833D02*
X036407D01*
X036673Y027037D02*
X037343D01*
X036673Y025837D02*
Y027037D01*
X037343Y025837D02*
Y027037D01*
X036673Y025837D02*
X037343D01*
X033691Y026053D02*
X034361D01*
Y027254D01*
X033691Y026053D02*
Y027254D01*
X034361D01*
X033183Y020013D02*
X033592D01*
X037666D02*
X038055D01*
X036081Y019078D02*
X038055D01*
X033183D02*
X035146D01*
X040758Y028681D02*
X04251D01*
Y027874D02*
Y028681D01*
X040758Y027874D02*
Y028681D01*
Y027874D02*
X04251D01*
X038571Y023783D02*
Y025756D01*
Y023783D02*
X042571D01*
X042567Y023787D02*
Y025756D01*
X038571D02*
X042567D01*
X039931Y020945D02*
Y021614D01*
Y020945D02*
X041132D01*
X039931Y021614D02*
X041132D01*
Y020945D02*
Y021614D01*
X041506Y019932D02*
Y020719D01*
X039931Y019932D02*
X041506D01*
X039931Y020719D02*
X041506D01*
X039931Y019932D02*
Y020719D01*
X01372Y028297D02*
X015295D01*
X01372Y025935D02*
Y028297D01*
X015295Y025935D02*
Y028297D01*
X01372Y025935D02*
X015295D01*
X039288Y01665D02*
X041591D01*
Y01794D01*
X039288Y01665D02*
Y01794D01*
X041591D01*
X034836Y028704D02*
X036411D01*
Y02713D02*
Y028704D01*
X034836Y02713D02*
X036411D01*
X034836D02*
Y028704D01*
X034833Y014862D02*
Y018012D01*
X036407Y014862D02*
X036407Y014862D01*
X034833Y014862D02*
X036407D01*
X036407Y014862D02*
Y018012D01*
X034833D02*
X036407D01*
X030101Y018619D02*
Y021769D01*
X031676Y018619D02*
X031676Y018619D01*
X030101Y018619D02*
X031676D01*
X031676Y018619D02*
Y021769D01*
X030101D02*
X031676D01*
X043366Y026486D02*
X0494D01*
Y030187D01*
X043366D02*
X0494D01*
X043366Y026486D02*
Y030187D01*
X032264Y015461D02*
Y017764D01*
X030975D02*
X032264D01*
X030975Y015461D02*
X032264D01*
X030975D02*
Y017764D01*
X038549Y016309D02*
X042549D01*
X038549Y013691D02*
Y016309D01*
Y013691D02*
X042549D01*
Y016309D01*
X028396Y015521D02*
X029183D01*
X028396Y017096D02*
X029183D01*
X028396Y015521D02*
Y017096D01*
X029183Y015521D02*
Y017096D01*
X042559Y018209D02*
Y018878D01*
X041358D02*
X042559D01*
X041358Y018209D02*
X042559D01*
X041358D02*
Y018878D01*
X049024Y012812D02*
Y013481D01*
X047824D02*
X049024D01*
X047824Y012812D02*
X049024D01*
X047824D02*
Y013481D01*
X037766Y028681D02*
X039793D01*
Y027874D02*
Y028681D01*
X037766Y027874D02*
X039793D01*
X037766D02*
Y028681D01*
Y027677D02*
X039793D01*
Y02687D02*
Y027677D01*
X037766Y02687D02*
X039793D01*
X037766D02*
Y027677D01*
X011181Y012362D02*
Y014724D01*
X010394D02*
X011181D01*
X024288Y028268D02*
X025863D01*
X024288Y029055D02*
X025863D01*
X010394Y012362D02*
X011181D01*
X025863Y028268D02*
Y029055D01*
X010394Y012362D02*
Y014724D01*
X024288Y028268D02*
Y029055D01*
X011965Y032485D02*
X037975D01*
Y030485D02*
Y032485D01*
X015532Y014571D02*
X017106D01*
X037975Y030485D02*
X037975Y030485D01*
X010394Y028926D02*
X011181D01*
X011965Y030485D02*
Y032485D01*
X011965Y011165D02*
Y013165D01*
X017106Y014571D02*
Y015358D01*
X011965Y030485D02*
X011965Y030485D01*
X037975D01*
X011965Y011165D02*
X037974D01*
X037975Y011165D01*
X037974Y013165D02*
X037975Y013166D01*
X015532Y015358D02*
X017106D01*
X011181Y028926D02*
Y031288D01*
X037975Y011165D02*
Y013166D01*
X010394Y031288D02*
X011181D01*
X010394Y028926D02*
Y031288D01*
X0443Y03245D02*
X0473D01*
X0443D02*
Y03345D01*
X0473Y03245D02*
Y03345D01*
X0443D02*
X0473D01*
X015532Y014571D02*
Y015358D01*
X011965Y013165D02*
X037974D01*
X03992Y030096D02*
Y033463D01*
Y030096D02*
X04248D01*
Y033463D01*
X03992D02*
X04248D01*
X042889Y018415D02*
X049385D01*
X042889Y013691D02*
X049385D01*
X042889D02*
Y018415D01*
X049385Y013691D02*
Y018415D01*
X032835Y027254D02*
X033504D01*
X032835Y026053D02*
Y027254D01*
X033504Y026053D02*
Y027254D01*
X032835Y026053D02*
X033504D01*
X032835Y02751D02*
X033504D01*
Y028711D01*
X032835Y02751D02*
Y028711D01*
X033504D01*
X033687Y027506D02*
X034356D01*
Y028707D01*
X033687Y027506D02*
Y028707D01*
X034356D01*
X010071Y020807D02*
X010396D01*
Y022844D01*
X010071D02*
X010396D01*
X010012Y015315D02*
Y028307D01*
Y015315D02*
X013536D01*
Y028307D01*
X010012D02*
X013536D01*
X040758Y027677D02*
X04251D01*
Y02687D02*
Y027677D01*
X040758Y02687D02*
Y027677D01*
Y02687D02*
X04251D01*
X039547Y030335D02*
Y031004D01*
X038346D02*
X039547D01*
X038346Y030335D02*
X039547D01*
X038346D02*
Y031004D01*
X03955Y031152D02*
Y031821D01*
X03835D02*
X03955D01*
X03835Y031152D02*
X03955D01*
X03835D02*
Y031821D01*
X039557Y031952D02*
Y032621D01*
X038356D02*
X039557D01*
X038356Y031952D02*
X039557D01*
X038356D02*
Y032621D01*
X03955Y032752D02*
Y033421D01*
X03835D02*
X03955D01*
X03835Y032752D02*
X03955D01*
X03835D02*
Y033421D01*
X043465Y032243D02*
X044135D01*
Y033444D01*
X043465Y032243D02*
Y033444D01*
X044135D01*
X042669Y03225D02*
X043339D01*
Y03345D01*
X042669Y03225D02*
Y03345D01*
X043339D01*
X047824Y012067D02*
Y012736D01*
Y012067D02*
X049024D01*
X047824Y012736D02*
X049024D01*
Y012067D02*
Y012736D01*
X043814Y010264D02*
X047288D01*
Y012764D01*
X043814D02*
X047288D01*
X043814Y010264D02*
Y012764D01*
X039878Y010264D02*
X043353D01*
Y012764D01*
X039878D02*
X043353D01*
X039878Y010264D02*
Y012764D01*
X039671Y012115D02*
Y012785D01*
X03847D02*
X039671D01*
X03847Y012115D02*
X039671D01*
X03847D02*
Y012785D01*
X039671Y011237D02*
Y011906D01*
X03847D02*
X039671D01*
X03847Y011237D02*
X039671D01*
X03847D02*
Y011906D01*
X038343Y016697D02*
X039012D01*
Y017898D01*
X038343Y016697D02*
Y017898D01*
X039012D01*
X042557Y019035D02*
Y019705D01*
X041356D02*
X042557D01*
X041356Y019035D02*
X042557D01*
X041356D02*
Y019705D01*
X033632Y016821D02*
X034301D01*
Y018022D01*
X033632Y016821D02*
Y018022D01*
X034301D01*
X032676Y016817D02*
X033345D01*
Y018018D01*
X032676Y016817D02*
Y018018D01*
X033345D01*
X032671Y016624D02*
X03334D01*
X032671Y015423D02*
Y016624D01*
X03334Y015423D02*
Y016624D01*
X032671Y015423D02*
X03334D01*
X033642Y016624D02*
X034311D01*
X033642Y015423D02*
Y016624D01*
X034311Y015423D02*
Y016624D01*
X033642Y015423D02*
X034311D01*
X030709Y015512D02*
Y016181D01*
X029508D02*
X030709D01*
X029508Y015512D02*
X030709D01*
X029508D02*
Y016181D01*
X030709Y017067D02*
Y017736D01*
X029508D02*
X030709D01*
X029508Y017067D02*
X030709D01*
X029508D02*
Y017736D01*
X030138Y021978D02*
X030807D01*
Y023179D01*
X030138Y021978D02*
Y023179D01*
X030807D01*
X03188Y022526D02*
Y024848D01*
X03186Y022506D02*
X03188Y022526D01*
X031092D02*
Y024848D01*
X03188D01*
X031092Y022506D02*
X03186D01*
X031092D02*
Y022526D01*
X031762Y022221D02*
Y022496D01*
X031191Y022211D02*
Y022486D01*
X030138Y024852D02*
X030807D01*
X030138Y023652D02*
Y024852D01*
X030807Y023652D02*
Y024852D01*
X030138Y023652D02*
X030807D01*
X032539Y025226D02*
Y028701D01*
X030039D02*
X032539D01*
X030039Y025226D02*
Y028701D01*
Y025226D02*
X032539D01*
X015532Y028091D02*
X028091D01*
X015532Y015532D02*
X028091D01*
Y028091D01*
X015532Y015532D02*
Y028091D01*
X011365Y014537D02*
X012035D01*
X011365Y013337D02*
Y014537D01*
X012035Y013337D02*
Y014537D01*
X011365Y013337D02*
X012035D01*
X017423Y014629D02*
Y015299D01*
Y014629D02*
X018623D01*
X017423Y015299D02*
X018623D01*
Y014629D02*
Y015299D01*
X014538Y024572D02*
X015207D01*
Y025773D01*
X014538Y024572D02*
Y025773D01*
X015207D01*
X011365Y029113D02*
X012035D01*
Y030313D01*
X011365Y029113D02*
Y030313D01*
X012035D01*
X041865Y017892D02*
X042535D01*
X041865Y016691D02*
Y017892D01*
X042535Y016691D02*
Y017892D01*
X041865Y016691D02*
X042535D01*
X039931Y019035D02*
Y019705D01*
Y019035D02*
X041132D01*
X039931Y019705D02*
X041132D01*
Y019035D02*
Y019705D01*
X039931Y018209D02*
Y018878D01*
Y018209D02*
X041132D01*
X039931Y018878D02*
X041132D01*
Y018209D02*
Y018878D01*
X041427Y021861D02*
Y02253D01*
Y021861D02*
X042628D01*
X041427Y02253D02*
X042628D01*
Y021861D02*
Y02253D01*
X041427Y020945D02*
Y021614D01*
Y020945D02*
X042628D01*
X041427Y021614D02*
X042628D01*
Y020945D02*
Y021614D01*
X024595Y033214D02*
X024647Y033266D01*
Y033371D01*
X024595Y033424D01*
X024385D01*
X024332Y033371D01*
Y033266D01*
X024385Y033214D01*
X02449D01*
Y033319D01*
X024332Y033109D02*
X024647D01*
X024332Y032899D01*
X024647D01*
Y032794D02*
X024332D01*
Y032636D01*
X024385Y032584D01*
X024595D01*
X024647Y032636D01*
Y032794D01*
X012693Y01072D02*
Y011061D01*
X012437D01*
X012522Y010891D01*
Y010805D01*
X012437Y01072D01*
X012266D01*
X012181Y010805D01*
Y010976D01*
X012266Y011061D01*
X012181Y010549D02*
Y010379D01*
Y010464D01*
X012693D01*
X012607Y010549D01*
X013692Y010719D02*
Y011061D01*
X013437D01*
X013522Y01089D01*
Y010805D01*
X013437Y010719D01*
X013266D01*
X013181Y010805D01*
Y010975D01*
X013266Y011061D01*
X013607Y010549D02*
X013692Y010464D01*
Y010293D01*
X013607Y010208D01*
X013522D01*
X013437Y010293D01*
Y010378D01*
Y010293D01*
X013351Y010208D01*
X013266D01*
X013181Y010293D01*
Y010464D01*
X013266Y010549D01*
X014692Y010714D02*
Y011055D01*
X014437D01*
X014522Y010885D01*
Y0108D01*
X014437Y010714D01*
X014266D01*
X014181Y0108D01*
Y01097D01*
X014266Y011055D01*
X014692Y010203D02*
Y010544D01*
X014437D01*
X014522Y010373D01*
Y010288D01*
X014437Y010203D01*
X014266D01*
X014181Y010288D01*
Y010459D01*
X014266Y010544D01*
X015692Y010719D02*
Y01106D01*
X015437D01*
X015522Y010889D01*
Y010804D01*
X015437Y010719D01*
X015266D01*
X015181Y010804D01*
Y010975D01*
X015266Y01106D01*
X015692Y010548D02*
Y010207D01*
X015607D01*
X015266Y010548D01*
X015181D01*
X016692Y010714D02*
Y011055D01*
X016437D01*
X016522Y010885D01*
Y0108D01*
X016437Y010714D01*
X016266D01*
X016181Y0108D01*
Y01097D01*
X016266Y011055D01*
Y010544D02*
X016181Y010459D01*
Y010288D01*
X016266Y010203D01*
X016607D01*
X016692Y010288D01*
Y010459D01*
X016607Y010544D01*
X016522D01*
X016437Y010459D01*
Y010203D01*
X017692Y010714D02*
X017607Y010885D01*
X017437Y011055D01*
X017266D01*
X017181Y01097D01*
Y0108D01*
X017266Y010714D01*
X017351D01*
X017437Y0108D01*
Y011055D01*
X017181Y010544D02*
Y010373D01*
Y010459D01*
X017692D01*
X017607Y010544D01*
X018692Y010714D02*
X018607Y010885D01*
X018437Y011055D01*
X018266D01*
X018181Y01097D01*
Y0108D01*
X018266Y010714D01*
X018351D01*
X018437Y0108D01*
Y011055D01*
X018607Y010544D02*
X018692Y010459D01*
Y010288D01*
X018607Y010203D01*
X018522D01*
X018437Y010288D01*
Y010373D01*
Y010288D01*
X018351Y010203D01*
X018266D01*
X018181Y010288D01*
Y010459D01*
X018266Y010544D01*
X019692Y010714D02*
X019607Y010884D01*
X019437Y011055D01*
X019266D01*
X019181Y01097D01*
Y010799D01*
X019266Y010714D01*
X019351D01*
X019437Y010799D01*
Y011055D01*
X019692Y010202D02*
Y010543D01*
X019437D01*
X019522Y010373D01*
Y010287D01*
X019437Y010202D01*
X019266D01*
X019181Y010287D01*
Y010458D01*
X019266Y010543D01*
X020692Y010719D02*
X020607Y010889D01*
X020437Y01106D01*
X020266D01*
X020181Y010975D01*
Y010804D01*
X020266Y010719D01*
X020351D01*
X020437Y010804D01*
Y01106D01*
X020692Y010548D02*
Y010207D01*
X020607D01*
X020266Y010548D01*
X020181D01*
X021692Y010718D02*
X021607Y010889D01*
X021437Y011059D01*
X021266D01*
X021181Y010974D01*
Y010804D01*
X021266Y010718D01*
X021351D01*
X021437Y010804D01*
Y011059D01*
X021266Y010548D02*
X021181Y010462D01*
Y010292D01*
X021266Y010207D01*
X021607D01*
X021692Y010292D01*
Y010462D01*
X021607Y010548D01*
X021522D01*
X021437Y010462D01*
Y010207D01*
X022696Y011059D02*
Y010718D01*
X022611D01*
X02227Y011059D01*
X022185D01*
Y010547D02*
Y010377D01*
Y010462D01*
X022696D01*
X022611Y010547D01*
X023692Y011055D02*
Y010714D01*
X023607D01*
X023266Y011055D01*
X023181D01*
X023607Y010543D02*
X023692Y010458D01*
Y010287D01*
X023607Y010202D01*
X023522D01*
X023437Y010287D01*
Y010373D01*
Y010287D01*
X023351Y010202D01*
X023266D01*
X023181Y010287D01*
Y010458D01*
X023266Y010543D01*
X024606Y01106D02*
X024396D01*
X024291Y010955D01*
X024396Y01085D01*
X024606D01*
X024554Y010535D02*
X024606Y010588D01*
Y010693D01*
X024554Y010745D01*
X024344D01*
X024291Y010693D01*
Y010588D01*
X024344Y010535D01*
X024554Y01022D02*
X024606Y010273D01*
Y010378D01*
X024554Y01043D01*
X024344D01*
X024291Y010378D01*
Y010273D01*
X024344Y01022D01*
X025597Y010833D02*
X025649Y010886D01*
Y010991D01*
X025597Y011043D01*
X025387D01*
X025335Y010991D01*
Y010886D01*
X025387Y010833D01*
X025492D01*
Y010938D01*
X025335Y010728D02*
X025649D01*
X025335Y010519D01*
X025649D01*
Y010414D02*
X025335D01*
Y010256D01*
X025387Y010204D01*
X025597D01*
X025649Y010256D01*
Y010414D01*
X026703Y011058D02*
Y010717D01*
X026617D01*
X026276Y011058D01*
X026191D01*
X026703Y010546D02*
Y010205D01*
X026617D01*
X026276Y010546D01*
X026191D01*
X027703Y011057D02*
Y010716D01*
X027617D01*
X027276Y011057D01*
X027191D01*
X027276Y010545D02*
X027191Y01046D01*
Y01029D01*
X027276Y010204D01*
X027617D01*
X027703Y01029D01*
Y01046D01*
X027617Y010545D01*
X027532D01*
X027447Y01046D01*
Y010204D01*
X028617Y011057D02*
X028703Y010971D01*
Y010801D01*
X028617Y010715D01*
X028532D01*
X028447Y010801D01*
X028362Y010715D01*
X028276D01*
X028191Y010801D01*
Y010971D01*
X028276Y011057D01*
X028362D01*
X028447Y010971D01*
X028532Y011057D01*
X028617D01*
X028447Y010971D02*
Y010801D01*
X028191Y010545D02*
Y010374D01*
Y01046D01*
X028703D01*
X028617Y010545D01*
X029617Y011054D02*
X029703Y010969D01*
Y010798D01*
X029617Y010713D01*
X029532D01*
X029447Y010798D01*
X029362Y010713D01*
X029276D01*
X029191Y010798D01*
Y010969D01*
X029276Y011054D01*
X029362D01*
X029447Y010969D01*
X029532Y011054D01*
X029617D01*
X029447Y010969D02*
Y010798D01*
X029617Y010543D02*
X029703Y010457D01*
Y010287D01*
X029617Y010202D01*
X029532D01*
X029447Y010287D01*
Y010372D01*
Y010287D01*
X029362Y010202D01*
X029276D01*
X029191Y010287D01*
Y010457D01*
X029276Y010543D01*
X030617Y011056D02*
X030703Y010971D01*
Y0108D01*
X030617Y010715D01*
X030532D01*
X030447Y0108D01*
X030362Y010715D01*
X030276D01*
X030191Y0108D01*
Y010971D01*
X030276Y011056D01*
X030362D01*
X030447Y010971D01*
X030532Y011056D01*
X030617D01*
X030447Y010971D02*
Y0108D01*
X030703Y010203D02*
Y010544D01*
X030447D01*
X030532Y010374D01*
Y010289D01*
X030447Y010203D01*
X030276D01*
X030191Y010289D01*
Y010459D01*
X030276Y010544D01*
X031617Y011055D02*
X031703Y01097D01*
Y0108D01*
X031617Y010714D01*
X031532D01*
X031447Y0108D01*
X031362Y010714D01*
X031276D01*
X031191Y0108D01*
Y01097D01*
X031276Y011055D01*
X031362D01*
X031447Y01097D01*
X031532Y011055D01*
X031617D01*
X031447Y01097D02*
Y0108D01*
X031703Y010544D02*
Y010203D01*
X031617D01*
X031276Y010544D01*
X031191D01*
X032617Y011055D02*
X032703Y01097D01*
Y010799D01*
X032617Y010714D01*
X032532D01*
X032447Y010799D01*
X032362Y010714D01*
X032276D01*
X032191Y010799D01*
Y01097D01*
X032276Y011055D01*
X032362D01*
X032447Y01097D01*
X032532Y011055D01*
X032617D01*
X032447Y01097D02*
Y010799D01*
X032276Y010543D02*
X032191Y010458D01*
Y010287D01*
X032276Y010202D01*
X032617D01*
X032703Y010287D01*
Y010458D01*
X032617Y010543D01*
X032532D01*
X032447Y010458D01*
Y010202D01*
X033282Y011054D02*
X033197Y010969D01*
Y010798D01*
X033282Y010713D01*
X033623D01*
X033709Y010798D01*
Y010969D01*
X033623Y011054D01*
X033538D01*
X033453Y010969D01*
Y010713D01*
X033197Y010543D02*
Y010372D01*
Y010457D01*
X033709D01*
X033623Y010543D01*
X034276Y011054D02*
X034191Y010969D01*
Y010798D01*
X034276Y010713D01*
X034617D01*
X034703Y010798D01*
Y010969D01*
X034617Y011054D01*
X034532D01*
X034447Y010969D01*
Y010713D01*
X034617Y010543D02*
X034703Y010457D01*
Y010287D01*
X034617Y010202D01*
X034532D01*
X034447Y010287D01*
Y010372D01*
Y010287D01*
X034362Y010202D01*
X034276D01*
X034191Y010287D01*
Y010457D01*
X034276Y010543D01*
X035276Y011054D02*
X035191Y010969D01*
Y010798D01*
X035276Y010713D01*
X035617D01*
X035703Y010798D01*
Y010969D01*
X035617Y011054D01*
X035532D01*
X035447Y010969D01*
Y010713D01*
X035703Y010202D02*
Y010543D01*
X035447D01*
X035532Y010372D01*
Y010287D01*
X035447Y010202D01*
X035276D01*
X035191Y010287D01*
Y010457D01*
X035276Y010543D01*
X036276Y011054D02*
X036191Y010969D01*
Y010798D01*
X036276Y010713D01*
X036617D01*
X036703Y010798D01*
Y010969D01*
X036617Y011054D01*
X036532D01*
X036447Y010969D01*
Y010713D01*
X036703Y010543D02*
Y010202D01*
X036617D01*
X036276Y010543D01*
X036191D01*
X037276Y011054D02*
X037191Y010968D01*
Y010798D01*
X037276Y010713D01*
X037617D01*
X037703Y010798D01*
Y010968D01*
X037617Y011054D01*
X037532D01*
X037447Y010968D01*
Y010713D01*
X037276Y010542D02*
X037191Y010457D01*
Y010286D01*
X037276Y010201D01*
X037617D01*
X037703Y010286D01*
Y010457D01*
X037617Y010542D01*
X037532D01*
X037447Y010457D01*
Y010201D01*
X012776Y013793D02*
Y014134D01*
X01252D01*
X012605Y013963D01*
Y013878D01*
X01252Y013793D01*
X012349D01*
X012264Y013878D01*
Y014049D01*
X012349Y014134D01*
X012264Y013281D02*
Y013622D01*
X012605Y013281D01*
X01269D01*
X012776Y013366D01*
Y013537D01*
X01269Y013622D01*
X013732Y013793D02*
Y014134D01*
X013476D01*
X013561Y013963D01*
Y013878D01*
X013476Y013793D01*
X013306D01*
X01322Y013878D01*
Y014049D01*
X013306Y014134D01*
X01322Y013366D02*
X013732D01*
X013476Y013622D01*
Y013281D01*
X014732Y013793D02*
Y014134D01*
X014476D01*
X014561Y013963D01*
Y013878D01*
X014476Y013793D01*
X014306D01*
X01422Y013878D01*
Y014049D01*
X014306Y014134D01*
X014732Y013281D02*
X014647Y013452D01*
X014476Y013622D01*
X014306D01*
X01422Y013537D01*
Y013366D01*
X014306Y013281D01*
X014391D01*
X014476Y013366D01*
Y013622D01*
X015732Y013793D02*
Y014134D01*
X015476D01*
X015561Y013963D01*
Y013878D01*
X015476Y013793D01*
X015306D01*
X01522Y013878D01*
Y014049D01*
X015306Y014134D01*
X015647Y013622D02*
X015732Y013537D01*
Y013366D01*
X015647Y013281D01*
X015561D01*
X015476Y013366D01*
X015391Y013281D01*
X015306D01*
X01522Y013366D01*
Y013537D01*
X015306Y013622D01*
X015391D01*
X015476Y013537D01*
X015561Y013622D01*
X015647D01*
X015476Y013537D02*
Y013366D01*
X016732Y013793D02*
X016647Y013963D01*
X016476Y014134D01*
X016306D01*
X01622Y014049D01*
Y013878D01*
X016306Y013793D01*
X016391D01*
X016476Y013878D01*
Y014134D01*
X016647Y013622D02*
X016732Y013537D01*
Y013366D01*
X016647Y013281D01*
X016306D01*
X01622Y013366D01*
Y013537D01*
X016306Y013622D01*
X016647D01*
X017732Y013793D02*
X017647Y013963D01*
X017476Y014134D01*
X017306D01*
X01722Y014049D01*
Y013878D01*
X017306Y013793D01*
X017391D01*
X017476Y013878D01*
Y014134D01*
X01722Y013281D02*
Y013622D01*
X017561Y013281D01*
X017647D01*
X017732Y013366D01*
Y013537D01*
X017647Y013622D01*
X018732Y013793D02*
X018647Y013963D01*
X018476Y014134D01*
X018306D01*
X01822Y014049D01*
Y013878D01*
X018306Y013793D01*
X018391D01*
X018476Y013878D01*
Y014134D01*
X01822Y013366D02*
X018732D01*
X018476Y013622D01*
Y013281D01*
X019732Y013793D02*
X019647Y013963D01*
X019476Y014134D01*
X019306D01*
X01922Y014049D01*
Y013878D01*
X019306Y013793D01*
X019391D01*
X019476Y013878D01*
Y014134D01*
X019732Y013281D02*
X019647Y013452D01*
X019476Y013622D01*
X019306D01*
X01922Y013537D01*
Y013366D01*
X019306Y013281D01*
X019391D01*
X019476Y013366D01*
Y013622D01*
X020732Y013793D02*
X020647Y013963D01*
X020476Y014134D01*
X020306D01*
X02022Y014049D01*
Y013878D01*
X020306Y013793D01*
X020391D01*
X020476Y013878D01*
Y014134D01*
X020647Y013622D02*
X020732Y013537D01*
Y013366D01*
X020647Y013281D01*
X020561D01*
X020476Y013366D01*
X020391Y013281D01*
X020306D01*
X02022Y013366D01*
Y013537D01*
X020306Y013622D01*
X020391D01*
X020476Y013537D01*
X020561Y013622D01*
X020647D01*
X020476Y013537D02*
Y013366D01*
X021732Y014134D02*
Y013793D01*
X021647D01*
X021306Y014134D01*
X02122D01*
X021647Y013622D02*
X021732Y013537D01*
Y013366D01*
X021647Y013281D01*
X021306D01*
X02122Y013366D01*
Y013537D01*
X021306Y013622D01*
X021647D01*
X022732Y014134D02*
Y013793D01*
X022647D01*
X022306Y014134D01*
X02222D01*
Y013281D02*
Y013622D01*
X022561Y013281D01*
X022647D01*
X022732Y013366D01*
Y013537D01*
X022647Y013622D01*
X023579Y013904D02*
X023632Y013957D01*
Y014062D01*
X023579Y014114D01*
X023369D01*
X023317Y014062D01*
Y013957D01*
X023369Y013904D01*
X023474D01*
Y014009D01*
X023317Y013799D02*
X023632D01*
X023317Y013589D01*
X023632D01*
Y013484D02*
X023317D01*
Y013327D01*
X023369Y013275D01*
X023579D01*
X023632Y013327D01*
Y013484D01*
X024606Y014134D02*
X024396D01*
X024291Y014029D01*
X024396Y013924D01*
X024606D01*
X024554Y013609D02*
X024606Y013662D01*
Y013767D01*
X024554Y013819D01*
X024344D01*
X024291Y013767D01*
Y013662D01*
X024344Y013609D01*
X024554Y013294D02*
X024606Y013347D01*
Y013452D01*
X024554Y013504D01*
X024344D01*
X024291Y013452D01*
Y013347D01*
X024344Y013294D01*
X025742Y014134D02*
Y013793D01*
X025657D01*
X025316Y014134D01*
X025231D01*
X025742Y013281D02*
X025657Y013452D01*
X025486Y013622D01*
X025316D01*
X025231Y013537D01*
Y013366D01*
X025316Y013281D01*
X025401D01*
X025486Y013366D01*
Y013622D01*
X026742Y014134D02*
Y013793D01*
X026657D01*
X026316Y014134D01*
X02623D01*
X026657Y013622D02*
X026742Y013537D01*
Y013366D01*
X026657Y013281D01*
X026572D01*
X026486Y013366D01*
X026401Y013281D01*
X026316D01*
X02623Y013366D01*
Y013537D01*
X026316Y013622D01*
X026401D01*
X026486Y013537D01*
X026572Y013622D01*
X026657D01*
X026486Y013537D02*
Y013366D01*
X027657Y014134D02*
X027742Y014049D01*
Y013878D01*
X027657Y013793D01*
X027572D01*
X027486Y013878D01*
X027401Y013793D01*
X027316D01*
X02723Y013878D01*
Y014049D01*
X027316Y014134D01*
X027401D01*
X027486Y014049D01*
X027572Y014134D01*
X027657D01*
X027486Y014049D02*
Y013878D01*
X027657Y013622D02*
X027742Y013537D01*
Y013366D01*
X027657Y013281D01*
X027316D01*
X02723Y013366D01*
Y013537D01*
X027316Y013622D01*
X027657D01*
X028657Y014134D02*
X028742Y014049D01*
Y013878D01*
X028657Y013793D01*
X028572D01*
X028486Y013878D01*
X028401Y013793D01*
X028316D01*
X02823Y013878D01*
Y014049D01*
X028316Y014134D01*
X028401D01*
X028486Y014049D01*
X028572Y014134D01*
X028657D01*
X028486Y014049D02*
Y013878D01*
X02823Y013281D02*
Y013622D01*
X028572Y013281D01*
X028657D01*
X028742Y013366D01*
Y013537D01*
X028657Y013622D01*
X029657Y014134D02*
X029742Y014049D01*
Y013878D01*
X029657Y013793D01*
X029572D01*
X029486Y013878D01*
X029401Y013793D01*
X029316D01*
X02923Y013878D01*
Y014049D01*
X029316Y014134D01*
X029401D01*
X029486Y014049D01*
X029572Y014134D01*
X029657D01*
X029486Y014049D02*
Y013878D01*
X02923Y013366D02*
X029742D01*
X029486Y013622D01*
Y013281D01*
X030657Y014134D02*
X030742Y014049D01*
Y013878D01*
X030657Y013793D01*
X030572D01*
X030486Y013878D01*
X030401Y013793D01*
X030316D01*
X03023Y013878D01*
Y014049D01*
X030316Y014134D01*
X030401D01*
X030486Y014049D01*
X030572Y014134D01*
X030657D01*
X030486Y014049D02*
Y013878D01*
X030742Y013281D02*
X030657Y013452D01*
X030486Y013622D01*
X030316D01*
X03023Y013537D01*
Y013366D01*
X030316Y013281D01*
X030401D01*
X030486Y013366D01*
Y013622D01*
X031657Y014134D02*
X031742Y014049D01*
Y013878D01*
X031657Y013793D01*
X031572D01*
X031486Y013878D01*
X031401Y013793D01*
X031316D01*
X03123Y013878D01*
Y014049D01*
X031316Y014134D01*
X031401D01*
X031486Y014049D01*
X031572Y014134D01*
X031657D01*
X031486Y014049D02*
Y013878D01*
X031657Y013622D02*
X031742Y013537D01*
Y013366D01*
X031657Y013281D01*
X031572D01*
X031486Y013366D01*
X031401Y013281D01*
X031316D01*
X03123Y013366D01*
Y013537D01*
X031316Y013622D01*
X031401D01*
X031486Y013537D01*
X031572Y013622D01*
X031657D01*
X031486Y013537D02*
Y013366D01*
X032316Y014134D02*
X03223Y014049D01*
Y013878D01*
X032316Y013793D01*
X032657D01*
X032742Y013878D01*
Y014049D01*
X032657Y014134D01*
X032572D01*
X032486Y014049D01*
Y013793D01*
X032657Y013622D02*
X032742Y013537D01*
Y013366D01*
X032657Y013281D01*
X032316D01*
X03223Y013366D01*
Y013537D01*
X032316Y013622D01*
X032657D01*
X033316Y014134D02*
X03323Y014049D01*
Y013878D01*
X033316Y013793D01*
X033657D01*
X033742Y013878D01*
Y014049D01*
X033657Y014134D01*
X033572D01*
X033486Y014049D01*
Y013793D01*
X03323Y013281D02*
Y013622D01*
X033572Y013281D01*
X033657D01*
X033742Y013366D01*
Y013537D01*
X033657Y013622D01*
X034316Y014134D02*
X03423Y014049D01*
Y013878D01*
X034316Y013793D01*
X034657D01*
X034742Y013878D01*
Y014049D01*
X034657Y014134D01*
X034572D01*
X034486Y014049D01*
Y013793D01*
X03423Y013366D02*
X034742D01*
X034486Y013622D01*
Y013281D01*
X035316Y014134D02*
X03523Y014049D01*
Y013878D01*
X035316Y013793D01*
X035657D01*
X035742Y013878D01*
Y014049D01*
X035657Y014134D01*
X035572D01*
X035486Y014049D01*
Y013793D01*
X035742Y013281D02*
X035657Y013452D01*
X035486Y013622D01*
X035316D01*
X03523Y013537D01*
Y013366D01*
X035316Y013281D01*
X035401D01*
X035486Y013366D01*
Y013622D01*
X036316Y014134D02*
X03623Y014049D01*
Y013878D01*
X036316Y013793D01*
X036657D01*
X036742Y013878D01*
Y014049D01*
X036657Y014134D01*
X036571D01*
X036486Y014049D01*
Y013793D01*
X036657Y013622D02*
X036742Y013537D01*
Y013366D01*
X036657Y013281D01*
X036571D01*
X036486Y013366D01*
X036401Y013281D01*
X036316D01*
X03623Y013366D01*
Y013537D01*
X036316Y013622D01*
X036401D01*
X036486Y013537D01*
X036571Y013622D01*
X036657D01*
X036486Y013537D02*
Y013366D01*
X037559Y014134D02*
X037349D01*
X037244Y014029D01*
X037349Y013924D01*
X037559D01*
X037506Y013609D02*
X037559Y013662D01*
Y013767D01*
X037506Y013819D01*
X037297D01*
X037244Y013767D01*
Y013662D01*
X037297Y013609D01*
X037506Y013294D02*
X037559Y013347D01*
Y013452D01*
X037506Y013504D01*
X037297D01*
X037244Y013452D01*
Y013347D01*
X037297Y013294D01*
X024212Y030076D02*
Y030417D01*
X024553Y030076D01*
X024639D01*
X024724Y030161D01*
Y030331D01*
X024639Y030417D01*
X024724Y029564D02*
X024639Y029735D01*
X024468Y029905D01*
X024298D01*
X024212Y02982D01*
Y029649D01*
X024298Y029564D01*
X024383D01*
X024468Y029649D01*
Y029905D01*
X012556Y030403D02*
X012346D01*
X012241Y030299D01*
X012346Y030194D01*
X012556D01*
X012504Y029879D02*
X012556Y029931D01*
Y030036D01*
X012504Y030089D01*
X012294D01*
X012241Y030036D01*
Y029931D01*
X012294Y029879D01*
X012504Y029564D02*
X012556Y029616D01*
Y029721D01*
X012504Y029774D01*
X012294D01*
X012241Y029721D01*
Y029616D01*
X012294Y029564D01*
X013241Y030148D02*
X013753D01*
X013497Y030403D01*
Y030062D01*
X013668Y029892D02*
X013753Y029807D01*
Y029636D01*
X013668Y029551D01*
X013582D01*
X013497Y029636D01*
X013412Y029551D01*
X013327D01*
X013241Y029636D01*
Y029807D01*
X013327Y029892D01*
X013412D01*
X013497Y029807D01*
X013582Y029892D01*
X013668D01*
X013497Y029807D02*
Y029636D01*
X014206Y030148D02*
X014717D01*
X014462Y030403D01*
Y030062D01*
X014717Y029551D02*
X014632Y029721D01*
X014462Y029892D01*
X014291D01*
X014206Y029807D01*
Y029636D01*
X014291Y029551D01*
X014376D01*
X014462Y029636D01*
Y029892D01*
X015241Y030148D02*
X015753D01*
X015497Y030403D01*
Y030062D01*
X015241Y029636D02*
X015753D01*
X015497Y029892D01*
Y029551D01*
X016241Y030148D02*
X016753D01*
X016497Y030403D01*
Y030062D01*
X016241Y029551D02*
Y029892D01*
X016582Y029551D01*
X016667D01*
X016753Y029636D01*
Y029807D01*
X016667Y029892D01*
X017241Y030147D02*
X017753D01*
X017497Y030403D01*
Y030062D01*
X017667Y029891D02*
X017753Y029806D01*
Y029635D01*
X017667Y02955D01*
X017326D01*
X017241Y029635D01*
Y029806D01*
X017326Y029891D01*
X017667D01*
X018668Y030403D02*
X018753Y030318D01*
Y030147D01*
X018668Y030062D01*
X018582D01*
X018497Y030147D01*
Y030232D01*
Y030147D01*
X018412Y030062D01*
X018326D01*
X018241Y030147D01*
Y030318D01*
X018326Y030403D01*
X018668Y029891D02*
X018753Y029806D01*
Y029635D01*
X018668Y02955D01*
X018582D01*
X018497Y029635D01*
X018412Y02955D01*
X018326D01*
X018241Y029635D01*
Y029806D01*
X018326Y029891D01*
X018412D01*
X018497Y029806D01*
X018582Y029891D01*
X018668D01*
X018497Y029806D02*
Y029635D01*
X019668Y030403D02*
X019753Y030318D01*
Y030147D01*
X019668Y030062D01*
X019582D01*
X019497Y030147D01*
Y030232D01*
Y030147D01*
X019412Y030062D01*
X019326D01*
X019241Y030147D01*
Y030318D01*
X019326Y030403D01*
X019753Y02955D02*
X019668Y029721D01*
X019497Y029891D01*
X019326D01*
X019241Y029806D01*
Y029635D01*
X019326Y02955D01*
X019412D01*
X019497Y029635D01*
Y029891D01*
X020636Y030403D02*
X020721Y030318D01*
Y030147D01*
X020636Y030062D01*
X020551D01*
X020465Y030147D01*
Y030232D01*
Y030147D01*
X02038Y030062D01*
X020295D01*
X02021Y030147D01*
Y030318D01*
X020295Y030403D01*
X02021Y029635D02*
X020721D01*
X020465Y029891D01*
Y02955D01*
X021667Y030403D02*
X021753Y030318D01*
Y030148D01*
X021667Y030062D01*
X021582D01*
X021497Y030148D01*
Y030233D01*
Y030148D01*
X021412Y030062D01*
X021326D01*
X021241Y030148D01*
Y030318D01*
X021326Y030403D01*
X021241Y029551D02*
Y029892D01*
X021582Y029551D01*
X021667D01*
X021753Y029636D01*
Y029807D01*
X021667Y029892D01*
X022672Y030403D02*
X022757Y030318D01*
Y030147D01*
X022672Y030062D01*
X022586D01*
X022501Y030147D01*
Y030232D01*
Y030147D01*
X022416Y030062D01*
X02233D01*
X022245Y030147D01*
Y030318D01*
X02233Y030403D01*
X022672Y029891D02*
X022757Y029806D01*
Y029635D01*
X022672Y02955D01*
X02233D01*
X022245Y029635D01*
Y029806D01*
X02233Y029891D01*
X022672D01*
X023556Y030403D02*
X023346D01*
X023241Y030298D01*
X023346Y030193D01*
X023556D01*
X023504Y029878D02*
X023556Y029931D01*
Y030036D01*
X023504Y030088D01*
X023294D01*
X023241Y030036D01*
Y029931D01*
X023294Y029878D01*
X023504Y029563D02*
X023556Y029616D01*
Y029721D01*
X023504Y029773D01*
X023294D01*
X023241Y029721D01*
Y029616D01*
X023294Y029563D01*
X02562Y030404D02*
X02541D01*
X025305Y030299D01*
X02541Y030194D01*
X02562D01*
X025568Y029879D02*
X02562Y029931D01*
Y030036D01*
X025568Y030089D01*
X025358D01*
X025305Y030036D01*
Y029931D01*
X025358Y029879D01*
X025568Y029564D02*
X02562Y029616D01*
Y029721D01*
X025568Y029774D01*
X025358D01*
X025305Y029721D01*
Y029616D01*
X025358Y029564D01*
X026251Y030062D02*
Y030403D01*
X026593Y030062D01*
X026678D01*
X026763Y030147D01*
Y030318D01*
X026678Y030403D01*
X026251Y029635D02*
X026763D01*
X026507Y029891D01*
Y02955D01*
X027251Y030061D02*
Y030402D01*
X027592Y030061D01*
X027678D01*
X027763Y030147D01*
Y030317D01*
X027678Y030402D01*
X027251Y02955D02*
Y029891D01*
X027592Y02955D01*
X027678D01*
X027763Y029635D01*
Y029805D01*
X027678Y029891D01*
X028251Y030061D02*
Y030402D01*
X028592Y030061D01*
X028678D01*
X028763Y030147D01*
Y030317D01*
X028678Y030402D01*
Y029891D02*
X028763Y029805D01*
Y029635D01*
X028678Y02955D01*
X028337D01*
X028251Y029635D01*
Y029805D01*
X028337Y029891D01*
X028678D01*
X029251Y030402D02*
Y030232D01*
Y030317D01*
X029763D01*
X029678Y030402D01*
Y029976D02*
X029763Y029891D01*
Y02972D01*
X029678Y029635D01*
X029592D01*
X029507Y02972D01*
X029422Y029635D01*
X029337D01*
X029251Y02972D01*
Y029891D01*
X029337Y029976D01*
X029422D01*
X029507Y029891D01*
X029592Y029976D01*
X029678D01*
X029507Y029891D02*
Y02972D01*
X030251Y030402D02*
Y030232D01*
Y030317D01*
X030763D01*
X030678Y030402D01*
X030763Y029635D02*
X030678Y029805D01*
X030507Y029976D01*
X030337D01*
X030251Y029891D01*
Y02972D01*
X030337Y029635D01*
X030422D01*
X030507Y02972D01*
Y029976D01*
X031251Y030402D02*
Y030232D01*
Y030317D01*
X031763D01*
X031678Y030402D01*
X031251Y02972D02*
X031763D01*
X031507Y029976D01*
Y029635D01*
X032155Y030402D02*
Y030232D01*
Y030317D01*
X032667D01*
X032582Y030402D01*
X032155Y029635D02*
Y029976D01*
X032496Y029635D01*
X032582D01*
X032667Y02972D01*
Y029891D01*
X032582Y029976D01*
X033223Y030402D02*
Y030232D01*
Y030317D01*
X033735D01*
X03365Y030402D01*
Y029976D02*
X033735Y029891D01*
Y02972D01*
X03365Y029635D01*
X033309D01*
X033223Y02972D01*
Y029891D01*
X033309Y029976D01*
X03365D01*
X034611Y030402D02*
X034696Y030317D01*
Y030147D01*
X034611Y030061D01*
X03427D01*
X034184Y030147D01*
Y030317D01*
X03427Y030402D01*
X034611D01*
Y029891D02*
X034696Y029805D01*
Y029635D01*
X034611Y02955D01*
X034526D01*
X03444Y029635D01*
X034355Y02955D01*
X03427D01*
X034184Y029635D01*
Y029805D01*
X03427Y029891D01*
X034355D01*
X03444Y029805D01*
X034526Y029891D01*
X034611D01*
X03444Y029805D02*
Y029635D01*
X035664Y030417D02*
X035749Y030332D01*
Y030161D01*
X035664Y030076D01*
X035323D01*
X035238Y030161D01*
Y030332D01*
X035323Y030417D01*
X035664D01*
X035749Y029565D02*
X035664Y029735D01*
X035493Y029906D01*
X035323D01*
X035238Y02982D01*
Y02965D01*
X035323Y029565D01*
X035408D01*
X035493Y02965D01*
Y029906D01*
X036617Y030402D02*
X036703Y030317D01*
Y030147D01*
X036617Y030061D01*
X036276D01*
X036191Y030147D01*
Y030317D01*
X036276Y030402D01*
X036617D01*
X036191Y029635D02*
X036703D01*
X036447Y029891D01*
Y02955D01*
X012264Y033169D02*
X012776D01*
X01252Y033425D01*
Y033084D01*
X012349Y032914D02*
X012264Y032828D01*
Y032658D01*
X012349Y032572D01*
X01269D01*
X012776Y032658D01*
Y032828D01*
X01269Y032914D01*
X012605D01*
X01252Y032828D01*
Y032572D01*
X013218Y033169D02*
X01373D01*
X013474Y033425D01*
Y033084D01*
X01373Y032914D02*
Y032572D01*
X013645D01*
X013304Y032914D01*
X013218D01*
X014252Y033169D02*
X014764D01*
X014508Y033425D01*
Y033084D01*
X014764Y032572D02*
Y032914D01*
X014508D01*
X014593Y032743D01*
Y032658D01*
X014508Y032572D01*
X014337D01*
X014252Y032658D01*
Y032828D01*
X014337Y032914D01*
X015207Y033169D02*
X015719D01*
X015463Y033425D01*
Y033084D01*
X015633Y032914D02*
X015719Y032828D01*
Y032658D01*
X015633Y032572D01*
X015548D01*
X015463Y032658D01*
Y032743D01*
Y032658D01*
X015378Y032572D01*
X015292D01*
X015207Y032658D01*
Y032828D01*
X015292Y032914D01*
X016181Y033165D02*
X016693D01*
X016437Y033421D01*
Y03308D01*
X016181Y032909D02*
Y032739D01*
Y032824D01*
X016693D01*
X016607Y032909D01*
X017611Y033421D02*
X017697Y033336D01*
Y033165D01*
X017611Y03308D01*
X017526D01*
X017441Y033165D01*
Y033251D01*
Y033165D01*
X017356Y03308D01*
X01727D01*
X017185Y033165D01*
Y033336D01*
X01727Y033421D01*
Y032909D02*
X017185Y032824D01*
Y032654D01*
X01727Y032568D01*
X017611D01*
X017697Y032654D01*
Y032824D01*
X017611Y032909D01*
X017526D01*
X017441Y032824D01*
Y032568D01*
X018635Y033421D02*
X01872Y033336D01*
Y033165D01*
X018635Y03308D01*
X01855D01*
X018464Y033165D01*
Y033251D01*
Y033165D01*
X018379Y03308D01*
X018294D01*
X018209Y033165D01*
Y033336D01*
X018294Y033421D01*
X01872Y032909D02*
Y032568D01*
X018635D01*
X018294Y032909D01*
X018209D01*
X019609Y033425D02*
X019695Y03334D01*
Y033169D01*
X019609Y033084D01*
X019524D01*
X019439Y033169D01*
Y033255D01*
Y033169D01*
X019354Y033084D01*
X019268D01*
X019183Y033169D01*
Y03334D01*
X019268Y033425D01*
X019695Y032572D02*
Y032914D01*
X019439D01*
X019524Y032743D01*
Y032658D01*
X019439Y032572D01*
X019268D01*
X019183Y032658D01*
Y032828D01*
X019268Y032914D01*
X020663Y033421D02*
X020748Y033336D01*
Y033165D01*
X020663Y03308D01*
X020577D01*
X020492Y033165D01*
Y033251D01*
Y033165D01*
X020407Y03308D01*
X020321D01*
X020236Y033165D01*
Y033336D01*
X020321Y033421D01*
X020663Y032909D02*
X020748Y032824D01*
Y032654D01*
X020663Y032568D01*
X020577D01*
X020492Y032654D01*
Y032739D01*
Y032654D01*
X020407Y032568D01*
X020321D01*
X020236Y032654D01*
Y032824D01*
X020321Y032909D01*
X021647Y033421D02*
X021732Y033336D01*
Y033165D01*
X021647Y03308D01*
X021562D01*
X021476Y033165D01*
Y033251D01*
Y033165D01*
X021391Y03308D01*
X021306D01*
X02122Y033165D01*
Y033336D01*
X021306Y033421D01*
X02122Y032909D02*
Y032739D01*
Y032824D01*
X021732D01*
X021647Y032909D01*
X022205Y03308D02*
Y033421D01*
X022546Y03308D01*
X022631D01*
X022716Y033165D01*
Y033336D01*
X022631Y033421D01*
X02229Y032909D02*
X022205Y032824D01*
Y032654D01*
X02229Y032568D01*
X022631D01*
X022716Y032654D01*
Y032824D01*
X022631Y032909D01*
X022546D01*
X022461Y032824D01*
Y032568D01*
X023189Y03308D02*
Y033421D01*
X02353Y03308D01*
X023615D01*
X023701Y033165D01*
Y033336D01*
X023615Y033421D01*
X023701Y032909D02*
Y032568D01*
X023615D01*
X023274Y032909D01*
X023189D01*
X025205Y033084D02*
Y033425D01*
X025546Y033084D01*
X025632D01*
X025717Y033169D01*
Y03334D01*
X025632Y033425D01*
X025717Y032572D02*
Y032914D01*
X025461D01*
X025546Y032743D01*
Y032658D01*
X025461Y032572D01*
X02529D01*
X025205Y032658D01*
Y032828D01*
X02529Y032914D01*
X02623Y033084D02*
Y033425D01*
X026571Y033084D01*
X026657D01*
X026742Y033169D01*
Y03334D01*
X026657Y033425D01*
Y032914D02*
X026742Y032828D01*
Y032658D01*
X026657Y032572D01*
X026571D01*
X026486Y032658D01*
Y032743D01*
Y032658D01*
X026401Y032572D01*
X026316D01*
X02623Y032658D01*
Y032828D01*
X026316Y032914D01*
X027185Y033084D02*
Y033425D01*
X027526Y033084D01*
X027611D01*
X027697Y033169D01*
Y03334D01*
X027611Y033425D01*
X027185Y032914D02*
Y032743D01*
Y032828D01*
X027697D01*
X027611Y032914D01*
X028199Y033425D02*
Y033255D01*
Y03334D01*
X02871D01*
X028625Y033425D01*
X028284Y032999D02*
X028199Y032914D01*
Y032743D01*
X028284Y032658D01*
X028625D01*
X02871Y032743D01*
Y032914D01*
X028625Y032999D01*
X02854D01*
X028455Y032914D01*
Y032658D01*
X029203Y033421D02*
Y033251D01*
Y033336D01*
X029714D01*
X029629Y033421D01*
X029714Y032995D02*
Y032654D01*
X029629D01*
X029288Y032995D01*
X029203D01*
X030266Y033421D02*
Y033251D01*
Y033336D01*
X030777D01*
X030692Y033421D01*
X030777Y032654D02*
Y032995D01*
X030522D01*
X030607Y032824D01*
Y032739D01*
X030522Y032654D01*
X030351D01*
X030266Y032739D01*
Y032909D01*
X030351Y032995D01*
X03124Y033425D02*
Y033255D01*
Y03334D01*
X031752D01*
X031667Y033425D01*
Y032999D02*
X031752Y032914D01*
Y032743D01*
X031667Y032658D01*
X031581D01*
X031496Y032743D01*
Y032828D01*
Y032743D01*
X031411Y032658D01*
X031325D01*
X03124Y032743D01*
Y032914D01*
X031325Y032999D01*
X032264Y033421D02*
Y033251D01*
Y033336D01*
X032775D01*
X03269Y033421D01*
X032264Y032995D02*
Y032824D01*
Y032909D01*
X032775D01*
X03269Y032995D01*
X033625Y033421D02*
X03371Y033336D01*
Y033165D01*
X033625Y03308D01*
X033284D01*
X033199Y033165D01*
Y033336D01*
X033284Y033421D01*
X033625D01*
X033284Y032909D02*
X033199Y032824D01*
Y032654D01*
X033284Y032568D01*
X033625D01*
X03371Y032654D01*
Y032824D01*
X033625Y032909D01*
X03354D01*
X033455Y032824D01*
Y032568D01*
X034639Y033425D02*
X034724Y03334D01*
Y033169D01*
X034639Y033084D01*
X034298D01*
X034213Y033169D01*
Y03334D01*
X034298Y033425D01*
X034639D01*
X034724Y032914D02*
Y032572D01*
X034639D01*
X034298Y032914D01*
X034213D01*
X035597Y033421D02*
X035682Y033336D01*
Y033165D01*
X035597Y03308D01*
X035256D01*
X035171Y033165D01*
Y033336D01*
X035256Y033421D01*
X035597D01*
X035682Y032568D02*
Y032909D01*
X035427D01*
X035512Y032739D01*
Y032654D01*
X035427Y032568D01*
X035256D01*
X035171Y032654D01*
Y032824D01*
X035256Y032909D01*
X036657Y033425D02*
X036742Y03334D01*
Y033169D01*
X036657Y033084D01*
X036316D01*
X03623Y033169D01*
Y03334D01*
X036316Y033425D01*
X036657D01*
Y032914D02*
X036742Y032828D01*
Y032658D01*
X036657Y032572D01*
X036571D01*
X036486Y032658D01*
Y032743D01*
Y032658D01*
X036401Y032572D01*
X036316D01*
X03623Y032658D01*
Y032828D01*
X036316Y032914D01*
X03767Y030402D02*
X037756Y030317D01*
Y030146D01*
X03767Y030061D01*
X037329D01*
X037244Y030146D01*
Y030317D01*
X037329Y030402D01*
X03767D01*
X037244Y029549D02*
Y02989D01*
X037585Y029549D01*
X03767D01*
X037756Y029634D01*
Y029805D01*
X03767Y02989D01*
Y033366D02*
X037756Y033281D01*
Y03311D01*
X03767Y033025D01*
X037329D01*
X037244Y03311D01*
Y033281D01*
X037329Y033366D01*
X03767D01*
X037244Y032854D02*
Y032684D01*
Y032769D01*
X037756D01*
X03767Y032854D01*
D11*
X046201Y019488D02*
Y019213D01*
X046339D01*
X046384Y019259D01*
Y019442D01*
X046339Y019488D01*
X046201D01*
X046476Y019442D02*
X046522Y019488D01*
X046614D01*
X04666Y019442D01*
Y019396D01*
X046614Y01935D01*
X04666Y019304D01*
Y019259D01*
X046614Y019213D01*
X046522D01*
X046476Y019259D01*
Y019304D01*
X046522Y01935D01*
X046476Y019396D01*
Y019442D01*
X046522Y01935D02*
X046614D01*
X048251Y025552D02*
Y025257D01*
X04831Y025198D01*
X048428D01*
X048487Y025257D01*
Y025552D01*
X048841Y025493D02*
X048782Y025552D01*
X048664D01*
X048605Y025493D01*
Y025434D01*
X048664Y025375D01*
X048782D01*
X048841Y025316D01*
Y025257D01*
X048782Y025198D01*
X048664D01*
X048605Y025257D01*
X048959Y025552D02*
Y025198D01*
X049136D01*
X049195Y025257D01*
Y025316D01*
X049136Y025375D01*
X048959D01*
X049136D01*
X049195Y025434D01*
Y025493D01*
X049136Y025552D01*
X048959D01*
X036803Y027156D02*
Y027431D01*
X036941D01*
X036987Y027385D01*
Y027293D01*
X036941Y027247D01*
X036803D01*
X036895D02*
X036987Y027156D01*
X037262Y027431D02*
X03717Y027385D01*
X037078Y027293D01*
Y027201D01*
X037124Y027156D01*
X037216D01*
X037262Y027201D01*
Y027247D01*
X037216Y027293D01*
X037078D01*
X034807Y025416D02*
Y025599D01*
X034761Y025645D01*
X034669D01*
X034623Y025599D01*
Y025416D01*
X034669Y02537D01*
X034761D01*
X034715Y025462D02*
X034807Y02537D01*
X034761D02*
X034807Y025416D01*
X034898Y02537D02*
X03499D01*
X034944D01*
Y025645D01*
X034898Y025599D01*
X033778Y025933D02*
Y025657D01*
X033916D01*
X033962Y025703D01*
Y025887D01*
X033916Y025933D01*
X033778D01*
X034054Y025887D02*
X0341Y025933D01*
X034192D01*
X034237Y025887D01*
Y025841D01*
X034192Y025795D01*
X034146D01*
X034192D01*
X034237Y025749D01*
Y025703D01*
X034192Y025657D01*
X0341D01*
X034054Y025703D01*
X032245Y021073D02*
X032199Y021119D01*
Y021211D01*
X032245Y021257D01*
X032291D01*
X032337Y021211D01*
Y021165D01*
Y021211D01*
X032383Y021257D01*
X032429D01*
X032475Y021211D01*
Y021119D01*
X032429Y021073D01*
X032199Y021349D02*
X032383D01*
X032475Y021441D01*
X032383Y021532D01*
X032199D01*
X032337Y021624D02*
Y021808D01*
X032199Y0219D02*
X032475D01*
Y022037D01*
X032429Y022083D01*
X032383D01*
X032337Y022037D01*
Y0219D01*
Y022037D01*
X032291Y022083D01*
X032245D01*
X032199Y022037D01*
Y0219D01*
X032475Y022175D02*
X032291D01*
X032199Y022267D01*
X032291Y022359D01*
X032475D01*
X032337D01*
Y022175D01*
X032199Y022451D02*
Y022634D01*
Y022543D01*
X032475D01*
X032199Y022726D02*
Y02291D01*
Y022818D01*
X032475D01*
X032199Y023185D02*
Y023002D01*
X032475D01*
Y023185D01*
X032337Y023002D02*
Y023094D01*
X032475Y023277D02*
X032199D01*
Y023415D01*
X032245Y023461D01*
X032337D01*
X032383Y023415D01*
Y023277D01*
Y023369D02*
X032475Y023461D01*
X032199Y023553D02*
X032245D01*
X032337Y023645D01*
X032245Y023736D01*
X032199D01*
X032337Y023645D02*
X032475D01*
X039268Y020443D02*
X039176D01*
X039222D01*
Y020213D01*
X039176Y020167D01*
X039131D01*
X039085Y020213D01*
X03936Y020167D02*
X039452D01*
X039406D01*
Y020443D01*
X03936Y020397D01*
X039727Y020167D02*
Y020443D01*
X03959Y020305D01*
X039773D01*
X039255Y021415D02*
X039209Y021461D01*
X039117D01*
X039071Y021415D01*
Y021231D01*
X039117Y021185D01*
X039209D01*
X039255Y021231D01*
X039346Y021185D02*
X039438D01*
X039392D01*
Y021461D01*
X039346Y021415D01*
X039576D02*
X039622Y021461D01*
X039714D01*
X03976Y021415D01*
Y021369D01*
X039714Y021323D01*
X03976Y021277D01*
Y021231D01*
X039714Y021185D01*
X039622D01*
X039576Y021231D01*
Y021277D01*
X039622Y021323D01*
X039576Y021369D01*
Y021415D01*
X039622Y021323D02*
X039714D01*
X036739Y028691D02*
X036647D01*
X036693D01*
Y028461D01*
X036647Y028415D01*
X036601D01*
X036555Y028461D01*
X036831Y028415D02*
X036922D01*
X036877D01*
Y028691D01*
X036831Y028645D01*
X03706D02*
X037106Y028691D01*
X037198D01*
X037244Y028645D01*
Y028599D01*
X037198Y028553D01*
X037244Y028507D01*
Y028461D01*
X037198Y028415D01*
X037106D01*
X03706Y028461D01*
Y028507D01*
X037106Y028553D01*
X03706Y028599D01*
Y028645D01*
X037106Y028553D02*
X037198D01*
X029697Y019985D02*
Y019894D01*
Y019939D01*
X029926D01*
X029972Y019894D01*
Y019848D01*
X029926Y019802D01*
X029972Y020077D02*
Y020169D01*
Y020123D01*
X029697D01*
X029743Y020077D01*
Y020307D02*
X029697Y020353D01*
Y020445D01*
X029743Y02049D01*
X029789D01*
X029835Y020445D01*
Y020399D01*
Y020445D01*
X029881Y02049D01*
X029926D01*
X029972Y020445D01*
Y020353D01*
X029926Y020307D01*
X047786Y030754D02*
X04755D01*
Y030577D01*
X047668Y030636D01*
X047727D01*
X047786Y030577D01*
Y030459D01*
X047727Y0304D01*
X047609D01*
X04755Y030459D01*
X047905Y030754D02*
Y030518D01*
X048023Y0304D01*
X048141Y030518D01*
Y030754D01*
X048259Y030577D02*
X048495D01*
X048613Y030754D02*
Y0304D01*
X04879D01*
X048849Y030459D01*
Y030695D01*
X04879Y030754D01*
X048613D01*
X049203Y030695D02*
X049144Y030754D01*
X049026D01*
X048967Y030695D01*
Y030459D01*
X049026Y0304D01*
X049144D01*
X049203Y030459D01*
X047736Y018868D02*
Y018573D01*
X047795Y018514D01*
X047913D01*
X047972Y018573D01*
Y018868D01*
X04809Y018514D02*
Y01875D01*
X048209Y018868D01*
X048327Y01875D01*
Y018514D01*
Y018691D01*
X04809D01*
X048445Y018514D02*
Y018868D01*
X048622D01*
X048681Y018809D01*
Y018691D01*
X048622Y018632D01*
X048445D01*
X048563D02*
X048681Y018514D01*
X048799Y018868D02*
X049035D01*
X048917D01*
Y018514D01*
X049153D02*
X049271D01*
X049212D01*
Y018868D01*
X049153Y018809D01*
D12*
X042637Y031693D02*
Y031418D01*
X042775D01*
X04282Y031463D01*
Y031647D01*
X042775Y031693D01*
X042637D01*
X042912Y031418D02*
X043004D01*
X042958D01*
Y031693D01*
X042912Y031647D01*
X010394Y028809D02*
Y028533D01*
X010531D01*
X010577Y028579D01*
Y028625D01*
X010531Y028671D01*
X010394D01*
X010531D01*
X010577Y028717D01*
Y028763D01*
X010531Y028809D01*
X010394D01*
X010807D02*
X010715D01*
X010669Y028763D01*
Y028579D01*
X010715Y028533D01*
X010807D01*
X010853Y028579D01*
Y028763D01*
X010807Y028809D01*
X011082D02*
X010991D01*
X010945Y028763D01*
Y028579D01*
X010991Y028533D01*
X011082D01*
X011128Y028579D01*
Y028763D01*
X011082Y028809D01*
X01122D02*
X011404D01*
X011312D01*
Y028533D01*
X011496D02*
X011588D01*
X011542D01*
Y028809D01*
X011496Y028763D01*
X047448Y013028D02*
X047402Y012982D01*
Y01289D01*
X047448Y012844D01*
X047631D01*
X047677Y01289D01*
Y012982D01*
X047631Y013028D01*
X047677Y01312D02*
Y013212D01*
Y013166D01*
X047402D01*
X047448Y01312D01*
X047402Y01335D02*
Y013533D01*
X047448D01*
X047631Y01335D01*
X047677D01*
X038179Y014445D02*
X038133Y0144D01*
Y014308D01*
X038179Y014262D01*
X038363D01*
X038409Y014308D01*
Y0144D01*
X038363Y014445D01*
X038133Y014537D02*
X038409D01*
X038271D01*
Y014721D01*
X038133D01*
X038409D01*
X038179Y014813D02*
X038133Y014859D01*
Y014951D01*
X038179Y014996D01*
X038225D01*
X038271Y014951D01*
Y014905D01*
Y014951D01*
X038317Y014996D01*
X038363D01*
X038409Y014951D01*
Y014859D01*
X038363Y014813D01*
X038409Y015226D02*
X038133D01*
X038271Y015088D01*
Y015272D01*
X038179Y015364D02*
X038133Y01541D01*
Y015502D01*
X038179Y015547D01*
X038363D01*
X038409Y015502D01*
Y01541D01*
X038363Y015364D01*
X038179D01*
Y015823D02*
X038133Y015777D01*
Y015685D01*
X038179Y015639D01*
X038363D01*
X038409Y015685D01*
Y015777D01*
X038363Y015823D01*
X038271D01*
Y015731D01*
X039567Y025891D02*
Y026074D01*
X039705D01*
X039751Y026028D01*
Y025891D01*
X039843D02*
Y026166D01*
X039981D01*
X040026Y02612D01*
Y026028D01*
X039981Y025982D01*
X039843D01*
X039935D02*
X040026Y025891D01*
X040302Y026166D02*
X040118D01*
Y026028D01*
X04021D01*
X040118D01*
Y025891D01*
X040577D02*
X040394D01*
X040577Y026074D01*
Y02612D01*
X040532Y026166D01*
X04044D01*
X040394Y02612D01*
X040807Y025891D02*
Y026166D01*
X040669Y026028D01*
X040853D01*
X040945Y026166D02*
Y025891D01*
X041128D01*
X04122Y02612D02*
X041266Y026166D01*
X041358D01*
X041404Y02612D01*
Y025936D01*
X041358Y025891D01*
X041266D01*
X04122Y025936D01*
Y02612D01*
X041496Y025891D02*
X041588D01*
X041542D01*
Y026166D01*
X041496Y02612D01*
X039931Y027372D02*
Y027096D01*
X040069D01*
X040115Y027142D01*
Y027326D01*
X040069Y027372D01*
X039931D01*
X040207Y027096D02*
X040298D01*
X040253D01*
Y027372D01*
X040207Y027326D01*
X040436D02*
X040482Y027372D01*
X040574D01*
X04062Y027326D01*
Y027142D01*
X040574Y027096D01*
X040482D01*
X040436Y027142D01*
Y027326D01*
X039931Y028494D02*
Y028219D01*
X040069D01*
X040115Y028264D01*
Y028448D01*
X040069Y028494D01*
X039931D01*
X040207Y028264D02*
X040253Y028219D01*
X040344D01*
X04039Y028264D01*
Y028448D01*
X040344Y028494D01*
X040253D01*
X040207Y028448D01*
Y028402D01*
X040253Y028356D01*
X04039D01*
X042751Y027034D02*
X042705Y026988D01*
Y026896D01*
X042751Y02685D01*
X042934D01*
X04298Y026896D01*
Y026988D01*
X042934Y027034D01*
X04298Y027125D02*
Y027217D01*
Y027171D01*
X042705D01*
X042751Y027125D01*
X042705Y027539D02*
X042751Y027447D01*
X042843Y027355D01*
X042934D01*
X04298Y027401D01*
Y027493D01*
X042934Y027539D01*
X042888D01*
X042843Y027493D01*
Y027355D01*
X042751Y028036D02*
X042705Y02799D01*
Y027898D01*
X042751Y027852D01*
X042934D01*
X04298Y027898D01*
Y02799D01*
X042934Y028036D01*
X04298Y028128D02*
Y028219D01*
Y028173D01*
X042705D01*
X042751Y028128D01*
X042705Y028541D02*
Y028357D01*
X042843D01*
X042797Y028449D01*
Y028495D01*
X042843Y028541D01*
X042934D01*
X04298Y028495D01*
Y028403D01*
X042934Y028357D01*
X026274Y028772D02*
X026183D01*
X026229D01*
Y028542D01*
X026183Y028496D01*
X026137D01*
X026091Y028542D01*
X02655Y028496D02*
X026366D01*
X02655Y02868D01*
Y028726D01*
X026504Y028772D01*
X026412D01*
X026366Y028726D01*
X02678Y028496D02*
Y028772D01*
X026642Y028634D01*
X026825D01*
X014819Y015128D02*
X014728D01*
X014774D01*
Y014898D01*
X014728Y014852D01*
X014682D01*
X014636Y014898D01*
X015095Y014852D02*
X014911D01*
X015095Y015036D01*
Y015082D01*
X015049Y015128D01*
X014957D01*
X014911Y015082D01*
X015187D02*
X015233Y015128D01*
X015325D01*
X015371Y015082D01*
Y015036D01*
X015325Y01499D01*
X015279D01*
X015325D01*
X015371Y014944D01*
Y014898D01*
X015325Y014852D01*
X015233D01*
X015187Y014898D01*
X018934Y015033D02*
X018888Y015079D01*
X018796D01*
X01875Y015033D01*
Y014849D01*
X018796Y014803D01*
X018888D01*
X018934Y014849D01*
X019025Y014803D02*
X019117D01*
X019071D01*
Y015079D01*
X019025Y015033D01*
X019393Y014803D02*
Y015079D01*
X019255Y014941D01*
X019439D01*
X014321Y025383D02*
X014367Y025429D01*
Y025521D01*
X014321Y025567D01*
X014138D01*
X014092Y025521D01*
Y025429D01*
X014138Y025383D01*
X014092Y025291D02*
Y025199D01*
Y025245D01*
X014367D01*
X014321Y025291D01*
Y025061D02*
X014367Y025016D01*
Y024924D01*
X014321Y024878D01*
X014275D01*
X014229Y024924D01*
Y02497D01*
Y024924D01*
X014184Y024878D01*
X014138D01*
X014092Y024924D01*
Y025016D01*
X014138Y025061D01*
X014275Y028711D02*
X014184D01*
X014229D01*
Y028481D01*
X014184Y028435D01*
X014138D01*
X014092Y028481D01*
X014551Y028435D02*
X014367D01*
X014551Y028619D01*
Y028665D01*
X014505Y028711D01*
X014413D01*
X014367Y028665D01*
X014643D02*
X014689Y028711D01*
X01478D01*
X014826Y028665D01*
Y028481D01*
X01478Y028435D01*
X014689D01*
X014643Y028481D01*
Y028665D01*
X028658Y017571D02*
X028567D01*
X028613D01*
Y017342D01*
X028567Y017296D01*
X028521D01*
X028475Y017342D01*
X028934Y017296D02*
X02875D01*
X028934Y01748D01*
Y017526D01*
X028888Y017571D01*
X028796D01*
X02875Y017526D01*
X029026Y017296D02*
X029118D01*
X029072D01*
Y017571D01*
X029026Y017526D01*
X032845Y028855D02*
Y02913D01*
X032982D01*
X033028Y029084D01*
Y028992D01*
X032982Y028946D01*
X032845D01*
X032936D02*
X033028Y028855D01*
X03312D02*
X033212D01*
X033166D01*
Y02913D01*
X03312Y029084D01*
X033487Y028855D02*
Y02913D01*
X03335Y028992D01*
X033533D01*
X033687Y028852D02*
Y029128D01*
X033825D01*
X033871Y029082D01*
Y02899D01*
X033825Y028944D01*
X033687D01*
X033779D02*
X033871Y028852D01*
X033963D02*
X034055D01*
X034009D01*
Y029128D01*
X033963Y029082D01*
X034192D02*
X034238Y029128D01*
X03433D01*
X034376Y029082D01*
Y029036D01*
X03433Y02899D01*
X034284D01*
X03433D01*
X034376Y028944D01*
Y028898D01*
X03433Y028852D01*
X034238D01*
X034192Y028898D01*
X033073Y025863D02*
X033027Y025909D01*
X032935D01*
X032889Y025863D01*
Y025679D01*
X032935Y025633D01*
X033027D01*
X033073Y025679D01*
X033165Y025633D02*
X033256D01*
X03321D01*
Y025909D01*
X033165Y025863D01*
X033578Y025633D02*
X033394D01*
X033578Y025817D01*
Y025863D01*
X033532Y025909D01*
X03344D01*
X033394Y025863D01*
X031131Y016742D02*
X031177Y016788D01*
X031268D01*
X031314Y016742D01*
Y016696D01*
X031268Y01665D01*
X031314Y016604D01*
Y016559D01*
X031268Y016513D01*
X031177D01*
X031131Y016559D01*
Y016604D01*
X031177Y01665D01*
X031131Y016696D01*
Y016742D01*
X031177Y01665D02*
X031268D01*
X031406Y016513D02*
Y016788D01*
X031498Y016696D01*
X03159Y016788D01*
Y016513D01*
X031682Y016788D02*
Y016513D01*
Y01665D01*
X031865D01*
Y016788D01*
Y016513D01*
X031957Y016696D02*
X032141D01*
X031957Y016513D01*
X032141D01*
X030023Y016923D02*
X029977Y016968D01*
X029886D01*
X02984Y016923D01*
Y016739D01*
X029886Y016693D01*
X029977D01*
X030023Y016739D01*
X030115Y016693D02*
X030207D01*
X030161D01*
Y016968D01*
X030115Y016923D01*
X030345Y016693D02*
X030437D01*
X030391D01*
Y016968D01*
X030345Y016923D01*
X029962Y015341D02*
X029917Y015387D01*
X029825D01*
X029779Y015341D01*
Y015158D01*
X029825Y015112D01*
X029917D01*
X029962Y015158D01*
X030054Y015112D02*
X030146D01*
X0301D01*
Y015387D01*
X030054Y015341D01*
X030284D02*
X03033Y015387D01*
X030422D01*
X030468Y015341D01*
Y015158D01*
X030422Y015112D01*
X03033D01*
X030284Y015158D01*
Y015341D01*
X031349Y023465D02*
X031395D01*
X031487Y023557D01*
X031395Y023649D01*
X031349D01*
X031487Y023557D02*
X031624D01*
Y023924D02*
Y02374D01*
X031441Y023924D01*
X031395D01*
X031349Y023878D01*
Y023786D01*
X031395Y02374D01*
X02977Y022545D02*
X029724Y0225D01*
Y022408D01*
X02977Y022362D01*
X029954D01*
X03Y022408D01*
Y0225D01*
X029954Y022545D01*
Y022637D02*
X03Y022683D01*
Y022775D01*
X029954Y022821D01*
X02977D01*
X029724Y022775D01*
Y022683D01*
X02977Y022637D01*
X029816D01*
X029862Y022683D01*
Y022821D01*
X029785Y024249D02*
X029739Y024203D01*
Y024111D01*
X029785Y024065D01*
X029968D01*
X030014Y024111D01*
Y024203D01*
X029968Y024249D01*
X029785Y02434D02*
X029739Y024386D01*
Y024478D01*
X029785Y024524D01*
X029831D01*
X029877Y024478D01*
X029922Y024524D01*
X029968D01*
X030014Y024478D01*
Y024386D01*
X029968Y02434D01*
X029922D01*
X029877Y024386D01*
X029831Y02434D01*
X029785D01*
X029877Y024386D02*
Y024478D01*
X011801Y030463D02*
X011526D01*
Y0306D01*
X011572Y030646D01*
X011663D01*
X011709Y0306D01*
Y030463D01*
Y030554D02*
X011801Y030646D01*
Y030738D02*
Y03083D01*
Y030784D01*
X011526D01*
X011572Y030738D01*
X011801Y031151D02*
Y030968D01*
X011618Y031151D01*
X011572D01*
X011526Y031105D01*
Y031014D01*
X011572Y030968D01*
X011939Y014675D02*
Y014951D01*
X012077D01*
X012123Y014905D01*
Y014813D01*
X012077Y014767D01*
X011939D01*
X012031D02*
X012123Y014675D01*
X012214D02*
X012306D01*
X01226D01*
Y014951D01*
X012214Y014905D01*
X012444Y014675D02*
X012536D01*
X01249D01*
Y014951D01*
X012444Y014905D01*
X010394Y015148D02*
Y014872D01*
X010531D01*
X010577Y014918D01*
Y014964D01*
X010531Y01501D01*
X010394D01*
X010531D01*
X010577Y015056D01*
Y015102D01*
X010531Y015148D01*
X010394D01*
X010807D02*
X010715D01*
X010669Y015102D01*
Y014918D01*
X010715Y014872D01*
X010807D01*
X010853Y014918D01*
Y015102D01*
X010807Y015148D01*
X011082D02*
X010991D01*
X010945Y015102D01*
Y014918D01*
X010991Y014872D01*
X011082D01*
X011128Y014918D01*
Y015102D01*
X011082Y015148D01*
X01122D02*
X011404D01*
X011312D01*
Y014872D01*
X011496Y015102D02*
X011542Y015148D01*
X011633D01*
X011679Y015102D01*
Y014918D01*
X011633Y014872D01*
X011542D01*
X011496Y014918D01*
Y015102D01*
X036702Y016562D02*
X03661D01*
X036656D01*
Y016332D01*
X03661Y016286D01*
X036564D01*
X036518Y016332D01*
X036794Y016286D02*
X036886D01*
X03684D01*
Y016562D01*
X036794Y016516D01*
X037023D02*
X037069Y016562D01*
X037161D01*
X037207Y016516D01*
Y016332D01*
X037161Y016286D01*
X037069D01*
X037023Y016332D01*
Y016516D01*
X041437Y013107D02*
X041391Y013153D01*
X041299D01*
X041253Y013107D01*
Y013061D01*
X041299Y013015D01*
X041391D01*
X041437Y012969D01*
Y012923D01*
X041391Y012877D01*
X041299D01*
X041253Y012923D01*
X041529Y013153D02*
Y012877D01*
X04162Y012969D01*
X041712Y012877D01*
Y013153D01*
X041988Y012877D02*
X041804D01*
X041988Y013061D01*
Y013107D01*
X041942Y013153D01*
X04185D01*
X041804Y013107D01*
X0454Y013084D02*
X045354Y01313D01*
X045262D01*
X045217Y013084D01*
Y013038D01*
X045262Y012992D01*
X045354D01*
X0454Y012946D01*
Y0129D01*
X045354Y012854D01*
X045262D01*
X045217Y0129D01*
X045492Y01313D02*
Y012854D01*
X045584Y012946D01*
X045676Y012854D01*
Y01313D01*
X045768Y012854D02*
X045859D01*
X045813D01*
Y01313D01*
X045768Y013084D01*
X033622Y01815D02*
Y018425D01*
X03376D01*
X033806Y018379D01*
Y018287D01*
X03376Y018241D01*
X033622D01*
X033714D02*
X033806Y01815D01*
X033898D02*
X033989D01*
X033943D01*
Y018425D01*
X033898Y018379D01*
X034127D02*
X034173Y018425D01*
X034265D01*
X034311Y018379D01*
Y018196D01*
X034265Y01815D01*
X034173D01*
X034127Y018196D01*
Y018379D01*
X038356Y011361D02*
X038081D01*
Y011498D01*
X038127Y011544D01*
X038219D01*
X038264Y011498D01*
Y011361D01*
Y011453D02*
X038356Y011544D01*
X03831Y011636D02*
X038356Y011682D01*
Y011774D01*
X03831Y01182D01*
X038127D01*
X038081Y011774D01*
Y011682D01*
X038127Y011636D01*
X038173D01*
X038219Y011682D01*
Y01182D01*
X038346Y012215D02*
X038071D01*
Y012352D01*
X038117Y012398D01*
X038209D01*
X038255Y012352D01*
Y012215D01*
Y012306D02*
X038346Y012398D01*
X038117Y01249D02*
X038071Y012536D01*
Y012628D01*
X038117Y012674D01*
X038163D01*
X038209Y012628D01*
X038255Y012674D01*
X038301D01*
X038346Y012628D01*
Y012536D01*
X038301Y01249D01*
X038255D01*
X038209Y012536D01*
X038163Y01249D01*
X038117D01*
X038209Y012536D02*
Y012628D01*
X032748Y018111D02*
Y018387D01*
X032886D01*
X032932Y018341D01*
Y018249D01*
X032886Y018203D01*
X032748D01*
X03284D02*
X032932Y018111D01*
X033024Y018387D02*
X033207D01*
Y018341D01*
X033024Y018157D01*
Y018111D01*
X033793Y015285D02*
Y01501D01*
X033931D01*
X033977Y015056D01*
Y015239D01*
X033931Y015285D01*
X033793D01*
X034069D02*
X034252D01*
Y015239D01*
X034069Y015056D01*
Y01501D01*
X032766Y015285D02*
Y01501D01*
X032903D01*
X032949Y015056D01*
Y015239D01*
X032903Y015285D01*
X032766D01*
X033225D02*
X033133Y015239D01*
X033041Y015148D01*
Y015056D01*
X033087Y01501D01*
X033179D01*
X033225Y015056D01*
Y015102D01*
X033179Y015148D01*
X033041D01*
X038317Y018032D02*
X038409D01*
X038363D01*
Y018307D01*
X038317Y018261D01*
X03873Y018032D02*
X038547D01*
X03873Y018215D01*
Y018261D01*
X038684Y018307D01*
X038592D01*
X038547Y018261D01*
X038822Y018032D02*
Y018307D01*
X038914Y018215D01*
X039006Y018307D01*
Y018032D01*
X039098Y018307D02*
Y018032D01*
Y018169D01*
X039281D01*
Y018307D01*
Y018032D01*
X039373Y018215D02*
X039557D01*
X039373Y018032D01*
X039557D01*
X041735Y018424D02*
Y0187D01*
X041872D01*
X041918Y018654D01*
Y018562D01*
X041872Y018516D01*
X041735D01*
X041826D02*
X041918Y018424D01*
X042148D02*
Y0187D01*
X04201Y018562D01*
X042194D01*
X041741Y019194D02*
Y019469D01*
X041879D01*
X041925Y019423D01*
Y019332D01*
X041879Y019286D01*
X041741D01*
X041833D02*
X041925Y019194D01*
X0422Y019469D02*
X042016D01*
Y019332D01*
X042108Y019378D01*
X042154D01*
X0422Y019332D01*
Y01924D01*
X042154Y019194D01*
X042062D01*
X042016Y01924D01*
X0393Y018691D02*
Y018415D01*
X039438D01*
X039484Y018461D01*
Y018645D01*
X039438Y018691D01*
X0393D01*
X039713Y018415D02*
Y018691D01*
X039576Y018553D01*
X039759D01*
X039299Y019523D02*
Y019247D01*
X039437D01*
X039483Y019293D01*
Y019477D01*
X039437Y019523D01*
X039299D01*
X039758D02*
X039575D01*
Y019385D01*
X039667Y019431D01*
X039712D01*
X039758Y019385D01*
Y019293D01*
X039712Y019247D01*
X039621D01*
X039575Y019293D01*
X042142Y017375D02*
X042096Y017421D01*
X042005D01*
X041959Y017375D01*
Y017192D01*
X042005Y017146D01*
X042096D01*
X042142Y017192D01*
X042418Y017421D02*
X042326Y017375D01*
X042234Y017283D01*
Y017192D01*
X04228Y017146D01*
X042372D01*
X042418Y017192D01*
Y017237D01*
X042372Y017283D01*
X042234D01*
X038638Y017375D02*
X038592Y017421D01*
X038501D01*
X038455Y017375D01*
Y017192D01*
X038501Y017146D01*
X038592D01*
X038638Y017192D01*
X03873Y017421D02*
X038914D01*
Y017375D01*
X03873Y017192D01*
Y017146D01*
X047467Y01229D02*
X047421Y012244D01*
Y012152D01*
X047467Y012106D01*
X047651D01*
X047697Y012152D01*
Y012244D01*
X047651Y01229D01*
X047421Y012565D02*
Y012382D01*
X047559D01*
X047513Y012474D01*
Y01252D01*
X047559Y012565D01*
X047651D01*
X047697Y01252D01*
Y012428D01*
X047651Y012382D01*
X042162Y02197D02*
X041886D01*
Y022108D01*
X041932Y022154D01*
X042024D01*
X04207Y022108D01*
Y02197D01*
Y022062D02*
X042162Y022154D01*
X041932Y022246D02*
X041886Y022292D01*
Y022383D01*
X041932Y022429D01*
X041978D01*
X042024Y022383D01*
Y022337D01*
Y022383D01*
X04207Y022429D01*
X042116D01*
X042162Y022383D01*
Y022292D01*
X042116Y022246D01*
X042162Y021061D02*
X041886D01*
Y021199D01*
X041932Y021245D01*
X042024D01*
X04207Y021199D01*
Y021061D01*
Y021153D02*
X042162Y021245D01*
Y02152D02*
Y021337D01*
X041978Y02152D01*
X041932D01*
X041886Y021474D01*
Y021383D01*
X041932Y021337D01*
X040294Y031871D02*
Y032055D01*
X040386Y032146D01*
X040478Y032055D01*
Y031871D01*
Y032009D01*
X040294D01*
X04057Y031871D02*
Y032146D01*
X040662Y032055D01*
X040754Y032146D01*
Y031871D01*
X041029Y0321D02*
X040983Y032146D01*
X040891D01*
X040845Y0321D01*
Y032055D01*
X040891Y032009D01*
X040983D01*
X041029Y031963D01*
Y031917D01*
X040983Y031871D01*
X040891D01*
X040845Y031917D01*
X041121Y031871D02*
X041213D01*
X041167D01*
Y032146D01*
X041121Y0321D01*
X041351Y031871D02*
X041442D01*
X041396D01*
Y032146D01*
X041351Y0321D01*
X04158Y031871D02*
X041672D01*
X041626D01*
Y032146D01*
X04158Y0321D01*
X04181Y032146D02*
X041993D01*
Y0321D01*
X04181Y031917D01*
Y031871D01*
X042085Y032009D02*
X042269D01*
X042361Y0321D02*
X042407Y032146D01*
X042498D01*
X042544Y0321D01*
Y032055D01*
X042498Y032009D01*
X042453D01*
X042498D01*
X042544Y031963D01*
Y031917D01*
X042498Y031871D01*
X042407D01*
X042361Y031917D01*
X042636Y032146D02*
Y031963D01*
X042728Y031871D01*
X04282Y031963D01*
Y032146D01*
X042912Y0321D02*
X042958Y032146D01*
X04305D01*
X043095Y0321D01*
Y032055D01*
X04305Y032009D01*
X043004D01*
X04305D01*
X043095Y031963D01*
Y031917D01*
X04305Y031871D01*
X042958D01*
X042912Y031917D01*
X043642Y032697D02*
Y032972D01*
X043779D01*
X043825Y032926D01*
Y032835D01*
X043779Y032789D01*
X043642D01*
X043734D02*
X043825Y032697D01*
X043917D02*
X044009D01*
X043963D01*
Y032972D01*
X043917Y032926D01*
X044409Y032057D02*
Y032293D01*
X044528D01*
X044567Y032254D01*
Y032175D01*
X044528Y032136D01*
X044409D01*
X044764Y032293D02*
X044685D01*
X044646Y032254D01*
Y032096D01*
X044685Y032057D01*
X044764D01*
X044803Y032096D01*
Y032254D01*
X044764Y032293D01*
X044882D02*
Y032057D01*
X04496Y032136D01*
X045039Y032057D01*
Y032293D01*
X045275D02*
X045118D01*
Y032057D01*
X045275D01*
X045118Y032175D02*
X045197D01*
X045354Y032057D02*
Y032293D01*
X045472D01*
X045511Y032254D01*
Y032175D01*
X045472Y032136D01*
X045354D01*
X045433D02*
X045511Y032057D01*
X04559Y032018D02*
X045748D01*
X045984Y032254D02*
X045944Y032293D01*
X045866D01*
X045826Y032254D01*
Y032215D01*
X045866Y032175D01*
X045944D01*
X045984Y032136D01*
Y032096D01*
X045944Y032057D01*
X045866D01*
X045826Y032096D01*
X04622Y032293D02*
X046062D01*
Y032057D01*
X04622D01*
X046062Y032175D02*
X046141D01*
X046299Y032293D02*
Y032057D01*
X046456D01*
X046692Y032293D02*
X046535D01*
Y032057D01*
X046692D01*
X046535Y032175D02*
X046613D01*
X046928Y032254D02*
X046889Y032293D01*
X04681D01*
X046771Y032254D01*
Y032096D01*
X04681Y032057D01*
X046889D01*
X046928Y032096D01*
X047007Y032293D02*
X047164D01*
X047086D01*
Y032057D01*
X042776Y032923D02*
Y032648D01*
X042913D01*
X042959Y032694D01*
Y032877D01*
X042913Y032923D01*
X042776D01*
X043235Y032648D02*
X043051D01*
X043235Y032831D01*
Y032877D01*
X043189Y032923D01*
X043097D01*
X043051Y032877D01*
X03888Y03318D02*
X038834Y033226D01*
X038742D01*
X038697Y03318D01*
Y032996D01*
X038742Y03295D01*
X038834D01*
X03888Y032996D01*
X03911Y03295D02*
Y033226D01*
X038972Y033088D01*
X039156D01*
X03888Y032372D02*
X038834Y032418D01*
X038742D01*
X038697Y032372D01*
Y032188D01*
X038742Y032142D01*
X038834D01*
X03888Y032188D01*
X038972Y032372D02*
X039018Y032418D01*
X03911D01*
X039156Y032372D01*
Y032326D01*
X03911Y03228D01*
X039064D01*
X03911D01*
X039156Y032234D01*
Y032188D01*
X03911Y032142D01*
X039018D01*
X038972Y032188D01*
X03888Y031628D02*
X038834Y031674D01*
X038742D01*
X038697Y031628D01*
Y031444D01*
X038742Y031398D01*
X038834D01*
X03888Y031444D01*
X039156Y031398D02*
X038972D01*
X039156Y031582D01*
Y031628D01*
X03911Y031674D01*
X039018D01*
X038972Y031628D01*
X038963Y03078D02*
X038917Y030826D01*
X038825D01*
X03878Y03078D01*
Y030596D01*
X038825Y03055D01*
X038917D01*
X038963Y030596D01*
X039055Y03055D02*
X039147D01*
X039101D01*
Y030826D01*
X039055Y03078D01*
X011549Y012254D02*
X011457D01*
X011503D01*
Y012024D01*
X011457Y011978D01*
X011411D01*
X011365Y012024D01*
X011825Y011978D02*
X011641D01*
X011825Y012162D01*
Y012208D01*
X011779Y012254D01*
X011687D01*
X011641Y012208D01*
D13*
X029773Y025689D02*
X029183D01*
Y025984D01*
X029281Y026083D01*
X029478D01*
X029576Y025984D01*
Y025689D01*
Y025886D02*
X029773Y026083D01*
X029183Y026673D02*
Y026279D01*
X029773D01*
Y026673D01*
X029478Y026279D02*
Y026476D01*
X029281Y027263D02*
X029183Y027165D01*
Y026968D01*
X029281Y02687D01*
X02938D01*
X029478Y026968D01*
Y027165D01*
X029576Y027263D01*
X029675D01*
X029773Y027165D01*
Y026968D01*
X029675Y02687D01*
X029183Y027854D02*
Y02746D01*
X029773D01*
Y027854D01*
X029478Y02746D02*
Y027657D01*
X029183Y02805D02*
Y028444D01*
Y028247D01*
X029773D01*
D14*
X014183Y024258D02*
Y024415D01*
Y024336D01*
X013789D01*
X013711Y024415D01*
Y024494D01*
X013789Y024573D01*
X014183Y0241D02*
Y023785D01*
Y023943D01*
X013711D01*
Y023628D02*
X014025D01*
X014183Y023471D01*
X014025Y023313D01*
X013711D01*
X013947D01*
Y023628D01*
X014104Y022841D02*
X014183Y02292D01*
Y023077D01*
X014104Y023156D01*
X013789D01*
X013711Y023077D01*
Y02292D01*
X013789Y022841D01*
X013947D01*
Y022998D01*
X014183Y022211D02*
Y021896D01*
Y022054D01*
X013711D01*
X014183Y021503D02*
Y02166D01*
X014104Y021739D01*
X013789D01*
X013711Y02166D01*
Y021503D01*
X013789Y021424D01*
X014104D01*
X014183Y021503D01*
Y020794D02*
Y020479D01*
Y020637D01*
X013711D01*
Y020322D02*
X014025D01*
X014183Y020165D01*
X014025Y020007D01*
X013711D01*
X013947D01*
Y020322D01*
X013711Y01985D02*
X014183D01*
Y019614D01*
X014104Y019535D01*
X013947D01*
X013868Y019614D01*
Y01985D01*
Y019692D02*
X013711Y019535D01*
X014104Y019063D02*
X014183Y019141D01*
Y019299D01*
X014104Y019377D01*
X013789D01*
X013711Y019299D01*
Y019141D01*
X013789Y019063D01*
X013947D01*
Y01922D01*
X014183Y01859D02*
Y018905D01*
X013711D01*
Y01859D01*
X013947Y018905D02*
Y018748D01*
X014183Y018433D02*
Y018118D01*
Y018275D01*
X013711D01*
D15*
X028238Y01872D02*
Y018524D01*
X028337Y018425D01*
X02873D01*
X028829Y018524D01*
Y01872D01*
X02873Y018819D01*
X028337D01*
X028238Y01872D01*
Y019016D02*
Y019409D01*
Y019212D01*
X028829D01*
X02873Y02D02*
X028337D01*
X028238Y019901D01*
Y019704D01*
X028337Y019606D01*
X02873D01*
X028829Y019704D01*
Y019901D01*
X028632Y019803D02*
X028829Y02D01*
Y019901D02*
X02873Y02D01*
X028534Y020196D02*
Y02059D01*
X028829Y020787D02*
Y020983D01*
Y020885D01*
X028238D01*
X028337Y020787D01*
Y021279D02*
X028238Y021377D01*
Y021574D01*
X028337Y021672D01*
X02873D01*
X028829Y021574D01*
Y021377D01*
X02873Y021279D01*
X028337D01*
Y021869D02*
X028238Y021967D01*
Y022164D01*
X028337Y022263D01*
X02873D01*
X028829Y022164D01*
Y021967D01*
X02873Y021869D01*
X028337D01*
X028534Y022459D02*
Y022853D01*
X028337Y02305D02*
X028238Y023148D01*
Y023345D01*
X028337Y023443D01*
X02873D01*
X028829Y023345D01*
Y023148D01*
X02873Y02305D01*
X028337D01*
X028829Y02364D02*
X02873D01*
Y023738D01*
X028829D01*
Y02364D01*
X028238Y024526D02*
Y024132D01*
X028534D01*
X028435Y024329D01*
Y024427D01*
X028534Y024526D01*
X02873D01*
X028829Y024427D01*
Y02423D01*
X02873Y024132D01*
X028534Y024722D02*
Y025116D01*
X028829Y025313D02*
Y02551D01*
Y025411D01*
X028238D01*
X028337Y025313D01*
X028829Y026198D02*
Y025805D01*
X028435Y026198D01*
X028337D01*
X028238Y0261D01*
Y025903D01*
X028337Y025805D01*
D16*
X045179Y01938D02*
D03*
X043947Y031191D02*
D03*
D17*
X034026Y026457D02*
D03*
X043004Y033047D02*
D03*
X033006Y015827D02*
D03*
X033976Y015827D02*
D03*
D18*
X039163Y028282D02*
D03*
X039163Y027279D02*
D03*
D19*
X040335Y01937D02*
D03*
Y018543D02*
D03*
M02*
