G04*
G04 #@! TF.GenerationSoftware,Altium Limited,Altium Designer,19.1.7 (138)*
G04*
G04 Layer_Color=8421504*
%FSTAX24Y24*%
%MOIN*%
G70*
G01*
G75*
%ADD20R,0.0591X0.0591*%
%ADD21R,0.0315X0.0197*%
%ADD22R,0.0488X0.0236*%
G04:AMPARAMS|DCode=23|XSize=78.7mil|YSize=118.1mil|CornerRadius=19.7mil|HoleSize=0mil|Usage=FLASHONLY|Rotation=0.000|XOffset=0mil|YOffset=0mil|HoleType=Round|Shape=RoundedRectangle|*
%AMROUNDEDRECTD23*
21,1,0.0787,0.0787,0,0,0.0*
21,1,0.0394,0.1181,0,0,0.0*
1,1,0.0394,0.0197,-0.0394*
1,1,0.0394,-0.0197,-0.0394*
1,1,0.0394,-0.0197,0.0394*
1,1,0.0394,0.0197,0.0394*
%
%ADD23ROUNDEDRECTD23*%
%ADD24R,0.0315X0.0630*%
%ADD25R,0.0236X0.0488*%
%ADD26R,0.0591X0.0787*%
%ADD27R,0.0787X0.0591*%
%ADD28R,0.0197X0.0315*%
%ADD29R,0.0394X0.0630*%
%ADD30R,0.1181X0.0591*%
%ADD31R,0.0276X0.0394*%
D20*
X045632Y01938D02*
D03*
X043691D02*
D03*
X043494Y031191D02*
D03*
X045435D02*
D03*
D21*
X035069Y026053D02*
D03*
Y026801D02*
D03*
X036171Y026427D02*
D03*
D22*
X037008Y026043D02*
D03*
Y026831D02*
D03*
X034026Y027048D02*
D03*
Y02626D02*
D03*
X033169Y02626D02*
D03*
Y027047D02*
D03*
Y028504D02*
D03*
Y027717D02*
D03*
X034022Y0285D02*
D03*
Y027713D02*
D03*
X0438Y033237D02*
D03*
Y03245D02*
D03*
X043004Y033244D02*
D03*
Y032456D02*
D03*
X038677Y017691D02*
D03*
Y016904D02*
D03*
X033967Y017815D02*
D03*
Y017028D02*
D03*
X03301Y017811D02*
D03*
Y017024D02*
D03*
X033006Y01563D02*
D03*
Y016417D02*
D03*
X033976Y01563D02*
D03*
Y016417D02*
D03*
X030472Y022972D02*
D03*
Y022185D02*
D03*
X030473Y023858D02*
D03*
Y024646D02*
D03*
X0117Y013543D02*
D03*
Y014331D02*
D03*
X014873Y025567D02*
D03*
Y024779D02*
D03*
X0117Y030107D02*
D03*
Y029319D02*
D03*
X0422Y016898D02*
D03*
Y017685D02*
D03*
D23*
X035623Y019053D02*
D03*
Y025136D02*
D03*
D24*
X042264Y028278D02*
D03*
X041004D02*
D03*
X042264Y027274D02*
D03*
X041004D02*
D03*
D25*
X040925Y021279D02*
D03*
X040138D02*
D03*
X041565Y018543D02*
D03*
X042352D02*
D03*
X04803Y013147D02*
D03*
X048818D02*
D03*
X038553Y030669D02*
D03*
X03934D02*
D03*
X038556Y031486D02*
D03*
X039344D02*
D03*
X038563Y032287D02*
D03*
X03935D02*
D03*
X038556Y033086D02*
D03*
X039344D02*
D03*
X048818Y012402D02*
D03*
X04803D02*
D03*
X038677Y01245D02*
D03*
X039465D02*
D03*
X038677Y011572D02*
D03*
X039465D02*
D03*
X041563Y01937D02*
D03*
X04235D02*
D03*
X029715Y015846D02*
D03*
X030502D02*
D03*
X029714Y017401D02*
D03*
X030502D02*
D03*
X018417Y014964D02*
D03*
X017629D02*
D03*
X040925Y01937D02*
D03*
X040138D02*
D03*
X040925Y018543D02*
D03*
X040138D02*
D03*
X042421Y022196D02*
D03*
X041634D02*
D03*
X042421Y02128D02*
D03*
X041634D02*
D03*
D26*
X039672Y0173D02*
D03*
X041208D02*
D03*
D27*
X031624Y015845D02*
D03*
Y01738D02*
D03*
D28*
X042299Y016063D02*
D03*
X041799D02*
D03*
X041299D02*
D03*
X040799D02*
D03*
X040299D02*
D03*
X039799D02*
D03*
X039299D02*
D03*
X038799D02*
D03*
Y013937D02*
D03*
X039299D02*
D03*
X039799D02*
D03*
X040299D02*
D03*
X040799D02*
D03*
X041299D02*
D03*
X041799D02*
D03*
X042299D02*
D03*
D29*
X038051Y028278D02*
D03*
X039508D02*
D03*
X038051Y027274D02*
D03*
X039508D02*
D03*
D30*
X0412Y033079D02*
D03*
D31*
X042115Y030392D02*
D03*
X0412D02*
D03*
X040294Y030382D02*
D03*
M02*
