G04*
G04 #@! TF.GenerationSoftware,Altium Limited,Altium Designer,19.1.7 (138)*
G04*
G04 Layer_Physical_Order=2*
G04 Layer_Color=16711680*
%FSTAX24Y24*%
%MOIN*%
G70*
G01*
G75*
%ADD11C,0.0079*%
%ADD15C,0.0197*%
%ADD20R,0.0591X0.0591*%
G04:AMPARAMS|DCode=61|XSize=59.1mil|YSize=137.8mil|CornerRadius=14.8mil|HoleSize=0mil|Usage=FLASHONLY|Rotation=270.000|XOffset=0mil|YOffset=0mil|HoleType=Round|Shape=RoundedRectangle|*
%AMROUNDEDRECTD61*
21,1,0.0591,0.1083,0,0,270.0*
21,1,0.0295,0.1378,0,0,270.0*
1,1,0.0295,-0.0541,-0.0148*
1,1,0.0295,-0.0541,0.0148*
1,1,0.0295,0.0541,0.0148*
1,1,0.0295,0.0541,-0.0148*
%
%ADD61ROUNDEDRECTD61*%
%ADD62C,0.0591*%
%ADD63C,0.0394*%
%ADD64R,0.0394X0.0394*%
%ADD65R,0.0394X0.0394*%
G04:AMPARAMS|DCode=66|XSize=157.5mil|YSize=59.1mil|CornerRadius=14.8mil|HoleSize=0mil|Usage=FLASHONLY|Rotation=90.000|XOffset=0mil|YOffset=0mil|HoleType=Round|Shape=RoundedRectangle|*
%AMROUNDEDRECTD66*
21,1,0.1575,0.0295,0,0,90.0*
21,1,0.1280,0.0591,0,0,90.0*
1,1,0.0295,0.0148,0.0640*
1,1,0.0295,0.0148,-0.0640*
1,1,0.0295,-0.0148,-0.0640*
1,1,0.0295,-0.0148,0.0640*
%
%ADD66ROUNDEDRECTD66*%
G04:AMPARAMS|DCode=67|XSize=157.5mil|YSize=59.1mil|CornerRadius=14.8mil|HoleSize=0mil|Usage=FLASHONLY|Rotation=180.000|XOffset=0mil|YOffset=0mil|HoleType=Round|Shape=RoundedRectangle|*
%AMROUNDEDRECTD67*
21,1,0.1575,0.0295,0,0,180.0*
21,1,0.1280,0.0591,0,0,180.0*
1,1,0.0295,-0.0640,0.0148*
1,1,0.0295,0.0640,0.0148*
1,1,0.0295,0.0640,-0.0148*
1,1,0.0295,-0.0640,-0.0148*
%
%ADD67ROUNDEDRECTD67*%
%ADD68R,0.0591X0.0591*%
%ADD69O,0.0748X0.0591*%
%ADD70R,0.0748X0.0591*%
%ADD71O,0.0236X0.0315*%
%ADD72O,0.0591X0.0748*%
%ADD73R,0.0591X0.0748*%
%ADD74O,0.0472X0.0394*%
%ADD75R,0.0472X0.0394*%
%ADD76O,0.0394X0.0472*%
%ADD77C,0.0138*%
G36*
X027283Y018311D02*
D01*
D01*
D01*
D01*
D01*
D01*
D01*
D01*
D01*
D01*
Y018213D01*
D01*
Y018311D01*
D02*
G37*
D11*
X03523Y02749D02*
X035316D01*
X039803Y030994D02*
X041552D01*
X027303Y023611D02*
X027692D01*
X026516Y023414D02*
X026836D01*
X010633Y026339D02*
X011264D01*
X015478Y019477D02*
X016319D01*
X044226Y015546D02*
Y015561D01*
X015006Y020658D02*
X016319D01*
Y023611D02*
X016407Y023522D01*
X013697Y023611D02*
X016319D01*
X030256Y018494D02*
X038691D01*
X017563Y023681D02*
X018435D01*
X018593Y023839D01*
X017934Y023964D02*
X018222Y024252D01*
X018593D01*
X013413Y024478D02*
X01876D01*
X013356Y024616D02*
X018829D01*
X012867Y024127D02*
X013356Y024616D01*
X018829D02*
X018986Y024459D01*
Y016486D02*
Y024459D01*
X013Y024065D02*
X013413Y024478D01*
X01876D02*
X018848Y02439D01*
Y020302D02*
Y02439D01*
X018685Y020138D02*
X018848Y020302D01*
X017643Y020138D02*
X018685D01*
X028685Y028054D02*
X029928Y026811D01*
X028533Y028054D02*
X028685D01*
X028533Y027766D02*
X028779D01*
X029871Y026673D01*
X028533Y027431D02*
X028899D01*
X029795Y026535D01*
X029034Y027102D02*
X029738Y026398D01*
X028535Y027102D02*
X029034D01*
X029175Y026766D02*
X029681Y02626D01*
X028535Y026766D02*
X029175D01*
X029681Y02626D02*
X03076D01*
X029738Y026398D02*
X030817D01*
X029795Y026535D02*
X030874D01*
X029871Y026673D02*
X030931D01*
X029928Y026811D02*
X030989D01*
X031836Y022488D02*
X037403D01*
X037475Y022416D01*
X031893Y022626D02*
X037609D01*
X037746Y019744D02*
Y022488D01*
X037609Y022626D02*
X037746Y022488D01*
X037475Y019744D02*
Y022416D01*
X035591Y017195D02*
X037403D01*
X037475Y017267D01*
Y017972D01*
X030905Y023414D02*
X031789Y02253D01*
X031794D02*
X031836Y022488D01*
X031789Y02253D02*
X031794D01*
X035077Y016831D02*
X035152Y016905D01*
X034734Y016417D02*
X037662D01*
X037746Y016502D02*
Y017972D01*
X037662Y016417D02*
X037746Y016502D01*
X031043Y023476D02*
X031893Y022626D01*
X036974Y022763D02*
X038494Y024283D01*
X03195Y022763D02*
X036974D01*
X031181Y023533D02*
X03195Y022763D01*
X036917Y022901D02*
X03873Y024715D01*
X032007Y022901D02*
X036917D01*
X031318Y02359D02*
X032007Y022901D01*
X03686Y023039D02*
X038673Y024852D01*
X032064Y023039D02*
X03686D01*
X031456Y023647D02*
X032064Y023039D01*
X038494Y024283D02*
X039071D01*
X038673Y024852D02*
X04064D01*
X041071Y025283D01*
X031456Y023647D02*
Y026343D01*
X030989Y026811D02*
X031456Y026343D01*
X04064Y024715D02*
X041071Y024283D01*
X03873Y024715D02*
X04064D01*
X031318Y02359D02*
Y026286D01*
X030931Y026673D02*
X031318Y026286D01*
X030817Y026398D02*
X031043Y026172D01*
Y023476D02*
Y026172D01*
X03076Y02626D02*
X030905Y026115D01*
Y023414D02*
Y026115D01*
X031181Y023533D02*
Y026229D01*
X030874Y026535D02*
X031181Y026229D01*
X030494Y028922D02*
X031258D01*
X030404Y028248D02*
Y028831D01*
X030494Y028922D01*
X031646Y02931D02*
X033778D01*
X031258Y028922D02*
X031646Y02931D01*
X03937Y018384D02*
Y02188D01*
X039195Y018209D02*
X03937Y018384D01*
X033232Y018209D02*
X039195D01*
X016906Y023522D02*
X016945Y023484D01*
X016407Y023522D02*
X016906D01*
X03878Y018583D02*
Y021881D01*
X039071Y018494D02*
Y021881D01*
X040071Y027709D02*
X04137D01*
X034685Y027607D02*
Y029626D01*
Y027607D02*
X034769Y027523D01*
X035226Y016831D02*
X035591Y017195D01*
X034685Y016467D02*
X034734Y016417D01*
X034685Y016467D02*
Y017518D01*
X034786Y017618D01*
X035226D01*
X034769Y027523D02*
X03523D01*
X023878Y022008D02*
X0257D01*
X023768Y021898D02*
X023878Y022008D01*
X023768Y018686D02*
Y021898D01*
Y022402D02*
X024855D01*
X02363Y022264D02*
X023768Y022402D01*
X02363Y018791D02*
Y022264D01*
X019744Y018711D02*
X023549D01*
X02363Y018791D01*
X023654Y018573D02*
X023768Y018686D01*
X019646Y018573D02*
X023654D01*
X023905Y018548D02*
X024677Y017776D01*
X023976Y020691D02*
X025086D01*
X023905Y018548D02*
Y02062D01*
X023976Y020691D01*
X027141Y020335D02*
X028181D01*
X027103Y020373D02*
X027141Y020335D01*
X026576Y020373D02*
X027103D01*
X026516Y020433D02*
X026576Y020373D01*
X028181Y020335D02*
X028896D01*
X028181Y020335D02*
X028181Y020335D01*
X025153Y019321D02*
Y020313D01*
X025033Y020433D02*
X025153Y020313D01*
X024173Y020433D02*
X025033D01*
X024173Y020138D02*
X024957D01*
X019744Y027062D02*
Y02921D01*
X019646Y026964D02*
X019744Y027062D01*
X019646Y026516D02*
Y026964D01*
X0112Y024339D02*
X011633Y024772D01*
X017366Y023484D02*
X017563Y023681D01*
X017268Y023484D02*
X017366D01*
X017268Y023484D02*
X017268Y023484D01*
X016945Y023484D02*
X017268D01*
X028896Y020335D02*
X029309Y020748D01*
X026919Y021811D02*
X02834D01*
X026239Y021909D02*
X026354D01*
X026042Y021713D02*
X026239Y021909D01*
X024862Y021713D02*
X026042D01*
X028207Y023167D02*
Y024565D01*
X027737Y022697D02*
X028207Y023167D01*
X027465Y022697D02*
X027737D01*
X027465Y022697D02*
X027465Y022697D01*
X027141D02*
X027141Y022697D01*
X027006Y022697D02*
X027141D01*
X026879Y022823D02*
X027006Y022697D01*
X027141Y022697D02*
X027465D01*
X026821Y021909D02*
X026919Y021811D01*
X026354Y021909D02*
X026821D01*
X026354Y021909D02*
X026354Y021909D01*
X016319Y020067D02*
X016347Y020039D01*
X015184Y020067D02*
X016319D01*
X016811Y019941D02*
X017446D01*
X016712Y020039D02*
X016811Y019941D01*
X016347Y020039D02*
X016712D01*
X020335Y016624D02*
X020433Y016722D01*
X020335Y014476D02*
Y016624D01*
X020433Y017106D02*
Y017134D01*
Y016722D02*
Y017106D01*
X022795D02*
Y017134D01*
Y016742D02*
Y017106D01*
X022697Y016644D02*
X022795Y016742D01*
X022697Y015017D02*
Y016644D01*
X023976Y016705D02*
Y017106D01*
X023878Y016607D02*
X023976Y016705D01*
X023878Y015727D02*
Y016607D01*
Y027022D02*
Y030571D01*
X02378Y026924D02*
X023878Y027022D01*
X02378Y026516D02*
Y026924D01*
X023287Y026949D02*
Y0303D01*
X023189Y02685D02*
X023287Y026949D01*
X023189Y026516D02*
Y02685D01*
X022697Y027018D02*
Y03005D01*
X022598Y026919D02*
X022697Y027018D01*
X022598Y026516D02*
Y026919D01*
X024464Y017106D02*
X024626Y016945D01*
X023976Y017106D02*
X024464D01*
X024626Y016128D02*
X024829Y015925D01*
X024626Y016128D02*
Y016945D01*
X024829Y015925D02*
X028632D01*
X022992Y016319D02*
Y016347D01*
X017894Y020461D02*
X017901Y020454D01*
X021516Y027018D02*
Y027141D01*
X021417Y026919D02*
X021516Y027018D01*
X021417Y026516D02*
Y026919D01*
X022106Y026998D02*
Y029783D01*
X022008Y0269D02*
X022106Y026998D01*
X022008Y026516D02*
Y0269D01*
X020335Y026965D02*
Y029009D01*
X020236Y026867D02*
X020335Y026965D01*
X020236Y026516D02*
Y026867D01*
X01875Y02562D02*
X019646Y026516D01*
X015465Y02562D02*
X01875D01*
X026225Y025768D02*
Y03005D01*
X026475Y0303D01*
Y030985D01*
X027303Y022992D02*
X027838D01*
X038199Y019449D02*
Y022096D01*
X028913Y019016D02*
X029209Y019311D01*
X038061D02*
X038199Y019449D01*
X029209Y019311D02*
X038061D01*
Y019606D02*
Y022569D01*
X029152Y019449D02*
X037904D01*
X038061Y019606D01*
X028856Y019154D02*
X029152Y019449D01*
X014193Y027462D02*
X015335D01*
X014115Y027117D02*
Y027384D01*
X014114Y027116D02*
X014115Y027117D01*
Y027384D02*
X014193Y027462D01*
X011264Y026311D02*
X012264D01*
X032996Y017972D02*
X033232Y018209D01*
X030256Y017972D02*
X032996D01*
X033106Y017776D02*
X0333Y01797D01*
X024677Y017776D02*
X033106D01*
X027303Y021248D02*
X028562D01*
X044276Y015561D02*
Y015952D01*
X044176Y016053D02*
X044276Y015952D01*
X043249Y016053D02*
X044176D01*
X04062Y01686D02*
Y019606D01*
X040325Y019901D02*
X04062Y019606D01*
X040325Y019901D02*
Y020326D01*
X038923Y018346D02*
X039071Y018494D01*
X032997Y018346D02*
X038923D01*
X038691Y018494D02*
X03878Y018583D01*
X038298Y022196D02*
X040718D01*
X038199Y022096D02*
X038298Y022196D01*
X03812Y022628D02*
X040718D01*
X038061Y022569D02*
X03812Y022628D01*
X010794Y02589D02*
X012886D01*
X010526Y025621D02*
X010794Y02589D01*
X010526Y020049D02*
Y025621D01*
X01595Y01213D02*
Y012898D01*
X015713Y013135D02*
X01595Y012898D01*
X014893Y013135D02*
X015713D01*
X01895Y01218D02*
Y012985D01*
X018248Y013687D02*
X01895Y012985D01*
X015121Y013687D02*
X018248D01*
X026966Y013361D02*
X028779D01*
X029475Y012665D01*
X026909Y013223D02*
X027917D01*
X028475Y012665D01*
X038061Y030464D02*
Y03253D01*
X037974Y032616D02*
X038061Y03253D01*
X031061Y032616D02*
X037974D01*
X024702Y025115D02*
Y02671D01*
X024537Y024951D02*
X024702Y025115D01*
X020612Y024951D02*
X024537D01*
X024564Y025243D02*
Y026779D01*
X024409Y025089D02*
X024564Y025243D01*
X021465Y025089D02*
X024409D01*
X024426Y025359D02*
Y026836D01*
X024293Y025226D02*
X024426Y025359D01*
X021772Y025226D02*
X024293D01*
X021811Y027303D02*
Y029698D01*
Y026816D02*
Y027303D01*
X024289Y025478D02*
Y026893D01*
X024175Y025365D02*
X024289Y025478D01*
X021971Y025365D02*
X024175D01*
X021417Y025988D02*
Y026516D01*
X020236Y025988D02*
Y026516D01*
X02484Y024977D02*
Y026653D01*
X024675Y024813D02*
X02484Y024977D01*
X020347Y024813D02*
X024675D01*
X026941Y022992D02*
X027303D01*
X015407Y025482D02*
X019191D01*
X015276Y025614D02*
X015407Y025482D01*
X015276Y025614D02*
Y027057D01*
X015413Y025671D02*
Y027384D01*
X015335Y027462D02*
X015413Y027384D01*
X019134Y025344D02*
X019682Y024796D01*
X014902Y025344D02*
X019134D01*
X019077Y025207D02*
X019537Y024746D01*
X013569Y025207D02*
X019077D01*
X01902Y025069D02*
X0194Y024689D01*
X013512Y025069D02*
X01902D01*
X018946Y02491D02*
X019262Y024594D01*
X01081Y02491D02*
X018946D01*
X018889Y024772D02*
X019124Y024537D01*
X011633Y024772D02*
X018889D01*
X013422Y024173D02*
X016319D01*
X020138Y02589D02*
X020236Y025988D01*
X020138Y02564D02*
Y02589D01*
X020138Y02564D02*
X020138Y02564D01*
X020138Y025022D02*
Y02564D01*
X015413Y025671D02*
X015465Y02562D01*
X026105Y023197D02*
Y024508D01*
X025938Y024675D02*
X026105Y024508D01*
X019998Y024675D02*
X025938D01*
X027303Y024201D02*
Y024495D01*
X026081Y025717D02*
X027303Y024495D01*
X026225Y025768D02*
X027656Y024337D01*
X026362Y025825D02*
X027794Y024394D01*
X026362Y025825D02*
Y029872D01*
X027656Y024029D02*
Y024337D01*
X026081Y025717D02*
Y031378D01*
X027794Y023712D02*
Y024394D01*
X020138Y025022D02*
X020347Y024813D01*
X019191Y025482D02*
X019998Y024675D01*
X015217Y027116D02*
X015276Y027057D01*
X014902Y027116D02*
X015217D01*
X0112Y025339D02*
X011589Y025728D01*
X012853D02*
X013512Y025069D01*
X011589Y025728D02*
X012853D01*
X012886Y02589D02*
X013569Y025207D01*
X013626Y025344D02*
X014902D01*
Y026329D01*
X034475Y012665D02*
X03498Y01216D01*
Y011378D02*
Y01216D01*
X034835Y011233D02*
X03498Y011378D01*
X025947Y011233D02*
X034835D01*
X010526Y012293D02*
X011604D01*
X010439Y01238D02*
X010526Y012293D01*
X010439Y01238D02*
Y013875D01*
X011604Y012293D02*
X011752Y012146D01*
X010526Y013962D02*
X011099D01*
X010439Y013875D02*
X010526Y013962D01*
X011099D02*
X011157Y014019D01*
Y015159D01*
X022992Y015062D02*
Y016319D01*
X011312Y015315D02*
X0117D01*
X011157Y015159D02*
X011312Y015315D01*
X0117D02*
X0117Y015315D01*
X011752Y011198D02*
Y012146D01*
Y011198D02*
X012025Y010925D01*
X018631D01*
X018641Y010915D01*
X02563D01*
X025947Y011233D01*
X042707Y015511D02*
X043249Y016053D01*
X032889Y018239D02*
X032997Y018346D01*
X010669Y020906D02*
Y024769D01*
Y020906D02*
X011264Y020311D01*
X010526Y020049D02*
X011264Y019311D01*
X010787Y014331D02*
Y018711D01*
X010388Y01911D02*
Y026094D01*
Y01911D02*
X010787Y018711D01*
X022205Y017106D02*
Y017507D01*
Y016755D02*
Y017106D01*
X010388Y026094D02*
X010633Y026339D01*
X010669Y024769D02*
X01081Y02491D01*
X011033Y021839D02*
X012939D01*
X010831Y022041D02*
Y022878D01*
Y022041D02*
X011033Y021839D01*
X010831Y022878D02*
X011264Y023311D01*
X030257Y018239D02*
X032889D01*
X0333Y01797D02*
X036978D01*
X036978Y01797D01*
X034782Y029723D02*
X035864D01*
X034685Y029626D02*
X034782Y029723D01*
X035864D02*
X036014Y029873D01*
X037666D01*
X036855Y030149D02*
X037006Y0303D01*
X035858Y030149D02*
X036855D01*
X035707Y029999D02*
X035858Y030149D01*
X036673Y030287D02*
X036868Y030482D01*
X03575Y030287D02*
X036673D01*
X0356Y030137D02*
X03575Y030287D01*
X036326Y030424D02*
X036475Y030573D01*
X035623Y030424D02*
X036326D01*
X038199Y030406D02*
Y032627D01*
X037666Y029873D02*
X038199Y030406D01*
X038072Y032754D02*
X038199Y032627D01*
X02748Y032754D02*
X038072D01*
X043093Y015165D02*
X043489Y015561D01*
X040718Y015165D02*
X043093D01*
X040719Y015511D02*
X042707D01*
X040718Y01551D02*
X040719Y015511D01*
X02484Y026653D02*
X024953Y026766D01*
X025574D01*
X024957Y027431D02*
X025571D01*
X024564Y026779D02*
X02491Y027125D01*
Y027384D01*
X024957Y027431D01*
X024426Y026836D02*
X024772Y027182D01*
Y027607D01*
X024931Y027766D01*
X025571D01*
X024289Y026893D02*
X024575Y02718D01*
Y027784D02*
X024843Y028051D01*
X024575Y02718D02*
Y027784D01*
X024843Y028051D02*
X025571D01*
X024702Y02671D02*
X025094Y027102D01*
X025574D01*
X024173Y027303D02*
Y029611D01*
X024464Y029902D02*
Y030985D01*
X024173Y029611D02*
X024464Y029902D01*
X025409Y031496D02*
X025475Y03143D01*
Y030985D02*
Y03143D01*
X02495Y031496D02*
X025409D01*
X026362Y029872D02*
X027475Y030985D01*
X025086Y020691D02*
X025245Y020531D01*
X018593Y020433D02*
X018593Y020433D01*
X017894Y020433D02*
X018593D01*
X025263Y019016D02*
X028913D01*
X025015Y019264D02*
X025263Y019016D01*
X025015Y019264D02*
Y02008D01*
X024957Y020138D02*
X025015Y02008D01*
X025153Y019321D02*
X02532Y019154D01*
X028856D01*
X019682Y018773D02*
X019744Y018711D01*
X019682Y018773D02*
Y024796D01*
X019537Y018681D02*
X019646Y018573D01*
X019537Y018681D02*
Y024746D01*
X019262Y018533D02*
Y024594D01*
X019124Y018045D02*
Y024537D01*
X0194Y018591D02*
Y024689D01*
X026516Y021642D02*
X026902D01*
X026516Y021052D02*
X026877D01*
X017106Y017311D02*
Y019646D01*
X026516Y024004D02*
X026856D01*
X015516Y014513D02*
X018631D01*
X015226Y014804D02*
X015516Y014513D01*
X015226Y014804D02*
Y019677D01*
X015437Y014376D02*
X018574D01*
X015088Y014725D02*
X015437Y014376D01*
X015088Y014725D02*
Y019972D01*
X02749Y014601D02*
X029918D01*
X0268Y015291D02*
X02749Y014601D01*
X023629Y015291D02*
X0268D01*
X027433Y014463D02*
X029861D01*
X026743Y015154D02*
X027433Y014463D01*
X02355Y015154D02*
X026743D01*
X027366Y014326D02*
X029804D01*
X026675Y015016D02*
X027366Y014326D01*
X023038Y015016D02*
X026675D01*
X027308Y014188D02*
X029746D01*
X026618Y014878D02*
X027308Y014188D01*
X022981Y014878D02*
X026618D01*
X027251Y01405D02*
X029689D01*
X026561Y01474D02*
X027251Y01405D01*
X022675Y01474D02*
X026561D01*
X027194Y013912D02*
X029632D01*
X026504Y014602D02*
X027194Y013912D01*
X022618Y014602D02*
X026504D01*
X027137Y013774D02*
X029574D01*
X026447Y014465D02*
X027137Y013774D01*
X022561Y014465D02*
X026447D01*
X02708Y013637D02*
X029517D01*
X02639Y014327D02*
X02708Y013637D01*
X022504Y014327D02*
X02639D01*
X027023Y013499D02*
X02946D01*
X026333Y014189D02*
X027023Y013499D01*
X022446Y014189D02*
X026333D01*
X026276Y014051D02*
X026966Y013361D01*
X022389Y014051D02*
X026276D01*
X026219Y013913D02*
X026909Y013223D01*
X022332Y013913D02*
X026219D01*
X027612Y013085D02*
X027868Y012829D01*
X026852Y013085D02*
X027612D01*
X026162Y013776D02*
X026852Y013085D01*
X022275Y013776D02*
X026162D01*
X02695Y01219D02*
Y012792D01*
X026105Y013638D02*
X02695Y012792D01*
X022218Y013638D02*
X026105D01*
X026475Y012665D02*
Y013073D01*
X026048Y0135D02*
X026475Y013073D01*
X022161Y0135D02*
X026048D01*
X026857Y015429D02*
X027547Y014739D01*
X027627Y014878D02*
X030061D01*
X026938Y015567D02*
X027627Y014878D01*
X027868Y012272D02*
Y012829D01*
X020578Y029448D02*
X02063Y029396D01*
X020121Y029448D02*
X020578D01*
X013563Y030274D02*
X014115Y029723D01*
X012623Y030274D02*
X013563D01*
X014115Y029723D02*
X017293D01*
X012465Y030433D02*
X012623Y030274D01*
X012465Y030433D02*
Y030985D01*
X019449Y027303D02*
Y029216D01*
X017293Y029723D02*
X017548Y029468D01*
X018407D01*
X01854Y029335D01*
X019329D01*
X019449Y029216D01*
X02063Y027303D02*
Y029396D01*
X019682Y029887D02*
X020121Y029448D01*
X020925Y026994D02*
Y02951D01*
X020237Y029585D02*
X02085D01*
X020925Y02951D01*
X019798Y030024D02*
X020237Y029585D01*
X02122Y027331D02*
Y029479D01*
X020351Y029723D02*
X020976D01*
X02122Y029479D01*
Y027303D02*
Y027331D01*
X021516Y027141D02*
Y029414D01*
X020441Y029861D02*
X021069D01*
X021516Y029414D01*
X013Y030573D02*
Y031449D01*
Y030573D02*
X013161Y030412D01*
X013673D01*
X014224Y029861D01*
X01735D01*
X017605Y029606D01*
X018465D01*
X018597Y029473D01*
X01948D01*
X019744Y02921D01*
X0139Y030433D02*
Y031549D01*
X020039Y027331D02*
Y029109D01*
X0139Y030433D02*
X014334Y029999D01*
X019538Y029611D02*
X020039Y029109D01*
X018669Y029611D02*
X019538D01*
X018536Y029744D02*
X018669Y029611D01*
X017662Y029744D02*
X018536D01*
X017407Y029999D02*
X017662Y029744D01*
X014334Y029999D02*
X017407D01*
X020039Y027303D02*
Y027331D01*
X014465Y030274D02*
Y030985D01*
Y030274D02*
X014602Y030137D01*
X017465D01*
X01772Y029882D01*
X018593D01*
X018726Y029749D01*
X019595D01*
X020335Y029009D01*
X015465Y030433D02*
Y030985D01*
Y030433D02*
X015623Y030274D01*
X017586D01*
X017784Y030076D01*
X018593D01*
X018783Y029887D01*
X019682D01*
X01595Y030591D02*
Y031499D01*
Y030591D02*
X016129Y030412D01*
X017643D01*
X017841Y030214D01*
X01865D01*
X01884Y030024D01*
X019798D01*
X01695Y030765D02*
Y031499D01*
Y030765D02*
X017141Y030573D01*
X019912Y030162D02*
X020351Y029723D01*
X018897Y030162D02*
X019912D01*
X018701Y030359D02*
X018897Y030162D01*
X018204Y030359D02*
X018701D01*
X0182Y030362D02*
X018204Y030359D01*
X017888Y030362D02*
X0182D01*
X017677Y030573D02*
X017888Y030362D01*
X017141Y030573D02*
X017677D01*
X017465Y030985D02*
X017949Y0305D01*
X018754D01*
X018954Y0303D01*
X020002D01*
X020441Y029861D01*
X018465Y030985D02*
X019011Y030438D01*
X020059D01*
X020498Y029999D01*
X021204D01*
X021459Y029744D01*
X021765D01*
X021811Y029698D01*
X01895Y0308D02*
Y031499D01*
Y0308D02*
X019159Y030591D01*
X0201D01*
X020555Y030137D01*
X021261D01*
X021516Y029882D01*
X022008D01*
X022106Y029783D01*
X022402Y027331D02*
Y029973D01*
X01995Y030936D02*
X020335Y030552D01*
X020612Y030274D01*
X021318D01*
X021573Y030019D01*
X022355D01*
X022402Y029973D01*
Y027303D02*
Y027331D01*
X020465Y030617D02*
Y030985D01*
Y030617D02*
X020669Y030412D01*
X022589Y030157D02*
X022697Y03005D01*
X021672Y030157D02*
X022589D01*
X021417Y030412D02*
X021672Y030157D01*
X020669Y030412D02*
X021417D01*
X019124Y016348D02*
X019419D01*
X018986Y016486D02*
X019124Y016348D01*
X018848Y016244D02*
Y019679D01*
X018685Y019843D02*
X018848Y019679D01*
X017894Y019843D02*
X018685D01*
X019555Y018435D02*
X022047D01*
X0194Y018591D02*
X019555Y018435D01*
X019262Y018533D02*
X019498Y018297D01*
X021921D01*
X02199Y01794D02*
X022008Y017922D01*
X018306Y015701D02*
X018848Y016244D01*
X022047Y018435D02*
X022303Y018179D01*
X021921Y018297D02*
X02199Y018228D01*
X019419Y016348D02*
X019449Y016319D01*
X02199Y01794D02*
Y018228D01*
X019124Y018045D02*
X019275Y017894D01*
X015363Y014892D02*
Y019362D01*
X023927Y011152D02*
X023957Y011122D01*
X024464Y011665D02*
Y012665D01*
X022215Y013224D02*
X023905D01*
X024464Y012665D01*
X02495Y031496D02*
Y032647D01*
X025057Y032754D02*
X02748D01*
X023622Y031496D02*
X02495D01*
Y032647D02*
X025057Y032754D01*
X026146Y020433D02*
X026516D01*
X026048Y020531D02*
X026146Y020433D01*
X025245Y020531D02*
X026048D01*
X024176Y015429D02*
X026857D01*
X023878Y015727D02*
X024176Y015429D01*
X029309Y020748D02*
Y025022D01*
X027874Y026457D02*
X029309Y025022D01*
X027874Y028786D02*
X028374Y029285D01*
X027874Y026457D02*
Y028786D01*
X028374Y029285D02*
X029928D01*
X030116Y029473D01*
X031019D01*
X031407Y029861D01*
X03355D01*
Y029872D01*
X034092Y030414D01*
X035407D01*
X03555Y030557D01*
Y030909D01*
X035475Y030985D02*
X03555Y030909D01*
X014874Y020925D02*
X016625D01*
X014666Y020717D02*
X014874Y020925D01*
X014666Y014532D02*
Y020717D01*
X01506Y020335D02*
X016157D01*
X01495Y020225D02*
X01506Y020335D01*
X01495Y014651D02*
Y020225D01*
X015292Y019744D02*
X016648D01*
X015226Y019677D02*
X015292Y019744D01*
X021319Y025234D02*
X021465Y025089D01*
X021319Y025234D02*
Y02589D01*
X025475Y031985D02*
X026081Y031378D01*
X026496Y029382D02*
X02795Y030836D01*
X026496Y025887D02*
Y029382D01*
Y025887D02*
X027931Y024451D01*
X026634Y029325D02*
X027858Y03055D01*
X026634Y025944D02*
Y029325D01*
Y025944D02*
X028069Y024508D01*
X026516Y022823D02*
X026879D01*
X026772Y029268D02*
X027916Y030412D01*
X026772Y026001D02*
Y029268D01*
Y026001D02*
X028207Y024565D01*
X027303Y02243D02*
X028148D01*
X026909Y029211D02*
X02795Y030252D01*
X026909Y026058D02*
Y029211D01*
Y026058D02*
X028345Y024622D01*
X026516Y022233D02*
X026896D01*
X027047Y029154D02*
X028005Y030112D01*
X027047Y026115D02*
Y029154D01*
Y026115D02*
X028483Y024679D01*
X027185Y029097D02*
X028062Y029974D01*
X027185Y026172D02*
Y029097D01*
Y026172D02*
X02862Y024737D01*
X027323Y02904D02*
X028119Y029837D01*
X027323Y026229D02*
Y02904D01*
Y026229D02*
X028758Y024794D01*
X027461Y028983D02*
X028177Y029699D01*
X027461Y026286D02*
Y028983D01*
Y026286D02*
X028896Y024851D01*
X027598Y028926D02*
X028234Y029561D01*
X027598Y026343D02*
Y028926D01*
Y026343D02*
X029034Y024908D01*
X027736Y028843D02*
X02815Y029256D01*
X027736Y0264D02*
Y028843D01*
Y0264D02*
X029172Y024965D01*
X027303Y020067D02*
X028824D01*
X028012Y028717D02*
X028442Y029148D01*
X028012Y026514D02*
Y028717D01*
Y026514D02*
X029447Y025079D01*
X02815Y02866D02*
X0285Y02901D01*
X02815Y026572D02*
Y02866D01*
Y026572D02*
X029585Y025136D01*
X016156Y015701D02*
X018306D01*
X015925Y015471D02*
X016156Y015701D01*
X015925Y014964D02*
Y015471D01*
X015Y01213D02*
Y012833D01*
X013701Y014132D02*
Y0228D01*
Y014132D02*
X015Y012833D01*
X013839Y014189D02*
Y02255D01*
Y014189D02*
X014893Y013135D01*
X015007Y013411D02*
X017389D01*
X014115Y014304D02*
X015007Y013411D01*
X014115Y014304D02*
Y0219D01*
X015064Y013549D02*
X017778D01*
X014252Y014361D02*
X015064Y013549D01*
X014252Y014361D02*
Y021614D01*
X01439Y014418D02*
Y021339D01*
Y014418D02*
X015121Y013687D01*
X015178Y013824D02*
X018306D01*
X014528Y014475D02*
X015178Y013824D01*
X014528Y014475D02*
Y02105D01*
X014666Y014532D02*
X015235Y013962D01*
X018363D01*
X015292Y0141D02*
X01842D01*
X014804Y014589D02*
X015292Y0141D01*
X014804Y014589D02*
Y020455D01*
X01495Y014651D02*
X015363Y014238D01*
X018477D01*
X015604Y014651D02*
X018689D01*
X015363Y014892D02*
X015604Y014651D01*
X013977Y014246D02*
Y022291D01*
Y014246D02*
X01495Y013273D01*
X014726Y021248D02*
X016319D01*
X014477Y021839D02*
X016319D01*
X014115Y02243D02*
X016319D01*
X01495Y013273D02*
X016327D01*
X013921Y02302D02*
X016319D01*
X013563Y013567D02*
X014465Y012665D01*
X013563Y013567D02*
Y023113D01*
X012677Y026293D02*
X013626Y025344D01*
X012281Y026293D02*
X012677D01*
X012264Y026311D02*
X012281Y026293D01*
X012862Y02302D02*
Y024127D01*
X019275Y017894D02*
X019646D01*
X012862Y024127D02*
X012867D01*
X013Y0219D02*
Y024065D01*
X023043Y013087D02*
X023464Y012665D01*
X019456Y013689D02*
X021556D01*
X018631Y014513D02*
X019456Y013689D01*
X022158Y013087D02*
X023043D01*
X021556Y013689D02*
X022158Y013087D01*
X016746Y019646D02*
X017106D01*
X016648Y019744D02*
X016746Y019646D01*
X028287Y028603D02*
X028557Y028872D01*
X028287Y026629D02*
Y028603D01*
Y026629D02*
X029723Y025193D01*
X026211Y023091D02*
X026843D01*
X026105Y023197D02*
X026211Y023091D01*
X026843D02*
X026941Y022992D01*
X020433Y025129D02*
Y025728D01*
Y025129D02*
X020612Y024951D01*
X021909Y025426D02*
X021971Y025365D01*
X021614Y025384D02*
Y025728D01*
Y025384D02*
X021772Y025226D01*
X034272Y029999D02*
X035707D01*
X035807Y029861D02*
X035957Y030011D01*
X034329Y029861D02*
X035807D01*
X033778Y02931D02*
X034329Y029861D01*
X022303Y017605D02*
Y018179D01*
X021319Y02589D02*
X021417Y025988D01*
X021909Y025426D02*
Y026004D01*
X028557Y028872D02*
X0301D01*
X0285Y02901D02*
X030042D01*
X028442Y029148D02*
X029985D01*
X021713Y026201D02*
X021909Y026004D01*
X021713Y026201D02*
Y026717D01*
X021811Y026816D01*
X02695Y01219D02*
X027475Y011665D01*
X027547Y014739D02*
X029975D01*
X029918Y014601D02*
X030118Y014401D01*
X029574Y013774D02*
X0298Y013549D01*
X029632Y013912D02*
X029833Y013712D01*
X029975Y014739D02*
X030175Y014538D01*
X029861Y014463D02*
X030061Y014263D01*
X029746Y014188D02*
X029947Y013987D01*
X029804Y014326D02*
X030004Y014125D01*
X029689Y01405D02*
X02989Y013849D01*
X027475Y031985D02*
X02795Y031509D01*
Y030836D02*
Y031509D01*
X027475Y032748D02*
X02748Y032754D01*
X027475Y031985D02*
Y032748D01*
Y030985D02*
Y031985D01*
X023524Y031398D02*
X023622Y031496D01*
X023524Y031044D02*
Y031398D01*
X023465Y030985D02*
X023524Y031044D01*
X012676Y022834D02*
X012862Y02302D01*
X011759Y022834D02*
X012676D01*
X011264Y022339D02*
X011759Y022834D01*
X022205Y017507D02*
X022303Y017605D01*
X027505Y023878D02*
X027656Y024029D01*
X026982Y023878D02*
X027505D01*
X026856Y024004D02*
X026982Y023878D01*
X027766Y023287D02*
X027931Y023453D01*
X026963Y023287D02*
X027766D01*
X026836Y023414D02*
X026963Y023287D01*
X027838Y022992D02*
X028069Y023224D01*
X029172Y020891D02*
Y024965D01*
X02891Y02063D02*
X029172Y020891D01*
X027303Y02063D02*
X02891D01*
X024855Y021705D02*
X024862Y021713D01*
X028483Y022569D02*
Y024679D01*
X02802Y022106D02*
X028483Y022569D01*
X027022Y022106D02*
X02802D01*
X026896Y022233D02*
X027022Y022106D01*
X028418Y021516D02*
X028758Y021856D01*
X027028Y021516D02*
X028418D01*
X026902Y021642D02*
X027028Y021516D01*
X028594Y020925D02*
X029034Y021365D01*
X027004Y020925D02*
X028594D01*
X026877Y021052D02*
X027004Y020925D01*
X028917Y019449D02*
X029723Y020254D01*
X027303Y019449D02*
X028917D01*
X028819Y019744D02*
X029585Y02051D01*
X026983Y019744D02*
X028819D01*
X026857Y01987D02*
X026983Y019744D01*
X013465Y023878D02*
X016481D01*
X013451Y023892D02*
X013465Y023878D01*
X016741Y02378D02*
X017106D01*
X016643Y023878D02*
X016741Y02378D01*
X016481Y023878D02*
X016643D01*
X016481Y023878D02*
X016481Y023878D01*
X013288Y023729D02*
X013451Y023892D01*
X016756Y023209D02*
X017086D01*
X017106Y023189D01*
X016678Y023287D02*
X016756Y023209D01*
X013737Y023287D02*
X016678D01*
X013563Y023113D02*
X013737Y023287D01*
X016674Y022697D02*
X016752Y022619D01*
X013986Y022697D02*
X016674D01*
X016752Y022619D02*
X017086D01*
X017106Y022598D01*
X013839Y02255D02*
X013986Y022697D01*
X017446Y019941D02*
X017643Y020138D01*
X016682Y020335D02*
X016781Y020236D01*
X016481Y020335D02*
X016481Y020335D01*
X016781Y020236D02*
X017106D01*
X016481Y020335D02*
X016682D01*
X016602Y022106D02*
X0167Y022008D01*
X014321Y022106D02*
X016602D01*
X014115Y0219D02*
X014321Y022106D01*
X016643Y021516D02*
X016741Y021417D01*
X014567Y021516D02*
X016643D01*
X01439Y021339D02*
X014567Y021516D01*
X0167Y022008D02*
X017106D01*
X016625Y020925D02*
X016695Y020855D01*
X017078D01*
X017106Y020827D01*
X016157Y020335D02*
X016157Y020335D01*
X016481D01*
X029723Y020254D02*
Y025193D01*
X029585Y02051D02*
Y025136D01*
X029447Y020691D02*
Y025079D01*
X029034Y021365D02*
Y024908D01*
X028896Y021582D02*
Y024851D01*
X028562Y021248D02*
X028896Y021582D01*
X028758Y021856D02*
Y024794D01*
X02862Y022091D02*
Y024737D01*
X02834Y021811D02*
X02862Y022091D01*
X026516Y019843D02*
X026544Y01987D01*
X028824Y020067D02*
X029447Y020691D01*
X030974Y031838D02*
Y03253D01*
Y031838D02*
X031088Y031725D01*
X030974Y03253D02*
X031061Y032616D01*
X037609Y030011D02*
X038061Y030464D01*
X035957Y030011D02*
X037609D01*
X031088Y031372D02*
Y031725D01*
Y031372D02*
X031475Y030985D01*
X031201Y02906D02*
X031589Y029448D01*
X031144Y029198D02*
X031532Y029585D01*
X031087Y029335D02*
X031475Y029723D01*
X030962Y029611D02*
X03135Y029999D01*
X03004Y029611D02*
X030962D01*
X030905Y029749D02*
X031293Y030137D01*
X029983Y029749D02*
X030905D01*
X030848Y029887D02*
X031236Y030274D01*
X029926Y029887D02*
X030848D01*
X030791Y030024D02*
X031179Y030412D01*
X029869Y030024D02*
X030791D01*
X030734Y030162D02*
X031122Y03055D01*
X029795Y030162D02*
X030734D01*
X03095Y030573D02*
Y031509D01*
X030677Y0303D02*
X03095Y030573D01*
X029738Y0303D02*
X030677D01*
X031589Y029448D02*
X033721D01*
X03023Y029198D02*
X031144D01*
X031236Y030274D02*
X032764D01*
X030287Y02906D02*
X031201D01*
X031532Y029585D02*
X033664D01*
X030173Y029335D02*
X031087D01*
X031293Y030137D02*
X033425D01*
X03135Y029999D02*
X033482D01*
X031179Y030412D02*
X031902D01*
X031122Y03055D02*
X0318D01*
X031475Y029723D02*
X033607D01*
X01315Y0132D02*
Y023901D01*
X013288Y013138D02*
Y023729D01*
X013426Y012704D02*
Y023339D01*
X012862Y012912D02*
X01315Y0132D01*
X013426Y023339D02*
X013697Y023611D01*
X013Y01285D02*
X013288Y013138D01*
X01315Y023901D02*
X013422Y024173D01*
X013426Y012704D02*
X013465Y012665D01*
X011264Y026339D02*
X011312Y026387D01*
X037006Y0303D02*
Y031516D01*
X021499Y013551D02*
X022385Y012665D01*
X022465D01*
X02195Y0123D02*
Y012905D01*
X021442Y013413D02*
X02195Y012905D01*
X019301Y013413D02*
X021442D01*
X019399Y013551D02*
X021499D01*
X021613Y013827D02*
X022215Y013224D01*
X019513Y013827D02*
X021613D01*
X015088Y019972D02*
X015184Y020067D01*
X016319Y02063D02*
Y020658D01*
X018574Y014376D02*
X019399Y013551D01*
X02095Y01218D02*
Y013125D01*
X012939Y021839D02*
X013Y0219D01*
X027931Y023453D02*
Y024451D01*
X028069Y023224D02*
Y024508D01*
X028345Y022626D02*
Y024622D01*
X021743Y030295D02*
X022646D01*
X021465Y030573D02*
X021743Y030295D01*
X022992Y027303D02*
Y027331D01*
X021465Y030573D02*
Y030985D01*
X01995Y030936D02*
Y03155D01*
X02195Y030642D02*
X022159Y030433D01*
X02195Y030642D02*
Y031402D01*
X022159Y030433D02*
X023155D01*
X022646Y030295D02*
X022992Y029949D01*
X019465Y031985D02*
X019515D01*
X01995Y03155D01*
X022992Y027331D02*
Y029949D01*
X023155Y030433D02*
X023287Y0303D01*
X023126Y030591D02*
X02343D01*
X022952Y030765D02*
X023126Y030591D01*
X02343D02*
X023583Y030438D01*
Y027331D02*
Y030438D01*
X035475Y030276D02*
X035623Y030424D01*
X03416Y030276D02*
X035475D01*
X036868Y030482D02*
Y031591D01*
X034215Y030137D02*
X0356D01*
X036475Y030573D02*
Y030985D01*
X033721Y029448D02*
X034272Y029999D01*
X0301Y028872D02*
X030287Y02906D01*
X033664Y029585D02*
X034215Y030137D01*
X030042Y02901D02*
X03023Y029198D01*
X033607Y029723D02*
X03416Y030276D01*
X029853Y029423D02*
X03004Y029611D01*
X028291Y029423D02*
X029853D01*
X029795Y029561D02*
X029983Y029749D01*
X028234Y029561D02*
X029795D01*
X029738Y029699D02*
X029926Y029887D01*
X028177Y029699D02*
X029738D01*
X029681Y029837D02*
X029869Y030024D01*
X028119Y029837D02*
X029681D01*
X029607Y029974D02*
X029795Y030162D01*
X028062Y029974D02*
X029607D01*
X02955Y030112D02*
X029738Y0303D01*
X028005Y030112D02*
X02955D01*
X030475Y030573D02*
Y030985D01*
X030339Y030438D02*
X030475Y030573D01*
X029681Y030438D02*
X030339D01*
X029493Y03025D02*
X029681Y030438D01*
X02867Y03025D02*
X029493D01*
X029475Y030482D02*
Y030985D01*
X029405Y030412D02*
X029475Y030482D01*
X027916Y030412D02*
X029405D01*
X029985Y029148D02*
X030173Y029335D01*
X02815Y029283D02*
X028291Y029423D01*
X02815Y029256D02*
Y029283D01*
X027692Y023611D02*
X027794Y023712D01*
X028148Y02243D02*
X028345Y022626D01*
X02795Y030252D02*
X028668D01*
X027858Y03055D02*
X02885D01*
X028668Y030252D02*
X02867Y03025D01*
X035Y030661D02*
Y031459D01*
X03489Y030551D02*
X035Y030661D01*
X034035Y030551D02*
X03489D01*
X033482Y029999D02*
X034035Y030551D01*
X031902Y030412D02*
X032475Y030985D01*
X032764Y030274D02*
X033475Y030985D01*
X033425Y030137D02*
X03395Y030661D01*
Y031509D01*
X03195Y0307D02*
Y031509D01*
X0318Y03055D02*
X03195Y0307D01*
X023386Y016736D02*
Y017134D01*
X023287Y016637D02*
X023386Y016736D01*
X023287Y015416D02*
Y016637D01*
X022106Y016656D02*
X022205Y016755D01*
X022106Y015114D02*
Y016656D01*
X021844Y014791D02*
X022446Y014189D01*
X02133Y014791D02*
X021844D01*
X02122Y014901D02*
X02133Y014791D01*
X035475Y012665D02*
Y014075D01*
X035287Y014263D02*
X035475Y014075D01*
X030061Y014263D02*
X035287D01*
X036Y01214D02*
Y014275D01*
X035875Y014401D02*
X036Y014275D01*
X030118Y014401D02*
X035875D01*
X03695Y01219D02*
Y014238D01*
X036649Y014538D02*
X03695Y014238D01*
X030175Y014538D02*
X036649D01*
X034475Y012665D02*
Y013951D01*
X034301Y014125D02*
X034475Y013951D01*
X030004Y014125D02*
X034301D01*
X032475Y012665D02*
Y01355D01*
X032313Y013712D02*
X032475Y01355D01*
X029833Y013712D02*
X032313D01*
X032699Y013849D02*
X03295Y013599D01*
Y012514D02*
Y013599D01*
Y012514D02*
X033386Y012079D01*
X02989Y013849D02*
X032699D01*
X03395Y01219D02*
Y0136D01*
X033563Y013987D02*
X03395Y0136D01*
X029947Y013987D02*
X033563D01*
X030589Y013411D02*
X03095Y01305D01*
X029743Y013411D02*
X030589D01*
X029517Y013637D02*
X029743Y013411D01*
X031475Y012665D02*
Y013275D01*
X031201Y013549D02*
X031475Y013275D01*
X0298Y013549D02*
X031201D01*
X0208Y013276D02*
X02095Y013125D01*
X019244Y013276D02*
X0208D01*
X029831Y013119D02*
X02995Y013D01*
X029831Y013119D02*
Y013128D01*
X02946Y013499D02*
X029831Y013128D01*
X03695Y01219D02*
X037475Y011665D01*
X036Y01214D02*
X036475Y011666D01*
X023583Y015337D02*
Y016347D01*
Y015337D02*
X023629Y015291D01*
X023287Y015416D02*
X02355Y015154D01*
X02298Y01488D02*
X022981Y014878D01*
X022834Y01488D02*
X02298D01*
X022697Y015017D02*
X022834Y01488D01*
X03395Y01219D02*
X034475Y011665D01*
X033386Y011755D02*
X033475Y011665D01*
X033386Y011755D02*
Y012079D01*
X022992Y015062D02*
X023038Y015016D01*
X022402Y015013D02*
Y016347D01*
X027868Y012272D02*
X028475Y011665D01*
X022106Y015114D02*
X022618Y014602D01*
X021811Y015214D02*
Y016347D01*
X021516Y015315D02*
Y016509D01*
X02122Y014901D02*
Y016347D01*
X019843Y014102D02*
X021559D01*
X022161Y0135D01*
X0201Y01424D02*
X021616D01*
X022218Y013638D01*
X020433Y014378D02*
X021673D01*
X022275Y013776D01*
X020749Y014516D02*
X02173D01*
X022332Y013913D01*
X021022Y014654D02*
X021787D01*
X022389Y014051D01*
X021516Y015315D02*
X022504Y014327D01*
X021811Y015214D02*
X022561Y014465D01*
X022402Y015013D02*
X022675Y01474D01*
X03095Y01219D02*
Y01305D01*
Y01219D02*
X031475Y011665D01*
X021516Y016509D02*
X021516Y016509D01*
X021516Y016509D02*
Y016595D01*
X021614Y016693D01*
Y017134D01*
X02995Y01219D02*
Y013D01*
X020925Y014751D02*
Y0164D01*
Y014751D02*
X021022Y014654D01*
X02063Y014634D02*
X020749Y014516D01*
X02063Y014634D02*
Y016347D01*
X020335Y014476D02*
X020433Y014378D01*
X020039Y014301D02*
X0201Y01424D01*
X020039Y014301D02*
Y016347D01*
X019744Y014201D02*
Y016644D01*
Y014201D02*
X019843Y014102D01*
X018689Y014651D02*
X019513Y013827D01*
X018477Y014238D02*
X019301Y013413D01*
X01842Y0141D02*
X019244Y013276D01*
X019992Y013138D02*
X020465Y012665D01*
X019187Y013138D02*
X019992D01*
X018363Y013962D02*
X019187Y013138D01*
X018306Y013824D02*
X019465Y012665D01*
X02995Y01219D02*
X030475Y011665D01*
X020925Y0164D02*
X020925Y0164D01*
X020925Y0164D02*
Y016625D01*
X021024Y016724D01*
Y017134D01*
X019744Y016644D02*
X019843Y016743D01*
Y017134D01*
X030475Y031985D02*
X03095Y031509D01*
X02885Y03055D02*
X029Y0307D01*
X037006Y031516D02*
X037475Y031985D01*
X036475Y031985D02*
X036868Y031591D01*
X031475Y031985D02*
X03195Y031509D01*
X029Y0307D02*
Y03155D01*
X026544Y01987D02*
X026857D01*
X012465Y031985D02*
X013Y031449D01*
X022952Y030765D02*
Y031497D01*
X023465Y030985D02*
X023878Y030571D01*
X023583Y027303D02*
Y027331D01*
X016741Y021417D02*
X017106D01*
X01595Y01213D02*
X016415Y011665D01*
X016465Y012665D02*
Y013135D01*
X016327Y013273D02*
X016465Y013135D01*
X017465Y012665D02*
Y013335D01*
X017389Y013411D02*
X017465Y013335D01*
X017977Y012153D02*
Y01335D01*
X017778Y013549D02*
X017977Y01335D01*
X01895Y01218D02*
X019465Y011665D01*
X017977Y012153D02*
X018465Y011665D01*
X013701Y0228D02*
X013921Y02302D01*
X013977Y022291D02*
X014115Y02243D01*
X014252Y021614D02*
X014477Y021839D01*
X014804Y020455D02*
X015006Y020658D01*
X014528Y02105D02*
X014726Y021248D01*
X015363Y019362D02*
X015478Y019477D01*
X012862Y012063D02*
Y012912D01*
X013Y01213D02*
Y01285D01*
X012465Y011665D02*
X012862Y012063D01*
X02195Y0123D02*
X022465Y011785D01*
Y011665D02*
Y011785D01*
X02095Y01218D02*
X021465Y011665D01*
X015Y01213D02*
X015465Y011665D01*
X016415D02*
X016465D01*
X013Y01213D02*
X013465Y011665D01*
X013465Y031985D02*
X0139Y031549D01*
X020827Y026896D02*
X020925Y026994D01*
X020827Y026516D02*
Y026896D01*
X015465Y031985D02*
X01595Y031499D01*
X016465Y031985D02*
X01695Y031499D01*
X021516Y027141D02*
X021516Y027141D01*
X018465Y031985D02*
X01895Y031499D01*
X021465Y031887D02*
X02195Y031402D01*
X021465Y031887D02*
Y031985D01*
X022465D02*
X022952Y031497D01*
X028565Y031985D02*
X029Y03155D01*
X028475Y031985D02*
X028565D01*
X033475D02*
X03395Y031509D01*
X034475Y031985D02*
X035Y031459D01*
D15*
X045646Y03151D02*
X046063Y031093D01*
X041782Y03151D02*
X045646D01*
X046063Y028278D02*
Y031093D01*
X040294Y03151D02*
X041782D01*
X044882Y021496D02*
Y023029D01*
X044731Y02318D02*
X044882Y023029D01*
X044276Y02318D02*
X044731D01*
X044276Y020891D02*
X044882Y021496D01*
X044276Y016545D02*
Y020891D01*
X043649Y014238D02*
X044715D01*
X044276Y016545D02*
X044731D01*
X044715Y014238D02*
X044897Y01442D01*
Y016379D01*
X044731Y016545D02*
X044897Y016379D01*
X043533Y014122D02*
X043649Y014238D01*
X043533Y011183D02*
Y014122D01*
X042979Y010628D02*
X043533Y011183D01*
X0429Y010628D02*
X042979D01*
X026895Y015669D02*
X027629Y014936D01*
X012392Y032982D02*
X024464D01*
X01195Y032541D02*
X012392Y032982D01*
X01195Y029527D02*
Y032541D01*
X010787Y029319D02*
X011743D01*
X01195Y029527D01*
X037475Y014845D02*
Y01564D01*
X042071Y016008D02*
Y024283D01*
X037475Y01564D02*
X037662Y015827D01*
X04189D01*
X042071Y016008D01*
X046757Y010628D02*
X046835D01*
X044547Y026014D02*
X045787D01*
X044276Y025743D02*
X044547Y026014D01*
X044276Y025241D02*
Y025743D01*
X045787Y026014D02*
X046063Y026289D01*
X024464Y032982D02*
X04002D01*
X040294Y032707D01*
X024464Y031985D02*
Y032982D01*
X040294Y03151D02*
Y032707D01*
X044234Y025284D02*
X044276Y025241D01*
X042071Y025284D02*
X044234D01*
X037475Y012665D02*
Y014845D01*
X044276Y02318D02*
Y025241D01*
X030219Y014774D02*
X037403D01*
X037475Y014845D01*
X046063Y026289D02*
Y028278D01*
X024183Y015787D02*
X024301Y015669D01*
X024183Y015787D02*
Y016309D01*
X024173Y016319D02*
X024183Y016309D01*
X024301Y015669D02*
X026895D01*
X027629Y014936D02*
X030056D01*
X030219Y014774D01*
X025475Y011233D02*
Y011665D01*
X025364Y011122D02*
X025475Y011233D01*
X023957Y011122D02*
X025364D01*
X010787Y012756D02*
X01195D01*
X012106Y011122D02*
X023957D01*
X023927Y011152D02*
Y012203D01*
X023464Y012665D02*
X023927Y012203D01*
X01195Y011278D02*
X012106Y011122D01*
X01195Y011278D02*
Y012756D01*
Y01465D01*
X012264Y014964D01*
Y017311D01*
D20*
X042071Y025284D02*
D03*
X025475Y011665D02*
D03*
X024464Y031985D02*
D03*
X037475Y031985D02*
D03*
X012465Y011665D02*
D03*
D61*
X0453Y02505D02*
D03*
Y020326D02*
D03*
Y013691D02*
D03*
Y018415D02*
D03*
D62*
X043489Y022196D02*
D03*
X044276Y02318D02*
D03*
Y022196D02*
D03*
X043489Y02318D02*
D03*
X040071Y024283D02*
D03*
Y025283D02*
D03*
X041071D02*
D03*
Y024283D02*
D03*
X042071Y024283D02*
D03*
X039071Y025283D02*
D03*
Y024283D02*
D03*
X0458Y03295D02*
D03*
X0448D02*
D03*
X043489Y016545D02*
D03*
X044276Y015561D02*
D03*
Y016545D02*
D03*
X043489Y015561D02*
D03*
X011264Y021311D02*
D03*
Y022311D02*
D03*
X012264D02*
D03*
Y023311D02*
D03*
X011264D02*
D03*
X012264Y026311D02*
D03*
X012264Y025311D02*
D03*
X011264D02*
D03*
Y024311D02*
D03*
X012264D02*
D03*
X011264Y020311D02*
D03*
X012264D02*
D03*
Y021311D02*
D03*
Y019311D02*
D03*
X011264D02*
D03*
Y018311D02*
D03*
X012264D02*
D03*
X011264Y017311D02*
D03*
X012264D02*
D03*
X030475Y011665D02*
D03*
X029475D02*
D03*
Y012665D02*
D03*
X028475D02*
D03*
Y011665D02*
D03*
X025475Y012665D02*
D03*
X026475Y012665D02*
D03*
Y011665D02*
D03*
X027475D02*
D03*
Y012665D02*
D03*
X031475Y011665D02*
D03*
Y012665D02*
D03*
X030475D02*
D03*
X032475D02*
D03*
Y011665D02*
D03*
X033475D02*
D03*
Y012665D02*
D03*
X034475Y011665D02*
D03*
Y012665D02*
D03*
X035475Y011665D02*
D03*
Y012665D02*
D03*
X036475Y012666D02*
D03*
Y011666D02*
D03*
X037475Y012665D02*
D03*
Y011665D02*
D03*
X019465Y031985D02*
D03*
X020465D02*
D03*
Y030985D02*
D03*
X021465D02*
D03*
Y031985D02*
D03*
X024464Y030985D02*
D03*
X023465Y030985D02*
D03*
Y031985D02*
D03*
X022465D02*
D03*
Y030985D02*
D03*
X018465Y031985D02*
D03*
Y030985D02*
D03*
X019465D02*
D03*
X017465D02*
D03*
Y031985D02*
D03*
X016465D02*
D03*
Y030985D02*
D03*
X015465Y031985D02*
D03*
Y030985D02*
D03*
X014465Y031985D02*
D03*
Y030985D02*
D03*
X013465Y030985D02*
D03*
Y031985D02*
D03*
X012465Y030985D02*
D03*
Y031985D02*
D03*
X032475Y031985D02*
D03*
X033475D02*
D03*
Y030985D02*
D03*
X034475D02*
D03*
Y031985D02*
D03*
X037475Y030985D02*
D03*
X036475Y030985D02*
D03*
Y031985D02*
D03*
X035475D02*
D03*
Y030985D02*
D03*
X031475Y031985D02*
D03*
Y030985D02*
D03*
X032475D02*
D03*
X030475D02*
D03*
Y031985D02*
D03*
X029475D02*
D03*
Y030985D02*
D03*
X028475Y031985D02*
D03*
Y030985D02*
D03*
X027475Y031985D02*
D03*
Y030985D02*
D03*
X026475Y030985D02*
D03*
Y031985D02*
D03*
X025475Y030985D02*
D03*
Y031985D02*
D03*
X024464Y011665D02*
D03*
Y012665D02*
D03*
X023464Y011665D02*
D03*
Y012665D02*
D03*
X022465Y012665D02*
D03*
Y011665D02*
D03*
X021465Y012665D02*
D03*
Y011665D02*
D03*
X020465Y012665D02*
D03*
Y011665D02*
D03*
X019465D02*
D03*
Y012665D02*
D03*
X017465D02*
D03*
X018465D02*
D03*
Y011665D02*
D03*
X014465Y012665D02*
D03*
Y011665D02*
D03*
X013465D02*
D03*
Y012665D02*
D03*
X012465Y012665D02*
D03*
X015465Y011665D02*
D03*
Y012665D02*
D03*
X016465D02*
D03*
Y011665D02*
D03*
X017465D02*
D03*
D63*
X010787Y030894D02*
D03*
Y030107D02*
D03*
X041113Y020326D02*
D03*
X014902Y027904D02*
D03*
X014114D02*
D03*
Y027116D02*
D03*
X014902D02*
D03*
X014114Y026329D02*
D03*
X036017Y027523D02*
D03*
X03523D02*
D03*
X036017Y028311D02*
D03*
X036014Y017618D02*
D03*
X035226Y016831D02*
D03*
X036014D02*
D03*
Y016043D02*
D03*
X035226D02*
D03*
X035226Y015256D02*
D03*
X036014D02*
D03*
X031282Y021375D02*
D03*
X030494Y020588D02*
D03*
X031282D02*
D03*
Y0198D02*
D03*
X030494D02*
D03*
X030494Y019013D02*
D03*
X031282D02*
D03*
X024682Y028661D02*
D03*
X028789Y015915D02*
D03*
X016713Y014964D02*
D03*
X010787Y014331D02*
D03*
Y013543D02*
D03*
D64*
Y029319D02*
D03*
X028789Y016702D02*
D03*
X010787Y012756D02*
D03*
D65*
X040325Y020326D02*
D03*
X014902Y026329D02*
D03*
X03523Y028311D02*
D03*
X035226Y017618D02*
D03*
X030494Y021375D02*
D03*
X025469Y028661D02*
D03*
X015925Y014964D02*
D03*
D66*
X046063Y028278D02*
D03*
X043691D02*
D03*
D67*
X044872Y030108D02*
D03*
D68*
X0468Y03295D02*
D03*
X011264Y026311D02*
D03*
D69*
X046835Y0124D02*
D03*
Y010628D02*
D03*
X044276Y010628D02*
D03*
X0429Y0124D02*
D03*
Y010628D02*
D03*
X040341Y010628D02*
D03*
D70*
X044276Y0124D02*
D03*
X040341D02*
D03*
D71*
X031201Y022057D02*
D03*
X031752D02*
D03*
D72*
X030404Y028248D02*
D03*
X032175D02*
D03*
X032175Y025689D02*
D03*
D73*
X030404D02*
D03*
D74*
X027303Y024173D02*
D03*
X026516Y023976D02*
D03*
X025728Y02378D02*
D03*
X027303Y023583D02*
D03*
X026516Y023386D02*
D03*
X025728Y023189D02*
D03*
X027303Y022992D02*
D03*
X026516Y022795D02*
D03*
X025728Y022598D02*
D03*
X027303Y022402D02*
D03*
X026516Y022205D02*
D03*
X025728Y022008D02*
D03*
X027303Y021811D02*
D03*
X026516Y021614D02*
D03*
X025728Y021417D02*
D03*
X027303Y02122D02*
D03*
X026516Y021024D02*
D03*
X025728Y020827D02*
D03*
X027303Y02063D02*
D03*
X026516Y020433D02*
D03*
X025728Y020236D02*
D03*
X027303Y020039D02*
D03*
X026516Y019843D02*
D03*
X025728Y019646D02*
D03*
X016319Y024173D02*
D03*
X017894Y023976D02*
D03*
X017106Y02378D02*
D03*
X016319Y023583D02*
D03*
X017894Y023386D02*
D03*
X017106Y023189D02*
D03*
X016319Y022992D02*
D03*
X017894Y022795D02*
D03*
X017106Y022598D02*
D03*
X016319Y022402D02*
D03*
X017894Y022205D02*
D03*
X017106Y022008D02*
D03*
X016319Y021811D02*
D03*
X017894Y021614D02*
D03*
X017106Y021417D02*
D03*
X016319Y02122D02*
D03*
X017894Y021024D02*
D03*
X017106Y020827D02*
D03*
X016319Y02063D02*
D03*
X017894Y020433D02*
D03*
X017106Y020236D02*
D03*
X016319Y020039D02*
D03*
X017894Y019843D02*
D03*
X017106Y019646D02*
D03*
X016319Y019449D02*
D03*
D75*
X027303D02*
D03*
D76*
X024173Y027303D02*
D03*
X023976Y025728D02*
D03*
X02378Y026516D02*
D03*
X023583Y027303D02*
D03*
X023386Y025728D02*
D03*
X023189Y026516D02*
D03*
X022992Y027303D02*
D03*
X022795Y025728D02*
D03*
X022598Y026516D02*
D03*
X022402Y027303D02*
D03*
X022205Y025728D02*
D03*
X022008Y026516D02*
D03*
X021811Y027303D02*
D03*
X021614Y025728D02*
D03*
X021417Y026516D02*
D03*
X02122Y027303D02*
D03*
X021024Y025728D02*
D03*
X020827Y026516D02*
D03*
X02063Y027303D02*
D03*
X020433Y025728D02*
D03*
X020236Y026516D02*
D03*
X020039Y027303D02*
D03*
X019843Y025728D02*
D03*
X019646Y026516D02*
D03*
X019449Y027303D02*
D03*
Y016319D02*
D03*
X019646Y017894D02*
D03*
X019843Y017106D02*
D03*
X020039Y016319D02*
D03*
X020236Y017894D02*
D03*
X020433Y017106D02*
D03*
X02063Y016319D02*
D03*
X020827Y017894D02*
D03*
X021024Y017106D02*
D03*
X02122Y016319D02*
D03*
X021417Y017894D02*
D03*
X021614Y017106D02*
D03*
X021811Y016319D02*
D03*
X022008Y017894D02*
D03*
X022205Y017106D02*
D03*
X022402Y016319D02*
D03*
X022598Y017894D02*
D03*
X022795Y017106D02*
D03*
X022992Y016319D02*
D03*
X023189Y017894D02*
D03*
X023386Y017106D02*
D03*
X023583Y016319D02*
D03*
X02378Y017894D02*
D03*
X023976Y017106D02*
D03*
X024173Y016319D02*
D03*
D77*
X041782Y03151D02*
D03*
X041552Y030985D02*
D03*
X039803Y030994D02*
D03*
X018593Y023839D02*
D03*
Y024252D02*
D03*
X037475Y017972D02*
D03*
Y019744D02*
D03*
X037746Y017972D02*
D03*
Y019744D02*
D03*
X028535Y026766D02*
D03*
X03937Y02188D02*
D03*
X03878Y021881D02*
D03*
X039071D02*
D03*
X040071Y027709D02*
D03*
X04137D02*
D03*
X024173Y020433D02*
D03*
Y020138D02*
D03*
X04062Y01686D02*
D03*
X040718Y022628D02*
D03*
X0117Y015315D02*
D03*
X024855Y022402D02*
D03*
X030256Y017972D02*
D03*
Y018496D02*
D03*
X030257Y018239D02*
D03*
X036978Y01797D02*
D03*
X018593Y020433D02*
D03*
X040294Y03151D02*
D03*
X040718Y022196D02*
D03*
X017106Y017311D02*
D03*
X040718Y01551D02*
D03*
Y015165D02*
D03*
X025574Y027102D02*
D03*
X025571Y027431D02*
D03*
X028533Y028054D02*
D03*
X025571Y028051D02*
D03*
X028533Y027766D02*
D03*
X025571D02*
D03*
X028533Y027431D02*
D03*
X028535Y027102D02*
D03*
X025574Y026766D02*
D03*
X024855Y021705D02*
D03*
M02*
