G04*
G04 #@! TF.GenerationSoftware,Altium Limited,Altium Designer,19.1.1 (5)*
G04*
G04 Layer_Color=8421504*
%FSTAX24Y24*%
%MOIN*%
G70*
G01*
G75*
%ADD11R,0.0787X0.0787*%
%ADD12R,0.0394X0.0591*%
%ADD13R,0.0157X0.0394*%
%ADD14R,0.0197X0.0071*%
%ADD15R,0.0071X0.0197*%
G04:AMPARAMS|DCode=16|XSize=78.7mil|YSize=157.5mil|CornerRadius=19.7mil|HoleSize=0mil|Usage=FLASHONLY|Rotation=270.000|XOffset=0mil|YOffset=0mil|HoleType=Round|Shape=RoundedRectangle|*
%AMROUNDEDRECTD16*
21,1,0.0787,0.1181,0,0,270.0*
21,1,0.0394,0.1575,0,0,270.0*
1,1,0.0394,-0.0591,-0.0197*
1,1,0.0394,-0.0591,0.0197*
1,1,0.0394,0.0591,0.0197*
1,1,0.0394,0.0591,-0.0197*
%
%ADD16ROUNDEDRECTD16*%
%ADD17R,0.0591X0.0276*%
%ADD18R,0.0315X0.0472*%
%ADD19R,0.0488X0.0236*%
%ADD20R,0.0276X0.0394*%
%ADD21R,0.1181X0.0591*%
%ADD22R,0.0236X0.0488*%
%ADD23R,0.0472X0.0315*%
D11*
X066107Y029244D02*
D03*
D12*
X065177Y031987D02*
D03*
X066967D02*
D03*
D13*
X059887Y029395D02*
D03*
X060387D02*
D03*
X060887D02*
D03*
X061387D02*
D03*
X061887D02*
D03*
X062387D02*
D03*
X062887D02*
D03*
X063387D02*
D03*
X063386Y031791D02*
D03*
X062886D02*
D03*
X062386D02*
D03*
X061886D02*
D03*
X061386D02*
D03*
X060886D02*
D03*
X060386D02*
D03*
X059886D02*
D03*
X047907Y029395D02*
D03*
X048407D02*
D03*
X048907D02*
D03*
X049407D02*
D03*
X049907D02*
D03*
X050407D02*
D03*
X050907D02*
D03*
X051407D02*
D03*
X051406Y031791D02*
D03*
X050906D02*
D03*
X050406D02*
D03*
X049906D02*
D03*
X049406D02*
D03*
X048906D02*
D03*
X048406D02*
D03*
X047906D02*
D03*
X034657Y029395D02*
D03*
X035157D02*
D03*
X035657D02*
D03*
X036157D02*
D03*
X036657D02*
D03*
X037157D02*
D03*
X037657D02*
D03*
X038157D02*
D03*
X038156Y031791D02*
D03*
X037656D02*
D03*
X037156D02*
D03*
X036656D02*
D03*
X036156D02*
D03*
X035656D02*
D03*
X035156D02*
D03*
X034656D02*
D03*
X022057Y029395D02*
D03*
X022557D02*
D03*
X023057D02*
D03*
X023557D02*
D03*
X024057D02*
D03*
X024557D02*
D03*
X025057D02*
D03*
X025557D02*
D03*
X025556Y031791D02*
D03*
X025056D02*
D03*
X024556D02*
D03*
X024056D02*
D03*
X023556D02*
D03*
X023056D02*
D03*
X022556D02*
D03*
X022056D02*
D03*
X070238Y029395D02*
D03*
X070738D02*
D03*
X071238D02*
D03*
X071738D02*
D03*
X072238D02*
D03*
X072738D02*
D03*
X073238D02*
D03*
X073738D02*
D03*
X073737Y031791D02*
D03*
X073237D02*
D03*
X072737D02*
D03*
X072237D02*
D03*
X071737D02*
D03*
X071237D02*
D03*
X070737D02*
D03*
X070237D02*
D03*
X076207Y029395D02*
D03*
X076707D02*
D03*
X077207D02*
D03*
X077707D02*
D03*
X078207D02*
D03*
X078707D02*
D03*
X079207D02*
D03*
X079707D02*
D03*
X079706Y031791D02*
D03*
X079206D02*
D03*
X078706D02*
D03*
X078206D02*
D03*
X077706D02*
D03*
X077206D02*
D03*
X076706D02*
D03*
X076206D02*
D03*
D14*
X085613Y031558D02*
D03*
Y031755D02*
D03*
Y031952D02*
D03*
Y032148D02*
D03*
Y032345D02*
D03*
Y032542D02*
D03*
Y032739D02*
D03*
Y032936D02*
D03*
Y033133D02*
D03*
Y03333D02*
D03*
Y033526D02*
D03*
Y033723D02*
D03*
X08896D02*
D03*
Y033526D02*
D03*
Y03333D02*
D03*
Y033133D02*
D03*
Y032936D02*
D03*
Y032739D02*
D03*
Y032542D02*
D03*
Y032345D02*
D03*
Y032148D02*
D03*
Y031952D02*
D03*
Y031755D02*
D03*
Y031558D02*
D03*
D15*
X086204Y034314D02*
D03*
X086401D02*
D03*
X086598D02*
D03*
X086794D02*
D03*
X086991D02*
D03*
X087188D02*
D03*
X087385D02*
D03*
X087582D02*
D03*
X087779D02*
D03*
X087976D02*
D03*
X088172D02*
D03*
X088369D02*
D03*
Y030967D02*
D03*
X088172D02*
D03*
X087976D02*
D03*
X087779D02*
D03*
X087582D02*
D03*
X087385D02*
D03*
X087188D02*
D03*
X086991D02*
D03*
X086794D02*
D03*
X086598D02*
D03*
X086401D02*
D03*
X086204D02*
D03*
D16*
X088457Y027441D02*
D03*
X082316D02*
D03*
D17*
X076868Y03306D02*
D03*
Y034054D02*
D03*
X079545Y034064D02*
D03*
Y03306D02*
D03*
D18*
X08038Y026941D02*
D03*
X079593D02*
D03*
Y028286D02*
D03*
X08038D02*
D03*
D19*
X082949Y035609D02*
D03*
Y036396D02*
D03*
X081987D02*
D03*
Y035609D02*
D03*
X084887Y033778D02*
D03*
Y032991D02*
D03*
D20*
X082181Y031122D02*
D03*
X083087Y031132D02*
D03*
X084002D02*
D03*
D21*
X083087Y033819D02*
D03*
D22*
X08038Y025845D02*
D03*
X079593D02*
D03*
D23*
X075687Y033984D02*
D03*
Y033197D02*
D03*
X084887Y031147D02*
D03*
Y031934D02*
D03*
M02*
