G04*
G04 #@! TF.GenerationSoftware,Altium Limited,Altium Designer,19.1.1 (5)*
G04*
G04 Layer_Color=8388736*
%FSTAX24Y24*%
%MOIN*%
G70*
G01*
G75*
%ADD24R,0.0867X0.0867*%
%ADD25R,0.0474X0.0671*%
%ADD26R,0.0237X0.0474*%
%ADD27R,0.0277X0.0151*%
%ADD28R,0.0151X0.0277*%
G04:AMPARAMS|DCode=29|XSize=86.7mil|YSize=165.5mil|CornerRadius=23.7mil|HoleSize=0mil|Usage=FLASHONLY|Rotation=270.000|XOffset=0mil|YOffset=0mil|HoleType=Round|Shape=RoundedRectangle|*
%AMROUNDEDRECTD29*
21,1,0.0867,0.1181,0,0,270.0*
21,1,0.0394,0.1655,0,0,270.0*
1,1,0.0474,-0.0591,-0.0197*
1,1,0.0474,-0.0591,0.0197*
1,1,0.0474,0.0591,0.0197*
1,1,0.0474,0.0591,-0.0197*
%
%ADD29ROUNDEDRECTD29*%
%ADD30R,0.0671X0.0356*%
%ADD31R,0.0395X0.0552*%
%ADD32R,0.0568X0.0316*%
%ADD33R,0.0356X0.0474*%
%ADD34R,0.1261X0.0671*%
%ADD35R,0.0316X0.0568*%
%ADD36R,0.0552X0.0395*%
%ADD37O,0.0828X0.0671*%
%ADD38R,0.0828X0.0671*%
%ADD39C,0.0671*%
%ADD40R,0.0671X0.0671*%
%ADD41C,0.0552*%
%ADD42O,0.0671X0.1064*%
%ADD43O,0.0316X0.0277*%
%ADD44R,0.0474X0.0474*%
%ADD45C,0.0474*%
%ADD46R,0.0671X0.0671*%
%ADD47C,0.0395*%
D24*
X066107Y029244D02*
D03*
D25*
X065177Y031987D02*
D03*
X066967D02*
D03*
D26*
X059887Y029395D02*
D03*
X060387D02*
D03*
X060887D02*
D03*
X061387D02*
D03*
X061887D02*
D03*
X062387D02*
D03*
X062887D02*
D03*
X063387D02*
D03*
X063386Y031791D02*
D03*
X062886D02*
D03*
X062386D02*
D03*
X061886D02*
D03*
X061386D02*
D03*
X060886D02*
D03*
X060386D02*
D03*
X059886D02*
D03*
X047907Y029395D02*
D03*
X048407D02*
D03*
X048907D02*
D03*
X049407D02*
D03*
X049907D02*
D03*
X050407D02*
D03*
X050907D02*
D03*
X051407D02*
D03*
X051406Y031791D02*
D03*
X050906D02*
D03*
X050406D02*
D03*
X049906D02*
D03*
X049406D02*
D03*
X048906D02*
D03*
X048406D02*
D03*
X047906D02*
D03*
X034657Y029395D02*
D03*
X035157D02*
D03*
X035657D02*
D03*
X036157D02*
D03*
X036657D02*
D03*
X037157D02*
D03*
X037657D02*
D03*
X038157D02*
D03*
X038156Y031791D02*
D03*
X037656D02*
D03*
X037156D02*
D03*
X036656D02*
D03*
X036156D02*
D03*
X035656D02*
D03*
X035156D02*
D03*
X034656D02*
D03*
X022057Y029395D02*
D03*
X022557D02*
D03*
X023057D02*
D03*
X023557D02*
D03*
X024057D02*
D03*
X024557D02*
D03*
X025057D02*
D03*
X025557D02*
D03*
X025556Y031791D02*
D03*
X025056D02*
D03*
X024556D02*
D03*
X024056D02*
D03*
X023556D02*
D03*
X023056D02*
D03*
X022556D02*
D03*
X022056D02*
D03*
X070238Y029395D02*
D03*
X070738D02*
D03*
X071238D02*
D03*
X071738D02*
D03*
X072238D02*
D03*
X072738D02*
D03*
X073238D02*
D03*
X073738D02*
D03*
X073737Y031791D02*
D03*
X073237D02*
D03*
X072737D02*
D03*
X072237D02*
D03*
X071737D02*
D03*
X071237D02*
D03*
X070737D02*
D03*
X070237D02*
D03*
X076207Y029395D02*
D03*
X076707D02*
D03*
X077207D02*
D03*
X077707D02*
D03*
X078207D02*
D03*
X078707D02*
D03*
X079207D02*
D03*
X079707D02*
D03*
X079706Y031791D02*
D03*
X079206D02*
D03*
X078706D02*
D03*
X078206D02*
D03*
X077706D02*
D03*
X077206D02*
D03*
X076706D02*
D03*
X076206D02*
D03*
D27*
X085613Y031558D02*
D03*
Y031755D02*
D03*
Y031952D02*
D03*
Y032148D02*
D03*
Y032345D02*
D03*
Y032542D02*
D03*
Y032739D02*
D03*
Y032936D02*
D03*
Y033133D02*
D03*
Y03333D02*
D03*
Y033526D02*
D03*
Y033723D02*
D03*
X08896D02*
D03*
Y033526D02*
D03*
Y03333D02*
D03*
Y033133D02*
D03*
Y032936D02*
D03*
Y032739D02*
D03*
Y032542D02*
D03*
Y032345D02*
D03*
Y032148D02*
D03*
Y031952D02*
D03*
Y031755D02*
D03*
Y031558D02*
D03*
D28*
X086204Y034314D02*
D03*
X086401D02*
D03*
X086598D02*
D03*
X086794D02*
D03*
X086991D02*
D03*
X087188D02*
D03*
X087385D02*
D03*
X087582D02*
D03*
X087779D02*
D03*
X087976D02*
D03*
X088172D02*
D03*
X088369D02*
D03*
Y030967D02*
D03*
X088172D02*
D03*
X087976D02*
D03*
X087779D02*
D03*
X087582D02*
D03*
X087385D02*
D03*
X087188D02*
D03*
X086991D02*
D03*
X086794D02*
D03*
X086598D02*
D03*
X086401D02*
D03*
X086204D02*
D03*
D29*
X088457Y027441D02*
D03*
X082316D02*
D03*
D30*
X076868Y03306D02*
D03*
Y034054D02*
D03*
X079545Y034064D02*
D03*
Y03306D02*
D03*
D31*
X08038Y026941D02*
D03*
X079593D02*
D03*
Y028286D02*
D03*
X08038D02*
D03*
D32*
X082949Y035609D02*
D03*
Y036396D02*
D03*
X081987D02*
D03*
Y035609D02*
D03*
X084887Y033778D02*
D03*
Y032991D02*
D03*
D33*
X082181Y031122D02*
D03*
X083087Y031132D02*
D03*
X084002D02*
D03*
D34*
X083087Y033819D02*
D03*
D35*
X08038Y025845D02*
D03*
X079593D02*
D03*
D36*
X075687Y033984D02*
D03*
Y033197D02*
D03*
X084887Y031147D02*
D03*
Y031934D02*
D03*
D37*
X092556Y026712D02*
D03*
Y024941D02*
D03*
X089997D02*
D03*
Y027791D02*
D03*
X092556D02*
D03*
Y029562D02*
D03*
X089997Y030669D02*
D03*
X092556D02*
D03*
Y032441D02*
D03*
Y035298D02*
D03*
X089997D02*
D03*
Y033526D02*
D03*
D38*
Y026712D02*
D03*
Y029562D02*
D03*
Y032441D02*
D03*
X092556Y033526D02*
D03*
D39*
X091187Y036396D02*
D03*
X093652Y029541D02*
D03*
Y028541D02*
D03*
Y027541D02*
D03*
Y030541D02*
D03*
D40*
X092187Y036396D02*
D03*
D41*
X083898Y035791D02*
D03*
X085237D02*
D03*
D42*
X088334Y035687D02*
D03*
X087334D02*
D03*
X086334D02*
D03*
D43*
X078784Y027816D02*
D03*
Y027541D02*
D03*
D44*
X071417Y026046D02*
D03*
X033587Y026042D02*
D03*
X058787D02*
D03*
X046187D02*
D03*
X020987D02*
D03*
D45*
X072417Y026046D02*
D03*
X073417D02*
D03*
X074417D02*
D03*
X075417D02*
D03*
X076417D02*
D03*
X077417D02*
D03*
X078417D02*
D03*
Y035495D02*
D03*
X077417D02*
D03*
X076417D02*
D03*
X075417D02*
D03*
X074417D02*
D03*
X073417D02*
D03*
X072417D02*
D03*
X071417D02*
D03*
X033587Y035491D02*
D03*
X034587D02*
D03*
X035587D02*
D03*
X036587D02*
D03*
X037587D02*
D03*
X038587D02*
D03*
X039587D02*
D03*
X040587D02*
D03*
Y026042D02*
D03*
X039587D02*
D03*
X038587D02*
D03*
X037587D02*
D03*
X036587D02*
D03*
X035587D02*
D03*
X034587D02*
D03*
X058787Y035491D02*
D03*
X059787D02*
D03*
X060787D02*
D03*
X061787D02*
D03*
X062787D02*
D03*
X063787D02*
D03*
X064787D02*
D03*
X065787D02*
D03*
Y026042D02*
D03*
X064787D02*
D03*
X063787D02*
D03*
X062787D02*
D03*
X061787D02*
D03*
X060787D02*
D03*
X059787D02*
D03*
X046187Y035491D02*
D03*
X047187D02*
D03*
X048187D02*
D03*
X049187D02*
D03*
X050187D02*
D03*
X051187D02*
D03*
X052187D02*
D03*
X053187D02*
D03*
Y026042D02*
D03*
X052187D02*
D03*
X051187D02*
D03*
X050187D02*
D03*
X049187D02*
D03*
X048187D02*
D03*
X047187D02*
D03*
X020987Y035491D02*
D03*
X021987D02*
D03*
X022987D02*
D03*
X023987D02*
D03*
X024987D02*
D03*
X025987D02*
D03*
X026987D02*
D03*
X027987D02*
D03*
Y026042D02*
D03*
X026987D02*
D03*
X025987D02*
D03*
X024987D02*
D03*
X023987D02*
D03*
X022987D02*
D03*
X021987D02*
D03*
D46*
X093652Y026541D02*
D03*
D47*
X037666Y031162D02*
D03*
X07545Y029405D02*
D03*
X088039Y029685D02*
D03*
X075387Y032401D02*
D03*
X083673Y030022D02*
D03*
X083652Y032293D02*
D03*
X083091Y034685D02*
D03*
X081152Y034412D02*
D03*
X071659Y033486D02*
D03*
X074785Y033984D02*
D03*
X089308Y031147D02*
D03*
X087777Y033623D02*
D03*
X089308Y034481D02*
D03*
X088788Y034215D02*
D03*
X086847Y033896D02*
D03*
X091594Y028541D02*
D03*
X085807Y028967D02*
D03*
X086252Y032739D02*
D03*
X087146Y029685D02*
D03*
X036156Y030954D02*
D03*
X072748Y030778D02*
D03*
X071737Y030413D02*
D03*
X073232Y031201D02*
D03*
X07722Y032401D02*
D03*
X062886Y031201D02*
D03*
X035656Y032581D02*
D03*
X025556Y032581D02*
D03*
X023556Y03304D02*
D03*
X063387Y030031D02*
D03*
X051407D02*
D03*
X049414Y030881D02*
D03*
X078708Y031063D02*
D03*
X077694Y030611D02*
D03*
X076868Y034764D02*
D03*
X082231Y034751D02*
D03*
X081528Y035129D02*
D03*
X079206Y032498D02*
D03*
X079019Y035951D02*
D03*
X023478Y034881D02*
D03*
X086252Y032047D02*
D03*
X046187Y034261D02*
D03*
X059557Y033885D02*
D03*
X061886Y032639D02*
D03*
X057557Y034261D02*
D03*
X071217Y032941D02*
D03*
X036656Y032741D02*
D03*
X049906D02*
D03*
X024056Y033581D02*
D03*
X036656D02*
D03*
X037156Y030591D02*
D03*
X050906Y031041D02*
D03*
X036156Y033041D02*
D03*
X060807Y030871D02*
D03*
X071737Y031321D02*
D03*
X070237Y032401D02*
D03*
X079017Y035271D02*
D03*
X091377Y031931D02*
D03*
X079477Y035581D02*
D03*
X076707Y029921D02*
D03*
X072237Y033981D02*
D03*
X033967Y033921D02*
D03*
X047907Y033911D02*
D03*
X048527Y030311D02*
D03*
X039357D02*
D03*
X038157Y030031D02*
D03*
X062386Y030591D02*
D03*
X050406D02*
D03*
X033587Y034261D02*
D03*
M02*
