G04*
G04 #@! TF.GenerationSoftware,Altium Limited,Altium Designer,19.1.1 (5)*
G04*
G04 Layer_Color=2752767*
%FSTAX24Y24*%
%MOIN*%
G70*
G01*
G75*
%ADD60C,0.0020*%
%ADD61C,0.0027*%
D60*
X092476Y026632D02*
Y026792D01*
X092636D01*
Y026632D01*
X092476D01*
Y024861D02*
Y025021D01*
X092636D01*
Y024861D01*
X092476D01*
X089917Y026632D02*
Y026792D01*
X090077D01*
Y026632D01*
X089917D01*
Y024861D02*
Y025021D01*
X090077D01*
Y024861D01*
X089917D01*
X083898Y035711D02*
X083818Y035871D01*
X083978D01*
X083898Y035711D01*
X085237D02*
X085157Y035871D01*
X085317D01*
X085237Y035711D01*
X088334Y035607D02*
X088254Y035767D01*
X088414D01*
X088334Y035607D01*
X087334D02*
X087254Y035767D01*
X087414D01*
X087334Y035607D01*
X086334D02*
X086254Y035767D01*
X086414D01*
X086334Y035607D01*
X078784Y027736D02*
X078824Y027776D01*
X078864D01*
X078824Y027816D01*
X078864Y027856D01*
X078824D01*
X078784Y027896D01*
X078744Y027856D01*
X078704D01*
X078744Y027816D01*
X078704Y027776D01*
X078744D01*
X078784Y027736D01*
Y027461D02*
X078824Y027501D01*
X078864D01*
X078824Y027541D01*
X078864Y027581D01*
X078824D01*
X078784Y027621D01*
X078744Y027581D01*
X078704D01*
X078744Y027541D01*
X078704Y027501D01*
X078744D01*
X078784Y027461D01*
X071337Y025966D02*
X071377Y026046D01*
X071337Y026126D01*
X071417Y026086D01*
X071497Y026126D01*
X071457Y026046D01*
X071497Y025966D01*
X071417Y026006D01*
X071337Y025966D01*
X072337D02*
X072377Y026046D01*
X072337Y026126D01*
X072417Y026086D01*
X072497Y026126D01*
X072457Y026046D01*
X072497Y025966D01*
X072417Y026006D01*
X072337Y025966D01*
X073337D02*
X073377Y026046D01*
X073337Y026126D01*
X073417Y026086D01*
X073497Y026126D01*
X073457Y026046D01*
X073497Y025966D01*
X073417Y026006D01*
X073337Y025966D01*
X074337D02*
X074377Y026046D01*
X074337Y026126D01*
X074417Y026086D01*
X074497Y026126D01*
X074457Y026046D01*
X074497Y025966D01*
X074417Y026006D01*
X074337Y025966D01*
X075337D02*
X075377Y026046D01*
X075337Y026126D01*
X075417Y026086D01*
X075497Y026126D01*
X075457Y026046D01*
X075497Y025966D01*
X075417Y026006D01*
X075337Y025966D01*
X076337D02*
X076377Y026046D01*
X076337Y026126D01*
X076417Y026086D01*
X076497Y026126D01*
X076457Y026046D01*
X076497Y025966D01*
X076417Y026006D01*
X076337Y025966D01*
X077337D02*
X077377Y026046D01*
X077337Y026126D01*
X077417Y026086D01*
X077497Y026126D01*
X077457Y026046D01*
X077497Y025966D01*
X077417Y026006D01*
X077337Y025966D01*
X078337D02*
X078377Y026046D01*
X078337Y026126D01*
X078417Y026086D01*
X078497Y026126D01*
X078457Y026046D01*
X078497Y025966D01*
X078417Y026006D01*
X078337Y025966D01*
Y035415D02*
X078377Y035495D01*
X078337Y035575D01*
X078417Y035535D01*
X078497Y035575D01*
X078457Y035495D01*
X078497Y035415D01*
X078417Y035455D01*
X078337Y035415D01*
X077337D02*
X077377Y035495D01*
X077337Y035575D01*
X077417Y035535D01*
X077497Y035575D01*
X077457Y035495D01*
X077497Y035415D01*
X077417Y035455D01*
X077337Y035415D01*
X076337D02*
X076377Y035495D01*
X076337Y035575D01*
X076417Y035535D01*
X076497Y035575D01*
X076457Y035495D01*
X076497Y035415D01*
X076417Y035455D01*
X076337Y035415D01*
X075337D02*
X075377Y035495D01*
X075337Y035575D01*
X075417Y035535D01*
X075497Y035575D01*
X075457Y035495D01*
X075497Y035415D01*
X075417Y035455D01*
X075337Y035415D01*
X074337D02*
X074377Y035495D01*
X074337Y035575D01*
X074417Y035535D01*
X074497Y035575D01*
X074457Y035495D01*
X074497Y035415D01*
X074417Y035455D01*
X074337Y035415D01*
X073337D02*
X073377Y035495D01*
X073337Y035575D01*
X073417Y035535D01*
X073497Y035575D01*
X073457Y035495D01*
X073497Y035415D01*
X073417Y035455D01*
X073337Y035415D01*
X072337D02*
X072377Y035495D01*
X072337Y035575D01*
X072417Y035535D01*
X072497Y035575D01*
X072457Y035495D01*
X072497Y035415D01*
X072417Y035455D01*
X072337Y035415D01*
X071337D02*
X071377Y035495D01*
X071337Y035575D01*
X071417Y035535D01*
X071497Y035575D01*
X071457Y035495D01*
X071497Y035415D01*
X071417Y035455D01*
X071337Y035415D01*
X033507Y035411D02*
X033547Y035491D01*
X033507Y035571D01*
X033587Y035531D01*
X033667Y035571D01*
X033627Y035491D01*
X033667Y035411D01*
X033587Y035451D01*
X033507Y035411D01*
X034507D02*
X034547Y035491D01*
X034507Y035571D01*
X034587Y035531D01*
X034667Y035571D01*
X034627Y035491D01*
X034667Y035411D01*
X034587Y035451D01*
X034507Y035411D01*
X035507D02*
X035547Y035491D01*
X035507Y035571D01*
X035587Y035531D01*
X035667Y035571D01*
X035627Y035491D01*
X035667Y035411D01*
X035587Y035451D01*
X035507Y035411D01*
X036507D02*
X036547Y035491D01*
X036507Y035571D01*
X036587Y035531D01*
X036667Y035571D01*
X036627Y035491D01*
X036667Y035411D01*
X036587Y035451D01*
X036507Y035411D01*
X037507D02*
X037547Y035491D01*
X037507Y035571D01*
X037587Y035531D01*
X037667Y035571D01*
X037627Y035491D01*
X037667Y035411D01*
X037587Y035451D01*
X037507Y035411D01*
X038507D02*
X038547Y035491D01*
X038507Y035571D01*
X038587Y035531D01*
X038667Y035571D01*
X038627Y035491D01*
X038667Y035411D01*
X038587Y035451D01*
X038507Y035411D01*
X039507D02*
X039547Y035491D01*
X039507Y035571D01*
X039587Y035531D01*
X039667Y035571D01*
X039627Y035491D01*
X039667Y035411D01*
X039587Y035451D01*
X039507Y035411D01*
X040507D02*
X040547Y035491D01*
X040507Y035571D01*
X040587Y035531D01*
X040667Y035571D01*
X040627Y035491D01*
X040667Y035411D01*
X040587Y035451D01*
X040507Y035411D01*
Y025962D02*
X040547Y026042D01*
X040507Y026122D01*
X040587Y026082D01*
X040667Y026122D01*
X040627Y026042D01*
X040667Y025962D01*
X040587Y026002D01*
X040507Y025962D01*
X039507D02*
X039547Y026042D01*
X039507Y026122D01*
X039587Y026082D01*
X039667Y026122D01*
X039627Y026042D01*
X039667Y025962D01*
X039587Y026002D01*
X039507Y025962D01*
X038507D02*
X038547Y026042D01*
X038507Y026122D01*
X038587Y026082D01*
X038667Y026122D01*
X038627Y026042D01*
X038667Y025962D01*
X038587Y026002D01*
X038507Y025962D01*
X037507D02*
X037547Y026042D01*
X037507Y026122D01*
X037587Y026082D01*
X037667Y026122D01*
X037627Y026042D01*
X037667Y025962D01*
X037587Y026002D01*
X037507Y025962D01*
X036507D02*
X036547Y026042D01*
X036507Y026122D01*
X036587Y026082D01*
X036667Y026122D01*
X036627Y026042D01*
X036667Y025962D01*
X036587Y026002D01*
X036507Y025962D01*
X035507D02*
X035547Y026042D01*
X035507Y026122D01*
X035587Y026082D01*
X035667Y026122D01*
X035627Y026042D01*
X035667Y025962D01*
X035587Y026002D01*
X035507Y025962D01*
X034507D02*
X034547Y026042D01*
X034507Y026122D01*
X034587Y026082D01*
X034667Y026122D01*
X034627Y026042D01*
X034667Y025962D01*
X034587Y026002D01*
X034507Y025962D01*
X033507D02*
X033547Y026042D01*
X033507Y026122D01*
X033587Y026082D01*
X033667Y026122D01*
X033627Y026042D01*
X033667Y025962D01*
X033587Y026002D01*
X033507Y025962D01*
X089917Y027711D02*
Y027871D01*
X090077D01*
Y027711D01*
X089917D01*
Y029482D02*
Y029642D01*
X090077D01*
Y029482D01*
X089917D01*
X092476Y027711D02*
Y027871D01*
X092636D01*
Y027711D01*
X092476D01*
Y029482D02*
Y029642D01*
X092636D01*
Y029482D01*
X092476D01*
X089917Y030589D02*
Y030749D01*
X090077D01*
Y030589D01*
X089917D01*
Y032361D02*
Y032521D01*
X090077D01*
Y032361D01*
X089917D01*
X092476Y030589D02*
Y030749D01*
X092636D01*
Y030589D01*
X092476D01*
Y032361D02*
Y032521D01*
X092636D01*
Y032361D01*
X092476D01*
X058707Y035411D02*
X058747Y035491D01*
X058707Y035571D01*
X058787Y035531D01*
X058867Y035571D01*
X058827Y035491D01*
X058867Y035411D01*
X058787Y035451D01*
X058707Y035411D01*
X059707D02*
X059747Y035491D01*
X059707Y035571D01*
X059787Y035531D01*
X059867Y035571D01*
X059827Y035491D01*
X059867Y035411D01*
X059787Y035451D01*
X059707Y035411D01*
X060707D02*
X060747Y035491D01*
X060707Y035571D01*
X060787Y035531D01*
X060867Y035571D01*
X060827Y035491D01*
X060867Y035411D01*
X060787Y035451D01*
X060707Y035411D01*
X061707D02*
X061747Y035491D01*
X061707Y035571D01*
X061787Y035531D01*
X061867Y035571D01*
X061827Y035491D01*
X061867Y035411D01*
X061787Y035451D01*
X061707Y035411D01*
X062707D02*
X062747Y035491D01*
X062707Y035571D01*
X062787Y035531D01*
X062867Y035571D01*
X062827Y035491D01*
X062867Y035411D01*
X062787Y035451D01*
X062707Y035411D01*
X063707D02*
X063747Y035491D01*
X063707Y035571D01*
X063787Y035531D01*
X063867Y035571D01*
X063827Y035491D01*
X063867Y035411D01*
X063787Y035451D01*
X063707Y035411D01*
X064707D02*
X064747Y035491D01*
X064707Y035571D01*
X064787Y035531D01*
X064867Y035571D01*
X064827Y035491D01*
X064867Y035411D01*
X064787Y035451D01*
X064707Y035411D01*
X065707D02*
X065747Y035491D01*
X065707Y035571D01*
X065787Y035531D01*
X065867Y035571D01*
X065827Y035491D01*
X065867Y035411D01*
X065787Y035451D01*
X065707Y035411D01*
Y025962D02*
X065747Y026042D01*
X065707Y026122D01*
X065787Y026082D01*
X065867Y026122D01*
X065827Y026042D01*
X065867Y025962D01*
X065787Y026002D01*
X065707Y025962D01*
X064707D02*
X064747Y026042D01*
X064707Y026122D01*
X064787Y026082D01*
X064867Y026122D01*
X064827Y026042D01*
X064867Y025962D01*
X064787Y026002D01*
X064707Y025962D01*
X063707D02*
X063747Y026042D01*
X063707Y026122D01*
X063787Y026082D01*
X063867Y026122D01*
X063827Y026042D01*
X063867Y025962D01*
X063787Y026002D01*
X063707Y025962D01*
X062707D02*
X062747Y026042D01*
X062707Y026122D01*
X062787Y026082D01*
X062867Y026122D01*
X062827Y026042D01*
X062867Y025962D01*
X062787Y026002D01*
X062707Y025962D01*
X061707D02*
X061747Y026042D01*
X061707Y026122D01*
X061787Y026082D01*
X061867Y026122D01*
X061827Y026042D01*
X061867Y025962D01*
X061787Y026002D01*
X061707Y025962D01*
X060707D02*
X060747Y026042D01*
X060707Y026122D01*
X060787Y026082D01*
X060867Y026122D01*
X060827Y026042D01*
X060867Y025962D01*
X060787Y026002D01*
X060707Y025962D01*
X059707D02*
X059747Y026042D01*
X059707Y026122D01*
X059787Y026082D01*
X059867Y026122D01*
X059827Y026042D01*
X059867Y025962D01*
X059787Y026002D01*
X059707Y025962D01*
X058707D02*
X058747Y026042D01*
X058707Y026122D01*
X058787Y026082D01*
X058867Y026122D01*
X058827Y026042D01*
X058867Y025962D01*
X058787Y026002D01*
X058707Y025962D01*
X046107Y035411D02*
X046147Y035491D01*
X046107Y035571D01*
X046187Y035531D01*
X046267Y035571D01*
X046227Y035491D01*
X046267Y035411D01*
X046187Y035451D01*
X046107Y035411D01*
X047107D02*
X047147Y035491D01*
X047107Y035571D01*
X047187Y035531D01*
X047267Y035571D01*
X047227Y035491D01*
X047267Y035411D01*
X047187Y035451D01*
X047107Y035411D01*
X048107D02*
X048147Y035491D01*
X048107Y035571D01*
X048187Y035531D01*
X048267Y035571D01*
X048227Y035491D01*
X048267Y035411D01*
X048187Y035451D01*
X048107Y035411D01*
X049107D02*
X049147Y035491D01*
X049107Y035571D01*
X049187Y035531D01*
X049267Y035571D01*
X049227Y035491D01*
X049267Y035411D01*
X049187Y035451D01*
X049107Y035411D01*
X050107D02*
X050147Y035491D01*
X050107Y035571D01*
X050187Y035531D01*
X050267Y035571D01*
X050227Y035491D01*
X050267Y035411D01*
X050187Y035451D01*
X050107Y035411D01*
X051107D02*
X051147Y035491D01*
X051107Y035571D01*
X051187Y035531D01*
X051267Y035571D01*
X051227Y035491D01*
X051267Y035411D01*
X051187Y035451D01*
X051107Y035411D01*
X052107D02*
X052147Y035491D01*
X052107Y035571D01*
X052187Y035531D01*
X052267Y035571D01*
X052227Y035491D01*
X052267Y035411D01*
X052187Y035451D01*
X052107Y035411D01*
X053107D02*
X053147Y035491D01*
X053107Y035571D01*
X053187Y035531D01*
X053267Y035571D01*
X053227Y035491D01*
X053267Y035411D01*
X053187Y035451D01*
X053107Y035411D01*
Y025962D02*
X053147Y026042D01*
X053107Y026122D01*
X053187Y026082D01*
X053267Y026122D01*
X053227Y026042D01*
X053267Y025962D01*
X053187Y026002D01*
X053107Y025962D01*
X052107D02*
X052147Y026042D01*
X052107Y026122D01*
X052187Y026082D01*
X052267Y026122D01*
X052227Y026042D01*
X052267Y025962D01*
X052187Y026002D01*
X052107Y025962D01*
X051107D02*
X051147Y026042D01*
X051107Y026122D01*
X051187Y026082D01*
X051267Y026122D01*
X051227Y026042D01*
X051267Y025962D01*
X051187Y026002D01*
X051107Y025962D01*
X050107D02*
X050147Y026042D01*
X050107Y026122D01*
X050187Y026082D01*
X050267Y026122D01*
X050227Y026042D01*
X050267Y025962D01*
X050187Y026002D01*
X050107Y025962D01*
X049107D02*
X049147Y026042D01*
X049107Y026122D01*
X049187Y026082D01*
X049267Y026122D01*
X049227Y026042D01*
X049267Y025962D01*
X049187Y026002D01*
X049107Y025962D01*
X048107D02*
X048147Y026042D01*
X048107Y026122D01*
X048187Y026082D01*
X048267Y026122D01*
X048227Y026042D01*
X048267Y025962D01*
X048187Y026002D01*
X048107Y025962D01*
X047107D02*
X047147Y026042D01*
X047107Y026122D01*
X047187Y026082D01*
X047267Y026122D01*
X047227Y026042D01*
X047267Y025962D01*
X047187Y026002D01*
X047107Y025962D01*
X046107D02*
X046147Y026042D01*
X046107Y026122D01*
X046187Y026082D01*
X046267Y026122D01*
X046227Y026042D01*
X046267Y025962D01*
X046187Y026002D01*
X046107Y025962D01*
X020907Y035411D02*
X020947Y035491D01*
X020907Y035571D01*
X020987Y035531D01*
X021067Y035571D01*
X021027Y035491D01*
X021067Y035411D01*
X020987Y035451D01*
X020907Y035411D01*
X021907D02*
X021947Y035491D01*
X021907Y035571D01*
X021987Y035531D01*
X022067Y035571D01*
X022027Y035491D01*
X022067Y035411D01*
X021987Y035451D01*
X021907Y035411D01*
X022907D02*
X022947Y035491D01*
X022907Y035571D01*
X022987Y035531D01*
X023067Y035571D01*
X023027Y035491D01*
X023067Y035411D01*
X022987Y035451D01*
X022907Y035411D01*
X023907D02*
X023947Y035491D01*
X023907Y035571D01*
X023987Y035531D01*
X024067Y035571D01*
X024027Y035491D01*
X024067Y035411D01*
X023987Y035451D01*
X023907Y035411D01*
X024907D02*
X024947Y035491D01*
X024907Y035571D01*
X024987Y035531D01*
X025067Y035571D01*
X025027Y035491D01*
X025067Y035411D01*
X024987Y035451D01*
X024907Y035411D01*
X025907D02*
X025947Y035491D01*
X025907Y035571D01*
X025987Y035531D01*
X026067Y035571D01*
X026027Y035491D01*
X026067Y035411D01*
X025987Y035451D01*
X025907Y035411D01*
X026907D02*
X026947Y035491D01*
X026907Y035571D01*
X026987Y035531D01*
X027067Y035571D01*
X027027Y035491D01*
X027067Y035411D01*
X026987Y035451D01*
X026907Y035411D01*
X027907D02*
X027947Y035491D01*
X027907Y035571D01*
X027987Y035531D01*
X028067Y035571D01*
X028027Y035491D01*
X028067Y035411D01*
X027987Y035451D01*
X027907Y035411D01*
Y025962D02*
X027947Y026042D01*
X027907Y026122D01*
X027987Y026082D01*
X028067Y026122D01*
X028027Y026042D01*
X028067Y025962D01*
X027987Y026002D01*
X027907Y025962D01*
X026907D02*
X026947Y026042D01*
X026907Y026122D01*
X026987Y026082D01*
X027067Y026122D01*
X027027Y026042D01*
X027067Y025962D01*
X026987Y026002D01*
X026907Y025962D01*
X025907D02*
X025947Y026042D01*
X025907Y026122D01*
X025987Y026082D01*
X026067Y026122D01*
X026027Y026042D01*
X026067Y025962D01*
X025987Y026002D01*
X025907Y025962D01*
X024907D02*
X024947Y026042D01*
X024907Y026122D01*
X024987Y026082D01*
X025067Y026122D01*
X025027Y026042D01*
X025067Y025962D01*
X024987Y026002D01*
X024907Y025962D01*
X023907D02*
X023947Y026042D01*
X023907Y026122D01*
X023987Y026082D01*
X024067Y026122D01*
X024027Y026042D01*
X024067Y025962D01*
X023987Y026002D01*
X023907Y025962D01*
X022907D02*
X022947Y026042D01*
X022907Y026122D01*
X022987Y026082D01*
X023067Y026122D01*
X023027Y026042D01*
X023067Y025962D01*
X022987Y026002D01*
X022907Y025962D01*
X021907D02*
X021947Y026042D01*
X021907Y026122D01*
X021987Y026082D01*
X022067Y026122D01*
X022027Y026042D01*
X022067Y025962D01*
X021987Y026002D01*
X021907Y025962D01*
X020907D02*
X020947Y026042D01*
X020907Y026122D01*
X020987Y026082D01*
X021067Y026122D01*
X021027Y026042D01*
X021067Y025962D01*
X020987Y026002D01*
X020907Y025962D01*
X092476Y035218D02*
Y035378D01*
X092636D01*
Y035218D01*
X092476D01*
Y033446D02*
Y033606D01*
X092636D01*
Y033446D01*
X092476D01*
X089917Y035218D02*
Y035378D01*
X090077D01*
Y035218D01*
X089917D01*
Y033446D02*
Y033606D01*
X090077D01*
Y033446D01*
X089917D01*
X037626Y031122D02*
Y031082D01*
X037706D01*
Y031122D01*
X037746D01*
Y031202D01*
X037706D01*
Y031242D01*
X037626D01*
Y031202D01*
X037586D01*
Y031122D01*
X037626D01*
X07541Y029365D02*
Y029325D01*
X07549D01*
Y029365D01*
X07553D01*
Y029445D01*
X07549D01*
Y029485D01*
X07541D01*
Y029445D01*
X07537D01*
Y029365D01*
X07541D01*
X087999Y029645D02*
Y029605D01*
X088079D01*
Y029645D01*
X088119D01*
Y029725D01*
X088079D01*
Y029765D01*
X087999D01*
Y029725D01*
X087959D01*
Y029645D01*
X087999D01*
X075347Y032361D02*
Y032321D01*
X075427D01*
Y032361D01*
X075467D01*
Y032441D01*
X075427D01*
Y032481D01*
X075347D01*
Y032441D01*
X075307D01*
Y032361D01*
X075347D01*
X083633Y029982D02*
Y029942D01*
X083713D01*
Y029982D01*
X083753D01*
Y030062D01*
X083713D01*
Y030102D01*
X083633D01*
Y030062D01*
X083593D01*
Y029982D01*
X083633D01*
X083612Y032253D02*
Y032213D01*
X083692D01*
Y032253D01*
X083732D01*
Y032333D01*
X083692D01*
Y032373D01*
X083612D01*
Y032333D01*
X083572D01*
Y032253D01*
X083612D01*
X083051Y034645D02*
Y034605D01*
X083131D01*
Y034645D01*
X083171D01*
Y034725D01*
X083131D01*
Y034765D01*
X083051D01*
Y034725D01*
X083011D01*
Y034645D01*
X083051D01*
X081112Y034372D02*
Y034332D01*
X081192D01*
Y034372D01*
X081232D01*
Y034452D01*
X081192D01*
Y034492D01*
X081112D01*
Y034452D01*
X081072D01*
Y034372D01*
X081112D01*
X071619Y033446D02*
Y033406D01*
X071699D01*
Y033446D01*
X071739D01*
Y033526D01*
X071699D01*
Y033566D01*
X071619D01*
Y033526D01*
X071579D01*
Y033446D01*
X071619D01*
X074745Y033944D02*
Y033904D01*
X074825D01*
Y033944D01*
X074865D01*
Y034024D01*
X074825D01*
Y034064D01*
X074745D01*
Y034024D01*
X074705D01*
Y033944D01*
X074745D01*
X089268Y031107D02*
Y031067D01*
X089348D01*
Y031107D01*
X089388D01*
Y031187D01*
X089348D01*
Y031227D01*
X089268D01*
Y031187D01*
X089228D01*
Y031107D01*
X089268D01*
X087737Y033583D02*
Y033543D01*
X087817D01*
Y033583D01*
X087857D01*
Y033663D01*
X087817D01*
Y033703D01*
X087737D01*
Y033663D01*
X087697D01*
Y033583D01*
X087737D01*
X089268Y034441D02*
Y034401D01*
X089348D01*
Y034441D01*
X089388D01*
Y034521D01*
X089348D01*
Y034561D01*
X089268D01*
Y034521D01*
X089228D01*
Y034441D01*
X089268D01*
X088748Y034175D02*
Y034135D01*
X088828D01*
Y034175D01*
X088868D01*
Y034255D01*
X088828D01*
Y034295D01*
X088748D01*
Y034255D01*
X088708D01*
Y034175D01*
X088748D01*
X086807Y033856D02*
Y033816D01*
X086887D01*
Y033856D01*
X086927D01*
Y033936D01*
X086887D01*
Y033976D01*
X086807D01*
Y033936D01*
X086767D01*
Y033856D01*
X086807D01*
X091554Y028501D02*
Y028461D01*
X091634D01*
Y028501D01*
X091674D01*
Y028581D01*
X091634D01*
Y028621D01*
X091554D01*
Y028581D01*
X091514D01*
Y028501D01*
X091554D01*
X085767Y028927D02*
Y028887D01*
X085847D01*
Y028927D01*
X085887D01*
Y029007D01*
X085847D01*
Y029047D01*
X085767D01*
Y029007D01*
X085727D01*
Y028927D01*
X085767D01*
X086212Y032699D02*
Y032659D01*
X086292D01*
Y032699D01*
X086332D01*
Y032779D01*
X086292D01*
Y032819D01*
X086212D01*
Y032779D01*
X086172D01*
Y032699D01*
X086212D01*
X087106Y029645D02*
Y029605D01*
X087186D01*
Y029645D01*
X087226D01*
Y029725D01*
X087186D01*
Y029765D01*
X087106D01*
Y029725D01*
X087066D01*
Y029645D01*
X087106D01*
X036116Y030914D02*
Y030874D01*
X036196D01*
Y030914D01*
X036236D01*
Y030994D01*
X036196D01*
Y031034D01*
X036116D01*
Y030994D01*
X036076D01*
Y030914D01*
X036116D01*
X072708Y030738D02*
Y030698D01*
X072788D01*
Y030738D01*
X072828D01*
Y030818D01*
X072788D01*
Y030858D01*
X072708D01*
Y030818D01*
X072668D01*
Y030738D01*
X072708D01*
X071697Y030373D02*
Y030333D01*
X071777D01*
Y030373D01*
X071817D01*
Y030453D01*
X071777D01*
Y030493D01*
X071697D01*
Y030453D01*
X071657D01*
Y030373D01*
X071697D01*
X073192Y031161D02*
Y031121D01*
X073272D01*
Y031161D01*
X073312D01*
Y031241D01*
X073272D01*
Y031281D01*
X073192D01*
Y031241D01*
X073152D01*
Y031161D01*
X073192D01*
X07718Y032361D02*
Y032321D01*
X07726D01*
Y032361D01*
X0773D01*
Y032441D01*
X07726D01*
Y032481D01*
X07718D01*
Y032441D01*
X07714D01*
Y032361D01*
X07718D01*
X062846Y031161D02*
Y031121D01*
X062926D01*
Y031161D01*
X062966D01*
Y031241D01*
X062926D01*
Y031281D01*
X062846D01*
Y031241D01*
X062806D01*
Y031161D01*
X062846D01*
X035616Y032541D02*
Y032501D01*
X035696D01*
Y032541D01*
X035736D01*
Y032621D01*
X035696D01*
Y032661D01*
X035616D01*
Y032621D01*
X035576D01*
Y032541D01*
X035616D01*
X025516Y032541D02*
Y032501D01*
X025596D01*
Y032541D01*
X025636D01*
Y032621D01*
X025596D01*
Y032661D01*
X025516D01*
Y032621D01*
X025476D01*
Y032541D01*
X025516D01*
X023516Y033D02*
Y03296D01*
X023596D01*
Y033D01*
X023636D01*
Y03308D01*
X023596D01*
Y03312D01*
X023516D01*
Y03308D01*
X023476D01*
Y033D01*
X023516D01*
X063347Y029991D02*
Y029951D01*
X063427D01*
Y029991D01*
X063467D01*
Y030071D01*
X063427D01*
Y030111D01*
X063347D01*
Y030071D01*
X063307D01*
Y029991D01*
X063347D01*
X051367D02*
Y029951D01*
X051447D01*
Y029991D01*
X051487D01*
Y030071D01*
X051447D01*
Y030111D01*
X051367D01*
Y030071D01*
X051327D01*
Y029991D01*
X051367D01*
X049374Y030841D02*
Y030801D01*
X049454D01*
Y030841D01*
X049494D01*
Y030921D01*
X049454D01*
Y030961D01*
X049374D01*
Y030921D01*
X049334D01*
Y030841D01*
X049374D01*
X078668Y031023D02*
Y030983D01*
X078748D01*
Y031023D01*
X078788D01*
Y031103D01*
X078748D01*
Y031143D01*
X078668D01*
Y031103D01*
X078628D01*
Y031023D01*
X078668D01*
X077654Y030571D02*
Y030531D01*
X077734D01*
Y030571D01*
X077774D01*
Y030651D01*
X077734D01*
Y030691D01*
X077654D01*
Y030651D01*
X077614D01*
Y030571D01*
X077654D01*
X076828Y034724D02*
Y034684D01*
X076908D01*
Y034724D01*
X076948D01*
Y034804D01*
X076908D01*
Y034844D01*
X076828D01*
Y034804D01*
X076788D01*
Y034724D01*
X076828D01*
X082191Y034711D02*
Y034671D01*
X082271D01*
Y034711D01*
X082311D01*
Y034791D01*
X082271D01*
Y034831D01*
X082191D01*
Y034791D01*
X082151D01*
Y034711D01*
X082191D01*
X081488Y035089D02*
Y035049D01*
X081568D01*
Y035089D01*
X081608D01*
Y035169D01*
X081568D01*
Y035209D01*
X081488D01*
Y035169D01*
X081448D01*
Y035089D01*
X081488D01*
X079166Y032458D02*
Y032418D01*
X079246D01*
Y032458D01*
X079286D01*
Y032538D01*
X079246D01*
Y032578D01*
X079166D01*
Y032538D01*
X079126D01*
Y032458D01*
X079166D01*
X078979Y035911D02*
Y035871D01*
X079059D01*
Y035911D01*
X079099D01*
Y035991D01*
X079059D01*
Y036031D01*
X078979D01*
Y035991D01*
X078939D01*
Y035911D01*
X078979D01*
X023438Y034841D02*
Y034801D01*
X023518D01*
Y034841D01*
X023558D01*
Y034921D01*
X023518D01*
Y034961D01*
X023438D01*
Y034921D01*
X023398D01*
Y034841D01*
X023438D01*
X086212Y032007D02*
Y031967D01*
X086292D01*
Y032007D01*
X086332D01*
Y032087D01*
X086292D01*
Y032127D01*
X086212D01*
Y032087D01*
X086172D01*
Y032007D01*
X086212D01*
X046147Y034221D02*
Y034181D01*
X046227D01*
Y034221D01*
X046267D01*
Y034301D01*
X046227D01*
Y034341D01*
X046147D01*
Y034301D01*
X046107D01*
Y034221D01*
X046147D01*
X059517Y033845D02*
Y033805D01*
X059597D01*
Y033845D01*
X059637D01*
Y033925D01*
X059597D01*
Y033965D01*
X059517D01*
Y033925D01*
X059477D01*
Y033845D01*
X059517D01*
X061846Y032599D02*
Y032559D01*
X061926D01*
Y032599D01*
X061966D01*
Y032679D01*
X061926D01*
Y032719D01*
X061846D01*
Y032679D01*
X061806D01*
Y032599D01*
X061846D01*
X057517Y034221D02*
Y034181D01*
X057597D01*
Y034221D01*
X057637D01*
Y034301D01*
X057597D01*
Y034341D01*
X057517D01*
Y034301D01*
X057477D01*
Y034221D01*
X057517D01*
X071177Y032901D02*
Y032861D01*
X071257D01*
Y032901D01*
X071297D01*
Y032981D01*
X071257D01*
Y033021D01*
X071177D01*
Y032981D01*
X071137D01*
Y032901D01*
X071177D01*
X036616Y032701D02*
Y032661D01*
X036696D01*
Y032701D01*
X036736D01*
Y032781D01*
X036696D01*
Y032821D01*
X036616D01*
Y032781D01*
X036576D01*
Y032701D01*
X036616D01*
X049866D02*
Y032661D01*
X049946D01*
Y032701D01*
X049986D01*
Y032781D01*
X049946D01*
Y032821D01*
X049866D01*
Y032781D01*
X049826D01*
Y032701D01*
X049866D01*
X024016Y033541D02*
Y033501D01*
X024096D01*
Y033541D01*
X024136D01*
Y033621D01*
X024096D01*
Y033661D01*
X024016D01*
Y033621D01*
X023976D01*
Y033541D01*
X024016D01*
X036616D02*
Y033501D01*
X036696D01*
Y033541D01*
X036736D01*
Y033621D01*
X036696D01*
Y033661D01*
X036616D01*
Y033621D01*
X036576D01*
Y033541D01*
X036616D01*
X037116Y030551D02*
Y030511D01*
X037196D01*
Y030551D01*
X037236D01*
Y030631D01*
X037196D01*
Y030671D01*
X037116D01*
Y030631D01*
X037076D01*
Y030551D01*
X037116D01*
X050866Y031001D02*
Y030961D01*
X050946D01*
Y031001D01*
X050986D01*
Y031081D01*
X050946D01*
Y031121D01*
X050866D01*
Y031081D01*
X050826D01*
Y031001D01*
X050866D01*
X036116Y033001D02*
Y032961D01*
X036196D01*
Y033001D01*
X036236D01*
Y033081D01*
X036196D01*
Y033121D01*
X036116D01*
Y033081D01*
X036076D01*
Y033001D01*
X036116D01*
X060767Y030831D02*
Y030791D01*
X060847D01*
Y030831D01*
X060887D01*
Y030911D01*
X060847D01*
Y030951D01*
X060767D01*
Y030911D01*
X060727D01*
Y030831D01*
X060767D01*
X071697Y031281D02*
Y031241D01*
X071777D01*
Y031281D01*
X071817D01*
Y031361D01*
X071777D01*
Y031401D01*
X071697D01*
Y031361D01*
X071657D01*
Y031281D01*
X071697D01*
X070197Y032361D02*
Y032321D01*
X070277D01*
Y032361D01*
X070317D01*
Y032441D01*
X070277D01*
Y032481D01*
X070197D01*
Y032441D01*
X070157D01*
Y032361D01*
X070197D01*
X078977Y035231D02*
Y035191D01*
X079057D01*
Y035231D01*
X079097D01*
Y035311D01*
X079057D01*
Y035351D01*
X078977D01*
Y035311D01*
X078937D01*
Y035231D01*
X078977D01*
X091337Y031891D02*
Y031851D01*
X091417D01*
Y031891D01*
X091457D01*
Y031971D01*
X091417D01*
Y032011D01*
X091337D01*
Y031971D01*
X091297D01*
Y031891D01*
X091337D01*
X079437Y035541D02*
Y035501D01*
X079517D01*
Y035541D01*
X079557D01*
Y035621D01*
X079517D01*
Y035661D01*
X079437D01*
Y035621D01*
X079397D01*
Y035541D01*
X079437D01*
X076667Y029881D02*
Y029841D01*
X076747D01*
Y029881D01*
X076787D01*
Y029961D01*
X076747D01*
Y030001D01*
X076667D01*
Y029961D01*
X076627D01*
Y029881D01*
X076667D01*
X072197Y033941D02*
Y033901D01*
X072277D01*
Y033941D01*
X072317D01*
Y034021D01*
X072277D01*
Y034061D01*
X072197D01*
Y034021D01*
X072157D01*
Y033941D01*
X072197D01*
X033927Y033881D02*
Y033841D01*
X034007D01*
Y033881D01*
X034047D01*
Y033961D01*
X034007D01*
Y034001D01*
X033927D01*
Y033961D01*
X033887D01*
Y033881D01*
X033927D01*
X047867Y033871D02*
Y033831D01*
X047947D01*
Y033871D01*
X047987D01*
Y033951D01*
X047947D01*
Y033991D01*
X047867D01*
Y033951D01*
X047827D01*
Y033871D01*
X047867D01*
X048487Y030271D02*
Y030231D01*
X048567D01*
Y030271D01*
X048607D01*
Y030351D01*
X048567D01*
Y030391D01*
X048487D01*
Y030351D01*
X048447D01*
Y030271D01*
X048487D01*
X039317D02*
Y030231D01*
X039397D01*
Y030271D01*
X039437D01*
Y030351D01*
X039397D01*
Y030391D01*
X039317D01*
Y030351D01*
X039277D01*
Y030271D01*
X039317D01*
X038117Y029991D02*
Y029951D01*
X038197D01*
Y029991D01*
X038237D01*
Y030071D01*
X038197D01*
Y030111D01*
X038117D01*
Y030071D01*
X038077D01*
Y029991D01*
X038117D01*
X062346Y030551D02*
Y030511D01*
X062426D01*
Y030551D01*
X062466D01*
Y030631D01*
X062426D01*
Y030671D01*
X062346D01*
Y030631D01*
X062306D01*
Y030551D01*
X062346D01*
X050366D02*
Y030511D01*
X050446D01*
Y030551D01*
X050486D01*
Y030631D01*
X050446D01*
Y030671D01*
X050366D01*
Y030631D01*
X050326D01*
Y030551D01*
X050366D01*
X033547Y034221D02*
Y034181D01*
X033627D01*
Y034221D01*
X033667D01*
Y034301D01*
X033627D01*
Y034341D01*
X033547D01*
Y034301D01*
X033507D01*
Y034221D01*
X033547D01*
D61*
X091267Y036396D02*
G03*
X091267Y036396I-00008J0D01*
G01*
X092267D02*
G03*
X092267Y036396I-00008J0D01*
G01*
X093732Y029541D02*
G03*
X093732Y029541I-00008J0D01*
G01*
Y028541D02*
G03*
X093732Y028541I-00008J0D01*
G01*
Y027541D02*
G03*
X093732Y027541I-00008J0D01*
G01*
Y026541D02*
G03*
X093732Y026541I-00008J0D01*
G01*
Y030541D02*
G03*
X093732Y030541I-00008J0D01*
G01*
M02*
