M48
;Layer_Color=9474304
;FILE_FORMAT=2:4
INCH,LZ
;TYPE=PLATED
T1F00S00C0.0118
T2F00S00C0.0197
T3F00S00C0.0217
T4F00S00C0.0236
T5F00S00C0.0335
T6F00S00C0.0394
%
T01
X078784Y027541
Y027816
T02
X078708Y031063
X083673Y030022
X085807Y028967
X087146Y029685
X088039
X089308Y031147
X091594Y028541
X077694Y030611
X076707Y029921
X07545Y029405
X073232Y031201
X072748Y030778
X071737Y030413
X063387Y030031
X062886Y031201
X062386Y030591
X060807Y030871
X050906Y031041
X050406Y030591
X049414Y030881
X048527Y030311
X051407Y030031
X039357Y030311
X038157Y030031
X037156Y030591
X037666Y031162
X036156Y030954
X025556Y032581
X023556Y03304
X024056Y033581
X023478Y034881
X033587Y034261
X033967Y033921
X035656Y032581
X036156Y033041
X036656Y032741
Y033581
X046187Y034261
X047907Y033911
X049906Y032741
X057557Y034261
X059557Y033885
X061886Y032639
X070237Y032401
X071217Y032941
X071659Y033486
X072237Y033981
X074785Y033984
X075387Y032401
X07722
X076868Y034764
X071737Y031321
X079206Y032498
X079017Y035271
X079019Y035951
X079477Y035581
X081528Y035129
X082231Y034751
X083091Y034685
X081152Y034412
X083652Y032293
X086252Y032047
Y032739
X086847Y033896
X087777Y033623
X088788Y034215
X089308Y034481
X091377Y031931
T03
X078417Y026046
X077417
X076417
X075417
X074417
X073417
X072417
X071417
X065787Y026042
X064787
X063787
X062787
X061787
X060787
X059787
X058787
X053187
X052187
X051187
X050187
X049187
X048187
X047187
X046187
X040587
X039587
X038587
X037587
X036587
X035587
X034587
X033587
X027987
X026987
X025987
X024987
X023987
X022987
X021987
X020987
Y035491
X021987
X022987
X023987
X024987
X025987
X026987
X027987
X033587
X034587
X035587
X036587
X037587
X038587
X039587
X040587
X046187
X047187
X048187
X049187
X050187
X051187
X052187
X053187
X058787
X059787
X060787
X061787
X062787
X063787
X064787
X065787
X071417Y035495
X072417
X073417
X074417
X075417
X076417
X077417
X078417
T04
X083898Y035791
X085237
X086334Y035687
X087334
X088334
T05
X093652Y026541
Y027541
Y028541
Y029541
Y030541
X092187Y036396
X091187
T06
X089997Y024941
Y026712
Y027791
Y029562
Y030669
X092556
Y029562
Y027791
Y026712
Y024941
Y032441
Y033526
Y035298
X089997
Y033526
Y032441
M30
