G04*
G04 #@! TF.GenerationSoftware,Altium Limited,Altium Designer,19.1.1 (5)*
G04*
G04 Layer_Color=16711935*
%FSTAX24Y24*%
%MOIN*%
G70*
G01*
G75*
%ADD37O,0.0828X0.0671*%
%ADD38R,0.0828X0.0671*%
%ADD39C,0.0671*%
%ADD40R,0.0671X0.0671*%
%ADD41C,0.0552*%
%ADD42O,0.0671X0.1064*%
%ADD43O,0.0316X0.0277*%
%ADD44R,0.0474X0.0474*%
%ADD45C,0.0474*%
%ADD46R,0.0671X0.0671*%
%ADD47C,0.0395*%
D37*
X092556Y026712D02*
D03*
Y024941D02*
D03*
X089997D02*
D03*
Y027791D02*
D03*
X092556D02*
D03*
Y029562D02*
D03*
X089997Y030669D02*
D03*
X092556D02*
D03*
Y032441D02*
D03*
Y035298D02*
D03*
X089997D02*
D03*
Y033526D02*
D03*
D38*
Y026712D02*
D03*
Y029562D02*
D03*
Y032441D02*
D03*
X092556Y033526D02*
D03*
D39*
X091187Y036396D02*
D03*
X093652Y029541D02*
D03*
Y028541D02*
D03*
Y027541D02*
D03*
Y030541D02*
D03*
D40*
X092187Y036396D02*
D03*
D41*
X083898Y035791D02*
D03*
X085237D02*
D03*
D42*
X088334Y035687D02*
D03*
X087334D02*
D03*
X086334D02*
D03*
D43*
X078784Y027816D02*
D03*
Y027541D02*
D03*
D44*
X071417Y026046D02*
D03*
X033587Y026042D02*
D03*
X058787D02*
D03*
X046187D02*
D03*
X020987D02*
D03*
D45*
X072417Y026046D02*
D03*
X073417D02*
D03*
X074417D02*
D03*
X075417D02*
D03*
X076417D02*
D03*
X077417D02*
D03*
X078417D02*
D03*
Y035495D02*
D03*
X077417D02*
D03*
X076417D02*
D03*
X075417D02*
D03*
X074417D02*
D03*
X073417D02*
D03*
X072417D02*
D03*
X071417D02*
D03*
X033587Y035491D02*
D03*
X034587D02*
D03*
X035587D02*
D03*
X036587D02*
D03*
X037587D02*
D03*
X038587D02*
D03*
X039587D02*
D03*
X040587D02*
D03*
Y026042D02*
D03*
X039587D02*
D03*
X038587D02*
D03*
X037587D02*
D03*
X036587D02*
D03*
X035587D02*
D03*
X034587D02*
D03*
X058787Y035491D02*
D03*
X059787D02*
D03*
X060787D02*
D03*
X061787D02*
D03*
X062787D02*
D03*
X063787D02*
D03*
X064787D02*
D03*
X065787D02*
D03*
Y026042D02*
D03*
X064787D02*
D03*
X063787D02*
D03*
X062787D02*
D03*
X061787D02*
D03*
X060787D02*
D03*
X059787D02*
D03*
X046187Y035491D02*
D03*
X047187D02*
D03*
X048187D02*
D03*
X049187D02*
D03*
X050187D02*
D03*
X051187D02*
D03*
X052187D02*
D03*
X053187D02*
D03*
Y026042D02*
D03*
X052187D02*
D03*
X051187D02*
D03*
X050187D02*
D03*
X049187D02*
D03*
X048187D02*
D03*
X047187D02*
D03*
X020987Y035491D02*
D03*
X021987D02*
D03*
X022987D02*
D03*
X023987D02*
D03*
X024987D02*
D03*
X025987D02*
D03*
X026987D02*
D03*
X027987D02*
D03*
Y026042D02*
D03*
X026987D02*
D03*
X025987D02*
D03*
X024987D02*
D03*
X023987D02*
D03*
X022987D02*
D03*
X021987D02*
D03*
D46*
X093652Y026541D02*
D03*
D47*
X037666Y031162D02*
D03*
X07545Y029405D02*
D03*
X088039Y029685D02*
D03*
X075387Y032401D02*
D03*
X083673Y030022D02*
D03*
X083652Y032293D02*
D03*
X083091Y034685D02*
D03*
X081152Y034412D02*
D03*
X071659Y033486D02*
D03*
X074785Y033984D02*
D03*
X089308Y031147D02*
D03*
X087777Y033623D02*
D03*
X089308Y034481D02*
D03*
X088788Y034215D02*
D03*
X086847Y033896D02*
D03*
X091594Y028541D02*
D03*
X085807Y028967D02*
D03*
X086252Y032739D02*
D03*
X087146Y029685D02*
D03*
X036156Y030954D02*
D03*
X072748Y030778D02*
D03*
X071737Y030413D02*
D03*
X073232Y031201D02*
D03*
X07722Y032401D02*
D03*
X062886Y031201D02*
D03*
X035656Y032581D02*
D03*
X025556Y032581D02*
D03*
X023556Y03304D02*
D03*
X063387Y030031D02*
D03*
X051407D02*
D03*
X049414Y030881D02*
D03*
X078708Y031063D02*
D03*
X077694Y030611D02*
D03*
X076868Y034764D02*
D03*
X082231Y034751D02*
D03*
X081528Y035129D02*
D03*
X079206Y032498D02*
D03*
X079019Y035951D02*
D03*
X023478Y034881D02*
D03*
X086252Y032047D02*
D03*
X046187Y034261D02*
D03*
X059557Y033885D02*
D03*
X061886Y032639D02*
D03*
X057557Y034261D02*
D03*
X071217Y032941D02*
D03*
X036656Y032741D02*
D03*
X049906D02*
D03*
X024056Y033581D02*
D03*
X036656D02*
D03*
X037156Y030591D02*
D03*
X050906Y031041D02*
D03*
X036156Y033041D02*
D03*
X060807Y030871D02*
D03*
X071737Y031321D02*
D03*
X070237Y032401D02*
D03*
X079017Y035271D02*
D03*
X091377Y031931D02*
D03*
X079477Y035581D02*
D03*
X076707Y029921D02*
D03*
X072237Y033981D02*
D03*
X033967Y033921D02*
D03*
X047907Y033911D02*
D03*
X048527Y030311D02*
D03*
X039357D02*
D03*
X038157Y030031D02*
D03*
X062386Y030591D02*
D03*
X050406D02*
D03*
X033587Y034261D02*
D03*
M02*
