G04*
G04 #@! TF.GenerationSoftware,Altium Limited,Altium Designer,19.1.1 (5)*
G04*
G04 Layer_Color=128*
%FSTAX24Y24*%
%MOIN*%
G70*
G01*
G75*
%ADD60C,0.0020*%
D60*
X092359Y026712D02*
X092753D01*
X092556Y026515D02*
Y026909D01*
X092359Y024941D02*
X092753D01*
X092556Y024744D02*
Y025137D01*
X0898Y026712D02*
X090194D01*
X089997Y026515D02*
Y026909D01*
X0898Y024941D02*
X090194D01*
X089997Y024744D02*
Y025137D01*
X091019Y036396D02*
X091354D01*
X091187Y036229D02*
Y036563D01*
X092019Y036396D02*
X092354D01*
X092187Y036229D02*
Y036563D01*
X08378Y035791D02*
X084016D01*
X083898Y035672D02*
Y035909D01*
X085119Y035791D02*
X085355D01*
X085237Y035672D02*
Y035909D01*
X088216Y035687D02*
X088452D01*
X088334Y035569D02*
Y035806D01*
X087216Y035687D02*
X087452D01*
X087334Y035569D02*
Y035806D01*
X086216Y035687D02*
X086452D01*
X086334Y035569D02*
Y035806D01*
X078725Y027816D02*
X078844D01*
X078784Y027757D02*
Y027875D01*
X078725Y027541D02*
X078844D01*
X078784Y027482D02*
Y0276D01*
X071308Y026046D02*
X071525D01*
X071417Y025938D02*
Y026154D01*
X072308Y026046D02*
X072525D01*
X072417Y025938D02*
Y026154D01*
X073308Y026046D02*
X073525D01*
X073417Y025938D02*
Y026154D01*
X074308Y026046D02*
X074525D01*
X074417Y025938D02*
Y026154D01*
X075308Y026046D02*
X075525D01*
X075417Y025938D02*
Y026154D01*
X076308Y026046D02*
X076525D01*
X076417Y025938D02*
Y026154D01*
X077308Y026046D02*
X077525D01*
X077417Y025938D02*
Y026154D01*
X078308Y026046D02*
X078525D01*
X078417Y025938D02*
Y026154D01*
X078308Y035495D02*
X078525D01*
X078417Y035387D02*
Y035603D01*
X077308Y035495D02*
X077525D01*
X077417Y035387D02*
Y035603D01*
X076308Y035495D02*
X076525D01*
X076417Y035387D02*
Y035603D01*
X075308Y035495D02*
X075525D01*
X075417Y035387D02*
Y035603D01*
X074308Y035495D02*
X074525D01*
X074417Y035387D02*
Y035603D01*
X073308Y035495D02*
X073525D01*
X073417Y035387D02*
Y035603D01*
X072308Y035495D02*
X072525D01*
X072417Y035387D02*
Y035603D01*
X071308Y035495D02*
X071525D01*
X071417Y035387D02*
Y035603D01*
X093484Y029541D02*
X093819D01*
X093652Y029373D02*
Y029708D01*
X093484Y028541D02*
X093819D01*
X093652Y028373D02*
Y028708D01*
X093484Y027541D02*
X093819D01*
X093652Y027373D02*
Y027708D01*
X093484Y026541D02*
X093819D01*
X093652Y026373D02*
Y026708D01*
X093484Y030541D02*
X093819D01*
X093652Y030373D02*
Y030708D01*
X033478Y035491D02*
X033695D01*
X033587Y035382D02*
Y035599D01*
X034478Y035491D02*
X034695D01*
X034587Y035382D02*
Y035599D01*
X035478Y035491D02*
X035695D01*
X035587Y035382D02*
Y035599D01*
X036478Y035491D02*
X036695D01*
X036587Y035382D02*
Y035599D01*
X037478Y035491D02*
X037695D01*
X037587Y035382D02*
Y035599D01*
X038478Y035491D02*
X038695D01*
X038587Y035382D02*
Y035599D01*
X039478Y035491D02*
X039695D01*
X039587Y035382D02*
Y035599D01*
X040478Y035491D02*
X040695D01*
X040587Y035382D02*
Y035599D01*
X040478Y026042D02*
X040695D01*
X040587Y025933D02*
Y02615D01*
X039478Y026042D02*
X039695D01*
X039587Y025933D02*
Y02615D01*
X038478Y026042D02*
X038695D01*
X038587Y025933D02*
Y02615D01*
X037478Y026042D02*
X037695D01*
X037587Y025933D02*
Y02615D01*
X036478Y026042D02*
X036695D01*
X036587Y025933D02*
Y02615D01*
X035478Y026042D02*
X035695D01*
X035587Y025933D02*
Y02615D01*
X034478Y026042D02*
X034695D01*
X034587Y025933D02*
Y02615D01*
X033478Y026042D02*
X033695D01*
X033587Y025933D02*
Y02615D01*
X0898Y027791D02*
X090194D01*
X089997Y027594D02*
Y027987D01*
X0898Y029562D02*
X090194D01*
X089997Y029365D02*
Y029759D01*
X092359Y027791D02*
X092753D01*
X092556Y027594D02*
Y027987D01*
X092359Y029562D02*
X092753D01*
X092556Y029365D02*
Y029759D01*
X0898Y030669D02*
X090194D01*
X089997Y030472D02*
Y030866D01*
X0898Y032441D02*
X090194D01*
X089997Y032244D02*
Y032637D01*
X092359Y030669D02*
X092753D01*
X092556Y030472D02*
Y030866D01*
X092359Y032441D02*
X092753D01*
X092556Y032244D02*
Y032637D01*
X058678Y035491D02*
X058895D01*
X058787Y035382D02*
Y035599D01*
X059678Y035491D02*
X059895D01*
X059787Y035382D02*
Y035599D01*
X060678Y035491D02*
X060895D01*
X060787Y035382D02*
Y035599D01*
X061678Y035491D02*
X061895D01*
X061787Y035382D02*
Y035599D01*
X062678Y035491D02*
X062895D01*
X062787Y035382D02*
Y035599D01*
X063678Y035491D02*
X063895D01*
X063787Y035382D02*
Y035599D01*
X064678Y035491D02*
X064895D01*
X064787Y035382D02*
Y035599D01*
X065678Y035491D02*
X065895D01*
X065787Y035382D02*
Y035599D01*
X065678Y026042D02*
X065895D01*
X065787Y025933D02*
Y02615D01*
X064678Y026042D02*
X064895D01*
X064787Y025933D02*
Y02615D01*
X063678Y026042D02*
X063895D01*
X063787Y025933D02*
Y02615D01*
X062678Y026042D02*
X062895D01*
X062787Y025933D02*
Y02615D01*
X061678Y026042D02*
X061895D01*
X061787Y025933D02*
Y02615D01*
X060678Y026042D02*
X060895D01*
X060787Y025933D02*
Y02615D01*
X059678Y026042D02*
X059895D01*
X059787Y025933D02*
Y02615D01*
X058678Y026042D02*
X058895D01*
X058787Y025933D02*
Y02615D01*
X046078Y035491D02*
X046295D01*
X046187Y035382D02*
Y035599D01*
X047078Y035491D02*
X047295D01*
X047187Y035382D02*
Y035599D01*
X048078Y035491D02*
X048295D01*
X048187Y035382D02*
Y035599D01*
X049078Y035491D02*
X049295D01*
X049187Y035382D02*
Y035599D01*
X050078Y035491D02*
X050295D01*
X050187Y035382D02*
Y035599D01*
X051078Y035491D02*
X051295D01*
X051187Y035382D02*
Y035599D01*
X052078Y035491D02*
X052295D01*
X052187Y035382D02*
Y035599D01*
X053078Y035491D02*
X053295D01*
X053187Y035382D02*
Y035599D01*
X053078Y026042D02*
X053295D01*
X053187Y025933D02*
Y02615D01*
X052078Y026042D02*
X052295D01*
X052187Y025933D02*
Y02615D01*
X051078Y026042D02*
X051295D01*
X051187Y025933D02*
Y02615D01*
X050078Y026042D02*
X050295D01*
X050187Y025933D02*
Y02615D01*
X049078Y026042D02*
X049295D01*
X049187Y025933D02*
Y02615D01*
X048078Y026042D02*
X048295D01*
X048187Y025933D02*
Y02615D01*
X047078Y026042D02*
X047295D01*
X047187Y025933D02*
Y02615D01*
X046078Y026042D02*
X046295D01*
X046187Y025933D02*
Y02615D01*
X020878Y035491D02*
X021095D01*
X020987Y035382D02*
Y035599D01*
X021878Y035491D02*
X022095D01*
X021987Y035382D02*
Y035599D01*
X022878Y035491D02*
X023095D01*
X022987Y035382D02*
Y035599D01*
X023878Y035491D02*
X024095D01*
X023987Y035382D02*
Y035599D01*
X024878Y035491D02*
X025095D01*
X024987Y035382D02*
Y035599D01*
X025878Y035491D02*
X026095D01*
X025987Y035382D02*
Y035599D01*
X026878Y035491D02*
X027095D01*
X026987Y035382D02*
Y035599D01*
X027878Y035491D02*
X028095D01*
X027987Y035382D02*
Y035599D01*
X027878Y026042D02*
X028095D01*
X027987Y025933D02*
Y02615D01*
X026878Y026042D02*
X027095D01*
X026987Y025933D02*
Y02615D01*
X025878Y026042D02*
X026095D01*
X025987Y025933D02*
Y02615D01*
X024878Y026042D02*
X025095D01*
X024987Y025933D02*
Y02615D01*
X023878Y026042D02*
X024095D01*
X023987Y025933D02*
Y02615D01*
X022878Y026042D02*
X023095D01*
X022987Y025933D02*
Y02615D01*
X021878Y026042D02*
X022095D01*
X021987Y025933D02*
Y02615D01*
X020878Y026042D02*
X021095D01*
X020987Y025933D02*
Y02615D01*
X092359Y035298D02*
X092753D01*
X092556Y035101D02*
Y035495D01*
X092359Y033526D02*
X092753D01*
X092556Y033329D02*
Y033723D01*
X0898Y035298D02*
X090194D01*
X089997Y035101D02*
Y035495D01*
X0898Y033526D02*
X090194D01*
X089997Y033329D02*
Y033723D01*
X037568Y031162D02*
X037765D01*
X037666Y031063D02*
Y03126D01*
X075352Y029405D02*
X075549D01*
X07545Y029306D02*
Y029503D01*
X08794Y029685D02*
X088137D01*
X088039Y029587D02*
Y029783D01*
X075288Y032401D02*
X075485D01*
X075387Y032302D02*
Y032499D01*
X083575Y030022D02*
X083772D01*
X083673Y029924D02*
Y030121D01*
X083553Y032293D02*
X08375D01*
X083652Y032195D02*
Y032392D01*
X082992Y034685D02*
X083189D01*
X083091Y034587D02*
Y034783D01*
X081054Y034412D02*
X081251D01*
X081152Y034314D02*
Y034511D01*
X07156Y033486D02*
X071757D01*
X071659Y033388D02*
Y033585D01*
X074687Y033984D02*
X074884D01*
X074785Y033886D02*
Y034083D01*
X08921Y031147D02*
X089407D01*
X089308Y031048D02*
Y031245D01*
X087678Y033623D02*
X087875D01*
X087777Y033525D02*
Y033722D01*
X08921Y034481D02*
X089407D01*
X089308Y034382D02*
Y034579D01*
X088689Y034215D02*
X088886D01*
X088788Y034117D02*
Y034314D01*
X086749Y033896D02*
X086946D01*
X086847Y033798D02*
Y033994D01*
X091496Y028541D02*
X091693D01*
X091594Y028442D02*
Y028639D01*
X085709Y028967D02*
X085906D01*
X085807Y028868D02*
Y029065D01*
X086153Y032739D02*
X08635D01*
X086252Y032641D02*
Y032837D01*
X087047Y029685D02*
X087244D01*
X087146Y029587D02*
Y029783D01*
X036057Y030954D02*
X036254D01*
X036156Y030856D02*
Y031052D01*
X07265Y030778D02*
X072846D01*
X072748Y030679D02*
Y030876D01*
X071638Y030413D02*
X071835D01*
X071737Y030315D02*
Y030512D01*
X073134Y031201D02*
X073331D01*
X073232Y031102D02*
Y031299D01*
X077121Y032401D02*
X077318D01*
X07722Y032302D02*
Y032499D01*
X062787Y031201D02*
X062984D01*
X062886Y031102D02*
Y031299D01*
X035557Y032581D02*
X035754D01*
X035656Y032482D02*
Y032679D01*
X025457Y032581D02*
X025654D01*
X025556Y032482D02*
Y032679D01*
X023457Y03304D02*
X023654D01*
X023556Y032941D02*
Y033138D01*
X063288Y030031D02*
X063485D01*
X063387Y029932D02*
Y030129D01*
X051308Y030031D02*
X051505D01*
X051407Y029932D02*
Y030129D01*
X049316Y030881D02*
X049513D01*
X049414Y030782D02*
Y030979D01*
X078609Y031063D02*
X078806D01*
X078708Y030965D02*
Y031161D01*
X077596Y030611D02*
X077793D01*
X077694Y030512D02*
Y030709D01*
X07677Y034764D02*
X076966D01*
X076868Y034665D02*
Y034862D01*
X082132Y034751D02*
X082329D01*
X082231Y034652D02*
Y034849D01*
X08143Y035129D02*
X081627D01*
X081528Y035031D02*
Y035228D01*
X079107Y032498D02*
X079304D01*
X079206Y032399D02*
Y032596D01*
X07892Y035951D02*
X079117D01*
X079019Y035853D02*
Y03605D01*
X023379Y034881D02*
X023576D01*
X023478Y034782D02*
Y034979D01*
X086153Y032047D02*
X08635D01*
X086252Y031949D02*
Y032146D01*
X046088Y034261D02*
X046285D01*
X046187Y034162D02*
Y034359D01*
X059458Y033885D02*
X059655D01*
X059557Y033786D02*
Y033983D01*
X061787Y032639D02*
X061984D01*
X061886Y03254D02*
Y032737D01*
X057458Y034261D02*
X057655D01*
X057557Y034162D02*
Y034359D01*
X071118Y032941D02*
X071315D01*
X071217Y032842D02*
Y033039D01*
X036557Y032741D02*
X036754D01*
X036656Y032642D02*
Y032839D01*
X049807Y032741D02*
X050004D01*
X049906Y032642D02*
Y032839D01*
X023957Y033581D02*
X024154D01*
X024056Y033482D02*
Y033679D01*
X036557Y033581D02*
X036754D01*
X036656Y033482D02*
Y033679D01*
X037057Y030591D02*
X037254D01*
X037156Y030492D02*
Y030689D01*
X050807Y031041D02*
X051004D01*
X050906Y030942D02*
Y031139D01*
X036057Y033041D02*
X036254D01*
X036156Y032942D02*
Y033139D01*
X060708Y030871D02*
X060905D01*
X060807Y030772D02*
Y030969D01*
X071638Y031321D02*
X071835D01*
X071737Y031222D02*
Y031419D01*
X070138Y032401D02*
X070335D01*
X070237Y032302D02*
Y032499D01*
X078918Y035271D02*
X079115D01*
X079017Y035172D02*
Y035369D01*
X091278Y031931D02*
X091475D01*
X091377Y031832D02*
Y032029D01*
X079378Y035581D02*
X079575D01*
X079477Y035482D02*
Y035679D01*
X076608Y029921D02*
X076805D01*
X076707Y029822D02*
Y030019D01*
X072138Y033981D02*
X072335D01*
X072237Y033882D02*
Y034079D01*
X033868Y033921D02*
X034065D01*
X033967Y033822D02*
Y034019D01*
X047808Y033911D02*
X048005D01*
X047907Y033812D02*
Y034009D01*
X048428Y030311D02*
X048625D01*
X048527Y030212D02*
Y030409D01*
X039258Y030311D02*
X039455D01*
X039357Y030212D02*
Y030409D01*
X038058Y030031D02*
X038255D01*
X038157Y029932D02*
Y030129D01*
X062287Y030591D02*
X062484D01*
X062386Y030492D02*
Y030689D01*
X050307Y030591D02*
X050504D01*
X050406Y030492D02*
Y030689D01*
X033488Y034261D02*
X033685D01*
X033587Y034162D02*
Y034359D01*
M02*
