G04*
G04 #@! TF.GenerationSoftware,Altium Limited,Altium Designer,19.1.1 (5)*
G04*
G04 Layer_Physical_Order=1*
G04 Layer_Color=255*
%FSTAX24Y24*%
%MOIN*%
G70*
G01*
G75*
%ADD11R,0.0787X0.0787*%
%ADD12R,0.0394X0.0591*%
%ADD13R,0.0157X0.0394*%
%ADD14R,0.0197X0.0071*%
%ADD15R,0.0071X0.0197*%
G04:AMPARAMS|DCode=16|XSize=78.7mil|YSize=157.5mil|CornerRadius=19.7mil|HoleSize=0mil|Usage=FLASHONLY|Rotation=270.000|XOffset=0mil|YOffset=0mil|HoleType=Round|Shape=RoundedRectangle|*
%AMROUNDEDRECTD16*
21,1,0.0787,0.1181,0,0,270.0*
21,1,0.0394,0.1575,0,0,270.0*
1,1,0.0394,-0.0591,-0.0197*
1,1,0.0394,-0.0591,0.0197*
1,1,0.0394,0.0591,0.0197*
1,1,0.0394,0.0591,-0.0197*
%
%ADD16ROUNDEDRECTD16*%
%ADD17R,0.0591X0.0276*%
%ADD18R,0.0315X0.0472*%
%ADD19R,0.0488X0.0236*%
%ADD20R,0.0276X0.0394*%
%ADD21R,0.1181X0.0591*%
%ADD22R,0.0236X0.0488*%
%ADD23R,0.0472X0.0315*%
%ADD48C,0.0071*%
%ADD49O,0.0748X0.0591*%
%ADD50R,0.0748X0.0591*%
%ADD51C,0.0591*%
%ADD52R,0.0591X0.0591*%
%ADD53C,0.0472*%
%ADD54O,0.0591X0.0984*%
%ADD55O,0.0236X0.0197*%
%ADD56R,0.0394X0.0394*%
%ADD57C,0.0394*%
%ADD58R,0.0591X0.0591*%
%ADD59C,0.0315*%
G36*
X066837Y028147D02*
X067157Y028307D01*
Y028797D01*
X067057D01*
Y030327D01*
X065107D01*
Y028797D01*
X064987D01*
Y028293D01*
X065307Y028147D01*
X065677D01*
Y028307D01*
X066457D01*
Y028147D01*
X066837D01*
D02*
G37*
D11*
X066107Y029244D02*
D03*
D12*
X065177Y031987D02*
D03*
X066967D02*
D03*
D13*
X059887Y029395D02*
D03*
X060387D02*
D03*
X060887D02*
D03*
X061387D02*
D03*
X061887D02*
D03*
X062387D02*
D03*
X062887D02*
D03*
X063387D02*
D03*
X063386Y031791D02*
D03*
X062886D02*
D03*
X062386D02*
D03*
X061886D02*
D03*
X061386D02*
D03*
X060886D02*
D03*
X060386D02*
D03*
X059886D02*
D03*
X047907Y029395D02*
D03*
X048407D02*
D03*
X048907D02*
D03*
X049407D02*
D03*
X049907D02*
D03*
X050407D02*
D03*
X050907D02*
D03*
X051407D02*
D03*
X051406Y031791D02*
D03*
X050906D02*
D03*
X050406D02*
D03*
X049906D02*
D03*
X049406D02*
D03*
X048906D02*
D03*
X048406D02*
D03*
X047906D02*
D03*
X034657Y029395D02*
D03*
X035157D02*
D03*
X035657D02*
D03*
X036157D02*
D03*
X036657D02*
D03*
X037157D02*
D03*
X037657D02*
D03*
X038157D02*
D03*
X038156Y031791D02*
D03*
X037656D02*
D03*
X037156D02*
D03*
X036656D02*
D03*
X036156D02*
D03*
X035656D02*
D03*
X035156D02*
D03*
X034656D02*
D03*
X022057Y029395D02*
D03*
X022557D02*
D03*
X023057D02*
D03*
X023557D02*
D03*
X024057D02*
D03*
X024557D02*
D03*
X025057D02*
D03*
X025557D02*
D03*
X025556Y031791D02*
D03*
X025056D02*
D03*
X024556D02*
D03*
X024056D02*
D03*
X023556D02*
D03*
X023056D02*
D03*
X022556D02*
D03*
X022056D02*
D03*
X070238Y029395D02*
D03*
X070738D02*
D03*
X071238D02*
D03*
X071738D02*
D03*
X072238D02*
D03*
X072738D02*
D03*
X073238D02*
D03*
X073738D02*
D03*
X073737Y031791D02*
D03*
X073237D02*
D03*
X072737D02*
D03*
X072237D02*
D03*
X071737D02*
D03*
X071237D02*
D03*
X070737D02*
D03*
X070237D02*
D03*
X076207Y029395D02*
D03*
X076707D02*
D03*
X077207D02*
D03*
X077707D02*
D03*
X078207D02*
D03*
X078707D02*
D03*
X079207D02*
D03*
X079707D02*
D03*
X079706Y031791D02*
D03*
X079206D02*
D03*
X078706D02*
D03*
X078206D02*
D03*
X077706D02*
D03*
X077206D02*
D03*
X076706D02*
D03*
X076206D02*
D03*
D14*
X085613Y031558D02*
D03*
Y031755D02*
D03*
Y031952D02*
D03*
Y032148D02*
D03*
Y032345D02*
D03*
Y032542D02*
D03*
Y032739D02*
D03*
Y032936D02*
D03*
Y033133D02*
D03*
Y03333D02*
D03*
Y033526D02*
D03*
Y033723D02*
D03*
X08896D02*
D03*
Y033526D02*
D03*
Y03333D02*
D03*
Y033133D02*
D03*
Y032936D02*
D03*
Y032739D02*
D03*
Y032542D02*
D03*
Y032345D02*
D03*
Y032148D02*
D03*
Y031952D02*
D03*
Y031755D02*
D03*
Y031558D02*
D03*
D15*
X086204Y034314D02*
D03*
X086401D02*
D03*
X086598D02*
D03*
X086794D02*
D03*
X086991D02*
D03*
X087188D02*
D03*
X087385D02*
D03*
X087582D02*
D03*
X087779D02*
D03*
X087976D02*
D03*
X088172D02*
D03*
X088369D02*
D03*
Y030967D02*
D03*
X088172D02*
D03*
X087976D02*
D03*
X087779D02*
D03*
X087582D02*
D03*
X087385D02*
D03*
X087188D02*
D03*
X086991D02*
D03*
X086794D02*
D03*
X086598D02*
D03*
X086401D02*
D03*
X086204D02*
D03*
D16*
X088457Y027441D02*
D03*
X082316D02*
D03*
D17*
X076868Y03306D02*
D03*
Y034054D02*
D03*
X079545Y034064D02*
D03*
Y03306D02*
D03*
D18*
X08038Y026941D02*
D03*
X079593D02*
D03*
Y028286D02*
D03*
X08038D02*
D03*
D19*
X082949Y035609D02*
D03*
Y036396D02*
D03*
X081987D02*
D03*
Y035609D02*
D03*
X084887Y033778D02*
D03*
Y032991D02*
D03*
D20*
X082181Y031122D02*
D03*
X083087Y031132D02*
D03*
X084002D02*
D03*
D21*
X083087Y033819D02*
D03*
D22*
X08038Y025845D02*
D03*
X079593D02*
D03*
D23*
X075687Y033984D02*
D03*
Y033197D02*
D03*
X084887Y031147D02*
D03*
Y031934D02*
D03*
D48*
X091594Y027541D02*
Y028541D01*
Y027541D02*
X09192Y027215D01*
X093326D01*
X093652Y027541D01*
X093661Y025994D02*
Y026531D01*
X093652Y026541D02*
X093661Y026531D01*
X093524Y025857D02*
X093661Y025994D01*
X092968Y025857D02*
X093524D01*
X078825Y025121D02*
X088143D01*
X069894D02*
X078825D01*
X069715Y025301D02*
Y027055D01*
Y025301D02*
X069894Y025121D01*
X088143D02*
X088457Y025436D01*
X086794Y025592D02*
Y030967D01*
X08038Y025421D02*
Y025845D01*
Y025421D02*
X086623D01*
X079152D02*
X08038D01*
X078977Y025596D02*
Y026812D01*
X086623Y025421D02*
X086794Y025592D01*
X078977Y025596D02*
X079152Y025421D01*
X076206Y031791D02*
Y032267D01*
X076073Y032401D02*
X076206Y032267D01*
X075387Y032401D02*
X076073D01*
X037666Y031102D02*
Y031162D01*
X037927Y031321D02*
X039587Y029661D01*
X037927Y031321D02*
Y032172D01*
X037857Y032241D02*
X037927Y032172D01*
X037487Y032241D02*
X037857D01*
X037395Y032149D02*
X037487Y032241D01*
X037395Y030874D02*
Y032149D01*
X037656Y031091D02*
Y031791D01*
X079955Y032521D02*
Y035683D01*
X079706Y032272D02*
X079955Y032521D01*
X079706Y031791D02*
Y032272D01*
X07545Y029405D02*
X076197D01*
X076207Y029395D01*
X074898D02*
X074902Y029391D01*
X074917Y029017D02*
Y029405D01*
X077507Y029042D02*
Y029632D01*
X074917Y029017D02*
X075065Y028868D01*
X077333D01*
X077507Y029042D01*
X063387Y029395D02*
X064131D01*
X064282Y029244D01*
X066107D01*
X072902Y035211D02*
Y035821D01*
X073064Y035983D02*
X077761D01*
X072237Y033981D02*
Y034546D01*
X072902Y035211D01*
Y035821D02*
X073064Y035983D01*
X071387Y035491D02*
Y035495D01*
X071417Y036026D02*
X071556Y036165D01*
X071417Y035495D02*
Y036026D01*
X087039Y031923D02*
Y033198D01*
X086871Y031755D02*
X087039Y031923D01*
X085613Y031755D02*
X086871D01*
X083646Y032971D02*
X084887D01*
X085346Y029333D02*
X085613Y029601D01*
X081626Y029333D02*
X085346D01*
X081358Y029601D02*
X081626Y029333D01*
X085426Y029159D02*
X085927Y02966D01*
X08126Y029159D02*
X085426D01*
X080787Y029632D02*
X08126Y029159D01*
X081358Y029601D02*
Y034206D01*
X08235Y029566D02*
X085171D01*
X085344Y02974D02*
Y031719D01*
X085171Y029566D02*
X085344Y02974D01*
X085613Y029601D02*
Y031558D01*
X085927Y02966D02*
Y031096D01*
X082181Y029735D02*
X08235Y029566D01*
X082181Y029735D02*
Y031122D01*
X084887Y030182D02*
Y031147D01*
X084727Y030022D02*
X084887Y030182D01*
X083673Y030022D02*
X084727D01*
X083218D02*
X083673D01*
X083087Y030154D02*
X083218Y030022D01*
X083087Y030154D02*
Y031132D01*
X087779Y029945D02*
X088039Y029685D01*
X087779Y029945D02*
Y030967D01*
X088597Y029045D02*
X091014D01*
X087734D02*
X088597D01*
X089533Y032971D02*
X090461D01*
X089465Y033039D02*
X089533Y032971D01*
X089465Y033039D02*
Y033446D01*
X089385Y033526D02*
X089465Y033446D01*
X08896Y033526D02*
X089385D01*
X088722D02*
X08896D01*
X090461Y032971D02*
X090574Y033083D01*
Y035548D01*
X090237Y035884D02*
X090574Y035548D01*
X08538Y031755D02*
X085613D01*
X085344Y031719D02*
X08538Y031755D01*
X084462Y031934D02*
X084887D01*
X084347Y031818D02*
X084462Y031934D01*
X084347Y030818D02*
Y031818D01*
X083367Y032971D02*
X083646D01*
Y032299D02*
Y032971D01*
Y032299D02*
X083652Y032293D01*
X08465Y036553D02*
X085399D01*
X084459Y036362D02*
X08465Y036553D01*
X084459Y035473D02*
Y036362D01*
X084854Y034685D02*
X085237Y035067D01*
Y035791D01*
X083091Y034685D02*
X084854D01*
X083427Y035313D02*
Y035825D01*
Y035313D02*
X083528Y035211D01*
X084198D01*
X084459Y035473D01*
X085399Y036553D02*
X085613Y036339D01*
Y035129D02*
Y036339D01*
X084887Y034402D02*
X085613Y035129D01*
X084887Y033778D02*
Y034402D01*
X081028Y036755D02*
X085762D01*
X085831Y036686D01*
Y034916D02*
Y036686D01*
X085613Y034699D02*
X085831Y034916D01*
X085613Y033723D02*
Y034699D01*
X08896Y035884D02*
X090237D01*
X088763Y035687D02*
X08896Y035884D01*
X088334Y035687D02*
X088763D01*
X083087Y033819D02*
Y034681D01*
X083091Y034685D01*
X081152Y034412D02*
X081358Y034206D01*
X084887Y032971D02*
Y032991D01*
X08493Y032971D02*
X08495Y032991D01*
X083087Y033251D02*
X083367Y032971D01*
X083087Y033251D02*
Y033819D01*
X079545Y034064D02*
Y034932D01*
X079477Y035D02*
X079545Y034932D01*
X079477Y035D02*
Y035581D01*
X075044Y035833D02*
X075387Y035491D01*
X074209Y035833D02*
X075044D01*
X074067Y035691D02*
X074209Y035833D01*
X077507Y031232D02*
Y033508D01*
X077417Y033598D02*
X077507Y033508D01*
X077417Y033598D02*
Y035495D01*
X074785Y033984D02*
X075687D01*
X063664Y033981D02*
X072237D01*
X063357Y034288D02*
X063664Y033981D01*
X069639Y033486D02*
X071659D01*
X069263Y03311D02*
X069639Y033486D01*
X067244Y03311D02*
X069263D01*
X066967Y032833D02*
X067244Y03311D01*
X066967Y031987D02*
Y032833D01*
X070237Y03132D02*
Y031791D01*
X070187Y03127D02*
X070237Y03132D01*
X066347Y03127D02*
X070187D01*
X06563Y031987D02*
X066347Y03127D01*
X065177Y031987D02*
X06563D01*
X065956Y029395D02*
X066107Y029244D01*
X069464Y027306D02*
X069715Y027055D01*
X063945Y027306D02*
X069464D01*
X063387Y027864D02*
X063945Y027306D01*
X063387Y027864D02*
Y029395D01*
X065787Y026042D02*
Y026775D01*
X063187Y027306D02*
Y029651D01*
X065553Y027008D02*
X065787Y026775D01*
X063484Y027008D02*
X065553D01*
X063187Y027306D02*
X063484Y027008D01*
X09312Y031651D02*
Y035727D01*
X093022Y035825D02*
X09312Y035727D01*
X090757Y035825D02*
X093022D01*
X086931Y033601D02*
X087287Y033245D01*
X086334Y033601D02*
X086931D01*
X087287Y031572D02*
Y033245D01*
X087301Y031558D02*
X087779D01*
X085613D02*
X087301D01*
X087287Y031572D02*
X087301Y031558D01*
X087779D02*
X08812D01*
X090798Y031147D02*
X091807Y030138D01*
X089308Y031147D02*
X090798D01*
X087435Y033309D02*
Y033811D01*
X08735Y033896D02*
X087435Y033811D01*
X086847Y033896D02*
X08735D01*
X087779Y033625D02*
Y034314D01*
X087777Y033623D02*
X087779Y033625D01*
X086171Y033391D02*
X086846D01*
X085937Y033625D02*
X086171Y033391D01*
X085937Y033625D02*
Y034811D01*
X086401Y034932D02*
X088213D01*
X086058D02*
X086401D01*
X085937Y034811D02*
X086058Y034932D01*
X086781Y034782D02*
X089007D01*
X089308Y034481D01*
X087976D02*
X088057Y034562D01*
X087976Y034314D02*
Y034481D01*
X088057Y034562D02*
X088722D01*
X088788Y034215D02*
Y034497D01*
X088722Y034562D02*
X088788Y034497D01*
X086598Y034599D02*
X086781Y034782D01*
X086598Y034314D02*
Y034599D01*
X088131Y033161D02*
X088172Y033203D01*
X087582Y033161D02*
X088131D01*
X087435Y033309D02*
X087582Y033161D01*
X088437Y033629D02*
X088532Y033723D01*
X08812Y031558D02*
X088437Y031875D01*
Y033629D01*
X088172Y033203D02*
Y034314D01*
X088532Y033723D02*
X08896D01*
X088213Y034932D02*
X088334Y035053D01*
Y035687D01*
X086204Y03373D02*
X086334Y033601D01*
X081004Y028967D02*
X085807D01*
X080638Y029333D02*
X081004Y028967D01*
X080638Y029333D02*
Y035812D01*
X080787Y035962D01*
Y036514D01*
X081028Y036755D01*
X086065Y033241D02*
X086737D01*
X085977Y03333D02*
X086065Y033241D01*
X085613Y03333D02*
X085977D01*
X086846Y032158D02*
Y033133D01*
X086737Y033241D02*
X086846Y033133D01*
X086204Y03373D02*
Y034314D01*
X086846Y033391D02*
X087039Y033198D01*
X085613Y032739D02*
X086252D01*
X088597Y029045D02*
Y033401D01*
X087582Y029198D02*
Y030967D01*
X088747Y030022D02*
Y032851D01*
X088832Y032936D01*
X08896D01*
X088747Y030022D02*
X089207Y029562D01*
X088597Y033401D02*
X088722Y033526D01*
X081901Y031805D02*
X083816D01*
X081678Y032028D02*
X081901Y031805D01*
X084002Y031132D02*
Y031619D01*
X083816Y031805D02*
X084002Y031619D01*
X081678Y032028D02*
Y034198D01*
X082231Y034751D01*
X082661Y031254D02*
Y031555D01*
X082727Y031621D02*
X083367D01*
X082661Y031555D02*
X082727Y031621D01*
X08253Y031122D02*
X082661Y031254D01*
X082181Y031122D02*
X08253D01*
X081735D02*
X082181D01*
X081528Y031329D02*
X081735Y031122D01*
X081528Y031329D02*
Y034544D01*
X082024Y035039D01*
X087146Y030066D02*
X087385Y030306D01*
Y030967D01*
X087146Y029685D02*
Y030066D01*
X091014Y025857D02*
Y02781D01*
Y025157D02*
Y025857D01*
X092968D01*
X089207Y029562D02*
X089997D01*
X091807Y030138D02*
X093054D01*
X093652Y029541D01*
X087334Y035687D02*
Y03631D01*
X087467Y036443D01*
X090139D02*
X090757Y035825D01*
X087467Y036443D02*
X090139D01*
X052337Y028961D02*
X059983D01*
X052187Y029111D02*
Y031594D01*
Y029111D02*
X052337Y028961D01*
X05199Y031791D02*
X052187Y031594D01*
X051406Y031791D02*
X05199D01*
X040587Y026042D02*
Y032241D01*
X040397Y032431D02*
X040587Y032241D01*
X037007Y032431D02*
X040397D01*
X036897Y032321D02*
X037007Y032431D01*
X036897Y030879D02*
Y032321D01*
X021517Y029084D02*
Y03594D01*
X026428Y036129D02*
X026667Y035891D01*
X021517Y03594D02*
X021706Y036129D01*
X026428D01*
X027108Y035951D02*
X039502D01*
X026987Y03583D02*
X027108Y035951D01*
X026987Y035491D02*
Y03583D01*
X027987Y03501D02*
Y035491D01*
X027817Y034841D02*
X027987Y03501D01*
X026836Y034841D02*
X027817D01*
X026667Y03501D02*
Y035891D01*
Y03501D02*
X026836Y034841D01*
X037191Y035802D02*
X037956D01*
X038078Y03568D01*
Y034885D02*
Y03568D01*
X038202Y034761D02*
X040507D01*
X038078Y034885D02*
X038202Y034761D01*
X040587Y034841D02*
Y035491D01*
X040507Y034761D02*
X040587Y034841D01*
X039587Y035491D02*
Y035866D01*
X039502Y035951D02*
X039587Y035866D01*
X037437Y030075D02*
Y030832D01*
X037395Y030874D02*
X037437Y030832D01*
X036156Y030954D02*
Y031791D01*
X035365Y030179D02*
X036462D01*
X035157Y029395D02*
Y029971D01*
X035365Y030179D01*
X036462D02*
X036783Y030501D01*
Y030766D01*
X036897Y030879D01*
X037156Y030081D02*
Y030591D01*
X037094Y030019D02*
X037156Y030081D01*
X036067Y030019D02*
X037094D01*
X035927Y029879D02*
X036067Y030019D01*
X035927Y028781D02*
Y029879D01*
X036657Y029671D02*
X036794Y029808D01*
X037169D01*
X037437Y030075D01*
X037427Y028326D02*
Y029716D01*
X037656Y029945D01*
X02479Y030179D02*
X033426D01*
X033587Y030019D01*
Y028781D02*
Y030019D01*
Y028781D02*
X033756Y028612D01*
X035757D01*
X035927Y028781D01*
X036157Y028613D02*
Y029395D01*
X035979Y028435D02*
X036157Y028613D01*
X03376Y028435D02*
X035979D01*
X073232Y031785D02*
X073238Y03179D01*
X036193Y028102D02*
X037202D01*
X036067Y027975D02*
X036193Y028102D01*
X036067Y025731D02*
Y027975D01*
X037202Y028102D02*
X037427Y028326D01*
X037157Y028475D02*
Y029395D01*
X034783Y028262D02*
X036943D01*
X037157Y028475D01*
X034587Y028065D02*
X034783Y028262D01*
X034587Y026042D02*
Y028065D01*
X033587Y026042D02*
Y028262D01*
X03376Y028435D01*
X02445Y03003D02*
X032765D01*
X032953Y025697D02*
Y029842D01*
X032765Y03003D02*
X032953Y029842D01*
X035897Y025561D02*
X036067Y025731D01*
X033089Y025561D02*
X035897D01*
X038157Y025561D02*
Y029395D01*
X037936Y025341D02*
X038157Y025561D01*
X032681Y025341D02*
X037936D01*
X023284Y033788D02*
X023551Y034055D01*
X024724D01*
X024987Y034317D01*
X023057Y029395D02*
Y031354D01*
X023284Y031582D02*
Y033788D01*
X023057Y031354D02*
X023284Y031582D01*
X024987Y034317D02*
Y035491D01*
X023478Y034322D02*
Y034881D01*
X023056Y0339D02*
X023478Y034322D01*
X023056Y031791D02*
Y0339D01*
X072748Y030778D02*
Y031779D01*
X072737Y031791D02*
X072748Y031779D01*
X071737Y030413D02*
Y031321D01*
X073232Y031201D02*
Y031785D01*
X073437Y032637D02*
Y035491D01*
Y032637D02*
X073509Y032565D01*
Y030273D02*
Y032565D01*
X07722Y031805D02*
Y032401D01*
X077221Y032754D02*
X077311Y032844D01*
X076826Y032754D02*
X077221D01*
X077311Y032844D02*
Y03349D01*
X077201Y033601D02*
X077311Y03349D01*
X074727Y033601D02*
X077201D01*
X076706Y032633D02*
X076826Y032754D01*
X076706Y031791D02*
Y032633D01*
X073237Y031791D02*
X073238Y03179D01*
X073344Y030108D02*
X073509Y030273D01*
X07039Y030108D02*
X073344D01*
X04941Y030885D02*
X049414Y030881D01*
X04941Y030885D02*
Y031786D01*
X049406Y031791D02*
X04941Y031786D01*
X023556Y03304D02*
X023556Y03304D01*
X023556Y031791D02*
Y03304D01*
X023556Y031791D02*
X023556Y031791D01*
X063386Y031208D02*
X06359Y031004D01*
X063386Y031208D02*
Y031791D01*
X06359Y031004D02*
X071098D01*
X070238Y029955D02*
X07039Y030108D01*
X070238Y029395D02*
Y029955D01*
X071406Y02994D02*
X074326D01*
X071238Y029771D02*
X071406Y02994D01*
X074067Y033836D02*
Y035691D01*
Y033836D02*
X074417Y033486D01*
Y030031D02*
Y033486D01*
X074326Y02994D02*
X074417Y030031D01*
X071238Y029395D02*
Y029771D01*
X073002Y028417D02*
Y029691D01*
X072902Y029791D02*
X073002Y029691D01*
X072315Y029791D02*
X072902D01*
X072238Y029713D02*
X072315Y029791D01*
X072238Y029395D02*
Y029713D01*
X072738Y027894D02*
Y029395D01*
X072387Y026042D02*
X072417Y026072D01*
Y027573D01*
Y026046D02*
Y026072D01*
Y027573D02*
X072738Y027894D01*
X071738Y028065D02*
Y029395D01*
X071387Y026042D02*
X071417Y026072D01*
Y027744D01*
Y026046D02*
Y026072D01*
Y027744D02*
X071738Y028065D01*
X086598Y026611D02*
Y030967D01*
X086421Y026434D02*
X086598Y026611D01*
X080108Y026434D02*
X086421D01*
X079979Y026563D02*
X080108Y026434D01*
X079593D02*
X079784Y026243D01*
X08038Y025845D02*
Y026125D01*
X080262Y026243D02*
X08038Y026125D01*
X079784Y026243D02*
X080262D01*
X079248Y025845D02*
X079593D01*
X079207Y025886D02*
Y027771D01*
Y025886D02*
X079248Y025845D01*
X079161Y027816D02*
X079207Y027771D01*
X078784Y027816D02*
X079161D01*
X091014Y029045D02*
Y030463D01*
Y02781D02*
Y029045D01*
X089997Y027791D02*
X090985D01*
X091004Y02781D02*
X091014D01*
X090985Y027791D02*
X091004Y02781D01*
X087582Y029198D02*
X087734Y029045D01*
X090743Y032034D02*
Y033365D01*
X09064Y031931D02*
X090743Y032034D01*
X08942Y031931D02*
X09064D01*
X089308Y032043D02*
X08942Y031931D01*
X089308Y032043D02*
Y032491D01*
X08896Y031755D02*
X091179D01*
X091355Y031931D01*
X091377D01*
X090905Y033526D02*
X092556D01*
X090743Y033365D02*
X090905Y033526D01*
X062886Y031201D02*
Y031791D01*
X071315Y025492D02*
X078297D01*
X078417Y025612D01*
Y026046D01*
X079593Y026434D02*
Y026941D01*
X086204Y02768D02*
Y030901D01*
X085964Y027441D02*
X086204Y02768D01*
X082316Y027441D02*
X085964D01*
X037656Y031091D02*
X037666Y031102D01*
X039587Y026042D02*
Y029661D01*
X037587Y034807D02*
Y035491D01*
X035384Y031056D02*
Y034384D01*
X037306Y034527D02*
X037587Y034807D01*
X035527Y034527D02*
X037306D01*
X035384Y034384D02*
X035527Y034527D01*
X034907Y028908D02*
Y030579D01*
X035384Y031056D01*
X035656Y031791D02*
Y032581D01*
X025556Y031791D02*
Y032581D01*
X063387Y029395D02*
Y030031D01*
X063047Y029791D02*
X063187Y029651D01*
X061277Y029791D02*
X063047D01*
X061137Y029651D02*
X061277Y029791D01*
X061137Y029048D02*
Y029651D01*
X051407Y029395D02*
Y030031D01*
X049143Y034447D02*
X050187Y035491D01*
X049143Y030367D02*
Y034447D01*
X048907Y030131D02*
X049143Y030367D01*
X048906Y03069D02*
Y031791D01*
X048527Y030311D02*
X048906Y03069D01*
X077694Y030611D02*
X0777Y030616D01*
Y031785D01*
X077706Y031791D01*
X037656Y029945D02*
Y031091D01*
X077206Y031791D02*
X07722Y031805D01*
X078514Y030273D02*
X078979Y030739D01*
X078514Y029151D02*
Y030273D01*
X078979Y030739D02*
Y032233D01*
X078707Y031064D02*
X078708Y031063D01*
X078707Y031064D02*
Y03179D01*
X078706Y031791D02*
X078707Y03179D01*
X076387Y035491D02*
X076713Y035817D01*
X078207Y029395D02*
Y030884D01*
X077937Y031154D02*
X078207Y030884D01*
X077937Y031154D02*
Y03278D01*
X078707Y032506D02*
X078979Y032233D01*
X071556Y036165D02*
X078192D01*
X077207Y030932D02*
X077507Y031232D01*
X077847Y03287D02*
Y03561D01*
X07764Y035817D02*
X077847Y03561D01*
X076713Y035817D02*
X07764D01*
X077761Y035983D02*
X078013Y035731D01*
X078192Y036165D02*
X078745Y035612D01*
X079618Y036314D02*
X080108Y035825D01*
X071331Y036314D02*
X079618D01*
X071067Y036051D02*
X071331Y036314D01*
X078745Y033569D02*
Y035612D01*
X078707Y032506D02*
Y033531D01*
X078745Y033569D01*
X077847Y03287D02*
X077937Y03278D01*
X066107Y03507D02*
Y03598D01*
X065977Y034941D02*
X066107Y03507D01*
X064857Y034941D02*
X065977D01*
X064787Y035011D02*
X064857Y034941D01*
X064787Y035011D02*
Y035491D01*
X077311Y025735D02*
X077387Y025811D01*
X075048Y025735D02*
X077311D01*
X074917Y025866D02*
X075048Y025735D01*
X070738Y02607D02*
X071315Y025492D01*
X074917Y025866D02*
Y02805D01*
X074785Y028181D02*
X074917Y02805D01*
X073238Y028181D02*
X074785D01*
X073002Y028417D02*
X073238Y028181D01*
X075076Y028522D02*
X075417Y028181D01*
Y026046D02*
Y028181D01*
X073441Y028522D02*
X075076D01*
X073238Y028725D02*
X073441Y028522D01*
X073238Y028725D02*
Y029395D01*
X077707Y028305D02*
Y029395D01*
X076387Y026042D02*
X076417Y026072D01*
Y026046D02*
Y026072D01*
Y027015D02*
X077707Y028305D01*
X076417Y026072D02*
Y027015D01*
X077387Y025811D02*
Y026042D01*
X064787Y025643D02*
Y026042D01*
X064604Y025461D02*
X064787Y025643D01*
X0595Y025461D02*
X064604D01*
X021517Y029084D02*
X021667Y028934D01*
X052187Y035491D02*
X052737Y034941D01*
X057507D01*
X093027Y031558D02*
X09312Y031651D01*
X08896Y031558D02*
X093027D01*
X087779Y030967D02*
Y031558D01*
X071237Y031142D02*
Y031791D01*
X071098Y031004D02*
X071237Y031142D01*
X07569Y033981D02*
X076284D01*
X075687Y033984D02*
X07569Y033981D01*
X076284D02*
X076358Y034054D01*
X076868D01*
Y034764D01*
X082024Y035039D02*
X082805D01*
X082949Y035183D01*
Y035609D01*
X081528Y035129D02*
Y035554D01*
X081583Y035609D02*
X081987D01*
X081528Y035554D02*
X081583Y035609D01*
X080787Y029632D02*
Y03575D01*
X08102Y035983D01*
X083269D01*
X083427Y035825D01*
X080108Y030601D02*
Y035825D01*
X083898Y035791D02*
Y036314D01*
X083816Y036396D02*
X083898Y036314D01*
X082949Y036396D02*
X083816D01*
X089997Y024941D02*
X090797D01*
X091014Y025157D01*
X090807Y030669D02*
X091014Y030463D01*
X089997Y030669D02*
X090807D01*
X079207Y029159D02*
Y029395D01*
X079131Y029084D02*
X079207Y029159D01*
X078581Y029084D02*
X079131D01*
X078514Y029151D02*
X078581Y029084D01*
X077847Y029711D02*
X077957Y029601D01*
Y028713D02*
Y029601D01*
X08038Y028286D02*
Y028576D01*
X080243Y028713D02*
X08038Y028576D01*
X079707Y028713D02*
X080243D01*
X077957D02*
X079707D01*
Y029395D01*
X077957Y027281D02*
Y028713D01*
X079206Y031791D02*
Y032498D01*
X073738Y029395D02*
X074898D01*
X074917Y029405D02*
Y033147D01*
X074902Y029391D02*
X074917Y029405D01*
X077585Y029711D02*
X077847D01*
X077507Y029632D02*
X077585Y029711D01*
X078903Y030451D02*
X079958D01*
X080108Y030601D01*
X078707Y030255D02*
X078903Y030451D01*
X078707Y029395D02*
Y030255D01*
X06105Y028961D02*
X061137Y029048D01*
X060474Y028961D02*
X06105D01*
X061387Y028454D02*
Y029395D01*
X061221Y028288D02*
X061387Y028454D01*
X059164Y028288D02*
X061221D01*
X061887Y028206D02*
Y029395D01*
X061657Y027976D02*
X061887Y028206D01*
X059565Y027976D02*
X061657D01*
X062387Y027861D02*
Y029395D01*
X062187Y027661D02*
X062387Y027861D01*
X059983Y027661D02*
X062187D01*
X059282Y027692D02*
X059565Y027976D01*
X059282Y025679D02*
Y027692D01*
X058787Y027911D02*
X059164Y028288D01*
X058787Y026042D02*
Y027911D01*
X059787Y027464D02*
X059983Y027661D01*
X059787Y026042D02*
Y027464D01*
X059282Y025679D02*
X0595Y025461D01*
X034857Y035211D02*
X035136Y035491D01*
X035587D01*
X037087Y035697D02*
X037191Y035802D01*
X037087Y034841D02*
Y035697D01*
X03539Y034761D02*
X037007D01*
X035156Y031791D02*
Y034527D01*
X037007Y034761D02*
X037087Y034841D01*
X035156Y034527D02*
X03539Y034761D01*
X033967Y031987D02*
X034163Y031791D01*
X034656D01*
X033967Y031987D02*
Y033921D01*
X027987Y025615D02*
Y026042D01*
X027823Y025451D02*
X027987Y025615D01*
X020601Y025451D02*
X027823D01*
X020394Y025657D02*
Y027408D01*
Y025657D02*
X020601Y025451D01*
X026987Y026042D02*
Y029592D01*
X026795Y029783D02*
X026987Y029592D01*
X024244Y029783D02*
X026795D01*
X024057Y029596D02*
X024244Y029783D01*
X027227Y025731D02*
X027413Y025917D01*
X031536Y026486D02*
X032681Y025341D01*
X027628Y026486D02*
X031536D01*
X027413Y026271D02*
X027628Y026486D01*
X027413Y025917D02*
Y026271D01*
X032953Y025697D02*
X033089Y025561D01*
X024556Y030413D02*
Y031791D01*
Y030413D02*
X02479Y030179D01*
X024321Y030159D02*
Y032311D01*
Y030159D02*
X02445Y03003D01*
X034907Y028908D02*
X034963Y028852D01*
X035657Y028982D02*
Y029395D01*
X034963Y028852D02*
X035527D01*
X035657Y028982D01*
X024321Y032311D02*
X02445Y032441D01*
X024978D01*
X025056Y032363D01*
Y031791D02*
Y032363D01*
X022287Y027116D02*
X024085D01*
X021987Y026816D02*
X022287Y027116D01*
X021987Y026042D02*
Y026816D01*
X023557Y027486D02*
Y029395D01*
X021433Y027408D02*
X023478D01*
X023557Y027486D01*
X020987Y026961D02*
X021433Y027408D01*
X020987Y026042D02*
Y026961D01*
X024085Y027116D02*
X024557Y027588D01*
Y029395D01*
X020737Y027751D02*
X022183D01*
X020394Y027408D02*
X020737Y027751D01*
X022183D02*
X022557Y028124D01*
Y029395D01*
X022287Y029037D02*
Y029761D01*
X022183Y028934D02*
X022287Y029037D01*
X021667Y028934D02*
X022183D01*
X079686Y035951D02*
X079955Y035683D01*
X079019Y035951D02*
X079686D01*
X058826Y03626D02*
X065826D01*
X057507Y034941D02*
X058826Y03626D01*
X065826D02*
X066107Y03598D01*
X065787Y035491D02*
Y035841D01*
X060386Y03314D02*
X061308Y034062D01*
X065517Y036111D02*
X065787Y035841D01*
X061667Y036111D02*
X065517D01*
X061308Y035752D02*
X061667Y036111D01*
X061308Y034062D02*
Y035752D01*
X086276Y032071D02*
X086759D01*
X086252Y032047D02*
X086276Y032071D01*
X086759D02*
X086846Y032158D01*
X083367Y031621D02*
X083483Y031504D01*
X084198Y030669D02*
X084347Y030818D01*
X083677Y030669D02*
X084198D01*
X083483Y030863D02*
X083677Y030669D01*
X083483Y030863D02*
Y031504D01*
X086072Y031241D02*
X087287D01*
X085927Y031096D02*
X086072Y031241D01*
X079593Y027771D02*
X079979Y027384D01*
Y026563D02*
Y027384D01*
X078784Y027816D02*
Y02815D01*
X07892Y028286D01*
X079593D01*
X078784Y027004D02*
X078977Y026812D01*
X078784Y027004D02*
Y027541D01*
X077957Y027281D02*
X078825Y026412D01*
X088457Y025436D02*
Y027441D01*
X046187Y034261D02*
Y035491D01*
X050565Y029856D02*
X050679Y029742D01*
Y027103D02*
Y029742D01*
X049867Y026291D02*
X050679Y027103D01*
X049973Y029856D02*
X050565D01*
X049929Y029812D02*
X049973Y029856D01*
X049929Y029417D02*
Y029812D01*
X049907Y029395D02*
X049929Y029417D01*
X051127Y028102D02*
Y029856D01*
X049187Y029738D02*
X049459Y03001D01*
X050972D02*
X051127Y029856D01*
X049459Y03001D02*
X050972D01*
X048407Y029041D02*
Y029395D01*
X049187Y029081D02*
Y029738D01*
X049067Y028961D02*
X049187Y029081D01*
X048487Y028961D02*
X049067D01*
X048407Y029041D02*
X048487Y028961D01*
X046383Y028102D02*
X04899D01*
X046187Y027905D02*
X046383Y028102D01*
X046187Y026042D02*
Y027905D01*
X050407Y028211D02*
Y029395D01*
X049931Y027736D02*
X050407Y028211D01*
X04749Y027736D02*
X049931D01*
X047187Y027433D02*
X04749Y027736D01*
X047187Y026042D02*
Y027433D01*
X04899Y028102D02*
X049407Y028519D01*
X060387Y029048D02*
X060474Y028961D01*
X060387Y029048D02*
Y029395D01*
X060187Y030551D02*
X060474Y030838D01*
X060187Y029164D02*
Y030551D01*
X059983Y028961D02*
X060187Y029164D01*
X072237Y031791D02*
Y033981D01*
X061886Y032639D02*
Y033369D01*
X062287Y033769D02*
Y035769D01*
X061886Y033369D02*
X062287Y033769D01*
X062157Y031411D02*
Y032186D01*
X062787Y032815D01*
Y035491D01*
X062438Y035921D02*
X063307D01*
X062287Y035769D02*
X062438Y035921D01*
X063357Y034288D02*
Y035871D01*
X063307Y035921D02*
X063357Y035871D01*
X059557Y033311D02*
X059886Y032981D01*
Y031791D02*
Y032981D01*
X059557Y033311D02*
Y033885D01*
X060887Y030141D02*
X062157Y031411D01*
X061886Y031791D02*
Y032639D01*
X026487Y034283D02*
Y035741D01*
Y034283D02*
X026851Y033919D01*
X033965D01*
X033967Y033921D01*
X037156Y030591D02*
Y031791D01*
X088457Y027441D02*
X089569D01*
X089919Y027791D01*
X089997D01*
X086401Y034314D02*
Y034932D01*
X08896Y032542D02*
X089257D01*
X089308Y032491D01*
X036656Y032741D02*
Y033581D01*
X049906Y031791D02*
Y032741D01*
X079593Y027771D02*
Y028286D01*
X078825Y025121D02*
Y026412D01*
X024057Y029395D02*
Y029596D01*
X033587Y034261D02*
Y035491D01*
X057557Y034261D02*
X058787Y035491D01*
X049867Y025771D02*
Y026291D01*
Y025771D02*
X050087Y025551D01*
X051695D01*
X052187Y026042D01*
X070737Y031791D02*
Y032461D01*
X071217Y032941D01*
X036656Y031791D02*
Y032741D01*
X024056Y031791D02*
Y033581D01*
X050406Y030591D02*
Y031791D01*
X050906Y031041D02*
Y031791D01*
X036156D02*
Y033041D01*
X061386Y03145D02*
Y031791D01*
X060807Y030871D02*
X061386Y03145D01*
X071737Y031321D02*
Y031791D01*
X060474Y030838D02*
Y031072D01*
X060886Y031484D01*
Y031791D01*
X070237D02*
Y032401D01*
X079017Y03325D02*
Y035271D01*
Y03325D02*
X079207Y03306D01*
X079545D01*
X087385Y030967D02*
Y031142D01*
X087287Y031241D02*
X087385Y031142D01*
X078206Y031791D02*
Y035211D01*
X078013Y035404D02*
X078206Y035211D01*
X078013Y035404D02*
Y035731D01*
X070738Y02607D02*
Y029395D01*
X022287Y029761D02*
X022556Y03003D01*
Y031791D01*
X025767Y025731D02*
X027227D01*
X025557Y025941D02*
X025767Y025731D01*
X025557Y025941D02*
Y029395D01*
X079477Y034064D02*
X079545D01*
X071067Y035251D02*
Y036051D01*
Y035251D02*
X071167Y035151D01*
X072047D01*
X072387Y035491D01*
X047906Y031791D02*
Y03391D01*
X076707Y029395D02*
Y029921D01*
X076207Y029395D02*
Y029541D01*
X074387Y033941D02*
X074727Y033601D01*
X074387Y033941D02*
Y035491D01*
X08896Y032739D02*
X089308D01*
X089607Y032441D01*
X089997D01*
X060386Y031791D02*
Y03314D01*
X051127Y028102D02*
X053187Y026042D01*
X049407Y028519D02*
Y029395D01*
X047906Y03391D02*
X047907Y033911D01*
X038156Y031511D02*
X039357Y030311D01*
X038156Y031511D02*
Y031791D01*
X036657Y029395D02*
Y029671D01*
X077207Y029395D02*
Y030932D01*
X059887Y029395D02*
Y030541D01*
X060087Y030741D01*
Y034791D01*
X060787Y035491D01*
X026317Y035911D02*
X026487Y035741D01*
X021847Y035911D02*
X026317D01*
X021667Y035731D02*
X021847Y035911D01*
X021667Y03516D02*
Y035731D01*
Y03516D02*
X022056Y034771D01*
Y031791D02*
Y034771D01*
X034657Y029395D02*
Y030541D01*
X034857Y030741D01*
Y035211D01*
X048187Y030751D02*
Y035491D01*
X047907Y030471D02*
X048187Y030751D01*
X047907Y029395D02*
Y030471D01*
X038157Y029395D02*
Y030031D01*
X062386Y030591D02*
Y031791D01*
X060887Y029395D02*
Y030141D01*
X048406Y031791D02*
Y032121D01*
X048677Y032391D01*
Y035571D01*
X048917Y035811D01*
X052867D01*
X053187Y035491D01*
X050187Y026042D02*
X050907Y026762D01*
Y029395D01*
X074917Y033147D02*
X074967Y033197D01*
X075687D01*
X048907Y029395D02*
Y030131D01*
X022057Y029395D02*
Y030541D01*
X022307Y030791D01*
Y034811D01*
X022987Y035491D01*
X076344Y03306D02*
X076868D01*
X076207Y033197D02*
X076344Y03306D01*
X075687Y033197D02*
X076207D01*
X08038Y026941D02*
Y028286D01*
X025057Y027751D02*
Y029395D01*
X024987Y027681D02*
X025057Y027751D01*
X024987Y026042D02*
Y027681D01*
X037657Y027751D02*
Y029395D01*
X037587Y027681D02*
X037657Y027751D01*
X037587Y026042D02*
Y027681D01*
X062887Y027761D02*
Y029395D01*
X062787Y027661D02*
X062887Y027761D01*
X062787Y026042D02*
Y027661D01*
X081987Y036396D02*
X082949D01*
D49*
X092556Y026712D02*
D03*
Y024941D02*
D03*
X089997D02*
D03*
Y027791D02*
D03*
X092556D02*
D03*
Y029562D02*
D03*
X089997Y030669D02*
D03*
X092556D02*
D03*
Y032441D02*
D03*
Y035298D02*
D03*
X089997D02*
D03*
Y033526D02*
D03*
D50*
Y026712D02*
D03*
Y029562D02*
D03*
Y032441D02*
D03*
X092556Y033526D02*
D03*
D51*
X091187Y036396D02*
D03*
X093652Y029541D02*
D03*
Y028541D02*
D03*
Y027541D02*
D03*
Y030541D02*
D03*
D52*
X092187Y036396D02*
D03*
D53*
X083898Y035791D02*
D03*
X085237D02*
D03*
D54*
X088334Y035687D02*
D03*
X087334D02*
D03*
X086334D02*
D03*
D55*
X078784Y027816D02*
D03*
Y027541D02*
D03*
D56*
X071417Y026046D02*
D03*
X033587Y026042D02*
D03*
X058787D02*
D03*
X046187D02*
D03*
X020987D02*
D03*
D57*
X072417Y026046D02*
D03*
X073417D02*
D03*
X074417D02*
D03*
X075417D02*
D03*
X076417D02*
D03*
X077417D02*
D03*
X078417D02*
D03*
Y035495D02*
D03*
X077417D02*
D03*
X076417D02*
D03*
X075417D02*
D03*
X074417D02*
D03*
X073417D02*
D03*
X072417D02*
D03*
X071417D02*
D03*
X033587Y035491D02*
D03*
X034587D02*
D03*
X035587D02*
D03*
X036587D02*
D03*
X037587D02*
D03*
X038587D02*
D03*
X039587D02*
D03*
X040587D02*
D03*
Y026042D02*
D03*
X039587D02*
D03*
X038587D02*
D03*
X037587D02*
D03*
X036587D02*
D03*
X035587D02*
D03*
X034587D02*
D03*
X058787Y035491D02*
D03*
X059787D02*
D03*
X060787D02*
D03*
X061787D02*
D03*
X062787D02*
D03*
X063787D02*
D03*
X064787D02*
D03*
X065787D02*
D03*
Y026042D02*
D03*
X064787D02*
D03*
X063787D02*
D03*
X062787D02*
D03*
X061787D02*
D03*
X060787D02*
D03*
X059787D02*
D03*
X046187Y035491D02*
D03*
X047187D02*
D03*
X048187D02*
D03*
X049187D02*
D03*
X050187D02*
D03*
X051187D02*
D03*
X052187D02*
D03*
X053187D02*
D03*
Y026042D02*
D03*
X052187D02*
D03*
X051187D02*
D03*
X050187D02*
D03*
X049187D02*
D03*
X048187D02*
D03*
X047187D02*
D03*
X020987Y035491D02*
D03*
X021987D02*
D03*
X022987D02*
D03*
X023987D02*
D03*
X024987D02*
D03*
X025987D02*
D03*
X026987D02*
D03*
X027987D02*
D03*
Y026042D02*
D03*
X026987D02*
D03*
X025987D02*
D03*
X024987D02*
D03*
X023987D02*
D03*
X022987D02*
D03*
X021987D02*
D03*
D58*
X093652Y026541D02*
D03*
D59*
X037666Y031162D02*
D03*
X07545Y029405D02*
D03*
X088039Y029685D02*
D03*
X075387Y032401D02*
D03*
X083673Y030022D02*
D03*
X083652Y032293D02*
D03*
X083091Y034685D02*
D03*
X081152Y034412D02*
D03*
X071659Y033486D02*
D03*
X074785Y033984D02*
D03*
X089308Y031147D02*
D03*
X087777Y033623D02*
D03*
X089308Y034481D02*
D03*
X088788Y034215D02*
D03*
X086847Y033896D02*
D03*
X091594Y028541D02*
D03*
X085807Y028967D02*
D03*
X086252Y032739D02*
D03*
X087146Y029685D02*
D03*
X036156Y030954D02*
D03*
X072748Y030778D02*
D03*
X071737Y030413D02*
D03*
X073232Y031201D02*
D03*
X07722Y032401D02*
D03*
X062886Y031201D02*
D03*
X035656Y032581D02*
D03*
X025556Y032581D02*
D03*
X023556Y03304D02*
D03*
X063387Y030031D02*
D03*
X051407D02*
D03*
X049414Y030881D02*
D03*
X078708Y031063D02*
D03*
X077694Y030611D02*
D03*
X076868Y034764D02*
D03*
X082231Y034751D02*
D03*
X081528Y035129D02*
D03*
X079206Y032498D02*
D03*
X079019Y035951D02*
D03*
X023478Y034881D02*
D03*
X086252Y032047D02*
D03*
X046187Y034261D02*
D03*
X059557Y033885D02*
D03*
X061886Y032639D02*
D03*
X057557Y034261D02*
D03*
X071217Y032941D02*
D03*
X036656Y032741D02*
D03*
X049906D02*
D03*
X024056Y033581D02*
D03*
X036656D02*
D03*
X037156Y030591D02*
D03*
X050906Y031041D02*
D03*
X036156Y033041D02*
D03*
X060807Y030871D02*
D03*
X071737Y031321D02*
D03*
X070237Y032401D02*
D03*
X079017Y035271D02*
D03*
X091377Y031931D02*
D03*
X079477Y035581D02*
D03*
X076707Y029921D02*
D03*
X072237Y033981D02*
D03*
X033967Y033921D02*
D03*
X047907Y033911D02*
D03*
X048527Y030311D02*
D03*
X039357D02*
D03*
X038157Y030031D02*
D03*
X062386Y030591D02*
D03*
X050406D02*
D03*
X033587Y034261D02*
D03*
M02*
