G04*
G04 #@! TF.GenerationSoftware,Altium Limited,Altium Designer,19.1.1 (5)*
G04*
G04 Layer_Color=65535*
%FSTAX24Y24*%
%MOIN*%
G70*
G01*
G75*
%ADD10C,0.0100*%
D10*
X091769Y025826D02*
G03*
X091769Y025826I-000492J0D01*
G01*
X08768Y032641D02*
G03*
X08768Y032641I-000394J0D01*
G01*
X086027Y031263D02*
G03*
X086027Y031263I-000118J0D01*
G01*
X079091Y032853D02*
G03*
X079091Y032853I-000097J0D01*
G01*
X085613Y035751D02*
G03*
X085613Y035751I-001046J0D01*
G01*
X088459Y034881D02*
G03*
X086205Y034887I-001125J000806D01*
G01*
X017923Y025089D02*
G03*
X017923Y025089I-000394J0D01*
G01*
X017884Y036476D02*
G03*
X017884Y036476I-000394J0D01*
G01*
X094055Y025079D02*
G03*
X094055Y025079I-000394J0D01*
G01*
X094045Y036476D02*
G03*
X094045Y036476I-000394J0D01*
G01*
X091769Y028676D02*
G03*
X091769Y028676I-000492J0D01*
G01*
Y031555D02*
G03*
X091769Y031555I-000492J0D01*
G01*
Y034412D02*
G03*
X091769Y034412I-000492J0D01*
G01*
X064697Y028089D02*
X067457D01*
X064697D02*
Y032379D01*
X067457D01*
Y028089D02*
Y032379D01*
X059607Y02911D02*
Y03208D01*
X063667D01*
Y02911D02*
Y03208D01*
X059607Y02911D02*
X063667D01*
X059607Y030305D02*
X059797D01*
X059672Y030875D02*
X059797D01*
Y030305D02*
Y030875D01*
X047627Y02911D02*
Y03208D01*
X051687D01*
Y02911D02*
Y03208D01*
X047627Y02911D02*
X051687D01*
X047627Y030305D02*
X047817D01*
X047692Y030875D02*
X047817D01*
Y030305D02*
Y030875D01*
X034377Y02911D02*
Y03208D01*
X038437D01*
Y02911D02*
Y03208D01*
X034377Y02911D02*
X038437D01*
X034377Y030305D02*
X034567D01*
X034442Y030875D02*
X034567D01*
Y030305D02*
Y030875D01*
X021777Y02911D02*
Y03208D01*
X025837D01*
Y02911D02*
Y03208D01*
X021777Y02911D02*
X025837D01*
X021777Y030305D02*
X021967D01*
X021842Y030875D02*
X021967D01*
Y030305D02*
Y030875D01*
X089535Y024576D02*
X093009D01*
Y027076D01*
X089535D02*
X093009D01*
X089535Y024576D02*
Y027076D01*
X085417Y03077D02*
Y034511D01*
X089157D01*
Y03077D02*
Y034511D01*
X085417Y03077D02*
X089157D01*
X069958Y02911D02*
Y03208D01*
X074018D01*
Y02911D02*
Y03208D01*
X069958Y02911D02*
X074018D01*
X069958Y030305D02*
X070148D01*
X070023Y030875D02*
X070148D01*
Y030305D02*
Y030875D01*
X081784Y024527D02*
X089078D01*
X081794Y030443D02*
X089078D01*
Y024527D02*
Y026988D01*
Y027883D02*
Y030443D01*
X081784Y024527D02*
Y026988D01*
X081794Y027903D02*
Y030443D01*
X079917Y032532D02*
Y034592D01*
X076487Y032532D02*
X079917D01*
X076487Y034592D02*
X079917D01*
X076487Y032532D02*
Y034592D01*
X079347Y026621D02*
X080617D01*
X079347D02*
Y027261D01*
X080617Y026621D02*
Y027261D01*
X079347D02*
X080617D01*
X083279Y035413D02*
Y036603D01*
X082619D02*
X083279D01*
X082619Y035413D02*
Y036603D01*
Y035413D02*
X083279D01*
X086206Y03488D02*
X08846D01*
X078371Y027541D02*
X078647D01*
X078371Y027816D02*
X078647D01*
X078351Y027285D02*
X078371D01*
Y028052D01*
X076029Y027285D02*
Y028072D01*
Y027285D02*
X078351D01*
Y028072D02*
X078371Y028052D01*
X076029Y028072D02*
X078351D01*
X068617Y024471D02*
Y03707D01*
Y024471D02*
X081216D01*
Y03707D01*
X068617D02*
X081216D01*
X081807Y034203D02*
X084366D01*
Y030837D02*
Y034203D01*
X081807Y030837D02*
X084366D01*
X081807D02*
Y034203D01*
X075927Y02911D02*
Y03208D01*
X079987D01*
Y02911D02*
Y03208D01*
X075927Y02911D02*
X079987D01*
X075927Y030305D02*
X076117D01*
X075992Y030875D02*
X076117D01*
Y030305D02*
Y030875D01*
X030787Y037065D02*
X043386D01*
Y024467D02*
Y037065D01*
X030787Y024467D02*
X043386D01*
X030787D02*
Y037065D01*
X079347Y028606D02*
X080617D01*
Y027966D02*
Y028606D01*
X079347Y027966D02*
Y028606D01*
Y027966D02*
X080617D01*
X079397Y025515D02*
Y026175D01*
X080587D01*
Y025515D02*
Y026175D01*
X079397Y025515D02*
X080587D01*
X081657Y035413D02*
X082317D01*
X081657D02*
Y036603D01*
X082317D01*
Y035413D02*
Y036603D01*
X089535Y027426D02*
Y029926D01*
X093009D01*
Y027426D02*
Y029926D01*
X089535Y027426D02*
X093009D01*
X089535Y030305D02*
Y032805D01*
X093009D01*
Y030305D02*
Y032805D01*
X089535Y030305D02*
X093009D01*
X055987Y037065D02*
X068586D01*
Y024467D02*
Y037065D01*
X055987Y024467D02*
X068586D01*
X055987D02*
Y037065D01*
X043387D02*
X055986D01*
Y024467D02*
Y037065D01*
X043387Y024467D02*
X055986D01*
X043387D02*
Y037065D01*
X018187D02*
X030786D01*
Y024467D02*
Y037065D01*
X018187Y024467D02*
X030786D01*
X018187D02*
Y037065D01*
X093019Y033162D02*
Y035662D01*
X089544Y033162D02*
X093019D01*
X089544D02*
Y035662D01*
X093019D01*
X076007Y032961D02*
Y034231D01*
X075367Y032961D02*
X076007D01*
X075367Y034231D02*
X076007D01*
X075367Y032961D02*
Y034231D01*
X084566Y030901D02*
Y032171D01*
X085206D01*
X084566Y030901D02*
X085206D01*
Y032171D01*
X084557Y032794D02*
X085217D01*
X084557D02*
Y033984D01*
X085217D01*
Y032794D02*
Y033984D01*
X0169Y024467D02*
Y037065D01*
Y024467D02*
X094262D01*
Y037065D01*
X0169D02*
X094262D01*
X06563Y033031D02*
Y032703D01*
X065695Y032637D01*
X065826D01*
X065892Y032703D01*
Y033031D01*
X066023Y032637D02*
X066154D01*
X066089D01*
Y033031D01*
X066023Y032965D01*
X066351D02*
X066417Y033031D01*
X066548D01*
X066614Y032965D01*
Y032703D01*
X066548Y032637D01*
X066417D01*
X066351Y032703D01*
Y032965D01*
X082787Y032724D02*
Y032396D01*
X082852Y03233D01*
X082983D01*
X083049Y032396D01*
Y032724D01*
X083443Y03233D02*
X08318D01*
X083443Y032592D01*
Y032658D01*
X083377Y032724D01*
X083246D01*
X08318Y032658D01*
X093542Y031592D02*
X093477Y031526D01*
Y031395D01*
X093542Y031329D01*
X093608D01*
X093674Y031395D01*
Y031526D01*
X093739Y031592D01*
X093805D01*
X09387Y031526D01*
Y031395D01*
X093805Y031329D01*
X093477Y031723D02*
X09387D01*
X093739Y031854D01*
X09387Y031985D01*
X093477D01*
Y032116D02*
X09387D01*
Y032313D01*
X093805Y032379D01*
X093542D01*
X093477Y032313D01*
Y032116D01*
X074417Y036425D02*
Y036031D01*
X074679D01*
X075073Y036425D02*
X07481D01*
Y036031D01*
X075073D01*
X07481Y036228D02*
X074941D01*
X075204Y036425D02*
Y036031D01*
X075401D01*
X075466Y036097D01*
Y036359D01*
X075401Y036425D01*
X075204D01*
X07586D02*
X075597D01*
Y036228D01*
X075729Y036294D01*
X075794D01*
X07586Y036228D01*
Y036097D01*
X075794Y036031D01*
X075663D01*
X075597Y036097D01*
X035937Y036584D02*
Y036191D01*
X036199D01*
X036593Y036584D02*
X03633D01*
Y036191D01*
X036593D01*
X03633Y036387D02*
X036461D01*
X036724Y036584D02*
Y036191D01*
X036921D01*
X036986Y036256D01*
Y036519D01*
X036921Y036584D01*
X036724D01*
X03738Y036191D02*
X037117D01*
X03738Y036453D01*
Y036519D01*
X037314Y036584D01*
X037183D01*
X037117Y036519D01*
X076707Y027836D02*
Y02777D01*
X076838Y027639D01*
X076969Y02777D01*
Y027836D01*
X076838Y027639D02*
Y027442D01*
X0771D02*
X077231D01*
X077166D01*
Y027836D01*
X0771Y02777D01*
X087039Y03679D02*
Y036462D01*
X087104Y036396D01*
X087235D01*
X087301Y036462D01*
Y03679D01*
X087432Y036462D02*
X087498Y036396D01*
X087629D01*
X087695Y036462D01*
Y036724D01*
X087629Y03679D01*
X087498D01*
X087432Y036724D01*
Y036658D01*
X087498Y036593D01*
X087695D01*
X082637Y034841D02*
Y035234D01*
X082833D01*
X082899Y035169D01*
Y035037D01*
X082833Y034972D01*
X082637D01*
X082768D02*
X082899Y034841D01*
X083227D02*
Y035234D01*
X08303Y035037D01*
X083293D01*
X081637Y034791D02*
Y035184D01*
X081833D01*
X081899Y035119D01*
Y034987D01*
X081833Y034922D01*
X081637D01*
X081768D02*
X081899Y034791D01*
X08203Y035119D02*
X082096Y035184D01*
X082227D01*
X082293Y035119D01*
Y035053D01*
X082227Y034987D01*
X082161D01*
X082227D01*
X082293Y034922D01*
Y034856D01*
X082227Y034791D01*
X082096D01*
X08203Y034856D01*
X080737Y025641D02*
Y026034D01*
X080933D01*
X080999Y025969D01*
Y025837D01*
X080933Y025772D01*
X080737D01*
X080868D02*
X080999Y025641D01*
X081393D02*
X08113D01*
X081393Y025903D01*
Y025969D01*
X081327Y026034D01*
X081196D01*
X08113Y025969D01*
X084343Y035195D02*
X084737D01*
Y035458D01*
X084343Y035589D02*
X084737D01*
Y035786D01*
X084671Y035851D01*
X084409D01*
X084343Y035786D01*
Y035589D01*
X084737Y035982D02*
X084343D01*
Y036179D01*
X084409Y036245D01*
X08454D01*
X084605Y036179D01*
Y035982D01*
Y036114D02*
X084737Y036245D01*
Y036376D02*
Y036507D01*
Y036442D01*
X084343D01*
X084409Y036376D01*
X080999Y027032D02*
X080933Y027098D01*
X080802D01*
X080737Y027032D01*
Y02677D01*
X080802Y026704D01*
X080933D01*
X080999Y02677D01*
X081327Y026704D02*
Y027098D01*
X08113Y026901D01*
X081393D01*
X08105Y028414D02*
X080984Y028479D01*
X080853D01*
X080787Y028414D01*
Y028151D01*
X080853Y028086D01*
X080984D01*
X08105Y028151D01*
X081181Y028414D02*
X081247Y028479D01*
X081378D01*
X081443Y028414D01*
Y028348D01*
X081378Y028283D01*
X081312D01*
X081378D01*
X081443Y028217D01*
Y028151D01*
X081378Y028086D01*
X081247D01*
X081181Y028151D01*
X090338Y036573D02*
X090207D01*
X090273D01*
Y036245D01*
X090207Y03618D01*
X090142D01*
X090076Y036245D01*
X09047Y03618D02*
X090601D01*
X090535D01*
Y036573D01*
X09047Y036508D01*
X077957Y033775D02*
Y033382D01*
X078153D01*
X078219Y033447D01*
Y03371D01*
X078153Y033775D01*
X077957D01*
X07835Y033382D02*
X078481D01*
X078416D01*
Y033775D01*
X07835Y03371D01*
X083988Y031682D02*
X083923Y031616D01*
Y031485D01*
X083988Y031419D01*
X084251D01*
X084316Y031485D01*
Y031616D01*
X084251Y031682D01*
X084316Y032075D02*
Y031813D01*
X084054Y032075D01*
X083988D01*
X083923Y03201D01*
Y031879D01*
X083988Y031813D01*
X075713Y032789D02*
X075647Y032854D01*
X075516D01*
X07545Y032789D01*
Y032526D01*
X075516Y032461D01*
X075647D01*
X075713Y032526D01*
X075844Y032461D02*
X075975D01*
X07591D01*
Y032854D01*
X075844Y032789D01*
X085037Y027584D02*
Y027191D01*
X085233D01*
X085299Y027256D01*
Y027322D01*
X085233Y027387D01*
X085037D01*
X085233D01*
X085299Y027453D01*
Y027519D01*
X085233Y027584D01*
X085037D01*
X08543Y027191D02*
X085561D01*
X085496D01*
Y027584D01*
X08543Y027519D01*
X07001Y032824D02*
Y032496D01*
X070076Y03243D01*
X070207D01*
X070272Y032496D01*
Y032824D01*
X070404Y032758D02*
X070469Y032824D01*
X0706D01*
X070666Y032758D01*
Y032692D01*
X0706Y032627D01*
X070666Y032561D01*
Y032496D01*
X0706Y03243D01*
X070469D01*
X070404Y032496D01*
Y032561D01*
X070469Y032627D01*
X070404Y032692D01*
Y032758D01*
X070469Y032627D02*
X0706D01*
X06105Y03258D02*
Y032252D01*
X061115Y032186D01*
X061246D01*
X061312Y032252D01*
Y03258D01*
X061443D02*
X061706D01*
Y032514D01*
X061443Y032252D01*
Y032186D01*
X049143Y032596D02*
Y032268D01*
X049208Y032202D01*
X049339D01*
X049405Y032268D01*
Y032596D01*
X049799D02*
X049667Y03253D01*
X049536Y032399D01*
Y032268D01*
X049602Y032202D01*
X049733D01*
X049799Y032268D01*
Y032333D01*
X049733Y032399D01*
X049536D01*
X035979Y032565D02*
Y032237D01*
X036045Y032172D01*
X036176D01*
X036241Y032237D01*
Y032565D01*
X036635D02*
X036373D01*
Y032369D01*
X036504Y032434D01*
X036569D01*
X036635Y032369D01*
Y032237D01*
X036569Y032172D01*
X036438D01*
X036373Y032237D01*
X023477Y032705D02*
Y032377D01*
X023543Y032311D01*
X023674D01*
X023739Y032377D01*
Y032705D01*
X024067Y032311D02*
Y032705D01*
X023871Y032508D01*
X024133D01*
X080108Y033735D02*
Y033407D01*
X080173Y033341D01*
X080305D01*
X08037Y033407D01*
Y033735D01*
X080501Y033669D02*
X080567Y033735D01*
X080698D01*
X080764Y033669D01*
Y033603D01*
X080698Y033538D01*
X080633D01*
X080698D01*
X080764Y033472D01*
Y033407D01*
X080698Y033341D01*
X080567D01*
X080501Y033407D01*
X087037Y033687D02*
Y033359D01*
X087102Y033294D01*
X087233D01*
X087299Y033359D01*
Y033687D01*
X08743Y033294D02*
X087561D01*
X087496D01*
Y033687D01*
X08743Y033622D01*
X091049Y025069D02*
X090983Y025134D01*
X090852D01*
X090787Y025069D01*
Y025003D01*
X090852Y024937D01*
X090983D01*
X091049Y024872D01*
Y024806D01*
X090983Y024741D01*
X090852D01*
X090787Y024806D01*
X09118Y025134D02*
Y024741D01*
X091311Y024872D01*
X091443Y024741D01*
Y025134D01*
X091771Y024741D02*
Y025134D01*
X091574Y024937D01*
X091836D01*
X091049Y027919D02*
X090983Y027984D01*
X090852D01*
X090787Y027919D01*
Y027853D01*
X090852Y027787D01*
X090983D01*
X091049Y027722D01*
Y027656D01*
X090983Y027591D01*
X090852D01*
X090787Y027656D01*
X09118Y027984D02*
Y027591D01*
X091311Y027722D01*
X091443Y027591D01*
Y027984D01*
X091574Y027919D02*
X091639Y027984D01*
X091771D01*
X091836Y027919D01*
Y027853D01*
X091771Y027787D01*
X091705D01*
X091771D01*
X091836Y027722D01*
Y027656D01*
X091771Y027591D01*
X091639D01*
X091574Y027656D01*
X091099Y030819D02*
X091033Y030884D01*
X090902D01*
X090837Y030819D01*
Y030753D01*
X090902Y030687D01*
X091033D01*
X091099Y030622D01*
Y030556D01*
X091033Y030491D01*
X090902D01*
X090837Y030556D01*
X09123Y030884D02*
Y030491D01*
X091361Y030622D01*
X091493Y030491D01*
Y030884D01*
X091886Y030491D02*
X091624D01*
X091886Y030753D01*
Y030819D01*
X091821Y030884D01*
X091689D01*
X091624Y030819D01*
X091154Y033658D02*
X091088Y033723D01*
X090957D01*
X090891Y033658D01*
Y033592D01*
X090957Y033526D01*
X091088D01*
X091154Y033461D01*
Y033395D01*
X091088Y03333D01*
X090957D01*
X090891Y033395D01*
X091285Y033723D02*
Y03333D01*
X091416Y033461D01*
X091547Y03333D01*
Y033723D01*
X091678Y03333D02*
X09181D01*
X091744D01*
Y033723D01*
X091678Y033658D01*
X084316Y033255D02*
X083923D01*
Y033451D01*
X083988Y033517D01*
X084119D01*
X084185Y033451D01*
Y033255D01*
Y033386D02*
X084316Y033517D01*
Y033648D02*
Y033779D01*
Y033714D01*
X083923D01*
X083988Y033648D01*
X060886Y036434D02*
Y036041D01*
X061148D01*
X061542Y036434D02*
X061279D01*
Y036041D01*
X061542D01*
X061279Y036237D02*
X06141D01*
X061673Y036434D02*
Y036041D01*
X06187D01*
X061935Y036106D01*
Y036369D01*
X06187Y036434D01*
X061673D01*
X062263Y036041D02*
Y036434D01*
X062066Y036237D01*
X062329D01*
X048787Y036484D02*
Y036091D01*
X049049D01*
X049443Y036484D02*
X04918D01*
Y036091D01*
X049443D01*
X04918Y036287D02*
X049311D01*
X049574Y036484D02*
Y036091D01*
X049771D01*
X049836Y036156D01*
Y036419D01*
X049771Y036484D01*
X049574D01*
X049967Y036419D02*
X050033Y036484D01*
X050164D01*
X05023Y036419D01*
Y036353D01*
X050164Y036287D01*
X050099D01*
X050164D01*
X05023Y036222D01*
Y036156D01*
X050164Y036091D01*
X050033D01*
X049967Y036156D01*
X023737Y036484D02*
Y036091D01*
X023999D01*
X024393Y036484D02*
X02413D01*
Y036091D01*
X024393D01*
X02413Y036287D02*
X024261D01*
X024524Y036484D02*
Y036091D01*
X024721D01*
X024786Y036156D01*
Y036419D01*
X024721Y036484D01*
X024524D01*
X024917Y036091D02*
X025049D01*
X024983D01*
Y036484D01*
X024917Y036419D01*
M02*
